<?xml version="1.0" encoding="UTF-8" standalone="no"?>
<!-- Created with Inkscape (http://www.inkscape.org/) -->

<svg
   width="210mm"
   height="297mm"
   viewBox="0 0 210 297"
   version="1.1"
   id="svg45954"
   inkscape:version="1.1.1 (3bf5ae0d25, 2021-09-20)"
   sodipodi:docname="varnishing template.svg"
   xmlns:inkscape="http://www.inkscape.org/namespaces/inkscape"
   xmlns:sodipodi="http://sodipodi.sourceforge.net/DTD/sodipodi-0.dtd"
   xmlns="http://www.w3.org/2000/svg"
   xmlns:svg="http://www.w3.org/2000/svg">
  <sodipodi:namedview
     id="namedview45956"
     pagecolor="#ffffff"
     bordercolor="#666666"
     borderopacity="1.0"
     inkscape:pageshadow="2"
     inkscape:pageopacity="0.0"
     inkscape:pagecheckerboard="0"
     inkscape:document-units="mm"
     showgrid="false"
     inkscape:zoom="0.77771465"
     inkscape:cx="-93.221852"
     inkscape:cy="376.10196"
     inkscape:window-width="2560"
     inkscape:window-height="1377"
     inkscape:window-x="-8"
     inkscape:window-y="-8"
     inkscape:window-maximized="1"
     inkscape:current-layer="layer1" />
  <defs
     id="defs45951" />
  <g
     inkscape:label="Layer 1"
     inkscape:groupmode="layer"
     id="layer1">
    <path
       id="rect5419-4"
       style="fill:#666666;stroke-width:0.10139"
       d="M 0.97530926,1.1936196 V 111.22463 c 0.52855004,-1.63066 4.67012404,-6.60883 8.05170504,-8.15299 3.8520647,-1.759 6.7752347,1.08728 10.4345047,-3.359487 0.1632,-0.19833 0.23438,-0.52607 0.23048,-0.63614 -0.0116,-0.3252 -0.10595,-0.59694 -0.35605,-0.80511 -0.37069,-0.30863 -1.15834,0.10291 -1.3193,-0.27802 -0.89676,-2.1223 0.0305,-5.20957 -0.51729,-7.73493 -0.76123,-3.50958 -2.06921,-6.93457 -3.79925,-10.08156 -1.65652,-3.01325 -2.91771,-4.39801 -5.2864947,-6.23424 -0.729818,-0.56577 -1.506717,-1.09163 -2.351277,-1.46503 -0.838719,-0.3708 -2.101295,-0.3643 -2.647384,-0.74776 -0.467829,-0.32838 0.006,-1.32837 0.484208,-1.64072 1.409769,-0.91988 4.121113,-0.63639 6.1768827,-0.44804 2.708615,0.24817 5.303295,1.23597 7.895645,2.05931 2.2024,0.69949 3.5847,1.7385 6.48797,2.44171 1.44082,0.349 4.10006,1.00688 5.78622,0.0703 0.52615,-0.29228 0.76913,-0.96612 0.93534,-1.54461 0.0198,-0.0689 0.0276,-0.13992 0.031,-0.21187 -0.381777,-0.261772 -0.621307,-0.68515 -0.64905,-1.14722 -9.4e-5,-0.828357 0.671293,-1.499977 1.49965,-1.50017 0.520449,0.0018 1.002758,0.273293 1.274337,0.71727 0.66567,-0.10008 1.3617,-0.27525 1.85363,-0.71727 0.43594,-0.39172 0.57883,-1.02639 0.76895,-1.58078 0.18485,-0.53903 0.13223,-1.14738 0.35295,-1.67277 0.21035,-0.50068 0.45428,-1.04972 0.90278,-1.35598 0.26104,-0.17823 0.60844,-0.33628 0.92863,-0.33228 0.10673,0.001 0.21046,0.0203 0.30696,0.0625 0.0621,0.0272 0.12048,0.0612 0.17518,0.10077 0.38308,0.27688 0.58707,0.83174 0.64957,1.30225 0.0837,0.62973 -0.1798,1.2909 -0.50332,1.83761 -0.47711,0.80626 -1.43601,1.2222 -2.01849,1.95596 -0.23313,0.29365 -0.55527,0.5901 -0.57929,0.96428 -0.059,0.91971 0.56713,1.78717 1.10898,2.53266 0.49272,0.67788 0.89338,0.96285 1.87947,1.66967 0.98219,0.71223 1.37932,1.00248 2.17816,1.25573 0.87852,0.27847 1.8994,0.59832 2.75332,0.25167 0.34742,-0.14103 0.5268,-0.54024 0.73174,-0.85421 0.51207,-0.78452 0.60333,-1.82574 1.2175,-2.53318 0.41646,-0.47972 0.96101,-0.93926 1.58491,-1.05885 0.53276,-0.10213 1.22842,-0.0634 1.59164,0.33951 0.28219,0.31302 0.24983,0.85198 0.13435,1.25729 -0.14882,0.52231 -0.59239,0.92739 -1.00097,1.28519 -0.42869,0.37543 -1.02236,0.51831 -1.47536,0.86403 -0.4659,0.35557 -1.02342,0.69147 -1.25729,1.22887 -0.24748,0.56855 -0.21481,1.233 -0.11472,1.86035 0.760852,0.07762 1.341477,0.715235 1.34772,1.48001 9.4e-5,0.828556 -0.671604,1.500258 -1.50016,1.50017 -0.266455,-0.03366 -0.518986,-0.138245 -0.73122,-0.30283 -0.1612,0.0342 -0.31619,0.0803 -0.44701,0.17002 -0.49634,0.3405 -1.05892,0.78405 -1.16995,1.37563 -0.35578,1.89573 1.10909,4.21066 1.89549,5.46736 1.58464,2.53228 3.00703,3.51567 4.36666,5.38417 1.60037,2.19933 3.35793,4.34852 4.44934,6.839887 0.82832,1.8909 1.95325,4.37399 1.526,6.00222 -0.14506,0.55285 -0.94364,1.31834 -1.40301,0.97823 -0.53631,-0.39701 -0.92984,-1.59675 -1.54668,-2.27531 -0.62121,-0.6832 -1.36527,-1.25424 -2.13268,-1.76785 -2.4907,-1.66713 -4.20326,-2.42639 -7.58559,-3.04581 -3.53243,-0.64692 -7.19495,-0.80542 -10.765227,-0.41858 -2.56905,0.27837 -5.20495,2.1335 -7.50187,1.95337 -0.41228,-0.0323 -0.45613,-0.90497 -0.86609,-1.1591 -0.27654,-0.17222 -0.63829,-0.22052 -0.96067,-0.17622 -0.35618,0.049 -0.40659,0.11354 -0.61133,0.32143 -3.96264,4.02368 -8.47188,2.10835 -12.7067207,3.81579 -4.234849,1.70743 -7.548446,7.00929 -8.18864504,6.36292 v 0.0997 H 60.274526 V 1.1936196 Z M 16.337679,9.8644126 c 1.933028,-2.22e-5 3.500062,1.5670124 3.50004,3.5000404 2.2e-5,1.933028 -1.567012,3.500062 -3.50004,3.50004 -1.933032,2.8e-5 -3.500072,-1.567008 -3.50005,-3.50004 -2.2e-5,-1.933032 1.567018,-3.5000681 3.50005,-3.5000404 z m 28.574997,0 c 1.933028,-2.22e-5 3.500062,1.5670124 3.50004,3.5000404 2.2e-5,1.933028 -1.567012,3.500062 -3.50004,3.50004 -1.933032,2.8e-5 -3.500072,-1.567008 -3.50005,-3.50004 -2.2e-5,-1.933032 1.567018,-3.5000681 3.50005,-3.5000404 z M 16.084979,22.032524 v 0.56069 c -0.28794,0.0417 -0.53815,0.13147 -0.71623,0.31264 -0.22842,0.23292 -0.34262,0.5899 -0.34262,1.07126 0,0.46582 0.11562,0.81964 0.34675,1.06143 0.17779,0.18428 0.42646,0.27534 0.7121,0.31781 v 0.56172 c -0.52351,-0.0419 -0.95527,-0.20511 -1.28312,-0.50694 -0.37798,-0.35048 -0.5669,-0.82845 -0.5669,-1.43402 0,-0.60557 0.18892,-1.08355 0.5669,-1.43403 0.32785,-0.30373 0.75961,-0.46837 1.28312,-0.51056 z m 0.54622,0.003 c 0.50203,0.0474 0.91841,0.21174 1.23817,0.50798 0.38069,0.35048 0.57102,0.82846 0.57102,1.43403 0,0.60557 -0.19033,1.08354 -0.57102,1.43402 -0.31976,0.29438 -0.73614,0.45728 -1.23817,0.50436 v -0.56534 c 0.26438,-0.0465 0.49773,-0.13455 0.66714,-0.30851 0.23385,-0.23957 0.35037,-0.59426 0.35037,-1.06453 0,-0.48136 -0.11561,-0.83834 -0.34675,-1.07126 -0.16969,-0.17263 -0.40442,-0.25996 -0.67076,-0.30592 z m 27.612777,0.0491 h 1.33739 v 0.0946 c -0.0811,0.0225 -0.13746,0.0528 -0.16898,0.091 -0.0315,0.036 -0.047,0.0888 -0.047,0.15865 v 3.09387 c 0,0.0698 0.0155,0.12398 0.047,0.16226 0.0315,0.036 0.0879,0.0663 0.16898,0.091 v 0.0915 h -1.33739 v -0.0946 c 0.0788,-0.0203 0.13385,-0.0496 0.16537,-0.0879 0.0338,-0.0383 0.0501,-0.0925 0.0501,-0.16226 v -3.09387 c 0,-0.0698 -0.0155,-0.12262 -0.047,-0.15865 -0.0315,-0.036 -0.0874,-0.0662 -0.16847,-0.091 z m -13.618797,3.890849 c 1.656712,1.01e-4 2.999718,1.343108 2.999817,2.99982 1.82e-4,1.656912 -1.342905,3.000229 -2.999817,3.00033 -1.657116,1.88e-4 -3.000522,-1.343214 -3.00034,-3.00033 9.9e-5,-1.656917 1.343423,-3.000008 3.00034,-2.99982 z m -14.68438,14.58102 c 1.933036,-2.8e-5 3.500078,1.567014 3.50005,3.50005 2.2e-5,1.933032 -1.567018,3.500068 -3.50005,3.50004 -1.933028,2.2e-5 -3.500062,-1.567012 -3.50004,-3.50004 -2.8e-5,-1.933032 1.567008,-3.500072 3.50004,-3.50005 z m 29.368747,0 c 1.933036,-2.8e-5 3.500078,1.567014 3.50005,3.50005 2.2e-5,1.933032 -1.567018,3.500068 -3.50005,3.50004 -1.933028,2.2e-5 -3.500062,-1.567012 -3.50004,-3.50004 -2.8e-5,-1.933032 1.567008,-3.500072 3.50004,-3.50005 z m -33.477017,14.20947 h 2.5063 v 0.16537 c -0.22738,0.0448 -0.34106,0.14124 -0.34106,0.28938 0,0.0965 0.0396,0.23255 0.11886,0.40825 l 1.87068,4.14445 1.87069,-4.14445 c 0.0792,-0.1757 0.11886,-0.31178 0.11886,-0.40825 0,-0.14814 -0.11369,-0.2446 -0.34107,-0.28938 v -0.16537 h 2.41329 v 0.16537 c -0.15158,0.0207 -0.25666,0.0637 -0.31522,0.12919 -0.0586,0.0654 -0.1602,0.25493 -0.3049,0.56844 l -2.44429,5.27616 c -0.10335,0.22393 -0.15503,0.37035 -0.15503,0.43925 0,0.1757 0.10852,0.27905 0.32556,0.31006 v 0.16536 h -2.42879 v -0.16536 c 0.21704,-0.031 0.32556,-0.13608 0.32556,-0.31523 0,-0.0654 -0.0517,-0.21015 -0.15503,-0.43408 l -2.44429,-5.27616 c -0.1447,-0.31351 -0.24633,-0.50299 -0.3049,-0.56844 -0.0586,-0.0655 -0.16364,-0.10852 -0.31522,-0.12919 z m 29.596117,0 h 3.47369 v 1.16272 h -1.603 v 4.72839 h 1.603 v 1.16272 h -3.47369 v -0.16536 c 0.12403,-0.0344 0.21016,-0.0792 0.25839,-0.13436 0.0482,-0.0551 0.0723,-0.13608 0.0723,-0.24288 v -5.96863 c 0,-0.10679 -0.024,-0.18775 -0.0723,-0.24288 -0.0482,-0.0551 -0.13436,-0.0999 -0.25839,-0.13435 z m 4.00648,0.002 c 0.82334,0.006 1.46286,0.10209 1.91048,0.29249 0.66145,0.28594 1.15065,0.75792 1.46761,1.41593 0.25149,0.51676 0.37723,1.12138 0.37723,1.81384 0,1.21612 -0.37379,2.14284 -1.12137,2.78019 -0.31351,0.26871 -0.68041,0.46165 -1.10071,0.57878 -0.40366,0.10919 -0.91668,0.16466 -1.53324,0.16898 v -1.16892 c 0.51275,-0.0174 0.91326,-0.0964 1.18701,-0.24546 0.66489,-0.36174 0.99735,-1.06626 0.99735,-2.11357 0,-0.75792 -0.17915,-1.33842 -0.53743,-1.74149 -0.19982,-0.22393 -0.44098,-0.38241 -0.72347,-0.47542 -0.23954,-0.0818 -0.55018,-0.1271 -0.92346,-0.13953 z"
       sodipodi:nodetypes="ccssccscsccccssscsccccssscccccsccsccssssssssccccccscscscccssccccsccccccccccccccccccsccccsccccsscccscccccccssccccccsscccccccccccccccccccccscccscccccccsccccsccsccccccccccccssccccccscccccscccc" />
  </g>
</svg>
