<?xml version="1.0" encoding="UTF-8" standalone="no"?>
<!-- Created with Inkscape (http://www.inkscape.org/) -->

<svg
   width="210mm"
   height="297mm"
   viewBox="0 0 210 297"
   version="1.1"
   id="svg5"
   inkscape:version="1.1.1 (3bf5ae0d25, 2021-09-20)"
   sodipodi:docname="Dohle Ray.svg"
   xmlns:inkscape="http://www.inkscape.org/namespaces/inkscape"
   xmlns:sodipodi="http://sodipodi.sourceforge.net/DTD/sodipodi-0.dtd"
   xmlns="http://www.w3.org/2000/svg"
   xmlns:svg="http://www.w3.org/2000/svg">
  <sodipodi:namedview
     id="namedview7"
     pagecolor="#ffffff"
     bordercolor="#666666"
     borderopacity="1.0"
     inkscape:pageshadow="2"
     inkscape:pageopacity="0.0"
     inkscape:pagecheckerboard="0"
     inkscape:document-units="mm"
     showgrid="false"
     inkscape:zoom="2.0000001"
     inkscape:cx="184.75"
     inkscape:cy="240.74999"
     inkscape:window-width="2560"
     inkscape:window-height="1377"
     inkscape:window-x="-8"
     inkscape:window-y="-8"
     inkscape:window-maximized="1"
     inkscape:current-layer="layer1" />
  <defs
     id="defs2" />
  <g
     inkscape:label="Layer 1"
     inkscape:groupmode="layer"
     id="layer1">
    <rect
       style="fill:#ff7f2a;stroke-width:0.10139"
       id="rect5419"
       width="59.299999"
       height="110.6"
       x="-0.00024512992"
       y="0.0004776784" />
    <path
       id="path1213"
       style="fill:#000080;stroke:none;stroke-width:0.139176px;stroke-linecap:butt;stroke-linejoin:miter;stroke-opacity:1"
       d="m 37.169061,63.673075 c -0.320196,-0.0037 -0.667589,0.154049 -0.928624,0.33228 -0.448514,0.306247 -0.692438,0.855281 -0.902787,1.355989 -0.220721,0.52537 -0.168101,1.133735 -0.352952,1.672768 -0.190119,0.554389 -0.332999,1.189064 -0.768945,1.580782 -0.547561,0.492011 -1.347931,0.654275 -2.077908,0.749308 -0.347065,0.04519 -0.711465,-0.194561 -1.045932,-0.09147 -0.355238,0.109496 -0.701686,0.370727 -0.863513,0.705382 -0.217083,0.448935 0.114983,1.016754 -0.02273,1.496034 -0.166208,0.578493 -0.409173,1.252326 -0.935341,1.544608 -1.686161,0.936625 -4.345401,0.278707 -5.78621,-0.07028 -2.903265,-0.70321 -4.285573,-1.742215 -6.487978,-2.44171 -2.592353,-0.823338 -5.187032,-1.811136 -7.8956414,-2.059305 -2.055763,-0.188349 -4.7671217,-0.471853 -6.1768838,0.448032 -0.478685,0.312349 -0.9520391,1.312341 -0.4842082,1.640729 0.546081,0.383461 1.8086636,0.376957 2.6473835,0.747757 0.844564,0.373404 1.6214619,0.899256 2.3512777,1.465027 2.3687794,1.836238 3.6299772,3.22099 5.2864992,6.234245 1.730044,3.146986 3.038017,6.571975 3.79925,10.081554 0.547748,2.52536 -0.379474,5.61264 0.517281,7.734929 0.160959,0.38095 0.948931,-0.03058 1.31962,0.278035 0.2501,0.208172 0.344585,0.479833 0.356187,0.805029 0.0039,0.110064 -0.06734,0.437936 -0.230542,0.636262 -3.659266,4.44678 -6.582396,1.60025 -10.4344682,3.35927 -3.8520827,1.75902 -8.69234019,7.97579 -8.05214298729,8.62216 C 0.63994998,111.14686 3.954022,105.84502 8.1888637,104.13758 c 4.2348413,-1.70743 8.7440233,0.20808 12.7066693,-3.81561 0.204735,-0.20789 0.254744,-0.27244 0.610918,-0.3214 0.322376,-0.0443 0.684122,0.004 0.960665,0.17622 0.409969,0.25414 0.453813,1.12677 0.866095,1.15911 2.296925,0.18013 4.932823,-1.675009 7.501869,-1.953377 3.570282,-0.38684 7.233316,-0.228341 10.76575,0.418578 3.382322,0.619429 5.094367,1.378689 7.585067,3.045819 0.767413,0.51361 1.511977,1.08465 2.133203,1.76785 0.616836,0.67856 1.009843,1.8783 1.546159,2.27531 0.459367,0.34012 1.258464,-0.42538 1.403532,-0.97823 0.427247,-1.62823 -0.698193,-4.11132 -1.526521,-6.002227 -1.091404,-2.491372 -2.848986,-4.640564 -4.449342,-6.839894 -1.359633,-1.868499 -2.78202,-2.851886 -4.366659,-5.384168 -0.786414,-1.256699 -2.251274,-3.571629 -1.895491,-5.467366 0.111029,-0.591571 0.673624,-1.035129 1.169955,-1.375627 0.411208,-0.282099 1.054989,-0.146193 1.412317,-0.494027 0.266375,-0.259281 0.404728,-0.670677 0.396357,-1.042313 -0.0079,-0.349909 -0.350219,-0.619686 -0.417029,-0.963247 -0.140515,-0.722601 -0.240006,-1.533152 0.05374,-2.208136 0.233879,-0.537393 0.791385,-0.873297 1.257287,-1.228865 0.452996,-0.345721 1.046665,-0.488601 1.475361,-0.864029 0.408573,-0.357804 0.85216,-0.762884 1.000975,-1.285192 0.11548,-0.405313 0.147833,-0.944269 -0.134361,-1.25729 -0.36322,-0.402907 -1.058876,-0.441639 -1.591633,-0.339513 -0.623906,0.119597 -1.16845,0.579136 -1.584917,1.058849 -0.614172,0.707446 -0.705435,1.748653 -1.217496,2.533179 -0.204949,0.313973 -0.384326,0.713182 -0.731737,0.854213 -0.853925,0.346654 -1.874803,0.02685 -2.753321,-0.251667 -0.798846,-0.253251 -1.195969,-0.543512 -2.178163,-1.255736 -0.986092,-0.706816 -1.386756,-0.99178 -1.879471,-1.669666 -0.541856,-0.745485 -1.168021,-1.612948 -1.108977,-2.532661 0.02402,-0.374173 0.346162,-0.670628 0.579295,-0.964281 0.582483,-0.733756 1.541375,-1.149692 2.018479,-1.955954 0.32352,-0.546716 0.587018,-1.207881 0.503331,-1.837613 -0.06253,-0.470514 -0.266494,-1.025369 -0.649574,-1.302248 -0.05473,-0.03956 -0.113067,-0.07361 -0.175183,-0.100769 -0.09654,-0.0422 -0.200226,-0.06131 -0.306959,-0.06253 z"
       sodipodi:nodetypes="ssssssssccsssscccssscssszsssccsscccscssssssssssssssssscsscsssss"
       inkscape:export-filename="G:\My Drive\Projekty\elektronika\Dohle\path1213.png"
       inkscape:export-xdpi="96"
       inkscape:export-ydpi="96" />
    <circle
       style="fill:#cccccc;stroke-width:0.1"
       id="path5559"
       cx="28.999752"
       cy="86.350624"
       r="6" />
    <circle
       style="fill:#e6e6e6;fill-opacity:1;stroke:none;stroke-width:0.1"
       id="path6818"
       cx="29.649754"
       cy="27.781727"
       r="2.5" />
    <circle
       style="fill:#ff0000;fill-opacity:1;stroke:none;stroke-width:0.1"
       id="path7177"
       cx="31.088295"
       cy="70.115059"
       r="1.5"
       inkscape:export-filename="G:\My Drive\Projekty\elektronika\Dohle\path1213.png"
       inkscape:export-xdpi="96"
       inkscape:export-ydpi="96" />
    <circle
       style="fill:#ff0000;fill-opacity:1;stroke:none;stroke-width:0.1"
       id="path7177-7"
       cx="44.379227"
       cy="79.475113"
       r="1.5"
       inkscape:export-filename="G:\My Drive\Projekty\elektronika\Dohle\path1213.png"
       inkscape:export-xdpi="96"
       inkscape:export-ydpi="96" />
    <path
       id="path1213-7"
       style="fill:#000080;stroke:none;stroke-width:0.139176px;stroke-linecap:butt;stroke-linejoin:miter;stroke-opacity:1"
       d="m 161.79699,61.285157 c -0.3202,-0.0037 -0.66759,0.154048 -0.92862,0.33228 -0.44852,0.306247 -0.69244,0.855281 -0.90279,1.355989 -0.22072,0.52537 -0.1681,1.133734 -0.35295,1.672767 -0.19012,0.55439 -0.333,1.189064 -0.76895,1.580783 -0.54756,0.492011 -1.34793,0.654275 -2.07791,0.749308 -0.34706,0.04519 -0.71146,-0.194562 -1.04593,-0.09147 -0.35524,0.109495 -0.70168,0.370726 -0.86351,0.705382 -0.21708,0.448934 0.11498,1.016754 -0.0227,1.496033 -0.16621,0.578493 -0.40917,1.252326 -0.93534,1.544609 -1.68616,0.936625 -4.3454,0.278707 -5.78621,-0.07028 -2.90327,-0.70321 -4.28557,-1.742216 -6.48798,-2.44171 -2.59235,-0.823339 -5.18703,-1.811137 -7.89564,-2.059305 -2.05576,-0.188349 -4.76712,-0.471853 -6.17688,0.448032 -0.47869,0.312348 -0.95204,1.312341 -0.48421,1.640729 0.54608,0.38346 1.80866,0.376957 2.64738,0.747757 0.84457,0.373404 1.62146,0.899255 2.35128,1.465027 2.36878,1.836238 3.62998,3.22099 5.2865,6.234245 1.73004,3.146986 3.03802,6.571975 3.79925,10.081553 0.54775,2.525361 -0.37948,5.612641 0.51728,7.73493 0.16096,0.38095 0.94893,-0.03059 1.31962,0.278035 0.2501,0.208171 0.34459,0.479832 0.35619,0.805029 0.004,0.110064 -0.0673,0.437936 -0.23054,0.636262 -3.65927,4.446768 -9.28502,3.169511 -13.13709,4.928528 -3.85209,1.75902 -10.6975,10.43995 -10.05731,11.08632 0.6402,0.64636 5.95943,-7.11963 10.19427,-8.82707 4.23485,-1.70744 11.44665,-1.36118 15.40929,-5.38487 0.20474,-0.207889 0.25475,-0.272439 0.61092,-0.321397 0.32238,-0.04431 0.68412,0.0043 0.96067,0.176217 0.40997,0.25413 0.45381,1.126763 0.86609,1.159103 2.29693,0.180131 4.93282,-1.675 7.50187,-1.953369 3.57028,-0.386839 7.23332,-0.22834 10.76575,0.418579 3.38232,0.619419 5.09437,1.378678 7.58507,3.045817 0.76741,0.51361 1.51197,1.08465 2.1332,1.76785 0.61684,0.67856 1.00984,1.8783 1.54616,2.27531 0.45937,0.34012 1.25846,-0.42539 1.40353,-0.97824 0.42725,-1.62823 -0.69819,-4.111318 -1.52652,-6.002215 -1.0914,-2.491373 -2.84899,-4.640564 -4.44934,-6.839895 -1.35963,-1.868498 -2.78202,-2.851885 -4.36666,-5.384167 -0.78641,-1.2567 -2.25127,-3.571629 -1.89549,-5.467366 0.11103,-0.591571 0.67362,-1.03513 1.16995,-1.375627 0.41121,-0.282099 1.05499,-0.146193 1.41232,-0.494027 0.26638,-0.259282 0.40473,-0.670677 0.39636,-1.042313 -0.008,-0.349909 -0.35022,-0.619686 -0.41703,-0.963248 -0.14052,-0.722601 -0.24001,-1.533152 0.0537,-2.208135 0.23388,-0.537393 0.79139,-0.873297 1.25729,-1.228866 0.453,-0.34572 1.04667,-0.4886 1.47536,-0.864028 0.40857,-0.357804 0.85216,-0.762884 1.00098,-1.285193 0.11548,-0.405312 0.14783,-0.944268 -0.13436,-1.257289 -0.36322,-0.402907 -1.05888,-0.44164 -1.59164,-0.339513 -0.6239,0.119597 -1.16845,0.579136 -1.58491,1.058849 -0.61418,0.707446 -0.70544,1.748652 -1.2175,2.533179 -0.20495,0.313973 -0.38433,0.713182 -0.73174,0.854213 -0.85392,0.346654 -1.8748,0.02685 -2.75332,-0.251667 -0.79884,-0.253251 -1.19597,-0.543512 -2.17816,-1.255736 -0.98609,-0.706816 -1.38676,-0.99178 -1.87947,-1.669666 -0.54186,-0.745485 -1.16802,-1.612948 -1.10898,-2.532661 0.024,-0.374174 0.34616,-0.670629 0.5793,-0.964282 0.58248,-0.733755 1.54137,-1.149691 2.01848,-1.955953 0.32351,-0.546717 0.58701,-1.207881 0.50333,-1.837613 -0.0625,-0.470514 -0.2665,-1.025369 -0.64958,-1.302248 -0.0547,-0.03956 -0.11307,-0.07361 -0.17518,-0.100769 -0.0965,-0.0422 -0.20023,-0.06131 -0.30696,-0.06253 z"
       sodipodi:nodetypes="ssssssssccsssscccssscssszsssccsscccscssssssssssssssssscsscssssss"
       inkscape:export-filename="G:\My Drive\Projekty\elektronika\Dohle\path1213.png"
       inkscape:export-xdpi="96"
       inkscape:export-ydpi="96" />
    <circle
       style="fill:#ff0000;fill-opacity:1;stroke:none;stroke-width:0.1"
       id="path7177-72"
       cx="155.71623"
       cy="67.72715"
       r="1.5"
       inkscape:export-filename="G:\My Drive\Projekty\elektronika\Dohle\path1213.png"
       inkscape:export-xdpi="96"
       inkscape:export-ydpi="96" />
    <circle
       style="fill:#ff0000;fill-opacity:1;stroke:none;stroke-width:0.1"
       id="path7177-7-8"
       cx="169.00716"
       cy="77.087204"
       r="1.5"
       inkscape:export-filename="G:\My Drive\Projekty\elektronika\Dohle\path1213.png"
       inkscape:export-xdpi="96"
       inkscape:export-ydpi="96" />
    <text
       xml:space="preserve"
       style="font-style:normal;font-variant:normal;font-weight:normal;font-stretch:normal;font-size:10.5833px;line-height:1.25;font-family:'Wide Latin';-inkscape-font-specification:'Wide Latin';fill:#000000;fill-opacity:1;stroke:none;stroke-width:0.264583"
       x="25.816168"
       y="69.035713"
       id="text8383"><tspan
         sodipodi:role="line"
         id="tspan8381"
         style="font-style:normal;font-variant:normal;font-weight:normal;font-stretch:normal;font-family:'Wide Latin';-inkscape-font-specification:'Wide Latin';stroke-width:0.264583"
         x="25.816168"
         y="69.035713" /></text>
    <circle
       style="fill:#e6e6e6;fill-opacity:1;stroke:none;stroke-width:0.1"
       id="path6692"
       cx="14.965382"
       cy="42.86298"
       r="8" />
    <circle
       style="fill:#e6e6e6;fill-opacity:1;stroke:none;stroke-width:0.1"
       id="path6692-9"
       cx="44.334126"
       cy="42.86298"
       r="8" />
    <text
       xml:space="preserve"
       style="font-style:normal;font-variant:normal;font-weight:normal;font-stretch:normal;font-size:10.5833px;line-height:1.25;font-family:'Copperplate Gothic Bold';-inkscape-font-specification:'Copperplate Gothic Bold, ';fill:#000000;fill-opacity:1;stroke:none;stroke-width:0.264583"
       x="10.893291"
       y="60.625931"
       id="text22231"><tspan
         sodipodi:role="line"
         id="tspan22229"
         style="font-style:normal;font-variant:normal;font-weight:normal;font-stretch:normal;font-family:'Copperplate Gothic Bold';-inkscape-font-specification:'Copperplate Gothic Bold, ';stroke-width:0.264583"
         x="10.893291"
         y="60.625931">V</tspan></text>
    <text
       xml:space="preserve"
       style="font-style:normal;font-variant:normal;font-weight:normal;font-stretch:normal;font-size:10.5833px;line-height:1.25;font-family:'Copperplate Gothic Bold';-inkscape-font-specification:'Copperplate Gothic Bold, ';fill:#000000;fill-opacity:1;stroke:none;stroke-width:0.264583"
       x="39.817619"
       y="60.625931"
       id="text22231-4"><tspan
         sodipodi:role="line"
         id="tspan22229-1"
         style="font-style:normal;font-variant:normal;font-weight:normal;font-stretch:normal;font-family:'Copperplate Gothic Bold';-inkscape-font-specification:'Copperplate Gothic Bold, ';stroke-width:0.264583"
         x="39.817619"
         y="60.625931">D</tspan></text>
    <circle
       style="fill:#e6e6e6;fill-opacity:1;stroke:none;stroke-width:0.1"
       id="path6566"
       cx="15.362255"
       cy="12.17131"
       r="5" />
    <circle
       style="fill:#4d4d4d;fill-opacity:1;stroke:none;stroke-width:0.07"
       id="path6566-0"
       cx="15.362255"
       cy="12.17131"
       r="3.5" />
    <circle
       style="fill:#4d4d4d;fill-opacity:1;stroke:none;stroke-width:0.06"
       id="path6566-0-8"
       cx="29.649754"
       cy="27.781727"
       r="3" />
    <circle
       style="fill:#4d4d4d;fill-opacity:1;stroke:none;stroke-width:0.001"
       id="path6566-0-8-5"
       cx="28.999752"
       cy="86.350624"
       r="0.050000001" />
    <circle
       style="fill:#e6e6e6;fill-opacity:1;stroke:none;stroke-width:0.1"
       id="path6566-1"
       cx="43.937256"
       cy="12.17131"
       r="5" />
    <text
       xml:space="preserve"
       style="font-style:normal;font-variant:normal;font-weight:normal;font-stretch:normal;font-size:6.91705px;line-height:1.25;font-family:'Copperplate Gothic Bold';-inkscape-font-specification:'Copperplate Gothic Bold, ';fill:#000000;fill-opacity:1;stroke:none;stroke-width:0.172926"
       x="42.937527"
       y="24.67485"
       id="text22231-4-6"><tspan
         sodipodi:role="line"
         id="tspan22229-1-8"
         style="font-style:normal;font-variant:normal;font-weight:normal;font-stretch:normal;font-family:'Copperplate Gothic Bold';-inkscape-font-specification:'Copperplate Gothic Bold, ';stroke-width:0.172926"
         x="42.937527"
         y="24.67485">i</tspan></text>
    <text
       xml:space="preserve"
       style="font-style:normal;font-weight:normal;font-size:7.54479px;line-height:1.25;font-family:sans-serif;fill:#000000;fill-opacity:1;stroke:none;stroke-width:0.18862"
       x="11.585471"
       y="27.282999"
       id="text40267"
       transform="scale(1.1071843,0.903192)"><tspan
         sodipodi:role="line"
         id="tspan40265"
         style="stroke-width:0.18862"
         x="11.585471"
         y="27.282999">o</tspan></text>
    <circle
       style="fill:#4d4d4d;fill-opacity:1;stroke:none;stroke-width:0.07"
       id="path6566-0-3"
       cx="14.965382"
       cy="42.86298"
       r="3.5" />
    <circle
       style="fill:#4d4d4d;fill-opacity:1;stroke:none;stroke-width:0.07"
       id="path6566-0-2"
       cx="43.937256"
       cy="12.17131"
       r="3.5" />
    <circle
       style="fill:#4d4d4d;fill-opacity:1;stroke:none;stroke-width:0.07"
       id="path6566-0-4"
       cx="44.334126"
       cy="42.86298"
       r="3.5" />
    <rect
       style="fill:#ff7f2a;fill-opacity:1;stroke:#000000;stroke-width:0.1;stroke-opacity:0.020979"
       id="rect3408"
       width="0.65481037"
       height="11.22532"
       x="43.778751"
       y="51.963875" />
    <rect
       style="fill:#ff7f2a;fill-opacity:1;stroke:#000000;stroke-width:0.1;stroke-opacity:0.020979"
       id="rect3408-2"
       width="0.65481037"
       height="11.22532"
       x="15.013865"
       y="18.007284" />
  </g>
</svg>
