<?xml version="1.0" encoding="UTF-8" standalone="no"?>
<!-- Created with Inkscape (http://www.inkscape.org/) -->

<svg
   width="210mm"
   height="297mm"
   viewBox="0 0 210 297"
   version="1.1"
   id="svg5"
   inkscape:version="1.1.1 (3bf5ae0d25, 2021-09-20)"
   sodipodi:docname="pain_no_base_color.svg"
   xmlns:inkscape="http://www.inkscape.org/namespaces/inkscape"
   xmlns:sodipodi="http://sodipodi.sourceforge.net/DTD/sodipodi-0.dtd"
   xmlns="http://www.w3.org/2000/svg"
   xmlns:svg="http://www.w3.org/2000/svg">
  <sodipodi:namedview
     id="namedview7"
     pagecolor="#ffffff"
     bordercolor="#666666"
     borderopacity="1.0"
     inkscape:pageshadow="2"
     inkscape:pageopacity="0.0"
     inkscape:pagecheckerboard="0"
     inkscape:document-units="mm"
     showgrid="false"
     inkscape:zoom="1.4142136"
     inkscape:cx="114.90485"
     inkscape:cy="230.87036"
     inkscape:window-width="1284"
     inkscape:window-height="1081"
     inkscape:window-x="1260"
     inkscape:window-y="224"
     inkscape:window-maximized="0"
     inkscape:current-layer="layer1" />
  <defs
     id="defs2" />
  <g
     inkscape:label="Layer 1"
     inkscape:groupmode="layer"
     id="layer1">
    <text
       xml:space="preserve"
       style="font-style:normal;font-variant:normal;font-weight:normal;font-stretch:normal;font-size:10.5833px;line-height:1.25;font-family:'Wide Latin';-inkscape-font-specification:'Wide Latin';fill:#000000;fill-opacity:1;stroke:none;stroke-width:0.264583"
       x="25.816168"
       y="69.035713"
       id="text8383"><tspan
         sodipodi:role="line"
         id="tspan8381"
         style="font-style:normal;font-variant:normal;font-weight:normal;font-stretch:normal;font-family:'Wide Latin';-inkscape-font-specification:'Wide Latin';stroke-width:0.264583"
         x="25.816168"
         y="69.035713" /></text>
    <path
       id="path1213"
       style="fill:#000080;stroke:none;stroke-width:0.139176px;stroke-linecap:butt;stroke-linejoin:miter;stroke-opacity:1"
       d="m 37.169061,63.673075 c -0.320196,-0.0037 -0.667589,0.154049 -0.928624,0.33228 -0.448514,0.306247 -0.692438,0.855281 -0.902787,1.355989 -0.220721,0.52537 -0.168101,1.133735 -0.352952,1.672768 -0.190119,0.554389 -0.332999,1.189064 -0.768945,1.580782 -0.547561,0.492011 -1.347931,0.654275 -2.077908,0.749308 -0.347065,0.04519 -0.711465,-0.194561 -1.045932,-0.09147 -0.355238,0.109496 -0.701686,0.370727 -0.863513,0.705382 -0.217083,0.448935 0.114983,1.016754 -0.02273,1.496034 -0.166208,0.578493 -0.409173,1.252326 -0.935341,1.544608 -1.686161,0.936625 -4.345401,0.278707 -5.78621,-0.07028 -2.903265,-0.70321 -4.285573,-1.742215 -6.487978,-2.44171 -2.592353,-0.823338 -5.187032,-1.811136 -7.8956414,-2.059305 -2.055763,-0.188349 -4.7671217,-0.471853 -6.1768838,0.448032 -0.478685,0.312349 -0.9520391,1.312341 -0.4842082,1.640729 0.546081,0.383461 1.8086636,0.376957 2.6473835,0.747757 0.844564,0.373404 1.6214619,0.899256 2.3512777,1.465027 2.3687794,1.836238 3.6299772,3.22099 5.2864992,6.234245 1.730044,3.146986 3.038017,6.571975 3.79925,10.081554 0.547748,2.52536 -0.379474,5.61264 0.517281,7.734929 0.160959,0.38095 0.948931,-0.03058 1.31962,0.278035 0.2501,0.208172 0.344585,0.479833 0.356187,0.805029 0.0039,0.110064 -0.06734,0.437936 -0.230542,0.636262 -3.659266,4.44678 -6.582396,1.60025 -10.4344682,3.35927 -3.8520827,1.75902 -8.69234019,7.97579 -8.05214298729,8.62216 C 0.63994998,111.14686 3.954022,105.84502 8.1888637,104.13758 c 4.2348413,-1.70743 8.7440233,0.20808 12.7066693,-3.81561 0.204735,-0.20789 0.254744,-0.27244 0.610918,-0.3214 0.322376,-0.0443 0.684122,0.004 0.960665,0.17622 0.409969,0.25414 0.453813,1.12677 0.866095,1.15911 2.296925,0.18013 4.932823,-1.675009 7.501869,-1.953377 3.570282,-0.38684 7.233316,-0.228341 10.76575,0.418578 3.382322,0.619429 5.094367,1.378689 7.585067,3.045819 0.767413,0.51361 1.511977,1.08465 2.133203,1.76785 0.616836,0.67856 1.009843,1.8783 1.546159,2.27531 0.459367,0.34012 1.258464,-0.42538 1.403532,-0.97823 0.427247,-1.62823 -0.698193,-4.11132 -1.526521,-6.002227 -1.091404,-2.491372 -2.848986,-4.640564 -4.449342,-6.839894 -1.359633,-1.868499 -2.78202,-2.851886 -4.366659,-5.384168 -0.786414,-1.256699 -2.251274,-3.571629 -1.895491,-5.467366 0.111029,-0.591571 0.673624,-1.035129 1.169955,-1.375627 0.411208,-0.282099 1.054989,-0.146193 1.412317,-0.494027 0.266375,-0.259281 0.404728,-0.670677 0.396357,-1.042313 -0.0079,-0.349909 -0.350219,-0.619686 -0.417029,-0.963247 -0.140515,-0.722601 -0.240006,-1.533152 0.05374,-2.208136 0.233879,-0.537393 0.791385,-0.873297 1.257287,-1.228865 0.452996,-0.345721 1.046665,-0.488601 1.475361,-0.864029 0.408573,-0.357804 0.85216,-0.762884 1.000975,-1.285192 0.11548,-0.405313 0.147833,-0.944269 -0.134361,-1.25729 -0.36322,-0.402907 -1.058876,-0.441639 -1.591633,-0.339513 -0.623906,0.119597 -1.16845,0.579136 -1.584917,1.058849 -0.614172,0.707446 -0.705435,1.748653 -1.217496,2.533179 -0.204949,0.313973 -0.384326,0.713182 -0.731737,0.854213 -0.853925,0.346654 -1.874803,0.02685 -2.753321,-0.251667 -0.798846,-0.253251 -1.195969,-0.543512 -2.178163,-1.255736 -0.986092,-0.706816 -1.386756,-0.99178 -1.879471,-1.669666 -0.541856,-0.745485 -1.168021,-1.612948 -1.108977,-2.532661 0.02402,-0.374173 0.346162,-0.670628 0.579295,-0.964281 0.582483,-0.733756 1.541375,-1.149692 2.018479,-1.955954 0.32352,-0.546716 0.587018,-1.207881 0.503331,-1.837613 -0.06253,-0.470514 -0.266494,-1.025369 -0.649574,-1.302248 -0.05473,-0.03956 -0.113067,-0.07361 -0.175183,-0.100769 -0.09654,-0.0422 -0.200226,-0.06131 -0.306959,-0.06253 z"
       sodipodi:nodetypes="ssssssssccsssscccssscssszsssccsscccscssssssssssssssssscsscsssss"
       inkscape:export-filename="G:\My Drive\Projekty\elektronika\Dohle\path1213.png"
       inkscape:export-xdpi="96"
       inkscape:export-ydpi="96" />
    <g
       aria-label="V"
       id="text22231"
       style="font-size:10.5833px;line-height:1.25;font-family:'Copperplate Gothic Bold';-inkscape-font-specification:'Copperplate Gothic Bold, ';stroke-width:0.264583">
      <path
         d="m 15.01189,58.579551 1.870681,-4.144437 q 0.118855,-0.263549 0.118855,-0.408243 0,-0.222208 -0.341063,-0.289387 V 53.57212 h 2.413282 v 0.165364 q -0.227376,0.03101 -0.315226,0.129191 -0.08785,0.09819 -0.30489,0.568439 l -2.444287,5.276147 q -0.155029,0.335896 -0.155029,0.439248 0,0.263549 0.325561,0.310058 v 0.165364 h -2.428785 v -0.165364 q 0.325561,-0.04651 0.325561,-0.315226 0,-0.09818 -0.155029,-0.43408 l -2.444288,-5.276147 q -0.21704,-0.470254 -0.30489,-0.568439 -0.08785,-0.09819 -0.315225,-0.129191 V 53.57212 h 2.506299 v 0.165364 q -0.341063,0.06718 -0.341063,0.289387 0,0.144694 0.118855,0.408243 z"
         id="path874" />
    </g>
    <path
       id="text22231-4"
       style="font-style:normal;font-variant:normal;font-weight:normal;font-stretch:normal;font-size:10.5833px;line-height:1.25;font-family:'Copperplate Gothic Bold';-inkscape-font-specification:'Copperplate Gothic Bold, ';fill:#000000;fill-opacity:1;stroke:none;stroke-width:0.264583"
       d="m 40.453344,53.571922 v 0.165365 c 0.124023,0.03445 0.21015,0.07924 0.258381,0.134361 0.04823,0.05512 0.07235,0.13608 0.07235,0.242877 v 5.968629 c 0,0.106797 -0.0241,0.187756 -0.07235,0.24288 -0.04823,0.05512 -0.134358,0.09991 -0.258381,0.134358 v 0.165364 h 3.325378 V 59.463037 H 42.32403 v -4.728395 h 1.454692 v -1.16272 z m 3.980119,0.0016 v 1.166336 c 0.385154,0.01109 0.704707,0.05583 0.949812,0.139528 0.282498,0.09302 0.523655,0.251492 0.723471,0.475422 0.358288,0.403077 0.537435,0.983578 0.537435,1.741498 0,1.047306 -0.332454,1.75183 -0.997355,2.113566 -0.27846,0.151606 -0.687596,0.231563 -1.213363,0.247012 v 1.167887 c 0.628806,-0.0028 1.150001,-0.05871 1.559594,-0.169497 0.420302,-0.117134 0.787207,-0.31006 1.100709,-0.578776 0.747583,-0.637342 1.121379,-1.56408 1.121379,-2.780192 0,-0.692462 -0.125746,-1.29708 -0.377238,-1.813843 -0.31695,-0.658011 -0.806156,-1.129993 -1.467612,-1.415936 -0.45262,-0.192532 -1.10005,-0.289243 -1.936832,-0.293005 z" />
    <circle
       style="fill:#4d4d4d;fill-opacity:1;stroke:none;stroke-width:0.001"
       id="path6566-0-8-5"
       cx="28.999752"
       cy="86.350624"
       r="0.050000001" />
    <g
       aria-label="i"
       id="text22231-4-6"
       style="font-size:6.91705px;line-height:1.25;font-family:'Copperplate Gothic Bold';-inkscape-font-specification:'Copperplate Gothic Bold, ';stroke-width:0.172926">
      <path
         d="m 44.389837,21.23659 v 3.093759 q 0,0.104701 0.04729,0.162118 0.04728,0.05404 0.168873,0.09119 v 0.09119 h -1.337477 v -0.09457 q 0.118212,-0.0304 0.165496,-0.08781 0.05066,-0.05742 0.05066,-0.162118 V 21.23659 q 0,-0.104701 -0.04728,-0.158741 -0.04729,-0.05404 -0.168874,-0.09119 v -0.09457 h 1.337477 v 0.09457 q -0.121589,0.03378 -0.168873,0.09119 -0.04729,0.05404 -0.04729,0.158741 z"
         id="path853" />
    </g>
    <path
       id="text40267"
       style="font-style:normal;font-weight:normal;font-size:7.54479px;line-height:1.25;font-family:sans-serif;fill:#000000;fill-opacity:1;stroke:none;stroke-width:0.18862"
       d="m 15.668811,20.838004 v 0.548804 c 0.267783,0.04559 0.487516,0.153841 0.657841,0.327112 0.231134,0.232914 0.346749,0.589897 0.346749,1.071252 0,0.470264 -0.116513,0.824966 -0.350367,1.064535 -0.169953,0.174523 -0.388708,0.283499 -0.654223,0.329695 v 0.549321 c 0.497981,-0.04829 0.907374,-0.216883 1.225248,-0.50953 0.380692,-0.35048 0.571025,-0.828445 0.571025,-1.434021 0,-0.605576 -0.190333,-1.083541 -0.571025,-1.434021 -0.317878,-0.294503 -0.727258,-0.464554 -1.225248,-0.513147 z m -0.65474,0.0052 c -0.482026,0.05412 -0.878878,0.222028 -1.187525,0.50798 -0.377973,0.35048 -0.566891,0.828445 -0.566891,1.434021 0,0.605576 0.188918,1.083541 0.566891,1.434021 0.308653,0.284158 0.705486,0.451107 1.187525,0.504878 V 24.16855 c -0.248453,-0.05082 -0.455951,-0.155537 -0.6165,-0.321944 -0.231135,-0.241787 -0.346749,-0.595607 -0.346749,-1.061434 0,-0.481356 0.114199,-0.838339 0.342615,-1.071253 0.161065,-0.163851 0.369778,-0.267104 0.620634,-0.316776 z" />
  </g>
</svg>
