<?xml version="1.0" encoding="UTF-8" standalone="no"?>
<!-- Created with Inkscape (http://www.inkscape.org/) -->

<svg
   width="210mm"
   height="297mm"
   viewBox="0 0 210 297"
   version="1.1"
   id="svg45954"
   inkscape:version="1.1.1 (3bf5ae0d25, 2021-09-20)"
   sodipodi:docname="varnishing template with button.svg"
   xmlns:inkscape="http://www.inkscape.org/namespaces/inkscape"
   xmlns:sodipodi="http://sodipodi.sourceforge.net/DTD/sodipodi-0.dtd"
   xmlns="http://www.w3.org/2000/svg"
   xmlns:svg="http://www.w3.org/2000/svg">
  <sodipodi:namedview
     id="namedview45956"
     pagecolor="#ffffff"
     bordercolor="#666666"
     borderopacity="1.0"
     inkscape:pageshadow="2"
     inkscape:pageopacity="0.0"
     inkscape:pagecheckerboard="0"
     inkscape:document-units="mm"
     showgrid="false"
     inkscape:zoom="4.3994184"
     inkscape:cx="373.1175"
     inkscape:cy="643.6078"
     inkscape:window-width="2560"
     inkscape:window-height="1377"
     inkscape:window-x="-8"
     inkscape:window-y="-8"
     inkscape:window-maximized="1"
     inkscape:current-layer="layer1" />
  <defs
     id="defs45951" />
  <g
     inkscape:label="Layer 1"
     inkscape:groupmode="layer"
     id="layer1">
    <path
       id="rect5419-4"
       style="fill:#666666;stroke-width:0.383206"
       d="M 295.54297 355.4668 L 295.54297 771.33203 C 297.54064 765.16894 313.19383 746.35381 325.97461 740.51758 C 340.53361 733.86939 351.5818 744.627 365.41211 727.82031 C 366.02893 727.07072 366.29794 725.83203 366.2832 725.41602 C 366.23936 724.18691 365.88276 723.15987 364.9375 722.37305 C 363.53647 721.20661 360.55952 722.762 359.95117 721.32227 C 356.56184 713.30101 360.06644 701.63256 357.99609 692.08789 C 357.42618 689.46034 356.71475 686.8585 355.98633 684.26172 L 388.45703 684.26172 C 388.64948 685.55819 388.98244 686.84389 389.48828 688.10742 C 391.5808 693.3343 396.3307 697.28781 401.83789 698.38477 C 402.13441 698.44383 402.4345 698.49306 402.73438 698.53516 L 402.73438 733.52344 C 396.13253 735.88129 389.63031 738.92947 383.73047 738.4668 C 382.17225 738.34472 382.00652 735.04643 380.45703 734.08594 C 379.41184 733.43503 378.0446 733.25249 376.82617 733.41992 C 375.47998 733.60512 375.28945 733.84904 374.51562 734.63477 C 359.53874 749.84238 342.49593 742.60332 326.49023 749.05664 C 310.4845 755.50992 297.96067 775.54844 295.54102 773.10547 L 295.54102 773.48242 L 402.73438 773.48242 L 402.73438 773.51758 L 407.55469 773.51758 L 407.55469 773.48242 L 519.66602 773.48242 L 519.66602 355.4668 L 295.54297 355.4668 z M 353.60547 388.23828 A 13.228346 13.228346 0 0 1 366.83398 401.4668 A 13.228346 13.228346 0 0 1 353.60547 414.69531 A 13.228346 13.228346 0 0 1 340.37695 401.4668 A 13.228346 13.228346 0 0 1 353.60547 388.23828 z M 461.60547 388.23828 A 13.228346 13.228346 0 0 1 474.83398 401.4668 A 13.228346 13.228346 0 0 1 461.60547 414.69531 A 13.228346 13.228346 0 0 1 448.37695 401.4668 A 13.228346 13.228346 0 0 1 461.60547 388.23828 z M 352.65039 426.67383 L 352.65039 428.79297 C 351.56212 428.95037 350.61645 429.28986 349.94336 429.97461 C 349.08004 430.85494 348.64844 432.20416 348.64844 434.02344 C 348.64844 435.78405 349.08542 437.1213 349.95898 438.03516 C 350.63095 438.73165 351.5708 439.0758 352.65039 439.23633 L 352.65039 441.35938 C 350.67177 441.20116 349.0399 440.58414 347.80078 439.44336 C 346.3722 438.11871 345.6582 436.31224 345.6582 434.02344 C 345.6582 431.73467 346.3722 429.92816 347.80078 428.60352 C 349.0399 427.45553 350.67177 426.83327 352.65039 426.67383 z M 354.71484 426.68359 C 356.61229 426.8629 358.18598 427.48385 359.39453 428.60352 C 360.83336 429.92816 361.55273 431.73467 361.55273 434.02344 C 361.55273 436.31224 360.83336 438.11871 359.39453 439.44336 C 358.18598 440.556 356.61229 441.17168 354.71484 441.34961 L 354.71484 439.21289 C 355.71407 439.03727 356.59603 438.70437 357.23633 438.04688 C 358.12017 437.14141 358.56055 435.80084 358.56055 434.02344 C 358.56055 432.20416 358.1236 430.85494 357.25 429.97461 C 356.60863 429.32214 355.72146 428.99206 354.71484 428.81836 L 354.71484 426.68359 z M 459.07812 426.86914 L 464.13281 426.86914 L 464.13281 427.22656 C 463.82629 427.3116 463.61327 427.42593 463.49414 427.57031 C 463.37509 427.70638 463.31641 427.90596 463.31641 428.16992 L 463.31641 439.86328 C 463.31641 440.12709 463.37509 440.33188 463.49414 440.47656 C 463.6132 440.61263 463.82637 440.72696 464.13281 440.82031 L 464.13281 441.16602 L 459.07812 441.16602 L 459.07812 440.80859 C 459.37595 440.73187 459.58401 440.62094 459.70312 440.47656 C 459.83087 440.33181 459.89258 440.12698 459.89258 439.86328 L 459.89258 428.16992 C 459.89258 427.90611 459.8339 427.70645 459.71484 427.57031 C 459.59579 427.43425 459.38449 427.31992 459.07812 427.22656 L 459.07812 426.86914 z M 407.60547 449.12891 A 11.338583 11.338583 0 0 1 418.94336 460.4668 A 11.338583 11.338583 0 0 1 407.60547 471.80664 A 11.338583 11.338583 0 0 1 396.26562 460.4668 A 11.338583 11.338583 0 0 1 407.60547 449.12891 z M 352.10547 504.23828 A 13.228346 13.228346 0 0 1 365.33398 517.4668 A 13.228346 13.228346 0 0 1 352.10547 530.69531 A 13.228346 13.228346 0 0 1 338.87695 517.4668 A 13.228346 13.228346 0 0 1 352.10547 504.23828 z M 463.10547 504.23828 A 13.228346 13.228346 0 0 1 476.33398 517.4668 A 13.228346 13.228346 0 0 1 463.10547 530.69531 A 13.228346 13.228346 0 0 1 449.87695 517.4668 A 13.228346 13.228346 0 0 1 463.10547 504.23828 z M 336.57812 557.94336 L 346.05078 557.94336 L 346.05078 558.56836 C 345.19139 558.73768 344.76172 559.10221 344.76172 559.66211 C 344.76172 560.02683 344.91137 560.54102 345.21094 561.20508 L 352.28125 576.86914 L 359.35156 561.20508 C 359.6509 560.54102 359.80078 560.02672 359.80078 559.66211 C 359.80078 559.10221 359.37111 558.73764 358.51172 558.56836 L 358.51172 557.94336 L 367.63281 557.94336 L 367.63281 558.56836 C 367.05991 558.6466 366.66274 558.80908 366.44141 559.05664 C 366.21993 559.30382 365.83596 560.02016 365.28906 561.20508 L 356.05078 581.14648 C 355.66017 581.99283 355.46484 582.54623 355.46484 582.80664 C 355.46484 583.4707 355.875 583.86131 356.69531 583.97852 L 356.69531 584.60352 L 347.51562 584.60352 L 347.51562 583.97852 C 348.33593 583.86135 348.74609 583.46421 348.74609 582.78711 C 348.74609 582.53993 348.55069 581.99283 348.16016 581.14648 L 338.92188 561.20508 C 338.37498 560.02016 337.9909 559.30401 337.76953 559.05664 C 337.54805 558.80908 337.15103 558.64652 336.57812 558.56836 L 336.57812 557.94336 z M 448.4375 557.94336 L 461.56641 557.94336 L 461.56641 562.33789 L 455.50781 562.33789 L 455.50781 580.20898 L 461.56641 580.20898 L 461.56641 584.60352 L 448.4375 584.60352 L 448.4375 583.97852 C 448.90627 583.8485 449.23178 583.67918 449.41406 583.4707 C 449.59624 583.26245 449.6875 582.95639 449.6875 582.55273 L 449.6875 559.99414 C 449.6875 559.59052 449.59661 559.28454 449.41406 559.07617 C 449.23189 558.86792 448.90627 558.6986 448.4375 558.56836 L 448.4375 557.94336 z M 463.58008 557.95117 C 466.69193 557.97303 469.10899 558.33703 470.80078 559.05664 C 473.30075 560.13736 475.14973 561.92124 476.34766 564.4082 C 477.29817 566.36131 477.77344 568.6465 477.77344 571.26367 C 477.77344 575.86003 476.36066 579.3626 473.53516 581.77148 C 472.35027 582.78708 470.96354 583.51629 469.375 583.95898 C 467.84935 584.37167 465.91041 584.58132 463.58008 584.59766 L 463.58008 580.17969 C 465.51804 580.11372 467.03176 579.81526 468.06641 579.25195 C 470.57941 577.88475 471.83594 575.22201 471.83594 571.26367 C 471.83594 568.39909 471.15882 566.20505 469.80469 564.68164 C 469.04946 563.83529 468.13799 563.23634 467.07031 562.88477 C 466.16498 562.57551 464.99092 562.40441 463.58008 562.35742 L 463.58008 557.95117 z M 436.02344 596.11914 C 436.42683 596.12292 436.81887 596.19597 437.18359 596.35547 C 437.4183 596.45827 437.63896 596.58677 437.8457 596.73633 C 439.29356 597.7828 440.06456 599.8799 440.30078 601.6582 C 440.61713 604.03829 439.62119 606.53721 438.39844 608.60352 C 436.59519 611.6508 432.97103 613.22283 430.76953 615.99609 C 429.88841 617.10595 428.67086 618.22642 428.58008 619.64062 C 428.35709 623.11669 430.72355 626.39529 432.77148 629.21289 C 434.63373 631.77496 436.14805 632.85199 439.875 635.52344 C 443.58721 638.21533 445.08818 639.31237 448.10742 640.26953 C 451.42781 641.32202 455.28626 642.53088 458.51367 641.2207 C 459.82676 640.68768 460.50472 639.17888 461.2793 637.99219 C 463.21468 635.02707 463.55959 631.09176 465.88086 628.41797 C 467.45488 626.60485 469.51305 624.86801 471.87109 624.41602 C 473.88467 624.03001 476.51392 624.17641 477.88672 625.69922 C 478.95326 626.88229 478.83099 628.91929 478.39453 630.45117 C 477.83206 632.42526 476.15557 633.95628 474.61133 635.30859 C 472.99108 636.72754 470.74728 637.26756 469.03516 638.57422 C 467.27427 639.91811 465.16712 641.18763 464.2832 643.21875 C 463.34785 645.3676 463.47132 647.87891 463.84961 650.25 A 5.6692908 5.6692908 0 0 1 468.94336 655.84375 A 5.6692908 5.6692908 0 0 1 463.27344 661.51367 A 5.6692908 5.6692908 0 0 1 460.50977 660.36914 C 459.90054 660.4984 459.31475 660.67266 458.82031 661.01172 C 456.94438 662.29865 454.81808 663.97504 454.39844 666.21094 C 453.59746 670.47885 455.28527 675.22739 457.37109 679.43945 L 421.82812 679.43945 C 421.25405 675.60016 419.83278 672.80609 416.99414 669.96484 C 414.17113 667.13924 411.17795 665.60148 407.55469 665.15039 L 407.55469 630.25195 C 408.62434 628.97319 409.24883 627.19827 409.70703 625.60352 C 409.78187 625.34311 409.81137 625.07467 409.82422 624.80273 A 5.6692908 5.6692908 0 0 1 407.37109 620.4668 A 5.6692908 5.6692908 0 0 1 413.03906 614.79688 A 5.6692908 5.6692908 0 0 1 417.85547 617.50781 C 420.37139 617.12956 423.00207 616.46748 424.86133 614.79688 C 426.50898 613.31636 427.04901 610.9176 427.76758 608.82227 C 428.46622 606.78499 428.26735 604.48569 429.10156 602.5 C 429.89659 600.60763 430.81852 598.53252 432.51367 597.375 C 433.50028 596.70141 434.81327 596.10402 436.02344 596.11914 z M 317.35156 613.43945 C 321.55072 613.36172 326.05453 613.80813 329.93945 614.16406 C 340.17672 615.10203 349.98339 618.83543 359.78125 621.94727 C 368.10528 624.59101 373.32973 628.51798 384.30273 631.17578 C 388.8506 632.27739 396.58738 634.14382 402.73438 632.68359 L 402.73438 665.13477 C 401.01941 665.33984 399.59824 665.82623 397.55273 666.82617 C 395.71215 667.72594 395.09136 668.18714 393.34766 669.95117 C 391.10656 672.21838 390.07683 673.779 389.25391 676.15039 C 388.87404 677.24502 388.61442 678.34288 388.45312 679.43945 L 354.52344 679.43945 C 351.70285 670.63035 348.07318 662.05441 343.63672 653.98438 C 337.37582 642.59571 332.60912 637.36194 323.65625 630.42188 C 320.89788 628.28353 317.96157 626.29604 314.76953 624.88477 C 311.59957 623.48332 306.82763 623.50789 304.76367 622.05859 C 302.9955 620.81747 304.78634 617.03796 306.59375 615.85742 C 309.25788 614.11907 313.1524 613.51719 317.35156 613.43945 z M 421.83203 684.26172 L 459.97656 684.26172 C 460.52401 685.16705 461.10279 686.14037 461.5625 686.875 C 467.55169 696.44582 472.92765 700.16256 478.06641 707.22461 C 484.11505 715.53704 490.7578 723.65997 494.88281 733.07617 C 498.01347 740.22288 502.26519 749.60778 500.65039 755.76172 C 500.10213 757.85123 497.08386 760.7444 495.34766 759.45898 C 493.32066 757.95847 491.83332 753.42399 489.50195 750.85938 C 487.15404 748.2772 484.34185 746.11894 481.44141 744.17773 C 472.02774 737.87677 465.55506 735.00713 452.77148 732.66602 C 439.42057 730.22096 425.57796 729.62191 412.08398 731.08398 C 410.57847 731.24711 409.06663 731.58364 407.55469 731.98242 L 407.55469 698.50781 C 410.02382 698.14217 412.42252 697.24745 414.49609 695.87109 C 418.44473 693.25013 421.12144 688.87407 421.83203 684.26172 z "
       transform="scale(0.26458333)" />
  </g>
</svg>
