G04 #@! TF.GenerationSoftware,KiCad,Pcbnew,(6.0.11)*
G04 #@! TF.CreationDate,2023-07-08T12:35:04+02:00*
G04 #@! TF.ProjectId,IO Board,494f2042-6f61-4726-942e-6b696361645f,rev?*
G04 #@! TF.SameCoordinates,Original*
G04 #@! TF.FileFunction,Copper,L1,Top*
G04 #@! TF.FilePolarity,Positive*
%FSLAX46Y46*%
G04 Gerber Fmt 4.6, Leading zero omitted, Abs format (unit mm)*
G04 Created by KiCad (PCBNEW (6.0.11)) date 2023-07-08 12:35:04*
%MOMM*%
%LPD*%
G01*
G04 APERTURE LIST*
G04 #@! TA.AperFunction,ComponentPad*
%ADD10O,2.300000X1.700000*%
G04 #@! TD*
G04 #@! TA.AperFunction,ComponentPad*
%ADD11O,4.000000X2.750000*%
G04 #@! TD*
G04 #@! TA.AperFunction,ComponentPad*
%ADD12R,1.700000X1.700000*%
G04 #@! TD*
G04 #@! TA.AperFunction,ComponentPad*
%ADD13O,1.700000X1.700000*%
G04 #@! TD*
G04 #@! TA.AperFunction,Conductor*
%ADD14C,0.500000*%
G04 #@! TD*
G04 APERTURE END LIST*
D10*
X159041209Y-134686948D03*
X154049520Y-134686948D03*
X149051463Y-134712416D03*
X129345379Y-134715579D03*
X124353690Y-134715579D03*
X119355633Y-134741047D03*
D11*
X139209679Y-108155040D03*
X139209679Y-103655040D03*
X139209679Y-99155040D03*
D12*
X163017200Y-125425200D03*
D13*
X163017200Y-122885200D03*
X163017200Y-120345200D03*
X163017200Y-117805200D03*
X163017200Y-115265200D03*
X163017200Y-112725200D03*
X163017200Y-110185200D03*
D14*
X124353690Y-134715579D02*
X127844493Y-134715579D01*
X153250981Y-112786196D02*
X162956204Y-112786196D01*
X130406666Y-130652521D02*
X144753021Y-116306166D01*
X162956204Y-112786196D02*
X163017200Y-112725200D01*
X129345379Y-133214693D02*
G75*
G02*
X127844493Y-134715579I-1500879J-7D01*
G01*
X130406677Y-130652532D02*
G75*
G03*
X129345379Y-133214693I2562123J-2562168D01*
G01*
X153250981Y-112786175D02*
G75*
G03*
X144753021Y-116306166I19J-12017925D01*
G01*
X162956204Y-110246196D02*
X163017200Y-110185200D01*
X119355633Y-134741047D02*
X138030649Y-116066032D01*
X152080976Y-110246196D02*
X162956204Y-110246196D01*
X152080976Y-110246192D02*
G75*
G03*
X138030650Y-116066033I24J-19870208D01*
G01*
X162953935Y-120408465D02*
X163017200Y-120345200D01*
X161799376Y-120408465D02*
X162953935Y-120408465D01*
X159041209Y-134686948D02*
X159041209Y-123703953D01*
X160007100Y-121372087D02*
X160278926Y-121100261D01*
X160007116Y-121372103D02*
G75*
G03*
X159041209Y-123703953I2331884J-2331897D01*
G01*
X161799379Y-120408501D02*
G75*
G03*
X160278926Y-121100261I167921J-2385899D01*
G01*
X154049520Y-134686948D02*
X154049520Y-123181222D01*
X162956204Y-117866196D02*
X163017200Y-117805200D01*
X159364546Y-117866196D02*
X162956204Y-117866196D01*
X155606233Y-119422909D02*
G75*
G03*
X154049520Y-123181222I3758367J-3758291D01*
G01*
X159364546Y-117866152D02*
G75*
G03*
X155606256Y-119422932I54J-5315048D01*
G01*
X163017200Y-115265200D02*
X162956204Y-115326196D01*
X149051463Y-122672967D02*
X149051463Y-134712416D01*
X162956204Y-115326196D02*
X156391009Y-115326196D01*
X151204776Y-117474411D02*
G75*
G02*
X156391009Y-115326196I5186224J-5186189D01*
G01*
X149051431Y-122672967D02*
G75*
G02*
X151204776Y-117474411I7351869J-33D01*
G01*
G04 #@! TA.AperFunction,Conductor*
G36*
X162957405Y-111880702D02*
G01*
X162960389Y-111884050D01*
X163438129Y-112689785D01*
X163439401Y-112698648D01*
X163438879Y-112700217D01*
X163292898Y-113053250D01*
X163080929Y-113565863D01*
X163074601Y-113572199D01*
X163070220Y-113573092D01*
X162808830Y-113575401D01*
X162807100Y-113575287D01*
X162685551Y-113558223D01*
X162590276Y-113544847D01*
X162588434Y-113544435D01*
X162530232Y-113526327D01*
X162410015Y-113488925D01*
X162408456Y-113488314D01*
X162255202Y-113415242D01*
X162254295Y-113414760D01*
X162113082Y-113331506D01*
X162112972Y-113331440D01*
X161971456Y-113245906D01*
X161971452Y-113245904D01*
X161971282Y-113245801D01*
X161816577Y-113165697D01*
X161816234Y-113165570D01*
X161636482Y-113099059D01*
X161636477Y-113099057D01*
X161636070Y-113098907D01*
X161416900Y-113053163D01*
X161416482Y-113053137D01*
X161416476Y-113053136D01*
X161157172Y-113036883D01*
X161149130Y-113032945D01*
X161146204Y-113025206D01*
X161146204Y-112547170D01*
X161149631Y-112538897D01*
X161157156Y-112535494D01*
X161296885Y-112526539D01*
X161404571Y-112519637D01*
X161404572Y-112519637D01*
X161405007Y-112519609D01*
X161612105Y-112474290D01*
X161612549Y-112474112D01*
X161612553Y-112474111D01*
X161780010Y-112407064D01*
X161780405Y-112406906D01*
X161922815Y-112324124D01*
X162052243Y-112232609D01*
X162181282Y-112139258D01*
X162181917Y-112138829D01*
X162323163Y-112050439D01*
X162324456Y-112049739D01*
X162490908Y-111972710D01*
X162492570Y-111972089D01*
X162538023Y-111958936D01*
X162697477Y-111912794D01*
X162699137Y-111912442D01*
X162835812Y-111893815D01*
X162948745Y-111878424D01*
X162957405Y-111880702D01*
G37*
G04 #@! TD.AperFunction*
G04 #@! TA.AperFunction,Conductor*
G36*
X149298759Y-132855843D02*
G01*
X149302162Y-132863371D01*
X149318263Y-133115570D01*
X149318352Y-133115984D01*
X149318353Y-133115990D01*
X149363764Y-133326830D01*
X149363766Y-133326837D01*
X149363863Y-133327287D01*
X149364032Y-133327722D01*
X149364033Y-133327726D01*
X149430919Y-133500056D01*
X149430923Y-133500064D01*
X149431064Y-133500428D01*
X149512663Y-133647852D01*
X149512793Y-133648049D01*
X149601463Y-133782416D01*
X149690006Y-133916592D01*
X149690478Y-133917370D01*
X149771483Y-134063717D01*
X149772153Y-134065150D01*
X149838726Y-134236679D01*
X149839257Y-134238448D01*
X149884482Y-134448423D01*
X149884719Y-134450134D01*
X149900969Y-134704675D01*
X149898076Y-134713149D01*
X149894525Y-134715885D01*
X149056695Y-135134800D01*
X149047763Y-135135435D01*
X149046231Y-135134800D01*
X148208401Y-134715885D01*
X148202533Y-134709120D01*
X148201957Y-134704675D01*
X148218207Y-134450134D01*
X148218444Y-134448423D01*
X148263669Y-134238448D01*
X148264200Y-134236679D01*
X148330774Y-134065150D01*
X148331444Y-134063717D01*
X148412448Y-133917370D01*
X148412920Y-133916592D01*
X148501463Y-133782416D01*
X148590133Y-133648049D01*
X148590263Y-133647852D01*
X148671864Y-133500428D01*
X148739063Y-133327287D01*
X148739160Y-133326837D01*
X148739162Y-133326830D01*
X148784573Y-133115990D01*
X148784574Y-133115984D01*
X148784663Y-133115570D01*
X148800764Y-132863371D01*
X148804711Y-132855333D01*
X148812440Y-132852416D01*
X149290486Y-132852416D01*
X149298759Y-132855843D01*
G37*
G04 #@! TD.AperFunction*
G04 #@! TA.AperFunction,Conductor*
G36*
X154296816Y-132830375D02*
G01*
X154300219Y-132837903D01*
X154316320Y-133090102D01*
X154316409Y-133090516D01*
X154316410Y-133090522D01*
X154361821Y-133301362D01*
X154361823Y-133301369D01*
X154361920Y-133301819D01*
X154362089Y-133302254D01*
X154362090Y-133302258D01*
X154428976Y-133474588D01*
X154428980Y-133474596D01*
X154429121Y-133474960D01*
X154510720Y-133622384D01*
X154510850Y-133622581D01*
X154599520Y-133756948D01*
X154688063Y-133891124D01*
X154688535Y-133891902D01*
X154769540Y-134038249D01*
X154770210Y-134039682D01*
X154836783Y-134211211D01*
X154837314Y-134212980D01*
X154882539Y-134422955D01*
X154882776Y-134424666D01*
X154899026Y-134679207D01*
X154896133Y-134687681D01*
X154892582Y-134690417D01*
X154054752Y-135109332D01*
X154045820Y-135109967D01*
X154044288Y-135109332D01*
X153206458Y-134690417D01*
X153200590Y-134683652D01*
X153200014Y-134679207D01*
X153216264Y-134424666D01*
X153216501Y-134422955D01*
X153261726Y-134212980D01*
X153262257Y-134211211D01*
X153328832Y-134039682D01*
X153329502Y-134038249D01*
X153410505Y-133891902D01*
X153410977Y-133891124D01*
X153499520Y-133756948D01*
X153588190Y-133622581D01*
X153588320Y-133622384D01*
X153669921Y-133474960D01*
X153737120Y-133301819D01*
X153737217Y-133301369D01*
X153737219Y-133301362D01*
X153782630Y-133090522D01*
X153782631Y-133090516D01*
X153782720Y-133090102D01*
X153798821Y-132837903D01*
X153802768Y-132829865D01*
X153810497Y-132826948D01*
X154288543Y-132826948D01*
X154296816Y-132830375D01*
G37*
G04 #@! TD.AperFunction*
G04 #@! TA.AperFunction,Conductor*
G36*
X162957405Y-114420702D02*
G01*
X162960389Y-114424050D01*
X163438129Y-115229785D01*
X163439401Y-115238648D01*
X163438879Y-115240217D01*
X163292898Y-115593250D01*
X163080929Y-116105863D01*
X163074601Y-116112199D01*
X163070220Y-116113092D01*
X162808830Y-116115401D01*
X162807100Y-116115287D01*
X162685551Y-116098223D01*
X162590276Y-116084847D01*
X162588434Y-116084435D01*
X162530232Y-116066327D01*
X162410015Y-116028925D01*
X162408456Y-116028314D01*
X162255202Y-115955242D01*
X162254295Y-115954760D01*
X162113082Y-115871506D01*
X162112972Y-115871440D01*
X161971456Y-115785906D01*
X161971452Y-115785904D01*
X161971282Y-115785801D01*
X161816577Y-115705697D01*
X161816234Y-115705570D01*
X161636482Y-115639059D01*
X161636477Y-115639057D01*
X161636070Y-115638907D01*
X161416900Y-115593163D01*
X161416482Y-115593137D01*
X161416476Y-115593136D01*
X161157172Y-115576883D01*
X161149130Y-115572945D01*
X161146204Y-115565206D01*
X161146204Y-115087170D01*
X161149631Y-115078897D01*
X161157156Y-115075494D01*
X161296885Y-115066539D01*
X161404571Y-115059637D01*
X161404572Y-115059637D01*
X161405007Y-115059609D01*
X161612105Y-115014290D01*
X161612549Y-115014112D01*
X161612553Y-115014111D01*
X161780010Y-114947064D01*
X161780405Y-114946906D01*
X161922815Y-114864124D01*
X162052243Y-114772609D01*
X162181282Y-114679258D01*
X162181917Y-114678829D01*
X162323163Y-114590439D01*
X162324456Y-114589739D01*
X162490908Y-114512710D01*
X162492570Y-114512089D01*
X162538023Y-114498936D01*
X162697477Y-114452794D01*
X162699137Y-114452442D01*
X162835812Y-114433815D01*
X162948745Y-114418424D01*
X162957405Y-114420702D01*
G37*
G04 #@! TD.AperFunction*
G04 #@! TA.AperFunction,Conductor*
G36*
X162957405Y-109340702D02*
G01*
X162960389Y-109344050D01*
X163438129Y-110149785D01*
X163439401Y-110158648D01*
X163438879Y-110160217D01*
X163292898Y-110513250D01*
X163080929Y-111025863D01*
X163074601Y-111032199D01*
X163070220Y-111033092D01*
X162808830Y-111035401D01*
X162807100Y-111035287D01*
X162685551Y-111018223D01*
X162590276Y-111004847D01*
X162588434Y-111004435D01*
X162530232Y-110986327D01*
X162410015Y-110948925D01*
X162408456Y-110948314D01*
X162255202Y-110875242D01*
X162254295Y-110874760D01*
X162113082Y-110791506D01*
X162112972Y-110791440D01*
X161971456Y-110705906D01*
X161971452Y-110705904D01*
X161971282Y-110705801D01*
X161816577Y-110625697D01*
X161816234Y-110625570D01*
X161636482Y-110559059D01*
X161636477Y-110559057D01*
X161636070Y-110558907D01*
X161416900Y-110513163D01*
X161416482Y-110513137D01*
X161416476Y-110513136D01*
X161157172Y-110496883D01*
X161149130Y-110492945D01*
X161146204Y-110485206D01*
X161146204Y-110007170D01*
X161149631Y-109998897D01*
X161157156Y-109995494D01*
X161296885Y-109986539D01*
X161404571Y-109979637D01*
X161404572Y-109979637D01*
X161405007Y-109979609D01*
X161612105Y-109934290D01*
X161612549Y-109934112D01*
X161612553Y-109934111D01*
X161780010Y-109867064D01*
X161780405Y-109866906D01*
X161922815Y-109784124D01*
X162052243Y-109692609D01*
X162181282Y-109599258D01*
X162181917Y-109598829D01*
X162323163Y-109510439D01*
X162324456Y-109509739D01*
X162490908Y-109432710D01*
X162492570Y-109432089D01*
X162538023Y-109418936D01*
X162697477Y-109372794D01*
X162699137Y-109372442D01*
X162835812Y-109353815D01*
X162948745Y-109338424D01*
X162957405Y-109340702D01*
G37*
G04 #@! TD.AperFunction*
G04 #@! TA.AperFunction,Conductor*
G36*
X162957405Y-116960702D02*
G01*
X162960389Y-116964050D01*
X163438129Y-117769785D01*
X163439401Y-117778648D01*
X163438879Y-117780217D01*
X163292898Y-118133250D01*
X163080929Y-118645863D01*
X163074601Y-118652199D01*
X163070220Y-118653092D01*
X162808830Y-118655401D01*
X162807100Y-118655287D01*
X162685551Y-118638223D01*
X162590276Y-118624847D01*
X162588434Y-118624435D01*
X162530232Y-118606327D01*
X162410015Y-118568925D01*
X162408456Y-118568314D01*
X162255202Y-118495242D01*
X162254295Y-118494760D01*
X162113082Y-118411506D01*
X162112972Y-118411440D01*
X161971456Y-118325906D01*
X161971452Y-118325904D01*
X161971282Y-118325801D01*
X161816577Y-118245697D01*
X161816234Y-118245570D01*
X161636482Y-118179059D01*
X161636477Y-118179057D01*
X161636070Y-118178907D01*
X161416900Y-118133163D01*
X161416482Y-118133137D01*
X161416476Y-118133136D01*
X161157172Y-118116883D01*
X161149130Y-118112945D01*
X161146204Y-118105206D01*
X161146204Y-117627170D01*
X161149631Y-117618897D01*
X161157156Y-117615494D01*
X161296885Y-117606539D01*
X161404571Y-117599637D01*
X161404572Y-117599637D01*
X161405007Y-117599609D01*
X161612105Y-117554290D01*
X161612549Y-117554112D01*
X161612553Y-117554111D01*
X161780010Y-117487064D01*
X161780405Y-117486906D01*
X161922815Y-117404124D01*
X162052243Y-117312609D01*
X162181282Y-117219258D01*
X162181917Y-117218829D01*
X162323163Y-117130439D01*
X162324456Y-117129739D01*
X162490908Y-117052710D01*
X162492570Y-117052089D01*
X162538023Y-117038936D01*
X162697477Y-116992794D01*
X162699137Y-116992442D01*
X162835812Y-116973815D01*
X162948745Y-116958424D01*
X162957405Y-116960702D01*
G37*
G04 #@! TD.AperFunction*
G04 #@! TA.AperFunction,Conductor*
G36*
X120501836Y-133256815D02*
G01*
X120839866Y-133594845D01*
X120843293Y-133603118D01*
X120840377Y-133610845D01*
X120673430Y-133800563D01*
X120555967Y-133982514D01*
X120555780Y-133982939D01*
X120555778Y-133982942D01*
X120483301Y-134147365D01*
X120481055Y-134152461D01*
X120480946Y-134152840D01*
X120480945Y-134152843D01*
X120434574Y-134314184D01*
X120434571Y-134314196D01*
X120434511Y-134314405D01*
X120434466Y-134314626D01*
X120434464Y-134314633D01*
X120402150Y-134472347D01*
X120369882Y-134629841D01*
X120369665Y-134630725D01*
X120323463Y-134791475D01*
X120322924Y-134792962D01*
X120248709Y-134961329D01*
X120247833Y-134962956D01*
X120131339Y-135143406D01*
X120130292Y-135144789D01*
X119961798Y-135336263D01*
X119953760Y-135340210D01*
X119949315Y-135339634D01*
X119060663Y-135043417D01*
X119053898Y-135037549D01*
X119053263Y-135036017D01*
X118757046Y-134147365D01*
X118757681Y-134138433D01*
X118760417Y-134134882D01*
X118951892Y-133966389D01*
X118953275Y-133965342D01*
X119133725Y-133848848D01*
X119135352Y-133847972D01*
X119303719Y-133773757D01*
X119305206Y-133773218D01*
X119465956Y-133727016D01*
X119466840Y-133726799D01*
X119624334Y-133694531D01*
X119782048Y-133662217D01*
X119782055Y-133662215D01*
X119782276Y-133662170D01*
X119782485Y-133662110D01*
X119782497Y-133662107D01*
X119943838Y-133615736D01*
X119943841Y-133615735D01*
X119944220Y-133615626D01*
X119944582Y-133615467D01*
X119944586Y-133615465D01*
X120113739Y-133540903D01*
X120113742Y-133540901D01*
X120114167Y-133540714D01*
X120296118Y-133423251D01*
X120318809Y-133403284D01*
X120485834Y-133256305D01*
X120494308Y-133253412D01*
X120501836Y-133256815D01*
G37*
G04 #@! TD.AperFunction*
G04 #@! TA.AperFunction,Conductor*
G36*
X162955513Y-119500853D02*
G01*
X162958166Y-119503927D01*
X163346514Y-120155246D01*
X163438040Y-120308750D01*
X163439334Y-120317611D01*
X163438814Y-120319186D01*
X163197406Y-120907081D01*
X163083056Y-121185553D01*
X163076743Y-121191905D01*
X163072139Y-121192809D01*
X162954217Y-121191852D01*
X162786131Y-121190489D01*
X162784114Y-121190297D01*
X162658301Y-121167203D01*
X162537850Y-121145092D01*
X162536083Y-121144622D01*
X162325418Y-121070464D01*
X162324238Y-121069975D01*
X162138190Y-120980599D01*
X162137801Y-120980404D01*
X161965805Y-120889758D01*
X161965785Y-120889748D01*
X161965686Y-120889696D01*
X161965572Y-120889643D01*
X161965555Y-120889635D01*
X161893045Y-120856150D01*
X161797209Y-120811892D01*
X161621806Y-120761122D01*
X161529350Y-120756480D01*
X161429476Y-120751465D01*
X161429475Y-120751465D01*
X161428736Y-120751428D01*
X161428010Y-120751577D01*
X161428009Y-120751577D01*
X161380543Y-120761311D01*
X161207261Y-120796846D01*
X161206690Y-120797097D01*
X160956501Y-120907081D01*
X160947549Y-120907273D01*
X160941507Y-120901946D01*
X160713812Y-120481903D01*
X160712882Y-120472996D01*
X160718292Y-120466169D01*
X160984886Y-120313775D01*
X160999796Y-120305252D01*
X161237998Y-120155195D01*
X161437360Y-120021237D01*
X161612113Y-119903050D01*
X161612438Y-119902839D01*
X161776761Y-119800100D01*
X161777539Y-119799656D01*
X161945779Y-119711869D01*
X161946907Y-119711354D01*
X161957961Y-119707005D01*
X162133670Y-119637872D01*
X162134878Y-119637472D01*
X162354788Y-119577751D01*
X162355840Y-119577518D01*
X162623476Y-119531121D01*
X162624281Y-119531011D01*
X162946936Y-119498279D01*
X162955513Y-119500853D01*
G37*
G04 #@! TD.AperFunction*
G04 #@! TA.AperFunction,Conductor*
G36*
X159288505Y-132830375D02*
G01*
X159291908Y-132837903D01*
X159308009Y-133090102D01*
X159308098Y-133090516D01*
X159308099Y-133090522D01*
X159353510Y-133301362D01*
X159353512Y-133301369D01*
X159353609Y-133301819D01*
X159353778Y-133302254D01*
X159353779Y-133302258D01*
X159420664Y-133474588D01*
X159420668Y-133474596D01*
X159420809Y-133474960D01*
X159502409Y-133622384D01*
X159502539Y-133622581D01*
X159591209Y-133756948D01*
X159679752Y-133891124D01*
X159680224Y-133891902D01*
X159761229Y-134038249D01*
X159761899Y-134039682D01*
X159828472Y-134211211D01*
X159829003Y-134212980D01*
X159874228Y-134422955D01*
X159874465Y-134424666D01*
X159890715Y-134679207D01*
X159887822Y-134687681D01*
X159884271Y-134690417D01*
X159046441Y-135109332D01*
X159037509Y-135109967D01*
X159035977Y-135109332D01*
X158198147Y-134690417D01*
X158192279Y-134683652D01*
X158191703Y-134679207D01*
X158207953Y-134424666D01*
X158208190Y-134422955D01*
X158253415Y-134212980D01*
X158253946Y-134211211D01*
X158320520Y-134039682D01*
X158321190Y-134038249D01*
X158402194Y-133891902D01*
X158402666Y-133891124D01*
X158491209Y-133756948D01*
X158579879Y-133622581D01*
X158580009Y-133622384D01*
X158661610Y-133474960D01*
X158728809Y-133301819D01*
X158728906Y-133301369D01*
X158728908Y-133301362D01*
X158774319Y-133090522D01*
X158774320Y-133090516D01*
X158774409Y-133090102D01*
X158790510Y-132837903D01*
X158794457Y-132829865D01*
X158802186Y-132826948D01*
X159280232Y-132826948D01*
X159288505Y-132830375D01*
G37*
G04 #@! TD.AperFunction*
G04 #@! TA.AperFunction,Conductor*
G36*
X124615978Y-133882324D02*
G01*
X124617684Y-133882560D01*
X124764907Y-133914269D01*
X124827659Y-133927785D01*
X124829428Y-133928316D01*
X125000957Y-133994890D01*
X125002390Y-133995560D01*
X125148737Y-134076564D01*
X125149515Y-134077036D01*
X125283690Y-134165579D01*
X125418255Y-134254379D01*
X125418453Y-134254488D01*
X125418452Y-134254488D01*
X125565335Y-134335790D01*
X125565340Y-134335792D01*
X125565679Y-134335980D01*
X125651781Y-134369398D01*
X125738381Y-134403009D01*
X125738385Y-134403010D01*
X125738820Y-134403179D01*
X125739270Y-134403276D01*
X125739277Y-134403278D01*
X125950117Y-134448689D01*
X125950123Y-134448690D01*
X125950537Y-134448779D01*
X125950963Y-134448806D01*
X125950969Y-134448807D01*
X126202735Y-134464880D01*
X126210773Y-134468827D01*
X126213690Y-134476556D01*
X126213690Y-134954602D01*
X126210263Y-134962875D01*
X126202735Y-134966278D01*
X125950969Y-134982351D01*
X125950963Y-134982352D01*
X125950537Y-134982379D01*
X125950123Y-134982468D01*
X125950117Y-134982469D01*
X125739277Y-135027880D01*
X125739270Y-135027882D01*
X125738820Y-135027979D01*
X125738385Y-135028148D01*
X125738381Y-135028149D01*
X125566051Y-135095034D01*
X125566043Y-135095038D01*
X125565679Y-135095179D01*
X125565340Y-135095367D01*
X125565335Y-135095369D01*
X125431805Y-135169279D01*
X125418255Y-135176779D01*
X125418058Y-135176909D01*
X125283690Y-135265579D01*
X125149515Y-135354122D01*
X125148737Y-135354594D01*
X125002390Y-135435599D01*
X125000957Y-135436269D01*
X124829428Y-135502842D01*
X124827659Y-135503373D01*
X124764907Y-135516889D01*
X124617684Y-135548598D01*
X124615978Y-135548834D01*
X124361431Y-135565085D01*
X124352957Y-135562192D01*
X124350221Y-135558641D01*
X123931306Y-134720811D01*
X123930671Y-134711879D01*
X123931306Y-134710347D01*
X124350221Y-133872517D01*
X124356986Y-133866649D01*
X124361430Y-133866073D01*
X124615978Y-133882324D01*
G37*
G04 #@! TD.AperFunction*
G04 #@! TA.AperFunction,NonConductor*
G36*
X137380598Y-97491998D02*
G01*
X137427091Y-97545654D01*
X137437195Y-97615928D01*
X137407701Y-97680508D01*
X137388920Y-97698158D01*
X137333296Y-97740609D01*
X137142221Y-97936069D01*
X137139534Y-97939761D01*
X137139532Y-97939763D01*
X136984050Y-98153373D01*
X136984047Y-98153379D01*
X136981364Y-98157064D01*
X136979242Y-98161097D01*
X136979239Y-98161102D01*
X136883063Y-98343903D01*
X136854093Y-98398966D01*
X136763076Y-98656706D01*
X136762196Y-98661172D01*
X136726034Y-98844643D01*
X136710218Y-98924885D01*
X136709991Y-98929438D01*
X136709991Y-98929441D01*
X136700666Y-99116763D01*
X136696627Y-99197886D01*
X136722588Y-99469989D01*
X136723673Y-99474423D01*
X136723674Y-99474429D01*
X136770378Y-99665292D01*
X136787557Y-99735495D01*
X136789269Y-99739721D01*
X136789270Y-99739725D01*
X136858690Y-99911114D01*
X136890172Y-99988841D01*
X136892476Y-99992776D01*
X136892478Y-99992780D01*
X136951594Y-100093741D01*
X137028285Y-100224720D01*
X137199002Y-100438191D01*
X137398747Y-100624782D01*
X137623335Y-100780584D01*
X137750180Y-100843688D01*
X137863975Y-100900301D01*
X137863978Y-100900302D01*
X137868062Y-100902334D01*
X138127800Y-100987480D01*
X138132291Y-100988260D01*
X138132292Y-100988260D01*
X138393329Y-101033584D01*
X138393337Y-101033585D01*
X138397110Y-101034240D01*
X138400947Y-101034431D01*
X138481912Y-101038462D01*
X138481920Y-101038462D01*
X138483483Y-101038540D01*
X139904113Y-101038540D01*
X139906381Y-101038375D01*
X139906393Y-101038375D01*
X140037952Y-101028829D01*
X140107301Y-101023797D01*
X140111756Y-101022813D01*
X140111759Y-101022813D01*
X140369752Y-100965854D01*
X140369756Y-100965853D01*
X140374212Y-100964869D01*
X140544636Y-100900301D01*
X140625551Y-100869645D01*
X140625554Y-100869644D01*
X140629821Y-100868027D01*
X140868773Y-100735301D01*
X141086062Y-100569471D01*
X141277137Y-100374011D01*
X141372721Y-100242692D01*
X141435308Y-100156707D01*
X141435311Y-100156701D01*
X141437994Y-100153016D01*
X141440116Y-100148983D01*
X141440119Y-100148978D01*
X141563139Y-99915155D01*
X141563139Y-99915154D01*
X141565265Y-99911114D01*
X141656282Y-99653374D01*
X141692427Y-99469989D01*
X141708259Y-99389667D01*
X141708260Y-99389661D01*
X141709140Y-99385195D01*
X141709490Y-99378166D01*
X141722504Y-99116763D01*
X141722504Y-99116757D01*
X141722731Y-99112194D01*
X141696770Y-98840091D01*
X141677226Y-98760219D01*
X141632886Y-98579019D01*
X141631801Y-98574585D01*
X141630088Y-98570355D01*
X141530899Y-98325467D01*
X141530896Y-98325461D01*
X141529186Y-98321239D01*
X141391073Y-98085360D01*
X141220356Y-97871889D01*
X141051510Y-97714162D01*
X141025722Y-97690072D01*
X140989596Y-97628953D01*
X140992248Y-97558006D01*
X141032836Y-97499756D01*
X141098474Y-97472696D01*
X141111734Y-97471996D01*
X162173923Y-97471996D01*
X162193308Y-97473496D01*
X162208141Y-97475806D01*
X162208145Y-97475806D01*
X162217014Y-97477187D01*
X162232270Y-97475192D01*
X162257592Y-97474449D01*
X162426564Y-97486533D01*
X162444355Y-97489091D01*
X162634697Y-97530496D01*
X162651936Y-97535558D01*
X162712124Y-97558006D01*
X162834442Y-97603628D01*
X162850795Y-97611096D01*
X163021753Y-97704445D01*
X163036876Y-97714164D01*
X163192807Y-97830891D01*
X163206394Y-97842664D01*
X163344125Y-97980394D01*
X163355898Y-97993980D01*
X163472632Y-98149916D01*
X163482351Y-98165040D01*
X163575698Y-98335990D01*
X163583167Y-98352344D01*
X163651238Y-98534851D01*
X163656302Y-98552099D01*
X163661194Y-98574585D01*
X163679059Y-98656706D01*
X163697706Y-98742424D01*
X163700265Y-98760219D01*
X163711837Y-98922017D01*
X163711074Y-98940388D01*
X163710977Y-98948349D01*
X163709595Y-98957221D01*
X163710759Y-98966123D01*
X163710759Y-98966125D01*
X163713722Y-98988780D01*
X163714786Y-99005118D01*
X163714786Y-108812702D01*
X163694784Y-108880823D01*
X163641128Y-108927316D01*
X163570854Y-108937420D01*
X163546727Y-108931475D01*
X163370291Y-108868996D01*
X163370283Y-108868994D01*
X163365412Y-108867269D01*
X163360319Y-108866362D01*
X163360316Y-108866361D01*
X163150573Y-108829000D01*
X163150567Y-108828999D01*
X163145484Y-108828094D01*
X163074970Y-108827233D01*
X162927282Y-108825428D01*
X162927280Y-108825428D01*
X162922111Y-108825365D01*
X162903509Y-108828211D01*
X162888391Y-108829306D01*
X162888395Y-108829371D01*
X162883890Y-108829660D01*
X162879403Y-108829627D01*
X162874960Y-108830233D01*
X162874953Y-108830233D01*
X162671190Y-108858004D01*
X162629795Y-108863645D01*
X162592619Y-108870111D01*
X162590959Y-108870463D01*
X162589875Y-108870734D01*
X162565599Y-108876812D01*
X162554739Y-108879531D01*
X162553607Y-108879859D01*
X162553598Y-108879861D01*
X162550274Y-108880823D01*
X162349832Y-108938826D01*
X162340732Y-108941838D01*
X162313992Y-108950688D01*
X162313974Y-108950694D01*
X162312839Y-108951070D01*
X162311177Y-108951691D01*
X162310073Y-108952152D01*
X162310050Y-108952161D01*
X162276364Y-108966225D01*
X162276343Y-108966234D01*
X162275249Y-108966691D01*
X162108797Y-109043720D01*
X162107916Y-109044162D01*
X162080890Y-109057714D01*
X162080857Y-109057731D01*
X162079986Y-109058168D01*
X162078693Y-109058868D01*
X162077876Y-109059344D01*
X162077862Y-109059352D01*
X162064591Y-109067087D01*
X162050762Y-109075146D01*
X162049925Y-109075670D01*
X162049923Y-109075671D01*
X161909950Y-109163264D01*
X161909919Y-109163284D01*
X161909516Y-109163536D01*
X161901318Y-109168868D01*
X161894831Y-109173087D01*
X161894797Y-109173110D01*
X161894455Y-109173332D01*
X161893820Y-109173761D01*
X161880302Y-109183213D01*
X161879912Y-109183495D01*
X161879877Y-109183520D01*
X161754068Y-109274534D01*
X161752970Y-109275320D01*
X161649570Y-109348432D01*
X161640164Y-109354474D01*
X161562686Y-109399511D01*
X161546211Y-109407544D01*
X161490105Y-109430008D01*
X161470450Y-109437877D01*
X161450552Y-109443991D01*
X161342631Y-109467607D01*
X161323755Y-109470262D01*
X161125482Y-109482970D01*
X161125478Y-109482970D01*
X161124313Y-109483045D01*
X161123156Y-109483163D01*
X161123155Y-109483163D01*
X161120594Y-109483424D01*
X161085956Y-109486954D01*
X161085902Y-109486426D01*
X161072702Y-109487696D01*
X152143126Y-109487696D01*
X152125593Y-109486470D01*
X152116599Y-109485206D01*
X152106196Y-109483744D01*
X152106193Y-109483744D01*
X152102288Y-109483195D01*
X152092505Y-109483058D01*
X152084926Y-109482952D01*
X152084922Y-109482952D01*
X152080975Y-109482897D01*
X152077188Y-109483322D01*
X152074265Y-109483424D01*
X151981689Y-109485338D01*
X151228314Y-109500912D01*
X150454103Y-109548979D01*
X150378414Y-109553678D01*
X150378412Y-109553678D01*
X150377110Y-109553759D01*
X149528817Y-109641738D01*
X149012840Y-109716915D01*
X148686139Y-109764514D01*
X148686132Y-109764515D01*
X148684884Y-109764697D01*
X147846753Y-109922426D01*
X147565563Y-109987480D01*
X147017117Y-110114364D01*
X147017095Y-110114370D01*
X147015857Y-110114656D01*
X146604736Y-110227857D01*
X146194870Y-110340713D01*
X146194863Y-110340715D01*
X146193614Y-110341059D01*
X146192380Y-110341454D01*
X146192371Y-110341457D01*
X145382691Y-110600843D01*
X145381430Y-110601247D01*
X144580692Y-110894777D01*
X144579468Y-110895284D01*
X143793947Y-111220657D01*
X143793938Y-111220661D01*
X143792767Y-111221146D01*
X143791631Y-111221672D01*
X143791614Y-111221680D01*
X143210425Y-111491070D01*
X143019003Y-111579797D01*
X142260722Y-111970118D01*
X142136076Y-112040942D01*
X141520334Y-112390806D01*
X141520322Y-112390813D01*
X141519217Y-112391441D01*
X141518148Y-112392108D01*
X141518125Y-112392122D01*
X140874002Y-112794204D01*
X140795758Y-112843046D01*
X140794690Y-112843776D01*
X140794688Y-112843777D01*
X140379234Y-113127628D01*
X140091579Y-113324163D01*
X139407884Y-113833969D01*
X138745840Y-114371593D01*
X138744872Y-114372448D01*
X138107560Y-114935250D01*
X138107542Y-114935267D01*
X138106579Y-114936117D01*
X137512777Y-115505866D01*
X137508780Y-115509491D01*
X137506197Y-115511438D01*
X137490915Y-115526298D01*
X137488438Y-115529400D01*
X137488436Y-115529403D01*
X137468447Y-115554443D01*
X137459071Y-115564929D01*
X120174844Y-132849155D01*
X120154676Y-132865535D01*
X120146606Y-132870809D01*
X120143227Y-132873783D01*
X120143225Y-132873784D01*
X119992573Y-133006355D01*
X119977674Y-133017622D01*
X119878213Y-133081831D01*
X119860696Y-133091269D01*
X119776750Y-133128272D01*
X119760732Y-133134074D01*
X119664353Y-133161774D01*
X119654840Y-133164112D01*
X119463489Y-133203318D01*
X119363771Y-133223749D01*
X119344423Y-133228104D01*
X119343539Y-133228321D01*
X119343009Y-133228462D01*
X119342994Y-133228466D01*
X119330694Y-133231743D01*
X119324111Y-133233496D01*
X119163361Y-133279698D01*
X119130216Y-133290454D01*
X119128729Y-133290993D01*
X119127735Y-133291392D01*
X119127729Y-133291394D01*
X119097597Y-133303480D01*
X119097572Y-133303490D01*
X119096601Y-133303880D01*
X118928234Y-133378095D01*
X118923789Y-133380267D01*
X118879117Y-133392613D01*
X118861108Y-133394141D01*
X118831225Y-133396676D01*
X118831222Y-133396677D01*
X118825913Y-133397127D01*
X118820758Y-133398465D01*
X118820752Y-133398466D01*
X118607930Y-133453704D01*
X118607926Y-133453705D01*
X118602761Y-133455046D01*
X118597895Y-133457238D01*
X118597892Y-133457239D01*
X118488694Y-133506429D01*
X118392558Y-133549735D01*
X118201314Y-133678488D01*
X118197457Y-133682167D01*
X118197455Y-133682169D01*
X118142105Y-133734971D01*
X118034498Y-133837623D01*
X117896879Y-134022589D01*
X117894463Y-134027340D01*
X117894461Y-134027344D01*
X117852763Y-134109358D01*
X117792393Y-134228098D01*
X117790811Y-134233192D01*
X117790810Y-134233195D01*
X117763662Y-134320625D01*
X117724026Y-134448274D01*
X117723325Y-134453563D01*
X117696404Y-134656684D01*
X117693735Y-134676821D01*
X117702384Y-134907205D01*
X117749726Y-135132838D01*
X117751684Y-135137797D01*
X117751685Y-135137799D01*
X117824904Y-135323199D01*
X117834409Y-135347268D01*
X117837176Y-135351827D01*
X117837177Y-135351830D01*
X117869688Y-135405406D01*
X117954010Y-135544364D01*
X117957507Y-135548394D01*
X118076766Y-135685828D01*
X118105110Y-135718492D01*
X118146570Y-135752487D01*
X118279260Y-135861287D01*
X118279266Y-135861291D01*
X118283388Y-135864671D01*
X118288024Y-135867310D01*
X118288027Y-135867312D01*
X118434363Y-135950611D01*
X118483747Y-135978722D01*
X118700458Y-136057384D01*
X118705707Y-136058333D01*
X118705710Y-136058334D01*
X118923241Y-136097670D01*
X118923248Y-136097671D01*
X118927325Y-136098408D01*
X118945047Y-136099244D01*
X118949989Y-136099477D01*
X118949996Y-136099477D01*
X118951477Y-136099547D01*
X119713523Y-136099547D01*
X119780442Y-136093869D01*
X119880042Y-136085418D01*
X119880046Y-136085417D01*
X119885353Y-136084967D01*
X119890508Y-136083629D01*
X119890514Y-136083628D01*
X120103336Y-136028390D01*
X120103340Y-136028389D01*
X120108505Y-136027048D01*
X120113371Y-136024856D01*
X120113374Y-136024855D01*
X120268278Y-135955076D01*
X120318708Y-135932359D01*
X120509952Y-135803606D01*
X120533526Y-135781118D01*
X120622321Y-135696411D01*
X120676768Y-135644471D01*
X120814387Y-135459505D01*
X120831362Y-135426119D01*
X120898956Y-135293169D01*
X120918873Y-135253996D01*
X120927764Y-135225365D01*
X120985657Y-135038918D01*
X120987240Y-135033820D01*
X120990359Y-135010287D01*
X121016831Y-134810558D01*
X121016831Y-134810553D01*
X121017531Y-134805273D01*
X121015699Y-134756459D01*
X121009082Y-134580220D01*
X121008882Y-134574889D01*
X120967903Y-134379582D01*
X120975923Y-134302885D01*
X121005415Y-134235980D01*
X121014852Y-134218465D01*
X121043558Y-134173999D01*
X121079063Y-134119002D01*
X121090325Y-134104108D01*
X121157876Y-134027344D01*
X121225873Y-133950072D01*
X121250266Y-133920156D01*
X121250670Y-133920486D01*
X121259129Y-133910232D01*
X138527394Y-116641968D01*
X138539263Y-116631503D01*
X138557228Y-116617568D01*
X138562795Y-116613250D01*
X138584382Y-116586970D01*
X138594611Y-116575932D01*
X139012091Y-116176282D01*
X139167348Y-116027656D01*
X139171388Y-116023954D01*
X139794210Y-115477755D01*
X139798347Y-115474283D01*
X140444402Y-114955770D01*
X140448741Y-114952441D01*
X140645517Y-114808159D01*
X141116778Y-114462616D01*
X141121247Y-114459487D01*
X141679982Y-114086152D01*
X141810003Y-113999275D01*
X141814640Y-113996321D01*
X142522782Y-113566610D01*
X142527542Y-113563861D01*
X143253798Y-113165424D01*
X143258675Y-113162886D01*
X144001577Y-112796527D01*
X144006559Y-112794204D01*
X144454787Y-112596978D01*
X144764750Y-112460591D01*
X144769809Y-112458495D01*
X145541843Y-112158268D01*
X145547006Y-112156389D01*
X146331395Y-111890124D01*
X146336638Y-111888471D01*
X146935011Y-111714061D01*
X147131871Y-111656682D01*
X147137175Y-111655260D01*
X147941796Y-111458370D01*
X147947135Y-111457186D01*
X148759570Y-111295582D01*
X148764981Y-111294627D01*
X149238926Y-111221680D01*
X149583702Y-111168614D01*
X149589152Y-111167897D01*
X149715924Y-111154013D01*
X150412559Y-111077718D01*
X150418027Y-111077239D01*
X151244595Y-111023063D01*
X151250076Y-111022823D01*
X152030662Y-111005790D01*
X152049201Y-111006754D01*
X152063324Y-111008538D01*
X152063331Y-111008538D01*
X152070320Y-111009421D01*
X152077327Y-111008734D01*
X152077330Y-111008734D01*
X152112379Y-111005297D01*
X152124675Y-111004696D01*
X161089596Y-111004696D01*
X161115294Y-111007345D01*
X161125048Y-111009377D01*
X161287428Y-111019555D01*
X161339013Y-111022789D01*
X161356873Y-111025200D01*
X161484544Y-111051846D01*
X161502526Y-111057018D01*
X161601340Y-111093581D01*
X161615550Y-111099860D01*
X161716447Y-111152103D01*
X161723688Y-111156160D01*
X161847354Y-111230905D01*
X161852178Y-111233785D01*
X161852376Y-111233902D01*
X161852437Y-111233938D01*
X161955375Y-111294627D01*
X161993501Y-111317105D01*
X161994122Y-111317453D01*
X161994124Y-111317454D01*
X162012701Y-111327860D01*
X162012729Y-111327875D01*
X162013323Y-111328208D01*
X162014230Y-111328690D01*
X162034200Y-111338751D01*
X162034796Y-111339035D01*
X162090303Y-111365501D01*
X162143183Y-111412874D01*
X162162057Y-111481316D01*
X162140932Y-111549097D01*
X162092553Y-111591866D01*
X162079986Y-111598168D01*
X162078693Y-111598868D01*
X162077876Y-111599344D01*
X162077862Y-111599352D01*
X162064591Y-111607087D01*
X162050762Y-111615146D01*
X162049925Y-111615670D01*
X162049923Y-111615671D01*
X161909950Y-111703264D01*
X161909919Y-111703284D01*
X161909516Y-111703536D01*
X161901318Y-111708868D01*
X161894831Y-111713087D01*
X161894797Y-111713110D01*
X161894455Y-111713332D01*
X161893820Y-111713761D01*
X161880302Y-111723213D01*
X161879912Y-111723495D01*
X161879877Y-111723520D01*
X161754068Y-111814534D01*
X161752970Y-111815320D01*
X161649570Y-111888432D01*
X161640164Y-111894474D01*
X161562686Y-111939511D01*
X161546211Y-111947544D01*
X161491348Y-111969510D01*
X161470450Y-111977877D01*
X161450552Y-111983991D01*
X161342631Y-112007607D01*
X161323755Y-112010262D01*
X161125482Y-112022970D01*
X161125478Y-112022970D01*
X161124313Y-112023045D01*
X161123156Y-112023163D01*
X161123155Y-112023163D01*
X161119809Y-112023504D01*
X161085956Y-112026954D01*
X161085902Y-112026426D01*
X161072702Y-112027696D01*
X153313131Y-112027696D01*
X153295598Y-112026470D01*
X153286604Y-112025206D01*
X153276201Y-112023744D01*
X153276198Y-112023744D01*
X153272293Y-112023195D01*
X153263183Y-112023068D01*
X153254935Y-112022952D01*
X153254930Y-112022952D01*
X153250980Y-112022897D01*
X153247039Y-112023339D01*
X153245873Y-112023396D01*
X153243051Y-112023502D01*
X152582083Y-112040812D01*
X152288149Y-112063946D01*
X151916653Y-112093183D01*
X151916635Y-112093185D01*
X151915020Y-112093312D01*
X151251619Y-112180652D01*
X151250018Y-112180949D01*
X151250010Y-112180950D01*
X151022271Y-112223159D01*
X150593698Y-112302591D01*
X150592124Y-112302969D01*
X150592114Y-112302971D01*
X150290195Y-112375456D01*
X149943060Y-112458797D01*
X149941472Y-112459267D01*
X149941466Y-112459269D01*
X149936990Y-112460595D01*
X149301490Y-112648840D01*
X148670744Y-112872200D01*
X148052553Y-113128265D01*
X147448611Y-113416332D01*
X146860572Y-113735613D01*
X146290049Y-114085231D01*
X145738606Y-114464230D01*
X145207754Y-114871569D01*
X145206495Y-114872644D01*
X145206483Y-114872654D01*
X144846946Y-115179730D01*
X144698948Y-115306133D01*
X144697755Y-115307265D01*
X144697754Y-115307266D01*
X144237505Y-115744027D01*
X144232779Y-115748290D01*
X144231718Y-115749199D01*
X144228567Y-115751574D01*
X144225736Y-115754327D01*
X144225729Y-115754333D01*
X144216127Y-115763671D01*
X144213286Y-115766434D01*
X144210814Y-115769531D01*
X144190822Y-115794574D01*
X144181446Y-115805060D01*
X129914279Y-130072227D01*
X129901013Y-130083760D01*
X129882218Y-130097923D01*
X129866937Y-130112782D01*
X129864469Y-130115874D01*
X129863749Y-130116776D01*
X129858171Y-130123295D01*
X129610730Y-130393323D01*
X129610721Y-130393334D01*
X129608878Y-130395345D01*
X129375939Y-130698913D01*
X129170344Y-131021627D01*
X128993658Y-131361033D01*
X128992606Y-131363573D01*
X128992604Y-131363577D01*
X128887200Y-131618041D01*
X128847225Y-131714546D01*
X128732161Y-132079477D01*
X128649341Y-132453048D01*
X128599395Y-132832415D01*
X128591644Y-133009949D01*
X128584465Y-133174358D01*
X128583359Y-133186396D01*
X128582378Y-133193379D01*
X128582238Y-133203373D01*
X128582154Y-133204040D01*
X128582220Y-133204709D01*
X128582080Y-133214692D01*
X128582522Y-133218629D01*
X128582522Y-133218636D01*
X128583156Y-133224287D01*
X128583335Y-133250685D01*
X128583226Y-133251798D01*
X128573832Y-133347174D01*
X128569013Y-133371403D01*
X128561473Y-133396257D01*
X128522556Y-133455637D01*
X128492650Y-133474560D01*
X128382304Y-133524267D01*
X128191060Y-133653020D01*
X128187203Y-133656699D01*
X128187201Y-133656701D01*
X128164363Y-133678488D01*
X128024244Y-133812155D01*
X128021061Y-133816433D01*
X127957135Y-133902352D01*
X127900424Y-133945065D01*
X127857219Y-133952615D01*
X127855154Y-133952354D01*
X127848147Y-133953041D01*
X127848144Y-133953041D01*
X127813093Y-133956478D01*
X127800798Y-133957079D01*
X126270728Y-133957079D01*
X126244888Y-133954400D01*
X126235452Y-133952423D01*
X126230971Y-133952137D01*
X126230964Y-133952136D01*
X126121652Y-133945158D01*
X126030685Y-133939350D01*
X126012193Y-133936783D01*
X125896450Y-133911854D01*
X125877398Y-133906144D01*
X125791868Y-133872948D01*
X125776446Y-133865728D01*
X125688704Y-133817161D01*
X125680324Y-133812088D01*
X125666823Y-133803179D01*
X125641059Y-133780595D01*
X125607713Y-133742167D01*
X125607711Y-133742165D01*
X125604213Y-133738134D01*
X125600087Y-133734751D01*
X125600083Y-133734747D01*
X125430063Y-133595339D01*
X125430057Y-133595335D01*
X125425935Y-133591955D01*
X125421299Y-133589316D01*
X125421296Y-133589314D01*
X125230219Y-133480547D01*
X125225576Y-133477904D01*
X125008865Y-133399242D01*
X125003616Y-133398293D01*
X125003613Y-133398292D01*
X124786082Y-133358956D01*
X124786075Y-133358955D01*
X124781998Y-133358218D01*
X124764276Y-133357382D01*
X124759334Y-133357149D01*
X124759327Y-133357149D01*
X124757846Y-133357079D01*
X124452408Y-133357079D01*
X124444380Y-133356823D01*
X124435060Y-133356228D01*
X124394147Y-133353616D01*
X124391108Y-133353715D01*
X124391105Y-133353715D01*
X124295426Y-133356833D01*
X124295426Y-133356824D01*
X124289109Y-133357079D01*
X123995800Y-133357079D01*
X123928881Y-133362757D01*
X123829281Y-133371208D01*
X123829277Y-133371209D01*
X123823970Y-133371659D01*
X123818815Y-133372997D01*
X123818809Y-133372998D01*
X123605987Y-133428236D01*
X123605983Y-133428237D01*
X123600818Y-133429578D01*
X123595952Y-133431770D01*
X123595949Y-133431771D01*
X123487670Y-133480547D01*
X123390615Y-133524267D01*
X123199371Y-133653020D01*
X123195514Y-133656699D01*
X123195512Y-133656701D01*
X123172674Y-133678488D01*
X123032555Y-133812155D01*
X122894936Y-133997121D01*
X122892520Y-134001872D01*
X122892518Y-134001876D01*
X122849904Y-134085692D01*
X122790450Y-134202630D01*
X122788868Y-134207724D01*
X122788867Y-134207727D01*
X122732556Y-134389077D01*
X122722083Y-134422806D01*
X122721382Y-134428095D01*
X122692912Y-134642905D01*
X122691792Y-134651353D01*
X122700441Y-134881737D01*
X122747783Y-135107370D01*
X122749741Y-135112329D01*
X122749742Y-135112331D01*
X122822961Y-135297731D01*
X122832466Y-135321800D01*
X122835233Y-135326359D01*
X122835234Y-135326362D01*
X122880314Y-135400651D01*
X122952067Y-135518896D01*
X122955564Y-135522926D01*
X123096923Y-135685828D01*
X123103167Y-135693024D01*
X123138358Y-135721879D01*
X123277317Y-135835819D01*
X123277323Y-135835823D01*
X123281445Y-135839203D01*
X123286081Y-135841842D01*
X123286084Y-135841844D01*
X123434707Y-135926445D01*
X123481804Y-135953254D01*
X123698515Y-136031916D01*
X123703764Y-136032865D01*
X123703767Y-136032866D01*
X123921298Y-136072202D01*
X123921305Y-136072203D01*
X123925382Y-136072940D01*
X123943104Y-136073776D01*
X123948046Y-136074009D01*
X123948053Y-136074009D01*
X123949534Y-136074079D01*
X124345441Y-136074079D01*
X124355391Y-136074472D01*
X124394148Y-136077542D01*
X124398628Y-136077256D01*
X124398633Y-136077256D01*
X124444381Y-136074335D01*
X124452409Y-136074079D01*
X124711580Y-136074079D01*
X124778499Y-136068401D01*
X124878099Y-136059950D01*
X124878103Y-136059949D01*
X124883410Y-136059499D01*
X124888565Y-136058161D01*
X124888571Y-136058160D01*
X125101393Y-136002922D01*
X125101397Y-136002921D01*
X125106562Y-136001580D01*
X125111428Y-135999388D01*
X125111431Y-135999387D01*
X125311892Y-135909086D01*
X125316765Y-135906891D01*
X125508009Y-135778138D01*
X125511868Y-135774457D01*
X125654096Y-135638778D01*
X125671667Y-135624784D01*
X125680324Y-135619071D01*
X125688706Y-135613996D01*
X125776443Y-135565432D01*
X125791871Y-135558209D01*
X125839292Y-135539804D01*
X125877395Y-135525016D01*
X125896453Y-135519304D01*
X125919518Y-135514336D01*
X126012195Y-135494375D01*
X126030685Y-135491808D01*
X126235452Y-135478735D01*
X126236646Y-135478614D01*
X126236653Y-135478613D01*
X126273859Y-135474829D01*
X126273912Y-135475350D01*
X126287138Y-135474079D01*
X127782337Y-135474079D01*
X127799873Y-135475305D01*
X127819267Y-135478031D01*
X127819273Y-135478031D01*
X127823176Y-135478580D01*
X127831298Y-135478694D01*
X127840528Y-135478823D01*
X127840534Y-135478823D01*
X127844489Y-135478878D01*
X127845629Y-135478750D01*
X127914035Y-135495255D01*
X127946339Y-135521873D01*
X128088612Y-135685828D01*
X128094856Y-135693024D01*
X128130047Y-135721879D01*
X128269006Y-135835819D01*
X128269012Y-135835823D01*
X128273134Y-135839203D01*
X128277770Y-135841842D01*
X128277773Y-135841844D01*
X128426396Y-135926445D01*
X128473493Y-135953254D01*
X128690204Y-136031916D01*
X128695453Y-136032865D01*
X128695456Y-136032866D01*
X128912987Y-136072202D01*
X128912994Y-136072203D01*
X128917071Y-136072940D01*
X128934793Y-136073776D01*
X128939735Y-136074009D01*
X128939742Y-136074009D01*
X128941223Y-136074079D01*
X129703269Y-136074079D01*
X129770188Y-136068401D01*
X129869788Y-136059950D01*
X129869792Y-136059949D01*
X129875099Y-136059499D01*
X129880254Y-136058161D01*
X129880260Y-136058160D01*
X130093082Y-136002922D01*
X130093086Y-136002921D01*
X130098251Y-136001580D01*
X130103117Y-135999388D01*
X130103120Y-135999387D01*
X130303581Y-135909086D01*
X130308454Y-135906891D01*
X130499698Y-135778138D01*
X130506873Y-135771294D01*
X130593148Y-135688991D01*
X130666514Y-135619003D01*
X130804133Y-135434037D01*
X130821108Y-135400651D01*
X130895670Y-135253996D01*
X130908619Y-135228528D01*
X130917510Y-135199897D01*
X130975403Y-135013450D01*
X130976986Y-135008352D01*
X130990392Y-134907205D01*
X131006577Y-134785090D01*
X131006577Y-134785085D01*
X131007277Y-134779805D01*
X130998628Y-134549421D01*
X130951286Y-134323788D01*
X130866603Y-134109358D01*
X130863418Y-134104108D01*
X130749769Y-133916822D01*
X130747002Y-133912262D01*
X130712889Y-133872950D01*
X130599402Y-133742167D01*
X130599400Y-133742165D01*
X130595902Y-133738134D01*
X130519524Y-133675508D01*
X130421752Y-133595339D01*
X130421746Y-133595335D01*
X130417624Y-133591955D01*
X130412988Y-133589316D01*
X130412985Y-133589314D01*
X130221908Y-133480547D01*
X130217265Y-133477904D01*
X130183238Y-133465553D01*
X130126030Y-133423508D01*
X130100635Y-133357209D01*
X130100460Y-133339507D01*
X130105165Y-133261721D01*
X130106159Y-133251811D01*
X130108380Y-133236002D01*
X130108520Y-133226019D01*
X130108604Y-133225351D01*
X130108538Y-133224681D01*
X130108678Y-133214689D01*
X130106472Y-133195019D01*
X130105839Y-133174795D01*
X130105861Y-133174358D01*
X130117371Y-132940061D01*
X130118583Y-132927760D01*
X130132322Y-132835143D01*
X130158022Y-132661892D01*
X130160433Y-132649769D01*
X130225742Y-132389046D01*
X130229332Y-132377213D01*
X130319878Y-132124157D01*
X130324610Y-132112733D01*
X130439529Y-131869763D01*
X130445354Y-131858864D01*
X130533387Y-131711992D01*
X130583539Y-131628319D01*
X130590407Y-131618041D01*
X130750513Y-131402169D01*
X130758357Y-131392611D01*
X130912394Y-131222660D01*
X130928525Y-131207719D01*
X130933238Y-131204063D01*
X130933239Y-131204062D01*
X130938807Y-131199743D01*
X130965638Y-131167079D01*
X130973907Y-131157961D01*
X145249770Y-116882098D01*
X145261638Y-116871634D01*
X145279604Y-116857698D01*
X145285168Y-116853382D01*
X145289640Y-116847938D01*
X145305538Y-116828584D01*
X145316339Y-116817002D01*
X145745726Y-116411050D01*
X145750996Y-116406341D01*
X146228149Y-116003419D01*
X146233675Y-115999012D01*
X146732645Y-115623497D01*
X146738409Y-115619407D01*
X147257663Y-115272450D01*
X147263647Y-115268690D01*
X147801535Y-114951397D01*
X147807721Y-114947978D01*
X148251700Y-114718611D01*
X148362558Y-114661340D01*
X148368911Y-114658280D01*
X148758102Y-114484128D01*
X148938963Y-114403198D01*
X148945492Y-114400494D01*
X149237204Y-114289141D01*
X149528921Y-114177786D01*
X149535589Y-114175452D01*
X150130610Y-113985801D01*
X150137401Y-113983845D01*
X150742092Y-113827862D01*
X150748982Y-113826289D01*
X151361487Y-113704453D01*
X151368455Y-113703269D01*
X151986845Y-113615965D01*
X151993842Y-113615177D01*
X152264811Y-113592321D01*
X152616144Y-113562686D01*
X152623200Y-113562290D01*
X153003169Y-113551628D01*
X153201823Y-113546054D01*
X153221144Y-113546998D01*
X153240325Y-113549421D01*
X153282383Y-113545297D01*
X153294680Y-113544696D01*
X161089596Y-113544696D01*
X161115294Y-113547345D01*
X161125048Y-113549377D01*
X161287428Y-113559555D01*
X161339013Y-113562789D01*
X161356873Y-113565200D01*
X161484544Y-113591846D01*
X161502526Y-113597018D01*
X161601340Y-113633581D01*
X161615550Y-113639860D01*
X161716447Y-113692103D01*
X161723688Y-113696160D01*
X161847354Y-113770905D01*
X161852178Y-113773785D01*
X161852376Y-113773902D01*
X161852437Y-113773938D01*
X161952924Y-113833182D01*
X161993501Y-113857105D01*
X161994122Y-113857453D01*
X161994124Y-113857454D01*
X162012701Y-113867860D01*
X162012729Y-113867875D01*
X162013323Y-113868208D01*
X162014230Y-113868690D01*
X162034200Y-113878751D01*
X162034796Y-113879035D01*
X162090303Y-113905501D01*
X162143183Y-113952874D01*
X162162057Y-114021316D01*
X162140932Y-114089097D01*
X162092553Y-114131866D01*
X162079986Y-114138168D01*
X162078693Y-114138868D01*
X162077876Y-114139344D01*
X162077862Y-114139352D01*
X162064591Y-114147087D01*
X162050762Y-114155146D01*
X162049925Y-114155670D01*
X162049923Y-114155671D01*
X161909950Y-114243264D01*
X161909919Y-114243284D01*
X161909516Y-114243536D01*
X161901318Y-114248868D01*
X161894831Y-114253087D01*
X161894797Y-114253110D01*
X161894455Y-114253332D01*
X161893820Y-114253761D01*
X161880302Y-114263213D01*
X161879912Y-114263495D01*
X161879877Y-114263520D01*
X161754068Y-114354534D01*
X161752970Y-114355320D01*
X161649570Y-114428432D01*
X161640164Y-114434474D01*
X161562686Y-114479511D01*
X161546211Y-114487544D01*
X161490105Y-114510008D01*
X161470450Y-114517877D01*
X161450552Y-114523991D01*
X161342631Y-114547607D01*
X161323755Y-114550262D01*
X161125482Y-114562970D01*
X161125478Y-114562970D01*
X161124313Y-114563045D01*
X161085956Y-114566954D01*
X161085902Y-114566426D01*
X161072702Y-114567696D01*
X156453161Y-114567696D01*
X156435628Y-114566470D01*
X156426634Y-114565206D01*
X156416231Y-114563744D01*
X156416228Y-114563744D01*
X156412323Y-114563195D01*
X156402134Y-114563053D01*
X156394959Y-114562952D01*
X156394956Y-114562952D01*
X156391010Y-114562897D01*
X156387081Y-114563338D01*
X156383128Y-114563531D01*
X156383127Y-114563503D01*
X156380207Y-114563714D01*
X155863490Y-114580629D01*
X155863481Y-114580630D01*
X155861422Y-114580697D01*
X155859350Y-114580901D01*
X155859351Y-114580901D01*
X155336172Y-114632430D01*
X155336168Y-114632430D01*
X155334102Y-114632634D01*
X155332062Y-114632971D01*
X155332053Y-114632972D01*
X154984715Y-114690318D01*
X154811308Y-114718947D01*
X154295278Y-114839268D01*
X153788223Y-114993082D01*
X153477439Y-115110053D01*
X153294233Y-115179007D01*
X153294223Y-115179011D01*
X153292313Y-115179730D01*
X153290455Y-115180572D01*
X153290445Y-115180576D01*
X153015691Y-115305066D01*
X152809672Y-115398412D01*
X152807858Y-115399381D01*
X152807845Y-115399388D01*
X152344188Y-115647220D01*
X152342368Y-115648193D01*
X151892400Y-115928002D01*
X151890724Y-115929203D01*
X151890721Y-115929205D01*
X151540934Y-116179860D01*
X151461696Y-116236641D01*
X151052101Y-116572789D01*
X150721858Y-116882098D01*
X150691703Y-116910341D01*
X150682737Y-116917879D01*
X150682772Y-116917923D01*
X150681537Y-116918902D01*
X150680327Y-116919814D01*
X150680321Y-116919819D01*
X150680322Y-116919819D01*
X150665040Y-116934679D01*
X150662572Y-116937770D01*
X150659909Y-116940707D01*
X150659885Y-116940685D01*
X150658050Y-116942807D01*
X150486180Y-117126308D01*
X150377556Y-117242284D01*
X150302368Y-117322560D01*
X150301059Y-117324155D01*
X149997576Y-117693946D01*
X149965494Y-117733037D01*
X149656188Y-118164667D01*
X149375775Y-118615603D01*
X149125454Y-119083914D01*
X148906298Y-119567593D01*
X148846771Y-119725751D01*
X148722244Y-120056606D01*
X148719246Y-120064571D01*
X148718648Y-120066543D01*
X148565697Y-120570745D01*
X148565693Y-120570759D01*
X148565099Y-120572718D01*
X148444516Y-121089859D01*
X148443443Y-121096359D01*
X148365960Y-121565654D01*
X148358014Y-121613779D01*
X148305963Y-122142235D01*
X148305896Y-122144292D01*
X148305895Y-122144302D01*
X148289753Y-122637297D01*
X148289194Y-122643780D01*
X148289316Y-122643789D01*
X148289013Y-122647729D01*
X148288462Y-122651651D01*
X148288164Y-122672964D01*
X148292178Y-122708752D01*
X148292963Y-122722796D01*
X148292963Y-132795379D01*
X148290284Y-132821219D01*
X148288307Y-132830655D01*
X148288021Y-132835136D01*
X148288020Y-132835143D01*
X148282108Y-132927760D01*
X148275680Y-133028453D01*
X148275235Y-133035417D01*
X148272667Y-133053914D01*
X148249436Y-133161774D01*
X148247739Y-133169653D01*
X148242028Y-133188709D01*
X148212729Y-133264200D01*
X148208834Y-133274235D01*
X148201612Y-133289661D01*
X148193741Y-133303880D01*
X148153041Y-133377410D01*
X148147975Y-133385778D01*
X148048801Y-133536064D01*
X148014007Y-133571180D01*
X147897144Y-133649857D01*
X147893287Y-133653536D01*
X147893285Y-133653538D01*
X147834619Y-133709503D01*
X147730328Y-133808992D01*
X147592709Y-133993958D01*
X147590293Y-133998709D01*
X147590291Y-133998713D01*
X147550913Y-134076165D01*
X147488223Y-134199467D01*
X147486641Y-134204561D01*
X147486640Y-134204564D01*
X147448392Y-134327743D01*
X147419856Y-134419643D01*
X147419155Y-134424932D01*
X147392234Y-134628053D01*
X147389565Y-134648190D01*
X147398214Y-134878574D01*
X147445556Y-135104207D01*
X147530239Y-135318637D01*
X147533006Y-135323196D01*
X147533007Y-135323199D01*
X147600945Y-135435156D01*
X147649840Y-135515733D01*
X147653337Y-135519763D01*
X147761553Y-135644471D01*
X147800940Y-135689861D01*
X147830939Y-135714459D01*
X147975090Y-135832656D01*
X147975096Y-135832660D01*
X147979218Y-135836040D01*
X147983854Y-135838679D01*
X147983857Y-135838681D01*
X148128071Y-135920772D01*
X148179577Y-135950091D01*
X148396288Y-136028753D01*
X148401537Y-136029702D01*
X148401540Y-136029703D01*
X148619071Y-136069039D01*
X148619078Y-136069040D01*
X148623155Y-136069777D01*
X148640877Y-136070613D01*
X148645819Y-136070846D01*
X148645826Y-136070846D01*
X148647307Y-136070916D01*
X149409353Y-136070916D01*
X149476272Y-136065238D01*
X149575872Y-136056787D01*
X149575876Y-136056786D01*
X149581183Y-136056336D01*
X149586338Y-136054998D01*
X149586344Y-136054997D01*
X149799166Y-135999759D01*
X149799170Y-135999758D01*
X149804335Y-135998417D01*
X149809201Y-135996225D01*
X149809204Y-135996224D01*
X149964108Y-135926445D01*
X150014538Y-135903728D01*
X150205782Y-135774975D01*
X150229356Y-135752487D01*
X150291454Y-135693248D01*
X150372598Y-135615840D01*
X150510217Y-135430874D01*
X150552725Y-135347268D01*
X150582754Y-135288204D01*
X150614703Y-135225365D01*
X150650784Y-135109168D01*
X150681487Y-135010287D01*
X150683070Y-135005189D01*
X150685770Y-134984819D01*
X150712661Y-134781927D01*
X150712661Y-134781922D01*
X150713361Y-134776642D01*
X150704712Y-134546258D01*
X150657370Y-134320625D01*
X150609522Y-134199467D01*
X150574648Y-134111160D01*
X150574647Y-134111158D01*
X150572687Y-134106195D01*
X150560246Y-134085692D01*
X150459996Y-133920486D01*
X150453086Y-133909099D01*
X150368963Y-133812155D01*
X150305486Y-133739004D01*
X150305484Y-133739002D01*
X150301986Y-133734971D01*
X150260433Y-133700900D01*
X150127836Y-133592176D01*
X150127830Y-133592172D01*
X150123708Y-133588792D01*
X150094207Y-133571999D01*
X150051375Y-133531897D01*
X150051202Y-133531634D01*
X149954954Y-133385784D01*
X149949879Y-133377402D01*
X149901319Y-133289668D01*
X149894096Y-133274242D01*
X149894093Y-133274235D01*
X149860897Y-133188704D01*
X149855187Y-133169651D01*
X149853994Y-133164112D01*
X149830259Y-133053913D01*
X149827691Y-133035417D01*
X149827247Y-133028453D01*
X149814619Y-132830655D01*
X149814172Y-132826254D01*
X149810713Y-132792247D01*
X149811234Y-132792194D01*
X149809963Y-132778968D01*
X149809963Y-122728952D01*
X149810957Y-122713159D01*
X149813804Y-122690621D01*
X149814688Y-122683627D01*
X149811941Y-122655608D01*
X149811744Y-122653596D01*
X149811223Y-122636804D01*
X149821566Y-122347226D01*
X149826572Y-122207085D01*
X149827213Y-122198126D01*
X149833223Y-122142235D01*
X149876566Y-121739105D01*
X149877846Y-121730205D01*
X149879966Y-121718458D01*
X149959818Y-121275873D01*
X149961730Y-121267086D01*
X150075905Y-120819762D01*
X150078439Y-120811131D01*
X150224234Y-120373097D01*
X150227377Y-120364670D01*
X150404058Y-119938131D01*
X150407795Y-119929950D01*
X150602494Y-119540994D01*
X150614444Y-119517122D01*
X150618752Y-119509232D01*
X150652668Y-119452071D01*
X150854332Y-119112190D01*
X150859189Y-119104632D01*
X150874832Y-119082103D01*
X151122497Y-118725401D01*
X151127885Y-118718204D01*
X151129434Y-118716282D01*
X151417580Y-118358718D01*
X151423448Y-118351946D01*
X151708622Y-118045652D01*
X151723613Y-118031953D01*
X151736919Y-118021632D01*
X151755931Y-117998487D01*
X151767430Y-117986252D01*
X152039400Y-117733037D01*
X152081395Y-117693938D01*
X152088176Y-117688062D01*
X152446698Y-117399145D01*
X152453880Y-117393769D01*
X152832094Y-117131169D01*
X152839657Y-117126308D01*
X152851115Y-117119510D01*
X153235635Y-116891364D01*
X153243524Y-116887056D01*
X153655234Y-116680968D01*
X153663416Y-116677231D01*
X153831029Y-116607803D01*
X154088807Y-116501028D01*
X154097211Y-116497893D01*
X154534086Y-116352486D01*
X154542706Y-116349955D01*
X154988832Y-116236089D01*
X154997616Y-116234178D01*
X155333482Y-116173581D01*
X155450726Y-116152428D01*
X155459629Y-116151148D01*
X155917407Y-116101932D01*
X155926379Y-116101290D01*
X156135617Y-116093817D01*
X156343370Y-116086397D01*
X156363645Y-116087310D01*
X156380351Y-116089421D01*
X156422409Y-116085297D01*
X156434706Y-116084696D01*
X161089596Y-116084696D01*
X161115294Y-116087345D01*
X161125048Y-116089377D01*
X161287428Y-116099555D01*
X161339013Y-116102789D01*
X161356873Y-116105200D01*
X161484544Y-116131846D01*
X161502526Y-116137018D01*
X161601340Y-116173581D01*
X161615550Y-116179860D01*
X161716447Y-116232103D01*
X161723688Y-116236160D01*
X161847354Y-116310905D01*
X161852178Y-116313785D01*
X161852376Y-116313902D01*
X161852437Y-116313938D01*
X161917824Y-116352488D01*
X161993501Y-116397105D01*
X161994122Y-116397453D01*
X161994124Y-116397454D01*
X162012701Y-116407860D01*
X162012729Y-116407875D01*
X162013323Y-116408208D01*
X162014230Y-116408690D01*
X162034200Y-116418751D01*
X162034796Y-116419035D01*
X162090303Y-116445501D01*
X162143183Y-116492874D01*
X162162057Y-116561316D01*
X162140932Y-116629097D01*
X162092553Y-116671866D01*
X162079986Y-116678168D01*
X162078693Y-116678868D01*
X162077876Y-116679344D01*
X162077862Y-116679352D01*
X162064591Y-116687087D01*
X162050762Y-116695146D01*
X162049925Y-116695670D01*
X162049923Y-116695671D01*
X161909950Y-116783264D01*
X161909919Y-116783284D01*
X161909516Y-116783536D01*
X161901318Y-116788868D01*
X161894831Y-116793087D01*
X161894797Y-116793110D01*
X161894455Y-116793332D01*
X161893820Y-116793761D01*
X161880302Y-116803213D01*
X161879912Y-116803495D01*
X161879877Y-116803520D01*
X161754068Y-116894534D01*
X161752970Y-116895320D01*
X161649570Y-116968432D01*
X161640164Y-116974474D01*
X161562686Y-117019511D01*
X161546211Y-117027544D01*
X161490105Y-117050008D01*
X161470450Y-117057877D01*
X161450552Y-117063991D01*
X161342631Y-117087607D01*
X161323755Y-117090262D01*
X161125482Y-117102970D01*
X161125478Y-117102970D01*
X161124313Y-117103045D01*
X161085956Y-117106954D01*
X161085902Y-117106426D01*
X161072702Y-117107696D01*
X159426691Y-117107696D01*
X159409158Y-117106470D01*
X159389767Y-117103745D01*
X159389762Y-117103745D01*
X159385851Y-117103195D01*
X159376189Y-117103060D01*
X159368491Y-117102952D01*
X159368487Y-117102952D01*
X159364538Y-117102897D01*
X159357750Y-117103659D01*
X159348208Y-117104364D01*
X158930980Y-117119269D01*
X158928740Y-117119510D01*
X158928738Y-117119510D01*
X158869303Y-117125901D01*
X158499632Y-117165648D01*
X158497427Y-117166046D01*
X158497412Y-117166048D01*
X158074889Y-117242284D01*
X158074878Y-117242286D01*
X158072691Y-117242681D01*
X158070536Y-117243231D01*
X158070527Y-117243233D01*
X157765659Y-117321050D01*
X157652334Y-117349976D01*
X157240702Y-117486985D01*
X156839892Y-117653010D01*
X156451949Y-117847206D01*
X156078847Y-118068582D01*
X155722489Y-118316012D01*
X155384690Y-118588233D01*
X155383057Y-118589753D01*
X155383054Y-118589756D01*
X155097290Y-118855817D01*
X155087271Y-118864218D01*
X155081797Y-118868343D01*
X155066516Y-118883203D01*
X155062150Y-118888671D01*
X155055906Y-118895911D01*
X154809703Y-119160357D01*
X154771530Y-119201359D01*
X154744311Y-119235137D01*
X154500716Y-119537425D01*
X154500709Y-119537434D01*
X154499316Y-119539163D01*
X154251894Y-119895525D01*
X154030525Y-120268630D01*
X154029529Y-120270620D01*
X154029524Y-120270629D01*
X153883018Y-120563318D01*
X153836337Y-120656576D01*
X153670318Y-121057387D01*
X153658076Y-121094170D01*
X153563964Y-121376940D01*
X153533317Y-121469021D01*
X153532763Y-121471193D01*
X153532760Y-121471202D01*
X153489457Y-121640867D01*
X153426029Y-121889379D01*
X153425633Y-121891576D01*
X153425630Y-121891588D01*
X153401139Y-122027338D01*
X153349003Y-122316320D01*
X153302631Y-122747668D01*
X153302551Y-122749908D01*
X153302550Y-122749922D01*
X153288617Y-123140099D01*
X153287470Y-123153140D01*
X153287071Y-123155977D01*
X153287070Y-123155994D01*
X153286519Y-123159912D01*
X153286221Y-123181225D01*
X153289982Y-123214752D01*
X153290235Y-123217010D01*
X153291020Y-123231055D01*
X153291020Y-132769911D01*
X153288341Y-132795751D01*
X153286364Y-132805187D01*
X153286078Y-132809668D01*
X153286077Y-132809675D01*
X153273292Y-133009949D01*
X153270724Y-133028446D01*
X153245795Y-133144189D01*
X153240085Y-133163241D01*
X153212882Y-133233332D01*
X153206891Y-133248767D01*
X153199669Y-133264193D01*
X153185570Y-133289664D01*
X153151098Y-133351942D01*
X153146032Y-133360310D01*
X153046858Y-133510596D01*
X153012064Y-133545712D01*
X152895201Y-133624389D01*
X152891344Y-133628068D01*
X152891342Y-133628070D01*
X152868504Y-133649857D01*
X152728385Y-133783524D01*
X152590766Y-133968490D01*
X152588350Y-133973241D01*
X152588348Y-133973245D01*
X152560843Y-134027344D01*
X152486280Y-134173999D01*
X152484698Y-134179093D01*
X152484697Y-134179096D01*
X152438541Y-134327743D01*
X152417913Y-134394175D01*
X152417212Y-134399464D01*
X152393962Y-134574889D01*
X152387622Y-134622722D01*
X152387822Y-134628051D01*
X152387822Y-134628053D01*
X152389653Y-134676821D01*
X152396271Y-134853106D01*
X152443613Y-135078739D01*
X152445571Y-135083698D01*
X152445572Y-135083700D01*
X152514704Y-135258751D01*
X152528296Y-135293169D01*
X152531063Y-135297728D01*
X152531064Y-135297731D01*
X152548438Y-135326362D01*
X152647897Y-135490265D01*
X152651394Y-135494295D01*
X152781710Y-135644471D01*
X152798997Y-135664393D01*
X152833915Y-135693024D01*
X152973147Y-135807188D01*
X152973153Y-135807192D01*
X152977275Y-135810572D01*
X152981911Y-135813211D01*
X152981914Y-135813213D01*
X153072313Y-135864671D01*
X153177634Y-135924623D01*
X153394345Y-136003285D01*
X153399594Y-136004234D01*
X153399597Y-136004235D01*
X153617128Y-136043571D01*
X153617135Y-136043572D01*
X153621212Y-136044309D01*
X153638934Y-136045145D01*
X153643876Y-136045378D01*
X153643883Y-136045378D01*
X153645364Y-136045448D01*
X154407410Y-136045448D01*
X154474329Y-136039770D01*
X154573929Y-136031319D01*
X154573933Y-136031318D01*
X154579240Y-136030868D01*
X154584395Y-136029530D01*
X154584401Y-136029529D01*
X154797223Y-135974291D01*
X154797227Y-135974290D01*
X154802392Y-135972949D01*
X154807258Y-135970757D01*
X154807261Y-135970756D01*
X155007722Y-135880455D01*
X155012595Y-135878260D01*
X155203839Y-135749507D01*
X155262814Y-135693248D01*
X155318429Y-135640193D01*
X155370655Y-135590372D01*
X155508274Y-135405406D01*
X155535514Y-135351830D01*
X155582837Y-135258751D01*
X155612760Y-135199897D01*
X155640933Y-135109168D01*
X155679544Y-134984819D01*
X155681127Y-134979721D01*
X155681828Y-134974432D01*
X155710718Y-134756459D01*
X155710718Y-134756454D01*
X155711418Y-134751174D01*
X155702769Y-134520790D01*
X155655427Y-134295157D01*
X155628944Y-134228098D01*
X155572705Y-134085692D01*
X155572704Y-134085690D01*
X155570744Y-134080727D01*
X155538351Y-134027344D01*
X155453910Y-133888191D01*
X155451143Y-133883631D01*
X155414932Y-133841901D01*
X155303543Y-133713536D01*
X155303541Y-133713534D01*
X155300043Y-133709503D01*
X155258490Y-133675432D01*
X155125893Y-133566708D01*
X155125887Y-133566704D01*
X155121765Y-133563324D01*
X155092264Y-133546531D01*
X155049432Y-133506429D01*
X155029407Y-133476083D01*
X154953011Y-133360316D01*
X154947936Y-133351934D01*
X154899376Y-133264200D01*
X154892153Y-133248774D01*
X154886223Y-133233496D01*
X154858954Y-133163236D01*
X154853244Y-133144183D01*
X154840980Y-133087243D01*
X154828316Y-133028445D01*
X154825748Y-133009949D01*
X154821287Y-132940065D01*
X154812676Y-132805187D01*
X154812229Y-132800786D01*
X154808770Y-132766779D01*
X154809291Y-132766726D01*
X154808020Y-132753500D01*
X154808020Y-123237210D01*
X154809013Y-123221419D01*
X154811862Y-123198863D01*
X154812745Y-123191876D01*
X154810024Y-123164124D01*
X154809543Y-123146337D01*
X154809816Y-123140099D01*
X154825117Y-122789586D01*
X154826075Y-122778637D01*
X154850113Y-122596039D01*
X154876523Y-122395429D01*
X154878431Y-122384609D01*
X154884067Y-122359189D01*
X154932621Y-122140167D01*
X154962082Y-122007276D01*
X154964926Y-121996659D01*
X155081153Y-121628027D01*
X155084913Y-121617698D01*
X155232816Y-121260622D01*
X155237461Y-121250660D01*
X155415926Y-120907824D01*
X155421422Y-120898304D01*
X155494004Y-120784371D01*
X155629098Y-120572313D01*
X155635389Y-120563327D01*
X155804218Y-120343302D01*
X155870681Y-120256685D01*
X155877746Y-120248265D01*
X156111080Y-119993620D01*
X156126749Y-119979185D01*
X156138406Y-119970143D01*
X156142879Y-119964698D01*
X156156103Y-119948599D01*
X156168341Y-119935680D01*
X156210051Y-119897459D01*
X156431628Y-119694417D01*
X156440026Y-119687370D01*
X156746671Y-119452069D01*
X156755672Y-119445766D01*
X157081659Y-119238085D01*
X157091161Y-119232599D01*
X157406689Y-119068342D01*
X157433999Y-119054125D01*
X157443960Y-119049480D01*
X157801041Y-118901567D01*
X157811371Y-118897807D01*
X157950501Y-118853938D01*
X158179996Y-118781577D01*
X158190595Y-118778737D01*
X158447810Y-118721710D01*
X158567947Y-118695075D01*
X158578772Y-118693166D01*
X158943082Y-118645200D01*
X158961973Y-118642713D01*
X158972922Y-118641755D01*
X159317897Y-118626690D01*
X159339181Y-118627563D01*
X159346901Y-118628538D01*
X159346907Y-118628538D01*
X159353897Y-118629421D01*
X159395941Y-118625298D01*
X159408237Y-118624696D01*
X161089596Y-118624696D01*
X161115294Y-118627345D01*
X161125048Y-118629377D01*
X161287428Y-118639555D01*
X161339013Y-118642789D01*
X161356873Y-118645200D01*
X161484544Y-118671846D01*
X161502526Y-118677018D01*
X161601340Y-118713581D01*
X161615550Y-118719860D01*
X161716447Y-118772103D01*
X161723688Y-118776160D01*
X161847354Y-118850905D01*
X161852178Y-118853785D01*
X161852376Y-118853902D01*
X161852437Y-118853938D01*
X161979029Y-118928573D01*
X162027552Y-118980400D01*
X162040352Y-119050233D01*
X162013365Y-119115901D01*
X161957926Y-119155588D01*
X161945662Y-119160028D01*
X161944844Y-119160350D01*
X161944825Y-119160357D01*
X161844803Y-119199711D01*
X161758899Y-119233510D01*
X161733639Y-119244236D01*
X161732511Y-119244751D01*
X161708231Y-119256618D01*
X161539991Y-119344405D01*
X161539466Y-119344692D01*
X161539441Y-119344705D01*
X161524545Y-119352839D01*
X161523019Y-119353672D01*
X161522241Y-119354116D01*
X161504536Y-119364697D01*
X161415466Y-119420386D01*
X161340462Y-119467280D01*
X161340408Y-119467314D01*
X161340213Y-119467436D01*
X161332819Y-119472147D01*
X161332494Y-119472358D01*
X161324441Y-119477695D01*
X161150432Y-119595379D01*
X160959400Y-119723740D01*
X160956336Y-119725735D01*
X160821711Y-119810543D01*
X160737704Y-119863463D01*
X160733075Y-119866242D01*
X160551313Y-119970143D01*
X160463456Y-120020365D01*
X160462198Y-120021166D01*
X160462192Y-120021170D01*
X160427061Y-120043549D01*
X160427057Y-120043552D01*
X160421990Y-120046780D01*
X160419453Y-120049181D01*
X160408499Y-120056606D01*
X160241789Y-120154037D01*
X160241782Y-120154042D01*
X160239018Y-120155657D01*
X159979515Y-120345189D01*
X159977146Y-120347320D01*
X159977137Y-120347328D01*
X159872296Y-120441670D01*
X159812010Y-120495918D01*
X159809992Y-120497561D01*
X159809819Y-120497666D01*
X159809299Y-120498125D01*
X159809287Y-120498135D01*
X159802907Y-120503770D01*
X159801442Y-120505064D01*
X159800052Y-120506454D01*
X159799368Y-120507097D01*
X159795352Y-120510907D01*
X159773452Y-120530614D01*
X159764847Y-120537694D01*
X159755419Y-120544774D01*
X159740113Y-120559608D01*
X159737637Y-120562699D01*
X159737635Y-120562701D01*
X159717120Y-120588310D01*
X159707878Y-120598628D01*
X159514711Y-120791795D01*
X159501445Y-120803328D01*
X159482649Y-120817492D01*
X159479814Y-120820249D01*
X159479808Y-120820254D01*
X159470214Y-120829584D01*
X159467368Y-120832352D01*
X159461267Y-120839993D01*
X159455705Y-120846495D01*
X159262457Y-121057387D01*
X159228751Y-121094170D01*
X159013128Y-121375173D01*
X159011655Y-121377485D01*
X159011653Y-121377488D01*
X158912919Y-121532467D01*
X158822816Y-121673899D01*
X158821549Y-121676333D01*
X158821546Y-121676338D01*
X158692815Y-121923623D01*
X158659263Y-121988075D01*
X158658211Y-121990615D01*
X158658209Y-121990619D01*
X158644547Y-122023601D01*
X158523715Y-122315310D01*
X158522891Y-122317925D01*
X158522889Y-122317929D01*
X158422345Y-122636804D01*
X158417202Y-122653114D01*
X158340536Y-122998915D01*
X158340179Y-123001630D01*
X158340178Y-123001633D01*
X158318817Y-123163873D01*
X158294300Y-123350082D01*
X158287568Y-123504220D01*
X158280747Y-123660401D01*
X158279640Y-123672440D01*
X158278208Y-123682629D01*
X158277910Y-123703942D01*
X158278352Y-123707883D01*
X158281924Y-123739733D01*
X158282709Y-123753776D01*
X158282709Y-132769911D01*
X158280030Y-132795751D01*
X158278053Y-132805187D01*
X158277767Y-132809668D01*
X158277766Y-132809675D01*
X158264981Y-133009949D01*
X158262413Y-133028446D01*
X158237484Y-133144189D01*
X158231774Y-133163241D01*
X158204571Y-133233332D01*
X158198580Y-133248767D01*
X158191358Y-133264193D01*
X158177259Y-133289664D01*
X158142787Y-133351942D01*
X158137721Y-133360310D01*
X158038547Y-133510596D01*
X158003753Y-133545712D01*
X157886890Y-133624389D01*
X157883033Y-133628068D01*
X157883031Y-133628070D01*
X157860193Y-133649857D01*
X157720074Y-133783524D01*
X157582455Y-133968490D01*
X157580039Y-133973241D01*
X157580037Y-133973245D01*
X157552532Y-134027344D01*
X157477969Y-134173999D01*
X157476387Y-134179093D01*
X157476386Y-134179096D01*
X157430230Y-134327743D01*
X157409602Y-134394175D01*
X157408901Y-134399464D01*
X157385651Y-134574889D01*
X157379311Y-134622722D01*
X157379511Y-134628051D01*
X157379511Y-134628053D01*
X157381342Y-134676821D01*
X157387960Y-134853106D01*
X157435302Y-135078739D01*
X157437260Y-135083698D01*
X157437261Y-135083700D01*
X157506393Y-135258751D01*
X157519985Y-135293169D01*
X157522752Y-135297728D01*
X157522753Y-135297731D01*
X157540127Y-135326362D01*
X157639586Y-135490265D01*
X157643083Y-135494295D01*
X157773399Y-135644471D01*
X157790686Y-135664393D01*
X157825604Y-135693024D01*
X157964836Y-135807188D01*
X157964842Y-135807192D01*
X157968964Y-135810572D01*
X157973600Y-135813211D01*
X157973603Y-135813213D01*
X158064002Y-135864671D01*
X158169323Y-135924623D01*
X158386034Y-136003285D01*
X158391283Y-136004234D01*
X158391286Y-136004235D01*
X158608817Y-136043571D01*
X158608824Y-136043572D01*
X158612901Y-136044309D01*
X158630623Y-136045145D01*
X158635565Y-136045378D01*
X158635572Y-136045378D01*
X158637053Y-136045448D01*
X159399099Y-136045448D01*
X159466018Y-136039770D01*
X159565618Y-136031319D01*
X159565622Y-136031318D01*
X159570929Y-136030868D01*
X159576084Y-136029530D01*
X159576090Y-136029529D01*
X159788912Y-135974291D01*
X159788916Y-135974290D01*
X159794081Y-135972949D01*
X159798947Y-135970757D01*
X159798950Y-135970756D01*
X159999411Y-135880455D01*
X160004284Y-135878260D01*
X160195528Y-135749507D01*
X160254503Y-135693248D01*
X160310118Y-135640193D01*
X160362344Y-135590372D01*
X160499963Y-135405406D01*
X160527203Y-135351830D01*
X160574526Y-135258751D01*
X160604449Y-135199897D01*
X160632622Y-135109168D01*
X160671233Y-134984819D01*
X160672816Y-134979721D01*
X160673517Y-134974432D01*
X160702407Y-134756459D01*
X160702407Y-134756454D01*
X160703107Y-134751174D01*
X160694458Y-134520790D01*
X160647116Y-134295157D01*
X160620633Y-134228098D01*
X160564394Y-134085692D01*
X160564393Y-134085690D01*
X160562433Y-134080727D01*
X160530040Y-134027344D01*
X160445599Y-133888191D01*
X160442832Y-133883631D01*
X160406621Y-133841901D01*
X160295232Y-133713536D01*
X160295230Y-133713534D01*
X160291732Y-133709503D01*
X160250179Y-133675432D01*
X160117582Y-133566708D01*
X160117576Y-133566704D01*
X160113454Y-133563324D01*
X160083953Y-133546531D01*
X160041123Y-133506432D01*
X159944697Y-133360310D01*
X159939631Y-133351942D01*
X159905159Y-133289664D01*
X159891061Y-133264194D01*
X159883839Y-133248768D01*
X159871698Y-133217487D01*
X159850646Y-133163244D01*
X159844934Y-133144186D01*
X159832669Y-133087243D01*
X159820005Y-133028444D01*
X159817437Y-133009949D01*
X159812976Y-132940065D01*
X159804365Y-132805187D01*
X159803918Y-132800786D01*
X159800459Y-132766779D01*
X159800980Y-132766726D01*
X159799709Y-132753500D01*
X159799709Y-123759945D01*
X159800703Y-123744151D01*
X159803550Y-123721614D01*
X159804434Y-123714621D01*
X159801997Y-123689764D01*
X159801594Y-123670402D01*
X159815283Y-123426715D01*
X159816864Y-123412685D01*
X159862199Y-123145883D01*
X159865339Y-123132130D01*
X159880368Y-123079967D01*
X159940255Y-122872099D01*
X159944921Y-122858765D01*
X160048475Y-122608770D01*
X160054605Y-122596039D01*
X160185510Y-122359189D01*
X160193028Y-122347226D01*
X160213816Y-122317929D01*
X160349615Y-122126539D01*
X160358425Y-122115492D01*
X160513683Y-121941761D01*
X160530401Y-121926166D01*
X160533679Y-121923623D01*
X160533680Y-121923622D01*
X160539244Y-121919306D01*
X160563826Y-121889379D01*
X160566068Y-121886650D01*
X160574337Y-121877531D01*
X160775144Y-121676724D01*
X160787176Y-121666133D01*
X160810139Y-121648384D01*
X160825567Y-121629667D01*
X160839307Y-121615440D01*
X160954112Y-121513884D01*
X160965896Y-121504647D01*
X161113164Y-121402738D01*
X161125959Y-121394965D01*
X161146269Y-121384225D01*
X161160870Y-121377799D01*
X161163151Y-121377164D01*
X161167274Y-121375351D01*
X161167281Y-121375349D01*
X161351643Y-121294302D01*
X161377039Y-121286216D01*
X161452402Y-121270762D01*
X161484028Y-121268352D01*
X161512777Y-121269795D01*
X161521770Y-121270246D01*
X161550481Y-121275055D01*
X161608015Y-121291708D01*
X161625801Y-121298346D01*
X161721884Y-121342717D01*
X161735174Y-121348855D01*
X161741093Y-121351779D01*
X161802662Y-121384227D01*
X161898390Y-121434678D01*
X161907685Y-121439456D01*
X161908023Y-121439625D01*
X161908043Y-121439636D01*
X161908074Y-121439651D01*
X161915773Y-121443430D01*
X161915903Y-121443493D01*
X162101114Y-121532467D01*
X162101138Y-121532478D01*
X162101883Y-121532836D01*
X162127652Y-121544355D01*
X162128832Y-121544844D01*
X162154912Y-121554830D01*
X162155699Y-121555107D01*
X162185660Y-121565654D01*
X162243274Y-121607141D01*
X162269313Y-121673190D01*
X162255509Y-121742832D01*
X162219479Y-121785262D01*
X162112165Y-121865835D01*
X162108593Y-121869573D01*
X161987147Y-121996659D01*
X161957829Y-122027338D01*
X161831943Y-122211880D01*
X161829764Y-122216575D01*
X161749271Y-122389983D01*
X161737888Y-122414505D01*
X161678189Y-122629770D01*
X161654451Y-122851895D01*
X161654748Y-122857048D01*
X161654748Y-122857051D01*
X161662928Y-122998915D01*
X161667310Y-123074915D01*
X161668447Y-123079961D01*
X161668448Y-123079967D01*
X161683406Y-123146337D01*
X161716422Y-123292839D01*
X161800466Y-123499816D01*
X161803165Y-123504220D01*
X161912494Y-123682629D01*
X161917187Y-123690288D01*
X162063450Y-123859138D01*
X162067430Y-123862442D01*
X162072181Y-123866387D01*
X162111816Y-123925290D01*
X162113313Y-123996271D01*
X162076197Y-124056793D01*
X162035924Y-124081312D01*
X161920495Y-124124585D01*
X161803939Y-124211939D01*
X161716585Y-124328495D01*
X161665455Y-124464884D01*
X161658700Y-124527066D01*
X161658700Y-126323334D01*
X161665455Y-126385516D01*
X161716585Y-126521905D01*
X161803939Y-126638461D01*
X161920495Y-126725815D01*
X162056884Y-126776945D01*
X162119066Y-126783700D01*
X163588786Y-126783700D01*
X163656907Y-126803702D01*
X163703400Y-126857358D01*
X163714786Y-126909700D01*
X163714786Y-135914130D01*
X163713286Y-135933515D01*
X163710976Y-135948348D01*
X163710976Y-135948352D01*
X163709595Y-135957221D01*
X163711462Y-135971497D01*
X163711590Y-135972473D01*
X163712333Y-135997799D01*
X163700249Y-136166767D01*
X163700248Y-136166775D01*
X163697690Y-136184561D01*
X163656287Y-136374889D01*
X163651224Y-136392135D01*
X163583150Y-136574649D01*
X163575684Y-136590996D01*
X163482334Y-136761953D01*
X163472615Y-136777076D01*
X163355890Y-136933002D01*
X163344117Y-136946589D01*
X163206383Y-137084322D01*
X163192796Y-137096094D01*
X163036866Y-137212822D01*
X163021746Y-137222539D01*
X162850788Y-137315887D01*
X162834436Y-137323355D01*
X162743186Y-137357389D01*
X162651931Y-137391426D01*
X162634692Y-137396487D01*
X162444353Y-137437891D01*
X162426562Y-137440449D01*
X162264641Y-137452029D01*
X162246882Y-137451291D01*
X162238443Y-137451187D01*
X162229566Y-137449805D01*
X162220663Y-137450969D01*
X162220656Y-137450969D01*
X162197996Y-137453932D01*
X162181660Y-137454996D01*
X116272656Y-137454996D01*
X116253269Y-137453496D01*
X116238437Y-137451186D01*
X116238434Y-137451186D01*
X116229566Y-137449805D01*
X116214309Y-137451800D01*
X116188989Y-137452543D01*
X116020009Y-137440455D01*
X116002226Y-137437898D01*
X115871262Y-137409408D01*
X115811892Y-137396492D01*
X115794650Y-137391430D01*
X115612135Y-137323354D01*
X115595795Y-137315891D01*
X115595788Y-137315887D01*
X115424836Y-137222539D01*
X115409726Y-137212829D01*
X115253781Y-137096089D01*
X115240202Y-137084322D01*
X115102470Y-136946589D01*
X115090697Y-136933002D01*
X114973972Y-136777073D01*
X114964253Y-136761950D01*
X114870904Y-136590994D01*
X114863436Y-136574641D01*
X114795369Y-136392144D01*
X114790304Y-136374895D01*
X114748900Y-136184561D01*
X114746342Y-136166767D01*
X114740524Y-136085418D01*
X114734759Y-136004814D01*
X114735491Y-135987214D01*
X114735596Y-135978644D01*
X114736977Y-135969773D01*
X114732850Y-135938211D01*
X114731786Y-135921876D01*
X114731786Y-108197886D01*
X136696627Y-108197886D01*
X136722588Y-108469989D01*
X136787557Y-108735495D01*
X136789269Y-108739721D01*
X136789270Y-108739725D01*
X136881407Y-108967200D01*
X136890172Y-108988841D01*
X136892476Y-108992776D01*
X136892478Y-108992780D01*
X136931458Y-109059352D01*
X137028285Y-109224720D01*
X137127215Y-109348426D01*
X137174495Y-109407546D01*
X137199002Y-109438191D01*
X137398747Y-109624782D01*
X137623335Y-109780584D01*
X137750180Y-109843688D01*
X137863975Y-109900301D01*
X137863978Y-109900302D01*
X137868062Y-109902334D01*
X138127800Y-109987480D01*
X138132291Y-109988260D01*
X138132292Y-109988260D01*
X138393329Y-110033584D01*
X138393337Y-110033585D01*
X138397110Y-110034240D01*
X138400947Y-110034431D01*
X138481912Y-110038462D01*
X138481920Y-110038462D01*
X138483483Y-110038540D01*
X139904113Y-110038540D01*
X139906381Y-110038375D01*
X139906393Y-110038375D01*
X140037952Y-110028829D01*
X140107301Y-110023797D01*
X140111756Y-110022813D01*
X140111759Y-110022813D01*
X140369752Y-109965854D01*
X140369756Y-109965853D01*
X140374212Y-109964869D01*
X140544636Y-109900301D01*
X140625551Y-109869645D01*
X140625554Y-109869644D01*
X140629821Y-109868027D01*
X140868773Y-109735301D01*
X141086062Y-109569471D01*
X141166003Y-109487696D01*
X141244354Y-109407546D01*
X141277137Y-109374011D01*
X141383206Y-109228287D01*
X141435308Y-109156707D01*
X141435311Y-109156701D01*
X141437994Y-109153016D01*
X141440116Y-109148983D01*
X141440119Y-109148978D01*
X141563139Y-108915155D01*
X141563139Y-108915154D01*
X141565265Y-108911114D01*
X141656282Y-108653374D01*
X141692427Y-108469989D01*
X141708259Y-108389667D01*
X141708260Y-108389661D01*
X141709140Y-108385195D01*
X141718465Y-108197886D01*
X141722504Y-108116763D01*
X141722504Y-108116757D01*
X141722731Y-108112194D01*
X141696770Y-107840091D01*
X141631801Y-107574585D01*
X141562411Y-107403267D01*
X141530899Y-107325467D01*
X141530896Y-107325461D01*
X141529186Y-107321239D01*
X141391073Y-107085360D01*
X141220356Y-106871889D01*
X141020611Y-106685298D01*
X140796023Y-106529496D01*
X140620256Y-106442053D01*
X140555383Y-106409779D01*
X140555380Y-106409778D01*
X140551296Y-106407746D01*
X140291558Y-106322600D01*
X140287066Y-106321820D01*
X140026029Y-106276496D01*
X140026021Y-106276495D01*
X140022248Y-106275840D01*
X140010917Y-106275276D01*
X139937446Y-106271618D01*
X139937438Y-106271618D01*
X139935875Y-106271540D01*
X138515245Y-106271540D01*
X138512977Y-106271705D01*
X138512965Y-106271705D01*
X138381406Y-106281251D01*
X138312057Y-106286283D01*
X138307602Y-106287267D01*
X138307599Y-106287267D01*
X138049606Y-106344226D01*
X138049602Y-106344227D01*
X138045146Y-106345211D01*
X137917341Y-106393632D01*
X137793807Y-106440435D01*
X137793804Y-106440436D01*
X137789537Y-106442053D01*
X137550585Y-106574779D01*
X137333296Y-106740609D01*
X137142221Y-106936069D01*
X137139534Y-106939761D01*
X137139532Y-106939763D01*
X136984050Y-107153373D01*
X136984047Y-107153379D01*
X136981364Y-107157064D01*
X136979242Y-107161097D01*
X136979239Y-107161102D01*
X136894987Y-107321239D01*
X136854093Y-107398966D01*
X136763076Y-107656706D01*
X136762196Y-107661172D01*
X136726034Y-107844643D01*
X136710218Y-107924885D01*
X136709991Y-107929438D01*
X136709991Y-107929441D01*
X136700666Y-108116763D01*
X136696627Y-108197886D01*
X114731786Y-108197886D01*
X114731786Y-103697886D01*
X136696627Y-103697886D01*
X136722588Y-103969989D01*
X136787557Y-104235495D01*
X136789269Y-104239721D01*
X136789270Y-104239725D01*
X136858690Y-104411114D01*
X136890172Y-104488841D01*
X137028285Y-104724720D01*
X137199002Y-104938191D01*
X137398747Y-105124782D01*
X137623335Y-105280584D01*
X137750180Y-105343688D01*
X137863975Y-105400301D01*
X137863978Y-105400302D01*
X137868062Y-105402334D01*
X138127800Y-105487480D01*
X138132291Y-105488260D01*
X138132292Y-105488260D01*
X138393329Y-105533584D01*
X138393337Y-105533585D01*
X138397110Y-105534240D01*
X138400947Y-105534431D01*
X138481912Y-105538462D01*
X138481920Y-105538462D01*
X138483483Y-105538540D01*
X139904113Y-105538540D01*
X139906381Y-105538375D01*
X139906393Y-105538375D01*
X140037952Y-105528829D01*
X140107301Y-105523797D01*
X140111756Y-105522813D01*
X140111759Y-105522813D01*
X140369752Y-105465854D01*
X140369756Y-105465853D01*
X140374212Y-105464869D01*
X140544636Y-105400301D01*
X140625551Y-105369645D01*
X140625554Y-105369644D01*
X140629821Y-105368027D01*
X140868773Y-105235301D01*
X141086062Y-105069471D01*
X141277137Y-104874011D01*
X141383206Y-104728287D01*
X141435308Y-104656707D01*
X141435311Y-104656701D01*
X141437994Y-104653016D01*
X141440116Y-104648983D01*
X141440119Y-104648978D01*
X141563139Y-104415155D01*
X141563139Y-104415154D01*
X141565265Y-104411114D01*
X141656282Y-104153374D01*
X141692427Y-103969989D01*
X141708259Y-103889667D01*
X141708260Y-103889661D01*
X141709140Y-103885195D01*
X141718465Y-103697886D01*
X141722504Y-103616763D01*
X141722504Y-103616757D01*
X141722731Y-103612194D01*
X141696770Y-103340091D01*
X141631801Y-103074585D01*
X141562411Y-102903267D01*
X141530899Y-102825467D01*
X141530896Y-102825461D01*
X141529186Y-102821239D01*
X141391073Y-102585360D01*
X141250939Y-102410131D01*
X141223208Y-102375455D01*
X141223207Y-102375453D01*
X141220356Y-102371889D01*
X141020611Y-102185298D01*
X140796023Y-102029496D01*
X140620256Y-101942053D01*
X140555383Y-101909779D01*
X140555380Y-101909778D01*
X140551296Y-101907746D01*
X140291558Y-101822600D01*
X140287066Y-101821820D01*
X140026029Y-101776496D01*
X140026021Y-101776495D01*
X140022248Y-101775840D01*
X140010917Y-101775276D01*
X139937446Y-101771618D01*
X139937438Y-101771618D01*
X139935875Y-101771540D01*
X138515245Y-101771540D01*
X138512977Y-101771705D01*
X138512965Y-101771705D01*
X138381406Y-101781251D01*
X138312057Y-101786283D01*
X138307602Y-101787267D01*
X138307599Y-101787267D01*
X138049606Y-101844226D01*
X138049602Y-101844227D01*
X138045146Y-101845211D01*
X137917342Y-101893632D01*
X137793807Y-101940435D01*
X137793804Y-101940436D01*
X137789537Y-101942053D01*
X137550585Y-102074779D01*
X137333296Y-102240609D01*
X137142221Y-102436069D01*
X137139534Y-102439761D01*
X137139532Y-102439763D01*
X136984050Y-102653373D01*
X136984047Y-102653379D01*
X136981364Y-102657064D01*
X136979242Y-102661097D01*
X136979239Y-102661102D01*
X136894987Y-102821239D01*
X136854093Y-102898966D01*
X136763076Y-103156706D01*
X136762196Y-103161172D01*
X136726034Y-103344643D01*
X136710218Y-103424885D01*
X136709991Y-103429438D01*
X136709991Y-103429441D01*
X136700666Y-103616763D01*
X136696627Y-103697886D01*
X114731786Y-103697886D01*
X114731786Y-100970620D01*
X116605728Y-100970620D01*
X116625593Y-101223023D01*
X116684697Y-101469211D01*
X116781586Y-101703122D01*
X116913874Y-101918996D01*
X117078304Y-102111518D01*
X117270826Y-102275948D01*
X117486700Y-102408236D01*
X117491270Y-102410129D01*
X117491274Y-102410131D01*
X117716038Y-102503231D01*
X117720611Y-102505125D01*
X117805234Y-102525441D01*
X117961986Y-102563074D01*
X117961992Y-102563075D01*
X117966799Y-102564229D01*
X118066618Y-102572085D01*
X118153547Y-102578927D01*
X118153554Y-102578927D01*
X118156003Y-102579120D01*
X118282401Y-102579120D01*
X118284850Y-102578927D01*
X118284857Y-102578927D01*
X118371786Y-102572085D01*
X118471605Y-102564229D01*
X118476412Y-102563075D01*
X118476418Y-102563074D01*
X118633170Y-102525441D01*
X118717793Y-102505125D01*
X118722366Y-102503231D01*
X118947130Y-102410131D01*
X118947134Y-102410129D01*
X118951704Y-102408236D01*
X119167578Y-102275948D01*
X119360100Y-102111518D01*
X119524530Y-101918996D01*
X119656818Y-101703122D01*
X119753707Y-101469211D01*
X119812811Y-101223023D01*
X119832676Y-100970620D01*
X119812811Y-100718217D01*
X119790380Y-100624782D01*
X119754862Y-100476841D01*
X119753707Y-100472029D01*
X119656818Y-100238118D01*
X119524530Y-100022244D01*
X119360100Y-99829722D01*
X119167578Y-99665292D01*
X118951704Y-99533004D01*
X118947134Y-99531111D01*
X118947130Y-99531109D01*
X118722366Y-99438009D01*
X118722364Y-99438008D01*
X118717793Y-99436115D01*
X118633170Y-99415799D01*
X118476418Y-99378166D01*
X118476412Y-99378165D01*
X118471605Y-99377011D01*
X118371786Y-99369155D01*
X118284857Y-99362313D01*
X118284850Y-99362313D01*
X118282401Y-99362120D01*
X118156003Y-99362120D01*
X118153554Y-99362313D01*
X118153547Y-99362313D01*
X118066618Y-99369155D01*
X117966799Y-99377011D01*
X117961992Y-99378165D01*
X117961986Y-99378166D01*
X117805234Y-99415799D01*
X117720611Y-99436115D01*
X117716040Y-99438008D01*
X117716038Y-99438009D01*
X117491274Y-99531109D01*
X117491270Y-99531111D01*
X117486700Y-99533004D01*
X117270826Y-99665292D01*
X117078304Y-99829722D01*
X116913874Y-100022244D01*
X116781586Y-100238118D01*
X116684697Y-100472029D01*
X116683542Y-100476841D01*
X116648025Y-100624782D01*
X116625593Y-100718217D01*
X116605728Y-100970620D01*
X114731786Y-100970620D01*
X114731786Y-99012864D01*
X114733286Y-98993479D01*
X114735596Y-98978646D01*
X114735596Y-98978642D01*
X114736977Y-98969773D01*
X114734982Y-98954516D01*
X114734239Y-98929192D01*
X114734548Y-98924885D01*
X114746325Y-98760224D01*
X114748883Y-98742431D01*
X114766689Y-98660576D01*
X114790288Y-98552092D01*
X114795353Y-98534847D01*
X114863424Y-98352344D01*
X114870891Y-98335992D01*
X114905410Y-98272774D01*
X114964243Y-98165030D01*
X114973957Y-98149916D01*
X115090689Y-97993979D01*
X115102462Y-97980393D01*
X115240188Y-97842667D01*
X115253768Y-97830899D01*
X115409718Y-97714155D01*
X115424828Y-97704445D01*
X115595791Y-97611091D01*
X115612129Y-97603629D01*
X115794646Y-97535552D01*
X115811889Y-97530490D01*
X115923001Y-97506318D01*
X116002221Y-97489084D01*
X116020009Y-97486527D01*
X116068597Y-97483051D01*
X116181849Y-97474951D01*
X116200045Y-97475707D01*
X116208143Y-97475806D01*
X116217014Y-97477187D01*
X116225915Y-97476023D01*
X116225919Y-97476023D01*
X116248573Y-97473060D01*
X116264911Y-97471996D01*
X137312477Y-97471996D01*
X137380598Y-97491998D01*
G37*
G04 #@! TD.AperFunction*
M02*
