%TF.GenerationSoftware,KiCad,Pcbnew,(6.0.11)*%
%TF.CreationDate,2023-07-08T12:35:08+02:00*%
%TF.ProjectId,IO Board,494f2042-6f61-4726-942e-6b696361645f,rev?*%
%TF.SameCoordinates,Original*%
%TF.FileFunction,Drillmap*%
%TF.FilePolarity,Positive*%
%FSLAX45Y45*%
G04 Gerber Fmt 4.5, Leading zero omitted, Abs format (unit mm)*
G04 Created by KiCad (PCBNEW (6.0.11)) date 2023-07-08 12:35:08*
%MOMM*%
%LPD*%
G01*
G04 APERTURE LIST*
%ADD10C,0.200000*%
%ADD11C,0.070000*%
%ADD12C,0.100000*%
%ADD13C,0.125000*%
G04 APERTURE END LIST*
D10*
X16422330Y-9896350D02*
G75*
G03*
X16222329Y-9696350I-200000J0D01*
G01*
X11622329Y-9696349D02*
G75*
G03*
X11422329Y-9896350I1J-200001D01*
G01*
X11622329Y-13796350D02*
X16222329Y-13796350D01*
X11422330Y-13596350D02*
G75*
G03*
X11622329Y-13796350I200000J0D01*
G01*
X11422329Y-9896350D02*
X11422329Y-13596350D01*
X16222329Y-13796349D02*
G75*
G03*
X16422329Y-13596350I1J199999D01*
G01*
X16422329Y-13596350D02*
X16422329Y-9896350D01*
X16222329Y-9696350D02*
X11622329Y-9696350D01*
D11*
X11900563Y-13439105D02*
X11970563Y-13509105D01*
X11970563Y-13439105D02*
X11900563Y-13509105D01*
D10*
X11905563Y-13509105D02*
X11965563Y-13509105D01*
X11905563Y-13439105D02*
X11965563Y-13439105D01*
X11965563Y-13509105D02*
G75*
G03*
X11965563Y-13439105I0J35000D01*
G01*
X11905563Y-13439105D02*
G75*
G03*
X11905563Y-13509105I0J-35000D01*
G01*
D11*
X12400369Y-13436558D02*
X12470369Y-13506558D01*
X12470369Y-13436558D02*
X12400369Y-13506558D01*
D10*
X12405369Y-13506558D02*
X12465369Y-13506558D01*
X12405369Y-13436558D02*
X12465369Y-13436558D01*
X12465369Y-13506558D02*
G75*
G03*
X12465369Y-13436558I0J35000D01*
G01*
X12405369Y-13436558D02*
G75*
G03*
X12405369Y-13506558I0J-35000D01*
G01*
D11*
X12899538Y-13436558D02*
X12969538Y-13506558D01*
X12969538Y-13436558D02*
X12899538Y-13506558D01*
D10*
X12904538Y-13506558D02*
X12964538Y-13506558D01*
X12904538Y-13436558D02*
X12964538Y-13436558D01*
X12964538Y-13506558D02*
G75*
G03*
X12964538Y-13436558I0J35000D01*
G01*
X12904538Y-13436558D02*
G75*
G03*
X12904538Y-13506558I0J-35000D01*
G01*
D11*
X14870146Y-13436242D02*
X14940146Y-13506242D01*
X14940146Y-13436242D02*
X14870146Y-13506242D01*
D10*
X14875146Y-13506242D02*
X14935146Y-13506242D01*
X14875146Y-13436242D02*
X14935146Y-13436242D01*
X14935146Y-13506242D02*
G75*
G03*
X14935146Y-13436242I0J35000D01*
G01*
X14875146Y-13436242D02*
G75*
G03*
X14875146Y-13506242I0J-35000D01*
G01*
D11*
X15369952Y-13433695D02*
X15439952Y-13503695D01*
X15439952Y-13433695D02*
X15369952Y-13503695D01*
D10*
X15374952Y-13503695D02*
X15434952Y-13503695D01*
X15374952Y-13433695D02*
X15434952Y-13433695D01*
X15434952Y-13503695D02*
G75*
G03*
X15434952Y-13433695I0J35000D01*
G01*
X15374952Y-13433695D02*
G75*
G03*
X15374952Y-13503695I0J-35000D01*
G01*
D11*
X15869121Y-13433695D02*
X15939121Y-13503695D01*
X15939121Y-13433695D02*
X15869121Y-13503695D01*
D10*
X15874121Y-13503695D02*
X15934121Y-13503695D01*
X15874121Y-13433695D02*
X15934121Y-13433695D01*
X15934121Y-13503695D02*
G75*
G03*
X15934121Y-13433695I0J35000D01*
G01*
X15874121Y-13433695D02*
G75*
G03*
X15874121Y-13503695I0J-35000D01*
G01*
D12*
X16351720Y-11018520D02*
G75*
G03*
X16351720Y-11018520I-50000J0D01*
G01*
X16351720Y-11272520D02*
G75*
G03*
X16351720Y-11272520I-50000J0D01*
G01*
X16351720Y-11526520D02*
G75*
G03*
X16351720Y-11526520I-50000J0D01*
G01*
X16351720Y-11780520D02*
G75*
G03*
X16351720Y-11780520I-50000J0D01*
G01*
X16351720Y-12034520D02*
G75*
G03*
X16351720Y-12034520I-50000J0D01*
G01*
X16351720Y-12288520D02*
G75*
G03*
X16351720Y-12288520I-50000J0D01*
G01*
X16351720Y-12542520D02*
G75*
G03*
X16351720Y-12542520I-50000J0D01*
G01*
D13*
X13920968Y-9853004D02*
X13920968Y-9978004D01*
X13858468Y-9915504D02*
X13983468Y-9915504D01*
D10*
X13858468Y-9978004D02*
X13983468Y-9978004D01*
X13858468Y-9853004D02*
X13983468Y-9853004D01*
X13983468Y-9978004D02*
G75*
G03*
X13983468Y-9853004I0J62500D01*
G01*
X13858468Y-9853004D02*
G75*
G03*
X13858468Y-9978004I0J-62500D01*
G01*
D13*
X13920968Y-10303004D02*
X13920968Y-10428004D01*
X13858468Y-10365504D02*
X13983468Y-10365504D01*
D10*
X13858468Y-10428004D02*
X13983468Y-10428004D01*
X13858468Y-10303004D02*
X13983468Y-10303004D01*
X13983468Y-10428004D02*
G75*
G03*
X13983468Y-10303004I0J62500D01*
G01*
X13858468Y-10303004D02*
G75*
G03*
X13858468Y-10428004I0J-62500D01*
G01*
D13*
X13920968Y-10753004D02*
X13920968Y-10878004D01*
X13858468Y-10815504D02*
X13983468Y-10815504D01*
D10*
X13858468Y-10878004D02*
X13983468Y-10878004D01*
X13858468Y-10753004D02*
X13983468Y-10753004D01*
X13983468Y-10878004D02*
G75*
G03*
X13983468Y-10753004I0J62500D01*
G01*
X13858468Y-10753004D02*
G75*
G03*
X13858468Y-10878004I0J-62500D01*
G01*
X11669948Y-14116826D02*
X11669948Y-13916826D01*
X11717567Y-13916826D01*
X11746138Y-13926350D01*
X11765186Y-13945397D01*
X11774709Y-13964445D01*
X11784233Y-14002540D01*
X11784233Y-14031111D01*
X11774709Y-14069207D01*
X11765186Y-14088254D01*
X11746138Y-14107302D01*
X11717567Y-14116826D01*
X11669948Y-14116826D01*
X11869948Y-14116826D02*
X11869948Y-13983492D01*
X11869948Y-14021588D02*
X11879471Y-14002540D01*
X11888995Y-13993016D01*
X11908043Y-13983492D01*
X11927090Y-13983492D01*
X11993757Y-14116826D02*
X11993757Y-13983492D01*
X11993757Y-13916826D02*
X11984233Y-13926350D01*
X11993757Y-13935873D01*
X12003281Y-13926350D01*
X11993757Y-13916826D01*
X11993757Y-13935873D01*
X12117567Y-14116826D02*
X12098519Y-14107302D01*
X12088995Y-14088254D01*
X12088995Y-13916826D01*
X12222329Y-14116826D02*
X12203281Y-14107302D01*
X12193757Y-14088254D01*
X12193757Y-13916826D01*
X12450900Y-14116826D02*
X12450900Y-13916826D01*
X12517567Y-14059683D01*
X12584233Y-13916826D01*
X12584233Y-14116826D01*
X12765186Y-14116826D02*
X12765186Y-14012064D01*
X12755662Y-13993016D01*
X12736614Y-13983492D01*
X12698519Y-13983492D01*
X12679471Y-13993016D01*
X12765186Y-14107302D02*
X12746138Y-14116826D01*
X12698519Y-14116826D01*
X12679471Y-14107302D01*
X12669948Y-14088254D01*
X12669948Y-14069207D01*
X12679471Y-14050159D01*
X12698519Y-14040635D01*
X12746138Y-14040635D01*
X12765186Y-14031111D01*
X12860424Y-13983492D02*
X12860424Y-14183492D01*
X12860424Y-13993016D02*
X12879471Y-13983492D01*
X12917567Y-13983492D01*
X12936614Y-13993016D01*
X12946138Y-14002540D01*
X12955662Y-14021588D01*
X12955662Y-14078730D01*
X12946138Y-14097778D01*
X12936614Y-14107302D01*
X12917567Y-14116826D01*
X12879471Y-14116826D01*
X12860424Y-14107302D01*
X13041376Y-14097778D02*
X13050900Y-14107302D01*
X13041376Y-14116826D01*
X13031852Y-14107302D01*
X13041376Y-14097778D01*
X13041376Y-14116826D01*
X13041376Y-13993016D02*
X13050900Y-14002540D01*
X13041376Y-14012064D01*
X13031852Y-14002540D01*
X13041376Y-13993016D01*
X13041376Y-14012064D01*
D11*
X11342329Y-14411350D02*
X11412329Y-14481350D01*
X11412329Y-14411350D02*
X11342329Y-14481350D01*
D10*
X11708043Y-14336826D02*
X11727090Y-14336826D01*
X11746138Y-14346350D01*
X11755662Y-14355873D01*
X11765186Y-14374921D01*
X11774709Y-14413016D01*
X11774709Y-14460635D01*
X11765186Y-14498730D01*
X11755662Y-14517778D01*
X11746138Y-14527302D01*
X11727090Y-14536826D01*
X11708043Y-14536826D01*
X11688995Y-14527302D01*
X11679471Y-14517778D01*
X11669948Y-14498730D01*
X11660424Y-14460635D01*
X11660424Y-14413016D01*
X11669948Y-14374921D01*
X11679471Y-14355873D01*
X11688995Y-14346350D01*
X11708043Y-14336826D01*
X11860424Y-14517778D02*
X11869948Y-14527302D01*
X11860424Y-14536826D01*
X11850900Y-14527302D01*
X11860424Y-14517778D01*
X11860424Y-14536826D01*
X11936614Y-14336826D02*
X12069948Y-14336826D01*
X11984233Y-14536826D01*
X12184233Y-14336826D02*
X12203281Y-14336826D01*
X12222329Y-14346350D01*
X12231852Y-14355873D01*
X12241376Y-14374921D01*
X12250900Y-14413016D01*
X12250900Y-14460635D01*
X12241376Y-14498730D01*
X12231852Y-14517778D01*
X12222329Y-14527302D01*
X12203281Y-14536826D01*
X12184233Y-14536826D01*
X12165186Y-14527302D01*
X12155662Y-14517778D01*
X12146138Y-14498730D01*
X12136614Y-14460635D01*
X12136614Y-14413016D01*
X12146138Y-14374921D01*
X12155662Y-14355873D01*
X12165186Y-14346350D01*
X12184233Y-14336826D01*
X12374709Y-14336826D02*
X12393757Y-14336826D01*
X12412805Y-14346350D01*
X12422329Y-14355873D01*
X12431852Y-14374921D01*
X12441376Y-14413016D01*
X12441376Y-14460635D01*
X12431852Y-14498730D01*
X12422329Y-14517778D01*
X12412805Y-14527302D01*
X12393757Y-14536826D01*
X12374709Y-14536826D01*
X12355662Y-14527302D01*
X12346138Y-14517778D01*
X12336614Y-14498730D01*
X12327090Y-14460635D01*
X12327090Y-14413016D01*
X12336614Y-14374921D01*
X12346138Y-14355873D01*
X12355662Y-14346350D01*
X12374709Y-14336826D01*
X12527090Y-14536826D02*
X12527090Y-14403492D01*
X12527090Y-14422540D02*
X12536614Y-14413016D01*
X12555662Y-14403492D01*
X12584233Y-14403492D01*
X12603281Y-14413016D01*
X12612805Y-14432064D01*
X12612805Y-14536826D01*
X12612805Y-14432064D02*
X12622329Y-14413016D01*
X12641376Y-14403492D01*
X12669948Y-14403492D01*
X12688995Y-14413016D01*
X12698519Y-14432064D01*
X12698519Y-14536826D01*
X12793757Y-14536826D02*
X12793757Y-14403492D01*
X12793757Y-14422540D02*
X12803281Y-14413016D01*
X12822329Y-14403492D01*
X12850900Y-14403492D01*
X12869948Y-14413016D01*
X12879471Y-14432064D01*
X12879471Y-14536826D01*
X12879471Y-14432064D02*
X12888995Y-14413016D01*
X12908043Y-14403492D01*
X12936614Y-14403492D01*
X12955662Y-14413016D01*
X12965186Y-14432064D01*
X12965186Y-14536826D01*
X13355662Y-14327302D02*
X13184233Y-14584445D01*
X13612805Y-14336826D02*
X13631852Y-14336826D01*
X13650900Y-14346350D01*
X13660424Y-14355873D01*
X13669948Y-14374921D01*
X13679471Y-14413016D01*
X13679471Y-14460635D01*
X13669948Y-14498730D01*
X13660424Y-14517778D01*
X13650900Y-14527302D01*
X13631852Y-14536826D01*
X13612805Y-14536826D01*
X13593757Y-14527302D01*
X13584233Y-14517778D01*
X13574709Y-14498730D01*
X13565186Y-14460635D01*
X13565186Y-14413016D01*
X13574709Y-14374921D01*
X13584233Y-14355873D01*
X13593757Y-14346350D01*
X13612805Y-14336826D01*
X13765186Y-14517778D02*
X13774709Y-14527302D01*
X13765186Y-14536826D01*
X13755662Y-14527302D01*
X13765186Y-14517778D01*
X13765186Y-14536826D01*
X13898519Y-14336826D02*
X13917567Y-14336826D01*
X13936614Y-14346350D01*
X13946138Y-14355873D01*
X13955662Y-14374921D01*
X13965186Y-14413016D01*
X13965186Y-14460635D01*
X13955662Y-14498730D01*
X13946138Y-14517778D01*
X13936614Y-14527302D01*
X13917567Y-14536826D01*
X13898519Y-14536826D01*
X13879471Y-14527302D01*
X13869948Y-14517778D01*
X13860424Y-14498730D01*
X13850900Y-14460635D01*
X13850900Y-14413016D01*
X13860424Y-14374921D01*
X13869948Y-14355873D01*
X13879471Y-14346350D01*
X13898519Y-14336826D01*
X14041376Y-14355873D02*
X14050900Y-14346350D01*
X14069948Y-14336826D01*
X14117567Y-14336826D01*
X14136614Y-14346350D01*
X14146138Y-14355873D01*
X14155662Y-14374921D01*
X14155662Y-14393969D01*
X14146138Y-14422540D01*
X14031852Y-14536826D01*
X14155662Y-14536826D01*
X14222329Y-14336826D02*
X14355662Y-14336826D01*
X14269948Y-14536826D01*
X14517567Y-14336826D02*
X14479471Y-14336826D01*
X14460424Y-14346350D01*
X14450900Y-14355873D01*
X14431852Y-14384445D01*
X14422329Y-14422540D01*
X14422329Y-14498730D01*
X14431852Y-14517778D01*
X14441376Y-14527302D01*
X14460424Y-14536826D01*
X14498519Y-14536826D01*
X14517567Y-14527302D01*
X14527090Y-14517778D01*
X14536614Y-14498730D01*
X14536614Y-14451111D01*
X14527090Y-14432064D01*
X14517567Y-14422540D01*
X14498519Y-14413016D01*
X14460424Y-14413016D01*
X14441376Y-14422540D01*
X14431852Y-14432064D01*
X14422329Y-14451111D01*
X14612805Y-14336826D02*
X14612805Y-14374921D01*
X14688995Y-14336826D02*
X14688995Y-14374921D01*
X14984233Y-14613016D02*
X14974709Y-14603492D01*
X14955662Y-14574921D01*
X14946138Y-14555873D01*
X14936614Y-14527302D01*
X14927090Y-14479683D01*
X14927090Y-14441588D01*
X14936614Y-14393969D01*
X14946138Y-14365397D01*
X14955662Y-14346350D01*
X14974709Y-14317778D01*
X14984233Y-14308254D01*
X15098519Y-14336826D02*
X15117567Y-14336826D01*
X15136614Y-14346350D01*
X15146138Y-14355873D01*
X15155662Y-14374921D01*
X15165186Y-14413016D01*
X15165186Y-14460635D01*
X15155662Y-14498730D01*
X15146138Y-14517778D01*
X15136614Y-14527302D01*
X15117567Y-14536826D01*
X15098519Y-14536826D01*
X15079471Y-14527302D01*
X15069948Y-14517778D01*
X15060424Y-14498730D01*
X15050900Y-14460635D01*
X15050900Y-14413016D01*
X15060424Y-14374921D01*
X15069948Y-14355873D01*
X15079471Y-14346350D01*
X15098519Y-14336826D01*
X15403281Y-14536826D02*
X15403281Y-14336826D01*
X15488995Y-14536826D02*
X15488995Y-14432064D01*
X15479471Y-14413016D01*
X15460424Y-14403492D01*
X15431852Y-14403492D01*
X15412805Y-14413016D01*
X15403281Y-14422540D01*
X15612805Y-14536826D02*
X15593757Y-14527302D01*
X15584233Y-14517778D01*
X15574709Y-14498730D01*
X15574709Y-14441588D01*
X15584233Y-14422540D01*
X15593757Y-14413016D01*
X15612805Y-14403492D01*
X15641376Y-14403492D01*
X15660424Y-14413016D01*
X15669948Y-14422540D01*
X15679471Y-14441588D01*
X15679471Y-14498730D01*
X15669948Y-14517778D01*
X15660424Y-14527302D01*
X15641376Y-14536826D01*
X15612805Y-14536826D01*
X15793757Y-14536826D02*
X15774709Y-14527302D01*
X15765186Y-14508254D01*
X15765186Y-14336826D01*
X15946138Y-14527302D02*
X15927090Y-14536826D01*
X15888995Y-14536826D01*
X15869948Y-14527302D01*
X15860424Y-14508254D01*
X15860424Y-14432064D01*
X15869948Y-14413016D01*
X15888995Y-14403492D01*
X15927090Y-14403492D01*
X15946138Y-14413016D01*
X15955662Y-14432064D01*
X15955662Y-14451111D01*
X15860424Y-14470159D01*
X16031852Y-14527302D02*
X16050900Y-14536826D01*
X16088995Y-14536826D01*
X16108043Y-14527302D01*
X16117567Y-14508254D01*
X16117567Y-14498730D01*
X16108043Y-14479683D01*
X16088995Y-14470159D01*
X16060424Y-14470159D01*
X16041376Y-14460635D01*
X16031852Y-14441588D01*
X16031852Y-14432064D01*
X16041376Y-14413016D01*
X16060424Y-14403492D01*
X16088995Y-14403492D01*
X16108043Y-14413016D01*
X16355662Y-14460635D02*
X16508043Y-14460635D01*
X16431852Y-14536826D02*
X16431852Y-14384445D01*
X16841376Y-14336826D02*
X16803281Y-14336826D01*
X16784233Y-14346350D01*
X16774709Y-14355873D01*
X16755662Y-14384445D01*
X16746138Y-14422540D01*
X16746138Y-14498730D01*
X16755662Y-14517778D01*
X16765186Y-14527302D01*
X16784233Y-14536826D01*
X16822329Y-14536826D01*
X16841376Y-14527302D01*
X16850900Y-14517778D01*
X16860424Y-14498730D01*
X16860424Y-14451111D01*
X16850900Y-14432064D01*
X16841376Y-14422540D01*
X16822329Y-14413016D01*
X16784233Y-14413016D01*
X16765186Y-14422540D01*
X16755662Y-14432064D01*
X16746138Y-14451111D01*
X17088995Y-14527302D02*
X17108043Y-14536826D01*
X17146138Y-14536826D01*
X17165186Y-14527302D01*
X17174710Y-14508254D01*
X17174710Y-14498730D01*
X17165186Y-14479683D01*
X17146138Y-14470159D01*
X17117567Y-14470159D01*
X17098519Y-14460635D01*
X17088995Y-14441588D01*
X17088995Y-14432064D01*
X17098519Y-14413016D01*
X17117567Y-14403492D01*
X17146138Y-14403492D01*
X17165186Y-14413016D01*
X17288995Y-14536826D02*
X17269948Y-14527302D01*
X17260424Y-14508254D01*
X17260424Y-14336826D01*
X17393757Y-14536826D02*
X17374710Y-14527302D01*
X17365186Y-14517778D01*
X17355662Y-14498730D01*
X17355662Y-14441588D01*
X17365186Y-14422540D01*
X17374710Y-14413016D01*
X17393757Y-14403492D01*
X17422329Y-14403492D01*
X17441376Y-14413016D01*
X17450900Y-14422540D01*
X17460424Y-14441588D01*
X17460424Y-14498730D01*
X17450900Y-14517778D01*
X17441376Y-14527302D01*
X17422329Y-14536826D01*
X17393757Y-14536826D01*
X17517567Y-14403492D02*
X17593757Y-14403492D01*
X17546138Y-14336826D02*
X17546138Y-14508254D01*
X17555662Y-14527302D01*
X17574710Y-14536826D01*
X17593757Y-14536826D01*
X17650900Y-14527302D02*
X17669948Y-14536826D01*
X17708043Y-14536826D01*
X17727091Y-14527302D01*
X17736614Y-14508254D01*
X17736614Y-14498730D01*
X17727091Y-14479683D01*
X17708043Y-14470159D01*
X17679471Y-14470159D01*
X17660424Y-14460635D01*
X17650900Y-14441588D01*
X17650900Y-14432064D01*
X17660424Y-14413016D01*
X17679471Y-14403492D01*
X17708043Y-14403492D01*
X17727091Y-14413016D01*
X17803281Y-14613016D02*
X17812805Y-14603492D01*
X17831852Y-14574921D01*
X17841376Y-14555873D01*
X17850900Y-14527302D01*
X17860424Y-14479683D01*
X17860424Y-14441588D01*
X17850900Y-14393969D01*
X17841376Y-14365397D01*
X17831852Y-14346350D01*
X17812805Y-14317778D01*
X17803281Y-14308254D01*
D12*
X11412329Y-14710350D02*
G75*
G03*
X11412329Y-14710350I-50000J0D01*
G01*
D10*
X11774709Y-14800826D02*
X11660424Y-14800826D01*
X11717567Y-14800826D02*
X11717567Y-14600826D01*
X11698519Y-14629397D01*
X11679471Y-14648445D01*
X11660424Y-14657969D01*
X11860424Y-14781778D02*
X11869948Y-14791302D01*
X11860424Y-14800826D01*
X11850900Y-14791302D01*
X11860424Y-14781778D01*
X11860424Y-14800826D01*
X11993757Y-14600826D02*
X12012805Y-14600826D01*
X12031852Y-14610350D01*
X12041376Y-14619873D01*
X12050900Y-14638921D01*
X12060424Y-14677016D01*
X12060424Y-14724635D01*
X12050900Y-14762730D01*
X12041376Y-14781778D01*
X12031852Y-14791302D01*
X12012805Y-14800826D01*
X11993757Y-14800826D01*
X11974709Y-14791302D01*
X11965186Y-14781778D01*
X11955662Y-14762730D01*
X11946138Y-14724635D01*
X11946138Y-14677016D01*
X11955662Y-14638921D01*
X11965186Y-14619873D01*
X11974709Y-14610350D01*
X11993757Y-14600826D01*
X12184233Y-14600826D02*
X12203281Y-14600826D01*
X12222329Y-14610350D01*
X12231852Y-14619873D01*
X12241376Y-14638921D01*
X12250900Y-14677016D01*
X12250900Y-14724635D01*
X12241376Y-14762730D01*
X12231852Y-14781778D01*
X12222329Y-14791302D01*
X12203281Y-14800826D01*
X12184233Y-14800826D01*
X12165186Y-14791302D01*
X12155662Y-14781778D01*
X12146138Y-14762730D01*
X12136614Y-14724635D01*
X12136614Y-14677016D01*
X12146138Y-14638921D01*
X12155662Y-14619873D01*
X12165186Y-14610350D01*
X12184233Y-14600826D01*
X12374709Y-14600826D02*
X12393757Y-14600826D01*
X12412805Y-14610350D01*
X12422329Y-14619873D01*
X12431852Y-14638921D01*
X12441376Y-14677016D01*
X12441376Y-14724635D01*
X12431852Y-14762730D01*
X12422329Y-14781778D01*
X12412805Y-14791302D01*
X12393757Y-14800826D01*
X12374709Y-14800826D01*
X12355662Y-14791302D01*
X12346138Y-14781778D01*
X12336614Y-14762730D01*
X12327090Y-14724635D01*
X12327090Y-14677016D01*
X12336614Y-14638921D01*
X12346138Y-14619873D01*
X12355662Y-14610350D01*
X12374709Y-14600826D01*
X12527090Y-14800826D02*
X12527090Y-14667492D01*
X12527090Y-14686540D02*
X12536614Y-14677016D01*
X12555662Y-14667492D01*
X12584233Y-14667492D01*
X12603281Y-14677016D01*
X12612805Y-14696064D01*
X12612805Y-14800826D01*
X12612805Y-14696064D02*
X12622329Y-14677016D01*
X12641376Y-14667492D01*
X12669948Y-14667492D01*
X12688995Y-14677016D01*
X12698519Y-14696064D01*
X12698519Y-14800826D01*
X12793757Y-14800826D02*
X12793757Y-14667492D01*
X12793757Y-14686540D02*
X12803281Y-14677016D01*
X12822329Y-14667492D01*
X12850900Y-14667492D01*
X12869948Y-14677016D01*
X12879471Y-14696064D01*
X12879471Y-14800826D01*
X12879471Y-14696064D02*
X12888995Y-14677016D01*
X12908043Y-14667492D01*
X12936614Y-14667492D01*
X12955662Y-14677016D01*
X12965186Y-14696064D01*
X12965186Y-14800826D01*
X13355662Y-14591302D02*
X13184233Y-14848445D01*
X13612805Y-14600826D02*
X13631852Y-14600826D01*
X13650900Y-14610350D01*
X13660424Y-14619873D01*
X13669948Y-14638921D01*
X13679471Y-14677016D01*
X13679471Y-14724635D01*
X13669948Y-14762730D01*
X13660424Y-14781778D01*
X13650900Y-14791302D01*
X13631852Y-14800826D01*
X13612805Y-14800826D01*
X13593757Y-14791302D01*
X13584233Y-14781778D01*
X13574709Y-14762730D01*
X13565186Y-14724635D01*
X13565186Y-14677016D01*
X13574709Y-14638921D01*
X13584233Y-14619873D01*
X13593757Y-14610350D01*
X13612805Y-14600826D01*
X13765186Y-14781778D02*
X13774709Y-14791302D01*
X13765186Y-14800826D01*
X13755662Y-14791302D01*
X13765186Y-14781778D01*
X13765186Y-14800826D01*
X13898519Y-14600826D02*
X13917567Y-14600826D01*
X13936614Y-14610350D01*
X13946138Y-14619873D01*
X13955662Y-14638921D01*
X13965186Y-14677016D01*
X13965186Y-14724635D01*
X13955662Y-14762730D01*
X13946138Y-14781778D01*
X13936614Y-14791302D01*
X13917567Y-14800826D01*
X13898519Y-14800826D01*
X13879471Y-14791302D01*
X13869948Y-14781778D01*
X13860424Y-14762730D01*
X13850900Y-14724635D01*
X13850900Y-14677016D01*
X13860424Y-14638921D01*
X13869948Y-14619873D01*
X13879471Y-14610350D01*
X13898519Y-14600826D01*
X14031852Y-14600826D02*
X14155662Y-14600826D01*
X14088995Y-14677016D01*
X14117567Y-14677016D01*
X14136614Y-14686540D01*
X14146138Y-14696064D01*
X14155662Y-14715111D01*
X14155662Y-14762730D01*
X14146138Y-14781778D01*
X14136614Y-14791302D01*
X14117567Y-14800826D01*
X14060424Y-14800826D01*
X14041376Y-14791302D01*
X14031852Y-14781778D01*
X14250900Y-14800826D02*
X14288995Y-14800826D01*
X14308043Y-14791302D01*
X14317567Y-14781778D01*
X14336614Y-14753207D01*
X14346138Y-14715111D01*
X14346138Y-14638921D01*
X14336614Y-14619873D01*
X14327090Y-14610350D01*
X14308043Y-14600826D01*
X14269948Y-14600826D01*
X14250900Y-14610350D01*
X14241376Y-14619873D01*
X14231852Y-14638921D01*
X14231852Y-14686540D01*
X14241376Y-14705588D01*
X14250900Y-14715111D01*
X14269948Y-14724635D01*
X14308043Y-14724635D01*
X14327090Y-14715111D01*
X14336614Y-14705588D01*
X14346138Y-14686540D01*
X14517567Y-14667492D02*
X14517567Y-14800826D01*
X14469948Y-14591302D02*
X14422329Y-14734159D01*
X14546138Y-14734159D01*
X14612805Y-14600826D02*
X14612805Y-14638921D01*
X14688995Y-14600826D02*
X14688995Y-14638921D01*
X14984233Y-14877016D02*
X14974709Y-14867492D01*
X14955662Y-14838921D01*
X14946138Y-14819873D01*
X14936614Y-14791302D01*
X14927090Y-14743683D01*
X14927090Y-14705588D01*
X14936614Y-14657969D01*
X14946138Y-14629397D01*
X14955662Y-14610350D01*
X14974709Y-14581778D01*
X14984233Y-14572254D01*
X15041376Y-14600826D02*
X15174709Y-14600826D01*
X15088995Y-14800826D01*
X15403281Y-14800826D02*
X15403281Y-14600826D01*
X15488995Y-14800826D02*
X15488995Y-14696064D01*
X15479471Y-14677016D01*
X15460424Y-14667492D01*
X15431852Y-14667492D01*
X15412805Y-14677016D01*
X15403281Y-14686540D01*
X15612805Y-14800826D02*
X15593757Y-14791302D01*
X15584233Y-14781778D01*
X15574709Y-14762730D01*
X15574709Y-14705588D01*
X15584233Y-14686540D01*
X15593757Y-14677016D01*
X15612805Y-14667492D01*
X15641376Y-14667492D01*
X15660424Y-14677016D01*
X15669948Y-14686540D01*
X15679471Y-14705588D01*
X15679471Y-14762730D01*
X15669948Y-14781778D01*
X15660424Y-14791302D01*
X15641376Y-14800826D01*
X15612805Y-14800826D01*
X15793757Y-14800826D02*
X15774709Y-14791302D01*
X15765186Y-14772254D01*
X15765186Y-14600826D01*
X15946138Y-14791302D02*
X15927090Y-14800826D01*
X15888995Y-14800826D01*
X15869948Y-14791302D01*
X15860424Y-14772254D01*
X15860424Y-14696064D01*
X15869948Y-14677016D01*
X15888995Y-14667492D01*
X15927090Y-14667492D01*
X15946138Y-14677016D01*
X15955662Y-14696064D01*
X15955662Y-14715111D01*
X15860424Y-14734159D01*
X16031852Y-14791302D02*
X16050900Y-14800826D01*
X16088995Y-14800826D01*
X16108043Y-14791302D01*
X16117567Y-14772254D01*
X16117567Y-14762730D01*
X16108043Y-14743683D01*
X16088995Y-14734159D01*
X16060424Y-14734159D01*
X16041376Y-14724635D01*
X16031852Y-14705588D01*
X16031852Y-14696064D01*
X16041376Y-14677016D01*
X16060424Y-14667492D01*
X16088995Y-14667492D01*
X16108043Y-14677016D01*
X16184233Y-14877016D02*
X16193757Y-14867492D01*
X16212805Y-14838921D01*
X16222328Y-14819873D01*
X16231852Y-14791302D01*
X16241376Y-14743683D01*
X16241376Y-14705588D01*
X16231852Y-14657969D01*
X16222328Y-14629397D01*
X16212805Y-14610350D01*
X16193757Y-14581778D01*
X16184233Y-14572254D01*
D13*
X11349829Y-14911850D02*
X11349829Y-15036850D01*
X11287329Y-14974350D02*
X11412329Y-14974350D01*
D10*
X11774709Y-15064826D02*
X11660424Y-15064826D01*
X11717567Y-15064826D02*
X11717567Y-14864826D01*
X11698519Y-14893397D01*
X11679471Y-14912445D01*
X11660424Y-14921969D01*
X11860424Y-15045778D02*
X11869948Y-15055302D01*
X11860424Y-15064826D01*
X11850900Y-15055302D01*
X11860424Y-15045778D01*
X11860424Y-15064826D01*
X11946138Y-14883873D02*
X11955662Y-14874350D01*
X11974709Y-14864826D01*
X12022329Y-14864826D01*
X12041376Y-14874350D01*
X12050900Y-14883873D01*
X12060424Y-14902921D01*
X12060424Y-14921969D01*
X12050900Y-14950540D01*
X11936614Y-15064826D01*
X12060424Y-15064826D01*
X12241376Y-14864826D02*
X12146138Y-14864826D01*
X12136614Y-14960064D01*
X12146138Y-14950540D01*
X12165186Y-14941016D01*
X12212805Y-14941016D01*
X12231852Y-14950540D01*
X12241376Y-14960064D01*
X12250900Y-14979111D01*
X12250900Y-15026730D01*
X12241376Y-15045778D01*
X12231852Y-15055302D01*
X12212805Y-15064826D01*
X12165186Y-15064826D01*
X12146138Y-15055302D01*
X12136614Y-15045778D01*
X12374709Y-14864826D02*
X12393757Y-14864826D01*
X12412805Y-14874350D01*
X12422329Y-14883873D01*
X12431852Y-14902921D01*
X12441376Y-14941016D01*
X12441376Y-14988635D01*
X12431852Y-15026730D01*
X12422329Y-15045778D01*
X12412805Y-15055302D01*
X12393757Y-15064826D01*
X12374709Y-15064826D01*
X12355662Y-15055302D01*
X12346138Y-15045778D01*
X12336614Y-15026730D01*
X12327090Y-14988635D01*
X12327090Y-14941016D01*
X12336614Y-14902921D01*
X12346138Y-14883873D01*
X12355662Y-14874350D01*
X12374709Y-14864826D01*
X12527090Y-15064826D02*
X12527090Y-14931492D01*
X12527090Y-14950540D02*
X12536614Y-14941016D01*
X12555662Y-14931492D01*
X12584233Y-14931492D01*
X12603281Y-14941016D01*
X12612805Y-14960064D01*
X12612805Y-15064826D01*
X12612805Y-14960064D02*
X12622329Y-14941016D01*
X12641376Y-14931492D01*
X12669948Y-14931492D01*
X12688995Y-14941016D01*
X12698519Y-14960064D01*
X12698519Y-15064826D01*
X12793757Y-15064826D02*
X12793757Y-14931492D01*
X12793757Y-14950540D02*
X12803281Y-14941016D01*
X12822329Y-14931492D01*
X12850900Y-14931492D01*
X12869948Y-14941016D01*
X12879471Y-14960064D01*
X12879471Y-15064826D01*
X12879471Y-14960064D02*
X12888995Y-14941016D01*
X12908043Y-14931492D01*
X12936614Y-14931492D01*
X12955662Y-14941016D01*
X12965186Y-14960064D01*
X12965186Y-15064826D01*
X13355662Y-14855302D02*
X13184233Y-15112445D01*
X13612805Y-14864826D02*
X13631852Y-14864826D01*
X13650900Y-14874350D01*
X13660424Y-14883873D01*
X13669948Y-14902921D01*
X13679471Y-14941016D01*
X13679471Y-14988635D01*
X13669948Y-15026730D01*
X13660424Y-15045778D01*
X13650900Y-15055302D01*
X13631852Y-15064826D01*
X13612805Y-15064826D01*
X13593757Y-15055302D01*
X13584233Y-15045778D01*
X13574709Y-15026730D01*
X13565186Y-14988635D01*
X13565186Y-14941016D01*
X13574709Y-14902921D01*
X13584233Y-14883873D01*
X13593757Y-14874350D01*
X13612805Y-14864826D01*
X13765186Y-15045778D02*
X13774709Y-15055302D01*
X13765186Y-15064826D01*
X13755662Y-15055302D01*
X13765186Y-15045778D01*
X13765186Y-15064826D01*
X13898519Y-14864826D02*
X13917567Y-14864826D01*
X13936614Y-14874350D01*
X13946138Y-14883873D01*
X13955662Y-14902921D01*
X13965186Y-14941016D01*
X13965186Y-14988635D01*
X13955662Y-15026730D01*
X13946138Y-15045778D01*
X13936614Y-15055302D01*
X13917567Y-15064826D01*
X13898519Y-15064826D01*
X13879471Y-15055302D01*
X13869948Y-15045778D01*
X13860424Y-15026730D01*
X13850900Y-14988635D01*
X13850900Y-14941016D01*
X13860424Y-14902921D01*
X13869948Y-14883873D01*
X13879471Y-14874350D01*
X13898519Y-14864826D01*
X14136614Y-14931492D02*
X14136614Y-15064826D01*
X14088995Y-14855302D02*
X14041376Y-14998159D01*
X14165186Y-14998159D01*
X14250900Y-15064826D02*
X14288995Y-15064826D01*
X14308043Y-15055302D01*
X14317567Y-15045778D01*
X14336614Y-15017207D01*
X14346138Y-14979111D01*
X14346138Y-14902921D01*
X14336614Y-14883873D01*
X14327090Y-14874350D01*
X14308043Y-14864826D01*
X14269948Y-14864826D01*
X14250900Y-14874350D01*
X14241376Y-14883873D01*
X14231852Y-14902921D01*
X14231852Y-14950540D01*
X14241376Y-14969588D01*
X14250900Y-14979111D01*
X14269948Y-14988635D01*
X14308043Y-14988635D01*
X14327090Y-14979111D01*
X14336614Y-14969588D01*
X14346138Y-14950540D01*
X14422329Y-14883873D02*
X14431852Y-14874350D01*
X14450900Y-14864826D01*
X14498519Y-14864826D01*
X14517567Y-14874350D01*
X14527090Y-14883873D01*
X14536614Y-14902921D01*
X14536614Y-14921969D01*
X14527090Y-14950540D01*
X14412805Y-15064826D01*
X14536614Y-15064826D01*
X14612805Y-14864826D02*
X14612805Y-14902921D01*
X14688995Y-14864826D02*
X14688995Y-14902921D01*
X14984233Y-15141016D02*
X14974709Y-15131492D01*
X14955662Y-15102921D01*
X14946138Y-15083873D01*
X14936614Y-15055302D01*
X14927090Y-15007683D01*
X14927090Y-14969588D01*
X14936614Y-14921969D01*
X14946138Y-14893397D01*
X14955662Y-14874350D01*
X14974709Y-14845778D01*
X14984233Y-14836254D01*
X15098519Y-14864826D02*
X15117567Y-14864826D01*
X15136614Y-14874350D01*
X15146138Y-14883873D01*
X15155662Y-14902921D01*
X15165186Y-14941016D01*
X15165186Y-14988635D01*
X15155662Y-15026730D01*
X15146138Y-15045778D01*
X15136614Y-15055302D01*
X15117567Y-15064826D01*
X15098519Y-15064826D01*
X15079471Y-15055302D01*
X15069948Y-15045778D01*
X15060424Y-15026730D01*
X15050900Y-14988635D01*
X15050900Y-14941016D01*
X15060424Y-14902921D01*
X15069948Y-14883873D01*
X15079471Y-14874350D01*
X15098519Y-14864826D01*
X15403281Y-15064826D02*
X15403281Y-14864826D01*
X15488995Y-15064826D02*
X15488995Y-14960064D01*
X15479471Y-14941016D01*
X15460424Y-14931492D01*
X15431852Y-14931492D01*
X15412805Y-14941016D01*
X15403281Y-14950540D01*
X15612805Y-15064826D02*
X15593757Y-15055302D01*
X15584233Y-15045778D01*
X15574709Y-15026730D01*
X15574709Y-14969588D01*
X15584233Y-14950540D01*
X15593757Y-14941016D01*
X15612805Y-14931492D01*
X15641376Y-14931492D01*
X15660424Y-14941016D01*
X15669948Y-14950540D01*
X15679471Y-14969588D01*
X15679471Y-15026730D01*
X15669948Y-15045778D01*
X15660424Y-15055302D01*
X15641376Y-15064826D01*
X15612805Y-15064826D01*
X15793757Y-15064826D02*
X15774709Y-15055302D01*
X15765186Y-15036254D01*
X15765186Y-14864826D01*
X15946138Y-15055302D02*
X15927090Y-15064826D01*
X15888995Y-15064826D01*
X15869948Y-15055302D01*
X15860424Y-15036254D01*
X15860424Y-14960064D01*
X15869948Y-14941016D01*
X15888995Y-14931492D01*
X15927090Y-14931492D01*
X15946138Y-14941016D01*
X15955662Y-14960064D01*
X15955662Y-14979111D01*
X15860424Y-14998159D01*
X16031852Y-15055302D02*
X16050900Y-15064826D01*
X16088995Y-15064826D01*
X16108043Y-15055302D01*
X16117567Y-15036254D01*
X16117567Y-15026730D01*
X16108043Y-15007683D01*
X16088995Y-14998159D01*
X16060424Y-14998159D01*
X16041376Y-14988635D01*
X16031852Y-14969588D01*
X16031852Y-14960064D01*
X16041376Y-14941016D01*
X16060424Y-14931492D01*
X16088995Y-14931492D01*
X16108043Y-14941016D01*
X16355662Y-14988635D02*
X16508043Y-14988635D01*
X16431852Y-15064826D02*
X16431852Y-14912445D01*
X16736614Y-14864826D02*
X16860424Y-14864826D01*
X16793757Y-14941016D01*
X16822329Y-14941016D01*
X16841376Y-14950540D01*
X16850900Y-14960064D01*
X16860424Y-14979111D01*
X16860424Y-15026730D01*
X16850900Y-15045778D01*
X16841376Y-15055302D01*
X16822329Y-15064826D01*
X16765186Y-15064826D01*
X16746138Y-15055302D01*
X16736614Y-15045778D01*
X17088995Y-15055302D02*
X17108043Y-15064826D01*
X17146138Y-15064826D01*
X17165186Y-15055302D01*
X17174710Y-15036254D01*
X17174710Y-15026730D01*
X17165186Y-15007683D01*
X17146138Y-14998159D01*
X17117567Y-14998159D01*
X17098519Y-14988635D01*
X17088995Y-14969588D01*
X17088995Y-14960064D01*
X17098519Y-14941016D01*
X17117567Y-14931492D01*
X17146138Y-14931492D01*
X17165186Y-14941016D01*
X17288995Y-15064826D02*
X17269948Y-15055302D01*
X17260424Y-15036254D01*
X17260424Y-14864826D01*
X17393757Y-15064826D02*
X17374710Y-15055302D01*
X17365186Y-15045778D01*
X17355662Y-15026730D01*
X17355662Y-14969588D01*
X17365186Y-14950540D01*
X17374710Y-14941016D01*
X17393757Y-14931492D01*
X17422329Y-14931492D01*
X17441376Y-14941016D01*
X17450900Y-14950540D01*
X17460424Y-14969588D01*
X17460424Y-15026730D01*
X17450900Y-15045778D01*
X17441376Y-15055302D01*
X17422329Y-15064826D01*
X17393757Y-15064826D01*
X17517567Y-14931492D02*
X17593757Y-14931492D01*
X17546138Y-14864826D02*
X17546138Y-15036254D01*
X17555662Y-15055302D01*
X17574710Y-15064826D01*
X17593757Y-15064826D01*
X17650900Y-15055302D02*
X17669948Y-15064826D01*
X17708043Y-15064826D01*
X17727091Y-15055302D01*
X17736614Y-15036254D01*
X17736614Y-15026730D01*
X17727091Y-15007683D01*
X17708043Y-14998159D01*
X17679471Y-14998159D01*
X17660424Y-14988635D01*
X17650900Y-14969588D01*
X17650900Y-14960064D01*
X17660424Y-14941016D01*
X17679471Y-14931492D01*
X17708043Y-14931492D01*
X17727091Y-14941016D01*
X17803281Y-15141016D02*
X17812805Y-15131492D01*
X17831852Y-15102921D01*
X17841376Y-15083873D01*
X17850900Y-15055302D01*
X17860424Y-15007683D01*
X17860424Y-14969588D01*
X17850900Y-14921969D01*
X17841376Y-14893397D01*
X17831852Y-14874350D01*
X17812805Y-14845778D01*
X17803281Y-14836254D01*
M02*
