G04 #@! TF.GenerationSoftware,KiCad,Pcbnew,(6.0.9)*
G04 #@! TF.CreationDate,2022-11-21T10:30:20+01:00*
G04 #@! TF.ProjectId,IO Board,494f2042-6f61-4726-942e-6b696361645f,rev?*
G04 #@! TF.SameCoordinates,Original*
G04 #@! TF.FileFunction,Legend,Top*
G04 #@! TF.FilePolarity,Positive*
%FSLAX46Y46*%
G04 Gerber Fmt 4.6, Leading zero omitted, Abs format (unit mm)*
G04 Created by KiCad (PCBNEW (6.0.9)) date 2022-11-21 10:30:20*
%MOMM*%
%LPD*%
G01*
G04 APERTURE LIST*
%ADD10C,0.300000*%
%ADD11C,0.150000*%
%ADD12C,0.200000*%
%ADD13C,0.120000*%
%ADD14C,2.200000*%
%ADD15O,2.300000X1.700000*%
%ADD16O,4.000000X2.750000*%
%ADD17R,1.700000X1.700000*%
%ADD18O,1.700000X1.700000*%
G04 APERTURE END LIST*
D10*
X130278514Y-112082971D02*
X130278514Y-110582971D01*
X130635657Y-110582971D01*
X130849942Y-110654400D01*
X130992800Y-110797257D01*
X131064228Y-110940114D01*
X131135657Y-111225828D01*
X131135657Y-111440114D01*
X131064228Y-111725828D01*
X130992800Y-111868685D01*
X130849942Y-112011542D01*
X130635657Y-112082971D01*
X130278514Y-112082971D01*
X131992800Y-112082971D02*
X131849942Y-112011542D01*
X131778514Y-111940114D01*
X131707085Y-111797257D01*
X131707085Y-111368685D01*
X131778514Y-111225828D01*
X131849942Y-111154400D01*
X131992800Y-111082971D01*
X132207085Y-111082971D01*
X132349942Y-111154400D01*
X132421371Y-111225828D01*
X132492800Y-111368685D01*
X132492800Y-111797257D01*
X132421371Y-111940114D01*
X132349942Y-112011542D01*
X132207085Y-112082971D01*
X131992800Y-112082971D01*
X133135657Y-112082971D02*
X133135657Y-110582971D01*
X133778514Y-112082971D02*
X133778514Y-111297257D01*
X133707085Y-111154400D01*
X133564228Y-111082971D01*
X133349942Y-111082971D01*
X133207085Y-111154400D01*
X133135657Y-111225828D01*
X134707085Y-112082971D02*
X134564228Y-112011542D01*
X134492800Y-111868685D01*
X134492800Y-110582971D01*
X135849942Y-112011542D02*
X135707085Y-112082971D01*
X135421371Y-112082971D01*
X135278514Y-112011542D01*
X135207085Y-111868685D01*
X135207085Y-111297257D01*
X135278514Y-111154400D01*
X135421371Y-111082971D01*
X135707085Y-111082971D01*
X135849942Y-111154400D01*
X135921371Y-111297257D01*
X135921371Y-111440114D01*
X135207085Y-111582971D01*
X138564228Y-112082971D02*
X138064228Y-111368685D01*
X137707085Y-112082971D02*
X137707085Y-110582971D01*
X138278514Y-110582971D01*
X138421371Y-110654400D01*
X138492800Y-110725828D01*
X138564228Y-110868685D01*
X138564228Y-111082971D01*
X138492800Y-111225828D01*
X138421371Y-111297257D01*
X138278514Y-111368685D01*
X137707085Y-111368685D01*
X139849942Y-112082971D02*
X139849942Y-111297257D01*
X139778514Y-111154400D01*
X139635657Y-111082971D01*
X139349942Y-111082971D01*
X139207085Y-111154400D01*
X139849942Y-112011542D02*
X139707085Y-112082971D01*
X139349942Y-112082971D01*
X139207085Y-112011542D01*
X139135657Y-111868685D01*
X139135657Y-111725828D01*
X139207085Y-111582971D01*
X139349942Y-111511542D01*
X139707085Y-111511542D01*
X139849942Y-111440114D01*
X140421371Y-111082971D02*
X140778514Y-112082971D01*
X141135657Y-111082971D02*
X140778514Y-112082971D01*
X140635657Y-112440114D01*
X140564228Y-112511542D01*
X140421371Y-112582971D01*
X142707085Y-111082971D02*
X143064228Y-112082971D01*
X143421371Y-111082971D01*
X143849942Y-110582971D02*
X144778514Y-110582971D01*
X144278514Y-111154400D01*
X144492800Y-111154400D01*
X144635657Y-111225828D01*
X144707085Y-111297257D01*
X144778514Y-111440114D01*
X144778514Y-111797257D01*
X144707085Y-111940114D01*
X144635657Y-112011542D01*
X144492800Y-112082971D01*
X144064228Y-112082971D01*
X143921371Y-112011542D01*
X143849942Y-111940114D01*
X145421371Y-111940114D02*
X145492800Y-112011542D01*
X145421371Y-112082971D01*
X145349942Y-112011542D01*
X145421371Y-111940114D01*
X145421371Y-112082971D01*
X146421371Y-110582971D02*
X146564228Y-110582971D01*
X146707085Y-110654400D01*
X146778514Y-110725828D01*
X146849942Y-110868685D01*
X146921371Y-111154400D01*
X146921371Y-111511542D01*
X146849942Y-111797257D01*
X146778514Y-111940114D01*
X146707085Y-112011542D01*
X146564228Y-112082971D01*
X146421371Y-112082971D01*
X146278514Y-112011542D01*
X146207085Y-111940114D01*
X146135657Y-111797257D01*
X146064228Y-111511542D01*
X146064228Y-111154400D01*
X146135657Y-110868685D01*
X146207085Y-110725828D01*
X146278514Y-110654400D01*
X146421371Y-110582971D01*
X148207085Y-112082971D02*
X148207085Y-111297257D01*
X148135657Y-111154400D01*
X147992800Y-111082971D01*
X147707085Y-111082971D01*
X147564228Y-111154400D01*
X148207085Y-112011542D02*
X148064228Y-112082971D01*
X147707085Y-112082971D01*
X147564228Y-112011542D01*
X147492800Y-111868685D01*
X147492800Y-111725828D01*
X147564228Y-111582971D01*
X147707085Y-111511542D01*
X148064228Y-111511542D01*
X148207085Y-111440114D01*
D11*
X153295397Y-136940096D02*
X152962064Y-136463906D01*
X152723969Y-136940096D02*
X152723969Y-135940096D01*
X153104921Y-135940096D01*
X153200159Y-135987716D01*
X153247778Y-136035335D01*
X153295397Y-136130573D01*
X153295397Y-136273430D01*
X153247778Y-136368668D01*
X153200159Y-136416287D01*
X153104921Y-136463906D01*
X152723969Y-136463906D01*
X153581112Y-135940096D02*
X153914445Y-136940096D01*
X154247778Y-135940096D01*
X155104921Y-136940096D02*
X154533493Y-136940096D01*
X154819207Y-136940096D02*
X154819207Y-135940096D01*
X154723969Y-136082954D01*
X154628731Y-136178192D01*
X154533493Y-136225811D01*
X123599567Y-136968727D02*
X123266234Y-136492537D01*
X123028139Y-136968727D02*
X123028139Y-135968727D01*
X123409091Y-135968727D01*
X123504329Y-136016347D01*
X123551948Y-136063966D01*
X123599567Y-136159204D01*
X123599567Y-136302061D01*
X123551948Y-136397299D01*
X123504329Y-136444918D01*
X123409091Y-136492537D01*
X123028139Y-136492537D01*
X123885282Y-135968727D02*
X124218615Y-136968727D01*
X124551948Y-135968727D01*
X124837663Y-136063966D02*
X124885282Y-136016347D01*
X124980520Y-135968727D01*
X125218615Y-135968727D01*
X125313853Y-136016347D01*
X125361472Y-136063966D01*
X125409091Y-136159204D01*
X125409091Y-136254442D01*
X125361472Y-136397299D01*
X124790044Y-136968727D01*
X125409091Y-136968727D01*
X144727561Y-104965333D02*
X144775180Y-104822476D01*
X144775180Y-104584380D01*
X144727561Y-104489142D01*
X144679942Y-104441523D01*
X144584704Y-104393904D01*
X144489466Y-104393904D01*
X144394228Y-104441523D01*
X144346609Y-104489142D01*
X144298990Y-104584380D01*
X144251371Y-104774857D01*
X144203752Y-104870095D01*
X144156133Y-104917714D01*
X144060895Y-104965333D01*
X143965657Y-104965333D01*
X143870419Y-104917714D01*
X143822800Y-104870095D01*
X143775180Y-104774857D01*
X143775180Y-104536761D01*
X143822800Y-104393904D01*
X143775180Y-104060571D02*
X144775180Y-103822476D01*
X144060895Y-103632000D01*
X144775180Y-103441523D01*
X143775180Y-103203428D01*
X144775180Y-102298666D02*
X144775180Y-102870095D01*
X144775180Y-102584380D02*
X143775180Y-102584380D01*
X143918038Y-102679619D01*
X144013276Y-102774857D01*
X144060895Y-102870095D01*
D12*
X160650154Y-114682457D02*
X161289157Y-114289806D01*
X159847118Y-129489848D02*
X159847118Y-130139848D01*
X159947118Y-130239848D02*
X160147118Y-130239848D01*
X158247118Y-129489848D02*
X159847118Y-129489848D01*
X153247118Y-129489848D02*
X154847118Y-129489848D01*
X146805080Y-114289806D02*
X147444083Y-114682457D01*
X154847118Y-129489848D02*
X154847118Y-130139848D01*
X146005588Y-121493716D02*
X146715135Y-121250728D01*
X154847118Y-129489848D02*
X154847118Y-130139848D01*
X161647118Y-128739848D02*
X161647118Y-123409848D01*
X149847118Y-129489848D02*
X149847118Y-130139848D01*
X147307118Y-134239848D02*
X147868678Y-134242577D01*
X158247118Y-130929848D02*
X158247118Y-129989848D01*
X148247118Y-130139848D02*
X148247118Y-129489848D01*
X150787118Y-134239848D02*
X150787118Y-134159300D01*
X159547118Y-131229848D02*
X158547118Y-131229848D01*
X149547118Y-131229848D02*
X148547118Y-131229848D01*
X161647118Y-123409848D02*
X160650154Y-122797240D01*
X159947118Y-130239848D02*
X160147118Y-130239848D01*
X160787118Y-134239848D02*
X160787118Y-130096462D01*
X153247118Y-129489848D02*
X154847118Y-129489848D01*
X150787118Y-134159300D02*
X150787118Y-130239848D01*
X160787118Y-134239848D02*
X160214272Y-134242577D01*
X153247118Y-130929848D02*
X153247118Y-129989848D01*
X147307118Y-134239848D02*
X147307118Y-130096462D01*
X158247118Y-130139848D02*
X158247118Y-129489848D01*
X147444083Y-122797240D02*
X146447118Y-123409848D01*
X155787118Y-134239848D02*
X155787118Y-130239848D01*
X148247118Y-129989848D02*
X148247118Y-129489848D01*
X148247118Y-129489848D02*
X149847118Y-129489848D01*
X146447118Y-123409848D02*
X146447118Y-128739848D01*
X160650154Y-114682457D02*
X161289157Y-114289806D01*
X159847118Y-129989848D02*
X159847118Y-130929848D01*
X154847118Y-129989848D02*
X154847118Y-130929848D01*
X154547118Y-131229848D02*
X153547118Y-131229848D01*
X152307118Y-134239848D02*
X152307118Y-130239848D01*
X146715135Y-116228968D02*
X146005588Y-115985980D01*
X158247118Y-129489848D02*
X159847118Y-129489848D01*
X146447118Y-123409848D02*
X146447118Y-128739848D01*
X154847118Y-129489848D02*
X154847118Y-129989848D01*
X155787118Y-134239848D02*
X155243308Y-134242577D01*
X150787118Y-134239848D02*
X150221563Y-134242577D01*
X149947118Y-130239848D02*
X153147118Y-130239848D01*
X152307118Y-134239848D02*
X152867854Y-134242577D01*
X153247118Y-130139848D02*
X153247118Y-129489848D01*
X154947118Y-130239848D02*
X158147118Y-130239848D01*
X148247118Y-129489848D02*
X149847118Y-129489848D01*
X148247118Y-130929848D02*
X148247118Y-129989848D01*
X158247118Y-130139848D02*
X158247118Y-129489848D01*
X146005588Y-121493716D02*
X146715135Y-121250728D01*
X147947118Y-130239848D02*
X148147118Y-130239848D01*
X148247118Y-130139848D02*
X148247118Y-129489848D01*
X157307118Y-134239848D02*
X157307118Y-130239848D01*
X159847118Y-129489848D02*
X159847118Y-129989848D01*
X161379102Y-121250728D02*
X162088649Y-121493716D01*
X148247118Y-129489848D02*
X149847118Y-129489848D01*
X158247118Y-129989848D02*
X158247118Y-129489848D01*
X161379102Y-121250728D02*
X162088649Y-121493716D01*
X146805080Y-114289806D02*
X147444083Y-114682457D01*
X158247118Y-129489848D02*
X159847118Y-129489848D01*
X149847118Y-129489848D02*
X149847118Y-129989848D01*
X154947118Y-130239848D02*
X158147118Y-130239848D01*
X149847118Y-129489848D02*
X149847118Y-130139848D01*
X161647118Y-123409848D02*
X160650154Y-122797240D01*
X153247118Y-129489848D02*
X154847118Y-129489848D01*
X157307118Y-134239848D02*
X157867029Y-134242577D01*
X149947118Y-130239848D02*
X153147118Y-130239848D01*
X162088649Y-115985980D02*
X161379102Y-116228968D01*
X147444083Y-122797240D02*
X146447118Y-123409848D01*
X146715135Y-116228968D02*
X146005588Y-115985980D01*
X153247118Y-129989848D02*
X153247118Y-129489848D01*
X161647118Y-128739848D02*
X161647118Y-123409848D01*
X153247118Y-130139848D02*
X153247118Y-129489848D01*
X149847118Y-129989848D02*
X149847118Y-130929848D01*
X147947118Y-130239848D02*
X148147118Y-130239848D01*
X159847118Y-129489848D02*
X159847118Y-130139848D01*
X162088649Y-115985980D02*
X161379102Y-116228968D01*
X149547118Y-131229848D02*
G75*
G03*
X149847118Y-130929848I0J300000D01*
G01*
X149847118Y-130139848D02*
G75*
G03*
X149947118Y-130239848I100002J2D01*
G01*
X154847104Y-130139848D02*
G75*
G03*
X154947118Y-130239848I100032J32D01*
G01*
X160650154Y-122797240D02*
G75*
G03*
X161379102Y-121250728I-6602992J4057369D01*
G01*
X146005588Y-115985980D02*
G75*
G03*
X146005588Y-121493716I8041523J-2753868D01*
G01*
X153147118Y-130239848D02*
G75*
G03*
X153247118Y-130139848I1J99999D01*
G01*
X147444083Y-114682457D02*
G75*
G03*
X146715135Y-116228968I6603015J-4057382D01*
G01*
X154847104Y-130139848D02*
G75*
G03*
X154947118Y-130239848I100032J32D01*
G01*
X162088649Y-121493716D02*
G75*
G03*
X162088649Y-115985980I-8041542J2753868D01*
G01*
X158147118Y-130239798D02*
G75*
G03*
X158247118Y-130139848I18J99982D01*
G01*
X146447118Y-128739848D02*
G75*
G03*
X147947118Y-130239848I1500001J1D01*
G01*
X161289156Y-114289806D02*
G75*
G03*
X146805080Y-114289806I-7242038J-4450041D01*
G01*
X161379102Y-116228968D02*
G75*
G03*
X160650154Y-114682457I-7331963J-2510871D01*
G01*
X146005588Y-115985980D02*
G75*
G03*
X146005588Y-121493716I8041523J-2753868D01*
G01*
X158247104Y-130929848D02*
G75*
G03*
X158547118Y-131229848I300032J32D01*
G01*
X159847104Y-130139848D02*
G75*
G03*
X159947118Y-130239848I100032J32D01*
G01*
X148147118Y-130239848D02*
G75*
G03*
X148247118Y-130139848I1J99999D01*
G01*
X146715135Y-121250728D02*
G75*
G03*
X147444083Y-122797240I7331940J2510857D01*
G01*
X148247118Y-130929848D02*
G75*
G03*
X148547118Y-131229848I300000J0D01*
G01*
X149847118Y-130139848D02*
G75*
G03*
X149947118Y-130239848I100002J2D01*
G01*
X153247118Y-130929848D02*
G75*
G03*
X153547118Y-131229848I300000J0D01*
G01*
X159547118Y-131229848D02*
G75*
G03*
X159847118Y-130929848I-2J300002D01*
G01*
X147444083Y-114682457D02*
G75*
G03*
X146715135Y-116228968I6603015J-4057382D01*
G01*
X160650154Y-122797240D02*
G75*
G03*
X161379102Y-121250728I-6602992J4057369D01*
G01*
X159847104Y-130139848D02*
G75*
G03*
X159947118Y-130239848I100032J32D01*
G01*
X162088649Y-121493716D02*
G75*
G03*
X162088649Y-115985980I-8041542J2753868D01*
G01*
X160147118Y-130239848D02*
G75*
G03*
X161647118Y-128739848I-2J1500002D01*
G01*
X146715135Y-121250728D02*
G75*
G03*
X147444083Y-122797240I7331940J2510857D01*
G01*
X153147118Y-130239848D02*
G75*
G03*
X153247118Y-130139848I1J99999D01*
G01*
X158147118Y-130239798D02*
G75*
G03*
X158247118Y-130139848I18J99982D01*
G01*
X154547118Y-131229848D02*
G75*
G03*
X154847118Y-130929848I0J300000D01*
G01*
X160147118Y-130239848D02*
G75*
G03*
X161647118Y-128739848I-2J1500002D01*
G01*
X161289156Y-114289806D02*
G75*
G03*
X146805080Y-114289806I-7242038J-4450041D01*
G01*
X146447118Y-128739848D02*
G75*
G03*
X147947118Y-130239848I1500001J1D01*
G01*
X148147118Y-130239848D02*
G75*
G03*
X148247118Y-130139848I1J99999D01*
G01*
X157547118Y-118739848D02*
G75*
G03*
X157547118Y-118739848I-3500000J0D01*
G01*
X162547118Y-118739848D02*
G75*
G03*
X162547118Y-118739848I-8500000J0D01*
G01*
X117611288Y-134268479D02*
X117611288Y-130125093D01*
X128551288Y-129518479D02*
X130151288Y-129518479D01*
X118551288Y-130958479D02*
X118551288Y-130018479D01*
X128551288Y-130018479D02*
X128551288Y-129518479D01*
X121091288Y-134268479D02*
X120525733Y-134271208D01*
X131683272Y-121279359D02*
X132392819Y-121522347D01*
X120251288Y-130268479D02*
X123451288Y-130268479D01*
X117019305Y-116257599D02*
X116309758Y-116014611D01*
X131091288Y-134268479D02*
X131091288Y-130125093D01*
X130251288Y-130268479D02*
X130451288Y-130268479D01*
X130151288Y-129518479D02*
X130151288Y-130168479D01*
X125251288Y-130268479D02*
X128451288Y-130268479D01*
X131951288Y-128768479D02*
X131951288Y-123438479D01*
X118251288Y-130268479D02*
X118451288Y-130268479D01*
X118551288Y-129518479D02*
X120151288Y-129518479D01*
X122611288Y-134268479D02*
X123172024Y-134271208D01*
X118551288Y-130018479D02*
X118551288Y-129518479D01*
X129851288Y-131258479D02*
X128851288Y-131258479D01*
X130954324Y-114711088D02*
X131593327Y-114318437D01*
X120151288Y-129518479D02*
X120151288Y-130168479D01*
X131951288Y-128768479D02*
X131951288Y-123438479D01*
X132392819Y-116014611D02*
X131683272Y-116257599D01*
X123551288Y-130958479D02*
X123551288Y-130018479D01*
X120251288Y-130268479D02*
X123451288Y-130268479D01*
X130151288Y-129518479D02*
X130151288Y-130168479D01*
X126091288Y-134268479D02*
X125547478Y-134271208D01*
X128551288Y-129518479D02*
X130151288Y-129518479D01*
X128551288Y-129518479D02*
X130151288Y-129518479D01*
X117611288Y-134268479D02*
X118172848Y-134271208D01*
X118551288Y-129518479D02*
X120151288Y-129518479D01*
X116309758Y-121522347D02*
X117019305Y-121279359D01*
X119851288Y-131258479D02*
X118851288Y-131258479D01*
X125151288Y-129518479D02*
X125151288Y-130018479D01*
X131951288Y-123438479D02*
X130954324Y-122825871D01*
X123551288Y-130018479D02*
X123551288Y-129518479D01*
X128551288Y-130958479D02*
X128551288Y-130018479D01*
X125151288Y-129518479D02*
X125151288Y-130168479D01*
X130954324Y-114711088D02*
X131593327Y-114318437D01*
X130151288Y-129518479D02*
X130151288Y-130018479D01*
X123551288Y-130168479D02*
X123551288Y-129518479D01*
X130151288Y-130018479D02*
X130151288Y-130958479D01*
X120151288Y-129518479D02*
X120151288Y-130168479D01*
X116751288Y-123438479D02*
X116751288Y-128768479D01*
X120151288Y-130018479D02*
X120151288Y-130958479D01*
X126091288Y-134268479D02*
X126091288Y-130268479D01*
X116751288Y-123438479D02*
X116751288Y-128768479D01*
X118251288Y-130268479D02*
X118451288Y-130268479D01*
X117109250Y-114318437D02*
X117748253Y-114711088D01*
X123551288Y-129518479D02*
X125151288Y-129518479D01*
X121091288Y-134187931D02*
X121091288Y-130268479D01*
X123551288Y-129518479D02*
X125151288Y-129518479D01*
X122611288Y-134268479D02*
X122611288Y-130268479D01*
X123551288Y-130168479D02*
X123551288Y-129518479D01*
X125151288Y-129518479D02*
X125151288Y-130168479D01*
X125151288Y-130018479D02*
X125151288Y-130958479D01*
X118551288Y-129518479D02*
X120151288Y-129518479D01*
X128551288Y-130168479D02*
X128551288Y-129518479D01*
X117748253Y-122825871D02*
X116751288Y-123438479D01*
X118551288Y-130168479D02*
X118551288Y-129518479D01*
X127611288Y-134268479D02*
X128171199Y-134271208D01*
X130251288Y-130268479D02*
X130451288Y-130268479D01*
X127611288Y-134268479D02*
X127611288Y-130268479D01*
X116309758Y-121522347D02*
X117019305Y-121279359D01*
X117748253Y-122825871D02*
X116751288Y-123438479D01*
X124851288Y-131258479D02*
X123851288Y-131258479D01*
X117019305Y-116257599D02*
X116309758Y-116014611D01*
X123551288Y-129518479D02*
X125151288Y-129518479D01*
X131683272Y-121279359D02*
X132392819Y-121522347D01*
X117109250Y-114318437D02*
X117748253Y-114711088D01*
X125251288Y-130268479D02*
X128451288Y-130268479D01*
X120151288Y-129518479D02*
X120151288Y-130018479D01*
X128551288Y-130168479D02*
X128551288Y-129518479D01*
X132392819Y-116014611D02*
X131683272Y-116257599D01*
X118551288Y-130168479D02*
X118551288Y-129518479D01*
X121091288Y-134268479D02*
X121091288Y-134187931D01*
X131091288Y-134268479D02*
X130518442Y-134271208D01*
X131951288Y-123438479D02*
X130954324Y-122825871D01*
X120151288Y-130168479D02*
G75*
G03*
X120251288Y-130268479I100002J2D01*
G01*
X130451288Y-130268479D02*
G75*
G03*
X131951288Y-128768479I-2J1500002D01*
G01*
X131683272Y-116257599D02*
G75*
G03*
X130954324Y-114711088I-7331963J-2510871D01*
G01*
X129851288Y-131258479D02*
G75*
G03*
X130151288Y-130958479I-2J300002D01*
G01*
X125151274Y-130168479D02*
G75*
G03*
X125251288Y-130268479I100032J32D01*
G01*
X118451288Y-130268479D02*
G75*
G03*
X118551288Y-130168479I1J99999D01*
G01*
X116751288Y-128768479D02*
G75*
G03*
X118251288Y-130268479I1500001J1D01*
G01*
X117748253Y-114711088D02*
G75*
G03*
X117019305Y-116257599I6603015J-4057382D01*
G01*
X118451288Y-130268479D02*
G75*
G03*
X118551288Y-130168479I1J99999D01*
G01*
X132392819Y-121522347D02*
G75*
G03*
X132392819Y-116014611I-8041542J2753868D01*
G01*
X117748253Y-114711088D02*
G75*
G03*
X117019305Y-116257599I6603015J-4057382D01*
G01*
X117019305Y-121279359D02*
G75*
G03*
X117748253Y-122825871I7331940J2510857D01*
G01*
X119851288Y-131258479D02*
G75*
G03*
X120151288Y-130958479I0J300000D01*
G01*
X128551274Y-130958479D02*
G75*
G03*
X128851288Y-131258479I300032J32D01*
G01*
X130151274Y-130168479D02*
G75*
G03*
X130251288Y-130268479I100032J32D01*
G01*
X130151274Y-130168479D02*
G75*
G03*
X130251288Y-130268479I100032J32D01*
G01*
X132392819Y-121522347D02*
G75*
G03*
X132392819Y-116014611I-8041542J2753868D01*
G01*
X123551288Y-130958479D02*
G75*
G03*
X123851288Y-131258479I300000J0D01*
G01*
X116751288Y-128768479D02*
G75*
G03*
X118251288Y-130268479I1500001J1D01*
G01*
X120151288Y-130168479D02*
G75*
G03*
X120251288Y-130268479I100002J2D01*
G01*
X116309758Y-116014611D02*
G75*
G03*
X116309758Y-121522347I8041523J-2753868D01*
G01*
X130451288Y-130268479D02*
G75*
G03*
X131951288Y-128768479I-2J1500002D01*
G01*
X116309758Y-116014611D02*
G75*
G03*
X116309758Y-121522347I8041523J-2753868D01*
G01*
X128451288Y-130268429D02*
G75*
G03*
X128551288Y-130168479I18J99982D01*
G01*
X128451288Y-130268429D02*
G75*
G03*
X128551288Y-130168479I18J99982D01*
G01*
X130954324Y-122825871D02*
G75*
G03*
X131683272Y-121279359I-6602992J4057369D01*
G01*
X131593326Y-114318437D02*
G75*
G03*
X117109250Y-114318437I-7242038J-4450041D01*
G01*
X117019305Y-121279359D02*
G75*
G03*
X117748253Y-122825871I7331940J2510857D01*
G01*
X125151274Y-130168479D02*
G75*
G03*
X125251288Y-130268479I100032J32D01*
G01*
X124851288Y-131258479D02*
G75*
G03*
X125151288Y-130958479I0J300000D01*
G01*
X123451288Y-130268479D02*
G75*
G03*
X123551288Y-130168479I1J99999D01*
G01*
X123451288Y-130268479D02*
G75*
G03*
X123551288Y-130168479I1J99999D01*
G01*
X130954324Y-122825871D02*
G75*
G03*
X131683272Y-121279359I-6602992J4057369D01*
G01*
X118551288Y-130958479D02*
G75*
G03*
X118851288Y-131258479I300000J0D01*
G01*
X131593326Y-114318437D02*
G75*
G03*
X117109250Y-114318437I-7242038J-4450041D01*
G01*
X132851288Y-118768479D02*
G75*
G03*
X132851288Y-118768479I-8500000J0D01*
G01*
X127851288Y-118768479D02*
G75*
G03*
X127851288Y-118768479I-3500000J0D01*
G01*
D13*
X135209679Y-97155040D02*
X143209679Y-97155040D01*
X143209679Y-97155040D02*
X143209679Y-110155040D01*
X143209679Y-110155040D02*
X135209679Y-110155040D01*
X135209679Y-110155040D02*
X135209679Y-97155040D01*
X142209679Y-103655040D02*
G75*
G03*
X142209679Y-103655040I-3000000J0D01*
G01*
%LPC*%
D14*
X118219202Y-100970620D03*
D15*
X159041209Y-134686948D03*
X154049520Y-134686948D03*
X149051463Y-134712416D03*
X129345379Y-134715579D03*
X124353690Y-134715579D03*
X119355633Y-134741047D03*
D16*
X139209679Y-108155040D03*
X139209679Y-103655040D03*
X139209679Y-99155040D03*
D17*
X163017200Y-125425200D03*
D18*
X163017200Y-122885200D03*
X163017200Y-120345200D03*
X163017200Y-117805200D03*
X163017200Y-115265200D03*
X163017200Y-112725200D03*
X163017200Y-110185200D03*
M02*
