G04 #@! TF.GenerationSoftware,KiCad,Pcbnew,(6.0.9)*
G04 #@! TF.CreationDate,2022-11-21T10:30:20+01:00*
G04 #@! TF.ProjectId,IO Board,494f2042-6f61-4726-942e-6b696361645f,rev?*
G04 #@! TF.SameCoordinates,Original*
G04 #@! TF.FileFunction,Copper,L2,Bot*
G04 #@! TF.FilePolarity,Positive*
%FSLAX46Y46*%
G04 Gerber Fmt 4.6, Leading zero omitted, Abs format (unit mm)*
G04 Created by KiCad (PCBNEW (6.0.9)) date 2022-11-21 10:30:20*
%MOMM*%
%LPD*%
G01*
G04 APERTURE LIST*
G04 #@! TA.AperFunction,ComponentPad*
%ADD10O,2.300000X1.700000*%
G04 #@! TD*
G04 #@! TA.AperFunction,ComponentPad*
%ADD11O,4.000000X2.750000*%
G04 #@! TD*
G04 #@! TA.AperFunction,ComponentPad*
%ADD12R,1.700000X1.700000*%
G04 #@! TD*
G04 #@! TA.AperFunction,ComponentPad*
%ADD13O,1.700000X1.700000*%
G04 #@! TD*
G04 #@! TA.AperFunction,Conductor*
%ADD14C,0.500000*%
G04 #@! TD*
G04 APERTURE END LIST*
D10*
X159041209Y-134686948D03*
X154049520Y-134686948D03*
X149051463Y-134712416D03*
X129345379Y-134715579D03*
X124353690Y-134715579D03*
X119355633Y-134741047D03*
D11*
X139209679Y-108155040D03*
X139209679Y-103655040D03*
X139209679Y-99155040D03*
D12*
X163017200Y-125425200D03*
D13*
X163017200Y-122885200D03*
X163017200Y-120345200D03*
X163017200Y-117805200D03*
X163017200Y-115265200D03*
X163017200Y-112725200D03*
X163017200Y-110185200D03*
D14*
X139209679Y-109390079D02*
X152252223Y-122432623D01*
X159476943Y-125425200D02*
X163017200Y-125425200D01*
X139209679Y-108155040D02*
X139209679Y-109390079D01*
X159476943Y-125425168D02*
G75*
G02*
X152252224Y-122432622I-43J10217268D01*
G01*
X156719912Y-121165273D02*
X139209679Y-103655040D01*
X163017200Y-122885200D02*
X160872184Y-122885200D01*
X156719920Y-121165265D02*
G75*
G03*
X160872184Y-122885200I4152280J4152265D01*
G01*
G04 #@! TA.AperFunction,NonConductor*
G36*
X141733173Y-107269440D02*
G01*
X141781539Y-107299581D01*
X156139617Y-121657659D01*
X156151150Y-121670925D01*
X156165317Y-121689725D01*
X156168074Y-121692560D01*
X156168079Y-121692566D01*
X156172929Y-121697553D01*
X156180177Y-121705006D01*
X156183277Y-121707481D01*
X156184493Y-121708584D01*
X156189667Y-121713047D01*
X156527237Y-122027336D01*
X156528974Y-122028735D01*
X156528980Y-122028741D01*
X156649306Y-122125706D01*
X156896025Y-122324526D01*
X157285076Y-122594649D01*
X157287011Y-122595797D01*
X157690471Y-122835183D01*
X157690482Y-122835189D01*
X157692405Y-122836330D01*
X158115938Y-123048337D01*
X158117999Y-123049191D01*
X158118004Y-123049193D01*
X158551446Y-123228732D01*
X158551456Y-123228736D01*
X158553516Y-123229589D01*
X159002910Y-123379162D01*
X159005081Y-123379716D01*
X159005084Y-123379717D01*
X159065510Y-123395140D01*
X159461829Y-123496296D01*
X159464024Y-123496692D01*
X159464033Y-123496694D01*
X159925710Y-123579991D01*
X159925717Y-123579992D01*
X159927934Y-123580392D01*
X159930173Y-123580633D01*
X159930182Y-123580634D01*
X160396607Y-123630781D01*
X160396617Y-123630782D01*
X160398852Y-123631022D01*
X160834456Y-123646580D01*
X160844333Y-123647448D01*
X160846942Y-123647649D01*
X160850869Y-123648201D01*
X160860699Y-123648338D01*
X160868221Y-123648444D01*
X160868227Y-123648444D01*
X160872182Y-123648499D01*
X160907969Y-123644485D01*
X160922013Y-123643700D01*
X161819691Y-123643700D01*
X161887812Y-123663702D01*
X161916602Y-123690795D01*
X161917187Y-123690288D01*
X162063450Y-123859138D01*
X162067430Y-123862442D01*
X162072181Y-123866387D01*
X162111816Y-123925290D01*
X162113313Y-123996271D01*
X162076197Y-124056793D01*
X162035924Y-124081312D01*
X161920495Y-124124585D01*
X161803939Y-124211939D01*
X161716585Y-124328495D01*
X161665455Y-124464884D01*
X161658700Y-124527066D01*
X161658700Y-124540700D01*
X161638698Y-124608821D01*
X161585042Y-124655314D01*
X161532700Y-124666700D01*
X159532931Y-124666700D01*
X159517140Y-124665707D01*
X159516016Y-124665565D01*
X159487597Y-124661975D01*
X159456534Y-124665021D01*
X159440440Y-124665565D01*
X159113320Y-124655682D01*
X158909621Y-124649527D01*
X158902043Y-124649069D01*
X158569563Y-124618857D01*
X158340609Y-124598053D01*
X158333053Y-124597136D01*
X157895104Y-124530483D01*
X157775705Y-124512311D01*
X157768228Y-124510941D01*
X157519200Y-124457485D01*
X157217018Y-124392619D01*
X157209629Y-124390797D01*
X156666592Y-124239417D01*
X156659332Y-124237155D01*
X156440950Y-124161797D01*
X156126409Y-124053256D01*
X156119292Y-124050557D01*
X155598441Y-123834816D01*
X155591501Y-123831692D01*
X155084650Y-123584908D01*
X155077910Y-123581371D01*
X154586869Y-123304426D01*
X154580356Y-123300489D01*
X154106928Y-122994397D01*
X154100664Y-122990073D01*
X153646587Y-122655958D01*
X153640596Y-122651264D01*
X153207534Y-122290355D01*
X153201836Y-122285308D01*
X153015977Y-122110353D01*
X152823975Y-121929614D01*
X152810781Y-121915096D01*
X152803758Y-121906042D01*
X152803754Y-121906038D01*
X152799439Y-121900475D01*
X152766780Y-121873649D01*
X152757660Y-121865379D01*
X140831838Y-109939557D01*
X140797812Y-109877245D01*
X140802877Y-109806430D01*
X140845424Y-109749594D01*
X140859744Y-109740317D01*
X140864775Y-109737522D01*
X140864778Y-109737520D01*
X140868773Y-109735301D01*
X141086062Y-109569471D01*
X141277137Y-109374011D01*
X141311109Y-109327338D01*
X141435308Y-109156707D01*
X141435311Y-109156701D01*
X141437994Y-109153016D01*
X141440116Y-109148983D01*
X141440119Y-109148978D01*
X141563139Y-108915155D01*
X141563139Y-108915154D01*
X141565265Y-108911114D01*
X141656282Y-108653374D01*
X141692427Y-108469989D01*
X141708259Y-108389667D01*
X141708260Y-108389661D01*
X141709140Y-108385195D01*
X141718465Y-108197886D01*
X141722504Y-108116763D01*
X141722504Y-108116757D01*
X141722731Y-108112194D01*
X141696770Y-107840091D01*
X141631801Y-107574585D01*
X141575660Y-107435978D01*
X141568626Y-107365331D01*
X141600903Y-107302095D01*
X141662244Y-107266349D01*
X141733173Y-107269440D01*
G37*
G04 #@! TD.AperFunction*
G04 #@! TA.AperFunction,NonConductor*
G36*
X137380598Y-97491998D02*
G01*
X137427091Y-97545654D01*
X137437195Y-97615928D01*
X137407701Y-97680508D01*
X137388920Y-97698158D01*
X137333296Y-97740609D01*
X137142221Y-97936069D01*
X137139534Y-97939761D01*
X137139532Y-97939763D01*
X136984050Y-98153373D01*
X136984047Y-98153379D01*
X136981364Y-98157064D01*
X136979242Y-98161097D01*
X136979239Y-98161102D01*
X136883063Y-98343903D01*
X136854093Y-98398966D01*
X136763076Y-98656706D01*
X136762196Y-98661172D01*
X136726034Y-98844643D01*
X136710218Y-98924885D01*
X136709991Y-98929438D01*
X136709991Y-98929441D01*
X136700666Y-99116763D01*
X136696627Y-99197886D01*
X136722588Y-99469989D01*
X136723673Y-99474423D01*
X136723674Y-99474429D01*
X136770378Y-99665292D01*
X136787557Y-99735495D01*
X136789269Y-99739721D01*
X136789270Y-99739725D01*
X136858690Y-99911114D01*
X136890172Y-99988841D01*
X136892476Y-99992776D01*
X136892478Y-99992780D01*
X136951594Y-100093741D01*
X137028285Y-100224720D01*
X137199002Y-100438191D01*
X137398747Y-100624782D01*
X137623335Y-100780584D01*
X137750180Y-100843688D01*
X137863975Y-100900301D01*
X137863978Y-100900302D01*
X137868062Y-100902334D01*
X138127800Y-100987480D01*
X138132291Y-100988260D01*
X138132292Y-100988260D01*
X138393329Y-101033584D01*
X138393337Y-101033585D01*
X138397110Y-101034240D01*
X138400947Y-101034431D01*
X138481912Y-101038462D01*
X138481920Y-101038462D01*
X138483483Y-101038540D01*
X139904113Y-101038540D01*
X139906381Y-101038375D01*
X139906393Y-101038375D01*
X140037952Y-101028829D01*
X140107301Y-101023797D01*
X140111756Y-101022813D01*
X140111759Y-101022813D01*
X140369752Y-100965854D01*
X140369756Y-100965853D01*
X140374212Y-100964869D01*
X140544636Y-100900301D01*
X140625551Y-100869645D01*
X140625554Y-100869644D01*
X140629821Y-100868027D01*
X140868773Y-100735301D01*
X141086062Y-100569471D01*
X141277137Y-100374011D01*
X141372721Y-100242692D01*
X141435308Y-100156707D01*
X141435311Y-100156701D01*
X141437994Y-100153016D01*
X141440116Y-100148983D01*
X141440119Y-100148978D01*
X141563139Y-99915155D01*
X141563139Y-99915154D01*
X141565265Y-99911114D01*
X141656282Y-99653374D01*
X141692427Y-99469989D01*
X141708259Y-99389667D01*
X141708260Y-99389661D01*
X141709140Y-99385195D01*
X141709490Y-99378166D01*
X141722504Y-99116763D01*
X141722504Y-99116757D01*
X141722731Y-99112194D01*
X141696770Y-98840091D01*
X141677226Y-98760219D01*
X141632886Y-98579019D01*
X141631801Y-98574585D01*
X141630088Y-98570355D01*
X141530899Y-98325467D01*
X141530896Y-98325461D01*
X141529186Y-98321239D01*
X141391073Y-98085360D01*
X141220356Y-97871889D01*
X141051510Y-97714162D01*
X141025722Y-97690072D01*
X140989596Y-97628953D01*
X140992248Y-97558006D01*
X141032836Y-97499756D01*
X141098474Y-97472696D01*
X141111734Y-97471996D01*
X162173923Y-97471996D01*
X162193308Y-97473496D01*
X162208141Y-97475806D01*
X162208145Y-97475806D01*
X162217014Y-97477187D01*
X162232270Y-97475192D01*
X162257592Y-97474449D01*
X162426564Y-97486533D01*
X162444355Y-97489091D01*
X162634697Y-97530496D01*
X162651936Y-97535558D01*
X162712124Y-97558006D01*
X162834442Y-97603628D01*
X162850795Y-97611096D01*
X163021753Y-97704445D01*
X163036876Y-97714164D01*
X163192807Y-97830891D01*
X163206394Y-97842664D01*
X163344125Y-97980394D01*
X163355898Y-97993980D01*
X163472632Y-98149916D01*
X163482351Y-98165040D01*
X163575698Y-98335990D01*
X163583167Y-98352344D01*
X163651238Y-98534851D01*
X163656302Y-98552099D01*
X163661194Y-98574585D01*
X163679059Y-98656706D01*
X163697706Y-98742424D01*
X163700265Y-98760219D01*
X163711837Y-98922017D01*
X163711074Y-98940388D01*
X163710977Y-98948349D01*
X163709595Y-98957221D01*
X163710759Y-98966123D01*
X163710759Y-98966125D01*
X163713722Y-98988780D01*
X163714786Y-99005118D01*
X163714786Y-108812702D01*
X163694784Y-108880823D01*
X163641128Y-108927316D01*
X163570854Y-108937420D01*
X163546727Y-108931475D01*
X163370291Y-108868996D01*
X163370283Y-108868994D01*
X163365412Y-108867269D01*
X163360319Y-108866362D01*
X163360316Y-108866361D01*
X163150573Y-108829000D01*
X163150567Y-108828999D01*
X163145484Y-108828094D01*
X163071652Y-108827192D01*
X162927281Y-108825428D01*
X162927279Y-108825428D01*
X162922111Y-108825365D01*
X162701291Y-108859155D01*
X162488956Y-108928557D01*
X162290807Y-109031707D01*
X162286674Y-109034810D01*
X162286671Y-109034812D01*
X162134616Y-109148978D01*
X162112165Y-109165835D01*
X161957829Y-109327338D01*
X161831943Y-109511880D01*
X161737888Y-109714505D01*
X161678189Y-109929770D01*
X161654451Y-110151895D01*
X161667310Y-110374915D01*
X161668447Y-110379961D01*
X161668448Y-110379967D01*
X161692504Y-110486708D01*
X161716422Y-110592839D01*
X161800466Y-110799816D01*
X161917187Y-110990288D01*
X162063450Y-111159138D01*
X162235326Y-111301832D01*
X162305795Y-111343011D01*
X162308645Y-111344676D01*
X162357369Y-111396314D01*
X162370440Y-111466097D01*
X162343709Y-111531869D01*
X162303255Y-111565227D01*
X162290807Y-111571707D01*
X162286674Y-111574810D01*
X162286671Y-111574812D01*
X162116300Y-111702730D01*
X162112165Y-111705835D01*
X161957829Y-111867338D01*
X161831943Y-112051880D01*
X161737888Y-112254505D01*
X161678189Y-112469770D01*
X161654451Y-112691895D01*
X161667310Y-112914915D01*
X161668447Y-112919961D01*
X161668448Y-112919967D01*
X161692504Y-113026708D01*
X161716422Y-113132839D01*
X161800466Y-113339816D01*
X161917187Y-113530288D01*
X162063450Y-113699138D01*
X162235326Y-113841832D01*
X162305795Y-113883011D01*
X162308645Y-113884676D01*
X162357369Y-113936314D01*
X162370440Y-114006097D01*
X162343709Y-114071869D01*
X162303255Y-114105227D01*
X162290807Y-114111707D01*
X162286674Y-114114810D01*
X162286671Y-114114812D01*
X162116300Y-114242730D01*
X162112165Y-114245835D01*
X161957829Y-114407338D01*
X161831943Y-114591880D01*
X161737888Y-114794505D01*
X161678189Y-115009770D01*
X161654451Y-115231895D01*
X161667310Y-115454915D01*
X161668447Y-115459961D01*
X161668448Y-115459967D01*
X161692504Y-115566708D01*
X161716422Y-115672839D01*
X161800466Y-115879816D01*
X161917187Y-116070288D01*
X162063450Y-116239138D01*
X162235326Y-116381832D01*
X162305795Y-116423011D01*
X162308645Y-116424676D01*
X162357369Y-116476314D01*
X162370440Y-116546097D01*
X162343709Y-116611869D01*
X162303255Y-116645227D01*
X162290807Y-116651707D01*
X162286674Y-116654810D01*
X162286671Y-116654812D01*
X162116300Y-116782730D01*
X162112165Y-116785835D01*
X161957829Y-116947338D01*
X161831943Y-117131880D01*
X161737888Y-117334505D01*
X161678189Y-117549770D01*
X161654451Y-117771895D01*
X161667310Y-117994915D01*
X161668447Y-117999961D01*
X161668448Y-117999967D01*
X161692504Y-118106708D01*
X161716422Y-118212839D01*
X161800466Y-118419816D01*
X161917187Y-118610288D01*
X162063450Y-118779138D01*
X162235326Y-118921832D01*
X162305795Y-118963011D01*
X162308645Y-118964676D01*
X162357369Y-119016314D01*
X162370440Y-119086097D01*
X162343709Y-119151869D01*
X162303255Y-119185227D01*
X162290807Y-119191707D01*
X162286674Y-119194810D01*
X162286671Y-119194812D01*
X162116300Y-119322730D01*
X162112165Y-119325835D01*
X161957829Y-119487338D01*
X161831943Y-119671880D01*
X161737888Y-119874505D01*
X161678189Y-120089770D01*
X161654451Y-120311895D01*
X161667310Y-120534915D01*
X161668447Y-120539961D01*
X161668448Y-120539967D01*
X161681535Y-120598035D01*
X161716422Y-120752839D01*
X161800466Y-120959816D01*
X161917187Y-121150288D01*
X162063450Y-121319138D01*
X162235326Y-121461832D01*
X162305795Y-121503011D01*
X162308645Y-121504676D01*
X162357369Y-121556314D01*
X162370440Y-121626097D01*
X162343709Y-121691869D01*
X162303255Y-121725227D01*
X162290807Y-121731707D01*
X162286674Y-121734810D01*
X162286671Y-121734812D01*
X162116300Y-121862730D01*
X162112165Y-121865835D01*
X161957829Y-122027338D01*
X161927563Y-122071707D01*
X161872655Y-122116707D01*
X161823477Y-122126700D01*
X160928169Y-122126700D01*
X160912377Y-122125706D01*
X160909226Y-122125308D01*
X160882843Y-122121975D01*
X160875835Y-122122662D01*
X160875824Y-122122662D01*
X160853997Y-122124803D01*
X160836760Y-122125308D01*
X160665815Y-122118591D01*
X160475920Y-122111129D01*
X160466057Y-122110353D01*
X160271599Y-122087338D01*
X160077129Y-122064320D01*
X160067382Y-122062776D01*
X159683262Y-121986368D01*
X159673655Y-121984062D01*
X159456698Y-121922873D01*
X159296735Y-121877758D01*
X159287326Y-121874701D01*
X158919905Y-121739151D01*
X158910765Y-121735365D01*
X158654005Y-121616997D01*
X158555109Y-121571405D01*
X158546306Y-121566919D01*
X158204605Y-121375556D01*
X158196174Y-121370390D01*
X158113623Y-121315231D01*
X157870545Y-121152811D01*
X157862556Y-121147007D01*
X157554993Y-120904543D01*
X157547470Y-120898117D01*
X157395488Y-120757625D01*
X157290795Y-120660847D01*
X157276766Y-120645551D01*
X157271444Y-120638690D01*
X157267130Y-120633128D01*
X157234474Y-120606304D01*
X157225355Y-120598035D01*
X141447742Y-104820422D01*
X141413716Y-104758110D01*
X141418781Y-104687295D01*
X141433074Y-104660699D01*
X141432893Y-104660586D01*
X141434660Y-104657747D01*
X141434969Y-104657172D01*
X141435306Y-104656709D01*
X141437994Y-104653016D01*
X141565265Y-104411114D01*
X141656282Y-104153374D01*
X141692427Y-103969989D01*
X141708259Y-103889667D01*
X141708260Y-103889661D01*
X141709140Y-103885195D01*
X141718465Y-103697886D01*
X141722504Y-103616763D01*
X141722504Y-103616757D01*
X141722731Y-103612194D01*
X141696770Y-103340091D01*
X141631801Y-103074585D01*
X141562411Y-102903267D01*
X141530899Y-102825467D01*
X141530896Y-102825461D01*
X141529186Y-102821239D01*
X141391073Y-102585360D01*
X141250939Y-102410131D01*
X141223208Y-102375455D01*
X141223207Y-102375453D01*
X141220356Y-102371889D01*
X141020611Y-102185298D01*
X140796023Y-102029496D01*
X140620256Y-101942053D01*
X140555383Y-101909779D01*
X140555380Y-101909778D01*
X140551296Y-101907746D01*
X140291558Y-101822600D01*
X140287066Y-101821820D01*
X140026029Y-101776496D01*
X140026021Y-101776495D01*
X140022248Y-101775840D01*
X140010917Y-101775276D01*
X139937446Y-101771618D01*
X139937438Y-101771618D01*
X139935875Y-101771540D01*
X138515245Y-101771540D01*
X138512977Y-101771705D01*
X138512965Y-101771705D01*
X138381406Y-101781251D01*
X138312057Y-101786283D01*
X138307602Y-101787267D01*
X138307599Y-101787267D01*
X138049606Y-101844226D01*
X138049602Y-101844227D01*
X138045146Y-101845211D01*
X137917342Y-101893632D01*
X137793807Y-101940435D01*
X137793804Y-101940436D01*
X137789537Y-101942053D01*
X137550585Y-102074779D01*
X137333296Y-102240609D01*
X137142221Y-102436069D01*
X137139534Y-102439761D01*
X137139532Y-102439763D01*
X136984050Y-102653373D01*
X136984047Y-102653379D01*
X136981364Y-102657064D01*
X136979242Y-102661097D01*
X136979239Y-102661102D01*
X136894987Y-102821239D01*
X136854093Y-102898966D01*
X136763076Y-103156706D01*
X136762196Y-103161172D01*
X136726034Y-103344643D01*
X136710218Y-103424885D01*
X136709991Y-103429438D01*
X136709991Y-103429441D01*
X136700666Y-103616763D01*
X136696627Y-103697886D01*
X136722588Y-103969989D01*
X136787557Y-104235495D01*
X136789269Y-104239721D01*
X136789270Y-104239725D01*
X136858690Y-104411114D01*
X136890172Y-104488841D01*
X137028285Y-104724720D01*
X137199002Y-104938191D01*
X137398747Y-105124782D01*
X137623335Y-105280584D01*
X137750180Y-105343688D01*
X137863975Y-105400301D01*
X137863978Y-105400302D01*
X137868062Y-105402334D01*
X138127800Y-105487480D01*
X138132291Y-105488260D01*
X138132292Y-105488260D01*
X138393329Y-105533584D01*
X138393337Y-105533585D01*
X138397110Y-105534240D01*
X138400947Y-105534431D01*
X138481912Y-105538462D01*
X138481920Y-105538462D01*
X138483483Y-105538540D01*
X139904113Y-105538540D01*
X139926114Y-105536944D01*
X139955158Y-105534837D01*
X140024548Y-105549858D01*
X140053370Y-105571412D01*
X140681738Y-106199780D01*
X140715764Y-106262092D01*
X140710699Y-106332907D01*
X140668152Y-106389743D01*
X140601632Y-106414554D01*
X140551688Y-106406550D01*
X140551296Y-106407746D01*
X140291558Y-106322600D01*
X140287066Y-106321820D01*
X140026029Y-106276496D01*
X140026021Y-106276495D01*
X140022248Y-106275840D01*
X140010917Y-106275276D01*
X139937446Y-106271618D01*
X139937438Y-106271618D01*
X139935875Y-106271540D01*
X138515245Y-106271540D01*
X138512977Y-106271705D01*
X138512965Y-106271705D01*
X138381406Y-106281251D01*
X138312057Y-106286283D01*
X138307602Y-106287267D01*
X138307599Y-106287267D01*
X138049606Y-106344226D01*
X138049602Y-106344227D01*
X138045146Y-106345211D01*
X137927606Y-106389743D01*
X137793807Y-106440435D01*
X137793804Y-106440436D01*
X137789537Y-106442053D01*
X137550585Y-106574779D01*
X137333296Y-106740609D01*
X137142221Y-106936069D01*
X137139534Y-106939761D01*
X137139532Y-106939763D01*
X136984050Y-107153373D01*
X136984047Y-107153379D01*
X136981364Y-107157064D01*
X136979242Y-107161097D01*
X136979239Y-107161102D01*
X136923866Y-107266349D01*
X136854093Y-107398966D01*
X136763076Y-107656706D01*
X136762196Y-107661172D01*
X136726034Y-107844643D01*
X136710218Y-107924885D01*
X136709991Y-107929438D01*
X136709991Y-107929441D01*
X136700666Y-108116763D01*
X136696627Y-108197886D01*
X136722588Y-108469989D01*
X136787557Y-108735495D01*
X136789269Y-108739721D01*
X136789270Y-108739725D01*
X136871134Y-108941838D01*
X136890172Y-108988841D01*
X137028285Y-109224720D01*
X137199002Y-109438191D01*
X137398747Y-109624782D01*
X137623335Y-109780584D01*
X137705439Y-109821430D01*
X137863975Y-109900301D01*
X137863978Y-109900302D01*
X137868062Y-109902334D01*
X138127800Y-109987480D01*
X138132291Y-109988260D01*
X138132292Y-109988260D01*
X138393329Y-110033584D01*
X138393337Y-110033585D01*
X138397110Y-110034240D01*
X138400947Y-110034431D01*
X138481912Y-110038462D01*
X138481920Y-110038462D01*
X138483483Y-110038540D01*
X138733269Y-110038540D01*
X138801390Y-110058542D01*
X138822364Y-110075445D01*
X151671934Y-122925015D01*
X151683466Y-122938280D01*
X151697631Y-122957077D01*
X151712491Y-122972359D01*
X151715587Y-122974830D01*
X151718523Y-122977493D01*
X151718482Y-122977538D01*
X151720824Y-122979576D01*
X151985273Y-123229589D01*
X152160383Y-123395140D01*
X152403053Y-123600055D01*
X152629617Y-123791370D01*
X152629631Y-123791381D01*
X152630956Y-123792500D01*
X152719503Y-123859138D01*
X153079379Y-124129971D01*
X153123069Y-124162851D01*
X153635174Y-124505026D01*
X154165659Y-124817948D01*
X154712855Y-125100634D01*
X155275040Y-125352193D01*
X155850446Y-125571835D01*
X155852120Y-125572368D01*
X155852127Y-125572371D01*
X156175053Y-125675295D01*
X156437263Y-125758867D01*
X156438977Y-125759309D01*
X156438980Y-125759310D01*
X157031936Y-125912263D01*
X157031947Y-125912265D01*
X157033643Y-125912703D01*
X157637710Y-126032857D01*
X157964416Y-126078979D01*
X158245829Y-126118707D01*
X158245832Y-126118707D01*
X158247565Y-126118952D01*
X158249309Y-126119099D01*
X158249317Y-126119100D01*
X158753959Y-126161664D01*
X158861287Y-126170716D01*
X158863059Y-126170766D01*
X158863064Y-126170766D01*
X159441378Y-126186990D01*
X159447756Y-126187521D01*
X159447769Y-126187347D01*
X159451713Y-126187650D01*
X159455633Y-126188201D01*
X159465463Y-126188338D01*
X159472985Y-126188444D01*
X159472991Y-126188444D01*
X159476946Y-126188499D01*
X159512730Y-126184485D01*
X159526776Y-126183700D01*
X161532700Y-126183700D01*
X161600821Y-126203702D01*
X161647314Y-126257358D01*
X161658700Y-126309700D01*
X161658700Y-126323334D01*
X161665455Y-126385516D01*
X161716585Y-126521905D01*
X161803939Y-126638461D01*
X161920495Y-126725815D01*
X162056884Y-126776945D01*
X162119066Y-126783700D01*
X163588786Y-126783700D01*
X163656907Y-126803702D01*
X163703400Y-126857358D01*
X163714786Y-126909700D01*
X163714786Y-135914130D01*
X163713286Y-135933515D01*
X163710976Y-135948348D01*
X163710976Y-135948352D01*
X163709595Y-135957221D01*
X163711462Y-135971497D01*
X163711590Y-135972473D01*
X163712333Y-135997799D01*
X163700249Y-136166767D01*
X163700248Y-136166775D01*
X163697690Y-136184561D01*
X163656287Y-136374889D01*
X163651224Y-136392135D01*
X163583150Y-136574649D01*
X163575684Y-136590996D01*
X163482334Y-136761953D01*
X163472615Y-136777076D01*
X163355890Y-136933002D01*
X163344117Y-136946589D01*
X163206383Y-137084322D01*
X163192796Y-137096094D01*
X163036866Y-137212822D01*
X163021746Y-137222539D01*
X162850788Y-137315887D01*
X162834436Y-137323355D01*
X162743186Y-137357389D01*
X162651931Y-137391426D01*
X162634692Y-137396487D01*
X162444353Y-137437891D01*
X162426562Y-137440449D01*
X162264641Y-137452029D01*
X162246882Y-137451291D01*
X162238443Y-137451187D01*
X162229566Y-137449805D01*
X162220663Y-137450969D01*
X162220656Y-137450969D01*
X162197996Y-137453932D01*
X162181660Y-137454996D01*
X116272656Y-137454996D01*
X116253269Y-137453496D01*
X116238437Y-137451186D01*
X116238434Y-137451186D01*
X116229566Y-137449805D01*
X116214309Y-137451800D01*
X116188989Y-137452543D01*
X116020009Y-137440455D01*
X116002226Y-137437898D01*
X115871262Y-137409408D01*
X115811892Y-137396492D01*
X115794650Y-137391430D01*
X115612135Y-137323354D01*
X115595795Y-137315891D01*
X115595788Y-137315887D01*
X115424836Y-137222539D01*
X115409726Y-137212829D01*
X115253781Y-137096089D01*
X115240202Y-137084322D01*
X115102470Y-136946589D01*
X115090697Y-136933002D01*
X114973972Y-136777073D01*
X114964253Y-136761950D01*
X114870904Y-136590994D01*
X114863436Y-136574641D01*
X114795369Y-136392144D01*
X114790304Y-136374895D01*
X114748900Y-136184561D01*
X114746342Y-136166767D01*
X114740524Y-136085418D01*
X114734759Y-136004814D01*
X114735491Y-135987214D01*
X114735596Y-135978644D01*
X114736977Y-135969773D01*
X114732850Y-135938211D01*
X114731786Y-135921876D01*
X114731786Y-134676821D01*
X117693735Y-134676821D01*
X117702384Y-134907205D01*
X117749726Y-135132838D01*
X117751684Y-135137797D01*
X117751685Y-135137799D01*
X117824904Y-135323199D01*
X117834409Y-135347268D01*
X117837176Y-135351827D01*
X117837177Y-135351830D01*
X117869688Y-135405406D01*
X117954010Y-135544364D01*
X117957507Y-135548394D01*
X118076766Y-135685828D01*
X118105110Y-135718492D01*
X118146570Y-135752487D01*
X118279260Y-135861287D01*
X118279266Y-135861291D01*
X118283388Y-135864671D01*
X118288024Y-135867310D01*
X118288027Y-135867312D01*
X118434363Y-135950611D01*
X118483747Y-135978722D01*
X118700458Y-136057384D01*
X118705707Y-136058333D01*
X118705710Y-136058334D01*
X118923241Y-136097670D01*
X118923248Y-136097671D01*
X118927325Y-136098408D01*
X118945047Y-136099244D01*
X118949989Y-136099477D01*
X118949996Y-136099477D01*
X118951477Y-136099547D01*
X119713523Y-136099547D01*
X119780442Y-136093869D01*
X119880042Y-136085418D01*
X119880046Y-136085417D01*
X119885353Y-136084967D01*
X119890508Y-136083629D01*
X119890514Y-136083628D01*
X120103336Y-136028390D01*
X120103340Y-136028389D01*
X120108505Y-136027048D01*
X120113371Y-136024856D01*
X120113374Y-136024855D01*
X120268278Y-135955076D01*
X120318708Y-135932359D01*
X120509952Y-135803606D01*
X120533526Y-135781118D01*
X120622321Y-135696411D01*
X120676768Y-135644471D01*
X120814387Y-135459505D01*
X120831362Y-135426119D01*
X120898956Y-135293169D01*
X120918873Y-135253996D01*
X120927764Y-135225365D01*
X120985657Y-135038918D01*
X120987240Y-135033820D01*
X120990359Y-135010287D01*
X121016831Y-134810558D01*
X121016831Y-134810553D01*
X121017531Y-134805273D01*
X121015699Y-134756459D01*
X121011753Y-134651353D01*
X122691792Y-134651353D01*
X122700441Y-134881737D01*
X122747783Y-135107370D01*
X122749741Y-135112329D01*
X122749742Y-135112331D01*
X122822961Y-135297731D01*
X122832466Y-135321800D01*
X122835233Y-135326359D01*
X122835234Y-135326362D01*
X122880314Y-135400651D01*
X122952067Y-135518896D01*
X122955564Y-135522926D01*
X123096923Y-135685828D01*
X123103167Y-135693024D01*
X123138358Y-135721879D01*
X123277317Y-135835819D01*
X123277323Y-135835823D01*
X123281445Y-135839203D01*
X123286081Y-135841842D01*
X123286084Y-135841844D01*
X123434707Y-135926445D01*
X123481804Y-135953254D01*
X123698515Y-136031916D01*
X123703764Y-136032865D01*
X123703767Y-136032866D01*
X123921298Y-136072202D01*
X123921305Y-136072203D01*
X123925382Y-136072940D01*
X123943104Y-136073776D01*
X123948046Y-136074009D01*
X123948053Y-136074009D01*
X123949534Y-136074079D01*
X124711580Y-136074079D01*
X124778499Y-136068401D01*
X124878099Y-136059950D01*
X124878103Y-136059949D01*
X124883410Y-136059499D01*
X124888565Y-136058161D01*
X124888571Y-136058160D01*
X125101393Y-136002922D01*
X125101397Y-136002921D01*
X125106562Y-136001580D01*
X125111428Y-135999388D01*
X125111431Y-135999387D01*
X125311892Y-135909086D01*
X125316765Y-135906891D01*
X125508009Y-135778138D01*
X125515184Y-135771294D01*
X125601459Y-135688991D01*
X125674825Y-135619003D01*
X125812444Y-135434037D01*
X125829419Y-135400651D01*
X125903981Y-135253996D01*
X125916930Y-135228528D01*
X125925821Y-135199897D01*
X125983714Y-135013450D01*
X125985297Y-135008352D01*
X125998703Y-134907205D01*
X126014888Y-134785090D01*
X126014888Y-134785085D01*
X126015588Y-134779805D01*
X126010766Y-134651353D01*
X127683481Y-134651353D01*
X127692130Y-134881737D01*
X127739472Y-135107370D01*
X127741430Y-135112329D01*
X127741431Y-135112331D01*
X127814650Y-135297731D01*
X127824155Y-135321800D01*
X127826922Y-135326359D01*
X127826923Y-135326362D01*
X127872003Y-135400651D01*
X127943756Y-135518896D01*
X127947253Y-135522926D01*
X128088612Y-135685828D01*
X128094856Y-135693024D01*
X128130047Y-135721879D01*
X128269006Y-135835819D01*
X128269012Y-135835823D01*
X128273134Y-135839203D01*
X128277770Y-135841842D01*
X128277773Y-135841844D01*
X128426396Y-135926445D01*
X128473493Y-135953254D01*
X128690204Y-136031916D01*
X128695453Y-136032865D01*
X128695456Y-136032866D01*
X128912987Y-136072202D01*
X128912994Y-136072203D01*
X128917071Y-136072940D01*
X128934793Y-136073776D01*
X128939735Y-136074009D01*
X128939742Y-136074009D01*
X128941223Y-136074079D01*
X129703269Y-136074079D01*
X129770188Y-136068401D01*
X129869788Y-136059950D01*
X129869792Y-136059949D01*
X129875099Y-136059499D01*
X129880254Y-136058161D01*
X129880260Y-136058160D01*
X130093082Y-136002922D01*
X130093086Y-136002921D01*
X130098251Y-136001580D01*
X130103117Y-135999388D01*
X130103120Y-135999387D01*
X130303581Y-135909086D01*
X130308454Y-135906891D01*
X130499698Y-135778138D01*
X130506873Y-135771294D01*
X130593148Y-135688991D01*
X130666514Y-135619003D01*
X130804133Y-135434037D01*
X130821108Y-135400651D01*
X130895670Y-135253996D01*
X130908619Y-135228528D01*
X130917510Y-135199897D01*
X130975403Y-135013450D01*
X130976986Y-135008352D01*
X130990392Y-134907205D01*
X131006577Y-134785090D01*
X131006577Y-134785085D01*
X131007277Y-134779805D01*
X131002336Y-134648190D01*
X147389565Y-134648190D01*
X147398214Y-134878574D01*
X147445556Y-135104207D01*
X147530239Y-135318637D01*
X147533006Y-135323196D01*
X147533007Y-135323199D01*
X147600945Y-135435156D01*
X147649840Y-135515733D01*
X147653337Y-135519763D01*
X147761553Y-135644471D01*
X147800940Y-135689861D01*
X147830939Y-135714459D01*
X147975090Y-135832656D01*
X147975096Y-135832660D01*
X147979218Y-135836040D01*
X147983854Y-135838679D01*
X147983857Y-135838681D01*
X148128071Y-135920772D01*
X148179577Y-135950091D01*
X148396288Y-136028753D01*
X148401537Y-136029702D01*
X148401540Y-136029703D01*
X148619071Y-136069039D01*
X148619078Y-136069040D01*
X148623155Y-136069777D01*
X148640877Y-136070613D01*
X148645819Y-136070846D01*
X148645826Y-136070846D01*
X148647307Y-136070916D01*
X149409353Y-136070916D01*
X149476272Y-136065238D01*
X149575872Y-136056787D01*
X149575876Y-136056786D01*
X149581183Y-136056336D01*
X149586338Y-136054998D01*
X149586344Y-136054997D01*
X149799166Y-135999759D01*
X149799170Y-135999758D01*
X149804335Y-135998417D01*
X149809201Y-135996225D01*
X149809204Y-135996224D01*
X149964108Y-135926445D01*
X150014538Y-135903728D01*
X150205782Y-135774975D01*
X150229356Y-135752487D01*
X150291454Y-135693248D01*
X150372598Y-135615840D01*
X150510217Y-135430874D01*
X150552725Y-135347268D01*
X150582754Y-135288204D01*
X150614703Y-135225365D01*
X150650784Y-135109168D01*
X150681487Y-135010287D01*
X150683070Y-135005189D01*
X150685770Y-134984819D01*
X150712661Y-134781927D01*
X150712661Y-134781922D01*
X150713361Y-134776642D01*
X150707583Y-134622722D01*
X152387622Y-134622722D01*
X152387822Y-134628051D01*
X152387822Y-134628053D01*
X152389653Y-134676821D01*
X152396271Y-134853106D01*
X152443613Y-135078739D01*
X152445571Y-135083698D01*
X152445572Y-135083700D01*
X152514704Y-135258751D01*
X152528296Y-135293169D01*
X152531063Y-135297728D01*
X152531064Y-135297731D01*
X152548438Y-135326362D01*
X152647897Y-135490265D01*
X152651394Y-135494295D01*
X152781710Y-135644471D01*
X152798997Y-135664393D01*
X152833915Y-135693024D01*
X152973147Y-135807188D01*
X152973153Y-135807192D01*
X152977275Y-135810572D01*
X152981911Y-135813211D01*
X152981914Y-135813213D01*
X153072313Y-135864671D01*
X153177634Y-135924623D01*
X153394345Y-136003285D01*
X153399594Y-136004234D01*
X153399597Y-136004235D01*
X153617128Y-136043571D01*
X153617135Y-136043572D01*
X153621212Y-136044309D01*
X153638934Y-136045145D01*
X153643876Y-136045378D01*
X153643883Y-136045378D01*
X153645364Y-136045448D01*
X154407410Y-136045448D01*
X154474329Y-136039770D01*
X154573929Y-136031319D01*
X154573933Y-136031318D01*
X154579240Y-136030868D01*
X154584395Y-136029530D01*
X154584401Y-136029529D01*
X154797223Y-135974291D01*
X154797227Y-135974290D01*
X154802392Y-135972949D01*
X154807258Y-135970757D01*
X154807261Y-135970756D01*
X155007722Y-135880455D01*
X155012595Y-135878260D01*
X155203839Y-135749507D01*
X155262814Y-135693248D01*
X155340642Y-135619003D01*
X155370655Y-135590372D01*
X155508274Y-135405406D01*
X155535514Y-135351830D01*
X155582837Y-135258751D01*
X155612760Y-135199897D01*
X155640933Y-135109168D01*
X155679544Y-134984819D01*
X155681127Y-134979721D01*
X155681828Y-134974432D01*
X155710718Y-134756459D01*
X155710718Y-134756454D01*
X155711418Y-134751174D01*
X155706596Y-134622722D01*
X157379311Y-134622722D01*
X157379511Y-134628051D01*
X157379511Y-134628053D01*
X157381342Y-134676821D01*
X157387960Y-134853106D01*
X157435302Y-135078739D01*
X157437260Y-135083698D01*
X157437261Y-135083700D01*
X157506393Y-135258751D01*
X157519985Y-135293169D01*
X157522752Y-135297728D01*
X157522753Y-135297731D01*
X157540127Y-135326362D01*
X157639586Y-135490265D01*
X157643083Y-135494295D01*
X157773399Y-135644471D01*
X157790686Y-135664393D01*
X157825604Y-135693024D01*
X157964836Y-135807188D01*
X157964842Y-135807192D01*
X157968964Y-135810572D01*
X157973600Y-135813211D01*
X157973603Y-135813213D01*
X158064002Y-135864671D01*
X158169323Y-135924623D01*
X158386034Y-136003285D01*
X158391283Y-136004234D01*
X158391286Y-136004235D01*
X158608817Y-136043571D01*
X158608824Y-136043572D01*
X158612901Y-136044309D01*
X158630623Y-136045145D01*
X158635565Y-136045378D01*
X158635572Y-136045378D01*
X158637053Y-136045448D01*
X159399099Y-136045448D01*
X159466018Y-136039770D01*
X159565618Y-136031319D01*
X159565622Y-136031318D01*
X159570929Y-136030868D01*
X159576084Y-136029530D01*
X159576090Y-136029529D01*
X159788912Y-135974291D01*
X159788916Y-135974290D01*
X159794081Y-135972949D01*
X159798947Y-135970757D01*
X159798950Y-135970756D01*
X159999411Y-135880455D01*
X160004284Y-135878260D01*
X160195528Y-135749507D01*
X160254503Y-135693248D01*
X160332331Y-135619003D01*
X160362344Y-135590372D01*
X160499963Y-135405406D01*
X160527203Y-135351830D01*
X160574526Y-135258751D01*
X160604449Y-135199897D01*
X160632622Y-135109168D01*
X160671233Y-134984819D01*
X160672816Y-134979721D01*
X160673517Y-134974432D01*
X160702407Y-134756459D01*
X160702407Y-134756454D01*
X160703107Y-134751174D01*
X160694458Y-134520790D01*
X160647116Y-134295157D01*
X160572491Y-134106195D01*
X160564394Y-134085692D01*
X160564393Y-134085690D01*
X160562433Y-134080727D01*
X160530040Y-134027344D01*
X160445599Y-133888191D01*
X160442832Y-133883631D01*
X160406621Y-133841901D01*
X160295232Y-133713536D01*
X160295230Y-133713534D01*
X160291732Y-133709503D01*
X160250179Y-133675432D01*
X160117582Y-133566708D01*
X160117576Y-133566704D01*
X160113454Y-133563324D01*
X160108818Y-133560685D01*
X160108815Y-133560683D01*
X159917738Y-133451916D01*
X159913095Y-133449273D01*
X159696384Y-133370611D01*
X159691135Y-133369662D01*
X159691132Y-133369661D01*
X159473601Y-133330325D01*
X159473594Y-133330324D01*
X159469517Y-133329587D01*
X159451795Y-133328751D01*
X159446853Y-133328518D01*
X159446846Y-133328518D01*
X159445365Y-133328448D01*
X158683319Y-133328448D01*
X158616400Y-133334126D01*
X158516800Y-133342577D01*
X158516796Y-133342578D01*
X158511489Y-133343028D01*
X158506334Y-133344366D01*
X158506328Y-133344367D01*
X158293506Y-133399605D01*
X158293502Y-133399606D01*
X158288337Y-133400947D01*
X158283471Y-133403139D01*
X158283468Y-133403140D01*
X158175189Y-133451916D01*
X158078134Y-133495636D01*
X157886890Y-133624389D01*
X157883033Y-133628068D01*
X157883031Y-133628070D01*
X157860193Y-133649857D01*
X157720074Y-133783524D01*
X157582455Y-133968490D01*
X157580039Y-133973241D01*
X157580037Y-133973245D01*
X157552532Y-134027344D01*
X157477969Y-134173999D01*
X157476387Y-134179093D01*
X157476386Y-134179096D01*
X157429837Y-134329007D01*
X157409602Y-134394175D01*
X157408901Y-134399464D01*
X157385651Y-134574889D01*
X157379311Y-134622722D01*
X155706596Y-134622722D01*
X155702769Y-134520790D01*
X155655427Y-134295157D01*
X155580802Y-134106195D01*
X155572705Y-134085692D01*
X155572704Y-134085690D01*
X155570744Y-134080727D01*
X155538351Y-134027344D01*
X155453910Y-133888191D01*
X155451143Y-133883631D01*
X155414932Y-133841901D01*
X155303543Y-133713536D01*
X155303541Y-133713534D01*
X155300043Y-133709503D01*
X155258490Y-133675432D01*
X155125893Y-133566708D01*
X155125887Y-133566704D01*
X155121765Y-133563324D01*
X155117129Y-133560685D01*
X155117126Y-133560683D01*
X154926049Y-133451916D01*
X154921406Y-133449273D01*
X154704695Y-133370611D01*
X154699446Y-133369662D01*
X154699443Y-133369661D01*
X154481912Y-133330325D01*
X154481905Y-133330324D01*
X154477828Y-133329587D01*
X154460106Y-133328751D01*
X154455164Y-133328518D01*
X154455157Y-133328518D01*
X154453676Y-133328448D01*
X153691630Y-133328448D01*
X153624711Y-133334126D01*
X153525111Y-133342577D01*
X153525107Y-133342578D01*
X153519800Y-133343028D01*
X153514645Y-133344366D01*
X153514639Y-133344367D01*
X153301817Y-133399605D01*
X153301813Y-133399606D01*
X153296648Y-133400947D01*
X153291782Y-133403139D01*
X153291779Y-133403140D01*
X153183500Y-133451916D01*
X153086445Y-133495636D01*
X152895201Y-133624389D01*
X152891344Y-133628068D01*
X152891342Y-133628070D01*
X152868504Y-133649857D01*
X152728385Y-133783524D01*
X152590766Y-133968490D01*
X152588350Y-133973241D01*
X152588348Y-133973245D01*
X152560843Y-134027344D01*
X152486280Y-134173999D01*
X152484698Y-134179093D01*
X152484697Y-134179096D01*
X152438148Y-134329007D01*
X152417913Y-134394175D01*
X152417212Y-134399464D01*
X152393962Y-134574889D01*
X152387622Y-134622722D01*
X150707583Y-134622722D01*
X150704712Y-134546258D01*
X150657370Y-134320625D01*
X150609522Y-134199467D01*
X150574648Y-134111160D01*
X150574647Y-134111158D01*
X150572687Y-134106195D01*
X150560246Y-134085692D01*
X150455853Y-133913659D01*
X150453086Y-133909099D01*
X150365770Y-133808476D01*
X150305486Y-133739004D01*
X150305484Y-133739002D01*
X150301986Y-133734971D01*
X150260433Y-133700900D01*
X150127836Y-133592176D01*
X150127830Y-133592172D01*
X150123708Y-133588792D01*
X150119072Y-133586153D01*
X150119069Y-133586151D01*
X149927992Y-133477384D01*
X149923349Y-133474741D01*
X149706638Y-133396079D01*
X149701389Y-133395130D01*
X149701386Y-133395129D01*
X149483855Y-133355793D01*
X149483848Y-133355792D01*
X149479771Y-133355055D01*
X149462049Y-133354219D01*
X149457107Y-133353986D01*
X149457100Y-133353986D01*
X149455619Y-133353916D01*
X148693573Y-133353916D01*
X148645171Y-133358023D01*
X148527054Y-133368045D01*
X148527050Y-133368046D01*
X148521743Y-133368496D01*
X148516588Y-133369834D01*
X148516582Y-133369835D01*
X148303760Y-133425073D01*
X148303756Y-133425074D01*
X148298591Y-133426415D01*
X148293725Y-133428607D01*
X148293722Y-133428608D01*
X148188334Y-133476082D01*
X148088388Y-133521104D01*
X147897144Y-133649857D01*
X147893287Y-133653536D01*
X147893285Y-133653538D01*
X147834619Y-133709503D01*
X147730328Y-133808992D01*
X147592709Y-133993958D01*
X147590293Y-133998709D01*
X147590291Y-133998713D01*
X147550913Y-134076165D01*
X147488223Y-134199467D01*
X147486641Y-134204561D01*
X147486640Y-134204564D01*
X147447999Y-134329007D01*
X147419856Y-134419643D01*
X147419155Y-134424932D01*
X147392234Y-134628053D01*
X147389565Y-134648190D01*
X131002336Y-134648190D01*
X130998628Y-134549421D01*
X130951286Y-134323788D01*
X130866603Y-134109358D01*
X130861916Y-134101633D01*
X130749769Y-133916822D01*
X130747002Y-133912262D01*
X130682234Y-133837623D01*
X130599402Y-133742167D01*
X130599400Y-133742165D01*
X130595902Y-133738134D01*
X130519524Y-133675508D01*
X130421752Y-133595339D01*
X130421746Y-133595335D01*
X130417624Y-133591955D01*
X130412988Y-133589316D01*
X130412985Y-133589314D01*
X130221908Y-133480547D01*
X130217265Y-133477904D01*
X130000554Y-133399242D01*
X129995305Y-133398293D01*
X129995302Y-133398292D01*
X129777771Y-133358956D01*
X129777764Y-133358955D01*
X129773687Y-133358218D01*
X129755965Y-133357382D01*
X129751023Y-133357149D01*
X129751016Y-133357149D01*
X129749535Y-133357079D01*
X128987489Y-133357079D01*
X128920570Y-133362757D01*
X128820970Y-133371208D01*
X128820966Y-133371209D01*
X128815659Y-133371659D01*
X128810504Y-133372997D01*
X128810498Y-133372998D01*
X128597676Y-133428236D01*
X128597672Y-133428237D01*
X128592507Y-133429578D01*
X128587641Y-133431770D01*
X128587638Y-133431771D01*
X128479359Y-133480547D01*
X128382304Y-133524267D01*
X128191060Y-133653020D01*
X128187203Y-133656699D01*
X128187201Y-133656701D01*
X128164363Y-133678488D01*
X128024244Y-133812155D01*
X127886625Y-133997121D01*
X127884209Y-134001872D01*
X127884207Y-134001876D01*
X127841593Y-134085692D01*
X127782139Y-134202630D01*
X127780557Y-134207724D01*
X127780556Y-134207727D01*
X127724245Y-134389077D01*
X127713772Y-134422806D01*
X127713071Y-134428095D01*
X127684601Y-134642905D01*
X127683481Y-134651353D01*
X126010766Y-134651353D01*
X126006939Y-134549421D01*
X125959597Y-134323788D01*
X125874914Y-134109358D01*
X125870227Y-134101633D01*
X125758080Y-133916822D01*
X125755313Y-133912262D01*
X125690545Y-133837623D01*
X125607713Y-133742167D01*
X125607711Y-133742165D01*
X125604213Y-133738134D01*
X125527835Y-133675508D01*
X125430063Y-133595339D01*
X125430057Y-133595335D01*
X125425935Y-133591955D01*
X125421299Y-133589316D01*
X125421296Y-133589314D01*
X125230219Y-133480547D01*
X125225576Y-133477904D01*
X125008865Y-133399242D01*
X125003616Y-133398293D01*
X125003613Y-133398292D01*
X124786082Y-133358956D01*
X124786075Y-133358955D01*
X124781998Y-133358218D01*
X124764276Y-133357382D01*
X124759334Y-133357149D01*
X124759327Y-133357149D01*
X124757846Y-133357079D01*
X123995800Y-133357079D01*
X123928881Y-133362757D01*
X123829281Y-133371208D01*
X123829277Y-133371209D01*
X123823970Y-133371659D01*
X123818815Y-133372997D01*
X123818809Y-133372998D01*
X123605987Y-133428236D01*
X123605983Y-133428237D01*
X123600818Y-133429578D01*
X123595952Y-133431770D01*
X123595949Y-133431771D01*
X123487670Y-133480547D01*
X123390615Y-133524267D01*
X123199371Y-133653020D01*
X123195514Y-133656699D01*
X123195512Y-133656701D01*
X123172674Y-133678488D01*
X123032555Y-133812155D01*
X122894936Y-133997121D01*
X122892520Y-134001872D01*
X122892518Y-134001876D01*
X122849904Y-134085692D01*
X122790450Y-134202630D01*
X122788868Y-134207724D01*
X122788867Y-134207727D01*
X122732556Y-134389077D01*
X122722083Y-134422806D01*
X122721382Y-134428095D01*
X122692912Y-134642905D01*
X122691792Y-134651353D01*
X121011753Y-134651353D01*
X121009082Y-134580220D01*
X121008882Y-134574889D01*
X120961540Y-134349256D01*
X120902385Y-134199467D01*
X120878818Y-134139791D01*
X120878817Y-134139789D01*
X120876857Y-134134826D01*
X120864416Y-134114323D01*
X120760023Y-133942290D01*
X120757256Y-133937730D01*
X120728914Y-133905069D01*
X120609656Y-133767635D01*
X120609654Y-133767633D01*
X120606156Y-133763602D01*
X120536047Y-133706116D01*
X120432006Y-133620807D01*
X120432000Y-133620803D01*
X120427878Y-133617423D01*
X120423242Y-133614784D01*
X120423239Y-133614782D01*
X120232162Y-133506015D01*
X120227519Y-133503372D01*
X120010808Y-133424710D01*
X120005559Y-133423761D01*
X120005556Y-133423760D01*
X119788025Y-133384424D01*
X119788018Y-133384423D01*
X119783941Y-133383686D01*
X119766219Y-133382850D01*
X119761277Y-133382617D01*
X119761270Y-133382617D01*
X119759789Y-133382547D01*
X118997743Y-133382547D01*
X118930824Y-133388225D01*
X118831224Y-133396676D01*
X118831220Y-133396677D01*
X118825913Y-133397127D01*
X118820758Y-133398465D01*
X118820752Y-133398466D01*
X118607930Y-133453704D01*
X118607926Y-133453705D01*
X118602761Y-133455046D01*
X118597895Y-133457238D01*
X118597892Y-133457239D01*
X118489613Y-133506015D01*
X118392558Y-133549735D01*
X118201314Y-133678488D01*
X118197457Y-133682167D01*
X118197455Y-133682169D01*
X118142105Y-133734971D01*
X118034498Y-133837623D01*
X117896879Y-134022589D01*
X117894463Y-134027340D01*
X117894461Y-134027344D01*
X117852763Y-134109358D01*
X117792393Y-134228098D01*
X117790811Y-134233192D01*
X117790810Y-134233195D01*
X117742407Y-134389077D01*
X117724026Y-134448274D01*
X117723325Y-134453563D01*
X117696404Y-134656684D01*
X117693735Y-134676821D01*
X114731786Y-134676821D01*
X114731786Y-100970620D01*
X116605728Y-100970620D01*
X116625593Y-101223023D01*
X116684697Y-101469211D01*
X116781586Y-101703122D01*
X116913874Y-101918996D01*
X117078304Y-102111518D01*
X117270826Y-102275948D01*
X117486700Y-102408236D01*
X117491270Y-102410129D01*
X117491274Y-102410131D01*
X117716038Y-102503231D01*
X117720611Y-102505125D01*
X117805234Y-102525441D01*
X117961986Y-102563074D01*
X117961992Y-102563075D01*
X117966799Y-102564229D01*
X118066618Y-102572085D01*
X118153547Y-102578927D01*
X118153554Y-102578927D01*
X118156003Y-102579120D01*
X118282401Y-102579120D01*
X118284850Y-102578927D01*
X118284857Y-102578927D01*
X118371786Y-102572085D01*
X118471605Y-102564229D01*
X118476412Y-102563075D01*
X118476418Y-102563074D01*
X118633170Y-102525441D01*
X118717793Y-102505125D01*
X118722366Y-102503231D01*
X118947130Y-102410131D01*
X118947134Y-102410129D01*
X118951704Y-102408236D01*
X119167578Y-102275948D01*
X119360100Y-102111518D01*
X119524530Y-101918996D01*
X119656818Y-101703122D01*
X119753707Y-101469211D01*
X119812811Y-101223023D01*
X119832676Y-100970620D01*
X119812811Y-100718217D01*
X119790380Y-100624782D01*
X119754862Y-100476841D01*
X119753707Y-100472029D01*
X119656818Y-100238118D01*
X119524530Y-100022244D01*
X119360100Y-99829722D01*
X119167578Y-99665292D01*
X118951704Y-99533004D01*
X118947134Y-99531111D01*
X118947130Y-99531109D01*
X118722366Y-99438009D01*
X118722364Y-99438008D01*
X118717793Y-99436115D01*
X118633170Y-99415799D01*
X118476418Y-99378166D01*
X118476412Y-99378165D01*
X118471605Y-99377011D01*
X118371786Y-99369155D01*
X118284857Y-99362313D01*
X118284850Y-99362313D01*
X118282401Y-99362120D01*
X118156003Y-99362120D01*
X118153554Y-99362313D01*
X118153547Y-99362313D01*
X118066618Y-99369155D01*
X117966799Y-99377011D01*
X117961992Y-99378165D01*
X117961986Y-99378166D01*
X117805234Y-99415799D01*
X117720611Y-99436115D01*
X117716040Y-99438008D01*
X117716038Y-99438009D01*
X117491274Y-99531109D01*
X117491270Y-99531111D01*
X117486700Y-99533004D01*
X117270826Y-99665292D01*
X117078304Y-99829722D01*
X116913874Y-100022244D01*
X116781586Y-100238118D01*
X116684697Y-100472029D01*
X116683542Y-100476841D01*
X116648025Y-100624782D01*
X116625593Y-100718217D01*
X116605728Y-100970620D01*
X114731786Y-100970620D01*
X114731786Y-99012864D01*
X114733286Y-98993479D01*
X114735596Y-98978646D01*
X114735596Y-98978642D01*
X114736977Y-98969773D01*
X114734982Y-98954516D01*
X114734239Y-98929192D01*
X114734548Y-98924885D01*
X114746325Y-98760224D01*
X114748883Y-98742431D01*
X114766689Y-98660576D01*
X114790288Y-98552092D01*
X114795353Y-98534847D01*
X114863424Y-98352344D01*
X114870891Y-98335992D01*
X114905410Y-98272774D01*
X114964243Y-98165030D01*
X114973957Y-98149916D01*
X115090689Y-97993979D01*
X115102462Y-97980393D01*
X115240188Y-97842667D01*
X115253768Y-97830899D01*
X115409718Y-97714155D01*
X115424828Y-97704445D01*
X115595791Y-97611091D01*
X115612129Y-97603629D01*
X115794646Y-97535552D01*
X115811889Y-97530490D01*
X115923001Y-97506318D01*
X116002221Y-97489084D01*
X116020009Y-97486527D01*
X116068597Y-97483051D01*
X116181849Y-97474951D01*
X116200045Y-97475707D01*
X116208143Y-97475806D01*
X116217014Y-97477187D01*
X116225915Y-97476023D01*
X116225919Y-97476023D01*
X116248573Y-97473060D01*
X116264911Y-97471996D01*
X137312477Y-97471996D01*
X137380598Y-97491998D01*
G37*
G04 #@! TD.AperFunction*
M02*
