G04 #@! TF.GenerationSoftware,KiCad,Pcbnew,(6.0.0)*
G04 #@! TF.CreationDate,2022-07-26T20:36:16+02:00*
G04 #@! TF.ProjectId,ray,7261792e-6b69-4636-9164-5f7063625858,rev?*
G04 #@! TF.SameCoordinates,Original*
G04 #@! TF.FileFunction,Legend,Bot*
G04 #@! TF.FilePolarity,Positive*
%FSLAX46Y46*%
G04 Gerber Fmt 4.6, Leading zero omitted, Abs format (unit mm)*
G04 Created by KiCad (PCBNEW (6.0.0)) date 2022-07-26 20:36:16*
%MOMM*%
%LPD*%
G01*
G04 APERTURE LIST*
G04 Aperture macros list*
%AMRoundRect*
0 Rectangle with rounded corners*
0 $1 Rounding radius*
0 $2 $3 $4 $5 $6 $7 $8 $9 X,Y pos of 4 corners*
0 Add a 4 corners polygon primitive as box body*
4,1,4,$2,$3,$4,$5,$6,$7,$8,$9,$2,$3,0*
0 Add four circle primitives for the rounded corners*
1,1,$1+$1,$2,$3*
1,1,$1+$1,$4,$5*
1,1,$1+$1,$6,$7*
1,1,$1+$1,$8,$9*
0 Add four rect primitives between the rounded corners*
20,1,$1+$1,$2,$3,$4,$5,0*
20,1,$1+$1,$4,$5,$6,$7,0*
20,1,$1+$1,$6,$7,$8,$9,0*
20,1,$1+$1,$8,$9,$2,$3,0*%
G04 Aperture macros list end*
%ADD10C,0.250000*%
%ADD11C,1.600000*%
%ADD12O,1.600000X1.600000*%
%ADD13RoundRect,0.250000X-0.350000X-0.625000X0.350000X-0.625000X0.350000X0.625000X-0.350000X0.625000X0*%
%ADD14O,1.200000X1.750000*%
%ADD15R,1.600000X1.600000*%
%ADD16C,1.440000*%
%ADD17RoundRect,0.250000X0.625000X-0.350000X0.625000X0.350000X-0.625000X0.350000X-0.625000X-0.350000X0*%
%ADD18O,1.750000X1.200000*%
%ADD19R,2.400000X1.600000*%
%ADD20O,2.400000X1.600000*%
%ADD21R,2.400000X2.400000*%
%ADD22O,2.400000X2.400000*%
%ADD23R,1.500000X1.500000*%
%ADD24O,2.743200X4.003200*%
G04 APERTURE END LIST*
G36*
X130787922Y-62066544D02*
G01*
X131184672Y-62374186D01*
X131420561Y-62902126D01*
X131428710Y-63588980D01*
X131375165Y-63822391D01*
X131086962Y-64387526D01*
X130556275Y-65053672D01*
X130160688Y-65449294D01*
X129516297Y-66114994D01*
X129205570Y-66682703D01*
X129212081Y-67260824D01*
X129519404Y-67957763D01*
X129728342Y-68302707D01*
X130281454Y-68975006D01*
X131060111Y-69672126D01*
X131943165Y-70306396D01*
X132809465Y-70790148D01*
X133494734Y-71028266D01*
X134371295Y-71133544D01*
X134986830Y-71023028D01*
X135452215Y-70644777D01*
X135878326Y-69946853D01*
X135901489Y-69900837D01*
X136316413Y-69184411D01*
X136787151Y-68534387D01*
X137073095Y-68224437D01*
X137694389Y-67821018D01*
X138320694Y-67674752D01*
X138858445Y-67773938D01*
X139214077Y-68106880D01*
X139305000Y-68503486D01*
X139151504Y-68944915D01*
X138758908Y-69489578D01*
X138229045Y-70019522D01*
X137663750Y-70416793D01*
X137644389Y-70426941D01*
X136851889Y-70974156D01*
X136375266Y-71600138D01*
X136233209Y-72246200D01*
X136444407Y-72853654D01*
X136765000Y-73188340D01*
X137195059Y-73714560D01*
X137270600Y-74261488D01*
X137029640Y-74744584D01*
X136510195Y-75079306D01*
X135867579Y-75184037D01*
X135130605Y-75331634D01*
X134652795Y-75749156D01*
X134427978Y-76398698D01*
X134449982Y-77242355D01*
X134712639Y-78242221D01*
X135209778Y-79360391D01*
X135935228Y-80558961D01*
X136882819Y-81800025D01*
X136959132Y-81889637D01*
X138511230Y-83775686D01*
X139891151Y-85606357D01*
X141085131Y-87354156D01*
X142079406Y-88991593D01*
X142860210Y-90491176D01*
X143413779Y-91825413D01*
X143726348Y-92966812D01*
X143784153Y-93887882D01*
X143573429Y-94561131D01*
X143403799Y-94761343D01*
X143026660Y-95029404D01*
X142703987Y-95029337D01*
X142351821Y-94728601D01*
X141959116Y-94201428D01*
X140856375Y-92933190D01*
X139414639Y-91812380D01*
X137683632Y-90867859D01*
X135713079Y-90128487D01*
X134326600Y-89771423D01*
X133380817Y-89589815D01*
X132450245Y-89463496D01*
X131426928Y-89383773D01*
X130202909Y-89341948D01*
X128840200Y-89329523D01*
X125385800Y-89323345D01*
X123212338Y-90076891D01*
X122000883Y-90477242D01*
X121101647Y-90718776D01*
X120454485Y-90805484D01*
X119999253Y-90741358D01*
X119675807Y-90530386D01*
X119511685Y-90322437D01*
X119191533Y-89957374D01*
X118826905Y-89852726D01*
X118344833Y-90018919D01*
X117672345Y-90466375D01*
X117479769Y-90612714D01*
X116782677Y-91113109D01*
X116063359Y-91538686D01*
X115260383Y-91911027D01*
X114312316Y-92251714D01*
X113157725Y-92582330D01*
X111735178Y-92924457D01*
X109983241Y-93299678D01*
X109619499Y-93374164D01*
X108567297Y-93606736D01*
X107567862Y-93859901D01*
X106741061Y-94101427D01*
X106245379Y-94281428D01*
X105184384Y-94884738D01*
X103937496Y-95835532D01*
X102514819Y-97125280D01*
X100926455Y-98745451D01*
X100807310Y-98873183D01*
X99944838Y-99788474D01*
X99315249Y-100422426D01*
X98885377Y-100800915D01*
X98622061Y-100949816D01*
X98492136Y-100895005D01*
X98461800Y-100703232D01*
X98594271Y-100347443D01*
X98960779Y-99756045D01*
X99514961Y-98987604D01*
X100210457Y-98100684D01*
X101000905Y-97153852D01*
X101839945Y-96205672D01*
X102681215Y-95314711D01*
X102909061Y-95085256D01*
X104028593Y-94019187D01*
X105007477Y-93220955D01*
X105951599Y-92635312D01*
X106966841Y-92207011D01*
X108159089Y-91880803D01*
X109563202Y-91613291D01*
X111176480Y-91311635D01*
X112466027Y-90992062D01*
X113514385Y-90626332D01*
X114404091Y-90186205D01*
X115129815Y-89708715D01*
X115779581Y-89135120D01*
X116190198Y-88575610D01*
X116344766Y-88090254D01*
X116226381Y-87739124D01*
X115818144Y-87582291D01*
X115728957Y-87579237D01*
X115455616Y-87524807D01*
X115251712Y-87326631D01*
X115104745Y-86932374D01*
X115002216Y-86289703D01*
X114931627Y-85346284D01*
X114880478Y-84049784D01*
X114879669Y-84023237D01*
X114837261Y-82847754D01*
X114777811Y-81951922D01*
X114679327Y-81209018D01*
X114519816Y-80492324D01*
X114277285Y-79675119D01*
X113958474Y-78715395D01*
X113015475Y-76203405D01*
X112008459Y-74059585D01*
X110916816Y-72248030D01*
X109719939Y-70732833D01*
X108911474Y-69922369D01*
X107736735Y-68957005D01*
X106576509Y-68204297D01*
X105511429Y-67712186D01*
X104937138Y-67559465D01*
X104209490Y-67348926D01*
X103867367Y-67023179D01*
X103904062Y-66573384D01*
X104023842Y-66355935D01*
X104584567Y-65861041D01*
X105470975Y-65556290D01*
X106651732Y-65437667D01*
X108095499Y-65501158D01*
X109770941Y-65742746D01*
X111646723Y-66158415D01*
X113691506Y-66744152D01*
X115873957Y-67495939D01*
X117322921Y-68060103D01*
X118364266Y-68455801D01*
X119452187Y-68823740D01*
X120425114Y-69111156D01*
X120878921Y-69221414D01*
X122200431Y-69415927D01*
X123316674Y-69411611D01*
X124193549Y-69223640D01*
X124796956Y-68867191D01*
X125092796Y-68357437D01*
X125046969Y-67709554D01*
X124927622Y-67419699D01*
X124749797Y-66961747D01*
X124807832Y-66607193D01*
X124965532Y-66337482D01*
X125356147Y-65997581D01*
X125873740Y-65831886D01*
X126358758Y-65867146D01*
X126617651Y-66060508D01*
X126898534Y-66180073D01*
X127383643Y-66154971D01*
X127907899Y-66010165D01*
X128260446Y-65812066D01*
X128450554Y-65513949D01*
X128693737Y-64943098D01*
X128939186Y-64219679D01*
X128952466Y-64175419D01*
X129219154Y-63410711D01*
X129515516Y-62758567D01*
X129777710Y-62359334D01*
X129779349Y-62357687D01*
X130297188Y-62040583D01*
X130787922Y-62066544D01*
G37*
%LPC*%
D10*
X110374400Y-56108637D02*
X111390400Y-56108637D01*
X109891800Y-55105337D02*
X111847600Y-55105337D01*
X111847600Y-55105337D02*
X111847600Y-57086537D01*
X111847600Y-57086537D02*
X109891800Y-57086537D01*
X109891800Y-57086537D02*
X109891800Y-55105337D01*
X110882400Y-55626037D02*
X110882400Y-56642037D01*
X128929047Y-38095332D02*
X128929047Y-36795332D01*
X128619523Y-36795332D01*
X128433809Y-36857237D01*
X128310000Y-36981046D01*
X128248095Y-37104856D01*
X128186190Y-37352475D01*
X128186190Y-37538189D01*
X128248095Y-37785808D01*
X128310000Y-37909617D01*
X128433809Y-38033427D01*
X128619523Y-38095332D01*
X128929047Y-38095332D01*
X127443333Y-38095332D02*
X127567142Y-38033427D01*
X127629047Y-37971522D01*
X127690952Y-37847713D01*
X127690952Y-37476284D01*
X127629047Y-37352475D01*
X127567142Y-37290570D01*
X127443333Y-37228665D01*
X127257619Y-37228665D01*
X127133809Y-37290570D01*
X127071904Y-37352475D01*
X127010000Y-37476284D01*
X127010000Y-37847713D01*
X127071904Y-37971522D01*
X127133809Y-38033427D01*
X127257619Y-38095332D01*
X127443333Y-38095332D01*
X126452857Y-38095332D02*
X126452857Y-36795332D01*
X125895714Y-38095332D02*
X125895714Y-37414379D01*
X125957619Y-37290570D01*
X126081428Y-37228665D01*
X126267142Y-37228665D01*
X126390952Y-37290570D01*
X126452857Y-37352475D01*
X125090952Y-38095332D02*
X125214761Y-38033427D01*
X125276666Y-37909617D01*
X125276666Y-36795332D01*
X124100476Y-38033427D02*
X124224285Y-38095332D01*
X124471904Y-38095332D01*
X124595714Y-38033427D01*
X124657619Y-37909617D01*
X124657619Y-37414379D01*
X124595714Y-37290570D01*
X124471904Y-37228665D01*
X124224285Y-37228665D01*
X124100476Y-37290570D01*
X124038571Y-37414379D01*
X124038571Y-37538189D01*
X124657619Y-37661998D01*
X121748095Y-38095332D02*
X122181428Y-37476284D01*
X122490952Y-38095332D02*
X122490952Y-36795332D01*
X121995714Y-36795332D01*
X121871904Y-36857237D01*
X121810000Y-36919141D01*
X121748095Y-37042951D01*
X121748095Y-37228665D01*
X121810000Y-37352475D01*
X121871904Y-37414379D01*
X121995714Y-37476284D01*
X122490952Y-37476284D01*
X120633809Y-38095332D02*
X120633809Y-37414379D01*
X120695714Y-37290570D01*
X120819523Y-37228665D01*
X121067142Y-37228665D01*
X121190952Y-37290570D01*
X120633809Y-38033427D02*
X120757619Y-38095332D01*
X121067142Y-38095332D01*
X121190952Y-38033427D01*
X121252857Y-37909617D01*
X121252857Y-37785808D01*
X121190952Y-37661998D01*
X121067142Y-37600094D01*
X120757619Y-37600094D01*
X120633809Y-37538189D01*
X120138571Y-37228665D02*
X119829047Y-38095332D01*
X119519523Y-37228665D02*
X119829047Y-38095332D01*
X119952857Y-38404856D01*
X120014761Y-38466760D01*
X120138571Y-38528665D01*
X118157619Y-37228665D02*
X117848095Y-38095332D01*
X117538571Y-37228665D01*
X117105238Y-36919141D02*
X117043333Y-36857237D01*
X116919523Y-36795332D01*
X116610000Y-36795332D01*
X116486190Y-36857237D01*
X116424285Y-36919141D01*
X116362380Y-37042951D01*
X116362380Y-37166760D01*
X116424285Y-37352475D01*
X117167142Y-38095332D01*
X116362380Y-38095332D01*
X115805238Y-37971522D02*
X115743333Y-38033427D01*
X115805238Y-38095332D01*
X115867142Y-38033427D01*
X115805238Y-37971522D01*
X115805238Y-38095332D01*
X114938571Y-36795332D02*
X114814761Y-36795332D01*
X114690952Y-36857237D01*
X114629047Y-36919141D01*
X114567142Y-37042951D01*
X114505238Y-37290570D01*
X114505238Y-37600094D01*
X114567142Y-37847713D01*
X114629047Y-37971522D01*
X114690952Y-38033427D01*
X114814761Y-38095332D01*
X114938571Y-38095332D01*
X115062380Y-38033427D01*
X115124285Y-37971522D01*
X115186190Y-37847713D01*
X115248095Y-37600094D01*
X115248095Y-37290570D01*
X115186190Y-37042951D01*
X115124285Y-36919141D01*
X115062380Y-36857237D01*
X114938571Y-36795332D01*
X113390952Y-38095332D02*
X113390952Y-37414379D01*
X113452857Y-37290570D01*
X113576666Y-37228665D01*
X113824285Y-37228665D01*
X113948095Y-37290570D01*
X113390952Y-38033427D02*
X113514761Y-38095332D01*
X113824285Y-38095332D01*
X113948095Y-38033427D01*
X114010000Y-37909617D01*
X114010000Y-37785808D01*
X113948095Y-37661998D01*
X113824285Y-37600094D01*
X113514761Y-37600094D01*
X113390952Y-37538189D01*
X132421190Y-56671332D02*
X132421190Y-55371332D01*
X131987857Y-56299903D01*
X131554523Y-55371332D01*
X131554523Y-56671332D01*
X130378333Y-56671332D02*
X130378333Y-55990379D01*
X130440238Y-55866570D01*
X130564047Y-55804665D01*
X130811666Y-55804665D01*
X130935476Y-55866570D01*
X130378333Y-56609427D02*
X130502142Y-56671332D01*
X130811666Y-56671332D01*
X130935476Y-56609427D01*
X130997380Y-56485617D01*
X130997380Y-56361808D01*
X130935476Y-56237998D01*
X130811666Y-56176094D01*
X130502142Y-56176094D01*
X130378333Y-56114189D01*
X129202142Y-56671332D02*
X129202142Y-55371332D01*
X129202142Y-56609427D02*
X129325952Y-56671332D01*
X129573571Y-56671332D01*
X129697380Y-56609427D01*
X129759285Y-56547522D01*
X129821190Y-56423713D01*
X129821190Y-56052284D01*
X129759285Y-55928475D01*
X129697380Y-55866570D01*
X129573571Y-55804665D01*
X129325952Y-55804665D01*
X129202142Y-55866570D01*
X128087857Y-56609427D02*
X128211666Y-56671332D01*
X128459285Y-56671332D01*
X128583095Y-56609427D01*
X128645000Y-56485617D01*
X128645000Y-55990379D01*
X128583095Y-55866570D01*
X128459285Y-55804665D01*
X128211666Y-55804665D01*
X128087857Y-55866570D01*
X128025952Y-55990379D01*
X128025952Y-56114189D01*
X128645000Y-56237998D01*
X126478333Y-56671332D02*
X126478333Y-55804665D01*
X126478333Y-55371332D02*
X126540238Y-55433237D01*
X126478333Y-55495141D01*
X126416428Y-55433237D01*
X126478333Y-55371332D01*
X126478333Y-55495141D01*
X125859285Y-55804665D02*
X125859285Y-56671332D01*
X125859285Y-55928475D02*
X125797380Y-55866570D01*
X125673571Y-55804665D01*
X125487857Y-55804665D01*
X125364047Y-55866570D01*
X125302142Y-55990379D01*
X125302142Y-56671332D01*
X123754523Y-56609427D02*
X123568809Y-56671332D01*
X123259285Y-56671332D01*
X123135476Y-56609427D01*
X123073571Y-56547522D01*
X123011666Y-56423713D01*
X123011666Y-56299903D01*
X123073571Y-56176094D01*
X123135476Y-56114189D01*
X123259285Y-56052284D01*
X123506904Y-55990379D01*
X123630714Y-55928475D01*
X123692619Y-55866570D01*
X123754523Y-55742760D01*
X123754523Y-55618951D01*
X123692619Y-55495141D01*
X123630714Y-55433237D01*
X123506904Y-55371332D01*
X123197380Y-55371332D01*
X123011666Y-55433237D01*
X122578333Y-55804665D02*
X122330714Y-56671332D01*
X122083095Y-56052284D01*
X121835476Y-56671332D01*
X121587857Y-55804665D01*
X121092619Y-56671332D02*
X121092619Y-55804665D01*
X121092619Y-55371332D02*
X121154523Y-55433237D01*
X121092619Y-55495141D01*
X121030714Y-55433237D01*
X121092619Y-55371332D01*
X121092619Y-55495141D01*
X120659285Y-55804665D02*
X120164047Y-55804665D01*
X120473571Y-55371332D02*
X120473571Y-56485617D01*
X120411666Y-56609427D01*
X120287857Y-56671332D01*
X120164047Y-56671332D01*
X119854523Y-55804665D02*
X119173571Y-55804665D01*
X119854523Y-56671332D01*
X119173571Y-56671332D01*
X118183095Y-56609427D02*
X118306904Y-56671332D01*
X118554523Y-56671332D01*
X118678333Y-56609427D01*
X118740238Y-56485617D01*
X118740238Y-55990379D01*
X118678333Y-55866570D01*
X118554523Y-55804665D01*
X118306904Y-55804665D01*
X118183095Y-55866570D01*
X118121190Y-55990379D01*
X118121190Y-56114189D01*
X118740238Y-56237998D01*
X117564047Y-56671332D02*
X117564047Y-55804665D01*
X117564047Y-56052284D02*
X117502142Y-55928475D01*
X117440238Y-55866570D01*
X117316428Y-55804665D01*
X117192619Y-55804665D01*
X116573571Y-56671332D02*
X116697380Y-56609427D01*
X116759285Y-56485617D01*
X116759285Y-55371332D01*
X115521190Y-56671332D02*
X115521190Y-55990379D01*
X115583095Y-55866570D01*
X115706904Y-55804665D01*
X115954523Y-55804665D01*
X116078333Y-55866570D01*
X115521190Y-56609427D02*
X115645000Y-56671332D01*
X115954523Y-56671332D01*
X116078333Y-56609427D01*
X116140238Y-56485617D01*
X116140238Y-56361808D01*
X116078333Y-56237998D01*
X115954523Y-56176094D01*
X115645000Y-56176094D01*
X115521190Y-56114189D01*
X114902142Y-55804665D02*
X114902142Y-56671332D01*
X114902142Y-55928475D02*
X114840238Y-55866570D01*
X114716428Y-55804665D01*
X114530714Y-55804665D01*
X114406904Y-55866570D01*
X114345000Y-55990379D01*
X114345000Y-56671332D01*
X113168809Y-56671332D02*
X113168809Y-55371332D01*
X113168809Y-56609427D02*
X113292619Y-56671332D01*
X113540238Y-56671332D01*
X113664047Y-56609427D01*
X113725952Y-56547522D01*
X113787857Y-56423713D01*
X113787857Y-56052284D01*
X113725952Y-55928475D01*
X113664047Y-55866570D01*
X113540238Y-55804665D01*
X113292619Y-55804665D01*
X113168809Y-55866570D01*
D11*
X124192000Y-95199237D03*
X124192000Y-90199237D03*
X134460000Y-73101237D03*
D12*
X124300000Y-73101237D03*
D11*
X111092000Y-71069237D03*
D12*
X100932000Y-71069237D03*
D11*
X130796000Y-82245237D03*
D12*
X130796000Y-92405237D03*
D13*
X119874000Y-66523237D03*
D14*
X121874000Y-66523237D03*
D11*
X100932000Y-74371237D03*
D12*
X111092000Y-74371237D03*
D15*
X125316000Y-78943237D03*
D11*
X125316000Y-76443237D03*
X111092000Y-77673237D03*
D12*
X100932000Y-77673237D03*
D11*
X118790000Y-77423237D03*
X113790000Y-77423237D03*
D13*
X114038400Y-84277237D03*
D14*
X116038400Y-84277237D03*
X118038400Y-84277237D03*
D11*
X118790000Y-72323237D03*
X113790000Y-72323237D03*
X140702000Y-92405237D03*
D12*
X140702000Y-82245237D03*
D16*
X116680000Y-89865237D03*
X114140000Y-89865237D03*
X111600000Y-89865237D03*
D17*
X140406000Y-61401237D03*
D18*
X140406000Y-59401237D03*
D11*
X114290000Y-64223237D03*
X114290000Y-59223237D03*
X100951000Y-80467237D03*
X100951000Y-85467237D03*
X131558000Y-67005237D03*
X126558000Y-67005237D03*
D15*
X133952000Y-78689237D03*
D11*
X133952000Y-76689237D03*
X140702000Y-73395237D03*
X140702000Y-78395237D03*
D19*
X102390000Y-59523237D03*
D20*
X102390000Y-62063237D03*
X102390000Y-64603237D03*
X102390000Y-67143237D03*
X110010000Y-67143237D03*
X110010000Y-64603237D03*
X110010000Y-62063237D03*
X110010000Y-59523237D03*
D13*
X104996000Y-84277237D03*
D14*
X106996000Y-84277237D03*
X108996000Y-84277237D03*
D21*
X128002000Y-97485237D03*
D22*
X140702000Y-97485237D03*
D13*
X123157000Y-84404237D03*
D14*
X125157000Y-84404237D03*
D11*
X106520000Y-89357237D03*
D12*
X106520000Y-99517237D03*
D17*
X140406000Y-68513237D03*
D18*
X140406000Y-66513237D03*
D11*
X135876000Y-92405237D03*
D12*
X135876000Y-82245237D03*
D23*
X124170612Y-98540204D03*
D11*
X101948000Y-99517237D03*
D12*
X101948000Y-89357237D03*
D13*
X119890000Y-59851237D03*
D14*
X121890000Y-59851237D03*
D15*
X126478000Y-62179237D03*
D12*
X134098000Y-62179237D03*
D11*
X126478000Y-58877237D03*
D12*
X136638000Y-58877237D03*
D24*
X116696440Y-41911817D03*
X121398000Y-41911817D03*
X126096440Y-41911817D03*
X116696440Y-46911297D03*
X121398000Y-46911297D03*
X126096440Y-46911297D03*
X116697200Y-52011817D03*
X121398760Y-52011817D03*
X126097200Y-52011817D03*
M02*
