G04 #@! TF.GenerationSoftware,KiCad,Pcbnew,(6.0.0)*
G04 #@! TF.CreationDate,2022-07-26T20:36:16+02:00*
G04 #@! TF.ProjectId,ray,7261792e-6b69-4636-9164-5f7063625858,rev?*
G04 #@! TF.SameCoordinates,Original*
G04 #@! TF.FileFunction,Legend,Top*
G04 #@! TF.FilePolarity,Positive*
%FSLAX46Y46*%
G04 Gerber Fmt 4.6, Leading zero omitted, Abs format (unit mm)*
G04 Created by KiCad (PCBNEW (6.0.0)) date 2022-07-26 20:36:16*
%MOMM*%
%LPD*%
G01*
G04 APERTURE LIST*
G04 Aperture macros list*
%AMRoundRect*
0 Rectangle with rounded corners*
0 $1 Rounding radius*
0 $2 $3 $4 $5 $6 $7 $8 $9 X,Y pos of 4 corners*
0 Add a 4 corners polygon primitive as box body*
4,1,4,$2,$3,$4,$5,$6,$7,$8,$9,$2,$3,0*
0 Add four circle primitives for the rounded corners*
1,1,$1+$1,$2,$3*
1,1,$1+$1,$4,$5*
1,1,$1+$1,$6,$7*
1,1,$1+$1,$8,$9*
0 Add four rect primitives between the rounded corners*
20,1,$1+$1,$2,$3,$4,$5,0*
20,1,$1+$1,$4,$5,$6,$7,0*
20,1,$1+$1,$6,$7,$8,$9,0*
20,1,$1+$1,$8,$9,$2,$3,0*%
G04 Aperture macros list end*
%ADD10C,0.150000*%
%ADD11C,0.120000*%
%ADD12C,1.600000*%
%ADD13O,1.600000X1.600000*%
%ADD14RoundRect,0.250000X-0.350000X-0.625000X0.350000X-0.625000X0.350000X0.625000X-0.350000X0.625000X0*%
%ADD15O,1.200000X1.750000*%
%ADD16R,1.600000X1.600000*%
%ADD17C,1.440000*%
%ADD18RoundRect,0.250000X0.625000X-0.350000X0.625000X0.350000X-0.625000X0.350000X-0.625000X-0.350000X0*%
%ADD19O,1.750000X1.200000*%
%ADD20R,2.400000X1.600000*%
%ADD21O,2.400000X1.600000*%
%ADD22R,2.400000X2.400000*%
%ADD23O,2.400000X2.400000*%
%ADD24R,1.900000X0.800000*%
%ADD25R,1.500000X1.500000*%
%ADD26O,2.743200X4.003200*%
G04 APERTURE END LIST*
D10*
X98742380Y-68108951D02*
X98742380Y-67537522D01*
X99742380Y-67823237D02*
X98742380Y-67823237D01*
X99742380Y-67204189D02*
X98742380Y-67204189D01*
X99742380Y-66775617D02*
X99218571Y-66775617D01*
X99123333Y-66823237D01*
X99075714Y-66918475D01*
X99075714Y-67061332D01*
X99123333Y-67156570D01*
X99170952Y-67204189D01*
X99694761Y-65918475D02*
X99742380Y-66013713D01*
X99742380Y-66204189D01*
X99694761Y-66299427D01*
X99599523Y-66347046D01*
X99218571Y-66347046D01*
X99123333Y-66299427D01*
X99075714Y-66204189D01*
X99075714Y-66013713D01*
X99123333Y-65918475D01*
X99218571Y-65870856D01*
X99313809Y-65870856D01*
X99409047Y-66347046D01*
X99742380Y-64108951D02*
X99266190Y-64442284D01*
X99742380Y-64680379D02*
X98742380Y-64680379D01*
X98742380Y-64299427D01*
X98790000Y-64204189D01*
X98837619Y-64156570D01*
X98932857Y-64108951D01*
X99075714Y-64108951D01*
X99170952Y-64156570D01*
X99218571Y-64204189D01*
X99266190Y-64299427D01*
X99266190Y-64680379D01*
X99742380Y-63251808D02*
X99218571Y-63251808D01*
X99123333Y-63299427D01*
X99075714Y-63394665D01*
X99075714Y-63585141D01*
X99123333Y-63680379D01*
X99694761Y-63251808D02*
X99742380Y-63347046D01*
X99742380Y-63585141D01*
X99694761Y-63680379D01*
X99599523Y-63727998D01*
X99504285Y-63727998D01*
X99409047Y-63680379D01*
X99361428Y-63585141D01*
X99361428Y-63347046D01*
X99313809Y-63251808D01*
X99075714Y-62870856D02*
X99742380Y-62632760D01*
X99075714Y-62394665D02*
X99742380Y-62632760D01*
X99980476Y-62727998D01*
X100028095Y-62775617D01*
X100075714Y-62870856D01*
X99075714Y-61347046D02*
X99742380Y-61108951D01*
X99075714Y-60870856D01*
X98837619Y-60537522D02*
X98790000Y-60489903D01*
X98742380Y-60394665D01*
X98742380Y-60156570D01*
X98790000Y-60061332D01*
X98837619Y-60013713D01*
X98932857Y-59966094D01*
X99028095Y-59966094D01*
X99170952Y-60013713D01*
X99742380Y-60585141D01*
X99742380Y-59966094D01*
X99647142Y-59537522D02*
X99694761Y-59489903D01*
X99742380Y-59537522D01*
X99694761Y-59585141D01*
X99647142Y-59537522D01*
X99742380Y-59537522D01*
X98742380Y-58870856D02*
X98742380Y-58775617D01*
X98790000Y-58680379D01*
X98837619Y-58632760D01*
X98932857Y-58585141D01*
X99123333Y-58537522D01*
X99361428Y-58537522D01*
X99551904Y-58585141D01*
X99647142Y-58632760D01*
X99694761Y-58680379D01*
X99742380Y-58775617D01*
X99742380Y-58870856D01*
X99694761Y-58966094D01*
X99647142Y-59013713D01*
X99551904Y-59061332D01*
X99361428Y-59108951D01*
X99123333Y-59108951D01*
X98932857Y-59061332D01*
X98837619Y-59013713D01*
X98790000Y-58966094D01*
X98742380Y-58870856D01*
X99742380Y-57680379D02*
X99218571Y-57680379D01*
X99123333Y-57727998D01*
X99075714Y-57823237D01*
X99075714Y-58013713D01*
X99123333Y-58108951D01*
X99694761Y-57680379D02*
X99742380Y-57775617D01*
X99742380Y-58013713D01*
X99694761Y-58108951D01*
X99599523Y-58156570D01*
X99504285Y-58156570D01*
X99409047Y-58108951D01*
X99361428Y-58013713D01*
X99361428Y-57775617D01*
X99313809Y-57680379D01*
X122409142Y-92865903D02*
X122456761Y-92913522D01*
X122504380Y-93056379D01*
X122504380Y-93151617D01*
X122456761Y-93294475D01*
X122361523Y-93389713D01*
X122266285Y-93437332D01*
X122075809Y-93484951D01*
X121932952Y-93484951D01*
X121742476Y-93437332D01*
X121647238Y-93389713D01*
X121552000Y-93294475D01*
X121504380Y-93151617D01*
X121504380Y-93056379D01*
X121552000Y-92913522D01*
X121599619Y-92865903D01*
X121504380Y-92532570D02*
X121504380Y-91865903D01*
X122504380Y-92294475D01*
X128952933Y-75992017D02*
X128619600Y-75515827D01*
X128381504Y-75992017D02*
X128381504Y-74992017D01*
X128762457Y-74992017D01*
X128857695Y-75039637D01*
X128905314Y-75087256D01*
X128952933Y-75182494D01*
X128952933Y-75325351D01*
X128905314Y-75420589D01*
X128857695Y-75468208D01*
X128762457Y-75515827D01*
X128381504Y-75515827D01*
X129286266Y-74992017D02*
X129905314Y-74992017D01*
X129571980Y-75372970D01*
X129714838Y-75372970D01*
X129810076Y-75420589D01*
X129857695Y-75468208D01*
X129905314Y-75563446D01*
X129905314Y-75801541D01*
X129857695Y-75896779D01*
X129810076Y-75944398D01*
X129714838Y-75992017D01*
X129429123Y-75992017D01*
X129333885Y-75944398D01*
X129286266Y-75896779D01*
X99692380Y-71264903D02*
X99216190Y-71598237D01*
X99692380Y-71836332D02*
X98692380Y-71836332D01*
X98692380Y-71455379D01*
X98740000Y-71360141D01*
X98787619Y-71312522D01*
X98882857Y-71264903D01*
X99025714Y-71264903D01*
X99120952Y-71312522D01*
X99168571Y-71360141D01*
X99216190Y-71455379D01*
X99216190Y-71836332D01*
X98787619Y-70883951D02*
X98740000Y-70836332D01*
X98692380Y-70741094D01*
X98692380Y-70502998D01*
X98740000Y-70407760D01*
X98787619Y-70360141D01*
X98882857Y-70312522D01*
X98978095Y-70312522D01*
X99120952Y-70360141D01*
X99692380Y-70931570D01*
X99692380Y-70312522D01*
X128860780Y-87593503D02*
X128384590Y-87926837D01*
X128860780Y-88164932D02*
X127860780Y-88164932D01*
X127860780Y-87783979D01*
X127908400Y-87688741D01*
X127956019Y-87641122D01*
X128051257Y-87593503D01*
X128194114Y-87593503D01*
X128289352Y-87641122D01*
X128336971Y-87688741D01*
X128384590Y-87783979D01*
X128384590Y-88164932D01*
X128860780Y-87117313D02*
X128860780Y-86926837D01*
X128813161Y-86831598D01*
X128765542Y-86783979D01*
X128622685Y-86688741D01*
X128432209Y-86641122D01*
X128051257Y-86641122D01*
X127956019Y-86688741D01*
X127908400Y-86736360D01*
X127860780Y-86831598D01*
X127860780Y-87022075D01*
X127908400Y-87117313D01*
X127956019Y-87164932D01*
X128051257Y-87212551D01*
X128289352Y-87212551D01*
X128384590Y-87164932D01*
X128432209Y-87117313D01*
X128479828Y-87022075D01*
X128479828Y-86831598D01*
X128432209Y-86736360D01*
X128384590Y-86688741D01*
X128289352Y-86641122D01*
X120366190Y-64155617D02*
X120366190Y-63155617D01*
X120842380Y-64155617D02*
X120842380Y-63155617D01*
X121413809Y-64155617D01*
X121413809Y-63155617D01*
X99717380Y-74537903D02*
X99241190Y-74871237D01*
X99717380Y-75109332D02*
X98717380Y-75109332D01*
X98717380Y-74728379D01*
X98765000Y-74633141D01*
X98812619Y-74585522D01*
X98907857Y-74537903D01*
X99050714Y-74537903D01*
X99145952Y-74585522D01*
X99193571Y-74633141D01*
X99241190Y-74728379D01*
X99241190Y-75109332D01*
X99050714Y-73680760D02*
X99717380Y-73680760D01*
X98669761Y-73918856D02*
X99384047Y-74156951D01*
X99384047Y-73537903D01*
X121586933Y-79909979D02*
X121539314Y-79957598D01*
X121396457Y-80005217D01*
X121301219Y-80005217D01*
X121158361Y-79957598D01*
X121063123Y-79862360D01*
X121015504Y-79767122D01*
X120967885Y-79576646D01*
X120967885Y-79433789D01*
X121015504Y-79243313D01*
X121063123Y-79148075D01*
X121158361Y-79052837D01*
X121301219Y-79005217D01*
X121396457Y-79005217D01*
X121539314Y-79052837D01*
X121586933Y-79100456D01*
X122158361Y-79433789D02*
X122063123Y-79386170D01*
X122015504Y-79338551D01*
X121967885Y-79243313D01*
X121967885Y-79195694D01*
X122015504Y-79100456D01*
X122063123Y-79052837D01*
X122158361Y-79005217D01*
X122348838Y-79005217D01*
X122444076Y-79052837D01*
X122491695Y-79100456D01*
X122539314Y-79195694D01*
X122539314Y-79243313D01*
X122491695Y-79338551D01*
X122444076Y-79386170D01*
X122348838Y-79433789D01*
X122158361Y-79433789D01*
X122063123Y-79481408D01*
X122015504Y-79529027D01*
X121967885Y-79624265D01*
X121967885Y-79814741D01*
X122015504Y-79909979D01*
X122063123Y-79957598D01*
X122158361Y-80005217D01*
X122348838Y-80005217D01*
X122444076Y-79957598D01*
X122491695Y-79909979D01*
X122539314Y-79814741D01*
X122539314Y-79624265D01*
X122491695Y-79529027D01*
X122444076Y-79481408D01*
X122348838Y-79433789D01*
X99692380Y-77839903D02*
X99216190Y-78173237D01*
X99692380Y-78411332D02*
X98692380Y-78411332D01*
X98692380Y-78030379D01*
X98740000Y-77935141D01*
X98787619Y-77887522D01*
X98882857Y-77839903D01*
X99025714Y-77839903D01*
X99120952Y-77887522D01*
X99168571Y-77935141D01*
X99216190Y-78030379D01*
X99216190Y-78411332D01*
X98692380Y-76935141D02*
X98692380Y-77411332D01*
X99168571Y-77458951D01*
X99120952Y-77411332D01*
X99073333Y-77316094D01*
X99073333Y-77077998D01*
X99120952Y-76982760D01*
X99168571Y-76935141D01*
X99263809Y-76887522D01*
X99501904Y-76887522D01*
X99597142Y-76935141D01*
X99644761Y-76982760D01*
X99692380Y-77077998D01*
X99692380Y-77316094D01*
X99644761Y-77411332D01*
X99597142Y-77458951D01*
X112347142Y-76189903D02*
X112394761Y-76237522D01*
X112442380Y-76380379D01*
X112442380Y-76475617D01*
X112394761Y-76618475D01*
X112299523Y-76713713D01*
X112204285Y-76761332D01*
X112013809Y-76808951D01*
X111870952Y-76808951D01*
X111680476Y-76761332D01*
X111585238Y-76713713D01*
X111490000Y-76618475D01*
X111442380Y-76475617D01*
X111442380Y-76380379D01*
X111490000Y-76237522D01*
X111537619Y-76189903D01*
X111775714Y-75332760D02*
X112442380Y-75332760D01*
X111394761Y-75570856D02*
X112109047Y-75808951D01*
X112109047Y-75189903D01*
X115243428Y-80983237D02*
X115148190Y-80935617D01*
X115005333Y-80935617D01*
X114862476Y-80983237D01*
X114767238Y-81078475D01*
X114719619Y-81173713D01*
X114672000Y-81364189D01*
X114672000Y-81507046D01*
X114719619Y-81697522D01*
X114767238Y-81792760D01*
X114862476Y-81887998D01*
X115005333Y-81935617D01*
X115100571Y-81935617D01*
X115243428Y-81887998D01*
X115291047Y-81840379D01*
X115291047Y-81507046D01*
X115100571Y-81507046D01*
X115672000Y-81649903D02*
X116148190Y-81649903D01*
X115576761Y-81935617D02*
X115910095Y-80935617D01*
X116243428Y-81935617D01*
X116576761Y-81935617D02*
X116576761Y-80935617D01*
X117052952Y-81935617D02*
X117052952Y-80935617D01*
X117624380Y-81935617D01*
X117624380Y-80935617D01*
X112347142Y-72889903D02*
X112394761Y-72937522D01*
X112442380Y-73080379D01*
X112442380Y-73175617D01*
X112394761Y-73318475D01*
X112299523Y-73413713D01*
X112204285Y-73461332D01*
X112013809Y-73508951D01*
X111870952Y-73508951D01*
X111680476Y-73461332D01*
X111585238Y-73413713D01*
X111490000Y-73318475D01*
X111442380Y-73175617D01*
X111442380Y-73080379D01*
X111490000Y-72937522D01*
X111537619Y-72889903D01*
X111537619Y-72508951D02*
X111490000Y-72461332D01*
X111442380Y-72366094D01*
X111442380Y-72127998D01*
X111490000Y-72032760D01*
X111537619Y-71985141D01*
X111632857Y-71937522D01*
X111728095Y-71937522D01*
X111870952Y-71985141D01*
X112442380Y-72556570D01*
X112442380Y-71937522D01*
X138928380Y-87183903D02*
X138452190Y-87517237D01*
X138928380Y-87755332D02*
X137928380Y-87755332D01*
X137928380Y-87374379D01*
X137976000Y-87279141D01*
X138023619Y-87231522D01*
X138118857Y-87183903D01*
X138261714Y-87183903D01*
X138356952Y-87231522D01*
X138404571Y-87279141D01*
X138452190Y-87374379D01*
X138452190Y-87755332D01*
X137928380Y-86326760D02*
X137928380Y-86517237D01*
X137976000Y-86612475D01*
X138023619Y-86660094D01*
X138166476Y-86755332D01*
X138356952Y-86802951D01*
X138737904Y-86802951D01*
X138833142Y-86755332D01*
X138880761Y-86707713D01*
X138928380Y-86612475D01*
X138928380Y-86421998D01*
X138880761Y-86326760D01*
X138833142Y-86279141D01*
X138737904Y-86231522D01*
X138499809Y-86231522D01*
X138404571Y-86279141D01*
X138356952Y-86326760D01*
X138309333Y-86421998D01*
X138309333Y-86612475D01*
X138356952Y-86707713D01*
X138404571Y-86755332D01*
X138499809Y-86802951D01*
X113068571Y-94982808D02*
X113211428Y-95030427D01*
X113259047Y-95078046D01*
X113306666Y-95173284D01*
X113306666Y-95316141D01*
X113259047Y-95411379D01*
X113211428Y-95458998D01*
X113116190Y-95506617D01*
X112735238Y-95506617D01*
X112735238Y-94506617D01*
X113068571Y-94506617D01*
X113163809Y-94554237D01*
X113211428Y-94601856D01*
X113259047Y-94697094D01*
X113259047Y-94792332D01*
X113211428Y-94887570D01*
X113163809Y-94935189D01*
X113068571Y-94982808D01*
X112735238Y-94982808D01*
X113735238Y-95506617D02*
X113735238Y-94506617D01*
X114163809Y-95220903D02*
X114640000Y-95220903D01*
X114068571Y-95506617D02*
X114401904Y-94506617D01*
X114735238Y-95506617D01*
X115020952Y-95458998D02*
X115163809Y-95506617D01*
X115401904Y-95506617D01*
X115497142Y-95458998D01*
X115544761Y-95411379D01*
X115592380Y-95316141D01*
X115592380Y-95220903D01*
X115544761Y-95125665D01*
X115497142Y-95078046D01*
X115401904Y-95030427D01*
X115211428Y-94982808D01*
X115116190Y-94935189D01*
X115068571Y-94887570D01*
X115020952Y-94792332D01*
X115020952Y-94697094D01*
X115068571Y-94601856D01*
X115116190Y-94554237D01*
X115211428Y-94506617D01*
X115449523Y-94506617D01*
X115592380Y-94554237D01*
X137226971Y-63223675D02*
X137226971Y-62890341D01*
X137750780Y-62747484D02*
X137750780Y-63223675D01*
X136750780Y-63223675D01*
X136750780Y-62747484D01*
X137274590Y-62128437D02*
X137750780Y-62128437D01*
X136750780Y-62461770D02*
X137274590Y-62128437D01*
X136750780Y-61795103D01*
X137226971Y-61461770D02*
X137226971Y-61128437D01*
X137750780Y-60985579D02*
X137750780Y-61461770D01*
X136750780Y-61461770D01*
X136750780Y-60985579D01*
X113959333Y-57446379D02*
X113911714Y-57493998D01*
X113768857Y-57541617D01*
X113673619Y-57541617D01*
X113530761Y-57493998D01*
X113435523Y-57398760D01*
X113387904Y-57303522D01*
X113340285Y-57113046D01*
X113340285Y-56970189D01*
X113387904Y-56779713D01*
X113435523Y-56684475D01*
X113530761Y-56589237D01*
X113673619Y-56541617D01*
X113768857Y-56541617D01*
X113911714Y-56589237D01*
X113959333Y-56636856D01*
X114864095Y-56541617D02*
X114387904Y-56541617D01*
X114340285Y-57017808D01*
X114387904Y-56970189D01*
X114483142Y-56922570D01*
X114721238Y-56922570D01*
X114816476Y-56970189D01*
X114864095Y-57017808D01*
X114911714Y-57113046D01*
X114911714Y-57351141D01*
X114864095Y-57446379D01*
X114816476Y-57493998D01*
X114721238Y-57541617D01*
X114483142Y-57541617D01*
X114387904Y-57493998D01*
X114340285Y-57446379D01*
X99530142Y-83173903D02*
X99577761Y-83221522D01*
X99625380Y-83364379D01*
X99625380Y-83459617D01*
X99577761Y-83602475D01*
X99482523Y-83697713D01*
X99387285Y-83745332D01*
X99196809Y-83792951D01*
X99053952Y-83792951D01*
X98863476Y-83745332D01*
X98768238Y-83697713D01*
X98673000Y-83602475D01*
X98625380Y-83459617D01*
X98625380Y-83364379D01*
X98673000Y-83221522D01*
X98720619Y-83173903D01*
X98625380Y-82316760D02*
X98625380Y-82507237D01*
X98673000Y-82602475D01*
X98720619Y-82650094D01*
X98863476Y-82745332D01*
X99053952Y-82792951D01*
X99434904Y-82792951D01*
X99530142Y-82745332D01*
X99577761Y-82697713D01*
X99625380Y-82602475D01*
X99625380Y-82411998D01*
X99577761Y-82316760D01*
X99530142Y-82269141D01*
X99434904Y-82221522D01*
X99196809Y-82221522D01*
X99101571Y-82269141D01*
X99053952Y-82316760D01*
X99006333Y-82411998D01*
X99006333Y-82602475D01*
X99053952Y-82697713D01*
X99101571Y-82745332D01*
X99196809Y-82792951D01*
X128902133Y-70613579D02*
X128854514Y-70661198D01*
X128711657Y-70708817D01*
X128616419Y-70708817D01*
X128473561Y-70661198D01*
X128378323Y-70565960D01*
X128330704Y-70470722D01*
X128283085Y-70280246D01*
X128283085Y-70137389D01*
X128330704Y-69946913D01*
X128378323Y-69851675D01*
X128473561Y-69756437D01*
X128616419Y-69708817D01*
X128711657Y-69708817D01*
X128854514Y-69756437D01*
X128902133Y-69804056D01*
X129854514Y-70708817D02*
X129283085Y-70708817D01*
X129568800Y-70708817D02*
X129568800Y-69708817D01*
X129473561Y-69851675D01*
X129378323Y-69946913D01*
X129283085Y-69994532D01*
X130019733Y-79909979D02*
X129972114Y-79957598D01*
X129829257Y-80005217D01*
X129734019Y-80005217D01*
X129591161Y-79957598D01*
X129495923Y-79862360D01*
X129448304Y-79767122D01*
X129400685Y-79576646D01*
X129400685Y-79433789D01*
X129448304Y-79243313D01*
X129495923Y-79148075D01*
X129591161Y-79052837D01*
X129734019Y-79005217D01*
X129829257Y-79005217D01*
X129972114Y-79052837D01*
X130019733Y-79100456D01*
X130353066Y-79005217D02*
X130972114Y-79005217D01*
X130638780Y-79386170D01*
X130781638Y-79386170D01*
X130876876Y-79433789D01*
X130924495Y-79481408D01*
X130972114Y-79576646D01*
X130972114Y-79814741D01*
X130924495Y-79909979D01*
X130876876Y-79957598D01*
X130781638Y-80005217D01*
X130495923Y-80005217D01*
X130400685Y-79957598D01*
X130353066Y-79909979D01*
X137328571Y-75568170D02*
X137328571Y-75901503D01*
X137852380Y-75901503D02*
X136852380Y-75901503D01*
X136852380Y-75425313D01*
X137852380Y-74520551D02*
X137852380Y-75091979D01*
X137852380Y-74806265D02*
X136852380Y-74806265D01*
X136995238Y-74901503D01*
X137090476Y-74996741D01*
X137138095Y-75091979D01*
X105438095Y-56645617D02*
X105438095Y-57455141D01*
X105485714Y-57550379D01*
X105533333Y-57597998D01*
X105628571Y-57645617D01*
X105819047Y-57645617D01*
X105914285Y-57597998D01*
X105961904Y-57550379D01*
X106009523Y-57455141D01*
X106009523Y-56645617D01*
X107009523Y-57645617D02*
X106438095Y-57645617D01*
X106723809Y-57645617D02*
X106723809Y-56645617D01*
X106628571Y-56788475D01*
X106533333Y-56883713D01*
X106438095Y-56931332D01*
X105837523Y-81935617D02*
X105837523Y-80935617D01*
X106075619Y-80935617D01*
X106218476Y-80983237D01*
X106313714Y-81078475D01*
X106361333Y-81173713D01*
X106408952Y-81364189D01*
X106408952Y-81507046D01*
X106361333Y-81697522D01*
X106313714Y-81792760D01*
X106218476Y-81887998D01*
X106075619Y-81935617D01*
X105837523Y-81935617D01*
X107408952Y-81935617D02*
X107075619Y-81459427D01*
X106837523Y-81935617D02*
X106837523Y-80935617D01*
X107218476Y-80935617D01*
X107313714Y-80983237D01*
X107361333Y-81030856D01*
X107408952Y-81126094D01*
X107408952Y-81268951D01*
X107361333Y-81364189D01*
X107313714Y-81411808D01*
X107218476Y-81459427D01*
X106837523Y-81459427D01*
X107694666Y-80935617D02*
X108028000Y-81935617D01*
X108361333Y-80935617D01*
X133793904Y-100897617D02*
X133793904Y-99897617D01*
X134032000Y-99897617D01*
X134174857Y-99945237D01*
X134270095Y-100040475D01*
X134317714Y-100135713D01*
X134365333Y-100326189D01*
X134365333Y-100469046D01*
X134317714Y-100659522D01*
X134270095Y-100754760D01*
X134174857Y-100849998D01*
X134032000Y-100897617D01*
X133793904Y-100897617D01*
X134746285Y-99992856D02*
X134793904Y-99945237D01*
X134889142Y-99897617D01*
X135127238Y-99897617D01*
X135222476Y-99945237D01*
X135270095Y-99992856D01*
X135317714Y-100088094D01*
X135317714Y-100183332D01*
X135270095Y-100326189D01*
X134698666Y-100897617D01*
X135317714Y-100897617D01*
X127740095Y-95737617D02*
X127740095Y-94737617D01*
X128311523Y-95737617D02*
X127882952Y-95166189D01*
X128311523Y-94737617D02*
X127740095Y-95309046D01*
X122466666Y-81411808D02*
X122609523Y-81459427D01*
X122657142Y-81507046D01*
X122704761Y-81602284D01*
X122704761Y-81745141D01*
X122657142Y-81840379D01*
X122609523Y-81887998D01*
X122514285Y-81935617D01*
X122133333Y-81935617D01*
X122133333Y-80935617D01*
X122466666Y-80935617D01*
X122561904Y-80983237D01*
X122609523Y-81030856D01*
X122657142Y-81126094D01*
X122657142Y-81221332D01*
X122609523Y-81316570D01*
X122561904Y-81364189D01*
X122466666Y-81411808D01*
X122133333Y-81411808D01*
X123323809Y-80935617D02*
X123514285Y-80935617D01*
X123609523Y-80983237D01*
X123704761Y-81078475D01*
X123752380Y-81268951D01*
X123752380Y-81602284D01*
X123704761Y-81792760D01*
X123609523Y-81887998D01*
X123514285Y-81935617D01*
X123323809Y-81935617D01*
X123228571Y-81887998D01*
X123133333Y-81792760D01*
X123085714Y-81602284D01*
X123085714Y-81268951D01*
X123133333Y-81078475D01*
X123228571Y-80983237D01*
X123323809Y-80935617D01*
X124371428Y-80935617D02*
X124561904Y-80935617D01*
X124657142Y-80983237D01*
X124752380Y-81078475D01*
X124800000Y-81268951D01*
X124800000Y-81602284D01*
X124752380Y-81792760D01*
X124657142Y-81887998D01*
X124561904Y-81935617D01*
X124371428Y-81935617D01*
X124276190Y-81887998D01*
X124180952Y-81792760D01*
X124133333Y-81602284D01*
X124133333Y-81268951D01*
X124180952Y-81078475D01*
X124276190Y-80983237D01*
X124371428Y-80935617D01*
X125180952Y-81887998D02*
X125323809Y-81935617D01*
X125561904Y-81935617D01*
X125657142Y-81887998D01*
X125704761Y-81840379D01*
X125752380Y-81745141D01*
X125752380Y-81649903D01*
X125704761Y-81554665D01*
X125657142Y-81507046D01*
X125561904Y-81459427D01*
X125371428Y-81411808D01*
X125276190Y-81364189D01*
X125228571Y-81316570D01*
X125180952Y-81221332D01*
X125180952Y-81126094D01*
X125228571Y-81030856D01*
X125276190Y-80983237D01*
X125371428Y-80935617D01*
X125609523Y-80935617D01*
X125752380Y-80983237D01*
X126038095Y-80935617D02*
X126609523Y-80935617D01*
X126323809Y-81935617D02*
X126323809Y-80935617D01*
X117468761Y-98474856D02*
X117373523Y-98427237D01*
X117278285Y-98331998D01*
X117135428Y-98189141D01*
X117040190Y-98141522D01*
X116944952Y-98141522D01*
X116992571Y-98379617D02*
X116897333Y-98331998D01*
X116802095Y-98236760D01*
X116754476Y-98046284D01*
X116754476Y-97712951D01*
X116802095Y-97522475D01*
X116897333Y-97427237D01*
X116992571Y-97379617D01*
X117183047Y-97379617D01*
X117278285Y-97427237D01*
X117373523Y-97522475D01*
X117421142Y-97712951D01*
X117421142Y-98046284D01*
X117373523Y-98236760D01*
X117278285Y-98331998D01*
X117183047Y-98379617D01*
X116992571Y-98379617D01*
X118373523Y-98379617D02*
X117802095Y-98379617D01*
X118087809Y-98379617D02*
X118087809Y-97379617D01*
X117992571Y-97522475D01*
X117897333Y-97617713D01*
X117802095Y-97665332D01*
X104730780Y-94603903D02*
X104254590Y-94937237D01*
X104730780Y-95175332D02*
X103730780Y-95175332D01*
X103730780Y-94794379D01*
X103778400Y-94699141D01*
X103826019Y-94651522D01*
X103921257Y-94603903D01*
X104064114Y-94603903D01*
X104159352Y-94651522D01*
X104206971Y-94699141D01*
X104254590Y-94794379D01*
X104254590Y-95175332D01*
X104159352Y-94032475D02*
X104111733Y-94127713D01*
X104064114Y-94175332D01*
X103968876Y-94222951D01*
X103921257Y-94222951D01*
X103826019Y-94175332D01*
X103778400Y-94127713D01*
X103730780Y-94032475D01*
X103730780Y-93841998D01*
X103778400Y-93746760D01*
X103826019Y-93699141D01*
X103921257Y-93651522D01*
X103968876Y-93651522D01*
X104064114Y-93699141D01*
X104111733Y-93746760D01*
X104159352Y-93841998D01*
X104159352Y-94032475D01*
X104206971Y-94127713D01*
X104254590Y-94175332D01*
X104349828Y-94222951D01*
X104540304Y-94222951D01*
X104635542Y-94175332D01*
X104683161Y-94127713D01*
X104730780Y-94032475D01*
X104730780Y-93841998D01*
X104683161Y-93746760D01*
X104635542Y-93699141D01*
X104540304Y-93651522D01*
X104349828Y-93651522D01*
X104254590Y-93699141D01*
X104206971Y-93746760D01*
X104159352Y-93841998D01*
X137280952Y-69021141D02*
X137280952Y-68068760D01*
X137566666Y-68830665D02*
X137566666Y-68259237D01*
X136852380Y-68544951D02*
X137280952Y-68544951D01*
X137852380Y-68449713D02*
X137852380Y-68640189D01*
X137852380Y-66878284D02*
X137852380Y-66687808D01*
X137804761Y-66592570D01*
X137757142Y-66544951D01*
X137614285Y-66449713D01*
X137423809Y-66402094D01*
X137042857Y-66402094D01*
X136947619Y-66449713D01*
X136900000Y-66497332D01*
X136852380Y-66592570D01*
X136852380Y-66783046D01*
X136900000Y-66878284D01*
X136947619Y-66925903D01*
X137042857Y-66973522D01*
X137280952Y-66973522D01*
X137376190Y-66925903D01*
X137423809Y-66878284D01*
X137471428Y-66783046D01*
X137471428Y-66592570D01*
X137423809Y-66497332D01*
X137376190Y-66449713D01*
X137280952Y-66402094D01*
X136852380Y-66116379D02*
X137852380Y-65783046D01*
X136852380Y-65449713D01*
X133958380Y-87968094D02*
X133482190Y-88301427D01*
X133958380Y-88539522D02*
X132958380Y-88539522D01*
X132958380Y-88158570D01*
X133006000Y-88063332D01*
X133053619Y-88015713D01*
X133148857Y-87968094D01*
X133291714Y-87968094D01*
X133386952Y-88015713D01*
X133434571Y-88063332D01*
X133482190Y-88158570D01*
X133482190Y-88539522D01*
X133958380Y-87015713D02*
X133958380Y-87587141D01*
X133958380Y-87301427D02*
X132958380Y-87301427D01*
X133101238Y-87396665D01*
X133196476Y-87491903D01*
X133244095Y-87587141D01*
X132958380Y-86396665D02*
X132958380Y-86301427D01*
X133006000Y-86206189D01*
X133053619Y-86158570D01*
X133148857Y-86110951D01*
X133339333Y-86063332D01*
X133577428Y-86063332D01*
X133767904Y-86110951D01*
X133863142Y-86158570D01*
X133910761Y-86206189D01*
X133958380Y-86301427D01*
X133958380Y-86396665D01*
X133910761Y-86491903D01*
X133863142Y-86539522D01*
X133767904Y-86587141D01*
X133577428Y-86634760D01*
X133339333Y-86634760D01*
X133148857Y-86587141D01*
X133053619Y-86539522D01*
X133006000Y-86491903D01*
X132958380Y-86396665D01*
X100030380Y-94603903D02*
X99554190Y-94937237D01*
X100030380Y-95175332D02*
X99030380Y-95175332D01*
X99030380Y-94794379D01*
X99078000Y-94699141D01*
X99125619Y-94651522D01*
X99220857Y-94603903D01*
X99363714Y-94603903D01*
X99458952Y-94651522D01*
X99506571Y-94699141D01*
X99554190Y-94794379D01*
X99554190Y-95175332D01*
X99030380Y-94270570D02*
X99030380Y-93603903D01*
X100030380Y-94032475D01*
X119890000Y-56297617D02*
X120080476Y-56297617D01*
X120175714Y-56345237D01*
X120270952Y-56440475D01*
X120318571Y-56630951D01*
X120318571Y-56964284D01*
X120270952Y-57154760D01*
X120175714Y-57249998D01*
X120080476Y-57297617D01*
X119890000Y-57297617D01*
X119794761Y-57249998D01*
X119699523Y-57154760D01*
X119651904Y-56964284D01*
X119651904Y-56630951D01*
X119699523Y-56440475D01*
X119794761Y-56345237D01*
X119890000Y-56297617D01*
X120747142Y-56297617D02*
X120747142Y-57107141D01*
X120794761Y-57202379D01*
X120842380Y-57249998D01*
X120937619Y-57297617D01*
X121128095Y-57297617D01*
X121223333Y-57249998D01*
X121270952Y-57202379D01*
X121318571Y-57107141D01*
X121318571Y-56297617D01*
X121651904Y-56297617D02*
X122223333Y-56297617D01*
X121937619Y-57297617D02*
X121937619Y-56297617D01*
X129956304Y-62682417D02*
X129956304Y-61682417D01*
X130194400Y-61682417D01*
X130337257Y-61730037D01*
X130432495Y-61825275D01*
X130480114Y-61920513D01*
X130527733Y-62110989D01*
X130527733Y-62253846D01*
X130480114Y-62444322D01*
X130432495Y-62539560D01*
X130337257Y-62634798D01*
X130194400Y-62682417D01*
X129956304Y-62682417D01*
X131480114Y-62682417D02*
X130908685Y-62682417D01*
X131194400Y-62682417D02*
X131194400Y-61682417D01*
X131099161Y-61825275D01*
X131003923Y-61920513D01*
X130908685Y-61968132D01*
X124730095Y-62683617D02*
X124730095Y-61683617D01*
X125301523Y-62683617D02*
X124872952Y-62112189D01*
X125301523Y-61683617D02*
X124730095Y-62255046D01*
X131285333Y-57309617D02*
X130952000Y-56833427D01*
X130713904Y-57309617D02*
X130713904Y-56309617D01*
X131094857Y-56309617D01*
X131190095Y-56357237D01*
X131237714Y-56404856D01*
X131285333Y-56500094D01*
X131285333Y-56642951D01*
X131237714Y-56738189D01*
X131190095Y-56785808D01*
X131094857Y-56833427D01*
X130713904Y-56833427D01*
X132237714Y-57309617D02*
X131666285Y-57309617D01*
X131952000Y-57309617D02*
X131952000Y-56309617D01*
X131856761Y-56452475D01*
X131761523Y-56547713D01*
X131666285Y-56595332D01*
D11*
X122822000Y-90079237D02*
X123137000Y-90079237D01*
X125247000Y-95319237D02*
X125562000Y-95319237D01*
X122822000Y-95319237D02*
X123137000Y-95319237D01*
X122822000Y-95319237D02*
X122822000Y-90079237D01*
X125247000Y-90079237D02*
X125562000Y-90079237D01*
X125562000Y-95319237D02*
X125562000Y-90079237D01*
X132650000Y-74471237D02*
X132650000Y-71731237D01*
X126110000Y-71731237D02*
X126110000Y-74471237D01*
X126110000Y-74471237D02*
X132650000Y-74471237D01*
X125340000Y-73101237D02*
X126110000Y-73101237D01*
X132650000Y-71731237D02*
X126110000Y-71731237D01*
X133420000Y-73101237D02*
X132650000Y-73101237D01*
X101972000Y-71069237D02*
X102742000Y-71069237D01*
X109282000Y-72439237D02*
X109282000Y-69699237D01*
X109282000Y-69699237D02*
X102742000Y-69699237D01*
X110052000Y-71069237D02*
X109282000Y-71069237D01*
X102742000Y-72439237D02*
X109282000Y-72439237D01*
X102742000Y-69699237D02*
X102742000Y-72439237D01*
X132166000Y-84055237D02*
X129426000Y-84055237D01*
X129426000Y-90595237D02*
X132166000Y-90595237D01*
X129426000Y-84055237D02*
X129426000Y-90595237D01*
X130796000Y-91365237D02*
X130796000Y-90595237D01*
X130796000Y-83285237D02*
X130796000Y-84055237D01*
X132166000Y-90595237D02*
X132166000Y-84055237D01*
X123934000Y-64713237D02*
X117814000Y-64713237D01*
X123324000Y-65323237D02*
X121374000Y-65323237D01*
X117814000Y-66023237D02*
X118424000Y-66023237D01*
X119574000Y-64513237D02*
X119274000Y-64513237D01*
X123934000Y-67323237D02*
X123324000Y-67323237D01*
X117814000Y-67323237D02*
X118424000Y-67323237D01*
X117814000Y-69433237D02*
X123934000Y-69433237D01*
X120774000Y-68823237D02*
X120774000Y-68323237D01*
X118764000Y-64413237D02*
X117514000Y-64413237D01*
X120374000Y-64713237D02*
X120374000Y-65323237D01*
X120774000Y-68323237D02*
X120974000Y-68323237D01*
X119574000Y-64713237D02*
X119574000Y-64513237D01*
X123324000Y-68823237D02*
X123324000Y-65323237D01*
X118424000Y-65323237D02*
X118424000Y-68823237D01*
X120974000Y-68323237D02*
X120974000Y-68823237D01*
X123934000Y-66023237D02*
X123324000Y-66023237D01*
X117814000Y-64713237D02*
X117814000Y-69433237D01*
X123934000Y-69433237D02*
X123934000Y-64713237D01*
X120374000Y-65323237D02*
X118424000Y-65323237D01*
X119574000Y-64613237D02*
X119274000Y-64613237D01*
X120874000Y-68823237D02*
X120874000Y-68323237D01*
X121374000Y-65323237D02*
X121374000Y-64713237D01*
X118424000Y-68823237D02*
X123324000Y-68823237D01*
X119274000Y-64513237D02*
X119274000Y-64713237D01*
X117514000Y-64413237D02*
X117514000Y-65663237D01*
X109282000Y-75741237D02*
X109282000Y-73001237D01*
X109282000Y-73001237D02*
X102742000Y-73001237D01*
X102742000Y-75741237D02*
X109282000Y-75741237D01*
X110052000Y-74371237D02*
X109282000Y-74371237D01*
X101972000Y-74371237D02*
X102742000Y-74371237D01*
X102742000Y-73001237D02*
X102742000Y-75741237D01*
X126356000Y-75852237D02*
X127142000Y-75852237D01*
X123841000Y-80498012D02*
X123841000Y-79998012D01*
X123141000Y-76292237D02*
X124276000Y-76292237D01*
X122747000Y-77453237D02*
X124276000Y-77453237D01*
X126356000Y-75892237D02*
X127180000Y-75892237D01*
X123281000Y-76092237D02*
X124276000Y-76092237D01*
X126356000Y-76932237D02*
X127784000Y-76932237D01*
X123092000Y-76372237D02*
X124276000Y-76372237D01*
X123452000Y-75892237D02*
X124276000Y-75892237D01*
X122751000Y-77413237D02*
X124276000Y-77413237D01*
X124218000Y-75332237D02*
X126414000Y-75332237D01*
X124639000Y-75172237D02*
X125993000Y-75172237D01*
X123251000Y-76132237D02*
X124276000Y-76132237D01*
X126356000Y-76452237D02*
X127584000Y-76452237D01*
X126356000Y-75532237D02*
X126759000Y-75532237D01*
X126356000Y-76092237D02*
X127351000Y-76092237D01*
X126356000Y-76172237D02*
X127411000Y-76172237D01*
X126356000Y-75492237D02*
X126699000Y-75492237D01*
X126356000Y-76972237D02*
X127796000Y-76972237D01*
X122780000Y-77213237D02*
X124276000Y-77213237D01*
X126356000Y-76052237D02*
X127320000Y-76052237D01*
X126356000Y-77333237D02*
X127872000Y-77333237D01*
X126356000Y-75732237D02*
X127015000Y-75732237D01*
X123006000Y-76532237D02*
X124276000Y-76532237D01*
X122760000Y-77333237D02*
X124276000Y-77333237D01*
X122836000Y-76972237D02*
X124276000Y-76972237D01*
X126356000Y-77053237D02*
X127817000Y-77053237D01*
X122815000Y-77053237D02*
X124276000Y-77053237D01*
X122848000Y-76932237D02*
X124276000Y-76932237D01*
X126356000Y-75612237D02*
X126870000Y-75612237D01*
X126356000Y-77413237D02*
X127881000Y-77413237D01*
X126356000Y-75412237D02*
X126567000Y-75412237D01*
X123933000Y-75492237D02*
X124276000Y-75492237D01*
X126356000Y-76772237D02*
X127730000Y-76772237D01*
X123531000Y-75812237D02*
X124276000Y-75812237D01*
X122805000Y-77093237D02*
X124276000Y-77093237D01*
X126356000Y-75652237D02*
X126921000Y-75652237D01*
X126356000Y-76692237D02*
X127698000Y-76692237D01*
X126356000Y-76852237D02*
X127758000Y-76852237D01*
X122740000Y-77533237D02*
X127892000Y-77533237D01*
X124798000Y-75132237D02*
X125834000Y-75132237D01*
X122951000Y-76652237D02*
X124276000Y-76652237D01*
X123711000Y-75652237D02*
X124276000Y-75652237D01*
X123617000Y-75732237D02*
X124276000Y-75732237D01*
X123379000Y-75972237D02*
X124276000Y-75972237D01*
X122755000Y-77373237D02*
X124276000Y-77373237D01*
X123873000Y-75532237D02*
X124276000Y-75532237D01*
X123663000Y-75692237D02*
X124276000Y-75692237D01*
X126356000Y-76252237D02*
X127465000Y-76252237D01*
X126356000Y-75692237D02*
X126969000Y-75692237D01*
X122874000Y-76852237D02*
X124276000Y-76852237D01*
X126356000Y-77133237D02*
X127836000Y-77133237D01*
X126356000Y-76812237D02*
X127744000Y-76812237D01*
X123415000Y-75932237D02*
X124276000Y-75932237D01*
X122825000Y-77013237D02*
X124276000Y-77013237D01*
X125032000Y-75092237D02*
X125600000Y-75092237D01*
X122987000Y-76572237D02*
X124276000Y-76572237D01*
X126356000Y-76132237D02*
X127381000Y-76132237D01*
X126356000Y-77213237D02*
X127852000Y-77213237D01*
X122902000Y-76772237D02*
X124276000Y-76772237D01*
X124305000Y-75292237D02*
X126327000Y-75292237D01*
X122918000Y-76732237D02*
X124276000Y-76732237D01*
X123069000Y-76412237D02*
X124276000Y-76412237D01*
X123167000Y-76252237D02*
X124276000Y-76252237D01*
X126356000Y-75812237D02*
X127101000Y-75812237D01*
X123312000Y-76052237D02*
X124276000Y-76052237D01*
X126356000Y-75572237D02*
X126816000Y-75572237D01*
X124401000Y-75252237D02*
X126231000Y-75252237D01*
X122743000Y-77493237D02*
X127889000Y-77493237D01*
X126356000Y-76652237D02*
X127681000Y-76652237D01*
X126356000Y-76292237D02*
X127491000Y-76292237D01*
X122796000Y-77133237D02*
X124276000Y-77133237D01*
X123048000Y-76452237D02*
X124276000Y-76452237D01*
X123762000Y-75612237D02*
X124276000Y-75612237D01*
X126356000Y-76412237D02*
X127563000Y-76412237D01*
X126356000Y-77373237D02*
X127877000Y-77373237D01*
X126356000Y-76572237D02*
X127645000Y-76572237D01*
X122934000Y-76692237D02*
X124276000Y-76692237D01*
X126356000Y-75772237D02*
X127059000Y-75772237D01*
X122766000Y-77293237D02*
X124276000Y-77293237D01*
X126356000Y-77093237D02*
X127827000Y-77093237D01*
X123997000Y-75452237D02*
X124276000Y-75452237D01*
X126356000Y-77453237D02*
X127885000Y-77453237D01*
X123221000Y-76172237D02*
X124276000Y-76172237D01*
X122888000Y-76812237D02*
X124276000Y-76812237D01*
X122773000Y-77253237D02*
X124276000Y-77253237D01*
X123816000Y-75572237D02*
X124276000Y-75572237D01*
X124511000Y-75212237D02*
X126121000Y-75212237D01*
X126356000Y-75452237D02*
X126635000Y-75452237D01*
X126356000Y-76212237D02*
X127438000Y-76212237D01*
X126356000Y-76012237D02*
X127287000Y-76012237D01*
X122861000Y-76892237D02*
X124276000Y-76892237D01*
X126356000Y-77173237D02*
X127844000Y-77173237D01*
X126356000Y-75972237D02*
X127253000Y-75972237D01*
X123490000Y-75852237D02*
X124276000Y-75852237D01*
X126356000Y-76492237D02*
X127606000Y-76492237D01*
X122737000Y-77613237D02*
X127895000Y-77613237D01*
X123345000Y-76012237D02*
X124276000Y-76012237D01*
X122736000Y-77653237D02*
X127896000Y-77653237D01*
X122738000Y-77573237D02*
X127894000Y-77573237D01*
X126356000Y-76892237D02*
X127771000Y-76892237D01*
X126356000Y-77293237D02*
X127866000Y-77293237D01*
X122736000Y-77693237D02*
X127896000Y-77693237D01*
X123194000Y-76212237D02*
X124276000Y-76212237D01*
X123573000Y-75772237D02*
X124276000Y-75772237D01*
X123591000Y-80248012D02*
X124091000Y-80248012D01*
X126356000Y-76332237D02*
X127516000Y-76332237D01*
X126356000Y-76612237D02*
X127664000Y-76612237D01*
X126356000Y-75932237D02*
X127217000Y-75932237D01*
X123026000Y-76492237D02*
X124276000Y-76492237D01*
X124138000Y-75372237D02*
X126494000Y-75372237D01*
X126356000Y-76532237D02*
X127626000Y-76532237D01*
X126356000Y-76732237D02*
X127714000Y-76732237D01*
X126356000Y-77253237D02*
X127859000Y-77253237D01*
X124065000Y-75412237D02*
X124276000Y-75412237D01*
X126356000Y-76372237D02*
X127540000Y-76372237D01*
X122788000Y-77173237D02*
X124276000Y-77173237D01*
X126356000Y-77013237D02*
X127807000Y-77013237D01*
X122968000Y-76612237D02*
X124276000Y-76612237D01*
X123116000Y-76332237D02*
X124276000Y-76332237D01*
X127936000Y-77693237D02*
G75*
G03*
X127936000Y-77693237I-2620000J0D01*
G01*
X109282000Y-76303237D02*
X102742000Y-76303237D01*
X102742000Y-76303237D02*
X102742000Y-79043237D01*
X109282000Y-79043237D02*
X109282000Y-76303237D01*
X102742000Y-79043237D02*
X109282000Y-79043237D01*
X110052000Y-77673237D02*
X109282000Y-77673237D01*
X101972000Y-77673237D02*
X102742000Y-77673237D01*
X112670000Y-79793237D02*
X112670000Y-75053237D01*
X119910000Y-79793237D02*
X119910000Y-75053237D01*
X119910000Y-79793237D02*
X112670000Y-79793237D01*
X119910000Y-75053237D02*
X112670000Y-75053237D01*
X113438400Y-82267237D02*
X113438400Y-82467237D01*
X120098400Y-82467237D02*
X111978400Y-82467237D01*
X120098400Y-87187237D02*
X120098400Y-82467237D01*
X112928400Y-82167237D02*
X111678400Y-82167237D01*
X115138400Y-86077237D02*
X115138400Y-86577237D01*
X120098400Y-85077237D02*
X119488400Y-85077237D01*
X111978400Y-85077237D02*
X112588400Y-85077237D01*
X112588400Y-86577237D02*
X119488400Y-86577237D01*
X116938400Y-86077237D02*
X117138400Y-86077237D01*
X115038400Y-86577237D02*
X115038400Y-86077237D01*
X113738400Y-82467237D02*
X113738400Y-82267237D01*
X120098400Y-83777237D02*
X119488400Y-83777237D01*
X114938400Y-86077237D02*
X115138400Y-86077237D01*
X117038400Y-86577237D02*
X117038400Y-86077237D01*
X119488400Y-86577237D02*
X119488400Y-83077237D01*
X117538400Y-83077237D02*
X117538400Y-82467237D01*
X111978400Y-83777237D02*
X112588400Y-83777237D01*
X111978400Y-82467237D02*
X111978400Y-87187237D01*
X111678400Y-82167237D02*
X111678400Y-83417237D01*
X112588400Y-83077237D02*
X112588400Y-86577237D01*
X113738400Y-82367237D02*
X113438400Y-82367237D01*
X114538400Y-82467237D02*
X114538400Y-83077237D01*
X113738400Y-82267237D02*
X113438400Y-82267237D01*
X119488400Y-83077237D02*
X117538400Y-83077237D01*
X117138400Y-86077237D02*
X117138400Y-86577237D01*
X114538400Y-83077237D02*
X112588400Y-83077237D01*
X111978400Y-87187237D02*
X120098400Y-87187237D01*
X116938400Y-86577237D02*
X116938400Y-86077237D01*
X114938400Y-86577237D02*
X114938400Y-86077237D01*
X119910000Y-69953237D02*
X112670000Y-69953237D01*
X119910000Y-74693237D02*
X112670000Y-74693237D01*
X112670000Y-74693237D02*
X112670000Y-69953237D01*
X119910000Y-74693237D02*
X119910000Y-69953237D01*
X142072000Y-84055237D02*
X139332000Y-84055237D01*
X142072000Y-90595237D02*
X142072000Y-84055237D01*
X139332000Y-90595237D02*
X142072000Y-90595237D01*
X139332000Y-84055237D02*
X139332000Y-90595237D01*
X140702000Y-91365237D02*
X140702000Y-90595237D01*
X140702000Y-83285237D02*
X140702000Y-84055237D01*
X109255000Y-87835237D02*
X109255000Y-94175237D01*
X119025000Y-87835237D02*
X119025000Y-94175237D01*
X109255000Y-94175237D02*
X119025000Y-94175237D01*
X109255000Y-87835237D02*
X119025000Y-87835237D01*
X142706000Y-60401237D02*
X142206000Y-60401237D01*
X138596000Y-63461237D02*
X143316000Y-63461237D01*
X141206000Y-63461237D02*
X141206000Y-62851237D01*
X138596000Y-57341237D02*
X138596000Y-63461237D01*
X143316000Y-57341237D02*
X138596000Y-57341237D01*
X138396000Y-62001237D02*
X138596000Y-62001237D01*
X138496000Y-61701237D02*
X138496000Y-62001237D01*
X138296000Y-63761237D02*
X139546000Y-63761237D01*
X142706000Y-60501237D02*
X142206000Y-60501237D01*
X139906000Y-63461237D02*
X139906000Y-62851237D01*
X139206000Y-62851237D02*
X142706000Y-62851237D01*
X139206000Y-59901237D02*
X138596000Y-59901237D01*
X138596000Y-60901237D02*
X139206000Y-60901237D01*
X139206000Y-57951237D02*
X139206000Y-59901237D01*
X138596000Y-61701237D02*
X138396000Y-61701237D01*
X138296000Y-62511237D02*
X138296000Y-63761237D01*
X142706000Y-62851237D02*
X142706000Y-57951237D01*
X139906000Y-57341237D02*
X139906000Y-57951237D01*
X142706000Y-57951237D02*
X139206000Y-57951237D01*
X143316000Y-63461237D02*
X143316000Y-57341237D01*
X138396000Y-61701237D02*
X138396000Y-62001237D01*
X139206000Y-60901237D02*
X139206000Y-62851237D01*
X142206000Y-60301237D02*
X142706000Y-60301237D01*
X141206000Y-57341237D02*
X141206000Y-57951237D01*
X142206000Y-60501237D02*
X142206000Y-60301237D01*
X111920000Y-58103237D02*
X116660000Y-58103237D01*
X111920000Y-65343237D02*
X111920000Y-58103237D01*
X116660000Y-65343237D02*
X116660000Y-58103237D01*
X111920000Y-65343237D02*
X116660000Y-65343237D01*
X99831000Y-79347237D02*
X99831000Y-86587237D01*
X102071000Y-86587237D02*
X99831000Y-86587237D01*
X102071000Y-79347237D02*
X102071000Y-86587237D01*
X102071000Y-79347237D02*
X99831000Y-79347237D01*
X125438000Y-69375237D02*
X125438000Y-64635237D01*
X132678000Y-64635237D02*
X125438000Y-64635237D01*
X132678000Y-69375237D02*
X125438000Y-69375237D01*
X132678000Y-69375237D02*
X132678000Y-64635237D01*
X131461000Y-77009237D02*
X132912000Y-77009237D01*
X134992000Y-77409237D02*
X136517000Y-77409237D01*
X131604000Y-76608237D02*
X132912000Y-76608237D01*
X133275000Y-75168237D02*
X134629000Y-75168237D01*
X134992000Y-76768237D02*
X136366000Y-76768237D01*
X132509000Y-75528237D02*
X135395000Y-75528237D01*
X134992000Y-75808237D02*
X135737000Y-75808237D01*
X133037000Y-75248237D02*
X134867000Y-75248237D01*
X132015000Y-75968237D02*
X132912000Y-75968237D01*
X131472000Y-76968237D02*
X132912000Y-76968237D01*
X131705000Y-76408237D02*
X132912000Y-76408237D01*
X131662000Y-76488237D02*
X132912000Y-76488237D01*
X134992000Y-76488237D02*
X136242000Y-76488237D01*
X134992000Y-76168237D02*
X136047000Y-76168237D01*
X131587000Y-76648237D02*
X132912000Y-76648237D01*
X134992000Y-76968237D02*
X136432000Y-76968237D01*
X134992000Y-76928237D02*
X136420000Y-76928237D01*
X132774000Y-75368237D02*
X135130000Y-75368237D01*
X134992000Y-75768237D02*
X135695000Y-75768237D01*
X131374000Y-77569237D02*
X132912000Y-77569237D01*
X131981000Y-76008237D02*
X132912000Y-76008237D01*
X134992000Y-75968237D02*
X135889000Y-75968237D01*
X131373000Y-77609237D02*
X132912000Y-77609237D01*
X131372000Y-77689237D02*
X132912000Y-77689237D01*
X131409000Y-77249237D02*
X132912000Y-77249237D01*
X134992000Y-77489237D02*
X136525000Y-77489237D01*
X131948000Y-76048237D02*
X132912000Y-76048237D01*
X134992000Y-76048237D02*
X135956000Y-76048237D01*
X131917000Y-76088237D02*
X132912000Y-76088237D01*
X132477000Y-80494012D02*
X132477000Y-79994012D01*
X131379000Y-77489237D02*
X132912000Y-77489237D01*
X134992000Y-76608237D02*
X136300000Y-76608237D01*
X131441000Y-77089237D02*
X132912000Y-77089237D01*
X131538000Y-76768237D02*
X132912000Y-76768237D01*
X134992000Y-76888237D02*
X136407000Y-76888237D01*
X134992000Y-76208237D02*
X136074000Y-76208237D01*
X131396000Y-77329237D02*
X132912000Y-77329237D01*
X134992000Y-76368237D02*
X136176000Y-76368237D01*
X132398000Y-75608237D02*
X135506000Y-75608237D01*
X132347000Y-75648237D02*
X135557000Y-75648237D01*
X134992000Y-76088237D02*
X135987000Y-76088237D01*
X131497000Y-76888237D02*
X132912000Y-76888237D01*
X131387000Y-77409237D02*
X132912000Y-77409237D01*
X134992000Y-77369237D02*
X136513000Y-77369237D01*
X132854000Y-75328237D02*
X135050000Y-75328237D01*
X131391000Y-77369237D02*
X132912000Y-77369237D01*
X134992000Y-76288237D02*
X136127000Y-76288237D01*
X131383000Y-77449237D02*
X132912000Y-77449237D01*
X134992000Y-76448237D02*
X136220000Y-76448237D01*
X134992000Y-76008237D02*
X135923000Y-76008237D01*
X134992000Y-76568237D02*
X136281000Y-76568237D01*
X131524000Y-76808237D02*
X132912000Y-76808237D01*
X131376000Y-77529237D02*
X132912000Y-77529237D01*
X131402000Y-77289237D02*
X132912000Y-77289237D01*
X132569000Y-75488237D02*
X135335000Y-75488237D01*
X134992000Y-76408237D02*
X136199000Y-76408237D01*
X132299000Y-75688237D02*
X132912000Y-75688237D01*
X131830000Y-76208237D02*
X132912000Y-76208237D01*
X134992000Y-76528237D02*
X136262000Y-76528237D01*
X131554000Y-76728237D02*
X132912000Y-76728237D01*
X134992000Y-75728237D02*
X135651000Y-75728237D01*
X132701000Y-75408237D02*
X135203000Y-75408237D01*
X132167000Y-75808237D02*
X132912000Y-75808237D01*
X134992000Y-77649237D02*
X136532000Y-77649237D01*
X131623000Y-76568237D02*
X132912000Y-76568237D01*
X133668000Y-75088237D02*
X134236000Y-75088237D01*
X134992000Y-77089237D02*
X136463000Y-77089237D01*
X131424000Y-77169237D02*
X132912000Y-77169237D01*
X134992000Y-76248237D02*
X136101000Y-76248237D01*
X131887000Y-76128237D02*
X132912000Y-76128237D01*
X134992000Y-77569237D02*
X136530000Y-77569237D01*
X131570000Y-76688237D02*
X132912000Y-76688237D01*
X134992000Y-75928237D02*
X135853000Y-75928237D01*
X134992000Y-77289237D02*
X136502000Y-77289237D01*
X134992000Y-77609237D02*
X136531000Y-77609237D01*
X131484000Y-76928237D02*
X132912000Y-76928237D01*
X131451000Y-77049237D02*
X132912000Y-77049237D01*
X131803000Y-76248237D02*
X132912000Y-76248237D01*
X132452000Y-75568237D02*
X135452000Y-75568237D01*
X131510000Y-76848237D02*
X132912000Y-76848237D01*
X132126000Y-75848237D02*
X132912000Y-75848237D01*
X134992000Y-75888237D02*
X135816000Y-75888237D01*
X131777000Y-76288237D02*
X132912000Y-76288237D01*
X132051000Y-75928237D02*
X132912000Y-75928237D01*
X134992000Y-77129237D02*
X136472000Y-77129237D01*
X134992000Y-77249237D02*
X136495000Y-77249237D01*
X134992000Y-76648237D02*
X136317000Y-76648237D01*
X131372000Y-77649237D02*
X132912000Y-77649237D01*
X132088000Y-75888237D02*
X132912000Y-75888237D01*
X134992000Y-77049237D02*
X136453000Y-77049237D01*
X134992000Y-77449237D02*
X136521000Y-77449237D01*
X134992000Y-76688237D02*
X136334000Y-76688237D01*
X132209000Y-75768237D02*
X132912000Y-75768237D01*
X131728000Y-76368237D02*
X132912000Y-76368237D01*
X134992000Y-77169237D02*
X136480000Y-77169237D01*
X131752000Y-76328237D02*
X132912000Y-76328237D01*
X134992000Y-77009237D02*
X136443000Y-77009237D01*
X134992000Y-76728237D02*
X136350000Y-76728237D01*
X134992000Y-77329237D02*
X136508000Y-77329237D01*
X134992000Y-77209237D02*
X136488000Y-77209237D01*
X131684000Y-76448237D02*
X132912000Y-76448237D01*
X134992000Y-75688237D02*
X135605000Y-75688237D01*
X132633000Y-75448237D02*
X135271000Y-75448237D01*
X132253000Y-75728237D02*
X132912000Y-75728237D01*
X134992000Y-76848237D02*
X136394000Y-76848237D01*
X134992000Y-76808237D02*
X136380000Y-76808237D01*
X134992000Y-76128237D02*
X136017000Y-76128237D01*
X131416000Y-77209237D02*
X132912000Y-77209237D01*
X134992000Y-77529237D02*
X136528000Y-77529237D01*
X131642000Y-76528237D02*
X132912000Y-76528237D01*
X132227000Y-80244012D02*
X132727000Y-80244012D01*
X132941000Y-75288237D02*
X134963000Y-75288237D01*
X133147000Y-75208237D02*
X134757000Y-75208237D01*
X134992000Y-75848237D02*
X135778000Y-75848237D01*
X131857000Y-76168237D02*
X132912000Y-76168237D01*
X131432000Y-77129237D02*
X132912000Y-77129237D01*
X133434000Y-75128237D02*
X134470000Y-75128237D01*
X134992000Y-76328237D02*
X136152000Y-76328237D01*
X134992000Y-77689237D02*
X136532000Y-77689237D01*
X136572000Y-77689237D02*
G75*
G03*
X136572000Y-77689237I-2620000J0D01*
G01*
X138332000Y-72275237D02*
X138332000Y-79515237D01*
X143072000Y-72275237D02*
X138332000Y-72275237D01*
X143072000Y-79515237D02*
X138332000Y-79515237D01*
X143072000Y-72275237D02*
X143072000Y-79515237D01*
X100950000Y-68533237D02*
X111450000Y-68533237D01*
X103950000Y-58193237D02*
X103950000Y-68473237D01*
X100950000Y-58133237D02*
X100950000Y-68533237D01*
X111450000Y-68533237D02*
X111450000Y-58133237D01*
X105200000Y-58193237D02*
X103950000Y-58193237D01*
X111450000Y-58133237D02*
X100950000Y-58133237D01*
X108450000Y-68473237D02*
X108450000Y-58193237D01*
X103950000Y-68473237D02*
X108450000Y-68473237D01*
X108450000Y-58193237D02*
X107200000Y-58193237D01*
X105200000Y-58193237D02*
G75*
G03*
X107200000Y-58193237I1000000J0D01*
G01*
X103546000Y-83077237D02*
X103546000Y-86577237D01*
X110446000Y-86577237D02*
X110446000Y-83077237D01*
X105896000Y-86577237D02*
X105896000Y-86077237D01*
X102636000Y-82167237D02*
X102636000Y-83417237D01*
X104696000Y-82267237D02*
X104396000Y-82267237D01*
X102936000Y-85077237D02*
X103546000Y-85077237D01*
X105896000Y-86077237D02*
X106096000Y-86077237D01*
X108096000Y-86077237D02*
X108096000Y-86577237D01*
X110446000Y-83077237D02*
X108496000Y-83077237D01*
X105496000Y-83077237D02*
X103546000Y-83077237D01*
X103886000Y-82167237D02*
X102636000Y-82167237D01*
X107896000Y-86577237D02*
X107896000Y-86077237D01*
X111056000Y-82467237D02*
X102936000Y-82467237D01*
X107996000Y-86577237D02*
X107996000Y-86077237D01*
X111056000Y-85077237D02*
X110446000Y-85077237D01*
X104696000Y-82367237D02*
X104396000Y-82367237D01*
X111056000Y-87187237D02*
X111056000Y-82467237D01*
X105496000Y-82467237D02*
X105496000Y-83077237D01*
X103546000Y-86577237D02*
X110446000Y-86577237D01*
X108496000Y-83077237D02*
X108496000Y-82467237D01*
X102936000Y-82467237D02*
X102936000Y-87187237D01*
X104696000Y-82467237D02*
X104696000Y-82267237D01*
X106096000Y-86077237D02*
X106096000Y-86577237D01*
X107896000Y-86077237D02*
X108096000Y-86077237D01*
X102936000Y-87187237D02*
X111056000Y-87187237D01*
X105996000Y-86577237D02*
X105996000Y-86077237D01*
X102936000Y-83777237D02*
X103546000Y-83777237D01*
X104396000Y-82267237D02*
X104396000Y-82467237D01*
X111056000Y-83777237D02*
X110446000Y-83777237D01*
X129442000Y-97485237D02*
X130432000Y-97485237D01*
X130432000Y-99405237D02*
X138272000Y-99405237D01*
X130432000Y-95565237D02*
X130432000Y-99405237D01*
X131812000Y-95565237D02*
X131812000Y-99405237D01*
X138272000Y-95565237D02*
X130432000Y-95565237D01*
X131572000Y-95565237D02*
X131572000Y-99405237D01*
X139262000Y-97485237D02*
X138272000Y-97485237D01*
X131692000Y-95565237D02*
X131692000Y-99405237D01*
X138272000Y-99405237D02*
X138272000Y-95565237D01*
X124657000Y-83204237D02*
X124657000Y-82594237D01*
X126607000Y-86704237D02*
X126607000Y-83204237D01*
X127217000Y-85204237D02*
X126607000Y-85204237D01*
X127217000Y-87314237D02*
X127217000Y-82594237D01*
X124057000Y-86204237D02*
X124257000Y-86204237D01*
X121097000Y-83904237D02*
X121707000Y-83904237D01*
X121707000Y-86704237D02*
X126607000Y-86704237D01*
X122557000Y-82394237D02*
X122557000Y-82594237D01*
X126607000Y-83204237D02*
X124657000Y-83204237D01*
X121097000Y-85204237D02*
X121707000Y-85204237D01*
X127217000Y-83904237D02*
X126607000Y-83904237D01*
X122857000Y-82594237D02*
X122857000Y-82394237D01*
X124057000Y-86704237D02*
X124057000Y-86204237D01*
X123657000Y-82594237D02*
X123657000Y-83204237D01*
X124257000Y-86204237D02*
X124257000Y-86704237D01*
X121707000Y-83204237D02*
X121707000Y-86704237D01*
X124157000Y-86704237D02*
X124157000Y-86204237D01*
X121097000Y-82594237D02*
X121097000Y-87314237D01*
X122047000Y-82294237D02*
X120797000Y-82294237D01*
X120797000Y-82294237D02*
X120797000Y-83544237D01*
X122857000Y-82394237D02*
X122557000Y-82394237D01*
X122857000Y-82494237D02*
X122557000Y-82494237D01*
X121097000Y-87314237D02*
X127217000Y-87314237D01*
X123657000Y-83204237D02*
X121707000Y-83204237D01*
X127217000Y-82594237D02*
X121097000Y-82594237D01*
X112764000Y-99573237D02*
X112764000Y-98643237D01*
X112764000Y-99573237D02*
X115924000Y-99573237D01*
X112764000Y-96413237D02*
X114224000Y-96413237D01*
X112764000Y-96413237D02*
X112764000Y-97343237D01*
X107890000Y-97707237D02*
X107890000Y-91167237D01*
X105150000Y-91167237D02*
X105150000Y-97707237D01*
X106520000Y-98477237D02*
X106520000Y-97707237D01*
X106520000Y-90397237D02*
X106520000Y-91167237D01*
X107890000Y-91167237D02*
X105150000Y-91167237D01*
X105150000Y-97707237D02*
X107890000Y-97707237D01*
X142206000Y-67613237D02*
X142206000Y-67413237D01*
X138296000Y-70873237D02*
X139546000Y-70873237D01*
X138396000Y-68813237D02*
X138396000Y-69113237D01*
X143316000Y-70573237D02*
X143316000Y-64453237D01*
X139206000Y-68013237D02*
X139206000Y-69963237D01*
X142706000Y-65063237D02*
X139206000Y-65063237D01*
X138596000Y-68013237D02*
X139206000Y-68013237D01*
X138496000Y-68813237D02*
X138496000Y-69113237D01*
X141206000Y-64453237D02*
X141206000Y-65063237D01*
X142706000Y-67513237D02*
X142206000Y-67513237D01*
X141206000Y-70573237D02*
X141206000Y-69963237D01*
X143316000Y-64453237D02*
X138596000Y-64453237D01*
X139206000Y-65063237D02*
X139206000Y-67013237D01*
X142706000Y-69963237D02*
X142706000Y-65063237D01*
X142706000Y-67613237D02*
X142206000Y-67613237D01*
X138596000Y-68813237D02*
X138396000Y-68813237D01*
X139906000Y-64453237D02*
X139906000Y-65063237D01*
X139206000Y-69963237D02*
X142706000Y-69963237D01*
X138296000Y-69623237D02*
X138296000Y-70873237D01*
X138596000Y-64453237D02*
X138596000Y-70573237D01*
X139206000Y-67013237D02*
X138596000Y-67013237D01*
X139906000Y-70573237D02*
X139906000Y-69963237D01*
X138396000Y-69113237D02*
X138596000Y-69113237D01*
X138596000Y-70573237D02*
X143316000Y-70573237D01*
X142206000Y-67413237D02*
X142706000Y-67413237D01*
X135876000Y-91365237D02*
X135876000Y-90595237D01*
X137246000Y-84055237D02*
X134506000Y-84055237D01*
X134506000Y-90595237D02*
X137246000Y-90595237D01*
X137246000Y-90595237D02*
X137246000Y-84055237D01*
X134506000Y-84055237D02*
X134506000Y-90595237D01*
X135876000Y-83285237D02*
X135876000Y-84055237D01*
X125120612Y-97590204D02*
X125120612Y-99490204D01*
X123220612Y-97590204D02*
X125120612Y-97590204D01*
X125120612Y-99490204D02*
X123220612Y-99490204D01*
X123220612Y-99490204D02*
X123220612Y-97590204D01*
X103318000Y-91167237D02*
X100578000Y-91167237D01*
X103318000Y-97707237D02*
X103318000Y-91167237D01*
X100578000Y-97707237D02*
X103318000Y-97707237D01*
X101948000Y-98477237D02*
X101948000Y-97707237D01*
X101948000Y-90397237D02*
X101948000Y-91167237D01*
X100578000Y-91167237D02*
X100578000Y-97707237D01*
X119590000Y-58041237D02*
X119590000Y-57841237D01*
X119290000Y-57841237D02*
X119290000Y-58041237D01*
X120790000Y-62151237D02*
X120790000Y-61651237D01*
X117830000Y-62761237D02*
X123950000Y-62761237D01*
X119590000Y-57841237D02*
X119290000Y-57841237D01*
X118780000Y-57741237D02*
X117530000Y-57741237D01*
X119590000Y-57941237D02*
X119290000Y-57941237D01*
X120890000Y-62151237D02*
X120890000Y-61651237D01*
X120990000Y-61651237D02*
X120990000Y-62151237D01*
X123340000Y-58651237D02*
X121390000Y-58651237D01*
X117830000Y-59351237D02*
X118440000Y-59351237D01*
X123950000Y-60651237D02*
X123340000Y-60651237D01*
X120390000Y-58651237D02*
X118440000Y-58651237D01*
X120390000Y-58041237D02*
X120390000Y-58651237D01*
X120790000Y-61651237D02*
X120990000Y-61651237D01*
X123950000Y-62761237D02*
X123950000Y-58041237D01*
X123950000Y-59351237D02*
X123340000Y-59351237D01*
X123340000Y-62151237D02*
X123340000Y-58651237D01*
X123950000Y-58041237D02*
X117830000Y-58041237D01*
X117530000Y-57741237D02*
X117530000Y-58991237D01*
X118440000Y-58651237D02*
X118440000Y-62151237D01*
X121390000Y-58651237D02*
X121390000Y-58041237D01*
X117830000Y-58041237D02*
X117830000Y-62761237D01*
X117830000Y-60651237D02*
X118440000Y-60651237D01*
X118440000Y-62151237D02*
X123340000Y-62151237D01*
X128888000Y-61059237D02*
X128888000Y-63299237D01*
X128168000Y-63299237D02*
X132408000Y-63299237D01*
X132408000Y-61059237D02*
X128168000Y-61059237D01*
X128168000Y-61059237D02*
X128168000Y-63299237D01*
X127518000Y-62179237D02*
X128168000Y-62179237D01*
X128768000Y-61059237D02*
X128768000Y-63299237D01*
X129008000Y-61059237D02*
X129008000Y-63299237D01*
X133058000Y-62179237D02*
X132408000Y-62179237D01*
X132408000Y-63299237D02*
X132408000Y-61059237D01*
X128288000Y-57507237D02*
X128288000Y-60247237D01*
X127518000Y-58877237D02*
X128288000Y-58877237D01*
X134828000Y-57507237D02*
X128288000Y-57507237D01*
X128288000Y-60247237D02*
X134828000Y-60247237D01*
X134828000Y-60247237D02*
X134828000Y-57507237D01*
X135598000Y-58877237D02*
X134828000Y-58877237D01*
X112897200Y-37911817D02*
X129897200Y-37911817D01*
X129897200Y-37911817D02*
X129897200Y-55911817D01*
X129897200Y-55911817D02*
X112897200Y-55911817D01*
X112897200Y-55911817D02*
X112897200Y-37911817D01*
%LPC*%
D12*
X124192000Y-95199237D03*
X124192000Y-90199237D03*
X134460000Y-73101237D03*
D13*
X124300000Y-73101237D03*
D12*
X111092000Y-71069237D03*
D13*
X100932000Y-71069237D03*
D12*
X130796000Y-82245237D03*
D13*
X130796000Y-92405237D03*
D14*
X119874000Y-66523237D03*
D15*
X121874000Y-66523237D03*
D12*
X100932000Y-74371237D03*
D13*
X111092000Y-74371237D03*
D16*
X125316000Y-78943237D03*
D12*
X125316000Y-76443237D03*
X111092000Y-77673237D03*
D13*
X100932000Y-77673237D03*
D12*
X118790000Y-77423237D03*
X113790000Y-77423237D03*
D14*
X114038400Y-84277237D03*
D15*
X116038400Y-84277237D03*
X118038400Y-84277237D03*
D12*
X118790000Y-72323237D03*
X113790000Y-72323237D03*
X140702000Y-92405237D03*
D13*
X140702000Y-82245237D03*
D17*
X116680000Y-89865237D03*
X114140000Y-89865237D03*
X111600000Y-89865237D03*
D18*
X140406000Y-61401237D03*
D19*
X140406000Y-59401237D03*
D12*
X114290000Y-64223237D03*
X114290000Y-59223237D03*
X100951000Y-80467237D03*
X100951000Y-85467237D03*
X131558000Y-67005237D03*
X126558000Y-67005237D03*
D16*
X133952000Y-78689237D03*
D12*
X133952000Y-76689237D03*
X140702000Y-73395237D03*
X140702000Y-78395237D03*
D20*
X102390000Y-59523237D03*
D21*
X102390000Y-62063237D03*
X102390000Y-64603237D03*
X102390000Y-67143237D03*
X110010000Y-67143237D03*
X110010000Y-64603237D03*
X110010000Y-62063237D03*
X110010000Y-59523237D03*
D14*
X104996000Y-84277237D03*
D15*
X106996000Y-84277237D03*
X108996000Y-84277237D03*
D22*
X128002000Y-97485237D03*
D23*
X140702000Y-97485237D03*
D14*
X123157000Y-84404237D03*
D15*
X125157000Y-84404237D03*
D24*
X115024000Y-98943237D03*
X115024000Y-97043237D03*
X112024000Y-97993237D03*
D12*
X106520000Y-89357237D03*
D13*
X106520000Y-99517237D03*
D18*
X140406000Y-68513237D03*
D19*
X140406000Y-66513237D03*
D12*
X135876000Y-92405237D03*
D13*
X135876000Y-82245237D03*
D25*
X124170612Y-98540204D03*
D12*
X101948000Y-99517237D03*
D13*
X101948000Y-89357237D03*
D14*
X119890000Y-59851237D03*
D15*
X121890000Y-59851237D03*
D16*
X126478000Y-62179237D03*
D13*
X134098000Y-62179237D03*
D12*
X126478000Y-58877237D03*
D13*
X136638000Y-58877237D03*
D26*
X116696440Y-41911817D03*
X121398000Y-41911817D03*
X126096440Y-41911817D03*
X116696440Y-46911297D03*
X121398000Y-46911297D03*
X126096440Y-46911297D03*
X116697200Y-52011817D03*
X121398760Y-52011817D03*
X126097200Y-52011817D03*
M02*
