%FSLAX45Y45*%
G04 Gerber Fmt 4.5, Leading zero omitted, Abs format (unit mm)*
G04 Created by KiCad (PCBNEW (6.0.0)) date 2022-07-26 20:36:20*
%MOMM*%
%LPD*%
G01*
G04 APERTURE LIST*
%TA.AperFunction,Profile*%
%ADD10C,0.100000*%
%TD*%
%ADD11C,0.200000*%
%ADD12C,0.040000*%
%ADD13C,0.070000*%
%ADD14C,0.075000*%
%ADD15C,0.080000*%
%ADD16C,0.120000*%
%ADD17C,0.127000*%
G04 APERTURE END LIST*
D10*
X9779000Y-3428124D02*
X14467520Y-3428124D01*
X14467520Y-3428124D02*
X14467520Y-10180324D01*
X14467520Y-10180324D02*
X9779000Y-10180324D01*
X9779000Y-10180324D02*
X9779000Y-3428124D01*
D11*
D12*
X9880000Y-3580000D02*
X9920000Y-3620000D01*
X9920000Y-3580000D02*
X9880000Y-3620000D01*
X9880000Y-4480000D02*
X9920000Y-4520000D01*
X9920000Y-4480000D02*
X9880000Y-4520000D01*
X9880000Y-5380000D02*
X9920000Y-5420000D01*
X9920000Y-5380000D02*
X9880000Y-5420000D01*
X9880000Y-6280000D02*
X9920000Y-6320000D01*
X9920000Y-6280000D02*
X9880000Y-6320000D01*
X9880000Y-7180000D02*
X9920000Y-7220000D01*
X9920000Y-7180000D02*
X9880000Y-7220000D01*
X9880000Y-8080000D02*
X9920000Y-8120000D01*
X9920000Y-8080000D02*
X9880000Y-8120000D01*
X9886000Y-8806500D02*
X9926000Y-8846500D01*
X9926000Y-8806500D02*
X9886000Y-8846500D01*
X9891080Y-10002840D02*
X9931080Y-10042840D01*
X9931080Y-10002840D02*
X9891080Y-10042840D01*
X10780000Y-3580000D02*
X10820000Y-3620000D01*
X10820000Y-3580000D02*
X10780000Y-3620000D01*
X10846120Y-10018080D02*
X10886120Y-10058080D01*
X10886120Y-10018080D02*
X10846120Y-10058080D01*
X11637760Y-10023160D02*
X11677760Y-10063160D01*
X11677760Y-10023160D02*
X11637760Y-10063160D01*
X12537760Y-10023160D02*
X12577760Y-10063160D01*
X12577760Y-10023160D02*
X12537760Y-10063160D01*
X12580000Y-3580000D02*
X12620000Y-3620000D01*
X12620000Y-3580000D02*
X12580000Y-3620000D01*
X13074840Y-5898204D02*
X13114840Y-5938204D01*
X13114840Y-5898204D02*
X13074840Y-5938204D01*
X13437760Y-10023160D02*
X13477760Y-10063160D01*
X13477760Y-10023160D02*
X13437760Y-10063160D01*
X13480000Y-3580000D02*
X13520000Y-3620000D01*
X13520000Y-3580000D02*
X13480000Y-3620000D01*
X14315760Y-10023160D02*
X14355760Y-10063160D01*
X14355760Y-10023160D02*
X14315760Y-10063160D01*
X14320840Y-3586800D02*
X14360840Y-3626800D01*
X14360840Y-3586800D02*
X14320840Y-3626800D01*
X14320840Y-4480000D02*
X14360840Y-4520000D01*
X14360840Y-4480000D02*
X14320840Y-4520000D01*
X14320840Y-5374960D02*
X14360840Y-5414960D01*
X14360840Y-5374960D02*
X14320840Y-5414960D01*
X14325920Y-6076000D02*
X14365920Y-6116000D01*
X14365920Y-6076000D02*
X14325920Y-6116000D01*
X14325920Y-9215440D02*
X14365920Y-9255440D01*
X14365920Y-9215440D02*
X14325920Y-9255440D01*
D13*
X12452061Y-9854020D02*
G75*
G03*
X12452061Y-9854020I-35000J0D01*
G01*
D14*
X10499600Y-8390224D02*
X10499600Y-8465224D01*
X10462100Y-8427724D02*
X10537100Y-8427724D01*
X10699600Y-8390224D02*
X10699600Y-8465224D01*
X10662100Y-8427724D02*
X10737100Y-8427724D01*
X10899600Y-8390224D02*
X10899600Y-8465224D01*
X10862100Y-8427724D02*
X10937100Y-8427724D01*
X11403840Y-8390224D02*
X11403840Y-8465224D01*
X11366340Y-8427724D02*
X11441340Y-8427724D01*
X11603840Y-8390224D02*
X11603840Y-8465224D01*
X11566340Y-8427724D02*
X11641340Y-8427724D01*
X11803840Y-8390224D02*
X11803840Y-8465224D01*
X11766340Y-8427724D02*
X11841340Y-8427724D01*
X11987400Y-6614824D02*
X11987400Y-6689824D01*
X11949900Y-6652324D02*
X12024900Y-6652324D01*
X11989000Y-5947624D02*
X11989000Y-6022624D01*
X11951500Y-5985124D02*
X12026500Y-5985124D01*
X12187400Y-6614824D02*
X12187400Y-6689824D01*
X12149900Y-6652324D02*
X12224900Y-6652324D01*
X12189000Y-5947624D02*
X12189000Y-6022624D01*
X12151500Y-5985124D02*
X12226500Y-5985124D01*
X12315700Y-8402924D02*
X12315700Y-8477924D01*
X12278200Y-8440424D02*
X12353200Y-8440424D01*
X12515700Y-8402924D02*
X12515700Y-8477924D01*
X12478200Y-8440424D02*
X12553200Y-8440424D01*
X14040600Y-5902624D02*
X14040600Y-5977624D01*
X14003100Y-5940124D02*
X14078100Y-5940124D01*
X14040600Y-6102624D02*
X14040600Y-6177624D01*
X14003100Y-6140124D02*
X14078100Y-6140124D01*
X14040600Y-6613824D02*
X14040600Y-6688824D01*
X14003100Y-6651324D02*
X14078100Y-6651324D01*
X14040600Y-6813824D02*
X14040600Y-6888824D01*
X14003100Y-6851324D02*
X14078100Y-6851324D01*
D15*
X10121485Y-7135208D02*
X10121485Y-7078639D01*
X10064916Y-7078639D01*
X10064916Y-7135208D01*
X10121485Y-7135208D01*
X10121485Y-7465408D02*
X10121485Y-7408839D01*
X10064916Y-7408839D01*
X10064916Y-7465408D01*
X10121485Y-7465408D01*
X10121485Y-7795608D02*
X10121485Y-7739039D01*
X10064916Y-7739039D01*
X10064916Y-7795608D01*
X10121485Y-7795608D01*
X10123385Y-8075008D02*
X10123385Y-8018439D01*
X10066816Y-8018439D01*
X10066816Y-8075008D01*
X10123385Y-8075008D01*
X10123385Y-8575008D02*
X10123385Y-8518439D01*
X10066816Y-8518439D01*
X10066816Y-8575008D01*
X10123385Y-8575008D01*
X10223085Y-8964008D02*
X10223085Y-8907439D01*
X10166516Y-8907439D01*
X10166516Y-8964008D01*
X10223085Y-8964008D01*
X10223085Y-9980008D02*
X10223085Y-9923439D01*
X10166516Y-9923439D01*
X10166516Y-9980008D01*
X10223085Y-9980008D01*
X10267285Y-5980608D02*
X10267285Y-5924039D01*
X10210716Y-5924039D01*
X10210716Y-5980608D01*
X10267285Y-5980608D01*
X10267285Y-6234608D02*
X10267285Y-6178039D01*
X10210716Y-6178039D01*
X10210716Y-6234608D01*
X10267285Y-6234608D01*
X10267285Y-6488608D02*
X10267285Y-6432039D01*
X10210716Y-6432039D01*
X10210716Y-6488608D01*
X10267285Y-6488608D01*
X10267285Y-6742608D02*
X10267285Y-6686039D01*
X10210716Y-6686039D01*
X10210716Y-6742608D01*
X10267285Y-6742608D01*
X10680285Y-8964008D02*
X10680285Y-8907439D01*
X10623716Y-8907439D01*
X10623716Y-8964008D01*
X10680285Y-8964008D01*
X10680285Y-9980008D02*
X10680285Y-9923439D01*
X10623716Y-9923439D01*
X10623716Y-9980008D01*
X10680285Y-9980008D01*
X11029285Y-5980608D02*
X11029285Y-5924039D01*
X10972716Y-5924039D01*
X10972716Y-5980608D01*
X11029285Y-5980608D01*
X11029285Y-6234608D02*
X11029285Y-6178039D01*
X10972716Y-6178039D01*
X10972716Y-6234608D01*
X11029285Y-6234608D01*
X11029285Y-6488608D02*
X11029285Y-6432039D01*
X10972716Y-6432039D01*
X10972716Y-6488608D01*
X11029285Y-6488608D01*
X11029285Y-6742608D02*
X11029285Y-6686039D01*
X10972716Y-6686039D01*
X10972716Y-6742608D01*
X11029285Y-6742608D01*
X11137485Y-7135208D02*
X11137485Y-7078639D01*
X11080916Y-7078639D01*
X11080916Y-7135208D01*
X11137485Y-7135208D01*
X11137485Y-7465408D02*
X11137485Y-7408839D01*
X11080916Y-7408839D01*
X11080916Y-7465408D01*
X11137485Y-7465408D01*
X11137485Y-7795608D02*
X11137485Y-7739039D01*
X11080916Y-7739039D01*
X11080916Y-7795608D01*
X11137485Y-7795608D01*
X11188284Y-9014808D02*
X11188284Y-8958239D01*
X11131716Y-8958239D01*
X11131716Y-9014808D01*
X11188284Y-9014808D01*
X11407284Y-7260608D02*
X11407284Y-7204039D01*
X11350715Y-7204039D01*
X11350715Y-7260608D01*
X11407284Y-7260608D01*
X11407284Y-7770608D02*
X11407284Y-7714039D01*
X11350715Y-7714039D01*
X11350715Y-7770608D01*
X11407284Y-7770608D01*
X11442284Y-9014808D02*
X11442284Y-8958239D01*
X11385715Y-8958239D01*
X11385715Y-9014808D01*
X11442284Y-9014808D01*
X11457284Y-5950608D02*
X11457284Y-5894039D01*
X11400715Y-5894039D01*
X11400715Y-5950608D01*
X11457284Y-5950608D01*
X11457284Y-6450608D02*
X11457284Y-6394039D01*
X11400715Y-6394039D01*
X11400715Y-6450608D01*
X11457284Y-6450608D01*
X11696284Y-9014808D02*
X11696284Y-8958239D01*
X11639715Y-8958239D01*
X11639715Y-9014808D01*
X11696284Y-9014808D01*
X11907284Y-7260608D02*
X11907284Y-7204039D01*
X11850715Y-7204039D01*
X11850715Y-7260608D01*
X11907284Y-7260608D01*
X11907284Y-7770608D02*
X11907284Y-7714039D01*
X11850715Y-7714039D01*
X11850715Y-7770608D01*
X11907284Y-7770608D01*
X12447484Y-9048208D02*
X12447484Y-8991639D01*
X12390915Y-8991639D01*
X12390915Y-9048208D01*
X12447484Y-9048208D01*
X12447484Y-9548208D02*
X12447484Y-9491639D01*
X12390915Y-9491639D01*
X12390915Y-9548208D01*
X12447484Y-9548208D01*
X12458284Y-7338408D02*
X12458284Y-7281839D01*
X12401715Y-7281839D01*
X12401715Y-7338408D01*
X12458284Y-7338408D01*
X12559884Y-7672608D02*
X12559884Y-7616039D01*
X12503315Y-7616039D01*
X12503315Y-7672608D01*
X12559884Y-7672608D01*
X12559884Y-7922608D02*
X12559884Y-7866039D01*
X12503315Y-7866039D01*
X12503315Y-7922608D01*
X12559884Y-7922608D01*
X12676084Y-5916008D02*
X12676084Y-5859439D01*
X12619515Y-5859439D01*
X12619515Y-5916008D01*
X12676084Y-5916008D01*
X12676084Y-6246208D02*
X12676084Y-6189639D01*
X12619515Y-6189639D01*
X12619515Y-6246208D01*
X12676084Y-6246208D01*
X12684084Y-6728808D02*
X12684084Y-6672239D01*
X12627515Y-6672239D01*
X12627515Y-6728808D01*
X12684084Y-6728808D01*
X13107884Y-8252808D02*
X13107884Y-8196239D01*
X13051315Y-8196239D01*
X13051315Y-8252808D01*
X13107884Y-8252808D01*
X13107884Y-9268808D02*
X13107884Y-9212239D01*
X13051315Y-9212239D01*
X13051315Y-9268808D01*
X13107884Y-9268808D01*
X13184084Y-6728808D02*
X13184084Y-6672239D01*
X13127515Y-6672239D01*
X13127515Y-6728808D01*
X13184084Y-6728808D01*
X13423484Y-7697208D02*
X13423484Y-7640639D01*
X13366915Y-7640639D01*
X13366915Y-7697208D01*
X13423484Y-7697208D01*
X13423484Y-7897208D02*
X13423484Y-7840639D01*
X13366915Y-7840639D01*
X13366915Y-7897208D01*
X13423484Y-7897208D01*
X13438084Y-6246208D02*
X13438084Y-6189639D01*
X13381515Y-6189639D01*
X13381515Y-6246208D01*
X13438084Y-6246208D01*
X13474284Y-7338408D02*
X13474284Y-7281839D01*
X13417715Y-7281839D01*
X13417715Y-7338408D01*
X13474284Y-7338408D01*
X13615884Y-8252808D02*
X13615884Y-8196239D01*
X13559315Y-8196239D01*
X13559315Y-8252808D01*
X13615884Y-8252808D01*
X13615884Y-9268808D02*
X13615884Y-9212239D01*
X13559315Y-9212239D01*
X13559315Y-9268808D01*
X13615884Y-9268808D01*
X13692084Y-5916008D02*
X13692084Y-5859439D01*
X13635515Y-5859439D01*
X13635515Y-5916008D01*
X13692084Y-5916008D01*
X14098484Y-7367808D02*
X14098484Y-7311239D01*
X14041915Y-7311239D01*
X14041915Y-7367808D01*
X14098484Y-7367808D01*
X14098484Y-7867808D02*
X14098484Y-7811239D01*
X14041915Y-7811239D01*
X14041915Y-7867808D01*
X14098484Y-7867808D01*
X14098484Y-8252808D02*
X14098484Y-8196239D01*
X14041915Y-8196239D01*
X14041915Y-8252808D01*
X14098484Y-8252808D01*
X14098484Y-9268808D02*
X14098484Y-9212239D01*
X14041915Y-9212239D01*
X14041915Y-9268808D01*
X14098484Y-9268808D01*
D16*
X12800200Y-9808524D02*
X12860200Y-9748524D01*
X12800200Y-9688524D01*
X12740200Y-9748524D01*
X12800200Y-9808524D01*
X14070200Y-9808524D02*
X14130200Y-9748524D01*
X14070200Y-9688524D01*
X14010200Y-9748524D01*
X14070200Y-9808524D01*
D17*
X11606144Y-4127682D02*
X11733144Y-4254682D01*
X11733144Y-4127682D02*
X11606144Y-4254682D01*
X11733144Y-4191182D02*
G75*
G03*
X11733144Y-4191182I-63500J0D01*
G01*
D11*
X11616144Y-4127682D02*
X11616144Y-4254682D01*
X11723144Y-4127682D02*
X11723144Y-4254682D01*
X11616144Y-4254682D02*
G75*
G03*
X11723144Y-4254682I53500J0D01*
G01*
X11723144Y-4127682D02*
G75*
G03*
X11616144Y-4127682I-53500J0D01*
G01*
D17*
X11606144Y-4627630D02*
X11733144Y-4754630D01*
X11733144Y-4627630D02*
X11606144Y-4754630D01*
X11733144Y-4691130D02*
G75*
G03*
X11733144Y-4691130I-63500J0D01*
G01*
D11*
X11616144Y-4627630D02*
X11616144Y-4754630D01*
X11723144Y-4627630D02*
X11723144Y-4754630D01*
X11616144Y-4754630D02*
G75*
G03*
X11723144Y-4754630I53500J0D01*
G01*
X11723144Y-4627630D02*
G75*
G03*
X11616144Y-4627630I-53500J0D01*
G01*
D17*
X11606220Y-5137682D02*
X11733220Y-5264682D01*
X11733220Y-5137682D02*
X11606220Y-5264682D01*
X11733220Y-5201182D02*
G75*
G03*
X11733220Y-5201182I-63500J0D01*
G01*
D11*
X11616220Y-5137682D02*
X11616220Y-5264682D01*
X11723220Y-5137682D02*
X11723220Y-5264682D01*
X11616220Y-5264682D02*
G75*
G03*
X11723220Y-5264682I53500J0D01*
G01*
X11723220Y-5137682D02*
G75*
G03*
X11616220Y-5137682I-53500J0D01*
G01*
D17*
X12076300Y-4127682D02*
X12203300Y-4254682D01*
X12203300Y-4127682D02*
X12076300Y-4254682D01*
X12203300Y-4191182D02*
G75*
G03*
X12203300Y-4191182I-63500J0D01*
G01*
D11*
X12086300Y-4127682D02*
X12086300Y-4254682D01*
X12193300Y-4127682D02*
X12193300Y-4254682D01*
X12086300Y-4254682D02*
G75*
G03*
X12193300Y-4254682I53500J0D01*
G01*
X12193300Y-4127682D02*
G75*
G03*
X12086300Y-4127682I-53500J0D01*
G01*
D17*
X12076300Y-4627630D02*
X12203300Y-4754630D01*
X12203300Y-4627630D02*
X12076300Y-4754630D01*
X12203300Y-4691130D02*
G75*
G03*
X12203300Y-4691130I-63500J0D01*
G01*
D11*
X12086300Y-4627630D02*
X12086300Y-4754630D01*
X12193300Y-4627630D02*
X12193300Y-4754630D01*
X12086300Y-4754630D02*
G75*
G03*
X12193300Y-4754630I53500J0D01*
G01*
X12193300Y-4627630D02*
G75*
G03*
X12086300Y-4627630I-53500J0D01*
G01*
D17*
X12076376Y-5137682D02*
X12203376Y-5264682D01*
X12203376Y-5137682D02*
X12076376Y-5264682D01*
X12203376Y-5201182D02*
G75*
G03*
X12203376Y-5201182I-63500J0D01*
G01*
D11*
X12086376Y-5137682D02*
X12086376Y-5264682D01*
X12193376Y-5137682D02*
X12193376Y-5264682D01*
X12086376Y-5264682D02*
G75*
G03*
X12193376Y-5264682I53500J0D01*
G01*
X12193376Y-5137682D02*
G75*
G03*
X12086376Y-5137682I-53500J0D01*
G01*
D17*
X12546144Y-4127682D02*
X12673144Y-4254682D01*
X12673144Y-4127682D02*
X12546144Y-4254682D01*
X12673144Y-4191182D02*
G75*
G03*
X12673144Y-4191182I-63500J0D01*
G01*
D11*
X12556144Y-4127682D02*
X12556144Y-4254682D01*
X12663144Y-4127682D02*
X12663144Y-4254682D01*
X12556144Y-4254682D02*
G75*
G03*
X12663144Y-4254682I53500J0D01*
G01*
X12663144Y-4127682D02*
G75*
G03*
X12556144Y-4127682I-53500J0D01*
G01*
D17*
X12546144Y-4627630D02*
X12673144Y-4754630D01*
X12673144Y-4627630D02*
X12546144Y-4754630D01*
X12673144Y-4691130D02*
G75*
G03*
X12673144Y-4691130I-63500J0D01*
G01*
D11*
X12556144Y-4627630D02*
X12556144Y-4754630D01*
X12663144Y-4627630D02*
X12663144Y-4754630D01*
X12556144Y-4754630D02*
G75*
G03*
X12663144Y-4754630I53500J0D01*
G01*
X12663144Y-4627630D02*
G75*
G03*
X12556144Y-4627630I-53500J0D01*
G01*
D17*
X12546220Y-5137682D02*
X12673220Y-5264682D01*
X12673220Y-5137682D02*
X12546220Y-5264682D01*
X12673220Y-5201182D02*
G75*
G03*
X12673220Y-5201182I-63500J0D01*
G01*
D11*
X12556220Y-5137682D02*
X12556220Y-5264682D01*
X12663220Y-5137682D02*
X12663220Y-5264682D01*
X12556220Y-5264682D02*
G75*
G03*
X12663220Y-5264682I53500J0D01*
G01*
X12663220Y-5137682D02*
G75*
G03*
X12556220Y-5137682I-53500J0D01*
G01*
X10031619Y-10495800D02*
X10031619Y-10295800D01*
X10079238Y-10295800D01*
X10107810Y-10305324D01*
X10126857Y-10324371D01*
X10136381Y-10343419D01*
X10145905Y-10381514D01*
X10145905Y-10410086D01*
X10136381Y-10448181D01*
X10126857Y-10467228D01*
X10107810Y-10486276D01*
X10079238Y-10495800D01*
X10031619Y-10495800D01*
X10231619Y-10495800D02*
X10231619Y-10362467D01*
X10231619Y-10400562D02*
X10241143Y-10381514D01*
X10250667Y-10371990D01*
X10269714Y-10362467D01*
X10288762Y-10362467D01*
X10355429Y-10495800D02*
X10355429Y-10362467D01*
X10355429Y-10295800D02*
X10345905Y-10305324D01*
X10355429Y-10314848D01*
X10364952Y-10305324D01*
X10355429Y-10295800D01*
X10355429Y-10314848D01*
X10479238Y-10495800D02*
X10460190Y-10486276D01*
X10450667Y-10467228D01*
X10450667Y-10295800D01*
X10584000Y-10495800D02*
X10564952Y-10486276D01*
X10555429Y-10467228D01*
X10555429Y-10295800D01*
X10812571Y-10495800D02*
X10812571Y-10295800D01*
X10879238Y-10438657D01*
X10945905Y-10295800D01*
X10945905Y-10495800D01*
X11126857Y-10495800D02*
X11126857Y-10391038D01*
X11117333Y-10371990D01*
X11098286Y-10362467D01*
X11060190Y-10362467D01*
X11041143Y-10371990D01*
X11126857Y-10486276D02*
X11107810Y-10495800D01*
X11060190Y-10495800D01*
X11041143Y-10486276D01*
X11031619Y-10467228D01*
X11031619Y-10448181D01*
X11041143Y-10429133D01*
X11060190Y-10419609D01*
X11107810Y-10419609D01*
X11126857Y-10410086D01*
X11222095Y-10362467D02*
X11222095Y-10562467D01*
X11222095Y-10371990D02*
X11241143Y-10362467D01*
X11279238Y-10362467D01*
X11298286Y-10371990D01*
X11307809Y-10381514D01*
X11317333Y-10400562D01*
X11317333Y-10457705D01*
X11307809Y-10476752D01*
X11298286Y-10486276D01*
X11279238Y-10495800D01*
X11241143Y-10495800D01*
X11222095Y-10486276D01*
X11403048Y-10476752D02*
X11412571Y-10486276D01*
X11403048Y-10495800D01*
X11393524Y-10486276D01*
X11403048Y-10476752D01*
X11403048Y-10495800D01*
X11403048Y-10371990D02*
X11412571Y-10381514D01*
X11403048Y-10391038D01*
X11393524Y-10381514D01*
X11403048Y-10371990D01*
X11403048Y-10391038D01*
D12*
X9734000Y-10805324D02*
X9774000Y-10845324D01*
X9774000Y-10805324D02*
X9734000Y-10845324D01*
D11*
X10069714Y-10715800D02*
X10088762Y-10715800D01*
X10107810Y-10725324D01*
X10117333Y-10734848D01*
X10126857Y-10753895D01*
X10136381Y-10791990D01*
X10136381Y-10839609D01*
X10126857Y-10877705D01*
X10117333Y-10896752D01*
X10107810Y-10906276D01*
X10088762Y-10915800D01*
X10069714Y-10915800D01*
X10050667Y-10906276D01*
X10041143Y-10896752D01*
X10031619Y-10877705D01*
X10022095Y-10839609D01*
X10022095Y-10791990D01*
X10031619Y-10753895D01*
X10041143Y-10734848D01*
X10050667Y-10725324D01*
X10069714Y-10715800D01*
X10222095Y-10896752D02*
X10231619Y-10906276D01*
X10222095Y-10915800D01*
X10212571Y-10906276D01*
X10222095Y-10896752D01*
X10222095Y-10915800D01*
X10403048Y-10782467D02*
X10403048Y-10915800D01*
X10355429Y-10706276D02*
X10307810Y-10849133D01*
X10431619Y-10849133D01*
X10545905Y-10715800D02*
X10564952Y-10715800D01*
X10584000Y-10725324D01*
X10593524Y-10734848D01*
X10603048Y-10753895D01*
X10612571Y-10791990D01*
X10612571Y-10839609D01*
X10603048Y-10877705D01*
X10593524Y-10896752D01*
X10584000Y-10906276D01*
X10564952Y-10915800D01*
X10545905Y-10915800D01*
X10526857Y-10906276D01*
X10517333Y-10896752D01*
X10507810Y-10877705D01*
X10498286Y-10839609D01*
X10498286Y-10791990D01*
X10507810Y-10753895D01*
X10517333Y-10734848D01*
X10526857Y-10725324D01*
X10545905Y-10715800D01*
X10736381Y-10715800D02*
X10755429Y-10715800D01*
X10774476Y-10725324D01*
X10784000Y-10734848D01*
X10793524Y-10753895D01*
X10803048Y-10791990D01*
X10803048Y-10839609D01*
X10793524Y-10877705D01*
X10784000Y-10896752D01*
X10774476Y-10906276D01*
X10755429Y-10915800D01*
X10736381Y-10915800D01*
X10717333Y-10906276D01*
X10707810Y-10896752D01*
X10698286Y-10877705D01*
X10688762Y-10839609D01*
X10688762Y-10791990D01*
X10698286Y-10753895D01*
X10707810Y-10734848D01*
X10717333Y-10725324D01*
X10736381Y-10715800D01*
X10888762Y-10915800D02*
X10888762Y-10782467D01*
X10888762Y-10801514D02*
X10898286Y-10791990D01*
X10917333Y-10782467D01*
X10945905Y-10782467D01*
X10964952Y-10791990D01*
X10974476Y-10811038D01*
X10974476Y-10915800D01*
X10974476Y-10811038D02*
X10984000Y-10791990D01*
X11003048Y-10782467D01*
X11031619Y-10782467D01*
X11050667Y-10791990D01*
X11060190Y-10811038D01*
X11060190Y-10915800D01*
X11155429Y-10915800D02*
X11155429Y-10782467D01*
X11155429Y-10801514D02*
X11164952Y-10791990D01*
X11184000Y-10782467D01*
X11212571Y-10782467D01*
X11231619Y-10791990D01*
X11241143Y-10811038D01*
X11241143Y-10915800D01*
X11241143Y-10811038D02*
X11250667Y-10791990D01*
X11269714Y-10782467D01*
X11298286Y-10782467D01*
X11317333Y-10791990D01*
X11326857Y-10811038D01*
X11326857Y-10915800D01*
X11717333Y-10706276D02*
X11545905Y-10963419D01*
X11974476Y-10715800D02*
X11993524Y-10715800D01*
X12012571Y-10725324D01*
X12022095Y-10734848D01*
X12031619Y-10753895D01*
X12041143Y-10791990D01*
X12041143Y-10839609D01*
X12031619Y-10877705D01*
X12022095Y-10896752D01*
X12012571Y-10906276D01*
X11993524Y-10915800D01*
X11974476Y-10915800D01*
X11955428Y-10906276D01*
X11945905Y-10896752D01*
X11936381Y-10877705D01*
X11926857Y-10839609D01*
X11926857Y-10791990D01*
X11936381Y-10753895D01*
X11945905Y-10734848D01*
X11955428Y-10725324D01*
X11974476Y-10715800D01*
X12126857Y-10896752D02*
X12136381Y-10906276D01*
X12126857Y-10915800D01*
X12117333Y-10906276D01*
X12126857Y-10896752D01*
X12126857Y-10915800D01*
X12260190Y-10715800D02*
X12279238Y-10715800D01*
X12298286Y-10725324D01*
X12307809Y-10734848D01*
X12317333Y-10753895D01*
X12326857Y-10791990D01*
X12326857Y-10839609D01*
X12317333Y-10877705D01*
X12307809Y-10896752D01*
X12298286Y-10906276D01*
X12279238Y-10915800D01*
X12260190Y-10915800D01*
X12241143Y-10906276D01*
X12231619Y-10896752D01*
X12222095Y-10877705D01*
X12212571Y-10839609D01*
X12212571Y-10791990D01*
X12222095Y-10753895D01*
X12231619Y-10734848D01*
X12241143Y-10725324D01*
X12260190Y-10715800D01*
X12517333Y-10915800D02*
X12403048Y-10915800D01*
X12460190Y-10915800D02*
X12460190Y-10715800D01*
X12441143Y-10744371D01*
X12422095Y-10763419D01*
X12403048Y-10772943D01*
X12698286Y-10715800D02*
X12603048Y-10715800D01*
X12593524Y-10811038D01*
X12603048Y-10801514D01*
X12622095Y-10791990D01*
X12669714Y-10791990D01*
X12688762Y-10801514D01*
X12698286Y-10811038D01*
X12707809Y-10830086D01*
X12707809Y-10877705D01*
X12698286Y-10896752D01*
X12688762Y-10906276D01*
X12669714Y-10915800D01*
X12622095Y-10915800D01*
X12603048Y-10906276D01*
X12593524Y-10896752D01*
X12774476Y-10715800D02*
X12907809Y-10715800D01*
X12822095Y-10915800D01*
X12974476Y-10715800D02*
X12974476Y-10753895D01*
X13050667Y-10715800D02*
X13050667Y-10753895D01*
X13345905Y-10991990D02*
X13336381Y-10982467D01*
X13317333Y-10953895D01*
X13307809Y-10934848D01*
X13298286Y-10906276D01*
X13288762Y-10858657D01*
X13288762Y-10820562D01*
X13298286Y-10772943D01*
X13307809Y-10744371D01*
X13317333Y-10725324D01*
X13336381Y-10696752D01*
X13345905Y-10687228D01*
X13412571Y-10734848D02*
X13422095Y-10725324D01*
X13441143Y-10715800D01*
X13488762Y-10715800D01*
X13507809Y-10725324D01*
X13517333Y-10734848D01*
X13526857Y-10753895D01*
X13526857Y-10772943D01*
X13517333Y-10801514D01*
X13403048Y-10915800D01*
X13526857Y-10915800D01*
X13603048Y-10734848D02*
X13612571Y-10725324D01*
X13631619Y-10715800D01*
X13679238Y-10715800D01*
X13698286Y-10725324D01*
X13707809Y-10734848D01*
X13717333Y-10753895D01*
X13717333Y-10772943D01*
X13707809Y-10801514D01*
X13593524Y-10915800D01*
X13717333Y-10915800D01*
X13955428Y-10915800D02*
X13955428Y-10715800D01*
X14041143Y-10915800D02*
X14041143Y-10811038D01*
X14031619Y-10791990D01*
X14012571Y-10782467D01*
X13984000Y-10782467D01*
X13964952Y-10791990D01*
X13955428Y-10801514D01*
X14164952Y-10915800D02*
X14145905Y-10906276D01*
X14136381Y-10896752D01*
X14126857Y-10877705D01*
X14126857Y-10820562D01*
X14136381Y-10801514D01*
X14145905Y-10791990D01*
X14164952Y-10782467D01*
X14193524Y-10782467D01*
X14212571Y-10791990D01*
X14222095Y-10801514D01*
X14231619Y-10820562D01*
X14231619Y-10877705D01*
X14222095Y-10896752D01*
X14212571Y-10906276D01*
X14193524Y-10915800D01*
X14164952Y-10915800D01*
X14345905Y-10915800D02*
X14326857Y-10906276D01*
X14317333Y-10887228D01*
X14317333Y-10715800D01*
X14498286Y-10906276D02*
X14479238Y-10915800D01*
X14441143Y-10915800D01*
X14422095Y-10906276D01*
X14412571Y-10887228D01*
X14412571Y-10811038D01*
X14422095Y-10791990D01*
X14441143Y-10782467D01*
X14479238Y-10782467D01*
X14498286Y-10791990D01*
X14507809Y-10811038D01*
X14507809Y-10830086D01*
X14412571Y-10849133D01*
X14584000Y-10906276D02*
X14603048Y-10915800D01*
X14641143Y-10915800D01*
X14660190Y-10906276D01*
X14669714Y-10887228D01*
X14669714Y-10877705D01*
X14660190Y-10858657D01*
X14641143Y-10849133D01*
X14612571Y-10849133D01*
X14593524Y-10839609D01*
X14584000Y-10820562D01*
X14584000Y-10811038D01*
X14593524Y-10791990D01*
X14612571Y-10782467D01*
X14641143Y-10782467D01*
X14660190Y-10791990D01*
X14736381Y-10991990D02*
X14745905Y-10982467D01*
X14764952Y-10953895D01*
X14774476Y-10934848D01*
X14784000Y-10906276D01*
X14793524Y-10858657D01*
X14793524Y-10820562D01*
X14784000Y-10772943D01*
X14774476Y-10744371D01*
X14764952Y-10725324D01*
X14745905Y-10696752D01*
X14736381Y-10687228D01*
D13*
X9774000Y-11089324D02*
G75*
G03*
X9774000Y-11089324I-35000J0D01*
G01*
D11*
X10069714Y-10979800D02*
X10088762Y-10979800D01*
X10107810Y-10989324D01*
X10117333Y-10998848D01*
X10126857Y-11017895D01*
X10136381Y-11055990D01*
X10136381Y-11103609D01*
X10126857Y-11141705D01*
X10117333Y-11160752D01*
X10107810Y-11170276D01*
X10088762Y-11179800D01*
X10069714Y-11179800D01*
X10050667Y-11170276D01*
X10041143Y-11160752D01*
X10031619Y-11141705D01*
X10022095Y-11103609D01*
X10022095Y-11055990D01*
X10031619Y-11017895D01*
X10041143Y-10998848D01*
X10050667Y-10989324D01*
X10069714Y-10979800D01*
X10222095Y-11160752D02*
X10231619Y-11170276D01*
X10222095Y-11179800D01*
X10212571Y-11170276D01*
X10222095Y-11160752D01*
X10222095Y-11179800D01*
X10298286Y-10979800D02*
X10431619Y-10979800D01*
X10345905Y-11179800D01*
X10545905Y-10979800D02*
X10564952Y-10979800D01*
X10584000Y-10989324D01*
X10593524Y-10998848D01*
X10603048Y-11017895D01*
X10612571Y-11055990D01*
X10612571Y-11103609D01*
X10603048Y-11141705D01*
X10593524Y-11160752D01*
X10584000Y-11170276D01*
X10564952Y-11179800D01*
X10545905Y-11179800D01*
X10526857Y-11170276D01*
X10517333Y-11160752D01*
X10507810Y-11141705D01*
X10498286Y-11103609D01*
X10498286Y-11055990D01*
X10507810Y-11017895D01*
X10517333Y-10998848D01*
X10526857Y-10989324D01*
X10545905Y-10979800D01*
X10736381Y-10979800D02*
X10755429Y-10979800D01*
X10774476Y-10989324D01*
X10784000Y-10998848D01*
X10793524Y-11017895D01*
X10803048Y-11055990D01*
X10803048Y-11103609D01*
X10793524Y-11141705D01*
X10784000Y-11160752D01*
X10774476Y-11170276D01*
X10755429Y-11179800D01*
X10736381Y-11179800D01*
X10717333Y-11170276D01*
X10707810Y-11160752D01*
X10698286Y-11141705D01*
X10688762Y-11103609D01*
X10688762Y-11055990D01*
X10698286Y-11017895D01*
X10707810Y-10998848D01*
X10717333Y-10989324D01*
X10736381Y-10979800D01*
X10888762Y-11179800D02*
X10888762Y-11046467D01*
X10888762Y-11065514D02*
X10898286Y-11055990D01*
X10917333Y-11046467D01*
X10945905Y-11046467D01*
X10964952Y-11055990D01*
X10974476Y-11075038D01*
X10974476Y-11179800D01*
X10974476Y-11075038D02*
X10984000Y-11055990D01*
X11003048Y-11046467D01*
X11031619Y-11046467D01*
X11050667Y-11055990D01*
X11060190Y-11075038D01*
X11060190Y-11179800D01*
X11155429Y-11179800D02*
X11155429Y-11046467D01*
X11155429Y-11065514D02*
X11164952Y-11055990D01*
X11184000Y-11046467D01*
X11212571Y-11046467D01*
X11231619Y-11055990D01*
X11241143Y-11075038D01*
X11241143Y-11179800D01*
X11241143Y-11075038D02*
X11250667Y-11055990D01*
X11269714Y-11046467D01*
X11298286Y-11046467D01*
X11317333Y-11055990D01*
X11326857Y-11075038D01*
X11326857Y-11179800D01*
X11717333Y-10970276D02*
X11545905Y-11227419D01*
X11974476Y-10979800D02*
X11993524Y-10979800D01*
X12012571Y-10989324D01*
X12022095Y-10998848D01*
X12031619Y-11017895D01*
X12041143Y-11055990D01*
X12041143Y-11103609D01*
X12031619Y-11141705D01*
X12022095Y-11160752D01*
X12012571Y-11170276D01*
X11993524Y-11179800D01*
X11974476Y-11179800D01*
X11955428Y-11170276D01*
X11945905Y-11160752D01*
X11936381Y-11141705D01*
X11926857Y-11103609D01*
X11926857Y-11055990D01*
X11936381Y-11017895D01*
X11945905Y-10998848D01*
X11955428Y-10989324D01*
X11974476Y-10979800D01*
X12126857Y-11160752D02*
X12136381Y-11170276D01*
X12126857Y-11179800D01*
X12117333Y-11170276D01*
X12126857Y-11160752D01*
X12126857Y-11179800D01*
X12260190Y-10979800D02*
X12279238Y-10979800D01*
X12298286Y-10989324D01*
X12307809Y-10998848D01*
X12317333Y-11017895D01*
X12326857Y-11055990D01*
X12326857Y-11103609D01*
X12317333Y-11141705D01*
X12307809Y-11160752D01*
X12298286Y-11170276D01*
X12279238Y-11179800D01*
X12260190Y-11179800D01*
X12241143Y-11170276D01*
X12231619Y-11160752D01*
X12222095Y-11141705D01*
X12212571Y-11103609D01*
X12212571Y-11055990D01*
X12222095Y-11017895D01*
X12231619Y-10998848D01*
X12241143Y-10989324D01*
X12260190Y-10979800D01*
X12403048Y-10998848D02*
X12412571Y-10989324D01*
X12431619Y-10979800D01*
X12479238Y-10979800D01*
X12498286Y-10989324D01*
X12507809Y-10998848D01*
X12517333Y-11017895D01*
X12517333Y-11036943D01*
X12507809Y-11065514D01*
X12393524Y-11179800D01*
X12517333Y-11179800D01*
X12584000Y-10979800D02*
X12717333Y-10979800D01*
X12631619Y-11179800D01*
X12879238Y-10979800D02*
X12841143Y-10979800D01*
X12822095Y-10989324D01*
X12812571Y-10998848D01*
X12793524Y-11027419D01*
X12784000Y-11065514D01*
X12784000Y-11141705D01*
X12793524Y-11160752D01*
X12803048Y-11170276D01*
X12822095Y-11179800D01*
X12860190Y-11179800D01*
X12879238Y-11170276D01*
X12888762Y-11160752D01*
X12898286Y-11141705D01*
X12898286Y-11094086D01*
X12888762Y-11075038D01*
X12879238Y-11065514D01*
X12860190Y-11055990D01*
X12822095Y-11055990D01*
X12803048Y-11065514D01*
X12793524Y-11075038D01*
X12784000Y-11094086D01*
X12974476Y-10979800D02*
X12974476Y-11017895D01*
X13050667Y-10979800D02*
X13050667Y-11017895D01*
X13345905Y-11255990D02*
X13336381Y-11246466D01*
X13317333Y-11217895D01*
X13307809Y-11198847D01*
X13298286Y-11170276D01*
X13288762Y-11122657D01*
X13288762Y-11084562D01*
X13298286Y-11036943D01*
X13307809Y-11008371D01*
X13317333Y-10989324D01*
X13336381Y-10960752D01*
X13345905Y-10951228D01*
X13526857Y-11179800D02*
X13412571Y-11179800D01*
X13469714Y-11179800D02*
X13469714Y-10979800D01*
X13450667Y-11008371D01*
X13431619Y-11027419D01*
X13412571Y-11036943D01*
X13764952Y-11179800D02*
X13764952Y-10979800D01*
X13850667Y-11179800D02*
X13850667Y-11075038D01*
X13841143Y-11055990D01*
X13822095Y-11046467D01*
X13793524Y-11046467D01*
X13774476Y-11055990D01*
X13764952Y-11065514D01*
X13974476Y-11179800D02*
X13955428Y-11170276D01*
X13945905Y-11160752D01*
X13936381Y-11141705D01*
X13936381Y-11084562D01*
X13945905Y-11065514D01*
X13955428Y-11055990D01*
X13974476Y-11046467D01*
X14003048Y-11046467D01*
X14022095Y-11055990D01*
X14031619Y-11065514D01*
X14041143Y-11084562D01*
X14041143Y-11141705D01*
X14031619Y-11160752D01*
X14022095Y-11170276D01*
X14003048Y-11179800D01*
X13974476Y-11179800D01*
X14155428Y-11179800D02*
X14136381Y-11170276D01*
X14126857Y-11151228D01*
X14126857Y-10979800D01*
X14307809Y-11170276D02*
X14288762Y-11179800D01*
X14250667Y-11179800D01*
X14231619Y-11170276D01*
X14222095Y-11151228D01*
X14222095Y-11075038D01*
X14231619Y-11055990D01*
X14250667Y-11046467D01*
X14288762Y-11046467D01*
X14307809Y-11055990D01*
X14317333Y-11075038D01*
X14317333Y-11094086D01*
X14222095Y-11113133D01*
X14384000Y-11255990D02*
X14393524Y-11246466D01*
X14412571Y-11217895D01*
X14422095Y-11198847D01*
X14431619Y-11170276D01*
X14441143Y-11122657D01*
X14441143Y-11084562D01*
X14431619Y-11036943D01*
X14422095Y-11008371D01*
X14412571Y-10989324D01*
X14393524Y-10960752D01*
X14384000Y-10951228D01*
D14*
X9736500Y-11315824D02*
X9736500Y-11390824D01*
X9699000Y-11353324D02*
X9774000Y-11353324D01*
D11*
X10069714Y-11243800D02*
X10088762Y-11243800D01*
X10107810Y-11253324D01*
X10117333Y-11262847D01*
X10126857Y-11281895D01*
X10136381Y-11319990D01*
X10136381Y-11367609D01*
X10126857Y-11405705D01*
X10117333Y-11424752D01*
X10107810Y-11434276D01*
X10088762Y-11443800D01*
X10069714Y-11443800D01*
X10050667Y-11434276D01*
X10041143Y-11424752D01*
X10031619Y-11405705D01*
X10022095Y-11367609D01*
X10022095Y-11319990D01*
X10031619Y-11281895D01*
X10041143Y-11262847D01*
X10050667Y-11253324D01*
X10069714Y-11243800D01*
X10222095Y-11424752D02*
X10231619Y-11434276D01*
X10222095Y-11443800D01*
X10212571Y-11434276D01*
X10222095Y-11424752D01*
X10222095Y-11443800D01*
X10298286Y-11243800D02*
X10431619Y-11243800D01*
X10345905Y-11443800D01*
X10603048Y-11243800D02*
X10507810Y-11243800D01*
X10498286Y-11339038D01*
X10507810Y-11329514D01*
X10526857Y-11319990D01*
X10574476Y-11319990D01*
X10593524Y-11329514D01*
X10603048Y-11339038D01*
X10612571Y-11358086D01*
X10612571Y-11405705D01*
X10603048Y-11424752D01*
X10593524Y-11434276D01*
X10574476Y-11443800D01*
X10526857Y-11443800D01*
X10507810Y-11434276D01*
X10498286Y-11424752D01*
X10736381Y-11243800D02*
X10755429Y-11243800D01*
X10774476Y-11253324D01*
X10784000Y-11262847D01*
X10793524Y-11281895D01*
X10803048Y-11319990D01*
X10803048Y-11367609D01*
X10793524Y-11405705D01*
X10784000Y-11424752D01*
X10774476Y-11434276D01*
X10755429Y-11443800D01*
X10736381Y-11443800D01*
X10717333Y-11434276D01*
X10707810Y-11424752D01*
X10698286Y-11405705D01*
X10688762Y-11367609D01*
X10688762Y-11319990D01*
X10698286Y-11281895D01*
X10707810Y-11262847D01*
X10717333Y-11253324D01*
X10736381Y-11243800D01*
X10888762Y-11443800D02*
X10888762Y-11310466D01*
X10888762Y-11329514D02*
X10898286Y-11319990D01*
X10917333Y-11310466D01*
X10945905Y-11310466D01*
X10964952Y-11319990D01*
X10974476Y-11339038D01*
X10974476Y-11443800D01*
X10974476Y-11339038D02*
X10984000Y-11319990D01*
X11003048Y-11310466D01*
X11031619Y-11310466D01*
X11050667Y-11319990D01*
X11060190Y-11339038D01*
X11060190Y-11443800D01*
X11155429Y-11443800D02*
X11155429Y-11310466D01*
X11155429Y-11329514D02*
X11164952Y-11319990D01*
X11184000Y-11310466D01*
X11212571Y-11310466D01*
X11231619Y-11319990D01*
X11241143Y-11339038D01*
X11241143Y-11443800D01*
X11241143Y-11339038D02*
X11250667Y-11319990D01*
X11269714Y-11310466D01*
X11298286Y-11310466D01*
X11317333Y-11319990D01*
X11326857Y-11339038D01*
X11326857Y-11443800D01*
X11717333Y-11234276D02*
X11545905Y-11491419D01*
X11974476Y-11243800D02*
X11993524Y-11243800D01*
X12012571Y-11253324D01*
X12022095Y-11262847D01*
X12031619Y-11281895D01*
X12041143Y-11319990D01*
X12041143Y-11367609D01*
X12031619Y-11405705D01*
X12022095Y-11424752D01*
X12012571Y-11434276D01*
X11993524Y-11443800D01*
X11974476Y-11443800D01*
X11955428Y-11434276D01*
X11945905Y-11424752D01*
X11936381Y-11405705D01*
X11926857Y-11367609D01*
X11926857Y-11319990D01*
X11936381Y-11281895D01*
X11945905Y-11262847D01*
X11955428Y-11253324D01*
X11974476Y-11243800D01*
X12126857Y-11424752D02*
X12136381Y-11434276D01*
X12126857Y-11443800D01*
X12117333Y-11434276D01*
X12126857Y-11424752D01*
X12126857Y-11443800D01*
X12260190Y-11243800D02*
X12279238Y-11243800D01*
X12298286Y-11253324D01*
X12307809Y-11262847D01*
X12317333Y-11281895D01*
X12326857Y-11319990D01*
X12326857Y-11367609D01*
X12317333Y-11405705D01*
X12307809Y-11424752D01*
X12298286Y-11434276D01*
X12279238Y-11443800D01*
X12260190Y-11443800D01*
X12241143Y-11434276D01*
X12231619Y-11424752D01*
X12222095Y-11405705D01*
X12212571Y-11367609D01*
X12212571Y-11319990D01*
X12222095Y-11281895D01*
X12231619Y-11262847D01*
X12241143Y-11253324D01*
X12260190Y-11243800D01*
X12403048Y-11262847D02*
X12412571Y-11253324D01*
X12431619Y-11243800D01*
X12479238Y-11243800D01*
X12498286Y-11253324D01*
X12507809Y-11262847D01*
X12517333Y-11281895D01*
X12517333Y-11300943D01*
X12507809Y-11329514D01*
X12393524Y-11443800D01*
X12517333Y-11443800D01*
X12612571Y-11443800D02*
X12650667Y-11443800D01*
X12669714Y-11434276D01*
X12679238Y-11424752D01*
X12698286Y-11396181D01*
X12707809Y-11358086D01*
X12707809Y-11281895D01*
X12698286Y-11262847D01*
X12688762Y-11253324D01*
X12669714Y-11243800D01*
X12631619Y-11243800D01*
X12612571Y-11253324D01*
X12603048Y-11262847D01*
X12593524Y-11281895D01*
X12593524Y-11329514D01*
X12603048Y-11348562D01*
X12612571Y-11358086D01*
X12631619Y-11367609D01*
X12669714Y-11367609D01*
X12688762Y-11358086D01*
X12698286Y-11348562D01*
X12707809Y-11329514D01*
X12888762Y-11243800D02*
X12793524Y-11243800D01*
X12784000Y-11339038D01*
X12793524Y-11329514D01*
X12812571Y-11319990D01*
X12860190Y-11319990D01*
X12879238Y-11329514D01*
X12888762Y-11339038D01*
X12898286Y-11358086D01*
X12898286Y-11405705D01*
X12888762Y-11424752D01*
X12879238Y-11434276D01*
X12860190Y-11443800D01*
X12812571Y-11443800D01*
X12793524Y-11434276D01*
X12784000Y-11424752D01*
X12974476Y-11243800D02*
X12974476Y-11281895D01*
X13050667Y-11243800D02*
X13050667Y-11281895D01*
X13345905Y-11519990D02*
X13336381Y-11510466D01*
X13317333Y-11481895D01*
X13307809Y-11462847D01*
X13298286Y-11434276D01*
X13288762Y-11386657D01*
X13288762Y-11348562D01*
X13298286Y-11300943D01*
X13307809Y-11272371D01*
X13317333Y-11253324D01*
X13336381Y-11224752D01*
X13345905Y-11215228D01*
X13526857Y-11443800D02*
X13412571Y-11443800D01*
X13469714Y-11443800D02*
X13469714Y-11243800D01*
X13450667Y-11272371D01*
X13431619Y-11291419D01*
X13412571Y-11300943D01*
X13698286Y-11243800D02*
X13660190Y-11243800D01*
X13641143Y-11253324D01*
X13631619Y-11262847D01*
X13612571Y-11291419D01*
X13603048Y-11329514D01*
X13603048Y-11405705D01*
X13612571Y-11424752D01*
X13622095Y-11434276D01*
X13641143Y-11443800D01*
X13679238Y-11443800D01*
X13698286Y-11434276D01*
X13707809Y-11424752D01*
X13717333Y-11405705D01*
X13717333Y-11358086D01*
X13707809Y-11339038D01*
X13698286Y-11329514D01*
X13679238Y-11319990D01*
X13641143Y-11319990D01*
X13622095Y-11329514D01*
X13612571Y-11339038D01*
X13603048Y-11358086D01*
X13955428Y-11443800D02*
X13955428Y-11243800D01*
X14041143Y-11443800D02*
X14041143Y-11339038D01*
X14031619Y-11319990D01*
X14012571Y-11310466D01*
X13984000Y-11310466D01*
X13964952Y-11319990D01*
X13955428Y-11329514D01*
X14164952Y-11443800D02*
X14145905Y-11434276D01*
X14136381Y-11424752D01*
X14126857Y-11405705D01*
X14126857Y-11348562D01*
X14136381Y-11329514D01*
X14145905Y-11319990D01*
X14164952Y-11310466D01*
X14193524Y-11310466D01*
X14212571Y-11319990D01*
X14222095Y-11329514D01*
X14231619Y-11348562D01*
X14231619Y-11405705D01*
X14222095Y-11424752D01*
X14212571Y-11434276D01*
X14193524Y-11443800D01*
X14164952Y-11443800D01*
X14345905Y-11443800D02*
X14326857Y-11434276D01*
X14317333Y-11415228D01*
X14317333Y-11243800D01*
X14498286Y-11434276D02*
X14479238Y-11443800D01*
X14441143Y-11443800D01*
X14422095Y-11434276D01*
X14412571Y-11415228D01*
X14412571Y-11339038D01*
X14422095Y-11319990D01*
X14441143Y-11310466D01*
X14479238Y-11310466D01*
X14498286Y-11319990D01*
X14507809Y-11339038D01*
X14507809Y-11358086D01*
X14412571Y-11377133D01*
X14584000Y-11434276D02*
X14603048Y-11443800D01*
X14641143Y-11443800D01*
X14660190Y-11434276D01*
X14669714Y-11415228D01*
X14669714Y-11405705D01*
X14660190Y-11386657D01*
X14641143Y-11377133D01*
X14612571Y-11377133D01*
X14593524Y-11367609D01*
X14584000Y-11348562D01*
X14584000Y-11339038D01*
X14593524Y-11319990D01*
X14612571Y-11310466D01*
X14641143Y-11310466D01*
X14660190Y-11319990D01*
X14736381Y-11519990D02*
X14745905Y-11510466D01*
X14764952Y-11481895D01*
X14774476Y-11462847D01*
X14784000Y-11434276D01*
X14793524Y-11386657D01*
X14793524Y-11348562D01*
X14784000Y-11300943D01*
X14774476Y-11272371D01*
X14764952Y-11253324D01*
X14745905Y-11224752D01*
X14736381Y-11215228D01*
D15*
X9762285Y-11645608D02*
X9762285Y-11589039D01*
X9705716Y-11589039D01*
X9705716Y-11645608D01*
X9762285Y-11645608D01*
D11*
X10069714Y-11507800D02*
X10088762Y-11507800D01*
X10107810Y-11517324D01*
X10117333Y-11526847D01*
X10126857Y-11545895D01*
X10136381Y-11583990D01*
X10136381Y-11631609D01*
X10126857Y-11669705D01*
X10117333Y-11688752D01*
X10107810Y-11698276D01*
X10088762Y-11707800D01*
X10069714Y-11707800D01*
X10050667Y-11698276D01*
X10041143Y-11688752D01*
X10031619Y-11669705D01*
X10022095Y-11631609D01*
X10022095Y-11583990D01*
X10031619Y-11545895D01*
X10041143Y-11526847D01*
X10050667Y-11517324D01*
X10069714Y-11507800D01*
X10222095Y-11688752D02*
X10231619Y-11698276D01*
X10222095Y-11707800D01*
X10212571Y-11698276D01*
X10222095Y-11688752D01*
X10222095Y-11707800D01*
X10345905Y-11593514D02*
X10326857Y-11583990D01*
X10317333Y-11574466D01*
X10307810Y-11555419D01*
X10307810Y-11545895D01*
X10317333Y-11526847D01*
X10326857Y-11517324D01*
X10345905Y-11507800D01*
X10384000Y-11507800D01*
X10403048Y-11517324D01*
X10412571Y-11526847D01*
X10422095Y-11545895D01*
X10422095Y-11555419D01*
X10412571Y-11574466D01*
X10403048Y-11583990D01*
X10384000Y-11593514D01*
X10345905Y-11593514D01*
X10326857Y-11603038D01*
X10317333Y-11612562D01*
X10307810Y-11631609D01*
X10307810Y-11669705D01*
X10317333Y-11688752D01*
X10326857Y-11698276D01*
X10345905Y-11707800D01*
X10384000Y-11707800D01*
X10403048Y-11698276D01*
X10412571Y-11688752D01*
X10422095Y-11669705D01*
X10422095Y-11631609D01*
X10412571Y-11612562D01*
X10403048Y-11603038D01*
X10384000Y-11593514D01*
X10545905Y-11507800D02*
X10564952Y-11507800D01*
X10584000Y-11517324D01*
X10593524Y-11526847D01*
X10603048Y-11545895D01*
X10612571Y-11583990D01*
X10612571Y-11631609D01*
X10603048Y-11669705D01*
X10593524Y-11688752D01*
X10584000Y-11698276D01*
X10564952Y-11707800D01*
X10545905Y-11707800D01*
X10526857Y-11698276D01*
X10517333Y-11688752D01*
X10507810Y-11669705D01*
X10498286Y-11631609D01*
X10498286Y-11583990D01*
X10507810Y-11545895D01*
X10517333Y-11526847D01*
X10526857Y-11517324D01*
X10545905Y-11507800D01*
X10736381Y-11507800D02*
X10755429Y-11507800D01*
X10774476Y-11517324D01*
X10784000Y-11526847D01*
X10793524Y-11545895D01*
X10803048Y-11583990D01*
X10803048Y-11631609D01*
X10793524Y-11669705D01*
X10784000Y-11688752D01*
X10774476Y-11698276D01*
X10755429Y-11707800D01*
X10736381Y-11707800D01*
X10717333Y-11698276D01*
X10707810Y-11688752D01*
X10698286Y-11669705D01*
X10688762Y-11631609D01*
X10688762Y-11583990D01*
X10698286Y-11545895D01*
X10707810Y-11526847D01*
X10717333Y-11517324D01*
X10736381Y-11507800D01*
X10888762Y-11707800D02*
X10888762Y-11574466D01*
X10888762Y-11593514D02*
X10898286Y-11583990D01*
X10917333Y-11574466D01*
X10945905Y-11574466D01*
X10964952Y-11583990D01*
X10974476Y-11603038D01*
X10974476Y-11707800D01*
X10974476Y-11603038D02*
X10984000Y-11583990D01*
X11003048Y-11574466D01*
X11031619Y-11574466D01*
X11050667Y-11583990D01*
X11060190Y-11603038D01*
X11060190Y-11707800D01*
X11155429Y-11707800D02*
X11155429Y-11574466D01*
X11155429Y-11593514D02*
X11164952Y-11583990D01*
X11184000Y-11574466D01*
X11212571Y-11574466D01*
X11231619Y-11583990D01*
X11241143Y-11603038D01*
X11241143Y-11707800D01*
X11241143Y-11603038D02*
X11250667Y-11583990D01*
X11269714Y-11574466D01*
X11298286Y-11574466D01*
X11317333Y-11583990D01*
X11326857Y-11603038D01*
X11326857Y-11707800D01*
X11717333Y-11498276D02*
X11545905Y-11755419D01*
X11974476Y-11507800D02*
X11993524Y-11507800D01*
X12012571Y-11517324D01*
X12022095Y-11526847D01*
X12031619Y-11545895D01*
X12041143Y-11583990D01*
X12041143Y-11631609D01*
X12031619Y-11669705D01*
X12022095Y-11688752D01*
X12012571Y-11698276D01*
X11993524Y-11707800D01*
X11974476Y-11707800D01*
X11955428Y-11698276D01*
X11945905Y-11688752D01*
X11936381Y-11669705D01*
X11926857Y-11631609D01*
X11926857Y-11583990D01*
X11936381Y-11545895D01*
X11945905Y-11526847D01*
X11955428Y-11517324D01*
X11974476Y-11507800D01*
X12126857Y-11688752D02*
X12136381Y-11698276D01*
X12126857Y-11707800D01*
X12117333Y-11698276D01*
X12126857Y-11688752D01*
X12126857Y-11707800D01*
X12260190Y-11507800D02*
X12279238Y-11507800D01*
X12298286Y-11517324D01*
X12307809Y-11526847D01*
X12317333Y-11545895D01*
X12326857Y-11583990D01*
X12326857Y-11631609D01*
X12317333Y-11669705D01*
X12307809Y-11688752D01*
X12298286Y-11698276D01*
X12279238Y-11707800D01*
X12260190Y-11707800D01*
X12241143Y-11698276D01*
X12231619Y-11688752D01*
X12222095Y-11669705D01*
X12212571Y-11631609D01*
X12212571Y-11583990D01*
X12222095Y-11545895D01*
X12231619Y-11526847D01*
X12241143Y-11517324D01*
X12260190Y-11507800D01*
X12393524Y-11507800D02*
X12517333Y-11507800D01*
X12450667Y-11583990D01*
X12479238Y-11583990D01*
X12498286Y-11593514D01*
X12507809Y-11603038D01*
X12517333Y-11622086D01*
X12517333Y-11669705D01*
X12507809Y-11688752D01*
X12498286Y-11698276D01*
X12479238Y-11707800D01*
X12422095Y-11707800D01*
X12403048Y-11698276D01*
X12393524Y-11688752D01*
X12707809Y-11707800D02*
X12593524Y-11707800D01*
X12650667Y-11707800D02*
X12650667Y-11507800D01*
X12631619Y-11536371D01*
X12612571Y-11555419D01*
X12593524Y-11564943D01*
X12888762Y-11507800D02*
X12793524Y-11507800D01*
X12784000Y-11603038D01*
X12793524Y-11593514D01*
X12812571Y-11583990D01*
X12860190Y-11583990D01*
X12879238Y-11593514D01*
X12888762Y-11603038D01*
X12898286Y-11622086D01*
X12898286Y-11669705D01*
X12888762Y-11688752D01*
X12879238Y-11698276D01*
X12860190Y-11707800D01*
X12812571Y-11707800D01*
X12793524Y-11698276D01*
X12784000Y-11688752D01*
X12974476Y-11507800D02*
X12974476Y-11545895D01*
X13050667Y-11507800D02*
X13050667Y-11545895D01*
X13345905Y-11783990D02*
X13336381Y-11774466D01*
X13317333Y-11745895D01*
X13307809Y-11726847D01*
X13298286Y-11698276D01*
X13288762Y-11650657D01*
X13288762Y-11612562D01*
X13298286Y-11564943D01*
X13307809Y-11536371D01*
X13317333Y-11517324D01*
X13336381Y-11488752D01*
X13345905Y-11479228D01*
X13517333Y-11507800D02*
X13422095Y-11507800D01*
X13412571Y-11603038D01*
X13422095Y-11593514D01*
X13441143Y-11583990D01*
X13488762Y-11583990D01*
X13507809Y-11593514D01*
X13517333Y-11603038D01*
X13526857Y-11622086D01*
X13526857Y-11669705D01*
X13517333Y-11688752D01*
X13507809Y-11698276D01*
X13488762Y-11707800D01*
X13441143Y-11707800D01*
X13422095Y-11698276D01*
X13412571Y-11688752D01*
X13717333Y-11707800D02*
X13603048Y-11707800D01*
X13660190Y-11707800D02*
X13660190Y-11507800D01*
X13641143Y-11536371D01*
X13622095Y-11555419D01*
X13603048Y-11564943D01*
X13955428Y-11707800D02*
X13955428Y-11507800D01*
X14041143Y-11707800D02*
X14041143Y-11603038D01*
X14031619Y-11583990D01*
X14012571Y-11574466D01*
X13984000Y-11574466D01*
X13964952Y-11583990D01*
X13955428Y-11593514D01*
X14164952Y-11707800D02*
X14145905Y-11698276D01*
X14136381Y-11688752D01*
X14126857Y-11669705D01*
X14126857Y-11612562D01*
X14136381Y-11593514D01*
X14145905Y-11583990D01*
X14164952Y-11574466D01*
X14193524Y-11574466D01*
X14212571Y-11583990D01*
X14222095Y-11593514D01*
X14231619Y-11612562D01*
X14231619Y-11669705D01*
X14222095Y-11688752D01*
X14212571Y-11698276D01*
X14193524Y-11707800D01*
X14164952Y-11707800D01*
X14345905Y-11707800D02*
X14326857Y-11698276D01*
X14317333Y-11679228D01*
X14317333Y-11507800D01*
X14498286Y-11698276D02*
X14479238Y-11707800D01*
X14441143Y-11707800D01*
X14422095Y-11698276D01*
X14412571Y-11679228D01*
X14412571Y-11603038D01*
X14422095Y-11583990D01*
X14441143Y-11574466D01*
X14479238Y-11574466D01*
X14498286Y-11583990D01*
X14507809Y-11603038D01*
X14507809Y-11622086D01*
X14412571Y-11641133D01*
X14584000Y-11698276D02*
X14603048Y-11707800D01*
X14641143Y-11707800D01*
X14660190Y-11698276D01*
X14669714Y-11679228D01*
X14669714Y-11669705D01*
X14660190Y-11650657D01*
X14641143Y-11641133D01*
X14612571Y-11641133D01*
X14593524Y-11631609D01*
X14584000Y-11612562D01*
X14584000Y-11603038D01*
X14593524Y-11583990D01*
X14612571Y-11574466D01*
X14641143Y-11574466D01*
X14660190Y-11583990D01*
X14736381Y-11783990D02*
X14745905Y-11774466D01*
X14764952Y-11745895D01*
X14774476Y-11726847D01*
X14784000Y-11698276D01*
X14793524Y-11650657D01*
X14793524Y-11612562D01*
X14784000Y-11564943D01*
X14774476Y-11536371D01*
X14764952Y-11517324D01*
X14745905Y-11488752D01*
X14736381Y-11479228D01*
D16*
X9714000Y-11941324D02*
X9774000Y-11881324D01*
X9714000Y-11821324D01*
X9654000Y-11881324D01*
X9714000Y-11941324D01*
D11*
X10136381Y-11971800D02*
X10022095Y-11971800D01*
X10079238Y-11971800D02*
X10079238Y-11771800D01*
X10060190Y-11800371D01*
X10041143Y-11819419D01*
X10022095Y-11828943D01*
X10222095Y-11952752D02*
X10231619Y-11962276D01*
X10222095Y-11971800D01*
X10212571Y-11962276D01*
X10222095Y-11952752D01*
X10222095Y-11971800D01*
X10307810Y-11790847D02*
X10317333Y-11781324D01*
X10336381Y-11771800D01*
X10384000Y-11771800D01*
X10403048Y-11781324D01*
X10412571Y-11790847D01*
X10422095Y-11809895D01*
X10422095Y-11828943D01*
X10412571Y-11857514D01*
X10298286Y-11971800D01*
X10422095Y-11971800D01*
X10545905Y-11771800D02*
X10564952Y-11771800D01*
X10584000Y-11781324D01*
X10593524Y-11790847D01*
X10603048Y-11809895D01*
X10612571Y-11847990D01*
X10612571Y-11895609D01*
X10603048Y-11933705D01*
X10593524Y-11952752D01*
X10584000Y-11962276D01*
X10564952Y-11971800D01*
X10545905Y-11971800D01*
X10526857Y-11962276D01*
X10517333Y-11952752D01*
X10507810Y-11933705D01*
X10498286Y-11895609D01*
X10498286Y-11847990D01*
X10507810Y-11809895D01*
X10517333Y-11790847D01*
X10526857Y-11781324D01*
X10545905Y-11771800D01*
X10736381Y-11771800D02*
X10755429Y-11771800D01*
X10774476Y-11781324D01*
X10784000Y-11790847D01*
X10793524Y-11809895D01*
X10803048Y-11847990D01*
X10803048Y-11895609D01*
X10793524Y-11933705D01*
X10784000Y-11952752D01*
X10774476Y-11962276D01*
X10755429Y-11971800D01*
X10736381Y-11971800D01*
X10717333Y-11962276D01*
X10707810Y-11952752D01*
X10698286Y-11933705D01*
X10688762Y-11895609D01*
X10688762Y-11847990D01*
X10698286Y-11809895D01*
X10707810Y-11790847D01*
X10717333Y-11781324D01*
X10736381Y-11771800D01*
X10888762Y-11971800D02*
X10888762Y-11838466D01*
X10888762Y-11857514D02*
X10898286Y-11847990D01*
X10917333Y-11838466D01*
X10945905Y-11838466D01*
X10964952Y-11847990D01*
X10974476Y-11867038D01*
X10974476Y-11971800D01*
X10974476Y-11867038D02*
X10984000Y-11847990D01*
X11003048Y-11838466D01*
X11031619Y-11838466D01*
X11050667Y-11847990D01*
X11060190Y-11867038D01*
X11060190Y-11971800D01*
X11155429Y-11971800D02*
X11155429Y-11838466D01*
X11155429Y-11857514D02*
X11164952Y-11847990D01*
X11184000Y-11838466D01*
X11212571Y-11838466D01*
X11231619Y-11847990D01*
X11241143Y-11867038D01*
X11241143Y-11971800D01*
X11241143Y-11867038D02*
X11250667Y-11847990D01*
X11269714Y-11838466D01*
X11298286Y-11838466D01*
X11317333Y-11847990D01*
X11326857Y-11867038D01*
X11326857Y-11971800D01*
X11717333Y-11762276D02*
X11545905Y-12019419D01*
X11974476Y-11771800D02*
X11993524Y-11771800D01*
X12012571Y-11781324D01*
X12022095Y-11790847D01*
X12031619Y-11809895D01*
X12041143Y-11847990D01*
X12041143Y-11895609D01*
X12031619Y-11933705D01*
X12022095Y-11952752D01*
X12012571Y-11962276D01*
X11993524Y-11971800D01*
X11974476Y-11971800D01*
X11955428Y-11962276D01*
X11945905Y-11952752D01*
X11936381Y-11933705D01*
X11926857Y-11895609D01*
X11926857Y-11847990D01*
X11936381Y-11809895D01*
X11945905Y-11790847D01*
X11955428Y-11781324D01*
X11974476Y-11771800D01*
X12126857Y-11952752D02*
X12136381Y-11962276D01*
X12126857Y-11971800D01*
X12117333Y-11962276D01*
X12126857Y-11952752D01*
X12126857Y-11971800D01*
X12260190Y-11771800D02*
X12279238Y-11771800D01*
X12298286Y-11781324D01*
X12307809Y-11790847D01*
X12317333Y-11809895D01*
X12326857Y-11847990D01*
X12326857Y-11895609D01*
X12317333Y-11933705D01*
X12307809Y-11952752D01*
X12298286Y-11962276D01*
X12279238Y-11971800D01*
X12260190Y-11971800D01*
X12241143Y-11962276D01*
X12231619Y-11952752D01*
X12222095Y-11933705D01*
X12212571Y-11895609D01*
X12212571Y-11847990D01*
X12222095Y-11809895D01*
X12231619Y-11790847D01*
X12241143Y-11781324D01*
X12260190Y-11771800D01*
X12498286Y-11838466D02*
X12498286Y-11971800D01*
X12450667Y-11762276D02*
X12403048Y-11905133D01*
X12526857Y-11905133D01*
X12584000Y-11771800D02*
X12717333Y-11771800D01*
X12631619Y-11971800D01*
X12784000Y-11790847D02*
X12793524Y-11781324D01*
X12812571Y-11771800D01*
X12860190Y-11771800D01*
X12879238Y-11781324D01*
X12888762Y-11790847D01*
X12898286Y-11809895D01*
X12898286Y-11828943D01*
X12888762Y-11857514D01*
X12774476Y-11971800D01*
X12898286Y-11971800D01*
X12974476Y-11771800D02*
X12974476Y-11809895D01*
X13050667Y-11771800D02*
X13050667Y-11809895D01*
X13345905Y-12047990D02*
X13336381Y-12038466D01*
X13317333Y-12009895D01*
X13307809Y-11990847D01*
X13298286Y-11962276D01*
X13288762Y-11914657D01*
X13288762Y-11876562D01*
X13298286Y-11828943D01*
X13307809Y-11800371D01*
X13317333Y-11781324D01*
X13336381Y-11752752D01*
X13345905Y-11743228D01*
X13412571Y-11790847D02*
X13422095Y-11781324D01*
X13441143Y-11771800D01*
X13488762Y-11771800D01*
X13507809Y-11781324D01*
X13517333Y-11790847D01*
X13526857Y-11809895D01*
X13526857Y-11828943D01*
X13517333Y-11857514D01*
X13403048Y-11971800D01*
X13526857Y-11971800D01*
X13764952Y-11971800D02*
X13764952Y-11771800D01*
X13850667Y-11971800D02*
X13850667Y-11867038D01*
X13841143Y-11847990D01*
X13822095Y-11838466D01*
X13793524Y-11838466D01*
X13774476Y-11847990D01*
X13764952Y-11857514D01*
X13974476Y-11971800D02*
X13955428Y-11962276D01*
X13945905Y-11952752D01*
X13936381Y-11933705D01*
X13936381Y-11876562D01*
X13945905Y-11857514D01*
X13955428Y-11847990D01*
X13974476Y-11838466D01*
X14003048Y-11838466D01*
X14022095Y-11847990D01*
X14031619Y-11857514D01*
X14041143Y-11876562D01*
X14041143Y-11933705D01*
X14031619Y-11952752D01*
X14022095Y-11962276D01*
X14003048Y-11971800D01*
X13974476Y-11971800D01*
X14155428Y-11971800D02*
X14136381Y-11962276D01*
X14126857Y-11943228D01*
X14126857Y-11771800D01*
X14307809Y-11962276D02*
X14288762Y-11971800D01*
X14250667Y-11971800D01*
X14231619Y-11962276D01*
X14222095Y-11943228D01*
X14222095Y-11867038D01*
X14231619Y-11847990D01*
X14250667Y-11838466D01*
X14288762Y-11838466D01*
X14307809Y-11847990D01*
X14317333Y-11867038D01*
X14317333Y-11886086D01*
X14222095Y-11905133D01*
X14393524Y-11962276D02*
X14412571Y-11971800D01*
X14450667Y-11971800D01*
X14469714Y-11962276D01*
X14479238Y-11943228D01*
X14479238Y-11933705D01*
X14469714Y-11914657D01*
X14450667Y-11905133D01*
X14422095Y-11905133D01*
X14403048Y-11895609D01*
X14393524Y-11876562D01*
X14393524Y-11867038D01*
X14403048Y-11847990D01*
X14422095Y-11838466D01*
X14450667Y-11838466D01*
X14469714Y-11847990D01*
X14545905Y-12047990D02*
X14555428Y-12038466D01*
X14574476Y-12009895D01*
X14584000Y-11990847D01*
X14593524Y-11962276D01*
X14603048Y-11914657D01*
X14603048Y-11876562D01*
X14593524Y-11828943D01*
X14584000Y-11800371D01*
X14574476Y-11781324D01*
X14555428Y-11752752D01*
X14545905Y-11743228D01*
D17*
X9647000Y-12081824D02*
X9774000Y-12208824D01*
X9774000Y-12081824D02*
X9647000Y-12208824D01*
X9774000Y-12145324D02*
G75*
G03*
X9774000Y-12145324I-63500J0D01*
G01*
D11*
X10136381Y-12235800D02*
X10022095Y-12235800D01*
X10079238Y-12235800D02*
X10079238Y-12035800D01*
X10060190Y-12064371D01*
X10041143Y-12083419D01*
X10022095Y-12092943D01*
X10222095Y-12216752D02*
X10231619Y-12226276D01*
X10222095Y-12235800D01*
X10212571Y-12226276D01*
X10222095Y-12216752D01*
X10222095Y-12235800D01*
X10307810Y-12054847D02*
X10317333Y-12045324D01*
X10336381Y-12035800D01*
X10384000Y-12035800D01*
X10403048Y-12045324D01*
X10412571Y-12054847D01*
X10422095Y-12073895D01*
X10422095Y-12092943D01*
X10412571Y-12121514D01*
X10298286Y-12235800D01*
X10422095Y-12235800D01*
X10488762Y-12035800D02*
X10622095Y-12035800D01*
X10536381Y-12235800D01*
X10736381Y-12035800D02*
X10755429Y-12035800D01*
X10774476Y-12045324D01*
X10784000Y-12054847D01*
X10793524Y-12073895D01*
X10803048Y-12111990D01*
X10803048Y-12159609D01*
X10793524Y-12197705D01*
X10784000Y-12216752D01*
X10774476Y-12226276D01*
X10755429Y-12235800D01*
X10736381Y-12235800D01*
X10717333Y-12226276D01*
X10707810Y-12216752D01*
X10698286Y-12197705D01*
X10688762Y-12159609D01*
X10688762Y-12111990D01*
X10698286Y-12073895D01*
X10707810Y-12054847D01*
X10717333Y-12045324D01*
X10736381Y-12035800D01*
X10888762Y-12235800D02*
X10888762Y-12102466D01*
X10888762Y-12121514D02*
X10898286Y-12111990D01*
X10917333Y-12102466D01*
X10945905Y-12102466D01*
X10964952Y-12111990D01*
X10974476Y-12131038D01*
X10974476Y-12235800D01*
X10974476Y-12131038D02*
X10984000Y-12111990D01*
X11003048Y-12102466D01*
X11031619Y-12102466D01*
X11050667Y-12111990D01*
X11060190Y-12131038D01*
X11060190Y-12235800D01*
X11155429Y-12235800D02*
X11155429Y-12102466D01*
X11155429Y-12121514D02*
X11164952Y-12111990D01*
X11184000Y-12102466D01*
X11212571Y-12102466D01*
X11231619Y-12111990D01*
X11241143Y-12131038D01*
X11241143Y-12235800D01*
X11241143Y-12131038D02*
X11250667Y-12111990D01*
X11269714Y-12102466D01*
X11298286Y-12102466D01*
X11317333Y-12111990D01*
X11326857Y-12131038D01*
X11326857Y-12235800D01*
X11717333Y-12026276D02*
X11545905Y-12283419D01*
X11974476Y-12035800D02*
X11993524Y-12035800D01*
X12012571Y-12045324D01*
X12022095Y-12054847D01*
X12031619Y-12073895D01*
X12041143Y-12111990D01*
X12041143Y-12159609D01*
X12031619Y-12197705D01*
X12022095Y-12216752D01*
X12012571Y-12226276D01*
X11993524Y-12235800D01*
X11974476Y-12235800D01*
X11955428Y-12226276D01*
X11945905Y-12216752D01*
X11936381Y-12197705D01*
X11926857Y-12159609D01*
X11926857Y-12111990D01*
X11936381Y-12073895D01*
X11945905Y-12054847D01*
X11955428Y-12045324D01*
X11974476Y-12035800D01*
X12126857Y-12216752D02*
X12136381Y-12226276D01*
X12126857Y-12235800D01*
X12117333Y-12226276D01*
X12126857Y-12216752D01*
X12126857Y-12235800D01*
X12260190Y-12035800D02*
X12279238Y-12035800D01*
X12298286Y-12045324D01*
X12307809Y-12054847D01*
X12317333Y-12073895D01*
X12326857Y-12111990D01*
X12326857Y-12159609D01*
X12317333Y-12197705D01*
X12307809Y-12216752D01*
X12298286Y-12226276D01*
X12279238Y-12235800D01*
X12260190Y-12235800D01*
X12241143Y-12226276D01*
X12231619Y-12216752D01*
X12222095Y-12197705D01*
X12212571Y-12159609D01*
X12212571Y-12111990D01*
X12222095Y-12073895D01*
X12231619Y-12054847D01*
X12241143Y-12045324D01*
X12260190Y-12035800D01*
X12507809Y-12035800D02*
X12412571Y-12035800D01*
X12403048Y-12131038D01*
X12412571Y-12121514D01*
X12431619Y-12111990D01*
X12479238Y-12111990D01*
X12498286Y-12121514D01*
X12507809Y-12131038D01*
X12517333Y-12150086D01*
X12517333Y-12197705D01*
X12507809Y-12216752D01*
X12498286Y-12226276D01*
X12479238Y-12235800D01*
X12431619Y-12235800D01*
X12412571Y-12226276D01*
X12403048Y-12216752D01*
X12641143Y-12035800D02*
X12660190Y-12035800D01*
X12679238Y-12045324D01*
X12688762Y-12054847D01*
X12698286Y-12073895D01*
X12707809Y-12111990D01*
X12707809Y-12159609D01*
X12698286Y-12197705D01*
X12688762Y-12216752D01*
X12679238Y-12226276D01*
X12660190Y-12235800D01*
X12641143Y-12235800D01*
X12622095Y-12226276D01*
X12612571Y-12216752D01*
X12603048Y-12197705D01*
X12593524Y-12159609D01*
X12593524Y-12111990D01*
X12603048Y-12073895D01*
X12612571Y-12054847D01*
X12622095Y-12045324D01*
X12641143Y-12035800D01*
X12831619Y-12035800D02*
X12850667Y-12035800D01*
X12869714Y-12045324D01*
X12879238Y-12054847D01*
X12888762Y-12073895D01*
X12898286Y-12111990D01*
X12898286Y-12159609D01*
X12888762Y-12197705D01*
X12879238Y-12216752D01*
X12869714Y-12226276D01*
X12850667Y-12235800D01*
X12831619Y-12235800D01*
X12812571Y-12226276D01*
X12803048Y-12216752D01*
X12793524Y-12197705D01*
X12784000Y-12159609D01*
X12784000Y-12111990D01*
X12793524Y-12073895D01*
X12803048Y-12054847D01*
X12812571Y-12045324D01*
X12831619Y-12035800D01*
X12974476Y-12035800D02*
X12974476Y-12073895D01*
X13050667Y-12035800D02*
X13050667Y-12073895D01*
X13345905Y-12311990D02*
X13336381Y-12302466D01*
X13317333Y-12273895D01*
X13307809Y-12254847D01*
X13298286Y-12226276D01*
X13288762Y-12178657D01*
X13288762Y-12140562D01*
X13298286Y-12092943D01*
X13307809Y-12064371D01*
X13317333Y-12045324D01*
X13336381Y-12016752D01*
X13345905Y-12007228D01*
X13460190Y-12035800D02*
X13479238Y-12035800D01*
X13498286Y-12045324D01*
X13507809Y-12054847D01*
X13517333Y-12073895D01*
X13526857Y-12111990D01*
X13526857Y-12159609D01*
X13517333Y-12197705D01*
X13507809Y-12216752D01*
X13498286Y-12226276D01*
X13479238Y-12235800D01*
X13460190Y-12235800D01*
X13441143Y-12226276D01*
X13431619Y-12216752D01*
X13422095Y-12197705D01*
X13412571Y-12159609D01*
X13412571Y-12111990D01*
X13422095Y-12073895D01*
X13431619Y-12054847D01*
X13441143Y-12045324D01*
X13460190Y-12035800D01*
X13764952Y-12235800D02*
X13764952Y-12035800D01*
X13850667Y-12235800D02*
X13850667Y-12131038D01*
X13841143Y-12111990D01*
X13822095Y-12102466D01*
X13793524Y-12102466D01*
X13774476Y-12111990D01*
X13764952Y-12121514D01*
X13974476Y-12235800D02*
X13955428Y-12226276D01*
X13945905Y-12216752D01*
X13936381Y-12197705D01*
X13936381Y-12140562D01*
X13945905Y-12121514D01*
X13955428Y-12111990D01*
X13974476Y-12102466D01*
X14003048Y-12102466D01*
X14022095Y-12111990D01*
X14031619Y-12121514D01*
X14041143Y-12140562D01*
X14041143Y-12197705D01*
X14031619Y-12216752D01*
X14022095Y-12226276D01*
X14003048Y-12235800D01*
X13974476Y-12235800D01*
X14155428Y-12235800D02*
X14136381Y-12226276D01*
X14126857Y-12207228D01*
X14126857Y-12035800D01*
X14307809Y-12226276D02*
X14288762Y-12235800D01*
X14250667Y-12235800D01*
X14231619Y-12226276D01*
X14222095Y-12207228D01*
X14222095Y-12131038D01*
X14231619Y-12111990D01*
X14250667Y-12102466D01*
X14288762Y-12102466D01*
X14307809Y-12111990D01*
X14317333Y-12131038D01*
X14317333Y-12150086D01*
X14222095Y-12169133D01*
X14393524Y-12226276D02*
X14412571Y-12235800D01*
X14450667Y-12235800D01*
X14469714Y-12226276D01*
X14479238Y-12207228D01*
X14479238Y-12197705D01*
X14469714Y-12178657D01*
X14450667Y-12169133D01*
X14422095Y-12169133D01*
X14403048Y-12159609D01*
X14393524Y-12140562D01*
X14393524Y-12131038D01*
X14403048Y-12111990D01*
X14422095Y-12102466D01*
X14450667Y-12102466D01*
X14469714Y-12111990D01*
X14717333Y-12159609D02*
X14869714Y-12159609D01*
X14793524Y-12235800D02*
X14793524Y-12083419D01*
X15126857Y-12235800D02*
X15164952Y-12235800D01*
X15184000Y-12226276D01*
X15193524Y-12216752D01*
X15212571Y-12188181D01*
X15222095Y-12150086D01*
X15222095Y-12073895D01*
X15212571Y-12054847D01*
X15203048Y-12045324D01*
X15184000Y-12035800D01*
X15145905Y-12035800D01*
X15126857Y-12045324D01*
X15117333Y-12054847D01*
X15107809Y-12073895D01*
X15107809Y-12121514D01*
X15117333Y-12140562D01*
X15126857Y-12150086D01*
X15145905Y-12159609D01*
X15184000Y-12159609D01*
X15203048Y-12150086D01*
X15212571Y-12140562D01*
X15222095Y-12121514D01*
X15450667Y-12226276D02*
X15469714Y-12235800D01*
X15507809Y-12235800D01*
X15526857Y-12226276D01*
X15536381Y-12207228D01*
X15536381Y-12197705D01*
X15526857Y-12178657D01*
X15507809Y-12169133D01*
X15479238Y-12169133D01*
X15460190Y-12159609D01*
X15450667Y-12140562D01*
X15450667Y-12131038D01*
X15460190Y-12111990D01*
X15479238Y-12102466D01*
X15507809Y-12102466D01*
X15526857Y-12111990D01*
X15650667Y-12235800D02*
X15631619Y-12226276D01*
X15622095Y-12207228D01*
X15622095Y-12035800D01*
X15755428Y-12235800D02*
X15736381Y-12226276D01*
X15726857Y-12216752D01*
X15717333Y-12197705D01*
X15717333Y-12140562D01*
X15726857Y-12121514D01*
X15736381Y-12111990D01*
X15755428Y-12102466D01*
X15784000Y-12102466D01*
X15803048Y-12111990D01*
X15812571Y-12121514D01*
X15822095Y-12140562D01*
X15822095Y-12197705D01*
X15812571Y-12216752D01*
X15803048Y-12226276D01*
X15784000Y-12235800D01*
X15755428Y-12235800D01*
X15879238Y-12102466D02*
X15955428Y-12102466D01*
X15907809Y-12035800D02*
X15907809Y-12207228D01*
X15917333Y-12226276D01*
X15936381Y-12235800D01*
X15955428Y-12235800D01*
X16012571Y-12226276D02*
X16031619Y-12235800D01*
X16069714Y-12235800D01*
X16088762Y-12226276D01*
X16098286Y-12207228D01*
X16098286Y-12197705D01*
X16088762Y-12178657D01*
X16069714Y-12169133D01*
X16041143Y-12169133D01*
X16022095Y-12159609D01*
X16012571Y-12140562D01*
X16012571Y-12131038D01*
X16022095Y-12111990D01*
X16041143Y-12102466D01*
X16069714Y-12102466D01*
X16088762Y-12111990D01*
X16164952Y-12311990D02*
X16174476Y-12302466D01*
X16193524Y-12273895D01*
X16203048Y-12254847D01*
X16212571Y-12226276D01*
X16222095Y-12178657D01*
X16222095Y-12140562D01*
X16212571Y-12092943D01*
X16203048Y-12064371D01*
X16193524Y-12045324D01*
X16174476Y-12016752D01*
X16164952Y-12007228D01*
M02*
