G04 #@! TF.GenerationSoftware,KiCad,Pcbnew,(6.0.0)*
G04 #@! TF.CreationDate,2022-07-26T20:36:16+02:00*
G04 #@! TF.ProjectId,ray,7261792e-6b69-4636-9164-5f7063625858,rev?*
G04 #@! TF.SameCoordinates,Original*
G04 #@! TF.FileFunction,Copper,L2,Bot*
G04 #@! TF.FilePolarity,Positive*
%FSLAX46Y46*%
G04 Gerber Fmt 4.6, Leading zero omitted, Abs format (unit mm)*
G04 Created by KiCad (PCBNEW (6.0.0)) date 2022-07-26 20:36:16*
%MOMM*%
%LPD*%
G01*
G04 APERTURE LIST*
G04 Aperture macros list*
%AMRoundRect*
0 Rectangle with rounded corners*
0 $1 Rounding radius*
0 $2 $3 $4 $5 $6 $7 $8 $9 X,Y pos of 4 corners*
0 Add a 4 corners polygon primitive as box body*
4,1,4,$2,$3,$4,$5,$6,$7,$8,$9,$2,$3,0*
0 Add four circle primitives for the rounded corners*
1,1,$1+$1,$2,$3*
1,1,$1+$1,$4,$5*
1,1,$1+$1,$6,$7*
1,1,$1+$1,$8,$9*
0 Add four rect primitives between the rounded corners*
20,1,$1+$1,$2,$3,$4,$5,0*
20,1,$1+$1,$4,$5,$6,$7,0*
20,1,$1+$1,$6,$7,$8,$9,0*
20,1,$1+$1,$8,$9,$2,$3,0*%
G04 Aperture macros list end*
G04 #@! TA.AperFunction,ComponentPad*
%ADD10C,1.600000*%
G04 #@! TD*
G04 #@! TA.AperFunction,ComponentPad*
%ADD11O,1.600000X1.600000*%
G04 #@! TD*
G04 #@! TA.AperFunction,ComponentPad*
%ADD12RoundRect,0.250000X-0.350000X-0.625000X0.350000X-0.625000X0.350000X0.625000X-0.350000X0.625000X0*%
G04 #@! TD*
G04 #@! TA.AperFunction,ComponentPad*
%ADD13O,1.200000X1.750000*%
G04 #@! TD*
G04 #@! TA.AperFunction,ComponentPad*
%ADD14R,1.600000X1.600000*%
G04 #@! TD*
G04 #@! TA.AperFunction,ComponentPad*
%ADD15C,1.440000*%
G04 #@! TD*
G04 #@! TA.AperFunction,ComponentPad*
%ADD16RoundRect,0.250000X0.625000X-0.350000X0.625000X0.350000X-0.625000X0.350000X-0.625000X-0.350000X0*%
G04 #@! TD*
G04 #@! TA.AperFunction,ComponentPad*
%ADD17O,1.750000X1.200000*%
G04 #@! TD*
G04 #@! TA.AperFunction,ComponentPad*
%ADD18R,2.400000X1.600000*%
G04 #@! TD*
G04 #@! TA.AperFunction,ComponentPad*
%ADD19O,2.400000X1.600000*%
G04 #@! TD*
G04 #@! TA.AperFunction,ComponentPad*
%ADD20R,2.400000X2.400000*%
G04 #@! TD*
G04 #@! TA.AperFunction,ComponentPad*
%ADD21O,2.400000X2.400000*%
G04 #@! TD*
G04 #@! TA.AperFunction,ComponentPad*
%ADD22R,1.500000X1.500000*%
G04 #@! TD*
G04 #@! TA.AperFunction,ComponentPad*
%ADD23O,2.540000X3.800000*%
G04 #@! TD*
G04 #@! TA.AperFunction,ViaPad*
%ADD24C,0.800000*%
G04 #@! TD*
G04 #@! TA.AperFunction,Conductor*
%ADD25C,0.500000*%
G04 #@! TD*
G04 APERTURE END LIST*
D10*
X124192000Y-95199237D03*
X124192000Y-90199237D03*
X134460000Y-73101237D03*
D11*
X124300000Y-73101237D03*
D10*
X111092000Y-71069237D03*
D11*
X100932000Y-71069237D03*
D10*
X130796000Y-82245237D03*
D11*
X130796000Y-92405237D03*
D12*
X119874000Y-66523237D03*
D13*
X121874000Y-66523237D03*
D10*
X100932000Y-74371237D03*
D11*
X111092000Y-74371237D03*
D14*
X125316000Y-78943237D03*
D10*
X125316000Y-76443237D03*
X111092000Y-77673237D03*
D11*
X100932000Y-77673237D03*
D10*
X118790000Y-77423237D03*
X113790000Y-77423237D03*
D12*
X114038400Y-84277237D03*
D13*
X116038400Y-84277237D03*
X118038400Y-84277237D03*
D10*
X118790000Y-72323237D03*
X113790000Y-72323237D03*
X140702000Y-92405237D03*
D11*
X140702000Y-82245237D03*
D15*
X116680000Y-89865237D03*
X114140000Y-89865237D03*
X111600000Y-89865237D03*
D16*
X140406000Y-61401237D03*
D17*
X140406000Y-59401237D03*
D10*
X114290000Y-64223237D03*
X114290000Y-59223237D03*
X100951000Y-80467237D03*
X100951000Y-85467237D03*
X131558000Y-67005237D03*
X126558000Y-67005237D03*
D14*
X133952000Y-78689237D03*
D10*
X133952000Y-76689237D03*
X140702000Y-73395237D03*
X140702000Y-78395237D03*
D18*
X102390000Y-59523237D03*
D19*
X102390000Y-62063237D03*
X102390000Y-64603237D03*
X102390000Y-67143237D03*
X110010000Y-67143237D03*
X110010000Y-64603237D03*
X110010000Y-62063237D03*
X110010000Y-59523237D03*
D12*
X104996000Y-84277237D03*
D13*
X106996000Y-84277237D03*
X108996000Y-84277237D03*
D20*
X128002000Y-97485237D03*
D21*
X140702000Y-97485237D03*
D12*
X123157000Y-84404237D03*
D13*
X125157000Y-84404237D03*
D10*
X106520000Y-89357237D03*
D11*
X106520000Y-99517237D03*
D16*
X140406000Y-68513237D03*
D17*
X140406000Y-66513237D03*
D10*
X135876000Y-92405237D03*
D11*
X135876000Y-82245237D03*
D22*
X124170612Y-98540204D03*
D10*
X101948000Y-99517237D03*
D11*
X101948000Y-89357237D03*
D12*
X119890000Y-59851237D03*
D13*
X121890000Y-59851237D03*
D14*
X126478000Y-62179237D03*
D11*
X134098000Y-62179237D03*
D10*
X126478000Y-58877237D03*
D11*
X136638000Y-58877237D03*
D23*
X116696440Y-41911817D03*
X121398000Y-41911817D03*
X126096440Y-41911817D03*
X116696440Y-46911297D03*
X121398000Y-46911297D03*
X126096440Y-46911297D03*
X116697200Y-52011817D03*
X121398760Y-52011817D03*
X126097200Y-52011817D03*
D24*
X108661200Y-100380800D03*
X99000000Y-81000000D03*
X143408400Y-45000000D03*
X135000000Y-36000000D03*
X126000000Y-36000000D03*
X116577600Y-100431600D03*
X143357600Y-100431600D03*
X99000000Y-45000000D03*
X143459200Y-92354400D03*
X99000000Y-63000000D03*
X143408400Y-53949600D03*
X108000000Y-36000000D03*
X134577600Y-100431600D03*
X99000000Y-36000000D03*
X99000000Y-54000000D03*
X143459200Y-60960000D03*
X99060000Y-88265000D03*
X125577600Y-100431600D03*
X143408400Y-36068000D03*
X99000000Y-72000000D03*
X99110800Y-100228400D03*
X130948400Y-59182037D03*
D25*
X132220469Y-58849767D02*
X132929599Y-58140636D01*
X130948400Y-59182037D02*
X131418300Y-59182037D01*
X133971000Y-55626474D02*
X133971000Y-54010279D01*
X122697393Y-48210690D02*
X121398000Y-46911297D01*
X125834405Y-49510083D02*
X129470803Y-49510083D01*
X132929599Y-58140636D02*
G75*
G03*
X133971000Y-55626474I-2514166J2514165D01*
G01*
X132652923Y-50828160D02*
G75*
G02*
X133971000Y-54010279I-3182126J-3182122D01*
G01*
X131418300Y-59182037D02*
G75*
G03*
X132220469Y-58849767I-6J1134450D01*
G01*
X129470803Y-49510083D02*
G75*
G02*
X132652923Y-50828160I0J-4500197D01*
G01*
X122697393Y-48210690D02*
G75*
G03*
X125834405Y-49510083I3137015J3137019D01*
G01*
G04 #@! TA.AperFunction,Conductor*
G36*
X143728501Y-35101239D02*
G01*
X143744340Y-35113286D01*
X143791244Y-35155202D01*
X143801235Y-35165193D01*
X143843151Y-35212097D01*
X143873629Y-35276219D01*
X143875200Y-35296057D01*
X143875200Y-100788417D01*
X143855198Y-100856538D01*
X143843151Y-100872377D01*
X143801235Y-100919281D01*
X143791244Y-100929272D01*
X143744340Y-100971188D01*
X143680218Y-101001666D01*
X143660380Y-101003237D01*
X106984962Y-101003237D01*
X106916841Y-100983235D01*
X106870348Y-100929579D01*
X106860244Y-100859305D01*
X106889738Y-100794725D01*
X106952352Y-100755530D01*
X106963759Y-100752474D01*
X106974053Y-100748727D01*
X107171511Y-100656651D01*
X107181007Y-100651168D01*
X107359467Y-100526209D01*
X107367875Y-100519153D01*
X107521916Y-100365112D01*
X107528972Y-100356704D01*
X107653931Y-100178244D01*
X107659414Y-100168748D01*
X107751490Y-99971290D01*
X107755236Y-99960998D01*
X107801394Y-99788734D01*
X107801058Y-99774638D01*
X107793116Y-99771237D01*
X105252033Y-99771237D01*
X105238502Y-99775210D01*
X105237273Y-99783759D01*
X105284764Y-99960998D01*
X105288510Y-99971290D01*
X105380586Y-100168748D01*
X105386069Y-100178244D01*
X105511028Y-100356704D01*
X105518084Y-100365112D01*
X105672125Y-100519153D01*
X105680533Y-100526209D01*
X105858993Y-100651168D01*
X105868489Y-100656651D01*
X106065947Y-100748727D01*
X106076241Y-100752474D01*
X106087648Y-100755530D01*
X106148271Y-100792481D01*
X106179293Y-100856342D01*
X106170865Y-100926836D01*
X106125663Y-100981583D01*
X106055038Y-101003237D01*
X102412962Y-101003237D01*
X102344841Y-100983235D01*
X102298348Y-100929579D01*
X102288244Y-100859305D01*
X102317738Y-100794725D01*
X102380352Y-100755530D01*
X102391759Y-100752474D01*
X102402053Y-100748727D01*
X102599511Y-100656651D01*
X102609006Y-100651168D01*
X102661048Y-100614728D01*
X102669424Y-100604249D01*
X102662356Y-100590803D01*
X101960812Y-99889259D01*
X101946868Y-99881645D01*
X101945035Y-99881776D01*
X101938420Y-99886027D01*
X101232923Y-100591524D01*
X101226493Y-100603299D01*
X101235789Y-100615314D01*
X101286994Y-100651168D01*
X101296489Y-100656651D01*
X101493947Y-100748727D01*
X101504241Y-100752474D01*
X101515648Y-100755530D01*
X101576271Y-100792481D01*
X101607293Y-100856342D01*
X101598865Y-100926836D01*
X101553663Y-100981583D01*
X101483038Y-101003237D01*
X98804820Y-101003237D01*
X98736699Y-100983235D01*
X98720860Y-100971188D01*
X98673956Y-100929272D01*
X98663965Y-100919281D01*
X98622049Y-100872377D01*
X98591571Y-100808255D01*
X98590000Y-100788417D01*
X98590000Y-99522712D01*
X100635483Y-99522712D01*
X100654472Y-99739756D01*
X100656375Y-99750549D01*
X100712764Y-99960998D01*
X100716510Y-99971290D01*
X100808586Y-100168748D01*
X100814069Y-100178243D01*
X100850509Y-100230285D01*
X100860988Y-100238661D01*
X100874434Y-100231593D01*
X101575978Y-99530049D01*
X101582356Y-99518369D01*
X102312408Y-99518369D01*
X102312539Y-99520202D01*
X102316790Y-99526817D01*
X103022287Y-100232314D01*
X103034062Y-100238744D01*
X103046077Y-100229448D01*
X103081931Y-100178243D01*
X103087414Y-100168748D01*
X103179490Y-99971290D01*
X103183236Y-99960998D01*
X103239625Y-99750549D01*
X103241528Y-99739756D01*
X103260517Y-99522712D01*
X103260517Y-99511762D01*
X103241528Y-99294718D01*
X103239625Y-99283925D01*
X103229393Y-99245740D01*
X105238606Y-99245740D01*
X105238942Y-99259836D01*
X105246884Y-99263237D01*
X106247885Y-99263237D01*
X106263124Y-99258762D01*
X106264329Y-99257372D01*
X106266000Y-99249689D01*
X106266000Y-99245122D01*
X106774000Y-99245122D01*
X106778475Y-99260361D01*
X106779865Y-99261566D01*
X106787548Y-99263237D01*
X107787967Y-99263237D01*
X107801498Y-99259264D01*
X107802727Y-99250715D01*
X107755236Y-99073476D01*
X107751490Y-99063184D01*
X107659414Y-98865726D01*
X107653931Y-98856230D01*
X107528972Y-98677770D01*
X107521916Y-98669362D01*
X107367875Y-98515321D01*
X107359467Y-98508265D01*
X107181007Y-98383306D01*
X107171511Y-98377823D01*
X106974053Y-98285747D01*
X106963761Y-98282001D01*
X106791497Y-98235843D01*
X106777401Y-98236179D01*
X106774000Y-98244121D01*
X106774000Y-99245122D01*
X106266000Y-99245122D01*
X106266000Y-98249270D01*
X106262027Y-98235739D01*
X106253478Y-98234510D01*
X106076239Y-98282001D01*
X106065947Y-98285747D01*
X105868489Y-98377823D01*
X105858993Y-98383306D01*
X105680533Y-98508265D01*
X105672125Y-98515321D01*
X105518084Y-98669362D01*
X105511028Y-98677770D01*
X105386069Y-98856230D01*
X105380586Y-98865726D01*
X105288510Y-99063184D01*
X105284764Y-99073476D01*
X105238606Y-99245740D01*
X103229393Y-99245740D01*
X103183236Y-99073476D01*
X103179490Y-99063184D01*
X103087414Y-98865726D01*
X103081931Y-98856231D01*
X103045491Y-98804189D01*
X103035012Y-98795813D01*
X103021566Y-98802881D01*
X102320022Y-99504425D01*
X102312408Y-99518369D01*
X101582356Y-99518369D01*
X101583592Y-99516105D01*
X101583461Y-99514272D01*
X101579210Y-99507657D01*
X100873713Y-98802160D01*
X100861938Y-98795730D01*
X100849923Y-98805026D01*
X100814069Y-98856231D01*
X100808586Y-98865726D01*
X100716510Y-99063184D01*
X100712764Y-99073476D01*
X100656375Y-99283925D01*
X100654472Y-99294718D01*
X100635483Y-99511762D01*
X100635483Y-99522712D01*
X98590000Y-99522712D01*
X98590000Y-98430225D01*
X101226576Y-98430225D01*
X101233644Y-98443671D01*
X101935188Y-99145215D01*
X101949132Y-99152829D01*
X101950965Y-99152698D01*
X101957580Y-99148447D01*
X102663077Y-98442950D01*
X102669507Y-98431175D01*
X102660211Y-98419160D01*
X102609006Y-98383306D01*
X102599511Y-98377823D01*
X102402053Y-98285747D01*
X102391761Y-98282001D01*
X102181312Y-98225612D01*
X102170519Y-98223709D01*
X101953475Y-98204720D01*
X101942525Y-98204720D01*
X101725481Y-98223709D01*
X101714688Y-98225612D01*
X101504239Y-98282001D01*
X101493947Y-98285747D01*
X101296489Y-98377823D01*
X101286994Y-98383306D01*
X101234952Y-98419746D01*
X101226576Y-98430225D01*
X98590000Y-98430225D01*
X98590000Y-95199237D01*
X122586551Y-95199237D01*
X122606317Y-95450385D01*
X122607471Y-95455192D01*
X122607472Y-95455198D01*
X122624329Y-95525410D01*
X122665127Y-95695348D01*
X122667020Y-95699919D01*
X122667021Y-95699921D01*
X122734287Y-95862315D01*
X122761534Y-95928096D01*
X122893164Y-96142896D01*
X122896376Y-96146656D01*
X122896379Y-96146661D01*
X123020783Y-96292319D01*
X123056776Y-96334461D01*
X123060538Y-96337674D01*
X123244576Y-96494858D01*
X123244581Y-96494861D01*
X123248341Y-96498073D01*
X123463141Y-96629703D01*
X123467711Y-96631596D01*
X123467715Y-96631598D01*
X123691316Y-96724216D01*
X123695889Y-96726110D01*
X123739910Y-96736678D01*
X123758685Y-96741186D01*
X123820254Y-96776538D01*
X123852937Y-96839565D01*
X123846356Y-96910256D01*
X123802602Y-96966167D01*
X123729272Y-96989705D01*
X123332776Y-96989705D01*
X123328023Y-96989978D01*
X123153035Y-97030377D01*
X122991346Y-97108540D01*
X122850992Y-97220584D01*
X122738948Y-97360938D01*
X122660785Y-97522627D01*
X122620386Y-97697615D01*
X122620112Y-97702367D01*
X122620113Y-99378040D01*
X122620386Y-99382793D01*
X122660785Y-99557781D01*
X122738948Y-99719470D01*
X122850992Y-99859824D01*
X122991346Y-99971868D01*
X123153035Y-100050031D01*
X123159896Y-100051615D01*
X123322824Y-100089230D01*
X123322827Y-100089230D01*
X123328023Y-100090430D01*
X123332775Y-100090704D01*
X123334599Y-100090704D01*
X124177792Y-100090703D01*
X125008448Y-100090703D01*
X125013201Y-100090430D01*
X125188189Y-100050031D01*
X125349878Y-99971868D01*
X125490232Y-99859824D01*
X125602276Y-99719470D01*
X125680439Y-99557781D01*
X125720838Y-99382793D01*
X125721112Y-99378041D01*
X125721111Y-97702368D01*
X125720838Y-97697615D01*
X125680439Y-97522627D01*
X125602276Y-97360938D01*
X125490232Y-97220584D01*
X125349878Y-97108540D01*
X125188189Y-97030377D01*
X125181328Y-97028793D01*
X125018400Y-96991178D01*
X125018397Y-96991178D01*
X125013201Y-96989978D01*
X125008449Y-96989704D01*
X124654732Y-96989704D01*
X124586611Y-96969702D01*
X124540118Y-96916046D01*
X124530014Y-96845772D01*
X124559508Y-96781192D01*
X124625318Y-96741185D01*
X124688111Y-96726110D01*
X124692684Y-96724216D01*
X124916285Y-96631598D01*
X124916289Y-96631596D01*
X124920859Y-96629703D01*
X125135659Y-96498073D01*
X125139419Y-96494861D01*
X125139424Y-96494858D01*
X125323462Y-96337674D01*
X125327224Y-96334461D01*
X125363217Y-96292319D01*
X125444286Y-96197400D01*
X126001500Y-96197400D01*
X126001501Y-98773073D01*
X126001774Y-98777826D01*
X126042173Y-98952814D01*
X126045239Y-98959156D01*
X126095528Y-99063184D01*
X126120336Y-99114503D01*
X126232380Y-99254857D01*
X126372734Y-99366901D01*
X126379077Y-99369967D01*
X126379078Y-99369968D01*
X126395836Y-99378069D01*
X126534423Y-99445064D01*
X126541284Y-99446648D01*
X126704212Y-99484263D01*
X126704215Y-99484263D01*
X126709411Y-99485463D01*
X126714163Y-99485737D01*
X126715987Y-99485737D01*
X128013037Y-99485736D01*
X129289836Y-99485736D01*
X129294589Y-99485463D01*
X129469577Y-99445064D01*
X129608164Y-99378069D01*
X129624922Y-99369968D01*
X129624923Y-99369967D01*
X129631266Y-99366901D01*
X129771620Y-99254857D01*
X129883664Y-99114503D01*
X129908473Y-99063184D01*
X129958761Y-98959156D01*
X129961827Y-98952814D01*
X129984125Y-98856230D01*
X130001026Y-98783025D01*
X130001026Y-98783022D01*
X130002226Y-98777826D01*
X130002500Y-98773074D01*
X130002499Y-97758697D01*
X139014852Y-97758697D01*
X139050593Y-97938380D01*
X139053082Y-97947355D01*
X139135708Y-98177487D01*
X139139505Y-98186015D01*
X139255234Y-98401397D01*
X139260245Y-98409264D01*
X139406550Y-98605190D01*
X139412656Y-98612214D01*
X139586316Y-98784364D01*
X139593398Y-98790413D01*
X139790586Y-98934997D01*
X139798505Y-98939945D01*
X140014877Y-99053784D01*
X140023451Y-99057512D01*
X140254282Y-99138122D01*
X140263291Y-99140536D01*
X140430201Y-99172225D01*
X140443261Y-99170941D01*
X140447506Y-99157597D01*
X140956000Y-99157597D01*
X140960171Y-99171802D01*
X140972933Y-99173857D01*
X141009487Y-99169854D01*
X141018649Y-99168156D01*
X141255107Y-99105902D01*
X141263926Y-99102865D01*
X141488584Y-99006344D01*
X141496856Y-99002037D01*
X141704777Y-98873372D01*
X141712317Y-98867894D01*
X141898943Y-98709905D01*
X141905593Y-98703369D01*
X142066813Y-98519532D01*
X142072420Y-98512091D01*
X142204700Y-98306439D01*
X142209147Y-98298248D01*
X142309572Y-98075313D01*
X142312767Y-98066535D01*
X142379135Y-97831210D01*
X142380993Y-97822081D01*
X142389246Y-97757206D01*
X142386958Y-97742945D01*
X142373938Y-97739237D01*
X140974115Y-97739237D01*
X140958876Y-97743712D01*
X140957671Y-97745102D01*
X140956000Y-97752785D01*
X140956000Y-99157597D01*
X140447506Y-99157597D01*
X140448000Y-99156045D01*
X140448000Y-97757352D01*
X140443525Y-97742113D01*
X140442135Y-97740908D01*
X140434452Y-97739237D01*
X139029096Y-97739237D01*
X139016695Y-97742878D01*
X139014852Y-97758697D01*
X130002499Y-97758697D01*
X130002499Y-97213213D01*
X139012675Y-97213213D01*
X139015435Y-97227940D01*
X139027614Y-97231237D01*
X140429885Y-97231237D01*
X140445124Y-97226762D01*
X140446329Y-97225372D01*
X140448000Y-97217689D01*
X140448000Y-97213122D01*
X140956000Y-97213122D01*
X140960475Y-97228361D01*
X140961865Y-97229566D01*
X140969548Y-97231237D01*
X142377671Y-97231237D01*
X142391202Y-97227264D01*
X142392634Y-97217305D01*
X142340979Y-96989023D01*
X142338255Y-96980112D01*
X142249633Y-96752220D01*
X142245619Y-96743804D01*
X142124286Y-96531518D01*
X142119070Y-96523785D01*
X141967692Y-96331762D01*
X141961399Y-96324894D01*
X141783294Y-96157349D01*
X141776060Y-96151491D01*
X141575141Y-96012109D01*
X141567115Y-96007381D01*
X141347810Y-95899232D01*
X141339177Y-95895744D01*
X141106288Y-95821195D01*
X141097238Y-95819022D01*
X140973880Y-95798933D01*
X140960286Y-95800630D01*
X140956000Y-95814737D01*
X140956000Y-97213122D01*
X140448000Y-97213122D01*
X140448000Y-95814096D01*
X140443982Y-95800412D01*
X140430290Y-95798391D01*
X140350521Y-95809247D01*
X140341403Y-95811185D01*
X140106668Y-95879604D01*
X140097915Y-95882876D01*
X139875869Y-95985241D01*
X139867714Y-95989761D01*
X139663233Y-96123824D01*
X139655828Y-96129507D01*
X139473413Y-96292319D01*
X139466935Y-96299027D01*
X139310584Y-96487018D01*
X139305163Y-96494618D01*
X139178322Y-96703646D01*
X139174084Y-96711963D01*
X139079529Y-96937451D01*
X139076572Y-96946289D01*
X139016382Y-97183285D01*
X139014764Y-97192465D01*
X139012675Y-97213213D01*
X130002499Y-97213213D01*
X130002499Y-96197401D01*
X130002226Y-96192648D01*
X129961827Y-96017660D01*
X129883664Y-95855971D01*
X129771620Y-95715617D01*
X129631266Y-95603573D01*
X129469577Y-95525410D01*
X129462716Y-95523826D01*
X129299788Y-95486211D01*
X129299785Y-95486211D01*
X129294589Y-95485011D01*
X129289837Y-95484737D01*
X129288013Y-95484737D01*
X127990963Y-95484738D01*
X126714164Y-95484738D01*
X126709411Y-95485011D01*
X126534423Y-95525410D01*
X126372734Y-95603573D01*
X126232380Y-95715617D01*
X126120336Y-95855971D01*
X126042173Y-96017660D01*
X126040589Y-96024521D01*
X126014234Y-96138679D01*
X126001774Y-96192648D01*
X126001500Y-96197400D01*
X125444286Y-96197400D01*
X125487621Y-96146661D01*
X125487624Y-96146656D01*
X125490836Y-96142896D01*
X125622466Y-95928096D01*
X125649714Y-95862315D01*
X125716979Y-95699921D01*
X125716980Y-95699919D01*
X125718873Y-95695348D01*
X125759671Y-95525410D01*
X125776528Y-95455198D01*
X125776529Y-95455192D01*
X125777683Y-95450385D01*
X125797449Y-95199237D01*
X125777683Y-94948089D01*
X125718873Y-94703126D01*
X125622466Y-94470378D01*
X125490836Y-94255578D01*
X125487624Y-94251818D01*
X125487621Y-94251813D01*
X125330437Y-94067775D01*
X125327224Y-94064013D01*
X125264332Y-94010298D01*
X125139424Y-93903616D01*
X125139419Y-93903613D01*
X125135659Y-93900401D01*
X124920859Y-93768771D01*
X124916289Y-93766878D01*
X124916285Y-93766876D01*
X124692684Y-93674258D01*
X124692682Y-93674257D01*
X124688111Y-93672364D01*
X124603711Y-93652102D01*
X124447961Y-93614709D01*
X124447955Y-93614708D01*
X124443148Y-93613554D01*
X124192000Y-93593788D01*
X123940852Y-93613554D01*
X123936045Y-93614708D01*
X123936039Y-93614709D01*
X123780289Y-93652102D01*
X123695889Y-93672364D01*
X123691318Y-93674257D01*
X123691316Y-93674258D01*
X123467715Y-93766876D01*
X123467711Y-93766878D01*
X123463141Y-93768771D01*
X123248341Y-93900401D01*
X123244581Y-93903613D01*
X123244576Y-93903616D01*
X123119668Y-94010298D01*
X123056776Y-94064013D01*
X123053563Y-94067775D01*
X122896379Y-94251813D01*
X122896376Y-94251818D01*
X122893164Y-94255578D01*
X122761534Y-94470378D01*
X122665127Y-94703126D01*
X122606317Y-94948089D01*
X122586551Y-95199237D01*
X98590000Y-95199237D01*
X98590000Y-92405237D01*
X129190551Y-92405237D01*
X129210317Y-92656385D01*
X129211471Y-92661192D01*
X129211472Y-92661198D01*
X129238560Y-92774027D01*
X129269127Y-92901348D01*
X129271020Y-92905919D01*
X129271021Y-92905921D01*
X129362489Y-93126744D01*
X129365534Y-93134096D01*
X129497164Y-93348896D01*
X129500376Y-93352656D01*
X129500379Y-93352661D01*
X129608115Y-93478803D01*
X129660776Y-93540461D01*
X129664538Y-93543674D01*
X129848576Y-93700858D01*
X129848581Y-93700861D01*
X129852341Y-93704073D01*
X130067141Y-93835703D01*
X130071711Y-93837596D01*
X130071715Y-93837598D01*
X130223336Y-93900401D01*
X130299889Y-93932110D01*
X130384289Y-93952372D01*
X130540039Y-93989765D01*
X130540045Y-93989766D01*
X130544852Y-93990920D01*
X130796000Y-94010686D01*
X131047148Y-93990920D01*
X131051955Y-93989766D01*
X131051961Y-93989765D01*
X131207711Y-93952372D01*
X131292111Y-93932110D01*
X131368664Y-93900401D01*
X131520285Y-93837598D01*
X131520289Y-93837596D01*
X131524859Y-93835703D01*
X131739659Y-93704073D01*
X131743419Y-93700861D01*
X131743424Y-93700858D01*
X131927462Y-93543674D01*
X131931224Y-93540461D01*
X131973212Y-93491299D01*
X135154493Y-93491299D01*
X135163789Y-93503314D01*
X135214994Y-93539168D01*
X135224489Y-93544651D01*
X135421947Y-93636727D01*
X135432239Y-93640473D01*
X135642688Y-93696862D01*
X135653481Y-93698765D01*
X135870525Y-93717754D01*
X135881475Y-93717754D01*
X136098519Y-93698765D01*
X136109312Y-93696862D01*
X136319761Y-93640473D01*
X136330053Y-93636727D01*
X136527511Y-93544651D01*
X136537006Y-93539168D01*
X136589048Y-93502728D01*
X136597424Y-93492249D01*
X136590356Y-93478803D01*
X135888812Y-92777259D01*
X135874868Y-92769645D01*
X135873035Y-92769776D01*
X135866420Y-92774027D01*
X135160923Y-93479524D01*
X135154493Y-93491299D01*
X131973212Y-93491299D01*
X131983885Y-93478803D01*
X132091621Y-93352661D01*
X132091624Y-93352656D01*
X132094836Y-93348896D01*
X132226466Y-93134096D01*
X132229512Y-93126744D01*
X132320979Y-92905921D01*
X132320980Y-92905919D01*
X132322873Y-92901348D01*
X132353440Y-92774027D01*
X132380528Y-92661198D01*
X132380529Y-92661192D01*
X132381683Y-92656385D01*
X132401018Y-92410712D01*
X134563483Y-92410712D01*
X134582472Y-92627756D01*
X134584375Y-92638549D01*
X134640764Y-92848998D01*
X134644510Y-92859290D01*
X134736586Y-93056748D01*
X134742069Y-93066243D01*
X134778509Y-93118285D01*
X134788988Y-93126661D01*
X134802434Y-93119593D01*
X135503978Y-92418049D01*
X135510356Y-92406369D01*
X136240408Y-92406369D01*
X136240539Y-92408202D01*
X136244790Y-92414817D01*
X136950287Y-93120314D01*
X136962062Y-93126744D01*
X136974077Y-93117448D01*
X137009931Y-93066243D01*
X137015414Y-93056748D01*
X137107490Y-92859290D01*
X137111236Y-92848998D01*
X137167625Y-92638549D01*
X137169528Y-92627756D01*
X137188517Y-92410712D01*
X137188517Y-92405237D01*
X139096551Y-92405237D01*
X139116317Y-92656385D01*
X139117471Y-92661192D01*
X139117472Y-92661198D01*
X139144560Y-92774027D01*
X139175127Y-92901348D01*
X139177020Y-92905919D01*
X139177021Y-92905921D01*
X139268489Y-93126744D01*
X139271534Y-93134096D01*
X139403164Y-93348896D01*
X139406376Y-93352656D01*
X139406379Y-93352661D01*
X139514115Y-93478803D01*
X139566776Y-93540461D01*
X139570538Y-93543674D01*
X139754576Y-93700858D01*
X139754581Y-93700861D01*
X139758341Y-93704073D01*
X139973141Y-93835703D01*
X139977711Y-93837596D01*
X139977715Y-93837598D01*
X140129336Y-93900401D01*
X140205889Y-93932110D01*
X140290289Y-93952372D01*
X140446039Y-93989765D01*
X140446045Y-93989766D01*
X140450852Y-93990920D01*
X140702000Y-94010686D01*
X140953148Y-93990920D01*
X140957955Y-93989766D01*
X140957961Y-93989765D01*
X141113711Y-93952372D01*
X141198111Y-93932110D01*
X141274664Y-93900401D01*
X141426285Y-93837598D01*
X141426289Y-93837596D01*
X141430859Y-93835703D01*
X141645659Y-93704073D01*
X141649419Y-93700861D01*
X141649424Y-93700858D01*
X141833462Y-93543674D01*
X141837224Y-93540461D01*
X141889885Y-93478803D01*
X141997621Y-93352661D01*
X141997624Y-93352656D01*
X142000836Y-93348896D01*
X142132466Y-93134096D01*
X142135512Y-93126744D01*
X142226979Y-92905921D01*
X142226980Y-92905919D01*
X142228873Y-92901348D01*
X142259440Y-92774027D01*
X142286528Y-92661198D01*
X142286529Y-92661192D01*
X142287683Y-92656385D01*
X142307449Y-92405237D01*
X142287683Y-92154089D01*
X142260461Y-92040698D01*
X142230028Y-91913938D01*
X142228873Y-91909126D01*
X142177586Y-91785308D01*
X142134361Y-91680952D01*
X142134359Y-91680948D01*
X142132466Y-91676378D01*
X142000836Y-91461578D01*
X141997624Y-91457818D01*
X141997621Y-91457813D01*
X141840437Y-91273775D01*
X141837224Y-91270013D01*
X141783586Y-91224202D01*
X141649424Y-91109616D01*
X141649419Y-91109613D01*
X141645659Y-91106401D01*
X141430859Y-90974771D01*
X141426289Y-90972878D01*
X141426285Y-90972876D01*
X141202684Y-90880258D01*
X141202682Y-90880257D01*
X141198111Y-90878364D01*
X141113711Y-90858102D01*
X140957961Y-90820709D01*
X140957955Y-90820708D01*
X140953148Y-90819554D01*
X140702000Y-90799788D01*
X140450852Y-90819554D01*
X140446045Y-90820708D01*
X140446039Y-90820709D01*
X140290289Y-90858102D01*
X140205889Y-90878364D01*
X140201318Y-90880257D01*
X140201316Y-90880258D01*
X139977715Y-90972876D01*
X139977711Y-90972878D01*
X139973141Y-90974771D01*
X139758341Y-91106401D01*
X139754581Y-91109613D01*
X139754576Y-91109616D01*
X139620414Y-91224202D01*
X139566776Y-91270013D01*
X139563563Y-91273775D01*
X139406379Y-91457813D01*
X139406376Y-91457818D01*
X139403164Y-91461578D01*
X139271534Y-91676378D01*
X139269641Y-91680948D01*
X139269639Y-91680952D01*
X139226414Y-91785308D01*
X139175127Y-91909126D01*
X139173972Y-91913938D01*
X139143540Y-92040698D01*
X139116317Y-92154089D01*
X139096551Y-92405237D01*
X137188517Y-92405237D01*
X137188517Y-92399762D01*
X137169528Y-92182718D01*
X137167625Y-92171925D01*
X137111236Y-91961476D01*
X137107490Y-91951184D01*
X137015414Y-91753726D01*
X137009931Y-91744231D01*
X136973491Y-91692189D01*
X136963012Y-91683813D01*
X136949566Y-91690881D01*
X136248022Y-92392425D01*
X136240408Y-92406369D01*
X135510356Y-92406369D01*
X135511592Y-92404105D01*
X135511461Y-92402272D01*
X135507210Y-92395657D01*
X134801713Y-91690160D01*
X134789938Y-91683730D01*
X134777923Y-91693026D01*
X134742069Y-91744231D01*
X134736586Y-91753726D01*
X134644510Y-91951184D01*
X134640764Y-91961476D01*
X134584375Y-92171925D01*
X134582472Y-92182718D01*
X134563483Y-92399762D01*
X134563483Y-92410712D01*
X132401018Y-92410712D01*
X132401449Y-92405237D01*
X132381683Y-92154089D01*
X132354461Y-92040698D01*
X132324028Y-91913938D01*
X132322873Y-91909126D01*
X132271586Y-91785308D01*
X132228361Y-91680952D01*
X132228359Y-91680948D01*
X132226466Y-91676378D01*
X132094836Y-91461578D01*
X132091624Y-91457818D01*
X132091621Y-91457813D01*
X131972401Y-91318225D01*
X135154576Y-91318225D01*
X135161644Y-91331671D01*
X135863188Y-92033215D01*
X135877132Y-92040829D01*
X135878965Y-92040698D01*
X135885580Y-92036447D01*
X136591077Y-91330950D01*
X136597507Y-91319175D01*
X136588211Y-91307160D01*
X136537006Y-91271306D01*
X136527511Y-91265823D01*
X136330053Y-91173747D01*
X136319761Y-91170001D01*
X136109312Y-91113612D01*
X136098519Y-91111709D01*
X135881475Y-91092720D01*
X135870525Y-91092720D01*
X135653481Y-91111709D01*
X135642688Y-91113612D01*
X135432239Y-91170001D01*
X135421947Y-91173747D01*
X135224489Y-91265823D01*
X135214994Y-91271306D01*
X135162952Y-91307746D01*
X135154576Y-91318225D01*
X131972401Y-91318225D01*
X131934437Y-91273775D01*
X131931224Y-91270013D01*
X131877586Y-91224202D01*
X131743424Y-91109616D01*
X131743419Y-91109613D01*
X131739659Y-91106401D01*
X131524859Y-90974771D01*
X131520289Y-90972878D01*
X131520285Y-90972876D01*
X131296684Y-90880258D01*
X131296682Y-90880257D01*
X131292111Y-90878364D01*
X131207711Y-90858102D01*
X131051961Y-90820709D01*
X131051955Y-90820708D01*
X131047148Y-90819554D01*
X130796000Y-90799788D01*
X130544852Y-90819554D01*
X130540045Y-90820708D01*
X130540039Y-90820709D01*
X130384289Y-90858102D01*
X130299889Y-90878364D01*
X130295318Y-90880257D01*
X130295316Y-90880258D01*
X130071715Y-90972876D01*
X130071711Y-90972878D01*
X130067141Y-90974771D01*
X129852341Y-91106401D01*
X129848581Y-91109613D01*
X129848576Y-91109616D01*
X129714414Y-91224202D01*
X129660776Y-91270013D01*
X129657563Y-91273775D01*
X129500379Y-91457813D01*
X129500376Y-91457818D01*
X129497164Y-91461578D01*
X129365534Y-91676378D01*
X129363641Y-91680948D01*
X129363639Y-91680952D01*
X129320414Y-91785308D01*
X129269127Y-91909126D01*
X129267972Y-91913938D01*
X129237540Y-92040698D01*
X129210317Y-92154089D01*
X129190551Y-92405237D01*
X98590000Y-92405237D01*
X98590000Y-89357237D01*
X100342551Y-89357237D01*
X100362317Y-89608385D01*
X100363471Y-89613192D01*
X100363472Y-89613198D01*
X100383964Y-89698553D01*
X100421127Y-89853348D01*
X100423020Y-89857919D01*
X100423021Y-89857921D01*
X100462414Y-89953023D01*
X100517534Y-90086096D01*
X100649164Y-90300896D01*
X100652376Y-90304656D01*
X100652379Y-90304661D01*
X100679615Y-90336550D01*
X100812776Y-90492461D01*
X100816538Y-90495674D01*
X101000576Y-90652858D01*
X101000581Y-90652861D01*
X101004341Y-90656073D01*
X101219141Y-90787703D01*
X101223711Y-90789596D01*
X101223715Y-90789598D01*
X101442589Y-90880258D01*
X101451889Y-90884110D01*
X101536289Y-90904372D01*
X101692039Y-90941765D01*
X101692045Y-90941766D01*
X101696852Y-90942920D01*
X101948000Y-90962686D01*
X102199148Y-90942920D01*
X102203955Y-90941766D01*
X102203961Y-90941765D01*
X102359711Y-90904372D01*
X102444111Y-90884110D01*
X102453411Y-90880258D01*
X102672285Y-90789598D01*
X102672289Y-90789596D01*
X102676859Y-90787703D01*
X102891659Y-90656073D01*
X102895419Y-90652861D01*
X102895424Y-90652858D01*
X103079462Y-90495674D01*
X103083224Y-90492461D01*
X103216385Y-90336550D01*
X103243621Y-90304661D01*
X103243624Y-90304656D01*
X103246836Y-90300896D01*
X103378466Y-90086096D01*
X103433587Y-89953023D01*
X103472979Y-89857921D01*
X103472980Y-89857919D01*
X103474873Y-89853348D01*
X103512036Y-89698553D01*
X103532528Y-89613198D01*
X103532529Y-89613192D01*
X103533683Y-89608385D01*
X103553449Y-89357237D01*
X104914551Y-89357237D01*
X104934317Y-89608385D01*
X104935471Y-89613192D01*
X104935472Y-89613198D01*
X104955964Y-89698553D01*
X104993127Y-89853348D01*
X104995020Y-89857919D01*
X104995021Y-89857921D01*
X105034414Y-89953023D01*
X105089534Y-90086096D01*
X105221164Y-90300896D01*
X105224376Y-90304656D01*
X105224379Y-90304661D01*
X105251615Y-90336550D01*
X105384776Y-90492461D01*
X105388538Y-90495674D01*
X105572576Y-90652858D01*
X105572581Y-90652861D01*
X105576341Y-90656073D01*
X105791141Y-90787703D01*
X105795711Y-90789596D01*
X105795715Y-90789598D01*
X106014589Y-90880258D01*
X106023889Y-90884110D01*
X106108289Y-90904372D01*
X106264039Y-90941765D01*
X106264045Y-90941766D01*
X106268852Y-90942920D01*
X106520000Y-90962686D01*
X106771148Y-90942920D01*
X106775955Y-90941766D01*
X106775961Y-90941765D01*
X106931711Y-90904372D01*
X107016111Y-90884110D01*
X107025411Y-90880258D01*
X107244285Y-90789598D01*
X107244289Y-90789596D01*
X107248859Y-90787703D01*
X107463659Y-90656073D01*
X107467419Y-90652861D01*
X107467424Y-90652858D01*
X107651462Y-90495674D01*
X107655224Y-90492461D01*
X107788385Y-90336550D01*
X107815621Y-90304661D01*
X107815624Y-90304656D01*
X107818836Y-90300896D01*
X107950466Y-90086096D01*
X108005587Y-89953023D01*
X108041949Y-89865237D01*
X110074798Y-89865237D01*
X110093576Y-90103831D01*
X110094730Y-90108638D01*
X110094731Y-90108644D01*
X110129942Y-90255305D01*
X110149447Y-90336550D01*
X110151340Y-90341121D01*
X110151341Y-90341123D01*
X110196599Y-90450385D01*
X110241035Y-90557664D01*
X110366086Y-90761728D01*
X110521519Y-90943718D01*
X110703509Y-91099151D01*
X110907573Y-91224202D01*
X110912143Y-91226095D01*
X110912147Y-91226097D01*
X111124114Y-91313896D01*
X111128687Y-91315790D01*
X111191833Y-91330950D01*
X111356593Y-91370506D01*
X111356599Y-91370507D01*
X111361406Y-91371661D01*
X111600000Y-91390439D01*
X111838594Y-91371661D01*
X111843401Y-91370507D01*
X111843407Y-91370506D01*
X112008167Y-91330950D01*
X112071313Y-91315790D01*
X112075886Y-91313896D01*
X112287853Y-91226097D01*
X112287857Y-91226095D01*
X112292427Y-91224202D01*
X112496491Y-91099151D01*
X112678481Y-90943718D01*
X112774189Y-90831658D01*
X112833639Y-90792848D01*
X112904634Y-90792341D01*
X112965811Y-90831658D01*
X113061519Y-90943718D01*
X113243509Y-91099151D01*
X113447573Y-91224202D01*
X113452143Y-91226095D01*
X113452147Y-91226097D01*
X113664114Y-91313896D01*
X113668687Y-91315790D01*
X113731833Y-91330950D01*
X113896593Y-91370506D01*
X113896599Y-91370507D01*
X113901406Y-91371661D01*
X114140000Y-91390439D01*
X114378594Y-91371661D01*
X114383401Y-91370507D01*
X114383407Y-91370506D01*
X114548167Y-91330950D01*
X114611313Y-91315790D01*
X114615886Y-91313896D01*
X114827853Y-91226097D01*
X114827857Y-91226095D01*
X114832427Y-91224202D01*
X115036491Y-91099151D01*
X115218481Y-90943718D01*
X115314189Y-90831658D01*
X115373639Y-90792848D01*
X115444634Y-90792341D01*
X115505811Y-90831658D01*
X115601519Y-90943718D01*
X115783509Y-91099151D01*
X115987573Y-91224202D01*
X115992143Y-91226095D01*
X115992147Y-91226097D01*
X116204114Y-91313896D01*
X116208687Y-91315790D01*
X116271833Y-91330950D01*
X116436593Y-91370506D01*
X116436599Y-91370507D01*
X116441406Y-91371661D01*
X116680000Y-91390439D01*
X116918594Y-91371661D01*
X116923401Y-91370507D01*
X116923407Y-91370506D01*
X117088167Y-91330950D01*
X117151313Y-91315790D01*
X117155886Y-91313896D01*
X117367853Y-91226097D01*
X117367857Y-91226095D01*
X117372427Y-91224202D01*
X117576491Y-91099151D01*
X117758481Y-90943718D01*
X117913914Y-90761728D01*
X118038965Y-90557664D01*
X118083402Y-90450385D01*
X118128659Y-90341123D01*
X118128660Y-90341121D01*
X118130553Y-90336550D01*
X118150058Y-90255305D01*
X118163519Y-90199237D01*
X122586551Y-90199237D01*
X122606317Y-90450385D01*
X122607471Y-90455192D01*
X122607472Y-90455198D01*
X122630974Y-90553090D01*
X122665127Y-90695348D01*
X122667020Y-90699919D01*
X122667021Y-90699921D01*
X122716575Y-90819554D01*
X122761534Y-90928096D01*
X122893164Y-91142896D01*
X122896376Y-91146656D01*
X122896379Y-91146661D01*
X123004945Y-91273775D01*
X123056776Y-91334461D01*
X123060538Y-91337674D01*
X123244576Y-91494858D01*
X123244581Y-91494861D01*
X123248341Y-91498073D01*
X123463141Y-91629703D01*
X123467711Y-91631596D01*
X123467715Y-91631598D01*
X123691316Y-91724216D01*
X123695889Y-91726110D01*
X123771369Y-91744231D01*
X123936039Y-91783765D01*
X123936045Y-91783766D01*
X123940852Y-91784920D01*
X124192000Y-91804686D01*
X124443148Y-91784920D01*
X124447955Y-91783766D01*
X124447961Y-91783765D01*
X124612631Y-91744231D01*
X124688111Y-91726110D01*
X124692684Y-91724216D01*
X124916285Y-91631598D01*
X124916289Y-91631596D01*
X124920859Y-91629703D01*
X125135659Y-91498073D01*
X125139419Y-91494861D01*
X125139424Y-91494858D01*
X125323462Y-91337674D01*
X125327224Y-91334461D01*
X125379055Y-91273775D01*
X125487621Y-91146661D01*
X125487624Y-91146656D01*
X125490836Y-91142896D01*
X125622466Y-90928096D01*
X125667426Y-90819554D01*
X125716979Y-90699921D01*
X125716980Y-90699919D01*
X125718873Y-90695348D01*
X125753026Y-90553090D01*
X125776528Y-90455198D01*
X125776529Y-90455192D01*
X125777683Y-90450385D01*
X125797449Y-90199237D01*
X125777683Y-89948089D01*
X125718873Y-89703126D01*
X125679630Y-89608385D01*
X125624361Y-89474952D01*
X125624359Y-89474948D01*
X125622466Y-89470378D01*
X125490836Y-89255578D01*
X125487624Y-89251818D01*
X125487621Y-89251813D01*
X125330437Y-89067775D01*
X125327224Y-89064013D01*
X125284629Y-89027633D01*
X125139424Y-88903616D01*
X125139419Y-88903613D01*
X125135659Y-88900401D01*
X124920859Y-88768771D01*
X124916289Y-88766878D01*
X124916285Y-88766876D01*
X124692684Y-88674258D01*
X124692682Y-88674257D01*
X124688111Y-88672364D01*
X124603711Y-88652102D01*
X124447961Y-88614709D01*
X124447955Y-88614708D01*
X124443148Y-88613554D01*
X124192000Y-88593788D01*
X123940852Y-88613554D01*
X123936045Y-88614708D01*
X123936039Y-88614709D01*
X123780289Y-88652102D01*
X123695889Y-88672364D01*
X123691318Y-88674257D01*
X123691316Y-88674258D01*
X123467715Y-88766876D01*
X123467711Y-88766878D01*
X123463141Y-88768771D01*
X123248341Y-88900401D01*
X123244581Y-88903613D01*
X123244576Y-88903616D01*
X123099371Y-89027633D01*
X123056776Y-89064013D01*
X123053563Y-89067775D01*
X122896379Y-89251813D01*
X122896376Y-89251818D01*
X122893164Y-89255578D01*
X122761534Y-89470378D01*
X122759641Y-89474948D01*
X122759639Y-89474952D01*
X122704370Y-89608385D01*
X122665127Y-89703126D01*
X122606317Y-89948089D01*
X122586551Y-90199237D01*
X118163519Y-90199237D01*
X118185269Y-90108644D01*
X118185270Y-90108638D01*
X118186424Y-90103831D01*
X118205202Y-89865237D01*
X118186424Y-89626643D01*
X118185270Y-89621836D01*
X118185269Y-89621830D01*
X118131708Y-89398736D01*
X118130553Y-89393924D01*
X118113315Y-89352307D01*
X118040860Y-89177384D01*
X118040858Y-89177380D01*
X118038965Y-89172810D01*
X117913914Y-88968746D01*
X117758481Y-88786756D01*
X117576491Y-88631323D01*
X117372427Y-88506272D01*
X117367857Y-88504379D01*
X117367853Y-88504377D01*
X117155886Y-88416578D01*
X117155884Y-88416577D01*
X117151313Y-88414684D01*
X117070068Y-88395179D01*
X116923407Y-88359968D01*
X116923401Y-88359967D01*
X116918594Y-88358813D01*
X116680000Y-88340035D01*
X116441406Y-88358813D01*
X116436599Y-88359967D01*
X116436593Y-88359968D01*
X116289932Y-88395179D01*
X116208687Y-88414684D01*
X116204116Y-88416577D01*
X116204114Y-88416578D01*
X115992147Y-88504377D01*
X115992143Y-88504379D01*
X115987573Y-88506272D01*
X115783509Y-88631323D01*
X115601519Y-88786756D01*
X115598306Y-88790518D01*
X115505811Y-88898816D01*
X115446361Y-88937626D01*
X115375366Y-88938133D01*
X115314189Y-88898816D01*
X115221694Y-88790518D01*
X115218481Y-88786756D01*
X115036491Y-88631323D01*
X114832427Y-88506272D01*
X114827857Y-88504379D01*
X114827853Y-88504377D01*
X114615886Y-88416578D01*
X114615884Y-88416577D01*
X114611313Y-88414684D01*
X114530068Y-88395179D01*
X114383407Y-88359968D01*
X114383401Y-88359967D01*
X114378594Y-88358813D01*
X114140000Y-88340035D01*
X113901406Y-88358813D01*
X113896599Y-88359967D01*
X113896593Y-88359968D01*
X113749932Y-88395179D01*
X113668687Y-88414684D01*
X113664116Y-88416577D01*
X113664114Y-88416578D01*
X113452147Y-88504377D01*
X113452143Y-88504379D01*
X113447573Y-88506272D01*
X113243509Y-88631323D01*
X113061519Y-88786756D01*
X113058306Y-88790518D01*
X112965811Y-88898816D01*
X112906361Y-88937626D01*
X112835366Y-88938133D01*
X112774189Y-88898816D01*
X112681694Y-88790518D01*
X112678481Y-88786756D01*
X112496491Y-88631323D01*
X112292427Y-88506272D01*
X112287857Y-88504379D01*
X112287853Y-88504377D01*
X112075886Y-88416578D01*
X112075884Y-88416577D01*
X112071313Y-88414684D01*
X111990068Y-88395179D01*
X111843407Y-88359968D01*
X111843401Y-88359967D01*
X111838594Y-88358813D01*
X111600000Y-88340035D01*
X111361406Y-88358813D01*
X111356599Y-88359967D01*
X111356593Y-88359968D01*
X111209932Y-88395179D01*
X111128687Y-88414684D01*
X111124116Y-88416577D01*
X111124114Y-88416578D01*
X110912147Y-88504377D01*
X110912143Y-88504379D01*
X110907573Y-88506272D01*
X110703509Y-88631323D01*
X110521519Y-88786756D01*
X110366086Y-88968746D01*
X110241035Y-89172810D01*
X110239142Y-89177380D01*
X110239140Y-89177384D01*
X110166685Y-89352307D01*
X110149447Y-89393924D01*
X110148292Y-89398736D01*
X110094731Y-89621830D01*
X110094730Y-89621836D01*
X110093576Y-89626643D01*
X110074798Y-89865237D01*
X108041949Y-89865237D01*
X108044979Y-89857921D01*
X108044980Y-89857919D01*
X108046873Y-89853348D01*
X108084036Y-89698553D01*
X108104528Y-89613198D01*
X108104529Y-89613192D01*
X108105683Y-89608385D01*
X108125449Y-89357237D01*
X108105683Y-89106089D01*
X108094811Y-89060800D01*
X108056302Y-88900401D01*
X108046873Y-88861126D01*
X108044979Y-88856553D01*
X107952361Y-88632952D01*
X107952359Y-88632948D01*
X107950466Y-88628378D01*
X107818836Y-88413578D01*
X107815624Y-88409818D01*
X107815621Y-88409813D01*
X107658437Y-88225775D01*
X107655224Y-88222013D01*
X107637052Y-88206493D01*
X107467424Y-88061616D01*
X107467419Y-88061613D01*
X107463659Y-88058401D01*
X107248859Y-87926771D01*
X107244289Y-87924878D01*
X107244285Y-87924876D01*
X107020684Y-87832258D01*
X107020682Y-87832257D01*
X107016111Y-87830364D01*
X106931711Y-87810102D01*
X106775961Y-87772709D01*
X106775955Y-87772708D01*
X106771148Y-87771554D01*
X106520000Y-87751788D01*
X106268852Y-87771554D01*
X106264045Y-87772708D01*
X106264039Y-87772709D01*
X106108289Y-87810102D01*
X106023889Y-87830364D01*
X106019318Y-87832257D01*
X106019316Y-87832258D01*
X105795715Y-87924876D01*
X105795711Y-87924878D01*
X105791141Y-87926771D01*
X105576341Y-88058401D01*
X105572581Y-88061613D01*
X105572576Y-88061616D01*
X105402948Y-88206493D01*
X105384776Y-88222013D01*
X105381563Y-88225775D01*
X105224379Y-88409813D01*
X105224376Y-88409818D01*
X105221164Y-88413578D01*
X105089534Y-88628378D01*
X105087641Y-88632948D01*
X105087639Y-88632952D01*
X104995021Y-88856553D01*
X104993127Y-88861126D01*
X104983698Y-88900401D01*
X104945190Y-89060800D01*
X104934317Y-89106089D01*
X104914551Y-89357237D01*
X103553449Y-89357237D01*
X103533683Y-89106089D01*
X103522811Y-89060800D01*
X103484302Y-88900401D01*
X103474873Y-88861126D01*
X103472979Y-88856553D01*
X103380361Y-88632952D01*
X103380359Y-88632948D01*
X103378466Y-88628378D01*
X103246836Y-88413578D01*
X103243624Y-88409818D01*
X103243621Y-88409813D01*
X103086437Y-88225775D01*
X103083224Y-88222013D01*
X103065052Y-88206493D01*
X102895424Y-88061616D01*
X102895419Y-88061613D01*
X102891659Y-88058401D01*
X102676859Y-87926771D01*
X102672289Y-87924878D01*
X102672285Y-87924876D01*
X102448684Y-87832258D01*
X102448682Y-87832257D01*
X102444111Y-87830364D01*
X102359711Y-87810102D01*
X102203961Y-87772709D01*
X102203955Y-87772708D01*
X102199148Y-87771554D01*
X101948000Y-87751788D01*
X101696852Y-87771554D01*
X101692045Y-87772708D01*
X101692039Y-87772709D01*
X101536289Y-87810102D01*
X101451889Y-87830364D01*
X101447318Y-87832257D01*
X101447316Y-87832258D01*
X101223715Y-87924876D01*
X101223711Y-87924878D01*
X101219141Y-87926771D01*
X101004341Y-88058401D01*
X101000581Y-88061613D01*
X101000576Y-88061616D01*
X100830948Y-88206493D01*
X100812776Y-88222013D01*
X100809563Y-88225775D01*
X100652379Y-88409813D01*
X100652376Y-88409818D01*
X100649164Y-88413578D01*
X100517534Y-88628378D01*
X100515641Y-88632948D01*
X100515639Y-88632952D01*
X100423021Y-88856553D01*
X100421127Y-88861126D01*
X100411698Y-88900401D01*
X100373190Y-89060800D01*
X100362317Y-89106089D01*
X100342551Y-89357237D01*
X98590000Y-89357237D01*
X98590000Y-86553299D01*
X100229493Y-86553299D01*
X100238789Y-86565314D01*
X100289994Y-86601168D01*
X100299489Y-86606651D01*
X100496947Y-86698727D01*
X100507239Y-86702473D01*
X100717688Y-86758862D01*
X100728481Y-86760765D01*
X100945525Y-86779754D01*
X100956475Y-86779754D01*
X101173519Y-86760765D01*
X101184312Y-86758862D01*
X101394761Y-86702473D01*
X101405053Y-86698727D01*
X101602511Y-86606651D01*
X101612006Y-86601168D01*
X101664048Y-86564728D01*
X101672424Y-86554249D01*
X101665356Y-86540803D01*
X100963812Y-85839259D01*
X100949868Y-85831645D01*
X100948035Y-85831776D01*
X100941420Y-85836027D01*
X100235923Y-86541524D01*
X100229493Y-86553299D01*
X98590000Y-86553299D01*
X98590000Y-85472712D01*
X99638483Y-85472712D01*
X99657472Y-85689756D01*
X99659375Y-85700549D01*
X99715764Y-85910998D01*
X99719510Y-85921290D01*
X99811586Y-86118748D01*
X99817069Y-86128243D01*
X99853509Y-86180285D01*
X99863988Y-86188661D01*
X99877434Y-86181593D01*
X100578978Y-85480049D01*
X100585356Y-85468369D01*
X101315408Y-85468369D01*
X101315539Y-85470202D01*
X101319790Y-85476817D01*
X102025287Y-86182314D01*
X102037062Y-86188744D01*
X102049077Y-86179448D01*
X102084931Y-86128243D01*
X102090414Y-86118748D01*
X102182490Y-85921290D01*
X102186236Y-85910998D01*
X102242625Y-85700549D01*
X102244528Y-85689756D01*
X102263517Y-85472712D01*
X102263517Y-85461762D01*
X102244528Y-85244718D01*
X102242625Y-85233925D01*
X102186236Y-85023476D01*
X102182490Y-85013184D01*
X102090414Y-84815726D01*
X102084931Y-84806231D01*
X102048491Y-84754189D01*
X102038012Y-84745813D01*
X102024566Y-84752881D01*
X101323022Y-85454425D01*
X101315408Y-85468369D01*
X100585356Y-85468369D01*
X100586592Y-85466105D01*
X100586461Y-85464272D01*
X100582210Y-85457657D01*
X99876713Y-84752160D01*
X99864938Y-84745730D01*
X99852923Y-84755026D01*
X99817069Y-84806231D01*
X99811586Y-84815726D01*
X99719510Y-85013184D01*
X99715764Y-85023476D01*
X99659375Y-85233925D01*
X99657472Y-85244718D01*
X99638483Y-85461762D01*
X99638483Y-85472712D01*
X98590000Y-85472712D01*
X98590000Y-84380225D01*
X100229576Y-84380225D01*
X100236644Y-84393671D01*
X100938188Y-85095215D01*
X100952132Y-85102829D01*
X100953965Y-85102698D01*
X100960580Y-85098447D01*
X101666077Y-84392950D01*
X101672507Y-84381175D01*
X101663211Y-84369160D01*
X101612006Y-84333306D01*
X101602511Y-84327823D01*
X101405053Y-84235747D01*
X101394761Y-84232001D01*
X101184312Y-84175612D01*
X101173519Y-84173709D01*
X100956475Y-84154720D01*
X100945525Y-84154720D01*
X100728481Y-84173709D01*
X100717688Y-84175612D01*
X100507239Y-84232001D01*
X100496947Y-84235747D01*
X100299489Y-84327823D01*
X100289994Y-84333306D01*
X100237952Y-84369746D01*
X100229576Y-84380225D01*
X98590000Y-84380225D01*
X98590000Y-83551900D01*
X103595500Y-83551900D01*
X103595501Y-85002573D01*
X103595821Y-85008910D01*
X103636541Y-85210860D01*
X103715711Y-85401054D01*
X103830316Y-85572248D01*
X103975989Y-85717921D01*
X104147183Y-85832526D01*
X104337377Y-85911696D01*
X104539327Y-85952416D01*
X104543993Y-85952652D01*
X104543998Y-85952653D01*
X104544075Y-85952657D01*
X104544093Y-85952657D01*
X104545663Y-85952737D01*
X104547260Y-85952737D01*
X104998124Y-85952736D01*
X105446336Y-85952736D01*
X105447892Y-85952657D01*
X105447909Y-85952657D01*
X105448003Y-85952652D01*
X105448005Y-85952652D01*
X105452673Y-85952416D01*
X105654623Y-85911696D01*
X105844817Y-85832526D01*
X106016011Y-85717921D01*
X106024567Y-85709365D01*
X106086879Y-85675339D01*
X106157694Y-85680404D01*
X106188869Y-85697367D01*
X106255330Y-85746816D01*
X106467193Y-85854532D01*
X106472284Y-85856113D01*
X106472287Y-85856114D01*
X106649043Y-85910998D01*
X106694176Y-85925012D01*
X106699465Y-85925713D01*
X106924506Y-85955541D01*
X106924509Y-85955541D01*
X106929789Y-85956241D01*
X106935118Y-85956041D01*
X106935119Y-85956041D01*
X107032159Y-85952398D01*
X107167295Y-85947324D01*
X107399904Y-85898518D01*
X107404863Y-85896560D01*
X107404865Y-85896559D01*
X107615998Y-85813178D01*
X107616000Y-85813177D01*
X107620963Y-85811217D01*
X107635594Y-85802339D01*
X107781893Y-85713562D01*
X107824153Y-85687918D01*
X107910134Y-85613308D01*
X107974693Y-85583768D01*
X108044974Y-85593822D01*
X108067928Y-85607384D01*
X108255330Y-85746816D01*
X108467193Y-85854532D01*
X108472284Y-85856113D01*
X108472287Y-85856114D01*
X108649043Y-85910998D01*
X108694176Y-85925012D01*
X108699465Y-85925713D01*
X108924506Y-85955541D01*
X108924509Y-85955541D01*
X108929789Y-85956241D01*
X108935118Y-85956041D01*
X108935119Y-85956041D01*
X109032159Y-85952398D01*
X109167295Y-85947324D01*
X109399904Y-85898518D01*
X109404863Y-85896560D01*
X109404865Y-85896559D01*
X109615998Y-85813178D01*
X109616000Y-85813177D01*
X109620963Y-85811217D01*
X109635594Y-85802339D01*
X109781893Y-85713562D01*
X109824153Y-85687918D01*
X109862068Y-85655017D01*
X109999631Y-85535647D01*
X109999633Y-85535645D01*
X110003664Y-85532147D01*
X110007047Y-85528021D01*
X110007051Y-85528017D01*
X110150977Y-85352485D01*
X110154362Y-85348357D01*
X110160338Y-85337860D01*
X110269302Y-85146436D01*
X110271939Y-85141804D01*
X110353034Y-84918393D01*
X110371599Y-84815726D01*
X110394588Y-84688596D01*
X110394589Y-84688589D01*
X110395326Y-84684512D01*
X110396500Y-84659618D01*
X110396500Y-83942557D01*
X110386929Y-83829765D01*
X110381920Y-83770725D01*
X110381919Y-83770721D01*
X110381469Y-83765414D01*
X110380131Y-83760259D01*
X110380130Y-83760253D01*
X110326052Y-83551900D01*
X112637900Y-83551900D01*
X112637901Y-85002573D01*
X112638221Y-85008910D01*
X112678941Y-85210860D01*
X112758111Y-85401054D01*
X112872716Y-85572248D01*
X113018389Y-85717921D01*
X113189583Y-85832526D01*
X113379777Y-85911696D01*
X113581727Y-85952416D01*
X113586393Y-85952652D01*
X113586398Y-85952653D01*
X113586475Y-85952657D01*
X113586493Y-85952657D01*
X113588063Y-85952737D01*
X113589660Y-85952737D01*
X114040524Y-85952736D01*
X114488736Y-85952736D01*
X114490292Y-85952657D01*
X114490309Y-85952657D01*
X114490403Y-85952652D01*
X114490405Y-85952652D01*
X114495073Y-85952416D01*
X114697023Y-85911696D01*
X114887217Y-85832526D01*
X115058411Y-85717921D01*
X115066967Y-85709365D01*
X115129279Y-85675339D01*
X115200094Y-85680404D01*
X115231269Y-85697367D01*
X115297730Y-85746816D01*
X115509593Y-85854532D01*
X115514684Y-85856113D01*
X115514687Y-85856114D01*
X115691443Y-85910998D01*
X115736576Y-85925012D01*
X115741865Y-85925713D01*
X115966906Y-85955541D01*
X115966909Y-85955541D01*
X115972189Y-85956241D01*
X115977518Y-85956041D01*
X115977519Y-85956041D01*
X116074559Y-85952398D01*
X116209695Y-85947324D01*
X116442304Y-85898518D01*
X116447263Y-85896560D01*
X116447265Y-85896559D01*
X116658398Y-85813178D01*
X116658400Y-85813177D01*
X116663363Y-85811217D01*
X116677994Y-85802339D01*
X116824293Y-85713562D01*
X116866553Y-85687918D01*
X116952534Y-85613308D01*
X117017093Y-85583768D01*
X117087374Y-85593822D01*
X117110328Y-85607384D01*
X117297730Y-85746816D01*
X117509593Y-85854532D01*
X117514684Y-85856113D01*
X117514687Y-85856114D01*
X117691443Y-85910998D01*
X117736576Y-85925012D01*
X117741865Y-85925713D01*
X117966906Y-85955541D01*
X117966909Y-85955541D01*
X117972189Y-85956241D01*
X117977518Y-85956041D01*
X117977519Y-85956041D01*
X118074559Y-85952398D01*
X118209695Y-85947324D01*
X118442304Y-85898518D01*
X118447263Y-85896560D01*
X118447265Y-85896559D01*
X118658398Y-85813178D01*
X118658400Y-85813177D01*
X118663363Y-85811217D01*
X118677994Y-85802339D01*
X118824293Y-85713562D01*
X118866553Y-85687918D01*
X118904468Y-85655017D01*
X119042031Y-85535647D01*
X119042033Y-85535645D01*
X119046064Y-85532147D01*
X119049447Y-85528021D01*
X119049451Y-85528017D01*
X119193377Y-85352485D01*
X119196762Y-85348357D01*
X119202738Y-85337860D01*
X119311702Y-85146436D01*
X119314339Y-85141804D01*
X119395434Y-84918393D01*
X119413999Y-84815726D01*
X119436988Y-84688596D01*
X119436989Y-84688589D01*
X119437726Y-84684512D01*
X119438900Y-84659618D01*
X119438900Y-83942557D01*
X119429329Y-83829765D01*
X119424320Y-83770725D01*
X119424319Y-83770721D01*
X119423869Y-83765414D01*
X119422531Y-83760259D01*
X119422530Y-83760253D01*
X119401415Y-83678900D01*
X121756500Y-83678900D01*
X121756501Y-85129573D01*
X121756821Y-85135910D01*
X121797541Y-85337860D01*
X121876711Y-85528054D01*
X121991316Y-85699248D01*
X122136989Y-85844921D01*
X122308183Y-85959526D01*
X122498377Y-86038696D01*
X122700327Y-86079416D01*
X122704993Y-86079652D01*
X122704998Y-86079653D01*
X122705075Y-86079657D01*
X122705093Y-86079657D01*
X122706663Y-86079737D01*
X122708260Y-86079737D01*
X123159124Y-86079736D01*
X123607336Y-86079736D01*
X123608892Y-86079657D01*
X123608909Y-86079657D01*
X123609003Y-86079652D01*
X123609005Y-86079652D01*
X123613673Y-86079416D01*
X123815623Y-86038696D01*
X124005817Y-85959526D01*
X124177011Y-85844921D01*
X124185567Y-85836365D01*
X124247879Y-85802339D01*
X124318694Y-85807404D01*
X124349869Y-85824367D01*
X124416330Y-85873816D01*
X124628193Y-85981532D01*
X124633284Y-85983113D01*
X124633287Y-85983114D01*
X124812291Y-86038696D01*
X124855176Y-86052012D01*
X124860465Y-86052713D01*
X125085506Y-86082541D01*
X125085509Y-86082541D01*
X125090789Y-86083241D01*
X125096118Y-86083041D01*
X125096119Y-86083041D01*
X125193159Y-86079398D01*
X125328295Y-86074324D01*
X125560904Y-86025518D01*
X125565863Y-86023560D01*
X125565865Y-86023559D01*
X125776998Y-85940178D01*
X125777000Y-85940177D01*
X125781963Y-85938217D01*
X125803725Y-85925012D01*
X125945040Y-85839259D01*
X125985153Y-85814918D01*
X125999649Y-85802339D01*
X126160631Y-85662647D01*
X126160633Y-85662645D01*
X126164664Y-85659147D01*
X126168047Y-85655021D01*
X126168051Y-85655017D01*
X126311977Y-85479485D01*
X126315362Y-85475357D01*
X126318297Y-85470202D01*
X126430302Y-85273436D01*
X126432939Y-85268804D01*
X126514034Y-85045393D01*
X126517997Y-85023476D01*
X126555588Y-84815596D01*
X126555589Y-84815589D01*
X126556326Y-84811512D01*
X126557500Y-84786618D01*
X126557500Y-84069557D01*
X126550513Y-83987211D01*
X126542920Y-83897725D01*
X126542919Y-83897721D01*
X126542469Y-83892414D01*
X126541131Y-83887259D01*
X126541130Y-83887253D01*
X126484102Y-83667534D01*
X126482760Y-83662363D01*
X126399137Y-83476727D01*
X126387333Y-83450522D01*
X126387332Y-83450519D01*
X126385143Y-83445661D01*
X126252409Y-83248505D01*
X126088355Y-83076532D01*
X125897670Y-82934658D01*
X125685807Y-82826942D01*
X125680716Y-82825361D01*
X125680713Y-82825360D01*
X125463919Y-82758044D01*
X125458824Y-82756462D01*
X125380103Y-82746028D01*
X125228494Y-82725933D01*
X125228491Y-82725933D01*
X125223211Y-82725233D01*
X125217882Y-82725433D01*
X125217881Y-82725433D01*
X125127750Y-82728817D01*
X124985705Y-82734150D01*
X124753096Y-82782956D01*
X124748137Y-82784914D01*
X124748135Y-82784915D01*
X124537002Y-82868296D01*
X124537000Y-82868297D01*
X124532037Y-82870257D01*
X124527477Y-82873024D01*
X124527469Y-82873028D01*
X124337561Y-82988267D01*
X124268948Y-83006506D01*
X124201365Y-82984754D01*
X124183101Y-82969643D01*
X124177011Y-82963553D01*
X124005817Y-82848948D01*
X123815623Y-82769778D01*
X123613673Y-82729058D01*
X123609007Y-82728822D01*
X123609002Y-82728821D01*
X123608925Y-82728817D01*
X123608907Y-82728817D01*
X123607337Y-82728737D01*
X123605740Y-82728737D01*
X123154876Y-82728738D01*
X122706664Y-82728738D01*
X122705108Y-82728817D01*
X122705091Y-82728817D01*
X122704997Y-82728822D01*
X122704995Y-82728822D01*
X122700327Y-82729058D01*
X122498377Y-82769778D01*
X122308183Y-82848948D01*
X122136989Y-82963553D01*
X121991316Y-83109226D01*
X121876711Y-83280420D01*
X121797541Y-83470614D01*
X121756821Y-83672564D01*
X121756500Y-83678900D01*
X119401415Y-83678900D01*
X119365502Y-83540534D01*
X119364160Y-83535363D01*
X119294382Y-83380461D01*
X119268733Y-83323522D01*
X119268732Y-83323519D01*
X119266543Y-83318661D01*
X119133809Y-83121505D01*
X119122096Y-83109226D01*
X119003355Y-82984754D01*
X118969755Y-82949532D01*
X118954049Y-82937846D01*
X118946511Y-82932238D01*
X118779070Y-82807658D01*
X118567207Y-82699942D01*
X118562116Y-82698361D01*
X118562113Y-82698360D01*
X118345319Y-82631044D01*
X118340224Y-82629462D01*
X118314140Y-82626005D01*
X118109894Y-82598933D01*
X118109891Y-82598933D01*
X118104611Y-82598233D01*
X118099282Y-82598433D01*
X118099281Y-82598433D01*
X118009150Y-82601817D01*
X117867105Y-82607150D01*
X117634496Y-82655956D01*
X117629537Y-82657914D01*
X117629535Y-82657915D01*
X117418402Y-82741296D01*
X117418400Y-82741297D01*
X117413437Y-82743257D01*
X117408878Y-82746024D01*
X117408875Y-82746025D01*
X117348015Y-82782956D01*
X117210247Y-82866556D01*
X117131767Y-82934658D01*
X117124267Y-82941166D01*
X117059707Y-82970706D01*
X116989426Y-82960652D01*
X116966473Y-82947090D01*
X116936851Y-82925050D01*
X116779070Y-82807658D01*
X116567207Y-82699942D01*
X116562116Y-82698361D01*
X116562113Y-82698360D01*
X116345319Y-82631044D01*
X116340224Y-82629462D01*
X116314140Y-82626005D01*
X116109894Y-82598933D01*
X116109891Y-82598933D01*
X116104611Y-82598233D01*
X116099282Y-82598433D01*
X116099281Y-82598433D01*
X116009150Y-82601817D01*
X115867105Y-82607150D01*
X115634496Y-82655956D01*
X115629537Y-82657914D01*
X115629535Y-82657915D01*
X115418402Y-82741296D01*
X115418400Y-82741297D01*
X115413437Y-82743257D01*
X115408877Y-82746024D01*
X115408869Y-82746028D01*
X115218961Y-82861267D01*
X115150348Y-82879506D01*
X115082765Y-82857754D01*
X115064501Y-82842643D01*
X115058411Y-82836553D01*
X114887217Y-82721948D01*
X114697023Y-82642778D01*
X114495073Y-82602058D01*
X114490407Y-82601822D01*
X114490402Y-82601821D01*
X114490325Y-82601817D01*
X114490307Y-82601817D01*
X114488737Y-82601737D01*
X114487140Y-82601737D01*
X114036276Y-82601738D01*
X113588064Y-82601738D01*
X113586508Y-82601817D01*
X113586491Y-82601817D01*
X113586397Y-82601822D01*
X113586395Y-82601822D01*
X113581727Y-82602058D01*
X113379777Y-82642778D01*
X113189583Y-82721948D01*
X113018389Y-82836553D01*
X112872716Y-82982226D01*
X112758111Y-83153420D01*
X112678941Y-83343614D01*
X112652116Y-83476652D01*
X112642039Y-83526631D01*
X112638221Y-83545564D01*
X112637900Y-83551900D01*
X110326052Y-83551900D01*
X110323102Y-83540534D01*
X110321760Y-83535363D01*
X110251982Y-83380461D01*
X110226333Y-83323522D01*
X110226332Y-83323519D01*
X110224143Y-83318661D01*
X110091409Y-83121505D01*
X110079696Y-83109226D01*
X109960955Y-82984754D01*
X109927355Y-82949532D01*
X109911649Y-82937846D01*
X109904111Y-82932238D01*
X109736670Y-82807658D01*
X109524807Y-82699942D01*
X109519716Y-82698361D01*
X109519713Y-82698360D01*
X109302919Y-82631044D01*
X109297824Y-82629462D01*
X109271740Y-82626005D01*
X109067494Y-82598933D01*
X109067491Y-82598933D01*
X109062211Y-82598233D01*
X109056882Y-82598433D01*
X109056881Y-82598433D01*
X108966750Y-82601817D01*
X108824705Y-82607150D01*
X108592096Y-82655956D01*
X108587137Y-82657914D01*
X108587135Y-82657915D01*
X108376002Y-82741296D01*
X108376000Y-82741297D01*
X108371037Y-82743257D01*
X108366478Y-82746024D01*
X108366475Y-82746025D01*
X108305615Y-82782956D01*
X108167847Y-82866556D01*
X108089367Y-82934658D01*
X108081867Y-82941166D01*
X108017307Y-82970706D01*
X107947026Y-82960652D01*
X107924073Y-82947090D01*
X107894451Y-82925050D01*
X107736670Y-82807658D01*
X107524807Y-82699942D01*
X107519716Y-82698361D01*
X107519713Y-82698360D01*
X107302919Y-82631044D01*
X107297824Y-82629462D01*
X107271740Y-82626005D01*
X107067494Y-82598933D01*
X107067491Y-82598933D01*
X107062211Y-82598233D01*
X107056882Y-82598433D01*
X107056881Y-82598433D01*
X106966750Y-82601817D01*
X106824705Y-82607150D01*
X106592096Y-82655956D01*
X106587137Y-82657914D01*
X106587135Y-82657915D01*
X106376002Y-82741296D01*
X106376000Y-82741297D01*
X106371037Y-82743257D01*
X106366477Y-82746024D01*
X106366469Y-82746028D01*
X106176561Y-82861267D01*
X106107948Y-82879506D01*
X106040365Y-82857754D01*
X106022101Y-82842643D01*
X106016011Y-82836553D01*
X105844817Y-82721948D01*
X105654623Y-82642778D01*
X105452673Y-82602058D01*
X105448007Y-82601822D01*
X105448002Y-82601821D01*
X105447925Y-82601817D01*
X105447907Y-82601817D01*
X105446337Y-82601737D01*
X105444740Y-82601737D01*
X104993876Y-82601738D01*
X104545664Y-82601738D01*
X104544108Y-82601817D01*
X104544091Y-82601817D01*
X104543997Y-82601822D01*
X104543995Y-82601822D01*
X104539327Y-82602058D01*
X104337377Y-82642778D01*
X104147183Y-82721948D01*
X103975989Y-82836553D01*
X103830316Y-82982226D01*
X103715711Y-83153420D01*
X103636541Y-83343614D01*
X103609716Y-83476652D01*
X103599639Y-83526631D01*
X103595821Y-83545564D01*
X103595500Y-83551900D01*
X98590000Y-83551900D01*
X98590000Y-82245237D01*
X129190551Y-82245237D01*
X129210317Y-82496385D01*
X129211471Y-82501192D01*
X129211472Y-82501198D01*
X129245170Y-82641561D01*
X129269127Y-82741348D01*
X129271020Y-82745919D01*
X129271021Y-82745921D01*
X129362973Y-82967912D01*
X129365534Y-82974096D01*
X129497164Y-83188896D01*
X129500376Y-83192656D01*
X129500379Y-83192661D01*
X129570961Y-83275301D01*
X129660776Y-83380461D01*
X129664538Y-83383674D01*
X129848576Y-83540858D01*
X129848581Y-83540861D01*
X129852341Y-83544073D01*
X130067141Y-83675703D01*
X130071711Y-83677596D01*
X130071715Y-83677598D01*
X130283723Y-83765414D01*
X130299889Y-83772110D01*
X130384289Y-83792372D01*
X130540039Y-83829765D01*
X130540045Y-83829766D01*
X130544852Y-83830920D01*
X130796000Y-83850686D01*
X131047148Y-83830920D01*
X131051955Y-83829766D01*
X131051961Y-83829765D01*
X131207711Y-83792372D01*
X131292111Y-83772110D01*
X131308277Y-83765414D01*
X131520285Y-83677598D01*
X131520289Y-83677596D01*
X131524859Y-83675703D01*
X131739659Y-83544073D01*
X131743419Y-83540861D01*
X131743424Y-83540858D01*
X131927462Y-83383674D01*
X131931224Y-83380461D01*
X132021039Y-83275301D01*
X132091621Y-83192661D01*
X132091624Y-83192656D01*
X132094836Y-83188896D01*
X132226466Y-82974096D01*
X132229028Y-82967912D01*
X132320979Y-82745921D01*
X132320980Y-82745919D01*
X132322873Y-82741348D01*
X132346830Y-82641561D01*
X132380528Y-82501198D01*
X132380529Y-82501192D01*
X132381683Y-82496385D01*
X132401449Y-82245237D01*
X134270551Y-82245237D01*
X134290317Y-82496385D01*
X134291471Y-82501192D01*
X134291472Y-82501198D01*
X134325170Y-82641561D01*
X134349127Y-82741348D01*
X134351020Y-82745919D01*
X134351021Y-82745921D01*
X134442973Y-82967912D01*
X134445534Y-82974096D01*
X134577164Y-83188896D01*
X134580376Y-83192656D01*
X134580379Y-83192661D01*
X134650961Y-83275301D01*
X134740776Y-83380461D01*
X134744538Y-83383674D01*
X134928576Y-83540858D01*
X134928581Y-83540861D01*
X134932341Y-83544073D01*
X135147141Y-83675703D01*
X135151711Y-83677596D01*
X135151715Y-83677598D01*
X135363723Y-83765414D01*
X135379889Y-83772110D01*
X135464289Y-83792372D01*
X135620039Y-83829765D01*
X135620045Y-83829766D01*
X135624852Y-83830920D01*
X135876000Y-83850686D01*
X136127148Y-83830920D01*
X136131955Y-83829766D01*
X136131961Y-83829765D01*
X136287711Y-83792372D01*
X136372111Y-83772110D01*
X136388277Y-83765414D01*
X136600285Y-83677598D01*
X136600289Y-83677596D01*
X136604859Y-83675703D01*
X136819659Y-83544073D01*
X136823419Y-83540861D01*
X136823424Y-83540858D01*
X137007462Y-83383674D01*
X137011224Y-83380461D01*
X137101039Y-83275301D01*
X137171621Y-83192661D01*
X137171624Y-83192656D01*
X137174836Y-83188896D01*
X137306466Y-82974096D01*
X137309028Y-82967912D01*
X137400979Y-82745921D01*
X137400980Y-82745919D01*
X137402873Y-82741348D01*
X137426830Y-82641561D01*
X137457993Y-82511759D01*
X139419273Y-82511759D01*
X139466764Y-82688998D01*
X139470510Y-82699290D01*
X139562586Y-82896748D01*
X139568069Y-82906244D01*
X139693028Y-83084704D01*
X139700084Y-83093112D01*
X139854125Y-83247153D01*
X139862533Y-83254209D01*
X140040993Y-83379168D01*
X140050489Y-83384651D01*
X140247947Y-83476727D01*
X140258239Y-83480473D01*
X140430503Y-83526631D01*
X140444599Y-83526295D01*
X140448000Y-83518353D01*
X140448000Y-83513204D01*
X140956000Y-83513204D01*
X140959973Y-83526735D01*
X140968522Y-83527964D01*
X141145761Y-83480473D01*
X141156053Y-83476727D01*
X141353511Y-83384651D01*
X141363007Y-83379168D01*
X141541467Y-83254209D01*
X141549875Y-83247153D01*
X141703916Y-83093112D01*
X141710972Y-83084704D01*
X141835931Y-82906244D01*
X141841414Y-82896748D01*
X141933490Y-82699290D01*
X141937236Y-82688998D01*
X141983394Y-82516734D01*
X141983058Y-82502638D01*
X141975116Y-82499237D01*
X140974115Y-82499237D01*
X140958876Y-82503712D01*
X140957671Y-82505102D01*
X140956000Y-82512785D01*
X140956000Y-83513204D01*
X140448000Y-83513204D01*
X140448000Y-82517352D01*
X140443525Y-82502113D01*
X140442135Y-82500908D01*
X140434452Y-82499237D01*
X139434033Y-82499237D01*
X139420502Y-82503210D01*
X139419273Y-82511759D01*
X137457993Y-82511759D01*
X137460528Y-82501198D01*
X137460529Y-82501192D01*
X137461683Y-82496385D01*
X137481449Y-82245237D01*
X137461683Y-81994089D01*
X137460045Y-81987264D01*
X137456798Y-81973740D01*
X139420606Y-81973740D01*
X139420942Y-81987836D01*
X139428884Y-81991237D01*
X140429885Y-81991237D01*
X140445124Y-81986762D01*
X140446329Y-81985372D01*
X140448000Y-81977689D01*
X140448000Y-81973122D01*
X140956000Y-81973122D01*
X140960475Y-81988361D01*
X140961865Y-81989566D01*
X140969548Y-81991237D01*
X141969967Y-81991237D01*
X141983498Y-81987264D01*
X141984727Y-81978715D01*
X141937236Y-81801476D01*
X141933490Y-81791184D01*
X141841414Y-81593726D01*
X141835931Y-81584230D01*
X141710972Y-81405770D01*
X141703916Y-81397362D01*
X141549875Y-81243321D01*
X141541467Y-81236265D01*
X141363007Y-81111306D01*
X141353511Y-81105823D01*
X141156053Y-81013747D01*
X141145761Y-81010001D01*
X140973497Y-80963843D01*
X140959401Y-80964179D01*
X140956000Y-80972121D01*
X140956000Y-81973122D01*
X140448000Y-81973122D01*
X140448000Y-80977270D01*
X140444027Y-80963739D01*
X140435478Y-80962510D01*
X140258239Y-81010001D01*
X140247947Y-81013747D01*
X140050489Y-81105823D01*
X140040993Y-81111306D01*
X139862533Y-81236265D01*
X139854125Y-81243321D01*
X139700084Y-81397362D01*
X139693028Y-81405770D01*
X139568069Y-81584230D01*
X139562586Y-81593726D01*
X139470510Y-81791184D01*
X139466764Y-81801476D01*
X139420606Y-81973740D01*
X137456798Y-81973740D01*
X137407562Y-81768657D01*
X137402873Y-81749126D01*
X137400979Y-81744553D01*
X137308361Y-81520952D01*
X137308359Y-81520948D01*
X137306466Y-81516378D01*
X137174836Y-81301578D01*
X137171624Y-81297818D01*
X137171621Y-81297813D01*
X137014437Y-81113775D01*
X137011224Y-81110013D01*
X136894125Y-81010001D01*
X136823424Y-80949616D01*
X136823419Y-80949613D01*
X136819659Y-80946401D01*
X136604859Y-80814771D01*
X136600289Y-80812878D01*
X136600285Y-80812876D01*
X136376684Y-80720258D01*
X136376682Y-80720257D01*
X136372111Y-80718364D01*
X136287711Y-80698102D01*
X136131961Y-80660709D01*
X136131955Y-80660708D01*
X136127148Y-80659554D01*
X135876000Y-80639788D01*
X135624852Y-80659554D01*
X135620045Y-80660708D01*
X135620039Y-80660709D01*
X135464289Y-80698102D01*
X135379889Y-80718364D01*
X135375318Y-80720257D01*
X135375316Y-80720258D01*
X135151715Y-80812876D01*
X135151711Y-80812878D01*
X135147141Y-80814771D01*
X134932341Y-80946401D01*
X134928581Y-80949613D01*
X134928576Y-80949616D01*
X134857875Y-81010001D01*
X134740776Y-81110013D01*
X134737563Y-81113775D01*
X134580379Y-81297813D01*
X134580376Y-81297818D01*
X134577164Y-81301578D01*
X134445534Y-81516378D01*
X134443641Y-81520948D01*
X134443639Y-81520952D01*
X134351021Y-81744553D01*
X134349127Y-81749126D01*
X134344438Y-81768657D01*
X134291956Y-81987264D01*
X134290317Y-81994089D01*
X134270551Y-82245237D01*
X132401449Y-82245237D01*
X132381683Y-81994089D01*
X132380045Y-81987264D01*
X132327562Y-81768657D01*
X132322873Y-81749126D01*
X132320979Y-81744553D01*
X132228361Y-81520952D01*
X132228359Y-81520948D01*
X132226466Y-81516378D01*
X132094836Y-81301578D01*
X132091624Y-81297818D01*
X132091621Y-81297813D01*
X131934437Y-81113775D01*
X131931224Y-81110013D01*
X131814125Y-81010001D01*
X131743424Y-80949616D01*
X131743419Y-80949613D01*
X131739659Y-80946401D01*
X131524859Y-80814771D01*
X131520289Y-80812878D01*
X131520285Y-80812876D01*
X131296684Y-80720258D01*
X131296682Y-80720257D01*
X131292111Y-80718364D01*
X131207711Y-80698102D01*
X131051961Y-80660709D01*
X131051955Y-80660708D01*
X131047148Y-80659554D01*
X130796000Y-80639788D01*
X130544852Y-80659554D01*
X130540045Y-80660708D01*
X130540039Y-80660709D01*
X130384289Y-80698102D01*
X130299889Y-80718364D01*
X130295318Y-80720257D01*
X130295316Y-80720258D01*
X130071715Y-80812876D01*
X130071711Y-80812878D01*
X130067141Y-80814771D01*
X129852341Y-80946401D01*
X129848581Y-80949613D01*
X129848576Y-80949616D01*
X129777875Y-81010001D01*
X129660776Y-81110013D01*
X129657563Y-81113775D01*
X129500379Y-81297813D01*
X129500376Y-81297818D01*
X129497164Y-81301578D01*
X129365534Y-81516378D01*
X129363641Y-81520948D01*
X129363639Y-81520952D01*
X129271021Y-81744553D01*
X129269127Y-81749126D01*
X129264438Y-81768657D01*
X129211956Y-81987264D01*
X129210317Y-81994089D01*
X129190551Y-82245237D01*
X98590000Y-82245237D01*
X98590000Y-77673237D01*
X99326551Y-77673237D01*
X99346317Y-77924385D01*
X99405127Y-78169348D01*
X99407020Y-78173919D01*
X99407021Y-78173921D01*
X99496651Y-78390307D01*
X99501534Y-78402096D01*
X99633164Y-78616896D01*
X99636376Y-78620656D01*
X99636379Y-78620661D01*
X99781256Y-78790289D01*
X99796776Y-78808461D01*
X99800538Y-78811674D01*
X99984576Y-78968858D01*
X99984581Y-78968862D01*
X99988341Y-78972073D01*
X99992554Y-78974655D01*
X99993822Y-78975576D01*
X100037172Y-79031801D01*
X100043243Y-79102538D01*
X100010107Y-79165327D01*
X100001585Y-79173317D01*
X99815776Y-79332013D01*
X99812563Y-79335775D01*
X99655379Y-79519813D01*
X99655376Y-79519818D01*
X99652164Y-79523578D01*
X99520534Y-79738378D01*
X99518641Y-79742948D01*
X99518639Y-79742952D01*
X99426021Y-79966553D01*
X99424127Y-79971126D01*
X99417030Y-80000686D01*
X99374459Y-80178011D01*
X99365317Y-80216089D01*
X99345551Y-80467237D01*
X99365317Y-80718385D01*
X99424127Y-80963348D01*
X99426020Y-80967919D01*
X99426021Y-80967921D01*
X99486436Y-81113775D01*
X99520534Y-81196096D01*
X99652164Y-81410896D01*
X99655376Y-81414656D01*
X99655379Y-81414661D01*
X99800205Y-81584230D01*
X99815776Y-81602461D01*
X99819538Y-81605674D01*
X100003576Y-81762858D01*
X100003581Y-81762861D01*
X100007341Y-81766073D01*
X100222141Y-81897703D01*
X100226711Y-81899596D01*
X100226715Y-81899598D01*
X100450316Y-81992216D01*
X100454889Y-81994110D01*
X100539289Y-82014372D01*
X100695039Y-82051765D01*
X100695045Y-82051766D01*
X100699852Y-82052920D01*
X100951000Y-82072686D01*
X101202148Y-82052920D01*
X101206955Y-82051766D01*
X101206961Y-82051765D01*
X101362711Y-82014372D01*
X101447111Y-81994110D01*
X101451684Y-81992216D01*
X101675285Y-81899598D01*
X101675289Y-81899596D01*
X101679859Y-81897703D01*
X101894659Y-81766073D01*
X101898419Y-81762861D01*
X101898424Y-81762858D01*
X102082462Y-81605674D01*
X102086224Y-81602461D01*
X102101795Y-81584230D01*
X102246621Y-81414661D01*
X102246624Y-81414656D01*
X102249836Y-81410896D01*
X102381466Y-81196096D01*
X102415565Y-81113775D01*
X102475979Y-80967921D01*
X102475980Y-80967919D01*
X102477873Y-80963348D01*
X102536683Y-80718385D01*
X102556449Y-80467237D01*
X102536683Y-80216089D01*
X102527542Y-80178011D01*
X102484970Y-80000686D01*
X102477873Y-79971126D01*
X102475979Y-79966553D01*
X102383361Y-79742952D01*
X102383359Y-79742948D01*
X102381466Y-79738378D01*
X102249836Y-79523578D01*
X102246624Y-79519818D01*
X102246621Y-79519813D01*
X102089437Y-79335775D01*
X102086224Y-79332013D01*
X102023332Y-79278298D01*
X101898424Y-79171616D01*
X101898419Y-79171612D01*
X101894659Y-79168401D01*
X101890446Y-79165819D01*
X101889178Y-79164898D01*
X101845828Y-79108673D01*
X101839757Y-79037936D01*
X101872893Y-78975147D01*
X101881416Y-78967156D01*
X101964822Y-78895921D01*
X102067224Y-78808461D01*
X102082744Y-78790289D01*
X102227621Y-78620661D01*
X102227624Y-78620656D01*
X102230836Y-78616896D01*
X102362466Y-78402096D01*
X102367350Y-78390307D01*
X102456979Y-78173921D01*
X102456980Y-78173919D01*
X102458873Y-78169348D01*
X102517683Y-77924385D01*
X102537449Y-77673237D01*
X109486551Y-77673237D01*
X109506317Y-77924385D01*
X109565127Y-78169348D01*
X109567020Y-78173919D01*
X109567021Y-78173921D01*
X109656651Y-78390307D01*
X109661534Y-78402096D01*
X109793164Y-78616896D01*
X109796376Y-78620656D01*
X109796379Y-78620661D01*
X109941256Y-78790289D01*
X109956776Y-78808461D01*
X109960538Y-78811674D01*
X110144576Y-78968858D01*
X110144581Y-78968861D01*
X110148341Y-78972073D01*
X110363141Y-79103703D01*
X110367711Y-79105596D01*
X110367715Y-79105598D01*
X110519336Y-79168401D01*
X110595889Y-79200110D01*
X110680289Y-79220372D01*
X110836039Y-79257765D01*
X110836045Y-79257766D01*
X110840852Y-79258920D01*
X111092000Y-79278686D01*
X111343148Y-79258920D01*
X111347955Y-79257766D01*
X111347961Y-79257765D01*
X111503711Y-79220372D01*
X111588111Y-79200110D01*
X111664664Y-79168401D01*
X111816285Y-79105598D01*
X111816289Y-79105596D01*
X111820859Y-79103703D01*
X112035659Y-78972073D01*
X112039419Y-78968861D01*
X112039424Y-78968858D01*
X112223462Y-78811674D01*
X112227224Y-78808461D01*
X112242744Y-78790289D01*
X112387621Y-78620661D01*
X112387624Y-78620656D01*
X112390836Y-78616896D01*
X112431335Y-78550808D01*
X112483983Y-78503177D01*
X112554025Y-78491570D01*
X112619222Y-78519673D01*
X112634572Y-78534805D01*
X112654776Y-78558461D01*
X112658538Y-78561674D01*
X112842576Y-78718858D01*
X112842581Y-78718861D01*
X112846341Y-78722073D01*
X113061141Y-78853703D01*
X113065711Y-78855596D01*
X113065715Y-78855598D01*
X113289316Y-78948216D01*
X113293889Y-78950110D01*
X113364891Y-78967156D01*
X113534039Y-79007765D01*
X113534045Y-79007766D01*
X113538852Y-79008920D01*
X113790000Y-79028686D01*
X114041148Y-79008920D01*
X114045955Y-79007766D01*
X114045961Y-79007765D01*
X114215109Y-78967156D01*
X114286111Y-78950110D01*
X114290684Y-78948216D01*
X114514285Y-78855598D01*
X114514289Y-78855596D01*
X114518859Y-78853703D01*
X114733659Y-78722073D01*
X114737419Y-78718861D01*
X114737424Y-78718858D01*
X114921462Y-78561674D01*
X114925224Y-78558461D01*
X114982354Y-78491570D01*
X115085621Y-78370661D01*
X115085624Y-78370656D01*
X115088836Y-78366896D01*
X115220466Y-78152096D01*
X115225777Y-78139276D01*
X115314979Y-77923921D01*
X115314980Y-77923919D01*
X115316873Y-77919348D01*
X115345190Y-77801400D01*
X115374528Y-77679198D01*
X115374529Y-77679192D01*
X115375683Y-77674385D01*
X115395449Y-77423237D01*
X117184551Y-77423237D01*
X117204317Y-77674385D01*
X117205471Y-77679192D01*
X117205472Y-77679198D01*
X117234810Y-77801400D01*
X117263127Y-77919348D01*
X117265020Y-77923919D01*
X117265021Y-77923921D01*
X117354224Y-78139276D01*
X117359534Y-78152096D01*
X117491164Y-78366896D01*
X117494376Y-78370656D01*
X117494379Y-78370661D01*
X117597646Y-78491570D01*
X117654776Y-78558461D01*
X117658538Y-78561674D01*
X117842576Y-78718858D01*
X117842581Y-78718861D01*
X117846341Y-78722073D01*
X118061141Y-78853703D01*
X118065711Y-78855596D01*
X118065715Y-78855598D01*
X118289316Y-78948216D01*
X118293889Y-78950110D01*
X118364891Y-78967156D01*
X118534039Y-79007765D01*
X118534045Y-79007766D01*
X118538852Y-79008920D01*
X118790000Y-79028686D01*
X119041148Y-79008920D01*
X119045955Y-79007766D01*
X119045961Y-79007765D01*
X119215109Y-78967156D01*
X119286111Y-78950110D01*
X119290684Y-78948216D01*
X119514285Y-78855598D01*
X119514289Y-78855596D01*
X119518859Y-78853703D01*
X119733659Y-78722073D01*
X119737419Y-78718861D01*
X119737424Y-78718858D01*
X119921462Y-78561674D01*
X119925224Y-78558461D01*
X119982354Y-78491570D01*
X120085621Y-78370661D01*
X120085624Y-78370656D01*
X120088836Y-78366896D01*
X120220466Y-78152096D01*
X120225777Y-78139276D01*
X120260519Y-78055400D01*
X123715500Y-78055400D01*
X123715501Y-79831073D01*
X123715774Y-79835826D01*
X123756173Y-80010814D01*
X123834336Y-80172503D01*
X123946380Y-80312857D01*
X124086734Y-80424901D01*
X124093077Y-80427967D01*
X124093078Y-80427968D01*
X124173940Y-80467058D01*
X124248423Y-80503064D01*
X124255284Y-80504648D01*
X124418212Y-80542263D01*
X124418215Y-80542263D01*
X124423411Y-80543463D01*
X124428163Y-80543737D01*
X124429987Y-80543737D01*
X125323609Y-80543736D01*
X126203836Y-80543736D01*
X126208589Y-80543463D01*
X126383577Y-80503064D01*
X126458060Y-80467058D01*
X126538922Y-80427968D01*
X126538923Y-80427967D01*
X126545266Y-80424901D01*
X126685620Y-80312857D01*
X126797664Y-80172503D01*
X126875827Y-80010814D01*
X126916226Y-79835826D01*
X126916500Y-79831074D01*
X126916499Y-78055401D01*
X126916226Y-78050648D01*
X126875827Y-77875660D01*
X126839929Y-77801400D01*
X132351500Y-77801400D01*
X132351501Y-79577073D01*
X132351774Y-79581826D01*
X132392173Y-79756814D01*
X132470336Y-79918503D01*
X132582380Y-80058857D01*
X132722734Y-80170901D01*
X132729077Y-80173967D01*
X132729078Y-80173968D01*
X132806254Y-80211276D01*
X132884423Y-80249064D01*
X132891284Y-80250648D01*
X133054212Y-80288263D01*
X133054215Y-80288263D01*
X133059411Y-80289463D01*
X133064163Y-80289737D01*
X133065987Y-80289737D01*
X133959609Y-80289736D01*
X134839836Y-80289736D01*
X134844589Y-80289463D01*
X135019577Y-80249064D01*
X135097746Y-80211276D01*
X135174922Y-80173968D01*
X135174923Y-80173967D01*
X135181266Y-80170901D01*
X135321620Y-80058857D01*
X135433664Y-79918503D01*
X135511827Y-79756814D01*
X135552226Y-79581826D01*
X135552500Y-79577074D01*
X135552499Y-78395237D01*
X139096551Y-78395237D01*
X139116317Y-78646385D01*
X139175127Y-78891348D01*
X139177020Y-78895919D01*
X139177021Y-78895921D01*
X139265146Y-79108673D01*
X139271534Y-79124096D01*
X139403164Y-79338896D01*
X139406376Y-79342656D01*
X139406379Y-79342661D01*
X139551256Y-79512289D01*
X139566776Y-79530461D01*
X139570538Y-79533674D01*
X139754576Y-79690858D01*
X139754581Y-79690861D01*
X139758341Y-79694073D01*
X139973141Y-79825703D01*
X139977711Y-79827596D01*
X139977715Y-79827598D01*
X140201316Y-79920216D01*
X140205889Y-79922110D01*
X140290289Y-79942372D01*
X140446039Y-79979765D01*
X140446045Y-79979766D01*
X140450852Y-79980920D01*
X140702000Y-80000686D01*
X140953148Y-79980920D01*
X140957955Y-79979766D01*
X140957961Y-79979765D01*
X141113711Y-79942372D01*
X141198111Y-79922110D01*
X141202684Y-79920216D01*
X141426285Y-79827598D01*
X141426289Y-79827596D01*
X141430859Y-79825703D01*
X141645659Y-79694073D01*
X141649419Y-79690861D01*
X141649424Y-79690858D01*
X141833462Y-79533674D01*
X141837224Y-79530461D01*
X141852744Y-79512289D01*
X141997621Y-79342661D01*
X141997624Y-79342656D01*
X142000836Y-79338896D01*
X142132466Y-79124096D01*
X142138855Y-79108673D01*
X142226979Y-78895921D01*
X142226980Y-78895919D01*
X142228873Y-78891348D01*
X142287683Y-78646385D01*
X142307449Y-78395237D01*
X142287683Y-78144089D01*
X142228873Y-77899126D01*
X142216526Y-77869318D01*
X142134361Y-77670952D01*
X142134359Y-77670948D01*
X142132466Y-77666378D01*
X142000836Y-77451578D01*
X141997624Y-77447818D01*
X141997621Y-77447813D01*
X141840437Y-77263775D01*
X141837224Y-77260013D01*
X141740176Y-77177126D01*
X141649424Y-77099616D01*
X141649419Y-77099613D01*
X141645659Y-77096401D01*
X141430859Y-76964771D01*
X141426289Y-76962878D01*
X141426285Y-76962876D01*
X141202684Y-76870258D01*
X141202682Y-76870257D01*
X141198111Y-76868364D01*
X141113711Y-76848102D01*
X140957961Y-76810709D01*
X140957955Y-76810708D01*
X140953148Y-76809554D01*
X140702000Y-76789788D01*
X140450852Y-76809554D01*
X140446045Y-76810708D01*
X140446039Y-76810709D01*
X140290289Y-76848102D01*
X140205889Y-76868364D01*
X140201318Y-76870257D01*
X140201316Y-76870258D01*
X139977715Y-76962876D01*
X139977711Y-76962878D01*
X139973141Y-76964771D01*
X139758341Y-77096401D01*
X139754581Y-77099613D01*
X139754576Y-77099616D01*
X139663824Y-77177126D01*
X139566776Y-77260013D01*
X139563563Y-77263775D01*
X139406379Y-77447813D01*
X139406376Y-77447818D01*
X139403164Y-77451578D01*
X139271534Y-77666378D01*
X139269641Y-77670948D01*
X139269639Y-77670952D01*
X139187474Y-77869318D01*
X139175127Y-77899126D01*
X139116317Y-78144089D01*
X139096551Y-78395237D01*
X135552499Y-78395237D01*
X135552499Y-77801401D01*
X135552226Y-77796648D01*
X135511827Y-77621660D01*
X135433664Y-77459971D01*
X135321620Y-77319617D01*
X135234160Y-77249798D01*
X135193402Y-77191666D01*
X135191063Y-77118716D01*
X135243625Y-76922549D01*
X135245528Y-76911756D01*
X135264517Y-76694712D01*
X135264517Y-76683762D01*
X135245528Y-76466718D01*
X135243625Y-76455925D01*
X135187236Y-76245476D01*
X135183490Y-76235184D01*
X135091414Y-76037726D01*
X135085931Y-76028231D01*
X135049491Y-75976189D01*
X135039012Y-75967813D01*
X135025566Y-75974881D01*
X134041095Y-76959352D01*
X133978783Y-76993378D01*
X133907968Y-76988313D01*
X133862905Y-76959352D01*
X132877713Y-75974160D01*
X132865938Y-75967730D01*
X132853923Y-75977026D01*
X132818069Y-76028231D01*
X132812586Y-76037726D01*
X132720510Y-76235184D01*
X132716764Y-76245476D01*
X132660375Y-76455925D01*
X132658472Y-76466718D01*
X132639483Y-76683762D01*
X132639483Y-76694712D01*
X132658472Y-76911756D01*
X132660375Y-76922549D01*
X132712937Y-77118716D01*
X132711247Y-77189693D01*
X132669840Y-77249798D01*
X132582380Y-77319617D01*
X132470336Y-77459971D01*
X132392173Y-77621660D01*
X132390589Y-77628521D01*
X132380001Y-77674385D01*
X132351774Y-77796648D01*
X132351500Y-77801400D01*
X126839929Y-77801400D01*
X126797664Y-77713971D01*
X126685620Y-77573617D01*
X126545266Y-77461573D01*
X126530559Y-77454463D01*
X126455765Y-77418307D01*
X126420401Y-77401212D01*
X126367777Y-77353556D01*
X126349271Y-77285014D01*
X126372028Y-77215502D01*
X126449928Y-77104249D01*
X126455414Y-77094748D01*
X126547490Y-76897290D01*
X126551236Y-76886998D01*
X126607625Y-76676549D01*
X126609528Y-76665756D01*
X126628517Y-76448712D01*
X126628517Y-76437762D01*
X126609528Y-76220718D01*
X126607625Y-76209925D01*
X126551236Y-75999476D01*
X126547490Y-75989184D01*
X126455414Y-75791726D01*
X126449931Y-75782231D01*
X126413491Y-75730189D01*
X126403012Y-75721813D01*
X126389566Y-75728881D01*
X125405095Y-76713352D01*
X125342783Y-76747378D01*
X125271968Y-76742313D01*
X125226905Y-76713352D01*
X124241713Y-75728160D01*
X124229938Y-75721730D01*
X124217923Y-75731026D01*
X124182069Y-75782231D01*
X124176586Y-75791726D01*
X124084510Y-75989184D01*
X124080764Y-75999476D01*
X124024375Y-76209925D01*
X124022472Y-76220718D01*
X124003483Y-76437762D01*
X124003483Y-76448712D01*
X124022472Y-76665756D01*
X124024375Y-76676549D01*
X124080764Y-76886998D01*
X124084510Y-76897290D01*
X124176586Y-77094748D01*
X124182072Y-77104249D01*
X124259972Y-77215502D01*
X124282660Y-77282775D01*
X124265375Y-77351636D01*
X124211598Y-77401212D01*
X124176235Y-77418307D01*
X124101442Y-77454463D01*
X124086734Y-77461573D01*
X123946380Y-77573617D01*
X123834336Y-77713971D01*
X123756173Y-77875660D01*
X123754589Y-77882521D01*
X123749645Y-77903938D01*
X123715774Y-78050648D01*
X123715500Y-78055400D01*
X120260519Y-78055400D01*
X120314979Y-77923921D01*
X120314980Y-77923919D01*
X120316873Y-77919348D01*
X120345190Y-77801400D01*
X120374528Y-77679198D01*
X120374529Y-77679192D01*
X120375683Y-77674385D01*
X120395449Y-77423237D01*
X120375683Y-77172089D01*
X120362870Y-77118716D01*
X120331563Y-76988313D01*
X120316873Y-76927126D01*
X120268652Y-76810709D01*
X120222361Y-76698952D01*
X120222359Y-76698948D01*
X120220466Y-76694378D01*
X120213961Y-76683762D01*
X120158523Y-76593297D01*
X120088836Y-76479578D01*
X120085624Y-76475818D01*
X120085621Y-76475813D01*
X119928437Y-76291775D01*
X119925224Y-76288013D01*
X119875280Y-76245357D01*
X119737424Y-76127616D01*
X119737419Y-76127613D01*
X119733659Y-76124401D01*
X119518859Y-75992771D01*
X119514289Y-75990878D01*
X119514285Y-75990876D01*
X119290684Y-75898258D01*
X119290682Y-75898257D01*
X119286111Y-75896364D01*
X119201711Y-75876102D01*
X119045961Y-75838709D01*
X119045955Y-75838708D01*
X119041148Y-75837554D01*
X118790000Y-75817788D01*
X118538852Y-75837554D01*
X118534045Y-75838708D01*
X118534039Y-75838709D01*
X118378289Y-75876102D01*
X118293889Y-75896364D01*
X118289318Y-75898257D01*
X118289316Y-75898258D01*
X118065715Y-75990876D01*
X118065711Y-75990878D01*
X118061141Y-75992771D01*
X117846341Y-76124401D01*
X117842581Y-76127613D01*
X117842576Y-76127616D01*
X117704720Y-76245357D01*
X117654776Y-76288013D01*
X117651563Y-76291775D01*
X117494379Y-76475813D01*
X117494376Y-76475818D01*
X117491164Y-76479578D01*
X117421477Y-76593297D01*
X117366040Y-76683762D01*
X117359534Y-76694378D01*
X117357641Y-76698948D01*
X117357639Y-76698952D01*
X117311348Y-76810709D01*
X117263127Y-76927126D01*
X117248437Y-76988313D01*
X117217131Y-77118716D01*
X117204317Y-77172089D01*
X117184551Y-77423237D01*
X115395449Y-77423237D01*
X115375683Y-77172089D01*
X115362870Y-77118716D01*
X115331563Y-76988313D01*
X115316873Y-76927126D01*
X115268652Y-76810709D01*
X115222361Y-76698952D01*
X115222359Y-76698948D01*
X115220466Y-76694378D01*
X115213961Y-76683762D01*
X115158523Y-76593297D01*
X115088836Y-76479578D01*
X115085624Y-76475818D01*
X115085621Y-76475813D01*
X114928437Y-76291775D01*
X114925224Y-76288013D01*
X114875280Y-76245357D01*
X114737424Y-76127616D01*
X114737419Y-76127613D01*
X114733659Y-76124401D01*
X114518859Y-75992771D01*
X114514289Y-75990878D01*
X114514285Y-75990876D01*
X114290684Y-75898258D01*
X114290682Y-75898257D01*
X114286111Y-75896364D01*
X114201711Y-75876102D01*
X114045961Y-75838709D01*
X114045955Y-75838708D01*
X114041148Y-75837554D01*
X113790000Y-75817788D01*
X113538852Y-75837554D01*
X113534045Y-75838708D01*
X113534039Y-75838709D01*
X113378289Y-75876102D01*
X113293889Y-75896364D01*
X113289318Y-75898257D01*
X113289316Y-75898258D01*
X113065715Y-75990876D01*
X113065711Y-75990878D01*
X113061141Y-75992771D01*
X112846341Y-76124401D01*
X112842581Y-76127613D01*
X112842576Y-76127616D01*
X112704720Y-76245357D01*
X112654776Y-76288013D01*
X112651563Y-76291775D01*
X112494379Y-76475813D01*
X112494376Y-76475818D01*
X112491164Y-76479578D01*
X112488580Y-76483795D01*
X112450665Y-76545666D01*
X112398017Y-76593297D01*
X112327975Y-76604904D01*
X112262778Y-76576801D01*
X112247428Y-76561669D01*
X112227224Y-76538013D01*
X112163743Y-76483795D01*
X112039424Y-76377616D01*
X112039419Y-76377613D01*
X112035659Y-76374401D01*
X111820859Y-76242771D01*
X111816289Y-76240878D01*
X111816285Y-76240876D01*
X111592684Y-76148258D01*
X111592682Y-76148257D01*
X111588111Y-76146364D01*
X111583296Y-76145208D01*
X111581414Y-76144756D01*
X111580773Y-76144388D01*
X111578588Y-76143678D01*
X111578737Y-76143219D01*
X111519844Y-76109404D01*
X111487161Y-76046378D01*
X111493741Y-75975687D01*
X111537495Y-75919775D01*
X111578648Y-75900981D01*
X111578588Y-75900796D01*
X111580202Y-75900272D01*
X111581414Y-75899718D01*
X111583296Y-75899266D01*
X111588111Y-75898110D01*
X111595115Y-75895209D01*
X111816285Y-75803598D01*
X111816289Y-75803596D01*
X111820859Y-75801703D01*
X112035659Y-75670073D01*
X112039419Y-75666861D01*
X112039424Y-75666858D01*
X112223462Y-75509674D01*
X112227224Y-75506461D01*
X112321815Y-75395709D01*
X112355538Y-75356225D01*
X124594576Y-75356225D01*
X124601644Y-75369671D01*
X125303188Y-76071215D01*
X125317132Y-76078829D01*
X125318965Y-76078698D01*
X125325580Y-76074447D01*
X125797802Y-75602225D01*
X133230576Y-75602225D01*
X133237644Y-75615671D01*
X133939188Y-76317215D01*
X133953132Y-76324829D01*
X133954965Y-76324698D01*
X133961580Y-76320447D01*
X134667077Y-75614950D01*
X134673507Y-75603175D01*
X134664211Y-75591160D01*
X134613006Y-75555306D01*
X134603511Y-75549823D01*
X134406053Y-75457747D01*
X134395761Y-75454001D01*
X134185312Y-75397612D01*
X134174519Y-75395709D01*
X133957475Y-75376720D01*
X133946525Y-75376720D01*
X133729481Y-75395709D01*
X133718688Y-75397612D01*
X133508239Y-75454001D01*
X133497947Y-75457747D01*
X133300489Y-75549823D01*
X133290994Y-75555306D01*
X133238952Y-75591746D01*
X133230576Y-75602225D01*
X125797802Y-75602225D01*
X126031077Y-75368950D01*
X126037507Y-75357175D01*
X126028211Y-75345160D01*
X125977006Y-75309306D01*
X125967511Y-75303823D01*
X125770053Y-75211747D01*
X125759761Y-75208001D01*
X125549312Y-75151612D01*
X125538519Y-75149709D01*
X125321475Y-75130720D01*
X125310525Y-75130720D01*
X125093481Y-75149709D01*
X125082688Y-75151612D01*
X124872239Y-75208001D01*
X124861947Y-75211747D01*
X124664489Y-75303823D01*
X124654994Y-75309306D01*
X124602952Y-75345746D01*
X124594576Y-75356225D01*
X112355538Y-75356225D01*
X112387621Y-75318661D01*
X112387624Y-75318656D01*
X112390836Y-75314896D01*
X112522466Y-75100096D01*
X112571670Y-74981308D01*
X112616979Y-74871921D01*
X112616980Y-74871919D01*
X112618873Y-74867348D01*
X112639135Y-74782948D01*
X112676528Y-74627198D01*
X112676529Y-74627192D01*
X112677683Y-74622385D01*
X112697449Y-74371237D01*
X112677683Y-74120089D01*
X112658619Y-74040679D01*
X112639135Y-73959526D01*
X112618873Y-73875126D01*
X112608990Y-73851265D01*
X112532991Y-73667788D01*
X112525402Y-73597198D01*
X112557181Y-73533711D01*
X112618239Y-73497484D01*
X112689191Y-73500018D01*
X112731230Y-73523759D01*
X112842576Y-73618858D01*
X112842581Y-73618861D01*
X112846341Y-73622073D01*
X113061141Y-73753703D01*
X113065711Y-73755596D01*
X113065715Y-73755598D01*
X113289316Y-73848216D01*
X113293889Y-73850110D01*
X113378289Y-73870372D01*
X113534039Y-73907765D01*
X113534045Y-73907766D01*
X113538852Y-73908920D01*
X113790000Y-73928686D01*
X114041148Y-73908920D01*
X114045955Y-73907766D01*
X114045961Y-73907765D01*
X114201711Y-73870372D01*
X114286111Y-73850110D01*
X114290684Y-73848216D01*
X114514285Y-73755598D01*
X114514289Y-73755596D01*
X114518859Y-73753703D01*
X114733659Y-73622073D01*
X114737419Y-73618861D01*
X114737424Y-73618858D01*
X114921462Y-73461674D01*
X114925224Y-73458461D01*
X114975012Y-73400167D01*
X115085621Y-73270661D01*
X115085624Y-73270656D01*
X115088836Y-73266896D01*
X115220466Y-73052096D01*
X115230992Y-73026686D01*
X115314979Y-72823921D01*
X115314980Y-72823919D01*
X115316873Y-72819348D01*
X115351843Y-72673687D01*
X115374528Y-72579198D01*
X115374529Y-72579192D01*
X115375683Y-72574385D01*
X115395449Y-72323237D01*
X117184551Y-72323237D01*
X117204317Y-72574385D01*
X117205471Y-72579192D01*
X117205472Y-72579198D01*
X117228157Y-72673687D01*
X117263127Y-72819348D01*
X117265020Y-72823919D01*
X117265021Y-72823921D01*
X117349009Y-73026686D01*
X117359534Y-73052096D01*
X117491164Y-73266896D01*
X117494376Y-73270656D01*
X117494379Y-73270661D01*
X117604988Y-73400167D01*
X117654776Y-73458461D01*
X117658538Y-73461674D01*
X117842576Y-73618858D01*
X117842581Y-73618861D01*
X117846341Y-73622073D01*
X118061141Y-73753703D01*
X118065711Y-73755596D01*
X118065715Y-73755598D01*
X118289316Y-73848216D01*
X118293889Y-73850110D01*
X118378289Y-73870372D01*
X118534039Y-73907765D01*
X118534045Y-73907766D01*
X118538852Y-73908920D01*
X118790000Y-73928686D01*
X119041148Y-73908920D01*
X119045955Y-73907766D01*
X119045961Y-73907765D01*
X119201711Y-73870372D01*
X119286111Y-73850110D01*
X119290684Y-73848216D01*
X119514285Y-73755598D01*
X119514289Y-73755596D01*
X119518859Y-73753703D01*
X119733659Y-73622073D01*
X119737419Y-73618861D01*
X119737424Y-73618858D01*
X119921462Y-73461674D01*
X119925224Y-73458461D01*
X119975012Y-73400167D01*
X120085621Y-73270661D01*
X120085624Y-73270656D01*
X120088836Y-73266896D01*
X120190352Y-73101237D01*
X122694551Y-73101237D01*
X122714317Y-73352385D01*
X122715471Y-73357192D01*
X122715472Y-73357198D01*
X122738880Y-73454699D01*
X122773127Y-73597348D01*
X122775020Y-73601919D01*
X122775021Y-73601921D01*
X122793674Y-73646952D01*
X122869534Y-73830096D01*
X123001164Y-74044896D01*
X123004376Y-74048656D01*
X123004379Y-74048661D01*
X123065385Y-74120089D01*
X123164776Y-74236461D01*
X123168538Y-74239674D01*
X123352576Y-74396858D01*
X123352581Y-74396861D01*
X123356341Y-74400073D01*
X123571141Y-74531703D01*
X123575711Y-74533596D01*
X123575715Y-74533598D01*
X123799316Y-74626216D01*
X123803889Y-74628110D01*
X123888289Y-74648372D01*
X124044039Y-74685765D01*
X124044045Y-74685766D01*
X124048852Y-74686920D01*
X124300000Y-74706686D01*
X124551148Y-74686920D01*
X124555955Y-74685766D01*
X124555961Y-74685765D01*
X124711711Y-74648372D01*
X124796111Y-74628110D01*
X124800684Y-74626216D01*
X125024285Y-74533598D01*
X125024289Y-74533596D01*
X125028859Y-74531703D01*
X125243659Y-74400073D01*
X125247419Y-74396861D01*
X125247424Y-74396858D01*
X125431462Y-74239674D01*
X125435224Y-74236461D01*
X125534615Y-74120089D01*
X125595621Y-74048661D01*
X125595624Y-74048656D01*
X125598836Y-74044896D01*
X125730466Y-73830096D01*
X125806327Y-73646952D01*
X125824979Y-73601921D01*
X125824980Y-73601919D01*
X125826873Y-73597348D01*
X125861120Y-73454699D01*
X125884528Y-73357198D01*
X125884529Y-73357192D01*
X125885683Y-73352385D01*
X125905449Y-73101237D01*
X132854551Y-73101237D01*
X132874317Y-73352385D01*
X132875471Y-73357192D01*
X132875472Y-73357198D01*
X132898880Y-73454699D01*
X132933127Y-73597348D01*
X132935020Y-73601919D01*
X132935021Y-73601921D01*
X132953674Y-73646952D01*
X133029534Y-73830096D01*
X133161164Y-74044896D01*
X133164376Y-74048656D01*
X133164379Y-74048661D01*
X133225385Y-74120089D01*
X133324776Y-74236461D01*
X133328538Y-74239674D01*
X133512576Y-74396858D01*
X133512581Y-74396861D01*
X133516341Y-74400073D01*
X133731141Y-74531703D01*
X133735711Y-74533596D01*
X133735715Y-74533598D01*
X133959316Y-74626216D01*
X133963889Y-74628110D01*
X134048289Y-74648372D01*
X134204039Y-74685765D01*
X134204045Y-74685766D01*
X134208852Y-74686920D01*
X134460000Y-74706686D01*
X134711148Y-74686920D01*
X134715955Y-74685766D01*
X134715961Y-74685765D01*
X134871711Y-74648372D01*
X134956111Y-74628110D01*
X134960684Y-74626216D01*
X135184285Y-74533598D01*
X135184289Y-74533596D01*
X135188859Y-74531703D01*
X135403659Y-74400073D01*
X135407419Y-74396861D01*
X135407424Y-74396858D01*
X135591462Y-74239674D01*
X135595224Y-74236461D01*
X135694615Y-74120089D01*
X135755621Y-74048661D01*
X135755624Y-74048656D01*
X135758836Y-74044896D01*
X135890466Y-73830096D01*
X135966327Y-73646952D01*
X135984979Y-73601921D01*
X135984980Y-73601919D01*
X135986873Y-73597348D01*
X136021120Y-73454699D01*
X136035396Y-73395237D01*
X139096551Y-73395237D01*
X139116317Y-73646385D01*
X139117471Y-73651192D01*
X139117472Y-73651198D01*
X139154865Y-73806948D01*
X139175127Y-73891348D01*
X139177020Y-73895919D01*
X139177021Y-73895921D01*
X139267881Y-74115276D01*
X139271534Y-74124096D01*
X139403164Y-74338896D01*
X139406376Y-74342656D01*
X139406379Y-74342661D01*
X139434996Y-74376167D01*
X139566776Y-74530461D01*
X139570538Y-74533674D01*
X139754576Y-74690858D01*
X139754581Y-74690861D01*
X139758341Y-74694073D01*
X139973141Y-74825703D01*
X139977711Y-74827596D01*
X139977715Y-74827598D01*
X140201316Y-74920216D01*
X140205889Y-74922110D01*
X140290289Y-74942372D01*
X140446039Y-74979765D01*
X140446045Y-74979766D01*
X140450852Y-74980920D01*
X140702000Y-75000686D01*
X140953148Y-74980920D01*
X140957955Y-74979766D01*
X140957961Y-74979765D01*
X141113711Y-74942372D01*
X141198111Y-74922110D01*
X141202684Y-74920216D01*
X141426285Y-74827598D01*
X141426289Y-74827596D01*
X141430859Y-74825703D01*
X141645659Y-74694073D01*
X141649419Y-74690861D01*
X141649424Y-74690858D01*
X141833462Y-74533674D01*
X141837224Y-74530461D01*
X141969004Y-74376167D01*
X141997621Y-74342661D01*
X141997624Y-74342656D01*
X142000836Y-74338896D01*
X142132466Y-74124096D01*
X142136120Y-74115276D01*
X142226979Y-73895921D01*
X142226980Y-73895919D01*
X142228873Y-73891348D01*
X142249135Y-73806948D01*
X142286528Y-73651198D01*
X142286529Y-73651192D01*
X142287683Y-73646385D01*
X142307449Y-73395237D01*
X142287683Y-73144089D01*
X142277396Y-73101237D01*
X142230028Y-72903938D01*
X142228873Y-72899126D01*
X142210605Y-72855023D01*
X142134361Y-72670952D01*
X142134359Y-72670948D01*
X142132466Y-72666378D01*
X142000836Y-72451578D01*
X141997624Y-72447818D01*
X141997621Y-72447813D01*
X141840437Y-72263775D01*
X141837224Y-72260013D01*
X141712880Y-72153813D01*
X141649424Y-72099616D01*
X141649419Y-72099613D01*
X141645659Y-72096401D01*
X141430859Y-71964771D01*
X141426289Y-71962878D01*
X141426285Y-71962876D01*
X141202684Y-71870258D01*
X141202682Y-71870257D01*
X141198111Y-71868364D01*
X141113711Y-71848102D01*
X140957961Y-71810709D01*
X140957955Y-71810708D01*
X140953148Y-71809554D01*
X140702000Y-71789788D01*
X140450852Y-71809554D01*
X140446045Y-71810708D01*
X140446039Y-71810709D01*
X140290289Y-71848102D01*
X140205889Y-71868364D01*
X140201318Y-71870257D01*
X140201316Y-71870258D01*
X139977715Y-71962876D01*
X139977711Y-71962878D01*
X139973141Y-71964771D01*
X139758341Y-72096401D01*
X139754581Y-72099613D01*
X139754576Y-72099616D01*
X139691120Y-72153813D01*
X139566776Y-72260013D01*
X139563563Y-72263775D01*
X139406379Y-72447813D01*
X139406376Y-72447818D01*
X139403164Y-72451578D01*
X139271534Y-72666378D01*
X139269641Y-72670948D01*
X139269639Y-72670952D01*
X139193395Y-72855023D01*
X139175127Y-72899126D01*
X139173972Y-72903938D01*
X139126605Y-73101237D01*
X139116317Y-73144089D01*
X139096551Y-73395237D01*
X136035396Y-73395237D01*
X136044528Y-73357198D01*
X136044529Y-73357192D01*
X136045683Y-73352385D01*
X136065449Y-73101237D01*
X136045683Y-72850089D01*
X136044032Y-72843208D01*
X135988028Y-72609938D01*
X135986873Y-72605126D01*
X135983617Y-72597266D01*
X135892361Y-72376952D01*
X135892359Y-72376948D01*
X135890466Y-72372378D01*
X135758836Y-72157578D01*
X135755624Y-72153818D01*
X135755621Y-72153813D01*
X135598437Y-71969775D01*
X135595224Y-71966013D01*
X135577052Y-71950493D01*
X135407424Y-71805616D01*
X135407419Y-71805613D01*
X135403659Y-71802401D01*
X135188859Y-71670771D01*
X135184289Y-71668878D01*
X135184285Y-71668876D01*
X134960684Y-71576258D01*
X134960682Y-71576257D01*
X134956111Y-71574364D01*
X134871711Y-71554102D01*
X134715961Y-71516709D01*
X134715955Y-71516708D01*
X134711148Y-71515554D01*
X134460000Y-71495788D01*
X134208852Y-71515554D01*
X134204045Y-71516708D01*
X134204039Y-71516709D01*
X134048289Y-71554102D01*
X133963889Y-71574364D01*
X133959318Y-71576257D01*
X133959316Y-71576258D01*
X133735715Y-71668876D01*
X133735711Y-71668878D01*
X133731141Y-71670771D01*
X133516341Y-71802401D01*
X133512581Y-71805613D01*
X133512576Y-71805616D01*
X133342948Y-71950493D01*
X133324776Y-71966013D01*
X133321563Y-71969775D01*
X133164379Y-72153813D01*
X133164376Y-72153818D01*
X133161164Y-72157578D01*
X133029534Y-72372378D01*
X133027641Y-72376948D01*
X133027639Y-72376952D01*
X132936383Y-72597266D01*
X132933127Y-72605126D01*
X132931972Y-72609938D01*
X132875969Y-72843208D01*
X132874317Y-72850089D01*
X132854551Y-73101237D01*
X125905449Y-73101237D01*
X125885683Y-72850089D01*
X125884032Y-72843208D01*
X125828028Y-72609938D01*
X125826873Y-72605126D01*
X125823617Y-72597266D01*
X125732361Y-72376952D01*
X125732359Y-72376948D01*
X125730466Y-72372378D01*
X125598836Y-72157578D01*
X125595624Y-72153818D01*
X125595621Y-72153813D01*
X125438437Y-71969775D01*
X125435224Y-71966013D01*
X125417052Y-71950493D01*
X125247424Y-71805616D01*
X125247419Y-71805613D01*
X125243659Y-71802401D01*
X125028859Y-71670771D01*
X125024289Y-71668878D01*
X125024285Y-71668876D01*
X124800684Y-71576258D01*
X124800682Y-71576257D01*
X124796111Y-71574364D01*
X124711711Y-71554102D01*
X124555961Y-71516709D01*
X124555955Y-71516708D01*
X124551148Y-71515554D01*
X124300000Y-71495788D01*
X124048852Y-71515554D01*
X124044045Y-71516708D01*
X124044039Y-71516709D01*
X123888289Y-71554102D01*
X123803889Y-71574364D01*
X123799318Y-71576257D01*
X123799316Y-71576258D01*
X123575715Y-71668876D01*
X123575711Y-71668878D01*
X123571141Y-71670771D01*
X123356341Y-71802401D01*
X123352581Y-71805613D01*
X123352576Y-71805616D01*
X123182948Y-71950493D01*
X123164776Y-71966013D01*
X123161563Y-71969775D01*
X123004379Y-72153813D01*
X123004376Y-72153818D01*
X123001164Y-72157578D01*
X122869534Y-72372378D01*
X122867641Y-72376948D01*
X122867639Y-72376952D01*
X122776383Y-72597266D01*
X122773127Y-72605126D01*
X122771972Y-72609938D01*
X122715969Y-72843208D01*
X122714317Y-72850089D01*
X122694551Y-73101237D01*
X120190352Y-73101237D01*
X120220466Y-73052096D01*
X120230992Y-73026686D01*
X120314979Y-72823921D01*
X120314980Y-72823919D01*
X120316873Y-72819348D01*
X120351843Y-72673687D01*
X120374528Y-72579198D01*
X120374529Y-72579192D01*
X120375683Y-72574385D01*
X120395449Y-72323237D01*
X120375683Y-72072089D01*
X120349919Y-71964771D01*
X120318028Y-71831938D01*
X120316873Y-71827126D01*
X120310073Y-71810709D01*
X120222361Y-71598952D01*
X120222359Y-71598948D01*
X120220466Y-71594378D01*
X120088836Y-71379578D01*
X120085624Y-71375818D01*
X120085621Y-71375813D01*
X119928437Y-71191775D01*
X119925224Y-71188013D01*
X119889498Y-71157500D01*
X119737424Y-71027616D01*
X119737419Y-71027613D01*
X119733659Y-71024401D01*
X119518859Y-70892771D01*
X119514289Y-70890878D01*
X119514285Y-70890876D01*
X119290684Y-70798258D01*
X119290682Y-70798257D01*
X119286111Y-70796364D01*
X119201711Y-70776102D01*
X119045961Y-70738709D01*
X119045955Y-70738708D01*
X119041148Y-70737554D01*
X118790000Y-70717788D01*
X118538852Y-70737554D01*
X118534045Y-70738708D01*
X118534039Y-70738709D01*
X118378289Y-70776102D01*
X118293889Y-70796364D01*
X118289318Y-70798257D01*
X118289316Y-70798258D01*
X118065715Y-70890876D01*
X118065711Y-70890878D01*
X118061141Y-70892771D01*
X117846341Y-71024401D01*
X117842581Y-71027613D01*
X117842576Y-71027616D01*
X117690502Y-71157500D01*
X117654776Y-71188013D01*
X117651563Y-71191775D01*
X117494379Y-71375813D01*
X117494376Y-71375818D01*
X117491164Y-71379578D01*
X117359534Y-71594378D01*
X117357641Y-71598948D01*
X117357639Y-71598952D01*
X117269927Y-71810709D01*
X117263127Y-71827126D01*
X117261972Y-71831938D01*
X117230082Y-71964771D01*
X117204317Y-72072089D01*
X117184551Y-72323237D01*
X115395449Y-72323237D01*
X115375683Y-72072089D01*
X115349919Y-71964771D01*
X115318028Y-71831938D01*
X115316873Y-71827126D01*
X115310073Y-71810709D01*
X115222361Y-71598952D01*
X115222359Y-71598948D01*
X115220466Y-71594378D01*
X115088836Y-71379578D01*
X115085624Y-71375818D01*
X115085621Y-71375813D01*
X114928437Y-71191775D01*
X114925224Y-71188013D01*
X114889498Y-71157500D01*
X114737424Y-71027616D01*
X114737419Y-71027613D01*
X114733659Y-71024401D01*
X114518859Y-70892771D01*
X114514289Y-70890878D01*
X114514285Y-70890876D01*
X114290684Y-70798258D01*
X114290682Y-70798257D01*
X114286111Y-70796364D01*
X114201711Y-70776102D01*
X114045961Y-70738709D01*
X114045955Y-70738708D01*
X114041148Y-70737554D01*
X113790000Y-70717788D01*
X113538852Y-70737554D01*
X113534045Y-70738708D01*
X113534039Y-70738709D01*
X113378289Y-70776102D01*
X113293889Y-70796364D01*
X113289318Y-70798257D01*
X113289316Y-70798258D01*
X113065715Y-70890876D01*
X113065711Y-70890878D01*
X113061141Y-70892771D01*
X113056921Y-70895357D01*
X112876248Y-71006074D01*
X112807715Y-71024612D01*
X112740038Y-71003156D01*
X112694705Y-70948517D01*
X112684801Y-70908527D01*
X112678071Y-70823023D01*
X112677683Y-70818089D01*
X112672468Y-70796364D01*
X112620028Y-70577938D01*
X112618873Y-70573126D01*
X112522466Y-70340378D01*
X112390836Y-70125578D01*
X112387624Y-70121818D01*
X112387621Y-70121813D01*
X112230437Y-69937775D01*
X112227224Y-69934013D01*
X112209052Y-69918493D01*
X112039424Y-69773616D01*
X112039419Y-69773613D01*
X112035659Y-69770401D01*
X111820859Y-69638771D01*
X111816289Y-69636878D01*
X111816285Y-69636876D01*
X111592684Y-69544258D01*
X111592682Y-69544257D01*
X111588111Y-69542364D01*
X111503711Y-69522102D01*
X111347961Y-69484709D01*
X111347955Y-69484708D01*
X111343148Y-69483554D01*
X111092000Y-69463788D01*
X110840852Y-69483554D01*
X110836045Y-69484708D01*
X110836039Y-69484709D01*
X110680289Y-69522102D01*
X110595889Y-69542364D01*
X110591318Y-69544257D01*
X110591316Y-69544258D01*
X110367715Y-69636876D01*
X110367711Y-69636878D01*
X110363141Y-69638771D01*
X110148341Y-69770401D01*
X110144581Y-69773613D01*
X110144576Y-69773616D01*
X109974948Y-69918493D01*
X109956776Y-69934013D01*
X109953563Y-69937775D01*
X109796379Y-70121813D01*
X109796376Y-70121818D01*
X109793164Y-70125578D01*
X109661534Y-70340378D01*
X109565127Y-70573126D01*
X109563972Y-70577938D01*
X109511533Y-70796364D01*
X109506317Y-70818089D01*
X109486551Y-71069237D01*
X109506317Y-71320385D01*
X109565127Y-71565348D01*
X109567020Y-71569919D01*
X109567021Y-71569921D01*
X109658093Y-71789788D01*
X109661534Y-71798096D01*
X109793164Y-72012896D01*
X109796376Y-72016656D01*
X109796379Y-72016661D01*
X109916734Y-72157578D01*
X109956776Y-72204461D01*
X109960538Y-72207674D01*
X110144576Y-72364858D01*
X110144581Y-72364861D01*
X110148341Y-72368073D01*
X110363141Y-72499703D01*
X110367711Y-72501596D01*
X110367715Y-72501598D01*
X110591316Y-72594216D01*
X110595889Y-72596110D01*
X110600704Y-72597266D01*
X110602586Y-72597718D01*
X110603227Y-72598086D01*
X110605412Y-72598796D01*
X110605263Y-72599255D01*
X110664156Y-72633070D01*
X110696839Y-72696096D01*
X110690259Y-72766787D01*
X110646505Y-72822699D01*
X110605352Y-72841493D01*
X110605412Y-72841678D01*
X110603798Y-72842202D01*
X110602586Y-72842756D01*
X110600704Y-72843208D01*
X110595889Y-72844364D01*
X110591318Y-72846257D01*
X110591316Y-72846258D01*
X110367715Y-72938876D01*
X110367711Y-72938878D01*
X110363141Y-72940771D01*
X110148341Y-73072401D01*
X110144581Y-73075613D01*
X110144576Y-73075616D01*
X110119216Y-73097276D01*
X109956776Y-73236013D01*
X109953563Y-73239775D01*
X109796379Y-73423813D01*
X109796376Y-73423818D01*
X109793164Y-73427578D01*
X109661534Y-73642378D01*
X109659641Y-73646948D01*
X109659639Y-73646952D01*
X109567021Y-73870553D01*
X109565127Y-73875126D01*
X109544865Y-73959526D01*
X109525382Y-74040679D01*
X109506317Y-74120089D01*
X109486551Y-74371237D01*
X109506317Y-74622385D01*
X109507471Y-74627192D01*
X109507472Y-74627198D01*
X109544865Y-74782948D01*
X109565127Y-74867348D01*
X109567020Y-74871919D01*
X109567021Y-74871921D01*
X109612331Y-74981308D01*
X109661534Y-75100096D01*
X109793164Y-75314896D01*
X109796376Y-75318656D01*
X109796379Y-75318661D01*
X109862185Y-75395709D01*
X109956776Y-75506461D01*
X109960538Y-75509674D01*
X110144576Y-75666858D01*
X110144581Y-75666861D01*
X110148341Y-75670073D01*
X110363141Y-75801703D01*
X110367711Y-75803596D01*
X110367715Y-75803598D01*
X110588885Y-75895209D01*
X110595889Y-75898110D01*
X110600704Y-75899266D01*
X110602586Y-75899718D01*
X110603227Y-75900086D01*
X110605412Y-75900796D01*
X110605263Y-75901255D01*
X110664156Y-75935070D01*
X110696839Y-75998096D01*
X110690259Y-76068787D01*
X110646505Y-76124699D01*
X110605352Y-76143493D01*
X110605412Y-76143678D01*
X110603798Y-76144202D01*
X110602586Y-76144756D01*
X110600704Y-76145208D01*
X110595889Y-76146364D01*
X110591318Y-76148257D01*
X110591316Y-76148258D01*
X110367715Y-76240876D01*
X110367711Y-76240878D01*
X110363141Y-76242771D01*
X110148341Y-76374401D01*
X110144581Y-76377613D01*
X110144576Y-76377616D01*
X110020257Y-76483795D01*
X109956776Y-76538013D01*
X109953563Y-76541775D01*
X109796379Y-76725813D01*
X109796376Y-76725818D01*
X109793164Y-76729578D01*
X109661534Y-76944378D01*
X109659641Y-76948948D01*
X109659639Y-76948952D01*
X109569207Y-77167276D01*
X109565127Y-77177126D01*
X109555914Y-77215502D01*
X109525368Y-77342737D01*
X109506317Y-77422089D01*
X109486551Y-77673237D01*
X102537449Y-77673237D01*
X102517683Y-77422089D01*
X102498633Y-77342737D01*
X102468086Y-77215502D01*
X102458873Y-77177126D01*
X102454793Y-77167276D01*
X102364361Y-76948952D01*
X102364359Y-76948948D01*
X102362466Y-76944378D01*
X102230836Y-76729578D01*
X102227624Y-76725818D01*
X102227621Y-76725813D01*
X102070437Y-76541775D01*
X102067224Y-76538013D01*
X102003743Y-76483795D01*
X101879424Y-76377616D01*
X101879419Y-76377613D01*
X101875659Y-76374401D01*
X101660859Y-76242771D01*
X101656289Y-76240878D01*
X101656285Y-76240876D01*
X101432684Y-76148258D01*
X101432682Y-76148257D01*
X101428111Y-76146364D01*
X101423296Y-76145208D01*
X101421414Y-76144756D01*
X101420773Y-76144388D01*
X101418588Y-76143678D01*
X101418737Y-76143219D01*
X101359844Y-76109404D01*
X101327161Y-76046378D01*
X101333741Y-75975687D01*
X101377495Y-75919775D01*
X101418648Y-75900981D01*
X101418588Y-75900796D01*
X101420202Y-75900272D01*
X101421414Y-75899718D01*
X101423296Y-75899266D01*
X101428111Y-75898110D01*
X101435115Y-75895209D01*
X101656285Y-75803598D01*
X101656289Y-75803596D01*
X101660859Y-75801703D01*
X101875659Y-75670073D01*
X101879419Y-75666861D01*
X101879424Y-75666858D01*
X102063462Y-75509674D01*
X102067224Y-75506461D01*
X102161815Y-75395709D01*
X102227621Y-75318661D01*
X102227624Y-75318656D01*
X102230836Y-75314896D01*
X102362466Y-75100096D01*
X102411670Y-74981308D01*
X102456979Y-74871921D01*
X102456980Y-74871919D01*
X102458873Y-74867348D01*
X102479135Y-74782948D01*
X102516528Y-74627198D01*
X102516529Y-74627192D01*
X102517683Y-74622385D01*
X102537449Y-74371237D01*
X102517683Y-74120089D01*
X102498619Y-74040679D01*
X102479135Y-73959526D01*
X102458873Y-73875126D01*
X102456979Y-73870553D01*
X102364361Y-73646952D01*
X102364359Y-73646948D01*
X102362466Y-73642378D01*
X102230836Y-73427578D01*
X102227624Y-73423818D01*
X102227621Y-73423813D01*
X102070437Y-73239775D01*
X102067224Y-73236013D01*
X101904784Y-73097276D01*
X101879424Y-73075616D01*
X101879419Y-73075613D01*
X101875659Y-73072401D01*
X101660859Y-72940771D01*
X101656289Y-72938878D01*
X101656285Y-72938876D01*
X101432684Y-72846258D01*
X101432682Y-72846257D01*
X101428111Y-72844364D01*
X101423296Y-72843208D01*
X101421414Y-72842756D01*
X101420773Y-72842388D01*
X101418588Y-72841678D01*
X101418737Y-72841219D01*
X101359844Y-72807404D01*
X101327161Y-72744378D01*
X101333741Y-72673687D01*
X101377495Y-72617775D01*
X101418648Y-72598981D01*
X101418588Y-72598796D01*
X101420202Y-72598272D01*
X101421414Y-72597718D01*
X101423296Y-72597266D01*
X101428111Y-72596110D01*
X101432684Y-72594216D01*
X101656285Y-72501598D01*
X101656289Y-72501596D01*
X101660859Y-72499703D01*
X101875659Y-72368073D01*
X101879419Y-72364861D01*
X101879424Y-72364858D01*
X102063462Y-72207674D01*
X102067224Y-72204461D01*
X102107266Y-72157578D01*
X102227621Y-72016661D01*
X102227624Y-72016656D01*
X102230836Y-72012896D01*
X102362466Y-71798096D01*
X102365908Y-71789788D01*
X102456979Y-71569921D01*
X102456980Y-71569919D01*
X102458873Y-71565348D01*
X102517683Y-71320385D01*
X102537449Y-71069237D01*
X102517683Y-70818089D01*
X102512468Y-70796364D01*
X102460028Y-70577938D01*
X102458873Y-70573126D01*
X102362466Y-70340378D01*
X102230836Y-70125578D01*
X102227624Y-70121818D01*
X102227621Y-70121813D01*
X102070437Y-69937775D01*
X102067224Y-69934013D01*
X102049052Y-69918493D01*
X101879424Y-69773616D01*
X101879419Y-69773613D01*
X101875659Y-69770401D01*
X101660859Y-69638771D01*
X101656289Y-69636878D01*
X101656285Y-69636876D01*
X101432684Y-69544258D01*
X101432682Y-69544257D01*
X101428111Y-69542364D01*
X101343711Y-69522102D01*
X101187961Y-69484709D01*
X101187955Y-69484708D01*
X101183148Y-69483554D01*
X100932000Y-69463788D01*
X100680852Y-69483554D01*
X100676045Y-69484708D01*
X100676039Y-69484709D01*
X100520289Y-69522102D01*
X100435889Y-69542364D01*
X100431318Y-69544257D01*
X100431316Y-69544258D01*
X100207715Y-69636876D01*
X100207711Y-69636878D01*
X100203141Y-69638771D01*
X99988341Y-69770401D01*
X99984581Y-69773613D01*
X99984576Y-69773616D01*
X99814948Y-69918493D01*
X99796776Y-69934013D01*
X99793563Y-69937775D01*
X99636379Y-70121813D01*
X99636376Y-70121818D01*
X99633164Y-70125578D01*
X99501534Y-70340378D01*
X99405127Y-70573126D01*
X99403972Y-70577938D01*
X99351533Y-70796364D01*
X99346317Y-70818089D01*
X99326551Y-71069237D01*
X99346317Y-71320385D01*
X99405127Y-71565348D01*
X99407020Y-71569919D01*
X99407021Y-71569921D01*
X99498093Y-71789788D01*
X99501534Y-71798096D01*
X99633164Y-72012896D01*
X99636376Y-72016656D01*
X99636379Y-72016661D01*
X99756734Y-72157578D01*
X99796776Y-72204461D01*
X99800538Y-72207674D01*
X99984576Y-72364858D01*
X99984581Y-72364861D01*
X99988341Y-72368073D01*
X100203141Y-72499703D01*
X100207711Y-72501596D01*
X100207715Y-72501598D01*
X100431316Y-72594216D01*
X100435889Y-72596110D01*
X100440704Y-72597266D01*
X100442586Y-72597718D01*
X100443227Y-72598086D01*
X100445412Y-72598796D01*
X100445263Y-72599255D01*
X100504156Y-72633070D01*
X100536839Y-72696096D01*
X100530259Y-72766787D01*
X100486505Y-72822699D01*
X100445352Y-72841493D01*
X100445412Y-72841678D01*
X100443798Y-72842202D01*
X100442586Y-72842756D01*
X100440704Y-72843208D01*
X100435889Y-72844364D01*
X100431318Y-72846257D01*
X100431316Y-72846258D01*
X100207715Y-72938876D01*
X100207711Y-72938878D01*
X100203141Y-72940771D01*
X99988341Y-73072401D01*
X99984581Y-73075613D01*
X99984576Y-73075616D01*
X99959216Y-73097276D01*
X99796776Y-73236013D01*
X99793563Y-73239775D01*
X99636379Y-73423813D01*
X99636376Y-73423818D01*
X99633164Y-73427578D01*
X99501534Y-73642378D01*
X99499641Y-73646948D01*
X99499639Y-73646952D01*
X99407021Y-73870553D01*
X99405127Y-73875126D01*
X99384865Y-73959526D01*
X99365382Y-74040679D01*
X99346317Y-74120089D01*
X99326551Y-74371237D01*
X99346317Y-74622385D01*
X99347471Y-74627192D01*
X99347472Y-74627198D01*
X99384865Y-74782948D01*
X99405127Y-74867348D01*
X99407020Y-74871919D01*
X99407021Y-74871921D01*
X99452331Y-74981308D01*
X99501534Y-75100096D01*
X99633164Y-75314896D01*
X99636376Y-75318656D01*
X99636379Y-75318661D01*
X99702185Y-75395709D01*
X99796776Y-75506461D01*
X99800538Y-75509674D01*
X99984576Y-75666858D01*
X99984581Y-75666861D01*
X99988341Y-75670073D01*
X100203141Y-75801703D01*
X100207711Y-75803596D01*
X100207715Y-75803598D01*
X100428885Y-75895209D01*
X100435889Y-75898110D01*
X100440704Y-75899266D01*
X100442586Y-75899718D01*
X100443227Y-75900086D01*
X100445412Y-75900796D01*
X100445263Y-75901255D01*
X100504156Y-75935070D01*
X100536839Y-75998096D01*
X100530259Y-76068787D01*
X100486505Y-76124699D01*
X100445352Y-76143493D01*
X100445412Y-76143678D01*
X100443798Y-76144202D01*
X100442586Y-76144756D01*
X100440704Y-76145208D01*
X100435889Y-76146364D01*
X100431318Y-76148257D01*
X100431316Y-76148258D01*
X100207715Y-76240876D01*
X100207711Y-76240878D01*
X100203141Y-76242771D01*
X99988341Y-76374401D01*
X99984581Y-76377613D01*
X99984576Y-76377616D01*
X99860257Y-76483795D01*
X99796776Y-76538013D01*
X99793563Y-76541775D01*
X99636379Y-76725813D01*
X99636376Y-76725818D01*
X99633164Y-76729578D01*
X99501534Y-76944378D01*
X99499641Y-76948948D01*
X99499639Y-76948952D01*
X99409207Y-77167276D01*
X99405127Y-77177126D01*
X99395914Y-77215502D01*
X99365368Y-77342737D01*
X99346317Y-77422089D01*
X99326551Y-77673237D01*
X98590000Y-77673237D01*
X98590000Y-68910332D01*
X139023001Y-68910332D01*
X139023338Y-68916851D01*
X139033257Y-69012443D01*
X139036149Y-69025837D01*
X139087588Y-69180021D01*
X139093761Y-69193199D01*
X139179063Y-69331044D01*
X139188099Y-69342445D01*
X139302829Y-69456976D01*
X139314240Y-69465988D01*
X139452243Y-69551053D01*
X139465424Y-69557200D01*
X139619710Y-69608375D01*
X139633086Y-69611242D01*
X139727438Y-69620909D01*
X139733854Y-69621237D01*
X140133885Y-69621237D01*
X140149124Y-69616762D01*
X140150329Y-69615372D01*
X140152000Y-69607689D01*
X140152000Y-69603121D01*
X140660000Y-69603121D01*
X140664475Y-69618360D01*
X140665865Y-69619565D01*
X140673548Y-69621236D01*
X141078095Y-69621236D01*
X141084614Y-69620899D01*
X141180206Y-69610980D01*
X141193600Y-69608088D01*
X141347784Y-69556649D01*
X141360962Y-69550476D01*
X141498807Y-69465174D01*
X141510208Y-69456138D01*
X141624739Y-69341408D01*
X141633751Y-69329997D01*
X141718816Y-69191994D01*
X141724963Y-69178813D01*
X141776138Y-69024527D01*
X141779005Y-69011151D01*
X141788672Y-68916799D01*
X141789000Y-68910383D01*
X141789000Y-68785352D01*
X141784525Y-68770113D01*
X141783135Y-68768908D01*
X141775452Y-68767237D01*
X140678115Y-68767237D01*
X140662876Y-68771712D01*
X140661671Y-68773102D01*
X140660000Y-68780785D01*
X140660000Y-69603121D01*
X140152000Y-69603121D01*
X140152000Y-68785352D01*
X140147525Y-68770113D01*
X140146135Y-68768908D01*
X140138452Y-68767237D01*
X139041116Y-68767237D01*
X139025877Y-68771712D01*
X139024672Y-68773102D01*
X139023001Y-68780785D01*
X139023001Y-68910332D01*
X98590000Y-68910332D01*
X98590000Y-67409759D01*
X100707273Y-67409759D01*
X100754764Y-67586998D01*
X100758510Y-67597290D01*
X100850586Y-67794748D01*
X100856069Y-67804244D01*
X100981028Y-67982704D01*
X100988084Y-67991112D01*
X101142125Y-68145153D01*
X101150533Y-68152209D01*
X101328993Y-68277168D01*
X101338489Y-68282651D01*
X101535947Y-68374727D01*
X101546239Y-68378473D01*
X101756688Y-68434862D01*
X101767481Y-68436765D01*
X101930170Y-68450999D01*
X101935635Y-68451237D01*
X102117885Y-68451237D01*
X102133124Y-68446762D01*
X102134329Y-68445372D01*
X102136000Y-68437689D01*
X102136000Y-68433122D01*
X102644000Y-68433122D01*
X102648475Y-68448361D01*
X102649865Y-68449566D01*
X102657548Y-68451237D01*
X102844365Y-68451237D01*
X102849830Y-68450999D01*
X103012519Y-68436765D01*
X103023312Y-68434862D01*
X103233761Y-68378473D01*
X103244053Y-68374727D01*
X103441511Y-68282651D01*
X103451007Y-68277168D01*
X103629467Y-68152209D01*
X103637875Y-68145153D01*
X103791916Y-67991112D01*
X103798972Y-67982704D01*
X103923931Y-67804244D01*
X103929414Y-67794748D01*
X104021490Y-67597290D01*
X104025236Y-67586998D01*
X104071394Y-67414734D01*
X104071275Y-67409759D01*
X108327273Y-67409759D01*
X108374764Y-67586998D01*
X108378510Y-67597290D01*
X108470586Y-67794748D01*
X108476069Y-67804244D01*
X108601028Y-67982704D01*
X108608084Y-67991112D01*
X108762125Y-68145153D01*
X108770533Y-68152209D01*
X108948993Y-68277168D01*
X108958489Y-68282651D01*
X109155947Y-68374727D01*
X109166239Y-68378473D01*
X109376688Y-68434862D01*
X109387481Y-68436765D01*
X109550170Y-68450999D01*
X109555635Y-68451237D01*
X109737885Y-68451237D01*
X109753124Y-68446762D01*
X109754329Y-68445372D01*
X109756000Y-68437689D01*
X109756000Y-68433122D01*
X110264000Y-68433122D01*
X110268475Y-68448361D01*
X110269865Y-68449566D01*
X110277548Y-68451237D01*
X110464365Y-68451237D01*
X110469830Y-68450999D01*
X110632519Y-68436765D01*
X110643312Y-68434862D01*
X110853761Y-68378473D01*
X110864053Y-68374727D01*
X111061511Y-68282651D01*
X111071007Y-68277168D01*
X111249467Y-68152209D01*
X111257875Y-68145153D01*
X111411916Y-67991112D01*
X111418972Y-67982704D01*
X111543931Y-67804244D01*
X111549414Y-67794748D01*
X111641490Y-67597290D01*
X111645236Y-67586998D01*
X111691394Y-67414734D01*
X111691058Y-67400638D01*
X111683116Y-67397237D01*
X110282115Y-67397237D01*
X110266876Y-67401712D01*
X110265671Y-67403102D01*
X110264000Y-67410785D01*
X110264000Y-68433122D01*
X109756000Y-68433122D01*
X109756000Y-67415352D01*
X109751525Y-67400113D01*
X109750135Y-67398908D01*
X109742452Y-67397237D01*
X108342033Y-67397237D01*
X108328502Y-67401210D01*
X108327273Y-67409759D01*
X104071275Y-67409759D01*
X104071058Y-67400638D01*
X104063116Y-67397237D01*
X102662115Y-67397237D01*
X102646876Y-67401712D01*
X102645671Y-67403102D01*
X102644000Y-67410785D01*
X102644000Y-68433122D01*
X102136000Y-68433122D01*
X102136000Y-67415352D01*
X102131525Y-67400113D01*
X102130135Y-67398908D01*
X102122452Y-67397237D01*
X100722033Y-67397237D01*
X100708502Y-67401210D01*
X100707273Y-67409759D01*
X98590000Y-67409759D01*
X98590000Y-67195332D01*
X118766001Y-67195332D01*
X118766338Y-67201851D01*
X118776257Y-67297443D01*
X118779149Y-67310837D01*
X118830588Y-67465021D01*
X118836761Y-67478199D01*
X118922063Y-67616044D01*
X118931099Y-67627445D01*
X119045829Y-67741976D01*
X119057240Y-67750988D01*
X119195243Y-67836053D01*
X119208424Y-67842200D01*
X119362710Y-67893375D01*
X119376086Y-67896242D01*
X119470438Y-67905909D01*
X119476854Y-67906237D01*
X119601885Y-67906237D01*
X119617124Y-67901762D01*
X119618329Y-67900372D01*
X119620000Y-67892689D01*
X119620000Y-67888121D01*
X120128000Y-67888121D01*
X120132475Y-67903360D01*
X120133865Y-67904565D01*
X120141548Y-67906236D01*
X120271095Y-67906236D01*
X120277614Y-67905899D01*
X120373206Y-67895980D01*
X120386600Y-67893088D01*
X120540784Y-67841649D01*
X120553962Y-67835476D01*
X120698035Y-67746320D01*
X120699076Y-67748002D01*
X120755634Y-67725113D01*
X120825397Y-67738286D01*
X120859253Y-67763525D01*
X120938960Y-67847080D01*
X120938965Y-67847085D01*
X120942645Y-67850942D01*
X121133330Y-67992816D01*
X121345193Y-68100532D01*
X121350284Y-68102113D01*
X121350287Y-68102114D01*
X121511620Y-68152209D01*
X121572176Y-68171012D01*
X121577465Y-68171713D01*
X121802506Y-68201541D01*
X121802509Y-68201541D01*
X121807789Y-68202241D01*
X121813118Y-68202041D01*
X121813119Y-68202041D01*
X121910159Y-68198398D01*
X122045295Y-68193324D01*
X122277904Y-68144518D01*
X122282863Y-68142560D01*
X122282865Y-68142559D01*
X122493998Y-68059178D01*
X122494000Y-68059177D01*
X122498963Y-68057217D01*
X122607901Y-67991112D01*
X122697593Y-67936685D01*
X122697592Y-67936685D01*
X122702153Y-67933918D01*
X122734442Y-67905899D01*
X122877631Y-67781647D01*
X122877633Y-67781645D01*
X122881664Y-67778147D01*
X122885047Y-67774021D01*
X122885051Y-67774017D01*
X123001822Y-67631603D01*
X123032362Y-67594357D01*
X123149939Y-67387804D01*
X123231034Y-67164393D01*
X123231983Y-67159145D01*
X123259814Y-67005237D01*
X124952551Y-67005237D01*
X124972317Y-67256385D01*
X124973471Y-67261192D01*
X124973472Y-67261198D01*
X125006823Y-67400113D01*
X125031127Y-67501348D01*
X125033020Y-67505919D01*
X125033021Y-67505921D01*
X125124489Y-67726744D01*
X125127534Y-67734096D01*
X125259164Y-67948896D01*
X125262376Y-67952656D01*
X125262379Y-67952661D01*
X125390549Y-68102728D01*
X125422776Y-68140461D01*
X125426538Y-68143674D01*
X125610576Y-68300858D01*
X125610581Y-68300861D01*
X125614341Y-68304073D01*
X125829141Y-68435703D01*
X125833711Y-68437596D01*
X125833715Y-68437598D01*
X126057316Y-68530216D01*
X126061889Y-68532110D01*
X126146289Y-68552372D01*
X126302039Y-68589765D01*
X126302045Y-68589766D01*
X126306852Y-68590920D01*
X126558000Y-68610686D01*
X126809148Y-68590920D01*
X126813955Y-68589766D01*
X126813961Y-68589765D01*
X126969711Y-68552372D01*
X127054111Y-68532110D01*
X127058684Y-68530216D01*
X127282285Y-68437598D01*
X127282289Y-68437596D01*
X127286859Y-68435703D01*
X127501659Y-68304073D01*
X127505419Y-68300861D01*
X127505424Y-68300858D01*
X127689462Y-68143674D01*
X127693224Y-68140461D01*
X127725451Y-68102728D01*
X127735212Y-68091299D01*
X130836493Y-68091299D01*
X130845789Y-68103314D01*
X130896994Y-68139168D01*
X130906489Y-68144651D01*
X131103947Y-68236727D01*
X131114239Y-68240473D01*
X131324688Y-68296862D01*
X131335481Y-68298765D01*
X131552525Y-68317754D01*
X131563475Y-68317754D01*
X131780519Y-68298765D01*
X131791312Y-68296862D01*
X132001761Y-68240473D01*
X132012053Y-68236727D01*
X132209511Y-68144651D01*
X132219006Y-68139168D01*
X132271048Y-68102728D01*
X132279424Y-68092249D01*
X132272356Y-68078803D01*
X131570812Y-67377259D01*
X131556868Y-67369645D01*
X131555035Y-67369776D01*
X131548420Y-67374027D01*
X130842923Y-68079524D01*
X130836493Y-68091299D01*
X127735212Y-68091299D01*
X127853621Y-67952661D01*
X127853624Y-67952656D01*
X127856836Y-67948896D01*
X127988466Y-67734096D01*
X127991512Y-67726744D01*
X128082979Y-67505921D01*
X128082980Y-67505919D01*
X128084873Y-67501348D01*
X128109177Y-67400113D01*
X128142528Y-67261198D01*
X128142529Y-67261192D01*
X128143683Y-67256385D01*
X128163018Y-67010712D01*
X130245483Y-67010712D01*
X130264472Y-67227756D01*
X130266375Y-67238549D01*
X130322764Y-67448998D01*
X130326510Y-67459290D01*
X130418586Y-67656748D01*
X130424069Y-67666243D01*
X130460509Y-67718285D01*
X130470988Y-67726661D01*
X130484434Y-67719593D01*
X131185978Y-67018049D01*
X131192356Y-67006369D01*
X131922408Y-67006369D01*
X131922539Y-67008202D01*
X131926790Y-67014817D01*
X132632287Y-67720314D01*
X132644062Y-67726744D01*
X132656077Y-67717448D01*
X132691931Y-67666243D01*
X132697414Y-67656748D01*
X132789490Y-67459290D01*
X132793236Y-67448998D01*
X132849625Y-67238549D01*
X132851528Y-67227756D01*
X132870517Y-67010712D01*
X132870517Y-66999762D01*
X132851528Y-66782718D01*
X132849625Y-66771925D01*
X132793236Y-66561476D01*
X132789490Y-66551184D01*
X132740920Y-66447026D01*
X138726996Y-66447026D01*
X138727196Y-66452355D01*
X138727196Y-66452356D01*
X138729508Y-66513938D01*
X138735913Y-66684532D01*
X138784719Y-66917141D01*
X138786677Y-66922100D01*
X138786678Y-66922102D01*
X138835925Y-67046801D01*
X138872020Y-67138200D01*
X138874787Y-67142759D01*
X138874788Y-67142762D01*
X138942233Y-67253907D01*
X138995319Y-67341390D01*
X138998816Y-67345420D01*
X139059500Y-67415352D01*
X139151090Y-67520901D01*
X139155221Y-67524288D01*
X139156072Y-67524986D01*
X139156335Y-67525371D01*
X139159041Y-67528003D01*
X139158505Y-67528554D01*
X139196067Y-67583646D01*
X139197998Y-67654616D01*
X139180637Y-67689350D01*
X139182090Y-67690246D01*
X139093184Y-67834480D01*
X139087037Y-67847661D01*
X139035862Y-68001947D01*
X139032995Y-68015323D01*
X139023328Y-68109675D01*
X139023000Y-68116092D01*
X139023000Y-68241122D01*
X139027475Y-68256361D01*
X139028865Y-68257566D01*
X139036548Y-68259237D01*
X141770884Y-68259237D01*
X141786123Y-68254762D01*
X141787328Y-68253372D01*
X141788999Y-68245689D01*
X141788999Y-68116142D01*
X141788662Y-68109623D01*
X141778743Y-68014031D01*
X141775851Y-68000637D01*
X141724412Y-67846453D01*
X141718239Y-67833275D01*
X141629083Y-67689202D01*
X141630765Y-67688161D01*
X141607876Y-67631603D01*
X141621049Y-67561840D01*
X141646288Y-67527984D01*
X141729843Y-67448277D01*
X141729848Y-67448272D01*
X141733705Y-67444592D01*
X141875579Y-67253907D01*
X141983295Y-67042044D01*
X141994373Y-67006369D01*
X142052193Y-66820156D01*
X142053775Y-66815061D01*
X142059492Y-66771925D01*
X142084304Y-66584731D01*
X142084304Y-66584728D01*
X142085004Y-66579448D01*
X142082545Y-66513938D01*
X142076287Y-66347273D01*
X142076087Y-66341942D01*
X142027281Y-66109333D01*
X141987761Y-66009262D01*
X141941941Y-65893239D01*
X141941940Y-65893237D01*
X141939980Y-65888274D01*
X141926357Y-65865823D01*
X141831567Y-65709616D01*
X141816681Y-65685084D01*
X141720957Y-65574771D01*
X141664410Y-65509606D01*
X141664408Y-65509604D01*
X141660910Y-65505573D01*
X141656784Y-65502190D01*
X141656780Y-65502186D01*
X141531896Y-65399788D01*
X141477120Y-65354875D01*
X141472484Y-65352236D01*
X141472481Y-65352234D01*
X141301222Y-65254748D01*
X141270567Y-65237298D01*
X141047156Y-65156203D01*
X141031578Y-65153386D01*
X140817359Y-65114649D01*
X140817352Y-65114648D01*
X140813275Y-65113911D01*
X140795009Y-65113050D01*
X140789869Y-65112807D01*
X140789862Y-65112807D01*
X140788381Y-65112737D01*
X140071320Y-65112737D01*
X139988974Y-65119724D01*
X139899488Y-65127317D01*
X139899484Y-65127318D01*
X139894177Y-65127768D01*
X139889022Y-65129106D01*
X139889016Y-65129107D01*
X139709444Y-65175715D01*
X139664126Y-65187477D01*
X139626838Y-65204274D01*
X139452285Y-65282904D01*
X139452282Y-65282905D01*
X139447424Y-65285094D01*
X139250268Y-65417828D01*
X139078295Y-65581882D01*
X138936421Y-65772567D01*
X138828705Y-65984430D01*
X138827124Y-65989521D01*
X138827123Y-65989524D01*
X138779989Y-66141321D01*
X138758225Y-66211413D01*
X138726996Y-66447026D01*
X132740920Y-66447026D01*
X132697414Y-66353726D01*
X132691931Y-66344231D01*
X132655491Y-66292189D01*
X132645012Y-66283813D01*
X132631566Y-66290881D01*
X131930022Y-66992425D01*
X131922408Y-67006369D01*
X131192356Y-67006369D01*
X131193592Y-67004105D01*
X131193461Y-67002272D01*
X131189210Y-66995657D01*
X130483713Y-66290160D01*
X130471938Y-66283730D01*
X130459923Y-66293026D01*
X130424069Y-66344231D01*
X130418586Y-66353726D01*
X130326510Y-66551184D01*
X130322764Y-66561476D01*
X130266375Y-66771925D01*
X130264472Y-66782718D01*
X130245483Y-66999762D01*
X130245483Y-67010712D01*
X128163018Y-67010712D01*
X128163449Y-67005237D01*
X128143683Y-66754089D01*
X128116461Y-66640698D01*
X128086028Y-66513938D01*
X128084873Y-66509126D01*
X128077666Y-66491726D01*
X127990361Y-66280952D01*
X127990359Y-66280948D01*
X127988466Y-66276378D01*
X127856836Y-66061578D01*
X127853624Y-66057818D01*
X127853621Y-66057813D01*
X127734401Y-65918225D01*
X130836576Y-65918225D01*
X130843644Y-65931671D01*
X131545188Y-66633215D01*
X131559132Y-66640829D01*
X131560965Y-66640698D01*
X131567580Y-66636447D01*
X132273077Y-65930950D01*
X132279507Y-65919175D01*
X132270211Y-65907160D01*
X132219006Y-65871306D01*
X132209511Y-65865823D01*
X132012053Y-65773747D01*
X132001761Y-65770001D01*
X131791312Y-65713612D01*
X131780519Y-65711709D01*
X131563475Y-65692720D01*
X131552525Y-65692720D01*
X131335481Y-65711709D01*
X131324688Y-65713612D01*
X131114239Y-65770001D01*
X131103947Y-65773747D01*
X130906489Y-65865823D01*
X130896994Y-65871306D01*
X130844952Y-65907746D01*
X130836576Y-65918225D01*
X127734401Y-65918225D01*
X127696437Y-65873775D01*
X127693224Y-65870013D01*
X127663557Y-65844675D01*
X127505424Y-65709616D01*
X127505419Y-65709613D01*
X127501659Y-65706401D01*
X127298463Y-65581882D01*
X127291079Y-65577357D01*
X127286859Y-65574771D01*
X127282289Y-65572878D01*
X127282285Y-65572876D01*
X127058684Y-65480258D01*
X127058682Y-65480257D01*
X127054111Y-65478364D01*
X126944784Y-65452117D01*
X126813961Y-65420709D01*
X126813955Y-65420708D01*
X126809148Y-65419554D01*
X126558000Y-65399788D01*
X126306852Y-65419554D01*
X126302045Y-65420708D01*
X126302039Y-65420709D01*
X126171216Y-65452117D01*
X126061889Y-65478364D01*
X126057318Y-65480257D01*
X126057316Y-65480258D01*
X125833715Y-65572876D01*
X125833711Y-65572878D01*
X125829141Y-65574771D01*
X125824921Y-65577357D01*
X125817537Y-65581882D01*
X125614341Y-65706401D01*
X125610581Y-65709613D01*
X125610576Y-65709616D01*
X125452443Y-65844675D01*
X125422776Y-65870013D01*
X125419563Y-65873775D01*
X125262379Y-66057813D01*
X125262376Y-66057818D01*
X125259164Y-66061578D01*
X125127534Y-66276378D01*
X125125641Y-66280948D01*
X125125639Y-66280952D01*
X125038334Y-66491726D01*
X125031127Y-66509126D01*
X125029972Y-66513938D01*
X124999540Y-66640698D01*
X124972317Y-66754089D01*
X124952551Y-67005237D01*
X123259814Y-67005237D01*
X123272588Y-66934596D01*
X123272589Y-66934589D01*
X123273326Y-66930512D01*
X123274500Y-66905618D01*
X123274500Y-66188557D01*
X123264317Y-66068550D01*
X123259920Y-66016725D01*
X123259919Y-66016721D01*
X123259469Y-66011414D01*
X123258131Y-66006259D01*
X123258130Y-66006253D01*
X123206144Y-65805959D01*
X123199760Y-65781363D01*
X123111828Y-65586160D01*
X123104333Y-65569522D01*
X123104332Y-65569519D01*
X123102143Y-65564661D01*
X122969409Y-65367505D01*
X122902651Y-65297524D01*
X122879801Y-65273572D01*
X122805355Y-65195532D01*
X122614670Y-65053658D01*
X122402807Y-64945942D01*
X122397716Y-64944361D01*
X122397713Y-64944360D01*
X122180919Y-64877044D01*
X122175824Y-64875462D01*
X122072085Y-64861712D01*
X121945494Y-64844933D01*
X121945491Y-64844933D01*
X121940211Y-64844233D01*
X121934882Y-64844433D01*
X121934881Y-64844433D01*
X121837841Y-64848076D01*
X121702705Y-64853150D01*
X121470096Y-64901956D01*
X121465137Y-64903914D01*
X121465135Y-64903915D01*
X121254002Y-64987296D01*
X121254000Y-64987297D01*
X121249037Y-64989257D01*
X121045847Y-65112556D01*
X121041817Y-65116053D01*
X120904188Y-65235481D01*
X120866336Y-65268327D01*
X120862949Y-65272458D01*
X120862251Y-65273309D01*
X120861866Y-65273572D01*
X120859234Y-65276278D01*
X120858683Y-65275742D01*
X120803591Y-65313304D01*
X120732621Y-65315235D01*
X120697887Y-65297874D01*
X120696991Y-65299327D01*
X120552757Y-65210421D01*
X120539576Y-65204274D01*
X120385290Y-65153099D01*
X120371914Y-65150232D01*
X120277562Y-65140565D01*
X120271145Y-65140237D01*
X120146115Y-65140237D01*
X120130876Y-65144712D01*
X120129671Y-65146102D01*
X120128000Y-65153785D01*
X120128000Y-67888121D01*
X119620000Y-67888121D01*
X119620000Y-66795352D01*
X119615525Y-66780113D01*
X119614135Y-66778908D01*
X119606452Y-66777237D01*
X118784116Y-66777237D01*
X118768877Y-66781712D01*
X118767672Y-66783102D01*
X118766001Y-66790785D01*
X118766001Y-67195332D01*
X98590000Y-67195332D01*
X98590000Y-64603237D01*
X100384551Y-64603237D01*
X100404317Y-64854385D01*
X100405471Y-64859192D01*
X100405472Y-64859198D01*
X100416208Y-64903915D01*
X100463127Y-65099348D01*
X100465020Y-65103919D01*
X100465021Y-65103921D01*
X100550485Y-65310249D01*
X100559534Y-65332096D01*
X100691164Y-65546896D01*
X100694376Y-65550656D01*
X100694379Y-65550661D01*
X100786628Y-65658670D01*
X100854776Y-65738461D01*
X100858538Y-65741674D01*
X101042576Y-65898858D01*
X101042581Y-65898861D01*
X101046341Y-65902073D01*
X101050563Y-65904660D01*
X101050564Y-65904661D01*
X101117796Y-65945861D01*
X101165428Y-65998509D01*
X101177035Y-66068550D01*
X101148932Y-66133748D01*
X101141057Y-66142389D01*
X100988084Y-66295362D01*
X100981028Y-66303770D01*
X100856069Y-66482230D01*
X100850586Y-66491726D01*
X100758510Y-66689184D01*
X100754764Y-66699476D01*
X100708606Y-66871740D01*
X100708942Y-66885836D01*
X100716884Y-66889237D01*
X104057967Y-66889237D01*
X104071498Y-66885264D01*
X104072727Y-66876715D01*
X104025236Y-66699476D01*
X104021490Y-66689184D01*
X103929414Y-66491726D01*
X103923931Y-66482230D01*
X103798972Y-66303770D01*
X103791916Y-66295362D01*
X103638943Y-66142389D01*
X103604917Y-66080077D01*
X103609982Y-66009262D01*
X103652529Y-65952426D01*
X103662204Y-65945861D01*
X103729436Y-65904661D01*
X103729437Y-65904660D01*
X103733659Y-65902073D01*
X103737419Y-65898861D01*
X103737424Y-65898858D01*
X103921462Y-65741674D01*
X103925224Y-65738461D01*
X103993372Y-65658670D01*
X104085621Y-65550661D01*
X104085624Y-65550656D01*
X104088836Y-65546896D01*
X104220466Y-65332096D01*
X104229516Y-65310249D01*
X104314979Y-65103921D01*
X104314980Y-65103919D01*
X104316873Y-65099348D01*
X104363792Y-64903915D01*
X104371992Y-64869759D01*
X108327273Y-64869759D01*
X108374764Y-65046998D01*
X108378510Y-65057290D01*
X108470586Y-65254748D01*
X108476069Y-65264244D01*
X108601028Y-65442704D01*
X108608084Y-65451112D01*
X108762125Y-65605153D01*
X108770533Y-65612209D01*
X108948993Y-65737168D01*
X108958489Y-65742651D01*
X108993641Y-65759042D01*
X109046926Y-65805959D01*
X109066387Y-65874236D01*
X109045845Y-65942196D01*
X108993641Y-65987432D01*
X108958489Y-66003823D01*
X108948993Y-66009306D01*
X108770533Y-66134265D01*
X108762125Y-66141321D01*
X108608084Y-66295362D01*
X108601028Y-66303770D01*
X108476069Y-66482230D01*
X108470586Y-66491726D01*
X108378510Y-66689184D01*
X108374764Y-66699476D01*
X108328606Y-66871740D01*
X108328942Y-66885836D01*
X108336884Y-66889237D01*
X109737885Y-66889237D01*
X109753124Y-66884762D01*
X109754329Y-66883372D01*
X109756000Y-66875689D01*
X109756000Y-66871122D01*
X110264000Y-66871122D01*
X110268475Y-66886361D01*
X110269865Y-66887566D01*
X110277548Y-66889237D01*
X111677967Y-66889237D01*
X111691498Y-66885264D01*
X111692727Y-66876715D01*
X111645236Y-66699476D01*
X111641490Y-66689184D01*
X111549414Y-66491726D01*
X111543931Y-66482230D01*
X111418972Y-66303770D01*
X111411916Y-66295362D01*
X111367676Y-66251122D01*
X118766000Y-66251122D01*
X118770475Y-66266361D01*
X118771865Y-66267566D01*
X118779548Y-66269237D01*
X119601885Y-66269237D01*
X119617124Y-66264762D01*
X119618329Y-66263372D01*
X119620000Y-66255689D01*
X119620000Y-65158353D01*
X119615525Y-65143114D01*
X119614135Y-65141909D01*
X119606452Y-65140238D01*
X119476905Y-65140238D01*
X119470386Y-65140575D01*
X119374794Y-65150494D01*
X119361400Y-65153386D01*
X119207216Y-65204825D01*
X119194038Y-65210998D01*
X119056193Y-65296300D01*
X119044792Y-65305336D01*
X118930261Y-65420066D01*
X118921249Y-65431477D01*
X118836184Y-65569480D01*
X118830037Y-65582661D01*
X118778862Y-65736947D01*
X118775995Y-65750323D01*
X118766328Y-65844675D01*
X118766000Y-65851092D01*
X118766000Y-66251122D01*
X111367676Y-66251122D01*
X111257875Y-66141321D01*
X111249467Y-66134265D01*
X111071007Y-66009306D01*
X111061511Y-66003823D01*
X111026359Y-65987432D01*
X110973074Y-65940515D01*
X110953613Y-65872238D01*
X110974155Y-65804278D01*
X111026359Y-65759042D01*
X111061511Y-65742651D01*
X111071007Y-65737168D01*
X111249467Y-65612209D01*
X111257875Y-65605153D01*
X111411916Y-65451112D01*
X111418972Y-65442704D01*
X111512383Y-65309299D01*
X113568493Y-65309299D01*
X113577789Y-65321314D01*
X113628994Y-65357168D01*
X113638489Y-65362651D01*
X113835947Y-65454727D01*
X113846239Y-65458473D01*
X114056688Y-65514862D01*
X114067481Y-65516765D01*
X114284525Y-65535754D01*
X114295475Y-65535754D01*
X114512519Y-65516765D01*
X114523312Y-65514862D01*
X114733761Y-65458473D01*
X114744053Y-65454727D01*
X114941511Y-65362651D01*
X114951006Y-65357168D01*
X115003048Y-65320728D01*
X115011424Y-65310249D01*
X115004356Y-65296803D01*
X114302812Y-64595259D01*
X114288868Y-64587645D01*
X114287035Y-64587776D01*
X114280420Y-64592027D01*
X113574923Y-65297524D01*
X113568493Y-65309299D01*
X111512383Y-65309299D01*
X111543931Y-65264244D01*
X111549414Y-65254748D01*
X111641490Y-65057290D01*
X111645236Y-65046998D01*
X111691394Y-64874734D01*
X111691058Y-64860638D01*
X111683116Y-64857237D01*
X110282115Y-64857237D01*
X110266876Y-64861712D01*
X110265671Y-64863102D01*
X110264000Y-64870785D01*
X110264000Y-66871122D01*
X109756000Y-66871122D01*
X109756000Y-64875352D01*
X109751525Y-64860113D01*
X109750135Y-64858908D01*
X109742452Y-64857237D01*
X108342033Y-64857237D01*
X108328502Y-64861210D01*
X108327273Y-64869759D01*
X104371992Y-64869759D01*
X104374528Y-64859198D01*
X104374529Y-64859192D01*
X104375683Y-64854385D01*
X104395449Y-64603237D01*
X104375683Y-64352089D01*
X104374045Y-64345264D01*
X104318028Y-64111938D01*
X104316873Y-64107126D01*
X104268327Y-63989925D01*
X104222361Y-63878952D01*
X104222359Y-63878948D01*
X104220466Y-63874378D01*
X104088836Y-63659578D01*
X104085624Y-63655818D01*
X104085621Y-63655813D01*
X103928442Y-63471780D01*
X103928437Y-63471775D01*
X103925224Y-63468013D01*
X103916188Y-63460295D01*
X103879602Y-63429048D01*
X103840793Y-63369597D01*
X103840287Y-63298603D01*
X103879602Y-63237426D01*
X103921460Y-63201676D01*
X103921462Y-63201674D01*
X103925224Y-63198461D01*
X103928437Y-63194699D01*
X103928442Y-63194694D01*
X104085621Y-63010661D01*
X104085624Y-63010656D01*
X104088836Y-63006896D01*
X104220466Y-62792096D01*
X104232969Y-62761913D01*
X104314979Y-62563921D01*
X104314980Y-62563919D01*
X104316873Y-62559348D01*
X104350028Y-62421248D01*
X104374528Y-62319198D01*
X104374529Y-62319192D01*
X104375683Y-62314385D01*
X104395449Y-62063237D01*
X108004551Y-62063237D01*
X108024317Y-62314385D01*
X108025471Y-62319192D01*
X108025472Y-62319198D01*
X108049972Y-62421248D01*
X108083127Y-62559348D01*
X108085020Y-62563919D01*
X108085021Y-62563921D01*
X108167032Y-62761913D01*
X108179534Y-62792096D01*
X108311164Y-63006896D01*
X108314376Y-63010656D01*
X108314379Y-63010661D01*
X108433105Y-63149671D01*
X108474776Y-63198461D01*
X108478538Y-63201674D01*
X108662576Y-63358858D01*
X108662581Y-63358861D01*
X108666341Y-63362073D01*
X108670563Y-63364660D01*
X108670564Y-63364661D01*
X108737796Y-63405861D01*
X108785428Y-63458509D01*
X108797035Y-63528550D01*
X108768932Y-63593748D01*
X108761057Y-63602389D01*
X108608084Y-63755362D01*
X108601028Y-63763770D01*
X108476069Y-63942230D01*
X108470586Y-63951726D01*
X108378510Y-64149184D01*
X108374764Y-64159476D01*
X108328606Y-64331740D01*
X108328942Y-64345836D01*
X108336884Y-64349237D01*
X111677967Y-64349237D01*
X111691498Y-64345264D01*
X111692727Y-64336715D01*
X111663788Y-64228712D01*
X112977483Y-64228712D01*
X112996472Y-64445756D01*
X112998375Y-64456549D01*
X113054764Y-64666998D01*
X113058510Y-64677290D01*
X113150586Y-64874748D01*
X113156069Y-64884243D01*
X113192509Y-64936285D01*
X113202988Y-64944661D01*
X113216434Y-64937593D01*
X113917978Y-64236049D01*
X113924356Y-64224369D01*
X114654408Y-64224369D01*
X114654539Y-64226202D01*
X114658790Y-64232817D01*
X115364287Y-64938314D01*
X115376062Y-64944744D01*
X115388077Y-64935448D01*
X115423931Y-64884243D01*
X115429414Y-64874748D01*
X115521490Y-64677290D01*
X115525236Y-64666998D01*
X115581625Y-64456549D01*
X115583528Y-64445756D01*
X115602517Y-64228712D01*
X115602517Y-64217762D01*
X115583528Y-64000718D01*
X115581625Y-63989925D01*
X115525236Y-63779476D01*
X115521490Y-63769184D01*
X115429414Y-63571726D01*
X115423931Y-63562231D01*
X115387491Y-63510189D01*
X115377012Y-63501813D01*
X115363566Y-63508881D01*
X114662022Y-64210425D01*
X114654408Y-64224369D01*
X113924356Y-64224369D01*
X113925592Y-64222105D01*
X113925461Y-64220272D01*
X113921210Y-64213657D01*
X113215713Y-63508160D01*
X113203938Y-63501730D01*
X113191923Y-63511026D01*
X113156069Y-63562231D01*
X113150586Y-63571726D01*
X113058510Y-63769184D01*
X113054764Y-63779476D01*
X112998375Y-63989925D01*
X112996472Y-64000718D01*
X112977483Y-64217762D01*
X112977483Y-64228712D01*
X111663788Y-64228712D01*
X111645236Y-64159476D01*
X111641490Y-64149184D01*
X111549414Y-63951726D01*
X111543931Y-63942230D01*
X111418972Y-63763770D01*
X111411916Y-63755362D01*
X111258943Y-63602389D01*
X111224917Y-63540077D01*
X111229982Y-63469262D01*
X111272529Y-63412426D01*
X111282204Y-63405861D01*
X111349436Y-63364661D01*
X111349437Y-63364660D01*
X111353659Y-63362073D01*
X111357419Y-63358861D01*
X111357424Y-63358858D01*
X111541462Y-63201674D01*
X111545224Y-63198461D01*
X111586895Y-63149671D01*
X111598379Y-63136225D01*
X113568576Y-63136225D01*
X113575644Y-63149671D01*
X114277188Y-63851215D01*
X114291132Y-63858829D01*
X114292965Y-63858698D01*
X114299580Y-63854447D01*
X115005077Y-63148950D01*
X115011507Y-63137175D01*
X115002211Y-63125160D01*
X114951006Y-63089306D01*
X114941511Y-63083823D01*
X114744053Y-62991747D01*
X114733761Y-62988001D01*
X114523312Y-62931612D01*
X114512519Y-62929709D01*
X114295475Y-62910720D01*
X114284525Y-62910720D01*
X114067481Y-62929709D01*
X114056688Y-62931612D01*
X113846239Y-62988001D01*
X113835947Y-62991747D01*
X113638489Y-63083823D01*
X113628994Y-63089306D01*
X113576952Y-63125746D01*
X113568576Y-63136225D01*
X111598379Y-63136225D01*
X111705621Y-63010661D01*
X111705624Y-63010656D01*
X111708836Y-63006896D01*
X111840466Y-62792096D01*
X111852969Y-62761913D01*
X111934979Y-62563921D01*
X111934980Y-62563919D01*
X111936873Y-62559348D01*
X111970028Y-62421248D01*
X111994528Y-62319198D01*
X111994529Y-62319192D01*
X111995683Y-62314385D01*
X112015449Y-62063237D01*
X111995683Y-61812089D01*
X111936873Y-61567126D01*
X111908950Y-61499713D01*
X111842361Y-61338952D01*
X111842359Y-61338948D01*
X111840466Y-61334378D01*
X111708836Y-61119578D01*
X111705624Y-61115818D01*
X111705621Y-61115813D01*
X111548442Y-60931780D01*
X111548437Y-60931775D01*
X111545224Y-60928013D01*
X111499602Y-60889048D01*
X111460793Y-60829597D01*
X111460287Y-60758603D01*
X111499602Y-60697426D01*
X111541460Y-60661676D01*
X111541462Y-60661674D01*
X111545224Y-60658461D01*
X111548437Y-60654699D01*
X111548442Y-60654694D01*
X111705621Y-60470661D01*
X111705624Y-60470656D01*
X111708836Y-60466896D01*
X111834693Y-60261517D01*
X111837880Y-60256316D01*
X111840466Y-60252096D01*
X111845820Y-60239172D01*
X111934979Y-60023921D01*
X111934980Y-60023919D01*
X111936873Y-60019348D01*
X111984517Y-59820896D01*
X111994528Y-59779198D01*
X111994529Y-59779192D01*
X111995683Y-59774385D01*
X112015449Y-59523237D01*
X111995683Y-59272089D01*
X111986845Y-59235273D01*
X111983955Y-59223237D01*
X112684551Y-59223237D01*
X112704317Y-59474385D01*
X112705471Y-59479192D01*
X112705472Y-59479198D01*
X112739009Y-59618890D01*
X112763127Y-59719348D01*
X112765020Y-59723919D01*
X112765021Y-59723921D01*
X112850400Y-59930044D01*
X112859534Y-59952096D01*
X112862120Y-59956316D01*
X112869933Y-59969066D01*
X112991164Y-60166896D01*
X112994376Y-60170656D01*
X112994379Y-60170661D01*
X113113043Y-60309598D01*
X113154776Y-60358461D01*
X113158538Y-60361674D01*
X113342576Y-60518858D01*
X113342581Y-60518861D01*
X113346341Y-60522073D01*
X113561141Y-60653703D01*
X113565711Y-60655596D01*
X113565715Y-60655598D01*
X113784350Y-60746159D01*
X113793889Y-60750110D01*
X113878289Y-60770372D01*
X114034039Y-60807765D01*
X114034045Y-60807766D01*
X114038852Y-60808920D01*
X114290000Y-60828686D01*
X114541148Y-60808920D01*
X114545955Y-60807766D01*
X114545961Y-60807765D01*
X114701711Y-60770372D01*
X114786111Y-60750110D01*
X114795650Y-60746159D01*
X115014285Y-60655598D01*
X115014289Y-60655596D01*
X115018859Y-60653703D01*
X115231605Y-60523332D01*
X118782001Y-60523332D01*
X118782338Y-60529851D01*
X118792257Y-60625443D01*
X118795149Y-60638837D01*
X118846588Y-60793021D01*
X118852761Y-60806199D01*
X118938063Y-60944044D01*
X118947099Y-60955445D01*
X119061829Y-61069976D01*
X119073240Y-61078988D01*
X119211243Y-61164053D01*
X119224424Y-61170200D01*
X119378710Y-61221375D01*
X119392086Y-61224242D01*
X119486438Y-61233909D01*
X119492854Y-61234237D01*
X119617885Y-61234237D01*
X119633124Y-61229762D01*
X119634329Y-61228372D01*
X119636000Y-61220689D01*
X119636000Y-61216121D01*
X120144000Y-61216121D01*
X120148475Y-61231360D01*
X120149865Y-61232565D01*
X120157548Y-61234236D01*
X120287095Y-61234236D01*
X120293614Y-61233899D01*
X120389206Y-61223980D01*
X120402600Y-61221088D01*
X120556784Y-61169649D01*
X120569962Y-61163476D01*
X120714035Y-61074320D01*
X120715076Y-61076002D01*
X120771634Y-61053113D01*
X120841397Y-61066286D01*
X120875253Y-61091525D01*
X120954960Y-61175080D01*
X120954965Y-61175085D01*
X120958645Y-61178942D01*
X121149330Y-61320816D01*
X121361193Y-61428532D01*
X121366284Y-61430113D01*
X121366287Y-61430114D01*
X121583081Y-61497430D01*
X121588176Y-61499012D01*
X121593465Y-61499713D01*
X121818506Y-61529541D01*
X121818509Y-61529541D01*
X121823789Y-61530241D01*
X121829118Y-61530041D01*
X121829119Y-61530041D01*
X121926159Y-61526398D01*
X122061295Y-61521324D01*
X122293904Y-61472518D01*
X122298863Y-61470560D01*
X122298865Y-61470559D01*
X122509998Y-61387178D01*
X122510000Y-61387177D01*
X122514963Y-61385217D01*
X122718153Y-61261918D01*
X122750442Y-61233899D01*
X122893631Y-61109647D01*
X122893633Y-61109645D01*
X122897664Y-61106147D01*
X122901047Y-61102021D01*
X122901051Y-61102017D01*
X123020518Y-60956315D01*
X123048362Y-60922357D01*
X123062376Y-60897739D01*
X123115038Y-60805224D01*
X123165939Y-60715804D01*
X123247034Y-60492393D01*
X123255018Y-60448241D01*
X123288588Y-60262596D01*
X123288589Y-60262589D01*
X123289326Y-60258512D01*
X123290500Y-60233618D01*
X123290500Y-59516557D01*
X123283513Y-59434211D01*
X123275920Y-59344725D01*
X123275919Y-59344721D01*
X123275469Y-59339414D01*
X123274131Y-59334259D01*
X123274130Y-59334253D01*
X123226431Y-59150477D01*
X123215760Y-59109363D01*
X123165294Y-58997333D01*
X123120333Y-58897522D01*
X123120332Y-58897519D01*
X123118143Y-58892661D01*
X123107759Y-58877237D01*
X124872551Y-58877237D01*
X124892317Y-59128385D01*
X124893471Y-59133192D01*
X124893472Y-59133198D01*
X124926817Y-59272089D01*
X124951127Y-59373348D01*
X124953020Y-59377919D01*
X124953021Y-59377921D01*
X125044439Y-59598623D01*
X125047534Y-59606096D01*
X125179164Y-59820896D01*
X125182376Y-59824656D01*
X125182379Y-59824661D01*
X125298247Y-59960324D01*
X125342776Y-60012461D01*
X125350738Y-60019261D01*
X125530576Y-60172858D01*
X125530581Y-60172861D01*
X125534341Y-60176073D01*
X125749141Y-60307703D01*
X125753711Y-60309596D01*
X125753715Y-60309598D01*
X125818250Y-60336329D01*
X125873531Y-60380877D01*
X125895952Y-60448241D01*
X125878394Y-60517032D01*
X125826432Y-60565410D01*
X125770032Y-60578738D01*
X125590164Y-60578738D01*
X125585411Y-60579011D01*
X125410423Y-60619410D01*
X125248734Y-60697573D01*
X125108380Y-60809617D01*
X124996336Y-60949971D01*
X124918173Y-61111660D01*
X124916589Y-61118521D01*
X124882845Y-61264685D01*
X124877774Y-61286648D01*
X124877500Y-61291400D01*
X124877501Y-63067073D01*
X124877774Y-63071826D01*
X124918173Y-63246814D01*
X124996336Y-63408503D01*
X125108380Y-63548857D01*
X125248734Y-63660901D01*
X125410423Y-63739064D01*
X125417284Y-63740648D01*
X125580212Y-63778263D01*
X125580215Y-63778263D01*
X125585411Y-63779463D01*
X125590163Y-63779737D01*
X125591987Y-63779737D01*
X126485609Y-63779736D01*
X127365836Y-63779736D01*
X127370589Y-63779463D01*
X127545577Y-63739064D01*
X127707266Y-63660901D01*
X127847620Y-63548857D01*
X127959664Y-63408503D01*
X128037827Y-63246814D01*
X128063139Y-63137175D01*
X128077026Y-63077025D01*
X128077026Y-63077022D01*
X128078226Y-63071826D01*
X128078500Y-63067074D01*
X128078500Y-62445759D01*
X132815273Y-62445759D01*
X132862764Y-62622998D01*
X132866510Y-62633290D01*
X132958586Y-62830748D01*
X132964069Y-62840244D01*
X133089028Y-63018704D01*
X133096084Y-63027112D01*
X133250125Y-63181153D01*
X133258533Y-63188209D01*
X133436993Y-63313168D01*
X133446489Y-63318651D01*
X133643947Y-63410727D01*
X133654239Y-63414473D01*
X133826503Y-63460631D01*
X133840599Y-63460295D01*
X133844000Y-63452353D01*
X133844000Y-63447204D01*
X134352000Y-63447204D01*
X134355973Y-63460735D01*
X134364522Y-63461964D01*
X134541761Y-63414473D01*
X134552053Y-63410727D01*
X134749511Y-63318651D01*
X134759007Y-63313168D01*
X134937467Y-63188209D01*
X134945875Y-63181153D01*
X135099916Y-63027112D01*
X135106972Y-63018704D01*
X135231931Y-62840244D01*
X135237414Y-62830748D01*
X135329490Y-62633290D01*
X135333236Y-62622998D01*
X135379394Y-62450734D01*
X135379058Y-62436638D01*
X135371116Y-62433237D01*
X134370115Y-62433237D01*
X134354876Y-62437712D01*
X134353671Y-62439102D01*
X134352000Y-62446785D01*
X134352000Y-63447204D01*
X133844000Y-63447204D01*
X133844000Y-62451352D01*
X133839525Y-62436113D01*
X133838135Y-62434908D01*
X133830452Y-62433237D01*
X132830033Y-62433237D01*
X132816502Y-62437210D01*
X132815273Y-62445759D01*
X128078500Y-62445759D01*
X128078500Y-61907740D01*
X132816606Y-61907740D01*
X132816942Y-61921836D01*
X132824884Y-61925237D01*
X133825885Y-61925237D01*
X133841124Y-61920762D01*
X133842329Y-61919372D01*
X133844000Y-61911689D01*
X133844000Y-61907122D01*
X134352000Y-61907122D01*
X134356475Y-61922361D01*
X134357865Y-61923566D01*
X134365548Y-61925237D01*
X135365967Y-61925237D01*
X135379498Y-61921264D01*
X135380727Y-61912715D01*
X135333236Y-61735476D01*
X135329490Y-61725184D01*
X135237414Y-61527726D01*
X135231931Y-61518230D01*
X135106972Y-61339770D01*
X135099916Y-61331362D01*
X134945875Y-61177321D01*
X134937467Y-61170265D01*
X134759007Y-61045306D01*
X134749511Y-61039823D01*
X134552053Y-60947747D01*
X134541761Y-60944001D01*
X134369497Y-60897843D01*
X134355401Y-60898179D01*
X134352000Y-60906121D01*
X134352000Y-61907122D01*
X133844000Y-61907122D01*
X133844000Y-60911270D01*
X133840027Y-60897739D01*
X133831478Y-60896510D01*
X133654239Y-60944001D01*
X133643947Y-60947747D01*
X133446489Y-61039823D01*
X133436993Y-61045306D01*
X133258533Y-61170265D01*
X133250125Y-61177321D01*
X133096084Y-61331362D01*
X133089028Y-61339770D01*
X132964069Y-61518230D01*
X132958586Y-61527726D01*
X132866510Y-61725184D01*
X132862764Y-61735476D01*
X132816606Y-61907740D01*
X128078500Y-61907740D01*
X128078499Y-61291401D01*
X128078226Y-61286648D01*
X128037827Y-61111660D01*
X127959664Y-60949971D01*
X127847620Y-60809617D01*
X127707266Y-60697573D01*
X127545577Y-60619410D01*
X127538716Y-60617826D01*
X127375788Y-60580211D01*
X127375785Y-60580211D01*
X127370589Y-60579011D01*
X127365837Y-60578737D01*
X127185970Y-60578737D01*
X127117849Y-60558735D01*
X127071356Y-60505079D01*
X127061252Y-60434805D01*
X127090746Y-60370225D01*
X127137752Y-60336328D01*
X127202285Y-60309598D01*
X127202289Y-60309596D01*
X127206859Y-60307703D01*
X127421659Y-60176073D01*
X127425419Y-60172861D01*
X127425424Y-60172858D01*
X127605262Y-60019261D01*
X127613224Y-60012461D01*
X127657753Y-59960324D01*
X127773621Y-59824661D01*
X127773624Y-59824656D01*
X127776836Y-59820896D01*
X127908466Y-59606096D01*
X127911562Y-59598623D01*
X128002979Y-59377921D01*
X128002980Y-59377919D01*
X128004873Y-59373348D01*
X128029183Y-59272089D01*
X128062528Y-59133198D01*
X128062529Y-59133192D01*
X128063683Y-59128385D01*
X128083449Y-58877237D01*
X128063683Y-58626089D01*
X128055508Y-58592034D01*
X128007861Y-58393573D01*
X128004873Y-58381126D01*
X127992861Y-58352127D01*
X127910361Y-58152952D01*
X127910359Y-58152948D01*
X127908466Y-58148378D01*
X127776836Y-57933578D01*
X127773624Y-57929818D01*
X127773621Y-57929813D01*
X127616437Y-57745775D01*
X127613224Y-57742013D01*
X127595052Y-57726493D01*
X127425424Y-57581616D01*
X127425419Y-57581613D01*
X127421659Y-57578401D01*
X127206859Y-57446771D01*
X127202289Y-57444878D01*
X127202285Y-57444876D01*
X126978684Y-57352258D01*
X126978682Y-57352257D01*
X126974111Y-57350364D01*
X126889711Y-57330102D01*
X126733961Y-57292709D01*
X126733955Y-57292708D01*
X126729148Y-57291554D01*
X126478000Y-57271788D01*
X126226852Y-57291554D01*
X126222045Y-57292708D01*
X126222039Y-57292709D01*
X126066289Y-57330102D01*
X125981889Y-57350364D01*
X125977318Y-57352257D01*
X125977316Y-57352258D01*
X125753715Y-57444876D01*
X125753711Y-57444878D01*
X125749141Y-57446771D01*
X125534341Y-57578401D01*
X125530581Y-57581613D01*
X125530576Y-57581616D01*
X125360948Y-57726493D01*
X125342776Y-57742013D01*
X125339563Y-57745775D01*
X125182379Y-57929813D01*
X125182376Y-57929818D01*
X125179164Y-57933578D01*
X125047534Y-58148378D01*
X125045641Y-58152948D01*
X125045639Y-58152952D01*
X124963139Y-58352127D01*
X124951127Y-58381126D01*
X124948139Y-58393573D01*
X124900493Y-58592034D01*
X124892317Y-58626089D01*
X124872551Y-58877237D01*
X123107759Y-58877237D01*
X122985409Y-58695505D01*
X122821355Y-58523532D01*
X122630670Y-58381658D01*
X122418807Y-58273942D01*
X122413716Y-58272361D01*
X122413713Y-58272360D01*
X122196919Y-58205044D01*
X122191824Y-58203462D01*
X122165740Y-58200005D01*
X121961494Y-58172933D01*
X121961491Y-58172933D01*
X121956211Y-58172233D01*
X121950882Y-58172433D01*
X121950881Y-58172433D01*
X121853932Y-58176073D01*
X121718705Y-58181150D01*
X121486096Y-58229956D01*
X121481137Y-58231914D01*
X121481135Y-58231915D01*
X121270002Y-58315296D01*
X121270000Y-58315297D01*
X121265037Y-58317257D01*
X121061847Y-58440556D01*
X121057817Y-58444053D01*
X120892110Y-58587846D01*
X120882336Y-58596327D01*
X120878949Y-58600458D01*
X120878251Y-58601309D01*
X120877866Y-58601572D01*
X120875234Y-58604278D01*
X120874683Y-58603742D01*
X120819591Y-58641304D01*
X120748621Y-58643235D01*
X120713887Y-58625874D01*
X120712991Y-58627327D01*
X120568757Y-58538421D01*
X120555576Y-58532274D01*
X120401290Y-58481099D01*
X120387914Y-58478232D01*
X120293562Y-58468565D01*
X120287145Y-58468237D01*
X120162115Y-58468237D01*
X120146876Y-58472712D01*
X120145671Y-58474102D01*
X120144000Y-58481785D01*
X120144000Y-61216121D01*
X119636000Y-61216121D01*
X119636000Y-60123352D01*
X119631525Y-60108113D01*
X119630135Y-60106908D01*
X119622452Y-60105237D01*
X118800116Y-60105237D01*
X118784877Y-60109712D01*
X118783672Y-60111102D01*
X118782001Y-60118785D01*
X118782001Y-60523332D01*
X115231605Y-60523332D01*
X115233659Y-60522073D01*
X115237419Y-60518861D01*
X115237424Y-60518858D01*
X115421462Y-60361674D01*
X115425224Y-60358461D01*
X115466957Y-60309598D01*
X115585621Y-60170661D01*
X115585624Y-60170656D01*
X115588836Y-60166896D01*
X115710067Y-59969066D01*
X115717880Y-59956316D01*
X115720466Y-59952096D01*
X115729601Y-59930044D01*
X115814979Y-59723921D01*
X115814980Y-59723919D01*
X115816873Y-59719348D01*
X115840991Y-59618890D01*
X115850538Y-59579122D01*
X118782000Y-59579122D01*
X118786475Y-59594361D01*
X118787865Y-59595566D01*
X118795548Y-59597237D01*
X119617885Y-59597237D01*
X119633124Y-59592762D01*
X119634329Y-59591372D01*
X119636000Y-59583689D01*
X119636000Y-58486353D01*
X119631525Y-58471114D01*
X119630135Y-58469909D01*
X119622452Y-58468238D01*
X119492905Y-58468238D01*
X119486386Y-58468575D01*
X119390794Y-58478494D01*
X119377400Y-58481386D01*
X119223216Y-58532825D01*
X119210038Y-58538998D01*
X119072193Y-58624300D01*
X119060792Y-58633336D01*
X118946261Y-58748066D01*
X118937249Y-58759477D01*
X118852184Y-58897480D01*
X118846037Y-58910661D01*
X118794862Y-59064947D01*
X118791995Y-59078323D01*
X118782328Y-59172675D01*
X118782000Y-59179092D01*
X118782000Y-59579122D01*
X115850538Y-59579122D01*
X115874528Y-59479198D01*
X115874529Y-59479192D01*
X115875683Y-59474385D01*
X115895449Y-59223237D01*
X115875683Y-58972089D01*
X115865908Y-58931370D01*
X115833019Y-58794378D01*
X115816873Y-58727126D01*
X115814979Y-58722553D01*
X115722361Y-58498952D01*
X115722359Y-58498948D01*
X115720466Y-58494378D01*
X115588836Y-58279578D01*
X115585624Y-58275818D01*
X115585621Y-58275813D01*
X115428437Y-58091775D01*
X115425224Y-58088013D01*
X115348285Y-58022301D01*
X115237424Y-57927616D01*
X115237419Y-57927613D01*
X115233659Y-57924401D01*
X115018859Y-57792771D01*
X115014289Y-57790878D01*
X115014285Y-57790876D01*
X114790684Y-57698258D01*
X114790682Y-57698257D01*
X114786111Y-57696364D01*
X114701711Y-57676102D01*
X114545961Y-57638709D01*
X114545955Y-57638708D01*
X114541148Y-57637554D01*
X114290000Y-57617788D01*
X114038852Y-57637554D01*
X114034045Y-57638708D01*
X114034039Y-57638709D01*
X113878289Y-57676102D01*
X113793889Y-57696364D01*
X113789318Y-57698257D01*
X113789316Y-57698258D01*
X113565715Y-57790876D01*
X113565711Y-57790878D01*
X113561141Y-57792771D01*
X113346341Y-57924401D01*
X113342581Y-57927613D01*
X113342576Y-57927616D01*
X113231715Y-58022301D01*
X113154776Y-58088013D01*
X113151563Y-58091775D01*
X112994379Y-58275813D01*
X112994376Y-58275818D01*
X112991164Y-58279578D01*
X112859534Y-58494378D01*
X112857641Y-58498948D01*
X112857639Y-58498952D01*
X112765021Y-58722553D01*
X112763127Y-58727126D01*
X112746981Y-58794378D01*
X112714093Y-58931370D01*
X112704317Y-58972089D01*
X112684551Y-59223237D01*
X111983955Y-59223237D01*
X111938028Y-59031938D01*
X111936873Y-59027126D01*
X111926694Y-59002552D01*
X111842361Y-58798952D01*
X111842359Y-58798948D01*
X111840466Y-58794378D01*
X111708836Y-58579578D01*
X111705624Y-58575818D01*
X111705621Y-58575813D01*
X111548437Y-58391775D01*
X111545224Y-58388013D01*
X111498744Y-58348315D01*
X111357424Y-58227616D01*
X111357419Y-58227613D01*
X111353659Y-58224401D01*
X111138859Y-58092771D01*
X111134289Y-58090878D01*
X111134285Y-58090876D01*
X110910684Y-57998258D01*
X110910682Y-57998257D01*
X110906111Y-57996364D01*
X110768847Y-57963410D01*
X110665961Y-57938709D01*
X110665955Y-57938708D01*
X110661148Y-57937554D01*
X110572851Y-57930605D01*
X110475339Y-57922930D01*
X110475330Y-57922930D01*
X110472882Y-57922737D01*
X109547118Y-57922737D01*
X109544670Y-57922930D01*
X109544661Y-57922930D01*
X109447149Y-57930605D01*
X109358852Y-57937554D01*
X109354045Y-57938708D01*
X109354039Y-57938709D01*
X109251153Y-57963410D01*
X109113889Y-57996364D01*
X109109318Y-57998257D01*
X109109316Y-57998258D01*
X108885715Y-58090876D01*
X108885711Y-58090878D01*
X108881141Y-58092771D01*
X108666341Y-58224401D01*
X108662581Y-58227613D01*
X108662576Y-58227616D01*
X108521256Y-58348315D01*
X108474776Y-58388013D01*
X108471563Y-58391775D01*
X108314379Y-58575813D01*
X108314376Y-58575818D01*
X108311164Y-58579578D01*
X108179534Y-58794378D01*
X108177641Y-58798948D01*
X108177639Y-58798952D01*
X108093306Y-59002552D01*
X108083127Y-59027126D01*
X108081972Y-59031938D01*
X108033156Y-59235273D01*
X108024317Y-59272089D01*
X108004551Y-59523237D01*
X108024317Y-59774385D01*
X108025471Y-59779192D01*
X108025472Y-59779198D01*
X108035483Y-59820896D01*
X108083127Y-60019348D01*
X108085020Y-60023919D01*
X108085021Y-60023921D01*
X108174181Y-60239172D01*
X108179534Y-60252096D01*
X108182120Y-60256316D01*
X108185307Y-60261517D01*
X108311164Y-60466896D01*
X108314376Y-60470656D01*
X108314379Y-60470661D01*
X108471558Y-60654694D01*
X108471563Y-60654699D01*
X108474776Y-60658461D01*
X108478538Y-60661674D01*
X108478540Y-60661676D01*
X108520398Y-60697426D01*
X108559207Y-60756877D01*
X108559713Y-60827871D01*
X108520398Y-60889048D01*
X108474776Y-60928013D01*
X108471563Y-60931775D01*
X108471558Y-60931780D01*
X108314379Y-61115813D01*
X108314376Y-61115818D01*
X108311164Y-61119578D01*
X108179534Y-61334378D01*
X108177641Y-61338948D01*
X108177639Y-61338952D01*
X108111050Y-61499713D01*
X108083127Y-61567126D01*
X108024317Y-61812089D01*
X108004551Y-62063237D01*
X104395449Y-62063237D01*
X104375683Y-61812089D01*
X104316873Y-61567126D01*
X104288950Y-61499713D01*
X104222361Y-61338952D01*
X104222359Y-61338948D01*
X104220466Y-61334378D01*
X104088836Y-61119578D01*
X104085620Y-61115813D01*
X104082714Y-61111813D01*
X104084040Y-61110850D01*
X104057951Y-61052599D01*
X104068568Y-60982401D01*
X104104187Y-60937109D01*
X104154117Y-60897250D01*
X104159620Y-60892857D01*
X104271664Y-60752503D01*
X104276445Y-60742614D01*
X104346761Y-60597156D01*
X104349827Y-60590814D01*
X104363901Y-60529851D01*
X104389026Y-60421025D01*
X104389026Y-60421022D01*
X104390226Y-60415826D01*
X104390500Y-60411074D01*
X104390500Y-59523237D01*
X104390499Y-58637194D01*
X104390499Y-58635401D01*
X104390226Y-58630648D01*
X104349827Y-58455660D01*
X104271664Y-58293971D01*
X104159620Y-58153617D01*
X104019266Y-58041573D01*
X103968656Y-58017107D01*
X103863919Y-57966476D01*
X103863920Y-57966476D01*
X103857577Y-57963410D01*
X103850716Y-57961826D01*
X103687788Y-57924211D01*
X103687785Y-57924211D01*
X103682589Y-57923011D01*
X103677837Y-57922737D01*
X103676013Y-57922737D01*
X102378963Y-57922738D01*
X101102164Y-57922738D01*
X101097411Y-57923011D01*
X100922423Y-57963410D01*
X100916080Y-57966476D01*
X100916081Y-57966476D01*
X100811345Y-58017107D01*
X100760734Y-58041573D01*
X100620380Y-58153617D01*
X100508336Y-58293971D01*
X100430173Y-58455660D01*
X100428589Y-58462521D01*
X100391240Y-58624300D01*
X100389774Y-58630648D01*
X100389500Y-58635400D01*
X100389500Y-58637224D01*
X100389501Y-59528167D01*
X100389501Y-60411073D01*
X100389774Y-60415826D01*
X100430173Y-60590814D01*
X100433239Y-60597156D01*
X100503556Y-60742614D01*
X100508336Y-60752503D01*
X100620380Y-60892857D01*
X100625883Y-60897250D01*
X100675813Y-60937109D01*
X100716572Y-60995240D01*
X100719432Y-61066179D01*
X100696282Y-61111084D01*
X100697286Y-61111813D01*
X100694380Y-61115813D01*
X100691164Y-61119578D01*
X100559534Y-61334378D01*
X100557641Y-61338948D01*
X100557639Y-61338952D01*
X100491050Y-61499713D01*
X100463127Y-61567126D01*
X100404317Y-61812089D01*
X100384551Y-62063237D01*
X100404317Y-62314385D01*
X100405471Y-62319192D01*
X100405472Y-62319198D01*
X100429972Y-62421248D01*
X100463127Y-62559348D01*
X100465020Y-62563919D01*
X100465021Y-62563921D01*
X100547032Y-62761913D01*
X100559534Y-62792096D01*
X100691164Y-63006896D01*
X100694376Y-63010656D01*
X100694379Y-63010661D01*
X100851558Y-63194694D01*
X100851563Y-63194699D01*
X100854776Y-63198461D01*
X100858538Y-63201674D01*
X100858540Y-63201676D01*
X100900398Y-63237426D01*
X100939207Y-63296877D01*
X100939713Y-63367871D01*
X100900398Y-63429048D01*
X100863813Y-63460295D01*
X100854776Y-63468013D01*
X100851563Y-63471775D01*
X100851558Y-63471780D01*
X100694379Y-63655813D01*
X100694376Y-63655818D01*
X100691164Y-63659578D01*
X100559534Y-63874378D01*
X100557641Y-63878948D01*
X100557639Y-63878952D01*
X100511673Y-63989925D01*
X100463127Y-64107126D01*
X100461972Y-64111938D01*
X100405956Y-64345264D01*
X100404317Y-64352089D01*
X100384551Y-64603237D01*
X98590000Y-64603237D01*
X98590000Y-47613602D01*
X114625940Y-47613602D01*
X114626093Y-47615788D01*
X114626093Y-47615792D01*
X114630701Y-47681683D01*
X114641083Y-47830159D01*
X114701288Y-48113398D01*
X114702791Y-48117527D01*
X114702792Y-48117531D01*
X114774902Y-48315651D01*
X114800325Y-48385502D01*
X114936269Y-48641174D01*
X115106472Y-48875439D01*
X115109528Y-48878603D01*
X115109530Y-48878606D01*
X115284434Y-49059724D01*
X115307622Y-49083736D01*
X115535804Y-49262011D01*
X115664517Y-49336323D01*
X115689815Y-49350929D01*
X115738808Y-49402311D01*
X115752244Y-49472025D01*
X115725858Y-49537936D01*
X115682052Y-49573295D01*
X115663848Y-49582174D01*
X115659422Y-49584333D01*
X115655783Y-49586788D01*
X115655777Y-49586791D01*
X115423006Y-49743797D01*
X115422999Y-49743802D01*
X115419360Y-49746257D01*
X115416091Y-49749201D01*
X115416089Y-49749202D01*
X115211172Y-49933710D01*
X115204170Y-49940015D01*
X115018040Y-50161836D01*
X114864593Y-50407402D01*
X114746815Y-50671935D01*
X114667000Y-50950285D01*
X114666389Y-50954635D01*
X114666388Y-50954638D01*
X114664522Y-50967919D01*
X114626700Y-51237034D01*
X114626700Y-52714122D01*
X114626853Y-52716308D01*
X114626853Y-52716312D01*
X114631461Y-52782203D01*
X114641843Y-52930679D01*
X114702048Y-53213918D01*
X114703551Y-53218047D01*
X114703552Y-53218051D01*
X114753657Y-53355713D01*
X114801085Y-53486022D01*
X114937029Y-53741694D01*
X114939615Y-53745253D01*
X114939616Y-53745255D01*
X115102289Y-53969155D01*
X115107232Y-53975959D01*
X115110288Y-53979123D01*
X115110290Y-53979126D01*
X115214045Y-54086567D01*
X115308382Y-54184256D01*
X115536564Y-54362531D01*
X115787336Y-54507314D01*
X116055818Y-54615788D01*
X116336783Y-54685841D01*
X116341151Y-54686300D01*
X116341156Y-54686301D01*
X116620395Y-54715650D01*
X116620398Y-54715650D01*
X116624764Y-54716109D01*
X116629152Y-54715956D01*
X116629158Y-54715956D01*
X116909757Y-54706157D01*
X116909763Y-54706156D01*
X116914155Y-54706003D01*
X116918479Y-54705240D01*
X116918484Y-54705240D01*
X117070278Y-54678474D01*
X117199322Y-54655720D01*
X117203493Y-54654365D01*
X117203500Y-54654363D01*
X117470528Y-54567600D01*
X117470527Y-54567600D01*
X117474717Y-54566239D01*
X117478670Y-54564311D01*
X117478675Y-54564309D01*
X117600044Y-54505113D01*
X117734978Y-54439301D01*
X117738617Y-54436846D01*
X117738623Y-54436843D01*
X117971394Y-54279837D01*
X117971401Y-54279832D01*
X117975040Y-54277377D01*
X118190230Y-54083619D01*
X118376360Y-53861798D01*
X118529807Y-53616232D01*
X118647585Y-53351699D01*
X118727400Y-53073349D01*
X118767700Y-52786600D01*
X118767700Y-51309512D01*
X118767547Y-51307322D01*
X118752864Y-51097340D01*
X118752863Y-51097335D01*
X118752557Y-51092955D01*
X118692352Y-50809716D01*
X118669602Y-50747210D01*
X118594824Y-50541757D01*
X118594822Y-50541753D01*
X118593315Y-50537612D01*
X118457371Y-50281940D01*
X118340457Y-50121021D01*
X118289757Y-50051238D01*
X118289754Y-50051235D01*
X118287168Y-50047675D01*
X118208602Y-49966317D01*
X118089072Y-49842540D01*
X118089068Y-49842537D01*
X118086018Y-49839378D01*
X117857836Y-49661103D01*
X117703825Y-49572185D01*
X117654832Y-49520803D01*
X117641396Y-49451089D01*
X117667782Y-49385178D01*
X117711588Y-49349819D01*
X117730265Y-49340709D01*
X117734218Y-49338781D01*
X117737857Y-49336326D01*
X117737863Y-49336323D01*
X117970634Y-49179317D01*
X117970641Y-49179312D01*
X117974280Y-49176857D01*
X118189470Y-48983099D01*
X118375600Y-48761278D01*
X118529047Y-48515712D01*
X118632954Y-48282334D01*
X118645038Y-48255193D01*
X118645039Y-48255191D01*
X118646825Y-48251179D01*
X118726640Y-47972829D01*
X118766940Y-47686080D01*
X118766940Y-47613602D01*
X119327500Y-47613602D01*
X119327653Y-47615788D01*
X119327653Y-47615792D01*
X119332261Y-47681683D01*
X119342643Y-47830159D01*
X119402848Y-48113398D01*
X119404351Y-48117527D01*
X119404352Y-48117531D01*
X119476462Y-48315651D01*
X119501885Y-48385502D01*
X119637829Y-48641174D01*
X119808032Y-48875439D01*
X119811088Y-48878603D01*
X119811090Y-48878606D01*
X119985994Y-49059724D01*
X120009182Y-49083736D01*
X120237364Y-49262011D01*
X120366077Y-49336323D01*
X120391375Y-49350929D01*
X120440368Y-49402311D01*
X120453804Y-49472025D01*
X120427418Y-49537936D01*
X120383612Y-49573295D01*
X120365408Y-49582174D01*
X120360982Y-49584333D01*
X120357343Y-49586788D01*
X120357337Y-49586791D01*
X120124566Y-49743797D01*
X120124559Y-49743802D01*
X120120920Y-49746257D01*
X120117651Y-49749201D01*
X120117649Y-49749202D01*
X119912732Y-49933710D01*
X119905730Y-49940015D01*
X119719600Y-50161836D01*
X119566153Y-50407402D01*
X119448375Y-50671935D01*
X119368560Y-50950285D01*
X119367949Y-50954635D01*
X119367948Y-50954638D01*
X119366082Y-50967919D01*
X119328260Y-51237034D01*
X119328260Y-52714122D01*
X119328413Y-52716308D01*
X119328413Y-52716312D01*
X119333021Y-52782203D01*
X119343403Y-52930679D01*
X119403608Y-53213918D01*
X119405111Y-53218047D01*
X119405112Y-53218051D01*
X119455217Y-53355713D01*
X119502645Y-53486022D01*
X119638589Y-53741694D01*
X119641175Y-53745253D01*
X119641176Y-53745255D01*
X119803849Y-53969155D01*
X119808792Y-53975959D01*
X119811848Y-53979123D01*
X119811850Y-53979126D01*
X119915605Y-54086567D01*
X120009942Y-54184256D01*
X120238124Y-54362531D01*
X120488896Y-54507314D01*
X120757378Y-54615788D01*
X121038343Y-54685841D01*
X121042711Y-54686300D01*
X121042716Y-54686301D01*
X121321955Y-54715650D01*
X121321958Y-54715650D01*
X121326324Y-54716109D01*
X121330712Y-54715956D01*
X121330718Y-54715956D01*
X121611317Y-54706157D01*
X121611323Y-54706156D01*
X121615715Y-54706003D01*
X121620039Y-54705240D01*
X121620044Y-54705240D01*
X121771838Y-54678474D01*
X121900882Y-54655720D01*
X121905053Y-54654365D01*
X121905060Y-54654363D01*
X122172088Y-54567600D01*
X122172087Y-54567600D01*
X122176277Y-54566239D01*
X122180230Y-54564311D01*
X122180235Y-54564309D01*
X122301604Y-54505113D01*
X122436538Y-54439301D01*
X122440177Y-54436846D01*
X122440183Y-54436843D01*
X122672954Y-54279837D01*
X122672961Y-54279832D01*
X122676600Y-54277377D01*
X122891790Y-54083619D01*
X123077920Y-53861798D01*
X123231367Y-53616232D01*
X123349145Y-53351699D01*
X123428960Y-53073349D01*
X123469260Y-52786600D01*
X123469260Y-51309512D01*
X123469107Y-51307322D01*
X123454424Y-51097340D01*
X123454423Y-51097335D01*
X123454117Y-51092955D01*
X123393912Y-50809716D01*
X123371162Y-50747210D01*
X123296384Y-50541757D01*
X123296382Y-50541753D01*
X123294875Y-50537612D01*
X123158931Y-50281940D01*
X123004751Y-50069729D01*
X122980892Y-50002861D01*
X122996973Y-49933710D01*
X123047887Y-49884229D01*
X123117470Y-49870130D01*
X123159535Y-49881287D01*
X123327208Y-49958759D01*
X123335923Y-49963205D01*
X123341481Y-49966317D01*
X123343727Y-49967352D01*
X123343736Y-49967357D01*
X123677060Y-50121021D01*
X123733038Y-50146827D01*
X123735349Y-50147680D01*
X123735350Y-50147680D01*
X124135223Y-50295202D01*
X124135234Y-50295206D01*
X124137550Y-50296060D01*
X124154343Y-50300796D01*
X124214476Y-50338538D01*
X124244658Y-50402800D01*
X124235247Y-50473314D01*
X124188997Y-50577194D01*
X124146815Y-50671935D01*
X124067000Y-50950285D01*
X124066389Y-50954635D01*
X124066388Y-50954638D01*
X124064522Y-50967919D01*
X124026700Y-51237034D01*
X124026700Y-52714122D01*
X124026853Y-52716308D01*
X124026853Y-52716312D01*
X124031461Y-52782203D01*
X124041843Y-52930679D01*
X124102048Y-53213918D01*
X124103551Y-53218047D01*
X124103552Y-53218051D01*
X124153657Y-53355713D01*
X124201085Y-53486022D01*
X124337029Y-53741694D01*
X124339615Y-53745253D01*
X124339616Y-53745255D01*
X124502289Y-53969155D01*
X124507232Y-53975959D01*
X124510288Y-53979123D01*
X124510290Y-53979126D01*
X124614045Y-54086567D01*
X124708382Y-54184256D01*
X124936564Y-54362531D01*
X125187336Y-54507314D01*
X125455818Y-54615788D01*
X125736783Y-54685841D01*
X125741151Y-54686300D01*
X125741156Y-54686301D01*
X126020395Y-54715650D01*
X126020398Y-54715650D01*
X126024764Y-54716109D01*
X126029152Y-54715956D01*
X126029158Y-54715956D01*
X126309757Y-54706157D01*
X126309763Y-54706156D01*
X126314155Y-54706003D01*
X126318479Y-54705240D01*
X126318484Y-54705240D01*
X126470278Y-54678474D01*
X126599322Y-54655720D01*
X126603493Y-54654365D01*
X126603500Y-54654363D01*
X126870528Y-54567600D01*
X126870527Y-54567600D01*
X126874717Y-54566239D01*
X126878670Y-54564311D01*
X126878675Y-54564309D01*
X127000044Y-54505113D01*
X127134978Y-54439301D01*
X127138617Y-54436846D01*
X127138623Y-54436843D01*
X127371394Y-54279837D01*
X127371401Y-54279832D01*
X127375040Y-54277377D01*
X127590230Y-54083619D01*
X127776360Y-53861798D01*
X127929807Y-53616232D01*
X128047585Y-53351699D01*
X128127400Y-53073349D01*
X128167700Y-52786600D01*
X128167700Y-51309512D01*
X128167547Y-51307322D01*
X128152864Y-51097340D01*
X128152863Y-51097335D01*
X128152557Y-51092955D01*
X128092352Y-50809716D01*
X128063220Y-50729676D01*
X128058718Y-50658823D01*
X128093237Y-50596783D01*
X128155817Y-50563254D01*
X128181622Y-50560583D01*
X129404620Y-50560583D01*
X129418665Y-50561368D01*
X129449940Y-50564876D01*
X129456065Y-50565563D01*
X129490575Y-50562665D01*
X129507288Y-50562375D01*
X129802756Y-50576891D01*
X129815050Y-50578101D01*
X130137681Y-50625960D01*
X130149803Y-50628370D01*
X130241452Y-50651327D01*
X130466191Y-50707622D01*
X130478023Y-50711211D01*
X130785117Y-50821091D01*
X130796541Y-50825823D01*
X130958857Y-50902592D01*
X131091389Y-50965275D01*
X131102290Y-50971102D01*
X131382046Y-51138782D01*
X131392327Y-51145652D01*
X131654296Y-51339941D01*
X131663854Y-51347785D01*
X131771215Y-51445090D01*
X131872080Y-51536509D01*
X131885929Y-51551254D01*
X131896164Y-51564075D01*
X131900874Y-51568055D01*
X131922607Y-51586421D01*
X131934636Y-51598039D01*
X132133312Y-51817243D01*
X132141139Y-51826782D01*
X132185646Y-51886793D01*
X132335431Y-52088756D01*
X132342301Y-52099037D01*
X132460408Y-52296085D01*
X132509981Y-52378793D01*
X132515810Y-52389698D01*
X132655264Y-52684551D01*
X132659995Y-52695975D01*
X132769869Y-53003050D01*
X132773459Y-53014882D01*
X132852712Y-53331276D01*
X132855123Y-53343401D01*
X132895595Y-53616232D01*
X132902981Y-53666027D01*
X132904192Y-53678326D01*
X132913372Y-53865168D01*
X132917982Y-53959011D01*
X132917348Y-53979242D01*
X132916207Y-53989411D01*
X132916207Y-53989419D01*
X132915520Y-53995542D01*
X132919527Y-54043256D01*
X132920058Y-54049582D01*
X132920500Y-54060126D01*
X132920500Y-55560290D01*
X132919715Y-55574335D01*
X132918994Y-55580764D01*
X132915520Y-55611735D01*
X132916036Y-55617880D01*
X132918261Y-55644382D01*
X132918505Y-55661989D01*
X132905145Y-55899886D01*
X132903563Y-55913927D01*
X132858877Y-56176926D01*
X132855733Y-56190701D01*
X132781882Y-56447045D01*
X132777215Y-56460382D01*
X132675126Y-56706846D01*
X132668995Y-56719576D01*
X132539961Y-56953046D01*
X132532444Y-56965011D01*
X132378066Y-57182586D01*
X132369256Y-57193633D01*
X132220141Y-57360493D01*
X132204805Y-57375000D01*
X132193683Y-57383878D01*
X132189703Y-57388588D01*
X132158681Y-57425297D01*
X132151539Y-57433064D01*
X132002988Y-57581616D01*
X131562304Y-58022301D01*
X131499991Y-58056326D01*
X131437648Y-58054084D01*
X131385375Y-58038706D01*
X131372778Y-58035364D01*
X131344817Y-58027944D01*
X131344793Y-58027938D01*
X131344028Y-58027735D01*
X131342804Y-58027445D01*
X131300445Y-58018611D01*
X131211996Y-58002649D01*
X131206743Y-58001701D01*
X131206738Y-58001700D01*
X131205795Y-58001530D01*
X131204852Y-58001389D01*
X131204833Y-58001386D01*
X131181359Y-57997880D01*
X131157915Y-57994378D01*
X131156515Y-57994212D01*
X131155659Y-57994137D01*
X131155635Y-57994134D01*
X131117101Y-57990735D01*
X131103593Y-57988801D01*
X131080091Y-57984126D01*
X131080088Y-57984126D01*
X131074424Y-57982999D01*
X131068649Y-57982923D01*
X131068645Y-57982923D01*
X130957904Y-57981474D01*
X130853806Y-57980111D01*
X130848109Y-57981090D01*
X130848108Y-57981090D01*
X130642054Y-58016496D01*
X130642053Y-58016496D01*
X130636357Y-58017475D01*
X130429357Y-58093841D01*
X130424396Y-58096793D01*
X130424395Y-58096793D01*
X130280764Y-58182245D01*
X130239741Y-58206651D01*
X130073857Y-58352127D01*
X129937263Y-58525397D01*
X129834531Y-58720657D01*
X129769103Y-58931370D01*
X129743170Y-59150477D01*
X129757600Y-59370641D01*
X129759021Y-59376237D01*
X129759022Y-59376242D01*
X129804657Y-59555928D01*
X129811911Y-59584489D01*
X129814328Y-59589731D01*
X129814328Y-59589732D01*
X129866574Y-59703061D01*
X129904283Y-59784858D01*
X130031622Y-59965039D01*
X130189664Y-60118998D01*
X130194460Y-60122203D01*
X130194463Y-60122205D01*
X130335045Y-60216138D01*
X130373117Y-60241577D01*
X130378420Y-60243855D01*
X130378423Y-60243857D01*
X130521010Y-60305117D01*
X130575836Y-60328672D01*
X130655488Y-60346695D01*
X130785395Y-60376091D01*
X130785401Y-60376092D01*
X130791032Y-60377366D01*
X130796803Y-60377593D01*
X130796805Y-60377593D01*
X130864611Y-60380257D01*
X131011498Y-60386028D01*
X131120675Y-60370198D01*
X131224138Y-60355197D01*
X131224143Y-60355196D01*
X131229852Y-60354368D01*
X131235316Y-60352513D01*
X131235321Y-60352512D01*
X131390058Y-60299986D01*
X131438779Y-60283447D01*
X131471341Y-60265211D01*
X131484941Y-60258634D01*
X131498694Y-60252972D01*
X131507566Y-60249703D01*
X131534975Y-60240757D01*
X131544793Y-60237987D01*
X131558629Y-60234683D01*
X131567568Y-60232888D01*
X131588567Y-60229460D01*
X131594038Y-60228690D01*
X131613724Y-60226360D01*
X131631657Y-60224238D01*
X131639398Y-60223563D01*
X131663325Y-60222219D01*
X131666803Y-60221628D01*
X131666821Y-60221626D01*
X131693773Y-60217046D01*
X131700036Y-60216143D01*
X131713419Y-60214559D01*
X131713643Y-60214530D01*
X131713684Y-60214525D01*
X131723587Y-60213243D01*
X131730678Y-60212325D01*
X131731162Y-60212257D01*
X131748749Y-60209587D01*
X131796858Y-60201733D01*
X131821824Y-60197658D01*
X131821845Y-60197654D01*
X131822368Y-60197569D01*
X131822873Y-60197477D01*
X131822915Y-60197470D01*
X131843594Y-60193712D01*
X131850551Y-60192448D01*
X131851385Y-60192281D01*
X131864394Y-60189426D01*
X131879552Y-60186100D01*
X131879593Y-60186091D01*
X131880138Y-60185971D01*
X131880683Y-60185841D01*
X131880739Y-60185828D01*
X131884662Y-60184891D01*
X131892814Y-60183227D01*
X131901765Y-60181706D01*
X131901776Y-60181703D01*
X131905263Y-60181111D01*
X131908661Y-60180132D01*
X131908670Y-60180130D01*
X131925587Y-60175256D01*
X131931203Y-60173777D01*
X131961620Y-60166514D01*
X131961691Y-60166496D01*
X131962295Y-60166352D01*
X131993889Y-60158122D01*
X131994792Y-60157867D01*
X132025592Y-60148496D01*
X132060366Y-60137147D01*
X132077114Y-60131681D01*
X132081325Y-60130388D01*
X132137673Y-60114154D01*
X132141078Y-60113173D01*
X132144341Y-60111822D01*
X132144348Y-60111819D01*
X132364535Y-60020615D01*
X132364540Y-60020612D01*
X132367803Y-60019261D01*
X132386914Y-60008699D01*
X132579499Y-59902260D01*
X132582588Y-59900553D01*
X132782731Y-59758544D01*
X132785372Y-59756184D01*
X132909739Y-59645044D01*
X132916471Y-59639436D01*
X132942959Y-59618890D01*
X132942967Y-59618883D01*
X132945744Y-59616729D01*
X132958705Y-59604125D01*
X132964364Y-59598623D01*
X132964367Y-59598620D01*
X132966877Y-59596179D01*
X132996030Y-59560688D01*
X133004298Y-59551570D01*
X133619821Y-58936045D01*
X133631691Y-58925580D01*
X133652094Y-58909754D01*
X133652095Y-58909753D01*
X133654876Y-58907596D01*
X133670235Y-58892661D01*
X133673488Y-58889498D01*
X133673493Y-58889493D01*
X133676009Y-58887046D01*
X133678240Y-58884330D01*
X133678251Y-58884318D01*
X133682003Y-58879750D01*
X133684184Y-58877237D01*
X135032551Y-58877237D01*
X135052317Y-59128385D01*
X135053471Y-59133192D01*
X135053472Y-59133198D01*
X135086817Y-59272089D01*
X135111127Y-59373348D01*
X135113020Y-59377919D01*
X135113021Y-59377921D01*
X135204439Y-59598623D01*
X135207534Y-59606096D01*
X135339164Y-59820896D01*
X135342376Y-59824656D01*
X135342379Y-59824661D01*
X135458247Y-59960324D01*
X135502776Y-60012461D01*
X135510738Y-60019261D01*
X135690576Y-60172858D01*
X135690581Y-60172861D01*
X135694341Y-60176073D01*
X135909141Y-60307703D01*
X135913711Y-60309596D01*
X135913715Y-60309598D01*
X136137316Y-60402216D01*
X136141889Y-60404110D01*
X136190690Y-60415826D01*
X136382039Y-60461765D01*
X136382045Y-60461766D01*
X136386852Y-60462920D01*
X136638000Y-60482686D01*
X136889148Y-60462920D01*
X136893955Y-60461766D01*
X136893961Y-60461765D01*
X137085310Y-60415826D01*
X137134111Y-60404110D01*
X137138684Y-60402216D01*
X137362285Y-60309598D01*
X137362289Y-60309596D01*
X137366859Y-60307703D01*
X137581659Y-60176073D01*
X137585419Y-60172861D01*
X137585424Y-60172858D01*
X137765262Y-60019261D01*
X137773224Y-60012461D01*
X137817753Y-59960324D01*
X137933621Y-59824661D01*
X137933624Y-59824656D01*
X137936836Y-59820896D01*
X138068466Y-59606096D01*
X138071562Y-59598623D01*
X138162979Y-59377921D01*
X138162980Y-59377919D01*
X138164873Y-59373348D01*
X138174073Y-59335026D01*
X138726996Y-59335026D01*
X138735913Y-59572532D01*
X138784719Y-59805141D01*
X138786677Y-59810100D01*
X138786678Y-59810102D01*
X138869280Y-60019261D01*
X138872020Y-60026200D01*
X138874787Y-60030760D01*
X138874791Y-60030768D01*
X138990030Y-60220676D01*
X139008269Y-60289289D01*
X138986517Y-60356872D01*
X138971406Y-60375136D01*
X138965316Y-60381226D01*
X138850711Y-60552420D01*
X138771541Y-60742614D01*
X138730821Y-60944564D01*
X138730500Y-60950900D01*
X138730501Y-61851573D01*
X138730821Y-61857910D01*
X138771541Y-62059860D01*
X138850711Y-62250054D01*
X138965316Y-62421248D01*
X139110989Y-62566921D01*
X139282183Y-62681526D01*
X139472377Y-62760696D01*
X139605420Y-62787522D01*
X139649034Y-62796316D01*
X139674327Y-62801416D01*
X139678993Y-62801652D01*
X139678998Y-62801653D01*
X139679075Y-62801657D01*
X139679093Y-62801657D01*
X139680663Y-62801737D01*
X139682260Y-62801737D01*
X140409422Y-62801736D01*
X141131336Y-62801736D01*
X141132892Y-62801657D01*
X141132909Y-62801657D01*
X141133003Y-62801652D01*
X141133005Y-62801652D01*
X141137673Y-62801416D01*
X141162967Y-62796316D01*
X141206580Y-62787522D01*
X141339623Y-62760696D01*
X141529817Y-62681526D01*
X141701011Y-62566921D01*
X141846684Y-62421248D01*
X141961289Y-62250054D01*
X142040459Y-62059860D01*
X142081179Y-61857910D01*
X142081500Y-61851574D01*
X142081499Y-60950901D01*
X142081179Y-60944564D01*
X142040459Y-60742614D01*
X141961289Y-60552420D01*
X141846684Y-60381226D01*
X141838128Y-60372670D01*
X141804102Y-60310358D01*
X141809167Y-60239543D01*
X141826130Y-60208368D01*
X141875579Y-60141907D01*
X141983295Y-59930044D01*
X142022079Y-59805141D01*
X142052193Y-59708156D01*
X142053775Y-59703061D01*
X142068023Y-59595566D01*
X142084304Y-59472731D01*
X142084304Y-59472728D01*
X142085004Y-59467448D01*
X142076087Y-59229942D01*
X142027281Y-58997333D01*
X142015411Y-58967276D01*
X141941941Y-58781239D01*
X141941940Y-58781237D01*
X141939980Y-58776274D01*
X141929788Y-58759477D01*
X141819448Y-58577644D01*
X141816681Y-58573084D01*
X141773682Y-58523532D01*
X141664410Y-58397606D01*
X141664408Y-58397604D01*
X141660910Y-58393573D01*
X141656784Y-58390190D01*
X141656780Y-58390186D01*
X141515009Y-58273942D01*
X141477120Y-58242875D01*
X141472484Y-58240236D01*
X141472481Y-58240234D01*
X141350685Y-58170904D01*
X141270567Y-58125298D01*
X141047156Y-58044203D01*
X141015651Y-58038506D01*
X140817359Y-58002649D01*
X140817352Y-58002648D01*
X140813275Y-58001911D01*
X140795009Y-58001050D01*
X140789869Y-58000807D01*
X140789862Y-58000807D01*
X140788381Y-58000737D01*
X140071320Y-58000737D01*
X139988974Y-58007724D01*
X139899488Y-58015317D01*
X139899484Y-58015318D01*
X139894177Y-58015768D01*
X139889022Y-58017106D01*
X139889016Y-58017107D01*
X139777612Y-58046022D01*
X139664126Y-58075477D01*
X139619994Y-58095357D01*
X139452285Y-58170904D01*
X139452282Y-58170905D01*
X139447424Y-58173094D01*
X139443000Y-58176073D01*
X139442999Y-58176073D01*
X139407982Y-58199648D01*
X139250268Y-58305828D01*
X139246411Y-58309507D01*
X139246409Y-58309509D01*
X139205730Y-58348315D01*
X139078295Y-58469882D01*
X138936421Y-58660567D01*
X138828705Y-58872430D01*
X138827124Y-58877521D01*
X138827123Y-58877524D01*
X138768927Y-59064947D01*
X138758225Y-59099413D01*
X138726996Y-59335026D01*
X138174073Y-59335026D01*
X138189183Y-59272089D01*
X138222528Y-59133198D01*
X138222529Y-59133192D01*
X138223683Y-59128385D01*
X138243449Y-58877237D01*
X138223683Y-58626089D01*
X138215508Y-58592034D01*
X138167861Y-58393573D01*
X138164873Y-58381126D01*
X138152861Y-58352127D01*
X138070361Y-58152952D01*
X138070359Y-58152948D01*
X138068466Y-58148378D01*
X137936836Y-57933578D01*
X137933624Y-57929818D01*
X137933621Y-57929813D01*
X137776437Y-57745775D01*
X137773224Y-57742013D01*
X137755052Y-57726493D01*
X137585424Y-57581616D01*
X137585419Y-57581613D01*
X137581659Y-57578401D01*
X137366859Y-57446771D01*
X137362289Y-57444878D01*
X137362285Y-57444876D01*
X137138684Y-57352258D01*
X137138682Y-57352257D01*
X137134111Y-57350364D01*
X137049711Y-57330102D01*
X136893961Y-57292709D01*
X136893955Y-57292708D01*
X136889148Y-57291554D01*
X136638000Y-57271788D01*
X136386852Y-57291554D01*
X136382045Y-57292708D01*
X136382039Y-57292709D01*
X136226289Y-57330102D01*
X136141889Y-57350364D01*
X136137318Y-57352257D01*
X136137316Y-57352258D01*
X135913715Y-57444876D01*
X135913711Y-57444878D01*
X135909141Y-57446771D01*
X135694341Y-57578401D01*
X135690581Y-57581613D01*
X135690576Y-57581616D01*
X135520948Y-57726493D01*
X135502776Y-57742013D01*
X135499563Y-57745775D01*
X135342379Y-57929813D01*
X135342376Y-57929818D01*
X135339164Y-57933578D01*
X135207534Y-58148378D01*
X135205641Y-58152948D01*
X135205639Y-58152952D01*
X135123139Y-58352127D01*
X135111127Y-58381126D01*
X135108139Y-58393573D01*
X135060493Y-58592034D01*
X135052317Y-58626089D01*
X135032551Y-58877237D01*
X133684184Y-58877237D01*
X133686470Y-58874602D01*
X133945396Y-58592034D01*
X133947247Y-58590014D01*
X133963331Y-58569054D01*
X134064053Y-58437789D01*
X134192097Y-58270919D01*
X134408204Y-57931699D01*
X134593924Y-57574935D01*
X134747843Y-57203341D01*
X134822989Y-56965011D01*
X134867961Y-56822377D01*
X134867962Y-56822372D01*
X134868790Y-56819747D01*
X134955844Y-56427071D01*
X135008344Y-56028302D01*
X135023547Y-55680100D01*
X135024420Y-55669807D01*
X135025729Y-55659444D01*
X135026171Y-55655949D01*
X135026583Y-55626475D01*
X135022101Y-55580763D01*
X135021500Y-55568469D01*
X135021500Y-54084651D01*
X135022494Y-54068859D01*
X135025728Y-54043256D01*
X135026171Y-54039752D01*
X135026583Y-54010278D01*
X135026240Y-54006777D01*
X135026239Y-54006760D01*
X135025608Y-54000328D01*
X135025103Y-53992977D01*
X135024564Y-53979242D01*
X135008659Y-53574440D01*
X134997704Y-53481877D01*
X134957681Y-53143732D01*
X134957392Y-53141289D01*
X134872298Y-52713495D01*
X134793558Y-52434305D01*
X134754576Y-52296085D01*
X134754574Y-52296080D01*
X134753902Y-52293696D01*
X134602935Y-51884481D01*
X134420326Y-51488372D01*
X134207202Y-51107811D01*
X134205829Y-51105756D01*
X133966256Y-50747210D01*
X133966253Y-50747206D01*
X133964876Y-50745145D01*
X133701783Y-50411412D01*
X133696379Y-50404557D01*
X133696375Y-50404552D01*
X133694843Y-50402609D01*
X133635617Y-50338538D01*
X133434546Y-50121021D01*
X133427519Y-50112727D01*
X133419883Y-50102883D01*
X133417438Y-50100368D01*
X133417433Y-50100363D01*
X133405489Y-50088081D01*
X133401784Y-50084271D01*
X133399333Y-50081750D01*
X133391604Y-50075401D01*
X133386049Y-50070560D01*
X133361293Y-50047675D01*
X133139379Y-49842540D01*
X133080294Y-49787922D01*
X133080288Y-49787917D01*
X133078474Y-49786240D01*
X133031492Y-49749202D01*
X132853774Y-49609101D01*
X132735938Y-49516207D01*
X132657777Y-49463981D01*
X132375327Y-49275254D01*
X132375325Y-49275253D01*
X132373272Y-49273881D01*
X132146302Y-49146772D01*
X131994860Y-49061960D01*
X131994850Y-49061955D01*
X131992711Y-49060757D01*
X131596602Y-48878148D01*
X131187386Y-48727180D01*
X130767587Y-48608785D01*
X130339793Y-48523691D01*
X130204769Y-48507710D01*
X129909095Y-48472714D01*
X129909087Y-48472713D01*
X129906642Y-48472424D01*
X129523464Y-48457369D01*
X129512650Y-48456475D01*
X129500277Y-48454912D01*
X129484609Y-48454693D01*
X129474325Y-48454549D01*
X129474321Y-48454549D01*
X129470803Y-48454500D01*
X129425092Y-48458982D01*
X129412797Y-48459583D01*
X128148061Y-48459583D01*
X128079940Y-48439581D01*
X128033447Y-48385925D01*
X128023343Y-48315651D01*
X128032954Y-48282334D01*
X128045038Y-48255194D01*
X128045041Y-48255187D01*
X128046825Y-48251179D01*
X128126640Y-47972829D01*
X128166940Y-47686080D01*
X128166940Y-46208992D01*
X128166787Y-46206802D01*
X128152104Y-45996820D01*
X128152103Y-45996815D01*
X128151797Y-45992435D01*
X128091592Y-45709196D01*
X128042983Y-45575642D01*
X127994064Y-45441237D01*
X127994062Y-45441233D01*
X127992555Y-45437092D01*
X127856611Y-45181420D01*
X127686408Y-44947155D01*
X127683350Y-44943988D01*
X127488312Y-44742020D01*
X127488308Y-44742017D01*
X127485258Y-44738858D01*
X127257076Y-44560583D01*
X127188743Y-44521131D01*
X127139750Y-44469748D01*
X127126315Y-44400034D01*
X127152702Y-44334123D01*
X127181286Y-44307553D01*
X127370634Y-44179836D01*
X127374280Y-44177377D01*
X127589470Y-43983619D01*
X127775600Y-43761798D01*
X127929047Y-43516232D01*
X128046825Y-43251699D01*
X128126640Y-42973349D01*
X128166940Y-42686600D01*
X128166940Y-41209512D01*
X128166787Y-41207322D01*
X128152104Y-40997340D01*
X128152103Y-40997335D01*
X128151797Y-40992955D01*
X128091592Y-40709716D01*
X128042983Y-40576162D01*
X127994064Y-40441757D01*
X127994062Y-40441753D01*
X127992555Y-40437612D01*
X127856611Y-40181940D01*
X127686408Y-39947675D01*
X127683350Y-39944508D01*
X127488312Y-39742540D01*
X127488308Y-39742537D01*
X127485258Y-39739378D01*
X127257076Y-39561103D01*
X127006304Y-39416320D01*
X126737822Y-39307846D01*
X126456857Y-39237793D01*
X126452489Y-39237334D01*
X126452484Y-39237333D01*
X126173245Y-39207984D01*
X126173242Y-39207984D01*
X126168876Y-39207525D01*
X126164488Y-39207678D01*
X126164482Y-39207678D01*
X125883883Y-39217477D01*
X125883877Y-39217478D01*
X125879485Y-39217631D01*
X125875161Y-39218394D01*
X125875156Y-39218394D01*
X125723362Y-39245160D01*
X125594318Y-39267914D01*
X125590147Y-39269269D01*
X125590140Y-39269271D01*
X125466341Y-39309496D01*
X125318923Y-39357395D01*
X125314970Y-39359323D01*
X125314965Y-39359325D01*
X125201488Y-39414672D01*
X125058662Y-39484333D01*
X125055023Y-39486788D01*
X125055017Y-39486791D01*
X124822246Y-39643797D01*
X124822239Y-39643802D01*
X124818600Y-39646257D01*
X124603410Y-39840015D01*
X124417280Y-40061836D01*
X124263833Y-40307402D01*
X124146055Y-40571935D01*
X124066240Y-40850285D01*
X124025940Y-41137034D01*
X124025940Y-42614122D01*
X124026093Y-42616308D01*
X124026093Y-42616312D01*
X124030701Y-42682203D01*
X124041083Y-42830679D01*
X124101288Y-43113918D01*
X124102791Y-43118047D01*
X124102792Y-43118051D01*
X124152897Y-43255713D01*
X124200325Y-43386022D01*
X124336269Y-43641694D01*
X124506472Y-43875959D01*
X124509528Y-43879123D01*
X124509530Y-43879126D01*
X124613285Y-43986567D01*
X124707622Y-44084256D01*
X124935804Y-44262531D01*
X125004088Y-44301955D01*
X125004137Y-44301983D01*
X125053130Y-44353366D01*
X125066565Y-44423080D01*
X125040178Y-44488991D01*
X125011595Y-44515560D01*
X124818600Y-44645737D01*
X124603410Y-44839495D01*
X124417280Y-45061316D01*
X124263833Y-45306882D01*
X124146055Y-45571415D01*
X124066240Y-45849765D01*
X124025940Y-46136514D01*
X124025940Y-47162568D01*
X124005938Y-47230689D01*
X123952282Y-47277182D01*
X123882008Y-47287286D01*
X123817428Y-47257792D01*
X123779044Y-47198066D01*
X123776537Y-47188018D01*
X123770335Y-47157947D01*
X123770268Y-47157621D01*
X123766453Y-47140114D01*
X123766337Y-47139609D01*
X123761959Y-47121520D01*
X123684477Y-46816870D01*
X123671524Y-46771566D01*
X123671107Y-46770255D01*
X123655540Y-46725878D01*
X123533400Y-46407914D01*
X123507605Y-46348146D01*
X123506780Y-46346430D01*
X123506175Y-46345293D01*
X123506163Y-46345269D01*
X123483261Y-46302219D01*
X123468500Y-46243043D01*
X123468500Y-46208992D01*
X123468347Y-46206802D01*
X123453664Y-45996820D01*
X123453663Y-45996815D01*
X123453357Y-45992435D01*
X123393152Y-45709196D01*
X123344543Y-45575642D01*
X123295624Y-45441237D01*
X123295622Y-45441233D01*
X123294115Y-45437092D01*
X123158171Y-45181420D01*
X122987968Y-44947155D01*
X122984910Y-44943988D01*
X122789872Y-44742020D01*
X122789868Y-44742017D01*
X122786818Y-44738858D01*
X122558636Y-44560583D01*
X122490303Y-44521131D01*
X122441310Y-44469748D01*
X122427875Y-44400034D01*
X122454262Y-44334123D01*
X122482846Y-44307553D01*
X122672194Y-44179836D01*
X122675840Y-44177377D01*
X122891030Y-43983619D01*
X123077160Y-43761798D01*
X123230607Y-43516232D01*
X123348385Y-43251699D01*
X123428200Y-42973349D01*
X123468500Y-42686600D01*
X123468500Y-41209512D01*
X123468347Y-41207322D01*
X123453664Y-40997340D01*
X123453663Y-40997335D01*
X123453357Y-40992955D01*
X123393152Y-40709716D01*
X123344543Y-40576162D01*
X123295624Y-40441757D01*
X123295622Y-40441753D01*
X123294115Y-40437612D01*
X123158171Y-40181940D01*
X122987968Y-39947675D01*
X122984910Y-39944508D01*
X122789872Y-39742540D01*
X122789868Y-39742537D01*
X122786818Y-39739378D01*
X122558636Y-39561103D01*
X122307864Y-39416320D01*
X122039382Y-39307846D01*
X121758417Y-39237793D01*
X121754049Y-39237334D01*
X121754044Y-39237333D01*
X121474805Y-39207984D01*
X121474802Y-39207984D01*
X121470436Y-39207525D01*
X121466048Y-39207678D01*
X121466042Y-39207678D01*
X121185443Y-39217477D01*
X121185437Y-39217478D01*
X121181045Y-39217631D01*
X121176721Y-39218394D01*
X121176716Y-39218394D01*
X121024922Y-39245160D01*
X120895878Y-39267914D01*
X120891707Y-39269269D01*
X120891700Y-39269271D01*
X120767901Y-39309496D01*
X120620483Y-39357395D01*
X120616530Y-39359323D01*
X120616525Y-39359325D01*
X120503048Y-39414672D01*
X120360222Y-39484333D01*
X120356583Y-39486788D01*
X120356577Y-39486791D01*
X120123806Y-39643797D01*
X120123799Y-39643802D01*
X120120160Y-39646257D01*
X119904970Y-39840015D01*
X119718840Y-40061836D01*
X119565393Y-40307402D01*
X119447615Y-40571935D01*
X119367800Y-40850285D01*
X119327500Y-41137034D01*
X119327500Y-42614122D01*
X119327653Y-42616308D01*
X119327653Y-42616312D01*
X119332261Y-42682203D01*
X119342643Y-42830679D01*
X119402848Y-43113918D01*
X119404351Y-43118047D01*
X119404352Y-43118051D01*
X119454457Y-43255713D01*
X119501885Y-43386022D01*
X119637829Y-43641694D01*
X119808032Y-43875959D01*
X119811088Y-43879123D01*
X119811090Y-43879126D01*
X119914845Y-43986567D01*
X120009182Y-44084256D01*
X120237364Y-44262531D01*
X120305648Y-44301955D01*
X120305697Y-44301983D01*
X120354690Y-44353366D01*
X120368125Y-44423080D01*
X120341738Y-44488991D01*
X120313155Y-44515560D01*
X120120160Y-44645737D01*
X119904970Y-44839495D01*
X119718840Y-45061316D01*
X119565393Y-45306882D01*
X119447615Y-45571415D01*
X119367800Y-45849765D01*
X119327500Y-46136514D01*
X119327500Y-47613602D01*
X118766940Y-47613602D01*
X118766940Y-46208992D01*
X118766787Y-46206802D01*
X118752104Y-45996820D01*
X118752103Y-45996815D01*
X118751797Y-45992435D01*
X118691592Y-45709196D01*
X118642983Y-45575642D01*
X118594064Y-45441237D01*
X118594062Y-45441233D01*
X118592555Y-45437092D01*
X118456611Y-45181420D01*
X118286408Y-44947155D01*
X118283350Y-44943988D01*
X118088312Y-44742020D01*
X118088308Y-44742017D01*
X118085258Y-44738858D01*
X117857076Y-44560583D01*
X117788743Y-44521131D01*
X117739750Y-44469748D01*
X117726315Y-44400034D01*
X117752702Y-44334123D01*
X117781286Y-44307553D01*
X117970634Y-44179836D01*
X117974280Y-44177377D01*
X118189470Y-43983619D01*
X118375600Y-43761798D01*
X118529047Y-43516232D01*
X118646825Y-43251699D01*
X118726640Y-42973349D01*
X118766940Y-42686600D01*
X118766940Y-41209512D01*
X118766787Y-41207322D01*
X118752104Y-40997340D01*
X118752103Y-40997335D01*
X118751797Y-40992955D01*
X118691592Y-40709716D01*
X118642983Y-40576162D01*
X118594064Y-40441757D01*
X118594062Y-40441753D01*
X118592555Y-40437612D01*
X118456611Y-40181940D01*
X118286408Y-39947675D01*
X118283350Y-39944508D01*
X118088312Y-39742540D01*
X118088308Y-39742537D01*
X118085258Y-39739378D01*
X117857076Y-39561103D01*
X117606304Y-39416320D01*
X117337822Y-39307846D01*
X117056857Y-39237793D01*
X117052489Y-39237334D01*
X117052484Y-39237333D01*
X116773245Y-39207984D01*
X116773242Y-39207984D01*
X116768876Y-39207525D01*
X116764488Y-39207678D01*
X116764482Y-39207678D01*
X116483883Y-39217477D01*
X116483877Y-39217478D01*
X116479485Y-39217631D01*
X116475161Y-39218394D01*
X116475156Y-39218394D01*
X116323362Y-39245160D01*
X116194318Y-39267914D01*
X116190147Y-39269269D01*
X116190140Y-39269271D01*
X116066341Y-39309496D01*
X115918923Y-39357395D01*
X115914970Y-39359323D01*
X115914965Y-39359325D01*
X115801488Y-39414672D01*
X115658662Y-39484333D01*
X115655023Y-39486788D01*
X115655017Y-39486791D01*
X115422246Y-39643797D01*
X115422239Y-39643802D01*
X115418600Y-39646257D01*
X115203410Y-39840015D01*
X115017280Y-40061836D01*
X114863833Y-40307402D01*
X114746055Y-40571935D01*
X114666240Y-40850285D01*
X114625940Y-41137034D01*
X114625940Y-42614122D01*
X114626093Y-42616308D01*
X114626093Y-42616312D01*
X114630701Y-42682203D01*
X114641083Y-42830679D01*
X114701288Y-43113918D01*
X114702791Y-43118047D01*
X114702792Y-43118051D01*
X114752897Y-43255713D01*
X114800325Y-43386022D01*
X114936269Y-43641694D01*
X115106472Y-43875959D01*
X115109528Y-43879123D01*
X115109530Y-43879126D01*
X115213285Y-43986567D01*
X115307622Y-44084256D01*
X115535804Y-44262531D01*
X115604088Y-44301955D01*
X115604137Y-44301983D01*
X115653130Y-44353366D01*
X115666565Y-44423080D01*
X115640178Y-44488991D01*
X115611595Y-44515560D01*
X115418600Y-44645737D01*
X115203410Y-44839495D01*
X115017280Y-45061316D01*
X114863833Y-45306882D01*
X114746055Y-45571415D01*
X114666240Y-45849765D01*
X114625940Y-46136514D01*
X114625940Y-47613602D01*
X98590000Y-47613602D01*
X98590000Y-35296057D01*
X98610002Y-35227936D01*
X98622049Y-35212097D01*
X98663965Y-35165193D01*
X98673956Y-35155202D01*
X98720860Y-35113286D01*
X98784982Y-35082808D01*
X98804820Y-35081237D01*
X143660380Y-35081237D01*
X143728501Y-35101239D01*
G37*
G04 #@! TD.AperFunction*
G04 #@! TA.AperFunction,Conductor*
G36*
X122297459Y-46016406D02*
G01*
X122301143Y-46019295D01*
X122590420Y-46359724D01*
X122591601Y-46361389D01*
X122785778Y-46693066D01*
X122786603Y-46694782D01*
X122908743Y-47012746D01*
X122909160Y-47014057D01*
X122986642Y-47318707D01*
X122986758Y-47319212D01*
X123046851Y-47610587D01*
X123116852Y-47888208D01*
X123224146Y-48151796D01*
X123396170Y-48401312D01*
X123396687Y-48401773D01*
X123396690Y-48401776D01*
X123659910Y-48636321D01*
X123660357Y-48636719D01*
X123660873Y-48637016D01*
X123660875Y-48637018D01*
X123743467Y-48684634D01*
X124034800Y-48852594D01*
X124040254Y-48859694D01*
X124039531Y-48867732D01*
X123835284Y-49299474D01*
X123828649Y-49305487D01*
X123819801Y-49305092D01*
X123432000Y-49125911D01*
X123431916Y-49125872D01*
X123100751Y-48981135D01*
X122820020Y-48865907D01*
X122819987Y-48865894D01*
X122819964Y-48865885D01*
X122572911Y-48770352D01*
X122342613Y-48684634D01*
X122112437Y-48598960D01*
X122112298Y-48598908D01*
X121865314Y-48503402D01*
X121865091Y-48503313D01*
X121584596Y-48388182D01*
X121584353Y-48388079D01*
X121432963Y-48321913D01*
X121253376Y-48243425D01*
X121253205Y-48243347D01*
X120862144Y-48062660D01*
X120856071Y-48056079D01*
X120855371Y-48051351D01*
X120916521Y-47013390D01*
X120948522Y-46470192D01*
X120952430Y-46462135D01*
X120956501Y-46459781D01*
X122288528Y-46015771D01*
X122297459Y-46016406D01*
G37*
G04 #@! TD.AperFunction*
G04 #@! TA.AperFunction,Conductor*
G36*
X131062318Y-58788647D02*
G01*
X131063718Y-58788813D01*
X131158368Y-58805894D01*
X131159592Y-58806184D01*
X131240258Y-58829915D01*
X131241046Y-58830177D01*
X131291469Y-58848991D01*
X131312456Y-58856821D01*
X131315368Y-58857945D01*
X131378580Y-58882347D01*
X131378590Y-58882351D01*
X131378752Y-58882413D01*
X131443942Y-58902854D01*
X131477541Y-58908417D01*
X131511877Y-58914102D01*
X131511881Y-58914102D01*
X131512417Y-58914191D01*
X131512961Y-58914179D01*
X131512965Y-58914179D01*
X131548373Y-58913379D01*
X131588567Y-58912471D01*
X131589104Y-58912357D01*
X131676340Y-58893832D01*
X131676342Y-58893832D01*
X131676782Y-58893738D01*
X131771158Y-58857945D01*
X131780109Y-58858216D01*
X131785975Y-58864081D01*
X131906948Y-59132720D01*
X131929157Y-59182037D01*
X131981793Y-59298924D01*
X131982066Y-59307875D01*
X131975579Y-59314547D01*
X131873509Y-59356568D01*
X131872690Y-59356870D01*
X131777381Y-59387976D01*
X131776478Y-59388231D01*
X131720130Y-59401687D01*
X131694311Y-59407853D01*
X131693477Y-59408020D01*
X131619858Y-59420038D01*
X131619374Y-59420106D01*
X131549698Y-59428354D01*
X131479909Y-59436614D01*
X131479900Y-59436615D01*
X131479784Y-59436629D01*
X131479658Y-59436650D01*
X131479655Y-59436650D01*
X131405716Y-59448720D01*
X131405714Y-59448720D01*
X131405496Y-59448756D01*
X131322459Y-59468586D01*
X131322264Y-59468650D01*
X131322252Y-59468653D01*
X131226509Y-59499901D01*
X131226498Y-59499905D01*
X131226299Y-59499970D01*
X131226091Y-59500056D01*
X131226090Y-59500056D01*
X131119860Y-59543790D01*
X131110905Y-59543771D01*
X131107127Y-59541239D01*
X130754355Y-59188000D01*
X130750934Y-59179724D01*
X130752169Y-59174500D01*
X130944953Y-58788932D01*
X130951718Y-58783064D01*
X130956096Y-58782484D01*
X131062318Y-58788647D01*
G37*
G04 #@! TD.AperFunction*
M02*
