M48
; DRILL file {KiCad (6.0.0)} date Tue Jul 26 20:36:19 2022
; FORMAT={-:-/ absolute / metric / decimal}
; #@! TF.CreationDate,2022-07-26T20:36:19+02:00
; #@! TF.GenerationSoftware,Kicad,Pcbnew,(6.0.0)
; #@! TF.FileFunction,Plated,1,2,PTH
FMAT,2
METRIC
; #@! TA.AperFunction,Plated,PTH,ViaDrill
T1C0.400
; #@! TA.AperFunction,Plated,PTH,ComponentDrill
T2C0.700
; #@! TA.AperFunction,Plated,PTH,ComponentDrill
T3C0.750
; #@! TA.AperFunction,Plated,PTH,ComponentDrill
T4C0.800
; #@! TA.AperFunction,Plated,PTH,ComponentDrill
T5C1.200
; #@! TA.AperFunction,Plated,PTH,ComponentDrill
T6C1.270
%
G90
G05
T1
X99.0Y-36.0
X99.0Y-45.0
X99.0Y-54.0
X99.0Y-63.0
X99.0Y-72.0
X99.0Y-81.0
X99.06Y-88.265
X99.111Y-100.228
X108.0Y-36.0
X108.661Y-100.381
X116.578Y-100.432
X125.578Y-100.432
X126.0Y-36.0
X130.948Y-59.182
X134.578Y-100.432
X135.0Y-36.0
X143.358Y-100.432
X143.408Y-36.068
X143.408Y-45.0
X143.408Y-53.95
X143.459Y-60.96
X143.459Y-92.354
T2
X124.171Y-98.54
T3
X104.996Y-84.277
X106.996Y-84.277
X108.996Y-84.277
X114.038Y-84.277
X116.038Y-84.277
X118.038Y-84.277
X119.874Y-66.523
X119.89Y-59.851
X121.874Y-66.523
X121.89Y-59.851
X123.157Y-84.404
X125.157Y-84.404
X140.406Y-59.401
X140.406Y-61.401
X140.406Y-66.513
X140.406Y-68.513
T4
X100.932Y-71.069
X100.932Y-74.371
X100.932Y-77.673
X100.951Y-80.467
X100.951Y-85.467
X101.948Y-89.357
X101.948Y-99.517
X102.39Y-59.523
X102.39Y-62.063
X102.39Y-64.603
X102.39Y-67.143
X106.52Y-89.357
X106.52Y-99.517
X110.01Y-59.523
X110.01Y-62.063
X110.01Y-64.603
X110.01Y-67.143
X111.092Y-71.069
X111.092Y-74.371
X111.092Y-77.673
X111.6Y-89.865
X113.79Y-72.323
X113.79Y-77.423
X114.14Y-89.865
X114.29Y-59.223
X114.29Y-64.223
X116.68Y-89.865
X118.79Y-72.323
X118.79Y-77.423
X124.192Y-90.199
X124.192Y-95.199
X124.3Y-73.101
X125.316Y-76.443
X125.316Y-78.943
X126.478Y-58.877
X126.478Y-62.179
X126.558Y-67.005
X130.796Y-82.245
X130.796Y-92.405
X131.558Y-67.005
X133.952Y-76.689
X133.952Y-78.689
X134.098Y-62.179
X134.46Y-73.101
X135.876Y-82.245
X135.876Y-92.405
X136.638Y-58.877
X140.702Y-73.395
X140.702Y-78.395
X140.702Y-82.245
X140.702Y-92.405
T5
X128.002Y-97.485
X140.702Y-97.485
T6
X116.696Y-41.277G85X116.696Y-42.547
G05
X116.696Y-46.276G85X116.696Y-47.546
G05
X116.697Y-51.377G85X116.697Y-52.647
G05
X121.398Y-41.277G85X121.398Y-42.547
G05
X121.398Y-46.276G85X121.398Y-47.546
G05
X121.399Y-51.377G85X121.399Y-52.647
G05
X126.096Y-41.277G85X126.096Y-42.547
G05
X126.096Y-46.276G85X126.096Y-47.546
G05
X126.097Y-51.377G85X126.097Y-52.647
G05
T0
M30
