G04 #@! TF.GenerationSoftware,KiCad,Pcbnew,(6.0.0)*
G04 #@! TF.CreationDate,2022-07-26T20:36:16+02:00*
G04 #@! TF.ProjectId,ray,7261792e-6b69-4636-9164-5f7063625858,rev?*
G04 #@! TF.SameCoordinates,Original*
G04 #@! TF.FileFunction,Soldermask,Top*
G04 #@! TF.FilePolarity,Negative*
%FSLAX46Y46*%
G04 Gerber Fmt 4.6, Leading zero omitted, Abs format (unit mm)*
G04 Created by KiCad (PCBNEW (6.0.0)) date 2022-07-26 20:36:16*
%MOMM*%
%LPD*%
G01*
G04 APERTURE LIST*
G04 Aperture macros list*
%AMRoundRect*
0 Rectangle with rounded corners*
0 $1 Rounding radius*
0 $2 $3 $4 $5 $6 $7 $8 $9 X,Y pos of 4 corners*
0 Add a 4 corners polygon primitive as box body*
4,1,4,$2,$3,$4,$5,$6,$7,$8,$9,$2,$3,0*
0 Add four circle primitives for the rounded corners*
1,1,$1+$1,$2,$3*
1,1,$1+$1,$4,$5*
1,1,$1+$1,$6,$7*
1,1,$1+$1,$8,$9*
0 Add four rect primitives between the rounded corners*
20,1,$1+$1,$2,$3,$4,$5,0*
20,1,$1+$1,$4,$5,$6,$7,0*
20,1,$1+$1,$6,$7,$8,$9,0*
20,1,$1+$1,$8,$9,$2,$3,0*%
G04 Aperture macros list end*
%ADD10C,1.600000*%
%ADD11O,1.600000X1.600000*%
%ADD12RoundRect,0.250000X-0.350000X-0.625000X0.350000X-0.625000X0.350000X0.625000X-0.350000X0.625000X0*%
%ADD13O,1.200000X1.750000*%
%ADD14R,1.600000X1.600000*%
%ADD15C,1.440000*%
%ADD16RoundRect,0.250000X0.625000X-0.350000X0.625000X0.350000X-0.625000X0.350000X-0.625000X-0.350000X0*%
%ADD17O,1.750000X1.200000*%
%ADD18R,2.400000X1.600000*%
%ADD19O,2.400000X1.600000*%
%ADD20R,2.400000X2.400000*%
%ADD21O,2.400000X2.400000*%
%ADD22R,1.900000X0.800000*%
%ADD23R,1.500000X1.500000*%
%ADD24O,2.743200X4.003200*%
G04 APERTURE END LIST*
D10*
X124192000Y-95199237D03*
X124192000Y-90199237D03*
X134460000Y-73101237D03*
D11*
X124300000Y-73101237D03*
D10*
X111092000Y-71069237D03*
D11*
X100932000Y-71069237D03*
D10*
X130796000Y-82245237D03*
D11*
X130796000Y-92405237D03*
D12*
X119874000Y-66523237D03*
D13*
X121874000Y-66523237D03*
D10*
X100932000Y-74371237D03*
D11*
X111092000Y-74371237D03*
D14*
X125316000Y-78943237D03*
D10*
X125316000Y-76443237D03*
X111092000Y-77673237D03*
D11*
X100932000Y-77673237D03*
D10*
X118790000Y-77423237D03*
X113790000Y-77423237D03*
D12*
X114038400Y-84277237D03*
D13*
X116038400Y-84277237D03*
X118038400Y-84277237D03*
D10*
X118790000Y-72323237D03*
X113790000Y-72323237D03*
X140702000Y-92405237D03*
D11*
X140702000Y-82245237D03*
D15*
X116680000Y-89865237D03*
X114140000Y-89865237D03*
X111600000Y-89865237D03*
D16*
X140406000Y-61401237D03*
D17*
X140406000Y-59401237D03*
D10*
X114290000Y-64223237D03*
X114290000Y-59223237D03*
X100951000Y-80467237D03*
X100951000Y-85467237D03*
X131558000Y-67005237D03*
X126558000Y-67005237D03*
D14*
X133952000Y-78689237D03*
D10*
X133952000Y-76689237D03*
X140702000Y-73395237D03*
X140702000Y-78395237D03*
D18*
X102390000Y-59523237D03*
D19*
X102390000Y-62063237D03*
X102390000Y-64603237D03*
X102390000Y-67143237D03*
X110010000Y-67143237D03*
X110010000Y-64603237D03*
X110010000Y-62063237D03*
X110010000Y-59523237D03*
D12*
X104996000Y-84277237D03*
D13*
X106996000Y-84277237D03*
X108996000Y-84277237D03*
D20*
X128002000Y-97485237D03*
D21*
X140702000Y-97485237D03*
D12*
X123157000Y-84404237D03*
D13*
X125157000Y-84404237D03*
D22*
X115024000Y-98943237D03*
X115024000Y-97043237D03*
X112024000Y-97993237D03*
D10*
X106520000Y-89357237D03*
D11*
X106520000Y-99517237D03*
D16*
X140406000Y-68513237D03*
D17*
X140406000Y-66513237D03*
D10*
X135876000Y-92405237D03*
D11*
X135876000Y-82245237D03*
D23*
X124170612Y-98540204D03*
D10*
X101948000Y-99517237D03*
D11*
X101948000Y-89357237D03*
D12*
X119890000Y-59851237D03*
D13*
X121890000Y-59851237D03*
D14*
X126478000Y-62179237D03*
D11*
X134098000Y-62179237D03*
D10*
X126478000Y-58877237D03*
D11*
X136638000Y-58877237D03*
D24*
X116696440Y-41911817D03*
X121398000Y-41911817D03*
X126096440Y-41911817D03*
X116696440Y-46911297D03*
X121398000Y-46911297D03*
X126096440Y-46911297D03*
X116697200Y-52011817D03*
X121398760Y-52011817D03*
X126097200Y-52011817D03*
M02*
