G04 #@! TF.GenerationSoftware,KiCad,Pcbnew,(6.0.9)*
G04 #@! TF.CreationDate,2022-12-03T16:12:52+01:00*
G04 #@! TF.ProjectId,ray-rounded,7261792d-726f-4756-9e64-65642e6b6963,rev?*
G04 #@! TF.SameCoordinates,Original*
G04 #@! TF.FileFunction,Legend,Top*
G04 #@! TF.FilePolarity,Positive*
%FSLAX46Y46*%
G04 Gerber Fmt 4.6, Leading zero omitted, Abs format (unit mm)*
G04 Created by KiCad (PCBNEW (6.0.9)) date 2022-12-03 16:12:52*
%MOMM*%
%LPD*%
G01*
G04 APERTURE LIST*
G04 Aperture macros list*
%AMRoundRect*
0 Rectangle with rounded corners*
0 $1 Rounding radius*
0 $2 $3 $4 $5 $6 $7 $8 $9 X,Y pos of 4 corners*
0 Add a 4 corners polygon primitive as box body*
4,1,4,$2,$3,$4,$5,$6,$7,$8,$9,$2,$3,0*
0 Add four circle primitives for the rounded corners*
1,1,$1+$1,$2,$3*
1,1,$1+$1,$4,$5*
1,1,$1+$1,$6,$7*
1,1,$1+$1,$8,$9*
0 Add four rect primitives between the rounded corners*
20,1,$1+$1,$2,$3,$4,$5,0*
20,1,$1+$1,$4,$5,$6,$7,0*
20,1,$1+$1,$6,$7,$8,$9,0*
20,1,$1+$1,$8,$9,$2,$3,0*%
%AMHorizOval*
0 Thick line with rounded ends*
0 $1 width*
0 $2 $3 position (X,Y) of the first rounded end (center of the circle)*
0 $4 $5 position (X,Y) of the second rounded end (center of the circle)*
0 Add line between two ends*
20,1,$1,$2,$3,$4,$5,0*
0 Add two circle primitives to create the rounded ends*
1,1,$1,$2,$3*
1,1,$1,$4,$5*%
G04 Aperture macros list end*
%ADD10C,0.150000*%
%ADD11C,0.127000*%
%ADD12C,0.120000*%
%ADD13C,1.600000*%
%ADD14C,1.440000*%
%ADD15O,1.600000X1.600000*%
%ADD16R,1.600000X1.600000*%
%ADD17R,1.500000X1.500000*%
%ADD18RoundRect,0.250000X0.350000X0.625000X-0.350000X0.625000X-0.350000X-0.625000X0.350000X-0.625000X0*%
%ADD19O,1.200000X1.750000*%
%ADD20O,2.203200X8.203200*%
%ADD21HorizOval,2.203200X-1.414214X1.414214X1.414214X-1.414214X0*%
%ADD22O,8.203200X2.203200*%
%ADD23R,2.400000X1.600000*%
%ADD24O,2.400000X1.600000*%
%ADD25HorizOval,2.203200X-1.414214X-1.414214X1.414214X1.414214X0*%
%ADD26R,2.400000X2.400000*%
%ADD27O,2.400000X2.400000*%
%ADD28R,1.700000X1.700000*%
%ADD29O,1.700000X1.700000*%
%ADD30R,1.900000X0.800000*%
%ADD31C,2.200000*%
%ADD32RoundRect,0.250000X-0.350000X-0.625000X0.350000X-0.625000X0.350000X0.625000X-0.350000X0.625000X0*%
%ADD33O,2.743200X4.003200*%
G04 APERTURE END LIST*
D10*
X120107333Y-114911142D02*
X120059714Y-114958761D01*
X119916857Y-115006380D01*
X119821619Y-115006380D01*
X119678761Y-114958761D01*
X119583523Y-114863523D01*
X119535904Y-114768285D01*
X119488285Y-114577809D01*
X119488285Y-114434952D01*
X119535904Y-114244476D01*
X119583523Y-114149238D01*
X119678761Y-114054000D01*
X119821619Y-114006380D01*
X119916857Y-114006380D01*
X120059714Y-114054000D01*
X120107333Y-114101619D01*
X121012095Y-114006380D02*
X120535904Y-114006380D01*
X120488285Y-114482571D01*
X120535904Y-114434952D01*
X120631142Y-114387333D01*
X120869238Y-114387333D01*
X120964476Y-114434952D01*
X121012095Y-114482571D01*
X121059714Y-114577809D01*
X121059714Y-114815904D01*
X121012095Y-114911142D01*
X120964476Y-114958761D01*
X120869238Y-115006380D01*
X120631142Y-115006380D01*
X120535904Y-114958761D01*
X120488285Y-114911142D01*
X118432380Y-128889371D02*
X118575238Y-128936990D01*
X118622857Y-128984609D01*
X118670476Y-129079847D01*
X118670476Y-129222704D01*
X118622857Y-129317942D01*
X118575238Y-129365561D01*
X118480000Y-129413180D01*
X118099047Y-129413180D01*
X118099047Y-128413180D01*
X118432380Y-128413180D01*
X118527619Y-128460800D01*
X118575238Y-128508419D01*
X118622857Y-128603657D01*
X118622857Y-128698895D01*
X118575238Y-128794133D01*
X118527619Y-128841752D01*
X118432380Y-128889371D01*
X118099047Y-128889371D01*
X119099047Y-129413180D02*
X119099047Y-128413180D01*
X119527619Y-129127466D02*
X120003809Y-129127466D01*
X119432380Y-129413180D02*
X119765714Y-128413180D01*
X120099047Y-129413180D01*
X120384761Y-129365561D02*
X120527619Y-129413180D01*
X120765714Y-129413180D01*
X120860952Y-129365561D01*
X120908571Y-129317942D01*
X120956190Y-129222704D01*
X120956190Y-129127466D01*
X120908571Y-129032228D01*
X120860952Y-128984609D01*
X120765714Y-128936990D01*
X120575238Y-128889371D01*
X120480000Y-128841752D01*
X120432380Y-128794133D01*
X120384761Y-128698895D01*
X120384761Y-128603657D01*
X120432380Y-128508419D01*
X120480000Y-128460800D01*
X120575238Y-128413180D01*
X120813333Y-128413180D01*
X120956190Y-128460800D01*
X121908571Y-129413180D02*
X121337142Y-129413180D01*
X121622857Y-129413180D02*
X121622857Y-128413180D01*
X121527619Y-128556038D01*
X121432380Y-128651276D01*
X121337142Y-128698895D01*
X107018142Y-90261380D02*
X106684809Y-89785190D01*
X106446714Y-90261380D02*
X106446714Y-89261380D01*
X106827666Y-89261380D01*
X106922904Y-89309000D01*
X106970523Y-89356619D01*
X107018142Y-89451857D01*
X107018142Y-89594714D01*
X106970523Y-89689952D01*
X106922904Y-89737571D01*
X106827666Y-89785190D01*
X106446714Y-89785190D01*
X107970523Y-90261380D02*
X107399095Y-90261380D01*
X107684809Y-90261380D02*
X107684809Y-89261380D01*
X107589571Y-89404238D01*
X107494333Y-89499476D01*
X107399095Y-89547095D01*
X108589571Y-89261380D02*
X108684809Y-89261380D01*
X108780047Y-89309000D01*
X108827666Y-89356619D01*
X108875285Y-89451857D01*
X108922904Y-89642333D01*
X108922904Y-89880428D01*
X108875285Y-90070904D01*
X108827666Y-90166142D01*
X108780047Y-90213761D01*
X108684809Y-90261380D01*
X108589571Y-90261380D01*
X108494333Y-90213761D01*
X108446714Y-90166142D01*
X108399095Y-90070904D01*
X108351476Y-89880428D01*
X108351476Y-89642333D01*
X108399095Y-89451857D01*
X108446714Y-89356619D01*
X108494333Y-89309000D01*
X108589571Y-89261380D01*
X141423333Y-126707542D02*
X141375714Y-126755161D01*
X141232857Y-126802780D01*
X141137619Y-126802780D01*
X140994761Y-126755161D01*
X140899523Y-126659923D01*
X140851904Y-126564685D01*
X140804285Y-126374209D01*
X140804285Y-126231352D01*
X140851904Y-126040876D01*
X140899523Y-125945638D01*
X140994761Y-125850400D01*
X141137619Y-125802780D01*
X141232857Y-125802780D01*
X141375714Y-125850400D01*
X141423333Y-125898019D01*
X141994761Y-126231352D02*
X141899523Y-126183733D01*
X141851904Y-126136114D01*
X141804285Y-126040876D01*
X141804285Y-125993257D01*
X141851904Y-125898019D01*
X141899523Y-125850400D01*
X141994761Y-125802780D01*
X142185238Y-125802780D01*
X142280476Y-125850400D01*
X142328095Y-125898019D01*
X142375714Y-125993257D01*
X142375714Y-126040876D01*
X142328095Y-126136114D01*
X142280476Y-126183733D01*
X142185238Y-126231352D01*
X141994761Y-126231352D01*
X141899523Y-126278971D01*
X141851904Y-126326590D01*
X141804285Y-126421828D01*
X141804285Y-126612304D01*
X141851904Y-126707542D01*
X141899523Y-126755161D01*
X141994761Y-126802780D01*
X142185238Y-126802780D01*
X142280476Y-126755161D01*
X142328095Y-126707542D01*
X142375714Y-126612304D01*
X142375714Y-126421828D01*
X142328095Y-126326590D01*
X142280476Y-126278971D01*
X142185238Y-126231352D01*
X126500095Y-126960380D02*
X127071523Y-126960380D01*
X126785809Y-127960380D02*
X126785809Y-126960380D01*
X127404857Y-127960380D02*
X127404857Y-126960380D01*
X127785809Y-126960380D01*
X127881047Y-127008000D01*
X127928666Y-127055619D01*
X127976285Y-127150857D01*
X127976285Y-127293714D01*
X127928666Y-127388952D01*
X127881047Y-127436571D01*
X127785809Y-127484190D01*
X127404857Y-127484190D01*
X128928666Y-127960380D02*
X128357238Y-127960380D01*
X128642952Y-127960380D02*
X128642952Y-126960380D01*
X128547714Y-127103238D01*
X128452476Y-127198476D01*
X128357238Y-127246095D01*
X128068333Y-90261380D02*
X127735000Y-89785190D01*
X127496904Y-90261380D02*
X127496904Y-89261380D01*
X127877857Y-89261380D01*
X127973095Y-89309000D01*
X128020714Y-89356619D01*
X128068333Y-89451857D01*
X128068333Y-89594714D01*
X128020714Y-89689952D01*
X127973095Y-89737571D01*
X127877857Y-89785190D01*
X127496904Y-89785190D01*
X128973095Y-89261380D02*
X128496904Y-89261380D01*
X128449285Y-89737571D01*
X128496904Y-89689952D01*
X128592142Y-89642333D01*
X128830238Y-89642333D01*
X128925476Y-89689952D01*
X128973095Y-89737571D01*
X129020714Y-89832809D01*
X129020714Y-90070904D01*
X128973095Y-90166142D01*
X128925476Y-90213761D01*
X128830238Y-90261380D01*
X128592142Y-90261380D01*
X128496904Y-90213761D01*
X128449285Y-90166142D01*
X135815333Y-114804142D02*
X135767714Y-114851761D01*
X135624857Y-114899380D01*
X135529619Y-114899380D01*
X135386761Y-114851761D01*
X135291523Y-114756523D01*
X135243904Y-114661285D01*
X135196285Y-114470809D01*
X135196285Y-114327952D01*
X135243904Y-114137476D01*
X135291523Y-114042238D01*
X135386761Y-113947000D01*
X135529619Y-113899380D01*
X135624857Y-113899380D01*
X135767714Y-113947000D01*
X135815333Y-113994619D01*
X136196285Y-113994619D02*
X136243904Y-113947000D01*
X136339142Y-113899380D01*
X136577238Y-113899380D01*
X136672476Y-113947000D01*
X136720095Y-113994619D01*
X136767714Y-114089857D01*
X136767714Y-114185095D01*
X136720095Y-114327952D01*
X136148666Y-114899380D01*
X136767714Y-114899380D01*
X103354133Y-115032742D02*
X103306514Y-115080361D01*
X103163657Y-115127980D01*
X103068419Y-115127980D01*
X102925561Y-115080361D01*
X102830323Y-114985123D01*
X102782704Y-114889885D01*
X102735085Y-114699409D01*
X102735085Y-114556552D01*
X102782704Y-114366076D01*
X102830323Y-114270838D01*
X102925561Y-114175600D01*
X103068419Y-114127980D01*
X103163657Y-114127980D01*
X103306514Y-114175600D01*
X103354133Y-114223219D01*
X104306514Y-115127980D02*
X103735085Y-115127980D01*
X104020800Y-115127980D02*
X104020800Y-114127980D01*
X103925561Y-114270838D01*
X103830323Y-114366076D01*
X103735085Y-114413695D01*
X118440476Y-87700380D02*
X118440476Y-86700380D01*
X118821428Y-86700380D01*
X118916666Y-86748000D01*
X118964285Y-86795619D01*
X119011904Y-86890857D01*
X119011904Y-87033714D01*
X118964285Y-87128952D01*
X118916666Y-87176571D01*
X118821428Y-87224190D01*
X118440476Y-87224190D01*
X119345238Y-86700380D02*
X119583333Y-87700380D01*
X119773809Y-86986095D01*
X119964285Y-87700380D01*
X120202380Y-86700380D01*
X121154761Y-87700380D02*
X120821428Y-87224190D01*
X120583333Y-87700380D02*
X120583333Y-86700380D01*
X120964285Y-86700380D01*
X121059523Y-86748000D01*
X121107142Y-86795619D01*
X121154761Y-86890857D01*
X121154761Y-87033714D01*
X121107142Y-87128952D01*
X121059523Y-87176571D01*
X120964285Y-87224190D01*
X120583333Y-87224190D01*
X122107142Y-87700380D02*
X121535714Y-87700380D01*
X121821428Y-87700380D02*
X121821428Y-86700380D01*
X121726190Y-86843238D01*
X121630952Y-86938476D01*
X121535714Y-86986095D01*
X110923333Y-90261380D02*
X110590000Y-89785190D01*
X110351904Y-90261380D02*
X110351904Y-89261380D01*
X110732857Y-89261380D01*
X110828095Y-89309000D01*
X110875714Y-89356619D01*
X110923333Y-89451857D01*
X110923333Y-89594714D01*
X110875714Y-89689952D01*
X110828095Y-89737571D01*
X110732857Y-89785190D01*
X110351904Y-89785190D01*
X111399523Y-90261380D02*
X111590000Y-90261380D01*
X111685238Y-90213761D01*
X111732857Y-90166142D01*
X111828095Y-90023285D01*
X111875714Y-89832809D01*
X111875714Y-89451857D01*
X111828095Y-89356619D01*
X111780476Y-89309000D01*
X111685238Y-89261380D01*
X111494761Y-89261380D01*
X111399523Y-89309000D01*
X111351904Y-89356619D01*
X111304285Y-89451857D01*
X111304285Y-89689952D01*
X111351904Y-89785190D01*
X111399523Y-89832809D01*
X111494761Y-89880428D01*
X111685238Y-89880428D01*
X111780476Y-89832809D01*
X111828095Y-89785190D01*
X111875714Y-89689952D01*
X134286666Y-78192380D02*
X134286666Y-78906666D01*
X134239047Y-79049523D01*
X134143809Y-79144761D01*
X134000952Y-79192380D01*
X133905714Y-79192380D01*
X134715238Y-78287619D02*
X134762857Y-78240000D01*
X134858095Y-78192380D01*
X135096190Y-78192380D01*
X135191428Y-78240000D01*
X135239047Y-78287619D01*
X135286666Y-78382857D01*
X135286666Y-78478095D01*
X135239047Y-78620952D01*
X134667619Y-79192380D01*
X135286666Y-79192380D01*
X131243333Y-117566380D02*
X130910000Y-117090190D01*
X130671904Y-117566380D02*
X130671904Y-116566380D01*
X131052857Y-116566380D01*
X131148095Y-116614000D01*
X131195714Y-116661619D01*
X131243333Y-116756857D01*
X131243333Y-116899714D01*
X131195714Y-116994952D01*
X131148095Y-117042571D01*
X131052857Y-117090190D01*
X130671904Y-117090190D01*
X131624285Y-116661619D02*
X131671904Y-116614000D01*
X131767142Y-116566380D01*
X132005238Y-116566380D01*
X132100476Y-116614000D01*
X132148095Y-116661619D01*
X132195714Y-116756857D01*
X132195714Y-116852095D01*
X132148095Y-116994952D01*
X131576666Y-117566380D01*
X132195714Y-117566380D01*
X116400142Y-95817666D02*
X116447761Y-95865285D01*
X116495380Y-96008142D01*
X116495380Y-96103380D01*
X116447761Y-96246238D01*
X116352523Y-96341476D01*
X116257285Y-96389095D01*
X116066809Y-96436714D01*
X115923952Y-96436714D01*
X115733476Y-96389095D01*
X115638238Y-96341476D01*
X115543000Y-96246238D01*
X115495380Y-96103380D01*
X115495380Y-96008142D01*
X115543000Y-95865285D01*
X115590619Y-95817666D01*
X115828714Y-94960523D02*
X116495380Y-94960523D01*
X115447761Y-95198619D02*
X116162047Y-95436714D01*
X116162047Y-94817666D01*
X99360933Y-126555142D02*
X99313314Y-126602761D01*
X99170457Y-126650380D01*
X99075219Y-126650380D01*
X98932361Y-126602761D01*
X98837123Y-126507523D01*
X98789504Y-126412285D01*
X98741885Y-126221809D01*
X98741885Y-126078952D01*
X98789504Y-125888476D01*
X98837123Y-125793238D01*
X98932361Y-125698000D01*
X99075219Y-125650380D01*
X99170457Y-125650380D01*
X99313314Y-125698000D01*
X99360933Y-125745619D01*
X99694266Y-125650380D02*
X100313314Y-125650380D01*
X99979980Y-126031333D01*
X100122838Y-126031333D01*
X100218076Y-126078952D01*
X100265695Y-126126571D01*
X100313314Y-126221809D01*
X100313314Y-126459904D01*
X100265695Y-126555142D01*
X100218076Y-126602761D01*
X100122838Y-126650380D01*
X99837123Y-126650380D01*
X99741885Y-126602761D01*
X99694266Y-126555142D01*
X119853095Y-106152380D02*
X119853095Y-106961904D01*
X119900714Y-107057142D01*
X119948333Y-107104761D01*
X120043571Y-107152380D01*
X120234047Y-107152380D01*
X120329285Y-107104761D01*
X120376904Y-107057142D01*
X120424523Y-106961904D01*
X120424523Y-106152380D01*
X121424523Y-107152380D02*
X120853095Y-107152380D01*
X121138809Y-107152380D02*
X121138809Y-106152380D01*
X121043571Y-106295238D01*
X120948333Y-106390476D01*
X120853095Y-106438095D01*
X131151333Y-129135142D02*
X131103714Y-129182761D01*
X130960857Y-129230380D01*
X130865619Y-129230380D01*
X130722761Y-129182761D01*
X130627523Y-129087523D01*
X130579904Y-128992285D01*
X130532285Y-128801809D01*
X130532285Y-128658952D01*
X130579904Y-128468476D01*
X130627523Y-128373238D01*
X130722761Y-128278000D01*
X130865619Y-128230380D01*
X130960857Y-128230380D01*
X131103714Y-128278000D01*
X131151333Y-128325619D01*
X131484666Y-128230380D02*
X132151333Y-128230380D01*
X131722761Y-129230380D01*
X103811333Y-90261380D02*
X103478000Y-89785190D01*
X103239904Y-90261380D02*
X103239904Y-89261380D01*
X103620857Y-89261380D01*
X103716095Y-89309000D01*
X103763714Y-89356619D01*
X103811333Y-89451857D01*
X103811333Y-89594714D01*
X103763714Y-89689952D01*
X103716095Y-89737571D01*
X103620857Y-89785190D01*
X103239904Y-89785190D01*
X104144666Y-89261380D02*
X104763714Y-89261380D01*
X104430380Y-89642333D01*
X104573238Y-89642333D01*
X104668476Y-89689952D01*
X104716095Y-89737571D01*
X104763714Y-89832809D01*
X104763714Y-90070904D01*
X104716095Y-90166142D01*
X104668476Y-90213761D01*
X104573238Y-90261380D01*
X104287523Y-90261380D01*
X104192285Y-90213761D01*
X104144666Y-90166142D01*
X105711666Y-78192380D02*
X105711666Y-78906666D01*
X105664047Y-79049523D01*
X105568809Y-79144761D01*
X105425952Y-79192380D01*
X105330714Y-79192380D01*
X106092619Y-78192380D02*
X106711666Y-78192380D01*
X106378333Y-78573333D01*
X106521190Y-78573333D01*
X106616428Y-78620952D01*
X106664047Y-78668571D01*
X106711666Y-78763809D01*
X106711666Y-79001904D01*
X106664047Y-79097142D01*
X106616428Y-79144761D01*
X106521190Y-79192380D01*
X106235476Y-79192380D01*
X106140238Y-79144761D01*
X106092619Y-79097142D01*
X131687904Y-87212380D02*
X131687904Y-86212380D01*
X131926000Y-86212380D01*
X132068857Y-86260000D01*
X132164095Y-86355238D01*
X132211714Y-86450476D01*
X132259333Y-86640952D01*
X132259333Y-86783809D01*
X132211714Y-86974285D01*
X132164095Y-87069523D01*
X132068857Y-87164761D01*
X131926000Y-87212380D01*
X131687904Y-87212380D01*
X132640285Y-86307619D02*
X132687904Y-86260000D01*
X132783142Y-86212380D01*
X133021238Y-86212380D01*
X133116476Y-86260000D01*
X133164095Y-86307619D01*
X133211714Y-86402857D01*
X133211714Y-86498095D01*
X133164095Y-86640952D01*
X132592666Y-87212380D01*
X133211714Y-87212380D01*
X138514095Y-86492380D02*
X138514095Y-85492380D01*
X139085523Y-86492380D02*
X138656952Y-85920952D01*
X139085523Y-85492380D02*
X138514095Y-86063809D01*
X143979866Y-108414380D02*
X143979866Y-109128666D01*
X143932247Y-109271523D01*
X143837009Y-109366761D01*
X143694152Y-109414380D01*
X143598914Y-109414380D01*
X144979866Y-109414380D02*
X144408438Y-109414380D01*
X144694152Y-109414380D02*
X144694152Y-108414380D01*
X144598914Y-108557238D01*
X144503676Y-108652476D01*
X144408438Y-108700095D01*
X105751333Y-150820380D02*
X105418000Y-150344190D01*
X105179904Y-150820380D02*
X105179904Y-149820380D01*
X105560857Y-149820380D01*
X105656095Y-149868000D01*
X105703714Y-149915619D01*
X105751333Y-150010857D01*
X105751333Y-150153714D01*
X105703714Y-150248952D01*
X105656095Y-150296571D01*
X105560857Y-150344190D01*
X105179904Y-150344190D01*
X106608476Y-149820380D02*
X106418000Y-149820380D01*
X106322761Y-149868000D01*
X106275142Y-149915619D01*
X106179904Y-150058476D01*
X106132285Y-150248952D01*
X106132285Y-150629904D01*
X106179904Y-150725142D01*
X106227523Y-150772761D01*
X106322761Y-150820380D01*
X106513238Y-150820380D01*
X106608476Y-150772761D01*
X106656095Y-150725142D01*
X106703714Y-150629904D01*
X106703714Y-150391809D01*
X106656095Y-150296571D01*
X106608476Y-150248952D01*
X106513238Y-150201333D01*
X106322761Y-150201333D01*
X106227523Y-150248952D01*
X106179904Y-150296571D01*
X106132285Y-150391809D01*
X112534666Y-87395571D02*
X112201333Y-87395571D01*
X112201333Y-87919380D02*
X112201333Y-86919380D01*
X112677523Y-86919380D01*
X113582285Y-87919380D02*
X113010857Y-87919380D01*
X113296571Y-87919380D02*
X113296571Y-86919380D01*
X113201333Y-87062238D01*
X113106095Y-87157476D01*
X113010857Y-87205095D01*
X138934761Y-100222619D02*
X138839523Y-100175000D01*
X138744285Y-100079761D01*
X138601428Y-99936904D01*
X138506190Y-99889285D01*
X138410952Y-99889285D01*
X138458571Y-100127380D02*
X138363333Y-100079761D01*
X138268095Y-99984523D01*
X138220476Y-99794047D01*
X138220476Y-99460714D01*
X138268095Y-99270238D01*
X138363333Y-99175000D01*
X138458571Y-99127380D01*
X138649047Y-99127380D01*
X138744285Y-99175000D01*
X138839523Y-99270238D01*
X138887142Y-99460714D01*
X138887142Y-99794047D01*
X138839523Y-99984523D01*
X138744285Y-100079761D01*
X138649047Y-100127380D01*
X138458571Y-100127380D01*
X139839523Y-100127380D02*
X139268095Y-100127380D01*
X139553809Y-100127380D02*
X139553809Y-99127380D01*
X139458571Y-99270238D01*
X139363333Y-99365476D01*
X139268095Y-99413095D01*
X134418333Y-90261380D02*
X134085000Y-89785190D01*
X133846904Y-90261380D02*
X133846904Y-89261380D01*
X134227857Y-89261380D01*
X134323095Y-89309000D01*
X134370714Y-89356619D01*
X134418333Y-89451857D01*
X134418333Y-89594714D01*
X134370714Y-89689952D01*
X134323095Y-89737571D01*
X134227857Y-89785190D01*
X133846904Y-89785190D01*
X134751666Y-89261380D02*
X135418333Y-89261380D01*
X134989761Y-90261380D01*
X98796495Y-85358780D02*
X98796495Y-84358780D01*
X98796495Y-84834971D02*
X99367923Y-84834971D01*
X99367923Y-85358780D02*
X99367923Y-84358780D01*
X100367923Y-85358780D02*
X99796495Y-85358780D01*
X100082209Y-85358780D02*
X100082209Y-84358780D01*
X99986971Y-84501638D01*
X99891733Y-84596876D01*
X99796495Y-84644495D01*
X110923333Y-118328380D02*
X110590000Y-117852190D01*
X110351904Y-118328380D02*
X110351904Y-117328380D01*
X110732857Y-117328380D01*
X110828095Y-117376000D01*
X110875714Y-117423619D01*
X110923333Y-117518857D01*
X110923333Y-117661714D01*
X110875714Y-117756952D01*
X110828095Y-117804571D01*
X110732857Y-117852190D01*
X110351904Y-117852190D01*
X111875714Y-118328380D02*
X111304285Y-118328380D01*
X111590000Y-118328380D02*
X111590000Y-117328380D01*
X111494761Y-117471238D01*
X111399523Y-117566476D01*
X111304285Y-117614095D01*
X104516380Y-128240571D02*
X104849714Y-128240571D01*
X104992571Y-128764380D02*
X104516380Y-128764380D01*
X104516380Y-127764380D01*
X104992571Y-127764380D01*
X105611619Y-128288190D02*
X105611619Y-128764380D01*
X105278285Y-127764380D02*
X105611619Y-128288190D01*
X105944952Y-127764380D01*
X106278285Y-128240571D02*
X106611619Y-128240571D01*
X106754476Y-128764380D02*
X106278285Y-128764380D01*
X106278285Y-127764380D01*
X106754476Y-127764380D01*
X107135428Y-128716761D02*
X107278285Y-128764380D01*
X107516380Y-128764380D01*
X107611619Y-128716761D01*
X107659238Y-128669142D01*
X107706857Y-128573904D01*
X107706857Y-128478666D01*
X107659238Y-128383428D01*
X107611619Y-128335809D01*
X107516380Y-128288190D01*
X107325904Y-128240571D01*
X107230666Y-128192952D01*
X107183047Y-128145333D01*
X107135428Y-128050095D01*
X107135428Y-127954857D01*
X107183047Y-127859619D01*
X107230666Y-127812000D01*
X107325904Y-127764380D01*
X107564000Y-127764380D01*
X107706857Y-127812000D01*
X108659238Y-128764380D02*
X108087809Y-128764380D01*
X108373523Y-128764380D02*
X108373523Y-127764380D01*
X108278285Y-127907238D01*
X108183047Y-128002476D01*
X108087809Y-128050095D01*
X131243333Y-90261380D02*
X130910000Y-89785190D01*
X130671904Y-90261380D02*
X130671904Y-89261380D01*
X131052857Y-89261380D01*
X131148095Y-89309000D01*
X131195714Y-89356619D01*
X131243333Y-89451857D01*
X131243333Y-89594714D01*
X131195714Y-89689952D01*
X131148095Y-89737571D01*
X131052857Y-89785190D01*
X130671904Y-89785190D01*
X132100476Y-89594714D02*
X132100476Y-90261380D01*
X131862380Y-89213761D02*
X131624285Y-89928047D01*
X132243333Y-89928047D01*
X128144533Y-117566380D02*
X127811200Y-117090190D01*
X127573104Y-117566380D02*
X127573104Y-116566380D01*
X127954057Y-116566380D01*
X128049295Y-116614000D01*
X128096914Y-116661619D01*
X128144533Y-116756857D01*
X128144533Y-116899714D01*
X128096914Y-116994952D01*
X128049295Y-117042571D01*
X127954057Y-117090190D01*
X127573104Y-117090190D01*
X128715961Y-116994952D02*
X128620723Y-116947333D01*
X128573104Y-116899714D01*
X128525485Y-116804476D01*
X128525485Y-116756857D01*
X128573104Y-116661619D01*
X128620723Y-116614000D01*
X128715961Y-116566380D01*
X128906438Y-116566380D01*
X129001676Y-116614000D01*
X129049295Y-116661619D01*
X129096914Y-116756857D01*
X129096914Y-116804476D01*
X129049295Y-116899714D01*
X129001676Y-116947333D01*
X128906438Y-116994952D01*
X128715961Y-116994952D01*
X128620723Y-117042571D01*
X128573104Y-117090190D01*
X128525485Y-117185428D01*
X128525485Y-117375904D01*
X128573104Y-117471142D01*
X128620723Y-117518761D01*
X128715961Y-117566380D01*
X128906438Y-117566380D01*
X129001676Y-117518761D01*
X129049295Y-117471142D01*
X129096914Y-117375904D01*
X129096914Y-117185428D01*
X129049295Y-117090190D01*
X129001676Y-117042571D01*
X128906438Y-116994952D01*
D11*
X119102000Y-151168742D02*
X119189085Y-151197771D01*
X119334228Y-151197771D01*
X119392285Y-151168742D01*
X119421314Y-151139714D01*
X119450342Y-151081657D01*
X119450342Y-151023600D01*
X119421314Y-150965542D01*
X119392285Y-150936514D01*
X119334228Y-150907485D01*
X119218114Y-150878457D01*
X119160057Y-150849428D01*
X119131028Y-150820400D01*
X119102000Y-150762342D01*
X119102000Y-150704285D01*
X119131028Y-150646228D01*
X119160057Y-150617200D01*
X119218114Y-150588171D01*
X119363257Y-150588171D01*
X119450342Y-150617200D01*
X119653542Y-150588171D02*
X119798685Y-151197771D01*
X119914800Y-150762342D01*
X120030914Y-151197771D01*
X120176057Y-150588171D01*
X120727600Y-151197771D02*
X120379257Y-151197771D01*
X120553428Y-151197771D02*
X120553428Y-150588171D01*
X120495371Y-150675257D01*
X120437314Y-150733314D01*
X120379257Y-150762342D01*
D10*
X106948304Y-118328380D02*
X106948304Y-117328380D01*
X107186400Y-117328380D01*
X107329257Y-117376000D01*
X107424495Y-117471238D01*
X107472114Y-117566476D01*
X107519733Y-117756952D01*
X107519733Y-117899809D01*
X107472114Y-118090285D01*
X107424495Y-118185523D01*
X107329257Y-118280761D01*
X107186400Y-118328380D01*
X106948304Y-118328380D01*
X108472114Y-118328380D02*
X107900685Y-118328380D01*
X108186400Y-118328380D02*
X108186400Y-117328380D01*
X108091161Y-117471238D01*
X107995923Y-117566476D01*
X107900685Y-117614095D01*
X108360750Y-105732738D02*
X107360750Y-105732738D01*
X108360750Y-105161310D02*
X107789322Y-105589881D01*
X107360750Y-105161310D02*
X107932179Y-105732738D01*
X116440142Y-91753666D02*
X116487761Y-91801285D01*
X116535380Y-91944142D01*
X116535380Y-92039380D01*
X116487761Y-92182238D01*
X116392523Y-92277476D01*
X116297285Y-92325095D01*
X116106809Y-92372714D01*
X115963952Y-92372714D01*
X115773476Y-92325095D01*
X115678238Y-92277476D01*
X115583000Y-92182238D01*
X115535380Y-92039380D01*
X115535380Y-91944142D01*
X115583000Y-91801285D01*
X115630619Y-91753666D01*
X115535380Y-90896523D02*
X115535380Y-91087000D01*
X115583000Y-91182238D01*
X115630619Y-91229857D01*
X115773476Y-91325095D01*
X115963952Y-91372714D01*
X116344904Y-91372714D01*
X116440142Y-91325095D01*
X116487761Y-91277476D01*
X116535380Y-91182238D01*
X116535380Y-90991761D01*
X116487761Y-90896523D01*
X116440142Y-90848904D01*
X116344904Y-90801285D01*
X116106809Y-90801285D01*
X116011571Y-90848904D01*
X115963952Y-90896523D01*
X115916333Y-90991761D01*
X115916333Y-91182238D01*
X115963952Y-91277476D01*
X116011571Y-91325095D01*
X116106809Y-91372714D01*
D12*
X123894000Y-120480000D02*
X116654000Y-120480000D01*
X116654000Y-120480000D02*
X116654000Y-115740000D01*
X123894000Y-120480000D02*
X123894000Y-115740000D01*
X123894000Y-115740000D02*
X116654000Y-115740000D01*
X115095000Y-127830800D02*
X115095000Y-121490800D01*
X124865000Y-127830800D02*
X115095000Y-127830800D01*
X124865000Y-127830800D02*
X124865000Y-121490800D01*
X124865000Y-121490800D02*
X115095000Y-121490800D01*
X107534000Y-101215000D02*
X107534000Y-100445000D01*
X108904000Y-93905000D02*
X106164000Y-93905000D01*
X106164000Y-93905000D02*
X106164000Y-100445000D01*
X108904000Y-100445000D02*
X108904000Y-93905000D01*
X106164000Y-100445000D02*
X108904000Y-100445000D01*
X107534000Y-93135000D02*
X107534000Y-93905000D01*
X140029000Y-124665400D02*
X140029000Y-123640400D01*
X139109000Y-123405400D02*
X139109000Y-121795400D01*
X141390000Y-125173400D02*
X141390000Y-120027400D01*
X140149000Y-121560400D02*
X140149000Y-120451400D01*
X140749000Y-125042400D02*
X140749000Y-123640400D01*
X139149000Y-123515400D02*
X139149000Y-121685400D01*
X141150000Y-121560400D02*
X141150000Y-120057400D01*
X139749000Y-124426400D02*
X139749000Y-123640400D01*
X141350000Y-125169400D02*
X141350000Y-123640400D01*
X141310000Y-125165400D02*
X141310000Y-123640400D01*
X139349000Y-123919400D02*
X139349000Y-123640400D01*
X141030000Y-121560400D02*
X141030000Y-120080400D01*
X140869000Y-121560400D02*
X140869000Y-120120400D01*
X140509000Y-121560400D02*
X140509000Y-120252400D01*
X141190000Y-125150400D02*
X141190000Y-123640400D01*
X139469000Y-121560400D02*
X139469000Y-121100400D01*
X139549000Y-124205400D02*
X139549000Y-123640400D01*
X139949000Y-121560400D02*
X139949000Y-120596400D01*
X140469000Y-124929400D02*
X140469000Y-123640400D01*
X141190000Y-121560400D02*
X141190000Y-120050400D01*
X140829000Y-121560400D02*
X140829000Y-120132400D01*
X140589000Y-121560400D02*
X140589000Y-120218400D01*
X140229000Y-124800400D02*
X140229000Y-123640400D01*
X139669000Y-121560400D02*
X139669000Y-120857400D01*
X141230000Y-125156400D02*
X141230000Y-123640400D01*
X140109000Y-124722400D02*
X140109000Y-123640400D01*
X140709000Y-125028400D02*
X140709000Y-123640400D01*
X140429000Y-124910400D02*
X140429000Y-123640400D01*
X140269000Y-124824400D02*
X140269000Y-123640400D01*
X140349000Y-121560400D02*
X140349000Y-120332400D01*
X139429000Y-121560400D02*
X139429000Y-121157400D01*
X141270000Y-121560400D02*
X141270000Y-120039400D01*
X139589000Y-121560400D02*
X139589000Y-120947400D01*
X140789000Y-125055400D02*
X140789000Y-123640400D01*
X139389000Y-123983400D02*
X139389000Y-123640400D01*
X140389000Y-121560400D02*
X140389000Y-120310400D01*
X140429000Y-121560400D02*
X140429000Y-120290400D01*
X140509000Y-124948400D02*
X140509000Y-123640400D01*
X144144775Y-124325400D02*
X144144775Y-123825400D01*
X139269000Y-123778400D02*
X139269000Y-121422400D01*
X139829000Y-121560400D02*
X139829000Y-120699400D01*
X141430000Y-125176400D02*
X141430000Y-120024400D01*
X140829000Y-125068400D02*
X140829000Y-123640400D01*
X140069000Y-121560400D02*
X140069000Y-120505400D01*
X140269000Y-121560400D02*
X140269000Y-120376400D01*
X139069000Y-123277400D02*
X139069000Y-121923400D01*
X140149000Y-124749400D02*
X140149000Y-123640400D01*
X139709000Y-124385400D02*
X139709000Y-123640400D01*
X139829000Y-124501400D02*
X139829000Y-123640400D01*
X141350000Y-121560400D02*
X141350000Y-120031400D01*
X138989000Y-122884400D02*
X138989000Y-122316400D01*
X140709000Y-121560400D02*
X140709000Y-120172400D01*
X140309000Y-124847400D02*
X140309000Y-123640400D01*
X139749000Y-121560400D02*
X139749000Y-120774400D01*
X140990000Y-121560400D02*
X140990000Y-120089400D01*
X139909000Y-121560400D02*
X139909000Y-120629400D01*
X140469000Y-121560400D02*
X140469000Y-120271400D01*
X141470000Y-125178400D02*
X141470000Y-120022400D01*
X140309000Y-121560400D02*
X140309000Y-120353400D01*
X139469000Y-124100400D02*
X139469000Y-123640400D01*
X140109000Y-121560400D02*
X140109000Y-120478400D01*
X141150000Y-125143400D02*
X141150000Y-123640400D01*
X141510000Y-125179400D02*
X141510000Y-120021400D01*
X141590000Y-125180400D02*
X141590000Y-120020400D01*
X140589000Y-124982400D02*
X140589000Y-123640400D01*
X140910000Y-125091400D02*
X140910000Y-123640400D01*
X139349000Y-121560400D02*
X139349000Y-121281400D01*
X140229000Y-121560400D02*
X140229000Y-120400400D01*
X139389000Y-121560400D02*
X139389000Y-121217400D01*
X141270000Y-125161400D02*
X141270000Y-123640400D01*
X141110000Y-121560400D02*
X141110000Y-120064400D01*
X139309000Y-121560400D02*
X139309000Y-121349400D01*
X141230000Y-121560400D02*
X141230000Y-120044400D01*
X139869000Y-121560400D02*
X139869000Y-120663400D01*
X139789000Y-124464400D02*
X139789000Y-123640400D01*
X141070000Y-121560400D02*
X141070000Y-120072400D01*
X141550000Y-125180400D02*
X141550000Y-120020400D01*
X140950000Y-121560400D02*
X140950000Y-120099400D01*
X139549000Y-121560400D02*
X139549000Y-120995400D01*
X139309000Y-123851400D02*
X139309000Y-123640400D01*
X139949000Y-124604400D02*
X139949000Y-123640400D01*
X139509000Y-124154400D02*
X139509000Y-123640400D01*
X140549000Y-124965400D02*
X140549000Y-123640400D01*
X140990000Y-125111400D02*
X140990000Y-123640400D01*
X140069000Y-124695400D02*
X140069000Y-123640400D01*
X139709000Y-121560400D02*
X139709000Y-120815400D01*
X141030000Y-125120400D02*
X141030000Y-123640400D01*
X140629000Y-121560400D02*
X140629000Y-120202400D01*
X139789000Y-121560400D02*
X139789000Y-120736400D01*
X144394775Y-124075400D02*
X143894775Y-124075400D01*
X139629000Y-121560400D02*
X139629000Y-120901400D01*
X139989000Y-124635400D02*
X139989000Y-123640400D01*
X139869000Y-124537400D02*
X139869000Y-123640400D01*
X139229000Y-123698400D02*
X139229000Y-121502400D01*
X139909000Y-124571400D02*
X139909000Y-123640400D01*
X139989000Y-121560400D02*
X139989000Y-120565400D01*
X140389000Y-124890400D02*
X140389000Y-123640400D01*
X139589000Y-124253400D02*
X139589000Y-123640400D01*
X140789000Y-121560400D02*
X140789000Y-120145400D01*
X140549000Y-121560400D02*
X140549000Y-120235400D01*
X140950000Y-125101400D02*
X140950000Y-123640400D01*
X140669000Y-125014400D02*
X140669000Y-123640400D01*
X139629000Y-124299400D02*
X139629000Y-123640400D01*
X140349000Y-124868400D02*
X140349000Y-123640400D01*
X140910000Y-121560400D02*
X140910000Y-120109400D01*
X141070000Y-125128400D02*
X141070000Y-123640400D01*
X139509000Y-121560400D02*
X139509000Y-121046400D01*
X141110000Y-125136400D02*
X141110000Y-123640400D01*
X139029000Y-123118400D02*
X139029000Y-122082400D01*
X139669000Y-124343400D02*
X139669000Y-123640400D01*
X140189000Y-124775400D02*
X140189000Y-123640400D01*
X140749000Y-121560400D02*
X140749000Y-120158400D01*
X139189000Y-123611400D02*
X139189000Y-121589400D01*
X141310000Y-121560400D02*
X141310000Y-120035400D01*
X140629000Y-124998400D02*
X140629000Y-123640400D01*
X140869000Y-125080400D02*
X140869000Y-123640400D01*
X140669000Y-121560400D02*
X140669000Y-120186400D01*
X140029000Y-121560400D02*
X140029000Y-120535400D01*
X139429000Y-124043400D02*
X139429000Y-123640400D01*
X140189000Y-121560400D02*
X140189000Y-120425400D01*
X144210000Y-122600400D02*
G75*
G03*
X144210000Y-122600400I-2620000J0D01*
G01*
X126812000Y-124018000D02*
X128712000Y-124018000D01*
X128712000Y-124018000D02*
X128712000Y-125918000D01*
X126812000Y-125918000D02*
X126812000Y-124018000D01*
X128712000Y-125918000D02*
X126812000Y-125918000D01*
X129605000Y-93905000D02*
X126865000Y-93905000D01*
X126865000Y-100445000D02*
X129605000Y-100445000D01*
X129605000Y-100445000D02*
X129605000Y-93905000D01*
X126865000Y-93905000D02*
X126865000Y-100445000D01*
X128235000Y-101215000D02*
X128235000Y-100445000D01*
X128235000Y-93135000D02*
X128235000Y-93905000D01*
X133612000Y-113408000D02*
X133612000Y-106168000D01*
X138352000Y-113408000D02*
X138352000Y-106168000D01*
X133612000Y-113408000D02*
X138352000Y-113408000D01*
X133612000Y-106168000D02*
X138352000Y-106168000D01*
X101100000Y-106088000D02*
X105840000Y-106088000D01*
X101100000Y-113328000D02*
X105840000Y-113328000D01*
X101100000Y-113328000D02*
X101100000Y-106088000D01*
X105840000Y-113328000D02*
X105840000Y-106088000D01*
X117190000Y-83548000D02*
X117800000Y-83548000D01*
X117190000Y-81438000D02*
X117190000Y-86158000D01*
X120250000Y-82048000D02*
X120250000Y-82548000D01*
X122700000Y-85548000D02*
X122700000Y-82048000D01*
X119750000Y-85548000D02*
X119750000Y-86158000D01*
X120350000Y-82048000D02*
X120350000Y-82548000D01*
X121550000Y-86258000D02*
X121850000Y-86258000D01*
X123610000Y-86458000D02*
X123610000Y-85208000D01*
X121550000Y-86158000D02*
X121550000Y-86358000D01*
X123310000Y-86158000D02*
X123310000Y-81438000D01*
X121550000Y-86358000D02*
X121850000Y-86358000D01*
X120350000Y-82548000D02*
X120150000Y-82548000D01*
X117800000Y-82048000D02*
X117800000Y-85548000D01*
X117800000Y-85548000D02*
X119750000Y-85548000D01*
X120750000Y-86158000D02*
X120750000Y-85548000D01*
X123310000Y-83548000D02*
X122700000Y-83548000D01*
X123310000Y-84848000D02*
X122700000Y-84848000D01*
X122360000Y-86458000D02*
X123610000Y-86458000D01*
X120750000Y-85548000D02*
X122700000Y-85548000D01*
X117190000Y-84848000D02*
X117800000Y-84848000D01*
X120150000Y-82548000D02*
X120150000Y-82048000D01*
X123310000Y-81438000D02*
X117190000Y-81438000D01*
X117190000Y-86158000D02*
X123310000Y-86158000D01*
X122700000Y-82048000D02*
X117800000Y-82048000D01*
X121850000Y-86358000D02*
X121850000Y-86158000D01*
X111090000Y-101215000D02*
X111090000Y-100445000D01*
X112460000Y-100445000D02*
X112460000Y-93905000D01*
X109720000Y-93905000D02*
X109720000Y-100445000D01*
X112460000Y-93905000D02*
X109720000Y-93905000D01*
X111090000Y-93135000D02*
X111090000Y-93905000D01*
X109720000Y-100445000D02*
X112460000Y-100445000D01*
X131410000Y-113915000D02*
X131410000Y-113145000D01*
X132780000Y-113145000D02*
X132780000Y-106605000D01*
X131410000Y-105835000D02*
X131410000Y-106605000D01*
X132780000Y-106605000D02*
X130040000Y-106605000D01*
X130040000Y-113145000D02*
X132780000Y-113145000D01*
X130040000Y-106605000D02*
X130040000Y-113145000D01*
X117122000Y-93154000D02*
X117122000Y-97894000D01*
X124362000Y-93154000D02*
X124362000Y-97894000D01*
X117122000Y-97894000D02*
X124362000Y-97894000D01*
X117122000Y-93154000D02*
X124362000Y-93154000D01*
X99127600Y-124998000D02*
X99127600Y-123488000D01*
X102082375Y-124173000D02*
X102082375Y-123673000D01*
X99287600Y-121408000D02*
X99287600Y-119879000D01*
X98606600Y-121408000D02*
X98606600Y-120034000D01*
X96966600Y-122966000D02*
X96966600Y-121930000D01*
X99247600Y-121408000D02*
X99247600Y-119883000D01*
X97246600Y-123699000D02*
X97246600Y-123488000D01*
X97046600Y-123253000D02*
X97046600Y-121643000D01*
X98006600Y-124543000D02*
X98006600Y-123488000D01*
X97366600Y-123891000D02*
X97366600Y-123488000D01*
X97246600Y-121408000D02*
X97246600Y-121197000D01*
X97086600Y-123363000D02*
X97086600Y-121533000D01*
X98646600Y-124876000D02*
X98646600Y-123488000D01*
X99247600Y-125013000D02*
X99247600Y-123488000D01*
X97726600Y-121408000D02*
X97726600Y-120584000D01*
X98366600Y-124758000D02*
X98366600Y-123488000D01*
X98887600Y-121408000D02*
X98887600Y-119947000D01*
X98766600Y-121408000D02*
X98766600Y-119980000D01*
X99047600Y-121408000D02*
X99047600Y-119912000D01*
X97646600Y-121408000D02*
X97646600Y-120663000D01*
X98927600Y-124959000D02*
X98927600Y-123488000D01*
X99087600Y-121408000D02*
X99087600Y-119905000D01*
X97686600Y-121408000D02*
X97686600Y-120622000D01*
X99487600Y-125028000D02*
X99487600Y-119868000D01*
X98806600Y-124928000D02*
X98806600Y-123488000D01*
X97766600Y-121408000D02*
X97766600Y-120547000D01*
X96926600Y-122732000D02*
X96926600Y-122164000D01*
X98166600Y-124648000D02*
X98166600Y-123488000D01*
X99167600Y-125004000D02*
X99167600Y-123488000D01*
X98366600Y-121408000D02*
X98366600Y-120138000D01*
X97846600Y-121408000D02*
X97846600Y-120477000D01*
X98606600Y-124862000D02*
X98606600Y-123488000D01*
X98446600Y-121408000D02*
X98446600Y-120100000D01*
X97926600Y-124483000D02*
X97926600Y-123488000D01*
X97366600Y-121408000D02*
X97366600Y-121005000D01*
X98967600Y-121408000D02*
X98967600Y-119928000D01*
X98446600Y-124796000D02*
X98446600Y-123488000D01*
X98766600Y-124916000D02*
X98766600Y-123488000D01*
X98326600Y-121408000D02*
X98326600Y-120158000D01*
X97886600Y-121408000D02*
X97886600Y-120444000D01*
X97606600Y-124191000D02*
X97606600Y-123488000D01*
X98847600Y-121408000D02*
X98847600Y-119957000D01*
X99287600Y-125017000D02*
X99287600Y-123488000D01*
X97566600Y-124147000D02*
X97566600Y-123488000D01*
X98006600Y-121408000D02*
X98006600Y-120353000D01*
X98967600Y-124968000D02*
X98967600Y-123488000D01*
X98206600Y-121408000D02*
X98206600Y-120224000D01*
X97486600Y-121408000D02*
X97486600Y-120843000D01*
X99007600Y-124976000D02*
X99007600Y-123488000D01*
X98246600Y-124695000D02*
X98246600Y-123488000D01*
X98927600Y-121408000D02*
X98927600Y-119937000D01*
X98286600Y-124716000D02*
X98286600Y-123488000D01*
X98486600Y-124813000D02*
X98486600Y-123488000D01*
X97806600Y-121408000D02*
X97806600Y-120511000D01*
X99167600Y-121408000D02*
X99167600Y-119892000D01*
X97446600Y-121408000D02*
X97446600Y-120894000D01*
X99087600Y-124991000D02*
X99087600Y-123488000D01*
X98126600Y-121408000D02*
X98126600Y-120273000D01*
X98526600Y-124830000D02*
X98526600Y-123488000D01*
X97446600Y-124002000D02*
X97446600Y-123488000D01*
X97286600Y-121408000D02*
X97286600Y-121129000D01*
X99447600Y-125027000D02*
X99447600Y-119869000D01*
X97406600Y-121408000D02*
X97406600Y-120948000D01*
X98046600Y-121408000D02*
X98046600Y-120326000D01*
X98046600Y-124570000D02*
X98046600Y-123488000D01*
X97766600Y-124349000D02*
X97766600Y-123488000D01*
X97926600Y-121408000D02*
X97926600Y-120413000D01*
X98726600Y-124903000D02*
X98726600Y-123488000D01*
X97286600Y-123767000D02*
X97286600Y-123488000D01*
X99327600Y-125021000D02*
X99327600Y-119875000D01*
X97646600Y-124233000D02*
X97646600Y-123488000D01*
X99127600Y-121408000D02*
X99127600Y-119898000D01*
X97126600Y-123459000D02*
X97126600Y-121437000D01*
X98326600Y-124738000D02*
X98326600Y-123488000D01*
X98406600Y-121408000D02*
X98406600Y-120119000D01*
X99367600Y-125024000D02*
X99367600Y-119872000D01*
X98406600Y-124777000D02*
X98406600Y-123488000D01*
X98646600Y-121408000D02*
X98646600Y-120020000D01*
X99207600Y-121408000D02*
X99207600Y-119887000D01*
X98686600Y-121408000D02*
X98686600Y-120006000D01*
X97566600Y-121408000D02*
X97566600Y-120749000D01*
X97526600Y-124101000D02*
X97526600Y-123488000D01*
X97606600Y-121408000D02*
X97606600Y-120705000D01*
X98486600Y-121408000D02*
X98486600Y-120083000D01*
X98206600Y-124672000D02*
X98206600Y-123488000D01*
X97406600Y-123948000D02*
X97406600Y-123488000D01*
X99407600Y-125026000D02*
X99407600Y-119870000D01*
X98526600Y-121408000D02*
X98526600Y-120066000D01*
X98806600Y-121408000D02*
X98806600Y-119968000D01*
X98166600Y-121408000D02*
X98166600Y-120248000D01*
X97966600Y-121408000D02*
X97966600Y-120383000D01*
X97526600Y-121408000D02*
X97526600Y-120795000D01*
X97166600Y-123546000D02*
X97166600Y-121350000D01*
X99527600Y-125028000D02*
X99527600Y-119868000D01*
X98686600Y-124890000D02*
X98686600Y-123488000D01*
X97726600Y-124312000D02*
X97726600Y-123488000D01*
X97206600Y-123626000D02*
X97206600Y-121270000D01*
X102332375Y-123923000D02*
X101832375Y-123923000D01*
X97686600Y-124274000D02*
X97686600Y-123488000D01*
X98246600Y-121408000D02*
X98246600Y-120201000D01*
X98566600Y-124846000D02*
X98566600Y-123488000D01*
X99207600Y-125009000D02*
X99207600Y-123488000D01*
X98086600Y-121408000D02*
X98086600Y-120299000D01*
X97886600Y-124452000D02*
X97886600Y-123488000D01*
X98847600Y-124939000D02*
X98847600Y-123488000D01*
X98086600Y-124597000D02*
X98086600Y-123488000D01*
X98286600Y-121408000D02*
X98286600Y-120180000D01*
X97806600Y-124385000D02*
X97806600Y-123488000D01*
X97846600Y-124419000D02*
X97846600Y-123488000D01*
X97486600Y-124053000D02*
X97486600Y-123488000D01*
X99047600Y-124984000D02*
X99047600Y-123488000D01*
X98126600Y-124623000D02*
X98126600Y-123488000D01*
X97966600Y-124513000D02*
X97966600Y-123488000D01*
X97326600Y-123831000D02*
X97326600Y-123488000D01*
X98566600Y-121408000D02*
X98566600Y-120050000D01*
X98887600Y-124949000D02*
X98887600Y-123488000D01*
X99007600Y-121408000D02*
X99007600Y-119920000D01*
X97326600Y-121408000D02*
X97326600Y-121065000D01*
X97006600Y-123125000D02*
X97006600Y-121771000D01*
X98726600Y-121408000D02*
X98726600Y-119993000D01*
X102147600Y-122448000D02*
G75*
G03*
X102147600Y-122448000I-2620000J0D01*
G01*
X115355000Y-111890000D02*
X125855000Y-111890000D01*
X122855000Y-111830000D02*
X122855000Y-101550000D01*
X122855000Y-101550000D02*
X118355000Y-101550000D01*
X125855000Y-101490000D02*
X115355000Y-101490000D01*
X121605000Y-111830000D02*
X122855000Y-111830000D01*
X118355000Y-111830000D02*
X119605000Y-111830000D01*
X118355000Y-101550000D02*
X118355000Y-111830000D01*
X115355000Y-101490000D02*
X115355000Y-111890000D01*
X125855000Y-111890000D02*
X125855000Y-101490000D01*
X121605000Y-111830000D02*
G75*
G03*
X119605000Y-111830000I-1000000J0D01*
G01*
X129948000Y-127120000D02*
X130263000Y-127120000D01*
X129948000Y-127120000D02*
X129948000Y-121880000D01*
X132373000Y-121880000D02*
X132688000Y-121880000D01*
X132688000Y-127120000D02*
X132688000Y-121880000D01*
X132373000Y-127120000D02*
X132688000Y-127120000D01*
X129948000Y-121880000D02*
X130263000Y-121880000D01*
X105348000Y-93905000D02*
X102608000Y-93905000D01*
X103978000Y-93135000D02*
X103978000Y-93905000D01*
X103978000Y-101215000D02*
X103978000Y-100445000D01*
X105348000Y-100445000D02*
X105348000Y-93905000D01*
X102608000Y-100445000D02*
X105348000Y-100445000D01*
X102608000Y-93905000D02*
X102608000Y-100445000D01*
X137336000Y-83840000D02*
X136346000Y-83840000D01*
X134966000Y-85760000D02*
X134966000Y-81920000D01*
X128506000Y-81920000D02*
X128506000Y-85760000D01*
X136346000Y-81920000D02*
X128506000Y-81920000D01*
X135206000Y-85760000D02*
X135206000Y-81920000D01*
X135086000Y-85760000D02*
X135086000Y-81920000D01*
X127516000Y-83840000D02*
X128506000Y-83840000D01*
X136346000Y-85760000D02*
X136346000Y-81920000D01*
X128506000Y-85760000D02*
X136346000Y-85760000D01*
X142983200Y-104922000D02*
X142983200Y-89622000D01*
X144313200Y-107522000D02*
X142983200Y-107522000D01*
X145643200Y-104922000D02*
X145643200Y-89622000D01*
X142983200Y-107522000D02*
X142983200Y-106192000D01*
X145643200Y-104922000D02*
X142983200Y-104922000D01*
X145643200Y-89622000D02*
X142983200Y-89622000D01*
X105918000Y-138708000D02*
X105918000Y-139478000D01*
X107288000Y-146018000D02*
X107288000Y-139478000D01*
X104548000Y-146018000D02*
X107288000Y-146018000D01*
X107288000Y-139478000D02*
X104548000Y-139478000D01*
X105918000Y-146788000D02*
X105918000Y-146018000D01*
X104548000Y-139478000D02*
X104548000Y-146018000D01*
X116488000Y-86337000D02*
X109248000Y-86337000D01*
X116488000Y-86337000D02*
X116488000Y-81597000D01*
X109248000Y-86337000D02*
X109248000Y-81597000D01*
X116488000Y-81597000D02*
X109248000Y-81597000D01*
X138270000Y-98755000D02*
X141430000Y-98755000D01*
X138270000Y-95595000D02*
X138270000Y-96525000D01*
X138270000Y-95595000D02*
X139730000Y-95595000D01*
X138270000Y-98755000D02*
X138270000Y-97825000D01*
X134585000Y-101215000D02*
X134585000Y-100445000D01*
X133215000Y-100445000D02*
X135955000Y-100445000D01*
X134585000Y-93135000D02*
X134585000Y-93905000D01*
X133215000Y-93905000D02*
X133215000Y-100445000D01*
X135955000Y-100445000D02*
X135955000Y-93905000D01*
X135955000Y-93905000D02*
X133215000Y-93905000D01*
X111090000Y-106470000D02*
X111090000Y-107240000D01*
X109720000Y-113780000D02*
X112460000Y-113780000D01*
X112460000Y-107240000D02*
X109720000Y-107240000D01*
X112460000Y-113780000D02*
X112460000Y-107240000D01*
X111090000Y-114550000D02*
X111090000Y-113780000D01*
X109720000Y-107240000D02*
X109720000Y-113780000D01*
X105064000Y-122196000D02*
X105064000Y-122396000D01*
X109724000Y-122396000D02*
X103604000Y-122396000D01*
X104554000Y-122096000D02*
X103304000Y-122096000D01*
X106164000Y-123006000D02*
X104214000Y-123006000D01*
X106564000Y-126506000D02*
X106564000Y-126006000D01*
X109114000Y-126506000D02*
X109114000Y-123006000D01*
X105364000Y-122296000D02*
X105064000Y-122296000D01*
X106764000Y-126006000D02*
X106764000Y-126506000D01*
X105364000Y-122396000D02*
X105364000Y-122196000D01*
X105364000Y-122196000D02*
X105064000Y-122196000D01*
X103604000Y-127116000D02*
X109724000Y-127116000D01*
X109724000Y-125006000D02*
X109114000Y-125006000D01*
X106164000Y-122396000D02*
X106164000Y-123006000D01*
X103604000Y-122396000D02*
X103604000Y-127116000D01*
X104214000Y-126506000D02*
X109114000Y-126506000D01*
X103604000Y-123706000D02*
X104214000Y-123706000D01*
X107164000Y-123006000D02*
X107164000Y-122396000D01*
X103304000Y-122096000D02*
X103304000Y-123346000D01*
X109724000Y-127116000D02*
X109724000Y-122396000D01*
X106564000Y-126006000D02*
X106764000Y-126006000D01*
X104214000Y-123006000D02*
X104214000Y-126506000D01*
X106664000Y-126506000D02*
X106664000Y-126006000D01*
X109724000Y-123706000D02*
X109114000Y-123706000D01*
X103604000Y-125006000D02*
X104214000Y-125006000D01*
X109114000Y-123006000D02*
X107164000Y-123006000D01*
X130040000Y-100445000D02*
X132780000Y-100445000D01*
X131410000Y-93135000D02*
X131410000Y-93905000D01*
X130040000Y-93905000D02*
X130040000Y-100445000D01*
X131410000Y-101215000D02*
X131410000Y-100445000D01*
X132780000Y-100445000D02*
X132780000Y-93905000D01*
X132780000Y-93905000D02*
X130040000Y-93905000D01*
X128235000Y-105835000D02*
X128235000Y-106605000D01*
X128235000Y-113915000D02*
X128235000Y-113145000D01*
X126865000Y-106605000D02*
X126865000Y-113145000D01*
X129605000Y-106605000D02*
X126865000Y-106605000D01*
X129605000Y-113145000D02*
X129605000Y-106605000D01*
X126865000Y-113145000D02*
X129605000Y-113145000D01*
X128214800Y-152022000D02*
X111214800Y-152022000D01*
X111214800Y-152022000D02*
X111214800Y-134022000D01*
X111214800Y-134022000D02*
X128214800Y-134022000D01*
X128214800Y-134022000D02*
X128214800Y-152022000D01*
X106795000Y-109025000D02*
X106795000Y-113265000D01*
X107915000Y-113915000D02*
X107915000Y-113265000D01*
X109035000Y-109625000D02*
X106795000Y-109625000D01*
X109035000Y-109865000D02*
X106795000Y-109865000D01*
X106795000Y-113265000D02*
X109035000Y-113265000D01*
X109035000Y-109025000D02*
X106795000Y-109025000D01*
X107915000Y-108375000D02*
X107915000Y-109025000D01*
X109035000Y-113265000D02*
X109035000Y-109025000D01*
X109035000Y-109745000D02*
X106795000Y-109745000D01*
X117162000Y-92580000D02*
X117162000Y-90340000D01*
X124402000Y-92580000D02*
X117162000Y-92580000D01*
X124402000Y-92580000D02*
X124402000Y-90340000D01*
X124402000Y-90340000D02*
X117162000Y-90340000D01*
%LPC*%
D13*
X122774000Y-118110000D03*
X117774000Y-118110000D03*
D14*
X117440000Y-125800800D03*
X119980000Y-125800800D03*
X122520000Y-125800800D03*
D13*
X107534000Y-102255000D03*
D15*
X107534000Y-92095000D03*
D16*
X142840000Y-122600400D03*
D13*
X140340000Y-122600400D03*
D17*
X127762000Y-124968000D03*
D13*
X128235000Y-92095000D03*
D15*
X128235000Y-102255000D03*
D13*
X135982000Y-112288000D03*
X135982000Y-107288000D03*
X103470000Y-112208000D03*
X103470000Y-107208000D03*
D18*
X121250000Y-84348000D03*
D19*
X119250000Y-84348000D03*
D13*
X111090000Y-92095000D03*
D15*
X111090000Y-102255000D03*
D20*
X128450872Y-68310030D03*
D21*
X139481615Y-64356153D03*
D22*
X134973374Y-75304089D03*
D13*
X131410000Y-114955000D03*
D15*
X131410000Y-104795000D03*
D13*
X118242000Y-95524000D03*
X123242000Y-95524000D03*
D16*
X100777600Y-122448000D03*
D13*
X98277600Y-122448000D03*
D23*
X124415000Y-110500000D03*
D24*
X124415000Y-107960000D03*
X124415000Y-105420000D03*
X124415000Y-102880000D03*
X116795000Y-102880000D03*
X116795000Y-105420000D03*
X116795000Y-107960000D03*
X116795000Y-110500000D03*
D13*
X131318000Y-127000000D03*
X131318000Y-122000000D03*
X103978000Y-102255000D03*
D15*
X103978000Y-92095000D03*
D22*
X105598807Y-75339244D03*
D25*
X101644930Y-64308501D03*
D20*
X112592866Y-68816742D03*
D26*
X138776000Y-83840000D03*
D27*
X126076000Y-83840000D03*
D28*
X144313200Y-106192000D03*
D29*
X144313200Y-103652000D03*
X144313200Y-101112000D03*
X144313200Y-98572000D03*
X144313200Y-96032000D03*
X144313200Y-93492000D03*
X144313200Y-90952000D03*
D13*
X105918000Y-137668000D03*
D15*
X105918000Y-147828000D03*
D13*
X115368000Y-83967000D03*
X110368000Y-83967000D03*
D30*
X140530000Y-98125000D03*
X140530000Y-96225000D03*
X137530000Y-97175000D03*
D13*
X134585000Y-102255000D03*
D15*
X134585000Y-92095000D03*
D31*
X99558400Y-81706400D03*
D13*
X111090000Y-105430000D03*
D15*
X111090000Y-115590000D03*
D32*
X105664000Y-124206000D03*
D19*
X107664000Y-124206000D03*
D13*
X131410000Y-102255000D03*
D15*
X131410000Y-92095000D03*
D13*
X128235000Y-114955000D03*
D15*
X128235000Y-104795000D03*
D33*
X124415560Y-148022000D03*
X119714000Y-148022000D03*
X115015560Y-148022000D03*
X124415560Y-143022520D03*
X119714000Y-143022520D03*
X115015560Y-143022520D03*
X124414800Y-137922000D03*
X119713240Y-137922000D03*
X115014800Y-137922000D03*
D16*
X107915000Y-107335000D03*
D15*
X107915000Y-114955000D03*
D13*
X123282000Y-91460000D03*
X118282000Y-91460000D03*
M02*
