%TF.GenerationSoftware,KiCad,Pcbnew,(6.0.9)*%
%TF.CreationDate,2022-11-21T11:05:08+01:00*%
%TF.ProjectId,ray-rounded,7261792d-726f-4756-9e64-65642e6b6963,rev?*%
%TF.SameCoordinates,Original*%
%TF.FileFunction,Drillmap*%
%TF.FilePolarity,Positive*%
%FSLAX45Y45*%
G04 Gerber Fmt 4.5, Leading zero omitted, Abs format (unit mm)*
G04 Created by KiCad (PCBNEW (6.0.9)) date 2022-11-21 11:05:08*
%MOMM*%
%LPD*%
G01*
G04 APERTURE LIST*
%ADD10C,0.200000*%
%ADD11C,0.100000*%
%ADD12C,0.220000*%
G04 APERTURE END LIST*
D10*
X14815820Y-6055360D02*
X10215820Y-6055360D01*
X14927954Y-14598230D02*
G75*
G03*
X15015820Y-14386096I-212134J212130D01*
G01*
X14191556Y-15210357D02*
G75*
G03*
X14403688Y-15122492I4J299997D01*
G01*
X15015820Y-6255360D02*
G75*
G03*
X14815820Y-6055360I-200000J0D01*
G01*
X15015820Y-14386096D02*
X15015820Y-6255360D01*
X14403688Y-15122492D02*
X14927952Y-14598228D01*
X10015823Y-14386096D02*
G75*
G03*
X10103688Y-14598228I299997J-4D01*
G01*
X10103688Y-14598228D02*
X10627952Y-15122492D01*
X10627950Y-15122494D02*
G75*
G03*
X10840084Y-15210360I212130J212134D01*
G01*
D11*
X10015820Y-14386096D02*
X10015820Y-6255360D01*
D10*
X10840084Y-15210360D02*
X14191556Y-15210360D01*
X10215820Y-6055360D02*
G75*
G03*
X10015820Y-6255360I0J-200000D01*
G01*
D12*
X14505160Y-13057360D02*
X14725160Y-13277360D01*
X14725160Y-13057360D02*
X14505160Y-13277360D01*
D10*
X10263439Y-15530836D02*
X10263439Y-15330836D01*
X10311058Y-15330836D01*
X10339630Y-15340360D01*
X10358677Y-15359408D01*
X10368201Y-15378455D01*
X10377725Y-15416550D01*
X10377725Y-15445122D01*
X10368201Y-15483217D01*
X10358677Y-15502265D01*
X10339630Y-15521312D01*
X10311058Y-15530836D01*
X10263439Y-15530836D01*
X10463439Y-15530836D02*
X10463439Y-15397503D01*
X10463439Y-15435598D02*
X10472963Y-15416550D01*
X10482487Y-15407027D01*
X10501534Y-15397503D01*
X10520582Y-15397503D01*
X10587249Y-15530836D02*
X10587249Y-15397503D01*
X10587249Y-15330836D02*
X10577725Y-15340360D01*
X10587249Y-15349884D01*
X10596772Y-15340360D01*
X10587249Y-15330836D01*
X10587249Y-15349884D01*
X10711058Y-15530836D02*
X10692010Y-15521312D01*
X10682487Y-15502265D01*
X10682487Y-15330836D01*
X10815820Y-15530836D02*
X10796772Y-15521312D01*
X10787249Y-15502265D01*
X10787249Y-15330836D01*
X11044391Y-15530836D02*
X11044391Y-15330836D01*
X11111058Y-15473693D01*
X11177725Y-15330836D01*
X11177725Y-15530836D01*
X11358677Y-15530836D02*
X11358677Y-15426074D01*
X11349153Y-15407027D01*
X11330106Y-15397503D01*
X11292010Y-15397503D01*
X11272963Y-15407027D01*
X11358677Y-15521312D02*
X11339629Y-15530836D01*
X11292010Y-15530836D01*
X11272963Y-15521312D01*
X11263439Y-15502265D01*
X11263439Y-15483217D01*
X11272963Y-15464169D01*
X11292010Y-15454646D01*
X11339629Y-15454646D01*
X11358677Y-15445122D01*
X11453915Y-15397503D02*
X11453915Y-15597503D01*
X11453915Y-15407027D02*
X11472963Y-15397503D01*
X11511058Y-15397503D01*
X11530106Y-15407027D01*
X11539629Y-15416550D01*
X11549153Y-15435598D01*
X11549153Y-15492741D01*
X11539629Y-15511788D01*
X11530106Y-15521312D01*
X11511058Y-15530836D01*
X11472963Y-15530836D01*
X11453915Y-15521312D01*
X11634868Y-15511788D02*
X11644391Y-15521312D01*
X11634868Y-15530836D01*
X11625344Y-15521312D01*
X11634868Y-15511788D01*
X11634868Y-15530836D01*
X11634868Y-15407027D02*
X11644391Y-15416550D01*
X11634868Y-15426074D01*
X11625344Y-15416550D01*
X11634868Y-15407027D01*
X11634868Y-15426074D01*
X9805820Y-15760360D02*
X10005820Y-15960360D01*
X10005820Y-15760360D02*
X9805820Y-15960360D01*
X10253915Y-15769884D02*
X10263439Y-15760360D01*
X10282487Y-15750836D01*
X10330106Y-15750836D01*
X10349153Y-15760360D01*
X10358677Y-15769884D01*
X10368201Y-15788931D01*
X10368201Y-15807979D01*
X10358677Y-15836550D01*
X10244391Y-15950836D01*
X10368201Y-15950836D01*
X10453915Y-15931788D02*
X10463439Y-15941312D01*
X10453915Y-15950836D01*
X10444391Y-15941312D01*
X10453915Y-15931788D01*
X10453915Y-15950836D01*
X10539630Y-15769884D02*
X10549153Y-15760360D01*
X10568201Y-15750836D01*
X10615820Y-15750836D01*
X10634868Y-15760360D01*
X10644391Y-15769884D01*
X10653915Y-15788931D01*
X10653915Y-15807979D01*
X10644391Y-15836550D01*
X10530106Y-15950836D01*
X10653915Y-15950836D01*
X10777725Y-15750836D02*
X10796772Y-15750836D01*
X10815820Y-15760360D01*
X10825344Y-15769884D01*
X10834868Y-15788931D01*
X10844391Y-15827027D01*
X10844391Y-15874646D01*
X10834868Y-15912741D01*
X10825344Y-15931788D01*
X10815820Y-15941312D01*
X10796772Y-15950836D01*
X10777725Y-15950836D01*
X10758677Y-15941312D01*
X10749153Y-15931788D01*
X10739630Y-15912741D01*
X10730106Y-15874646D01*
X10730106Y-15827027D01*
X10739630Y-15788931D01*
X10749153Y-15769884D01*
X10758677Y-15760360D01*
X10777725Y-15750836D01*
X10968201Y-15750836D02*
X10987249Y-15750836D01*
X11006296Y-15760360D01*
X11015820Y-15769884D01*
X11025344Y-15788931D01*
X11034868Y-15827027D01*
X11034868Y-15874646D01*
X11025344Y-15912741D01*
X11015820Y-15931788D01*
X11006296Y-15941312D01*
X10987249Y-15950836D01*
X10968201Y-15950836D01*
X10949153Y-15941312D01*
X10939630Y-15931788D01*
X10930106Y-15912741D01*
X10920582Y-15874646D01*
X10920582Y-15827027D01*
X10930106Y-15788931D01*
X10939630Y-15769884D01*
X10949153Y-15760360D01*
X10968201Y-15750836D01*
X11120582Y-15950836D02*
X11120582Y-15817503D01*
X11120582Y-15836550D02*
X11130106Y-15827027D01*
X11149153Y-15817503D01*
X11177725Y-15817503D01*
X11196772Y-15827027D01*
X11206296Y-15846074D01*
X11206296Y-15950836D01*
X11206296Y-15846074D02*
X11215820Y-15827027D01*
X11234868Y-15817503D01*
X11263439Y-15817503D01*
X11282487Y-15827027D01*
X11292010Y-15846074D01*
X11292010Y-15950836D01*
X11387248Y-15950836D02*
X11387248Y-15817503D01*
X11387248Y-15836550D02*
X11396772Y-15827027D01*
X11415820Y-15817503D01*
X11444391Y-15817503D01*
X11463439Y-15827027D01*
X11472963Y-15846074D01*
X11472963Y-15950836D01*
X11472963Y-15846074D02*
X11482487Y-15827027D01*
X11501534Y-15817503D01*
X11530106Y-15817503D01*
X11549153Y-15827027D01*
X11558677Y-15846074D01*
X11558677Y-15950836D01*
X11949153Y-15741312D02*
X11777725Y-15998455D01*
X12206296Y-15750836D02*
X12225344Y-15750836D01*
X12244391Y-15760360D01*
X12253915Y-15769884D01*
X12263439Y-15788931D01*
X12272963Y-15827027D01*
X12272963Y-15874646D01*
X12263439Y-15912741D01*
X12253915Y-15931788D01*
X12244391Y-15941312D01*
X12225344Y-15950836D01*
X12206296Y-15950836D01*
X12187248Y-15941312D01*
X12177725Y-15931788D01*
X12168201Y-15912741D01*
X12158677Y-15874646D01*
X12158677Y-15827027D01*
X12168201Y-15788931D01*
X12177725Y-15769884D01*
X12187248Y-15760360D01*
X12206296Y-15750836D01*
X12358677Y-15931788D02*
X12368201Y-15941312D01*
X12358677Y-15950836D01*
X12349153Y-15941312D01*
X12358677Y-15931788D01*
X12358677Y-15950836D01*
X12492010Y-15750836D02*
X12511058Y-15750836D01*
X12530106Y-15760360D01*
X12539629Y-15769884D01*
X12549153Y-15788931D01*
X12558677Y-15827027D01*
X12558677Y-15874646D01*
X12549153Y-15912741D01*
X12539629Y-15931788D01*
X12530106Y-15941312D01*
X12511058Y-15950836D01*
X12492010Y-15950836D01*
X12472963Y-15941312D01*
X12463439Y-15931788D01*
X12453915Y-15912741D01*
X12444391Y-15874646D01*
X12444391Y-15827027D01*
X12453915Y-15788931D01*
X12463439Y-15769884D01*
X12472963Y-15760360D01*
X12492010Y-15750836D01*
X12672963Y-15836550D02*
X12653915Y-15827027D01*
X12644391Y-15817503D01*
X12634868Y-15798455D01*
X12634868Y-15788931D01*
X12644391Y-15769884D01*
X12653915Y-15760360D01*
X12672963Y-15750836D01*
X12711058Y-15750836D01*
X12730106Y-15760360D01*
X12739629Y-15769884D01*
X12749153Y-15788931D01*
X12749153Y-15798455D01*
X12739629Y-15817503D01*
X12730106Y-15827027D01*
X12711058Y-15836550D01*
X12672963Y-15836550D01*
X12653915Y-15846074D01*
X12644391Y-15855598D01*
X12634868Y-15874646D01*
X12634868Y-15912741D01*
X12644391Y-15931788D01*
X12653915Y-15941312D01*
X12672963Y-15950836D01*
X12711058Y-15950836D01*
X12730106Y-15941312D01*
X12739629Y-15931788D01*
X12749153Y-15912741D01*
X12749153Y-15874646D01*
X12739629Y-15855598D01*
X12730106Y-15846074D01*
X12711058Y-15836550D01*
X12920582Y-15750836D02*
X12882487Y-15750836D01*
X12863439Y-15760360D01*
X12853915Y-15769884D01*
X12834868Y-15798455D01*
X12825344Y-15836550D01*
X12825344Y-15912741D01*
X12834868Y-15931788D01*
X12844391Y-15941312D01*
X12863439Y-15950836D01*
X12901534Y-15950836D01*
X12920582Y-15941312D01*
X12930106Y-15931788D01*
X12939629Y-15912741D01*
X12939629Y-15865122D01*
X12930106Y-15846074D01*
X12920582Y-15836550D01*
X12901534Y-15827027D01*
X12863439Y-15827027D01*
X12844391Y-15836550D01*
X12834868Y-15846074D01*
X12825344Y-15865122D01*
X13111058Y-15750836D02*
X13072963Y-15750836D01*
X13053915Y-15760360D01*
X13044391Y-15769884D01*
X13025344Y-15798455D01*
X13015820Y-15836550D01*
X13015820Y-15912741D01*
X13025344Y-15931788D01*
X13034868Y-15941312D01*
X13053915Y-15950836D01*
X13092010Y-15950836D01*
X13111058Y-15941312D01*
X13120582Y-15931788D01*
X13130106Y-15912741D01*
X13130106Y-15865122D01*
X13120582Y-15846074D01*
X13111058Y-15836550D01*
X13092010Y-15827027D01*
X13053915Y-15827027D01*
X13034868Y-15836550D01*
X13025344Y-15846074D01*
X13015820Y-15865122D01*
X13206296Y-15750836D02*
X13206296Y-15788931D01*
X13282487Y-15750836D02*
X13282487Y-15788931D01*
X13577725Y-16027027D02*
X13568201Y-16017503D01*
X13549153Y-15988931D01*
X13539629Y-15969884D01*
X13530106Y-15941312D01*
X13520582Y-15893693D01*
X13520582Y-15855598D01*
X13530106Y-15807979D01*
X13539629Y-15779408D01*
X13549153Y-15760360D01*
X13568201Y-15731788D01*
X13577725Y-15722265D01*
X13758677Y-15950836D02*
X13644391Y-15950836D01*
X13701534Y-15950836D02*
X13701534Y-15750836D01*
X13682487Y-15779408D01*
X13663439Y-15798455D01*
X13644391Y-15807979D01*
X13996772Y-15950836D02*
X13996772Y-15750836D01*
X14082487Y-15950836D02*
X14082487Y-15846074D01*
X14072963Y-15827027D01*
X14053915Y-15817503D01*
X14025344Y-15817503D01*
X14006296Y-15827027D01*
X13996772Y-15836550D01*
X14206296Y-15950836D02*
X14187248Y-15941312D01*
X14177725Y-15931788D01*
X14168201Y-15912741D01*
X14168201Y-15855598D01*
X14177725Y-15836550D01*
X14187248Y-15827027D01*
X14206296Y-15817503D01*
X14234868Y-15817503D01*
X14253915Y-15827027D01*
X14263439Y-15836550D01*
X14272963Y-15855598D01*
X14272963Y-15912741D01*
X14263439Y-15931788D01*
X14253915Y-15941312D01*
X14234868Y-15950836D01*
X14206296Y-15950836D01*
X14387248Y-15950836D02*
X14368201Y-15941312D01*
X14358677Y-15922265D01*
X14358677Y-15750836D01*
X14539629Y-15941312D02*
X14520582Y-15950836D01*
X14482487Y-15950836D01*
X14463439Y-15941312D01*
X14453915Y-15922265D01*
X14453915Y-15846074D01*
X14463439Y-15827027D01*
X14482487Y-15817503D01*
X14520582Y-15817503D01*
X14539629Y-15827027D01*
X14549153Y-15846074D01*
X14549153Y-15865122D01*
X14453915Y-15884169D01*
X14615820Y-16027027D02*
X14625344Y-16017503D01*
X14644391Y-15988931D01*
X14653915Y-15969884D01*
X14663439Y-15941312D01*
X14672963Y-15893693D01*
X14672963Y-15855598D01*
X14663439Y-15807979D01*
X14653915Y-15779408D01*
X14644391Y-15760360D01*
X14625344Y-15731788D01*
X14615820Y-15722265D01*
X14977725Y-16027027D02*
X14968201Y-16017503D01*
X14949153Y-15988931D01*
X14939629Y-15969884D01*
X14930106Y-15941312D01*
X14920582Y-15893693D01*
X14920582Y-15855598D01*
X14930106Y-15807979D01*
X14939629Y-15779408D01*
X14949153Y-15760360D01*
X14968201Y-15731788D01*
X14977725Y-15722265D01*
X15053915Y-15817503D02*
X15053915Y-15950836D01*
X15053915Y-15836550D02*
X15063439Y-15827027D01*
X15082487Y-15817503D01*
X15111058Y-15817503D01*
X15130106Y-15827027D01*
X15139629Y-15846074D01*
X15139629Y-15950836D01*
X15263439Y-15950836D02*
X15244391Y-15941312D01*
X15234868Y-15931788D01*
X15225344Y-15912741D01*
X15225344Y-15855598D01*
X15234868Y-15836550D01*
X15244391Y-15827027D01*
X15263439Y-15817503D01*
X15292010Y-15817503D01*
X15311058Y-15827027D01*
X15320582Y-15836550D01*
X15330106Y-15855598D01*
X15330106Y-15912741D01*
X15320582Y-15931788D01*
X15311058Y-15941312D01*
X15292010Y-15950836D01*
X15263439Y-15950836D01*
X15387248Y-15817503D02*
X15463439Y-15817503D01*
X15415820Y-15750836D02*
X15415820Y-15922265D01*
X15425344Y-15941312D01*
X15444391Y-15950836D01*
X15463439Y-15950836D01*
X15682487Y-15817503D02*
X15682487Y-16017503D01*
X15682487Y-15827027D02*
X15701534Y-15817503D01*
X15739629Y-15817503D01*
X15758677Y-15827027D01*
X15768201Y-15836550D01*
X15777725Y-15855598D01*
X15777725Y-15912741D01*
X15768201Y-15931788D01*
X15758677Y-15941312D01*
X15739629Y-15950836D01*
X15701534Y-15950836D01*
X15682487Y-15941312D01*
X15892010Y-15950836D02*
X15872963Y-15941312D01*
X15863439Y-15922265D01*
X15863439Y-15750836D01*
X16053915Y-15950836D02*
X16053915Y-15846074D01*
X16044391Y-15827027D01*
X16025344Y-15817503D01*
X15987248Y-15817503D01*
X15968201Y-15827027D01*
X16053915Y-15941312D02*
X16034868Y-15950836D01*
X15987248Y-15950836D01*
X15968201Y-15941312D01*
X15958677Y-15922265D01*
X15958677Y-15903217D01*
X15968201Y-15884169D01*
X15987248Y-15874646D01*
X16034868Y-15874646D01*
X16053915Y-15865122D01*
X16120582Y-15817503D02*
X16196772Y-15817503D01*
X16149153Y-15750836D02*
X16149153Y-15922265D01*
X16158677Y-15941312D01*
X16177725Y-15950836D01*
X16196772Y-15950836D01*
X16339629Y-15941312D02*
X16320582Y-15950836D01*
X16282487Y-15950836D01*
X16263439Y-15941312D01*
X16253915Y-15922265D01*
X16253915Y-15846074D01*
X16263439Y-15827027D01*
X16282487Y-15817503D01*
X16320582Y-15817503D01*
X16339629Y-15827027D01*
X16349153Y-15846074D01*
X16349153Y-15865122D01*
X16253915Y-15884169D01*
X16520582Y-15950836D02*
X16520582Y-15750836D01*
X16520582Y-15941312D02*
X16501534Y-15950836D01*
X16463439Y-15950836D01*
X16444391Y-15941312D01*
X16434868Y-15931788D01*
X16425344Y-15912741D01*
X16425344Y-15855598D01*
X16434868Y-15836550D01*
X16444391Y-15827027D01*
X16463439Y-15817503D01*
X16501534Y-15817503D01*
X16520582Y-15827027D01*
X16596772Y-16027027D02*
X16606296Y-16017503D01*
X16625344Y-15988931D01*
X16634868Y-15969884D01*
X16644391Y-15941312D01*
X16653915Y-15893693D01*
X16653915Y-15855598D01*
X16644391Y-15807979D01*
X16634868Y-15779408D01*
X16625344Y-15760360D01*
X16606296Y-15731788D01*
X16596772Y-15722265D01*
M02*
