M48
; DRILL file {KiCad (6.0.9)} date Sat Dec  3 16:10:33 2022
; FORMAT={-:-/ absolute / metric / decimal}
; #@! TF.CreationDate,2022-12-03T16:10:33+01:00
; #@! TF.GenerationSoftware,Kicad,Pcbnew,(6.0.9)
; #@! TF.FileFunction,Plated,1,2,PTH
FMAT,2
METRIC
; #@! TA.AperFunction,Plated,PTH,ViaDrill
T1C0.400
; #@! TA.AperFunction,Plated,PTH,ComponentDrill
T2C0.700
; #@! TA.AperFunction,Plated,PTH,ComponentDrill
T3C0.750
; #@! TA.AperFunction,Plated,PTH,ComponentDrill
T4C0.800
; #@! TA.AperFunction,Plated,PTH,ComponentDrill
T5C1.000
; #@! TA.AperFunction,Plated,PTH,ComponentDrill
T6C1.200
; #@! TA.AperFunction,Plated,PTH,ComponentDrill
T7C1.270
%
G90
G05
T1
X120.65Y-105.41
X135.372Y-97.099
X136.49Y-129.124
X138.471Y-104.109
X140.96Y-109.697
T2
X127.762Y-124.968
T3
X105.664Y-124.206
X107.664Y-124.206
X119.25Y-84.348
X121.25Y-84.348
T4
X98.278Y-122.448
X100.778Y-122.448
X103.47Y-107.208
X103.47Y-112.208
X103.978Y-92.095
X103.978Y-102.255
X105.918Y-137.668
X105.918Y-147.828
X107.534Y-92.095
X107.534Y-102.255
X107.915Y-107.335
X107.915Y-114.955
X110.368Y-83.967
X111.09Y-92.095
X111.09Y-102.255
X111.09Y-105.43
X111.09Y-115.59
X115.368Y-83.967
X116.795Y-102.88
X116.795Y-105.42
X116.795Y-107.96
X116.795Y-110.5
X117.44Y-125.801
X117.774Y-118.11
X118.242Y-95.524
X118.282Y-91.46
X119.98Y-125.801
X122.52Y-125.801
X122.774Y-118.11
X123.242Y-95.524
X123.282Y-91.46
X124.415Y-102.88
X124.415Y-105.42
X124.415Y-107.96
X124.415Y-110.5
X128.235Y-92.095
X128.235Y-102.255
X128.235Y-104.795
X128.235Y-114.955
X131.318Y-122.0
X131.318Y-127.0
X131.41Y-92.095
X131.41Y-102.255
X131.41Y-104.795
X131.41Y-114.955
X134.585Y-92.095
X134.585Y-102.255
X135.982Y-107.288
X135.982Y-112.288
X140.34Y-122.6
X142.84Y-122.6
T5
X144.313Y-90.952
X144.313Y-93.492
X144.313Y-96.032
X144.313Y-98.572
X144.313Y-101.112
X144.313Y-103.652
X144.313Y-106.192
T6
X126.076Y-83.84
X138.776Y-83.84
T4
X103.13Y-62.824G85X100.16Y-65.793
G05
X102.499Y-75.339G85X108.699Y-75.339
G05
X112.593Y-65.717G85X112.593Y-71.917
G05
X128.451Y-65.21G85X128.451Y-71.41
G05
X138.073Y-75.304G85X131.873Y-75.304
G05
X140.967Y-65.841G85X137.997Y-62.871
G05
T7
X115.015Y-138.557G85X115.015Y-137.287
G05
X115.016Y-143.658G85X115.016Y-142.388
G05
X115.016Y-148.657G85X115.016Y-147.387
G05
X119.713Y-138.557G85X119.713Y-137.287
G05
X119.714Y-143.658G85X119.714Y-142.388
G05
X119.714Y-148.657G85X119.714Y-147.387
G05
X124.415Y-138.557G85X124.415Y-137.287
G05
X124.416Y-143.658G85X124.416Y-142.388
G05
X124.416Y-148.657G85X124.416Y-147.387
G05
T0
M30
