G04 #@! TF.GenerationSoftware,KiCad,Pcbnew,(6.0.11)*
G04 #@! TF.CreationDate,2023-07-08T12:34:21+02:00*
G04 #@! TF.ProjectId,ray-rounded,7261792d-726f-4756-9e64-65642e6b6963,rev?*
G04 #@! TF.SameCoordinates,Original*
G04 #@! TF.FileFunction,Soldermask,Bot*
G04 #@! TF.FilePolarity,Negative*
%FSLAX46Y46*%
G04 Gerber Fmt 4.6, Leading zero omitted, Abs format (unit mm)*
G04 Created by KiCad (PCBNEW (6.0.11)) date 2023-07-08 12:34:21*
%MOMM*%
%LPD*%
G01*
G04 APERTURE LIST*
G04 Aperture macros list*
%AMRoundRect*
0 Rectangle with rounded corners*
0 $1 Rounding radius*
0 $2 $3 $4 $5 $6 $7 $8 $9 X,Y pos of 4 corners*
0 Add a 4 corners polygon primitive as box body*
4,1,4,$2,$3,$4,$5,$6,$7,$8,$9,$2,$3,0*
0 Add four circle primitives for the rounded corners*
1,1,$1+$1,$2,$3*
1,1,$1+$1,$4,$5*
1,1,$1+$1,$6,$7*
1,1,$1+$1,$8,$9*
0 Add four rect primitives between the rounded corners*
20,1,$1+$1,$2,$3,$4,$5,0*
20,1,$1+$1,$4,$5,$6,$7,0*
20,1,$1+$1,$6,$7,$8,$9,0*
20,1,$1+$1,$8,$9,$2,$3,0*%
%AMHorizOval*
0 Thick line with rounded ends*
0 $1 width*
0 $2 $3 position (X,Y) of the first rounded end (center of the circle)*
0 $4 $5 position (X,Y) of the second rounded end (center of the circle)*
0 Add line between two ends*
20,1,$1,$2,$3,$4,$5,0*
0 Add two circle primitives to create the rounded ends*
1,1,$1,$2,$3*
1,1,$1,$4,$5*%
G04 Aperture macros list end*
%ADD10C,0.250000*%
%ADD11C,1.600000*%
%ADD12C,1.440000*%
%ADD13O,1.600000X1.600000*%
%ADD14R,1.600000X1.600000*%
%ADD15R,1.500000X1.500000*%
%ADD16RoundRect,0.250000X0.350000X0.625000X-0.350000X0.625000X-0.350000X-0.625000X0.350000X-0.625000X0*%
%ADD17O,1.200000X1.750000*%
%ADD18O,2.203200X8.203200*%
%ADD19HorizOval,2.203200X-1.414214X1.414214X1.414214X-1.414214X0*%
%ADD20O,8.203200X2.203200*%
%ADD21R,2.400000X1.600000*%
%ADD22O,2.400000X1.600000*%
%ADD23HorizOval,2.203200X-1.414214X-1.414214X1.414214X1.414214X0*%
%ADD24R,2.400000X2.400000*%
%ADD25O,2.400000X2.400000*%
%ADD26R,1.700000X1.700000*%
%ADD27O,1.700000X1.700000*%
%ADD28C,2.200000*%
%ADD29RoundRect,0.250000X-0.350000X-0.625000X0.350000X-0.625000X0.350000X0.625000X-0.350000X0.625000X0*%
%ADD30O,2.743200X4.003200*%
G04 APERTURE END LIST*
D10*
X109449683Y-132773580D02*
X109449683Y-131757580D01*
X109965261Y-132265214D02*
X108949261Y-132265214D01*
X110435788Y-133270739D02*
X108479988Y-133270739D01*
X108479988Y-133270739D02*
X108479988Y-131289539D01*
X108479988Y-131289539D02*
X110435788Y-131289539D01*
X110435788Y-131289539D02*
X110435788Y-133270739D01*
X130911190Y-132843482D02*
X130911190Y-131543482D01*
X130477857Y-132472053D01*
X130044523Y-131543482D01*
X130044523Y-132843482D01*
X128868333Y-132843482D02*
X128868333Y-132162529D01*
X128930238Y-132038720D01*
X129054047Y-131976815D01*
X129301666Y-131976815D01*
X129425476Y-132038720D01*
X128868333Y-132781577D02*
X128992142Y-132843482D01*
X129301666Y-132843482D01*
X129425476Y-132781577D01*
X129487380Y-132657767D01*
X129487380Y-132533958D01*
X129425476Y-132410148D01*
X129301666Y-132348244D01*
X128992142Y-132348244D01*
X128868333Y-132286339D01*
X127692142Y-132843482D02*
X127692142Y-131543482D01*
X127692142Y-132781577D02*
X127815952Y-132843482D01*
X128063571Y-132843482D01*
X128187380Y-132781577D01*
X128249285Y-132719672D01*
X128311190Y-132595863D01*
X128311190Y-132224434D01*
X128249285Y-132100625D01*
X128187380Y-132038720D01*
X128063571Y-131976815D01*
X127815952Y-131976815D01*
X127692142Y-132038720D01*
X126577857Y-132781577D02*
X126701666Y-132843482D01*
X126949285Y-132843482D01*
X127073095Y-132781577D01*
X127135000Y-132657767D01*
X127135000Y-132162529D01*
X127073095Y-132038720D01*
X126949285Y-131976815D01*
X126701666Y-131976815D01*
X126577857Y-132038720D01*
X126515952Y-132162529D01*
X126515952Y-132286339D01*
X127135000Y-132410148D01*
X124968333Y-132843482D02*
X124968333Y-131976815D01*
X124968333Y-131543482D02*
X125030238Y-131605387D01*
X124968333Y-131667291D01*
X124906428Y-131605387D01*
X124968333Y-131543482D01*
X124968333Y-131667291D01*
X124349285Y-131976815D02*
X124349285Y-132843482D01*
X124349285Y-132100625D02*
X124287380Y-132038720D01*
X124163571Y-131976815D01*
X123977857Y-131976815D01*
X123854047Y-132038720D01*
X123792142Y-132162529D01*
X123792142Y-132843482D01*
X122244523Y-132781577D02*
X122058809Y-132843482D01*
X121749285Y-132843482D01*
X121625476Y-132781577D01*
X121563571Y-132719672D01*
X121501666Y-132595863D01*
X121501666Y-132472053D01*
X121563571Y-132348244D01*
X121625476Y-132286339D01*
X121749285Y-132224434D01*
X121996904Y-132162529D01*
X122120714Y-132100625D01*
X122182619Y-132038720D01*
X122244523Y-131914910D01*
X122244523Y-131791101D01*
X122182619Y-131667291D01*
X122120714Y-131605387D01*
X121996904Y-131543482D01*
X121687380Y-131543482D01*
X121501666Y-131605387D01*
X121068333Y-131976815D02*
X120820714Y-132843482D01*
X120573095Y-132224434D01*
X120325476Y-132843482D01*
X120077857Y-131976815D01*
X119582619Y-132843482D02*
X119582619Y-131976815D01*
X119582619Y-131543482D02*
X119644523Y-131605387D01*
X119582619Y-131667291D01*
X119520714Y-131605387D01*
X119582619Y-131543482D01*
X119582619Y-131667291D01*
X119149285Y-131976815D02*
X118654047Y-131976815D01*
X118963571Y-131543482D02*
X118963571Y-132657767D01*
X118901666Y-132781577D01*
X118777857Y-132843482D01*
X118654047Y-132843482D01*
X118344523Y-131976815D02*
X117663571Y-131976815D01*
X118344523Y-132843482D01*
X117663571Y-132843482D01*
X116673095Y-132781577D02*
X116796904Y-132843482D01*
X117044523Y-132843482D01*
X117168333Y-132781577D01*
X117230238Y-132657767D01*
X117230238Y-132162529D01*
X117168333Y-132038720D01*
X117044523Y-131976815D01*
X116796904Y-131976815D01*
X116673095Y-132038720D01*
X116611190Y-132162529D01*
X116611190Y-132286339D01*
X117230238Y-132410148D01*
X116054047Y-132843482D02*
X116054047Y-131976815D01*
X116054047Y-132224434D02*
X115992142Y-132100625D01*
X115930238Y-132038720D01*
X115806428Y-131976815D01*
X115682619Y-131976815D01*
X115063571Y-132843482D02*
X115187380Y-132781577D01*
X115249285Y-132657767D01*
X115249285Y-131543482D01*
X114011190Y-132843482D02*
X114011190Y-132162529D01*
X114073095Y-132038720D01*
X114196904Y-131976815D01*
X114444523Y-131976815D01*
X114568333Y-132038720D01*
X114011190Y-132781577D02*
X114135000Y-132843482D01*
X114444523Y-132843482D01*
X114568333Y-132781577D01*
X114630238Y-132657767D01*
X114630238Y-132533958D01*
X114568333Y-132410148D01*
X114444523Y-132348244D01*
X114135000Y-132348244D01*
X114011190Y-132286339D01*
X113392142Y-131976815D02*
X113392142Y-132843482D01*
X113392142Y-132100625D02*
X113330238Y-132038720D01*
X113206428Y-131976815D01*
X113020714Y-131976815D01*
X112896904Y-132038720D01*
X112835000Y-132162529D01*
X112835000Y-132843482D01*
X111658809Y-132843482D02*
X111658809Y-131543482D01*
X111658809Y-132781577D02*
X111782619Y-132843482D01*
X112030238Y-132843482D01*
X112154047Y-132781577D01*
X112215952Y-132719672D01*
X112277857Y-132595863D01*
X112277857Y-132224434D01*
X112215952Y-132100625D01*
X112154047Y-132038720D01*
X112030238Y-131976815D01*
X111782619Y-131976815D01*
X111658809Y-132038720D01*
X126602152Y-129944895D02*
X126602152Y-128644895D01*
X126292628Y-128644895D01*
X126106914Y-128706800D01*
X125983104Y-128830609D01*
X125921200Y-128954419D01*
X125859295Y-129202038D01*
X125859295Y-129387752D01*
X125921200Y-129635371D01*
X125983104Y-129759180D01*
X126106914Y-129882990D01*
X126292628Y-129944895D01*
X126602152Y-129944895D01*
X125116438Y-129944895D02*
X125240247Y-129882990D01*
X125302152Y-129821085D01*
X125364057Y-129697276D01*
X125364057Y-129325847D01*
X125302152Y-129202038D01*
X125240247Y-129140133D01*
X125116438Y-129078228D01*
X124930723Y-129078228D01*
X124806914Y-129140133D01*
X124745009Y-129202038D01*
X124683104Y-129325847D01*
X124683104Y-129697276D01*
X124745009Y-129821085D01*
X124806914Y-129882990D01*
X124930723Y-129944895D01*
X125116438Y-129944895D01*
X124125961Y-129944895D02*
X124125961Y-128644895D01*
X123568819Y-129944895D02*
X123568819Y-129263942D01*
X123630723Y-129140133D01*
X123754533Y-129078228D01*
X123940247Y-129078228D01*
X124064057Y-129140133D01*
X124125961Y-129202038D01*
X122764057Y-129944895D02*
X122887866Y-129882990D01*
X122949771Y-129759180D01*
X122949771Y-128644895D01*
X121773580Y-129882990D02*
X121897390Y-129944895D01*
X122145009Y-129944895D01*
X122268819Y-129882990D01*
X122330723Y-129759180D01*
X122330723Y-129263942D01*
X122268819Y-129140133D01*
X122145009Y-129078228D01*
X121897390Y-129078228D01*
X121773580Y-129140133D01*
X121711676Y-129263942D01*
X121711676Y-129387752D01*
X122330723Y-129511561D01*
X119421200Y-129944895D02*
X119854533Y-129325847D01*
X120164057Y-129944895D02*
X120164057Y-128644895D01*
X119668819Y-128644895D01*
X119545009Y-128706800D01*
X119483104Y-128768704D01*
X119421200Y-128892514D01*
X119421200Y-129078228D01*
X119483104Y-129202038D01*
X119545009Y-129263942D01*
X119668819Y-129325847D01*
X120164057Y-129325847D01*
X118306914Y-129944895D02*
X118306914Y-129263942D01*
X118368819Y-129140133D01*
X118492628Y-129078228D01*
X118740247Y-129078228D01*
X118864057Y-129140133D01*
X118306914Y-129882990D02*
X118430723Y-129944895D01*
X118740247Y-129944895D01*
X118864057Y-129882990D01*
X118925961Y-129759180D01*
X118925961Y-129635371D01*
X118864057Y-129511561D01*
X118740247Y-129449657D01*
X118430723Y-129449657D01*
X118306914Y-129387752D01*
X117811676Y-129078228D02*
X117502152Y-129944895D01*
X117192628Y-129078228D02*
X117502152Y-129944895D01*
X117625961Y-130254419D01*
X117687866Y-130316323D01*
X117811676Y-130378228D01*
X115830723Y-129078228D02*
X115521200Y-129944895D01*
X115211676Y-129078228D01*
X114840247Y-128644895D02*
X114035485Y-128644895D01*
X114468819Y-129140133D01*
X114283104Y-129140133D01*
X114159295Y-129202038D01*
X114097390Y-129263942D01*
X114035485Y-129387752D01*
X114035485Y-129697276D01*
X114097390Y-129821085D01*
X114159295Y-129882990D01*
X114283104Y-129944895D01*
X114654533Y-129944895D01*
X114778342Y-129882990D01*
X114840247Y-129821085D01*
X113478342Y-129821085D02*
X113416438Y-129882990D01*
X113478342Y-129944895D01*
X113540247Y-129882990D01*
X113478342Y-129821085D01*
X113478342Y-129944895D01*
X112178342Y-129944895D02*
X112921200Y-129944895D01*
X112549771Y-129944895D02*
X112549771Y-128644895D01*
X112673580Y-128830609D01*
X112797390Y-128954419D01*
X112921200Y-129016323D01*
D11*
X122774000Y-118110000D03*
X117774000Y-118110000D03*
D12*
X117440000Y-125800800D03*
X119980000Y-125800800D03*
X122520000Y-125800800D03*
D11*
X107534000Y-102255000D03*
D13*
X107534000Y-92095000D03*
D14*
X142840000Y-122600400D03*
D11*
X140340000Y-122600400D03*
D15*
X127762000Y-124968000D03*
D11*
X128235000Y-92095000D03*
D13*
X128235000Y-102255000D03*
D11*
X135982000Y-112288000D03*
X135982000Y-107288000D03*
X103470000Y-112208000D03*
X103470000Y-107208000D03*
D16*
X121250000Y-84348000D03*
D17*
X119250000Y-84348000D03*
D11*
X111090000Y-92095000D03*
D13*
X111090000Y-102255000D03*
D18*
X128450872Y-68310030D03*
D19*
X139481615Y-64356153D03*
D20*
X134973374Y-75304089D03*
D11*
X131410000Y-114955000D03*
D13*
X131410000Y-104795000D03*
D11*
X118242000Y-95524000D03*
X123242000Y-95524000D03*
D14*
X100777600Y-122448000D03*
D11*
X98277600Y-122448000D03*
D21*
X124415000Y-110500000D03*
D22*
X124415000Y-107960000D03*
X124415000Y-105420000D03*
X124415000Y-102880000D03*
X116795000Y-102880000D03*
X116795000Y-105420000D03*
X116795000Y-107960000D03*
X116795000Y-110500000D03*
D11*
X131318000Y-127000000D03*
X131318000Y-122000000D03*
X103978000Y-102255000D03*
D13*
X103978000Y-92095000D03*
D20*
X105598807Y-75339244D03*
D23*
X101644930Y-64308501D03*
D18*
X112592866Y-68816742D03*
D24*
X138776000Y-83840000D03*
D25*
X126076000Y-83840000D03*
D26*
X144313200Y-106192000D03*
D27*
X144313200Y-103652000D03*
X144313200Y-101112000D03*
X144313200Y-98572000D03*
X144313200Y-96032000D03*
X144313200Y-93492000D03*
X144313200Y-90952000D03*
D11*
X105918000Y-137668000D03*
D13*
X105918000Y-147828000D03*
D11*
X115368000Y-83967000D03*
X110368000Y-83967000D03*
X134585000Y-102255000D03*
D13*
X134585000Y-92095000D03*
D28*
X99558400Y-81706400D03*
D11*
X111090000Y-105430000D03*
D13*
X111090000Y-115590000D03*
D29*
X105664000Y-124206000D03*
D17*
X107664000Y-124206000D03*
D11*
X131410000Y-102255000D03*
D13*
X131410000Y-92095000D03*
D11*
X128235000Y-114955000D03*
D13*
X128235000Y-104795000D03*
D30*
X124415560Y-148022000D03*
X119714000Y-148022000D03*
X115015560Y-148022000D03*
X124415560Y-143022520D03*
X119714000Y-143022520D03*
X115015560Y-143022520D03*
X124414800Y-137922000D03*
X119713240Y-137922000D03*
X115014800Y-137922000D03*
D14*
X107915000Y-107335000D03*
D13*
X107915000Y-114955000D03*
D11*
X123282000Y-91460000D03*
X118282000Y-91460000D03*
M02*
