G04 #@! TF.GenerationSoftware,KiCad,Pcbnew,(6.0.9)*
G04 #@! TF.CreationDate,2022-11-21T11:04:56+01:00*
G04 #@! TF.ProjectId,ray-rounded,7261792d-726f-4756-9e64-65642e6b6963,rev?*
G04 #@! TF.SameCoordinates,Original*
G04 #@! TF.FileFunction,Soldermask,Bot*
G04 #@! TF.FilePolarity,Negative*
%FSLAX46Y46*%
G04 Gerber Fmt 4.6, Leading zero omitted, Abs format (unit mm)*
G04 Created by KiCad (PCBNEW (6.0.9)) date 2022-11-21 11:04:56*
%MOMM*%
%LPD*%
G01*
G04 APERTURE LIST*
G04 Aperture macros list*
%AMRoundRect*
0 Rectangle with rounded corners*
0 $1 Rounding radius*
0 $2 $3 $4 $5 $6 $7 $8 $9 X,Y pos of 4 corners*
0 Add a 4 corners polygon primitive as box body*
4,1,4,$2,$3,$4,$5,$6,$7,$8,$9,$2,$3,0*
0 Add four circle primitives for the rounded corners*
1,1,$1+$1,$2,$3*
1,1,$1+$1,$4,$5*
1,1,$1+$1,$6,$7*
1,1,$1+$1,$8,$9*
0 Add four rect primitives between the rounded corners*
20,1,$1+$1,$2,$3,$4,$5,0*
20,1,$1+$1,$4,$5,$6,$7,0*
20,1,$1+$1,$6,$7,$8,$9,0*
20,1,$1+$1,$8,$9,$2,$3,0*%
%AMHorizOval*
0 Thick line with rounded ends*
0 $1 width*
0 $2 $3 position (X,Y) of the first rounded end (center of the circle)*
0 $4 $5 position (X,Y) of the second rounded end (center of the circle)*
0 Add line between two ends*
20,1,$1,$2,$3,$4,$5,0*
0 Add two circle primitives to create the rounded ends*
1,1,$1,$2,$3*
1,1,$1,$4,$5*%
G04 Aperture macros list end*
%ADD10C,0.250000*%
%ADD11C,1.600000*%
%ADD12C,1.440000*%
%ADD13O,1.600000X1.600000*%
%ADD14R,1.600000X1.600000*%
%ADD15R,1.500000X1.500000*%
%ADD16RoundRect,0.250000X-0.350000X-0.625000X0.350000X-0.625000X0.350000X0.625000X-0.350000X0.625000X0*%
%ADD17O,1.200000X1.750000*%
%ADD18O,2.203200X8.203200*%
%ADD19HorizOval,2.203200X1.414214X1.414214X-1.414214X-1.414214X0*%
%ADD20O,8.203200X2.203200*%
%ADD21R,2.400000X1.600000*%
%ADD22O,2.400000X1.600000*%
%ADD23HorizOval,2.203200X1.414214X-1.414214X-1.414214X1.414214X0*%
%ADD24R,2.400000X2.400000*%
%ADD25O,2.400000X2.400000*%
%ADD26R,1.700000X1.700000*%
%ADD27O,1.700000X1.700000*%
%ADD28C,2.200000*%
%ADD29RoundRect,0.250000X0.350000X0.625000X-0.350000X0.625000X-0.350000X-0.625000X0.350000X-0.625000X0*%
%ADD30O,2.743200X4.003200*%
G04 APERTURE END LIST*
D10*
X135876984Y-80606420D02*
X135876984Y-81622420D01*
X135361406Y-81114786D02*
X136377406Y-81114786D01*
X134890879Y-80109261D02*
X136846679Y-80109261D01*
X136846679Y-80109261D02*
X136846679Y-82090461D01*
X136846679Y-82090461D02*
X134890879Y-82090461D01*
X134890879Y-82090461D02*
X134890879Y-80109261D01*
X114415476Y-80536517D02*
X114415476Y-81836517D01*
X114848809Y-80907946D01*
X115282143Y-81836517D01*
X115282143Y-80536517D01*
X116458333Y-80536517D02*
X116458333Y-81217470D01*
X116396428Y-81341279D01*
X116272619Y-81403184D01*
X116025000Y-81403184D01*
X115901190Y-81341279D01*
X116458333Y-80598422D02*
X116334524Y-80536517D01*
X116025000Y-80536517D01*
X115901190Y-80598422D01*
X115839286Y-80722232D01*
X115839286Y-80846041D01*
X115901190Y-80969851D01*
X116025000Y-81031755D01*
X116334524Y-81031755D01*
X116458333Y-81093660D01*
X117634524Y-80536517D02*
X117634524Y-81836517D01*
X117634524Y-80598422D02*
X117510714Y-80536517D01*
X117263095Y-80536517D01*
X117139286Y-80598422D01*
X117077381Y-80660327D01*
X117015476Y-80784136D01*
X117015476Y-81155565D01*
X117077381Y-81279374D01*
X117139286Y-81341279D01*
X117263095Y-81403184D01*
X117510714Y-81403184D01*
X117634524Y-81341279D01*
X118748809Y-80598422D02*
X118625000Y-80536517D01*
X118377381Y-80536517D01*
X118253571Y-80598422D01*
X118191667Y-80722232D01*
X118191667Y-81217470D01*
X118253571Y-81341279D01*
X118377381Y-81403184D01*
X118625000Y-81403184D01*
X118748809Y-81341279D01*
X118810714Y-81217470D01*
X118810714Y-81093660D01*
X118191667Y-80969851D01*
X120358333Y-80536517D02*
X120358333Y-81403184D01*
X120358333Y-81836517D02*
X120296428Y-81774613D01*
X120358333Y-81712708D01*
X120420238Y-81774613D01*
X120358333Y-81836517D01*
X120358333Y-81712708D01*
X120977381Y-81403184D02*
X120977381Y-80536517D01*
X120977381Y-81279374D02*
X121039286Y-81341279D01*
X121163095Y-81403184D01*
X121348809Y-81403184D01*
X121472619Y-81341279D01*
X121534524Y-81217470D01*
X121534524Y-80536517D01*
X123082143Y-80598422D02*
X123267857Y-80536517D01*
X123577381Y-80536517D01*
X123701190Y-80598422D01*
X123763095Y-80660327D01*
X123825000Y-80784136D01*
X123825000Y-80907946D01*
X123763095Y-81031755D01*
X123701190Y-81093660D01*
X123577381Y-81155565D01*
X123329762Y-81217470D01*
X123205952Y-81279374D01*
X123144047Y-81341279D01*
X123082143Y-81465089D01*
X123082143Y-81588898D01*
X123144047Y-81712708D01*
X123205952Y-81774613D01*
X123329762Y-81836517D01*
X123639286Y-81836517D01*
X123825000Y-81774613D01*
X124258333Y-81403184D02*
X124505952Y-80536517D01*
X124753571Y-81155565D01*
X125001190Y-80536517D01*
X125248809Y-81403184D01*
X125744047Y-80536517D02*
X125744047Y-81403184D01*
X125744047Y-81836517D02*
X125682143Y-81774613D01*
X125744047Y-81712708D01*
X125805952Y-81774613D01*
X125744047Y-81836517D01*
X125744047Y-81712708D01*
X126177381Y-81403184D02*
X126672619Y-81403184D01*
X126363095Y-81836517D02*
X126363095Y-80722232D01*
X126425000Y-80598422D01*
X126548809Y-80536517D01*
X126672619Y-80536517D01*
X126982143Y-81403184D02*
X127663095Y-81403184D01*
X126982143Y-80536517D01*
X127663095Y-80536517D01*
X128653571Y-80598422D02*
X128529762Y-80536517D01*
X128282143Y-80536517D01*
X128158333Y-80598422D01*
X128096428Y-80722232D01*
X128096428Y-81217470D01*
X128158333Y-81341279D01*
X128282143Y-81403184D01*
X128529762Y-81403184D01*
X128653571Y-81341279D01*
X128715476Y-81217470D01*
X128715476Y-81093660D01*
X128096428Y-80969851D01*
X129272619Y-80536517D02*
X129272619Y-81403184D01*
X129272619Y-81155565D02*
X129334524Y-81279374D01*
X129396428Y-81341279D01*
X129520238Y-81403184D01*
X129644047Y-81403184D01*
X130263095Y-80536517D02*
X130139286Y-80598422D01*
X130077381Y-80722232D01*
X130077381Y-81836517D01*
X131315476Y-80536517D02*
X131315476Y-81217470D01*
X131253571Y-81341279D01*
X131129762Y-81403184D01*
X130882143Y-81403184D01*
X130758333Y-81341279D01*
X131315476Y-80598422D02*
X131191667Y-80536517D01*
X130882143Y-80536517D01*
X130758333Y-80598422D01*
X130696428Y-80722232D01*
X130696428Y-80846041D01*
X130758333Y-80969851D01*
X130882143Y-81031755D01*
X131191667Y-81031755D01*
X131315476Y-81093660D01*
X131934524Y-81403184D02*
X131934524Y-80536517D01*
X131934524Y-81279374D02*
X131996428Y-81341279D01*
X132120238Y-81403184D01*
X132305952Y-81403184D01*
X132429762Y-81341279D01*
X132491667Y-81217470D01*
X132491667Y-80536517D01*
X133667857Y-80536517D02*
X133667857Y-81836517D01*
X133667857Y-80598422D02*
X133544047Y-80536517D01*
X133296428Y-80536517D01*
X133172619Y-80598422D01*
X133110714Y-80660327D01*
X133048809Y-80784136D01*
X133048809Y-81155565D01*
X133110714Y-81279374D01*
X133172619Y-81341279D01*
X133296428Y-81403184D01*
X133544047Y-81403184D01*
X133667857Y-81341279D01*
X118519752Y-83435104D02*
X118519752Y-84735104D01*
X118829276Y-84735104D01*
X119014990Y-84673200D01*
X119138800Y-84549390D01*
X119200704Y-84425580D01*
X119262609Y-84177961D01*
X119262609Y-83992247D01*
X119200704Y-83744628D01*
X119138800Y-83620819D01*
X119014990Y-83497009D01*
X118829276Y-83435104D01*
X118519752Y-83435104D01*
X120005466Y-83435104D02*
X119881657Y-83497009D01*
X119819752Y-83558914D01*
X119757847Y-83682723D01*
X119757847Y-84054152D01*
X119819752Y-84177961D01*
X119881657Y-84239866D01*
X120005466Y-84301771D01*
X120191180Y-84301771D01*
X120314990Y-84239866D01*
X120376895Y-84177961D01*
X120438800Y-84054152D01*
X120438800Y-83682723D01*
X120376895Y-83558914D01*
X120314990Y-83497009D01*
X120191180Y-83435104D01*
X120005466Y-83435104D01*
X120995942Y-83435104D02*
X120995942Y-84735104D01*
X121553085Y-83435104D02*
X121553085Y-84116057D01*
X121491180Y-84239866D01*
X121367371Y-84301771D01*
X121181657Y-84301771D01*
X121057847Y-84239866D01*
X120995942Y-84177961D01*
X122357847Y-83435104D02*
X122234038Y-83497009D01*
X122172133Y-83620819D01*
X122172133Y-84735104D01*
X123348323Y-83497009D02*
X123224514Y-83435104D01*
X122976895Y-83435104D01*
X122853085Y-83497009D01*
X122791180Y-83620819D01*
X122791180Y-84116057D01*
X122853085Y-84239866D01*
X122976895Y-84301771D01*
X123224514Y-84301771D01*
X123348323Y-84239866D01*
X123410228Y-84116057D01*
X123410228Y-83992247D01*
X122791180Y-83868438D01*
X125700704Y-83435104D02*
X125267371Y-84054152D01*
X124957847Y-83435104D02*
X124957847Y-84735104D01*
X125453085Y-84735104D01*
X125576895Y-84673200D01*
X125638800Y-84611295D01*
X125700704Y-84487485D01*
X125700704Y-84301771D01*
X125638800Y-84177961D01*
X125576895Y-84116057D01*
X125453085Y-84054152D01*
X124957847Y-84054152D01*
X126814990Y-83435104D02*
X126814990Y-84116057D01*
X126753085Y-84239866D01*
X126629276Y-84301771D01*
X126381657Y-84301771D01*
X126257847Y-84239866D01*
X126814990Y-83497009D02*
X126691180Y-83435104D01*
X126381657Y-83435104D01*
X126257847Y-83497009D01*
X126195942Y-83620819D01*
X126195942Y-83744628D01*
X126257847Y-83868438D01*
X126381657Y-83930342D01*
X126691180Y-83930342D01*
X126814990Y-83992247D01*
X127310228Y-84301771D02*
X127619752Y-83435104D01*
X127929276Y-84301771D02*
X127619752Y-83435104D01*
X127495942Y-83125580D01*
X127434038Y-83063676D01*
X127310228Y-83001771D01*
X129291180Y-84301771D02*
X129600704Y-83435104D01*
X129910228Y-84301771D01*
X130281657Y-84735104D02*
X131086419Y-84735104D01*
X130653085Y-84239866D01*
X130838800Y-84239866D01*
X130962609Y-84177961D01*
X131024514Y-84116057D01*
X131086419Y-83992247D01*
X131086419Y-83682723D01*
X131024514Y-83558914D01*
X130962609Y-83497009D01*
X130838800Y-83435104D01*
X130467371Y-83435104D01*
X130343561Y-83497009D01*
X130281657Y-83558914D01*
X131643561Y-83558914D02*
X131705466Y-83497009D01*
X131643561Y-83435104D01*
X131581657Y-83497009D01*
X131643561Y-83558914D01*
X131643561Y-83435104D01*
X132510228Y-84735104D02*
X132634038Y-84735104D01*
X132757847Y-84673200D01*
X132819752Y-84611295D01*
X132881657Y-84487485D01*
X132943561Y-84239866D01*
X132943561Y-83930342D01*
X132881657Y-83682723D01*
X132819752Y-83558914D01*
X132757847Y-83497009D01*
X132634038Y-83435104D01*
X132510228Y-83435104D01*
X132386419Y-83497009D01*
X132324514Y-83558914D01*
X132262609Y-83682723D01*
X132200704Y-83930342D01*
X132200704Y-84239866D01*
X132262609Y-84487485D01*
X132324514Y-84611295D01*
X132386419Y-84673200D01*
X132510228Y-84735104D01*
X134057847Y-83435104D02*
X134057847Y-84116057D01*
X133995942Y-84239866D01*
X133872133Y-84301771D01*
X133624514Y-84301771D01*
X133500704Y-84239866D01*
X134057847Y-83497009D02*
X133934038Y-83435104D01*
X133624514Y-83435104D01*
X133500704Y-83497009D01*
X133438800Y-83620819D01*
X133438800Y-83744628D01*
X133500704Y-83868438D01*
X133624514Y-83930342D01*
X133934038Y-83930342D01*
X134057847Y-83992247D01*
D11*
X122936000Y-94996000D03*
X127936000Y-94996000D03*
D12*
X128270000Y-87579200D03*
X125730000Y-87579200D03*
X123190000Y-87579200D03*
D11*
X138176000Y-111125000D03*
D13*
X138176000Y-121285000D03*
D14*
X102870000Y-90779600D03*
D11*
X105370000Y-90779600D03*
D15*
X118872000Y-89916000D03*
D11*
X117475000Y-121285000D03*
D13*
X117475000Y-111125000D03*
D11*
X109728000Y-101092000D03*
X109728000Y-106092000D03*
X142240000Y-101172000D03*
X142240000Y-106172000D03*
D16*
X124460000Y-129032000D03*
D17*
X126460000Y-129032000D03*
D11*
X134620000Y-121285000D03*
D13*
X134620000Y-111125000D03*
D18*
X133142600Y-144567200D03*
D19*
X144090536Y-149075441D03*
D20*
X140136659Y-138044698D03*
D11*
X114300000Y-98425000D03*
D13*
X114300000Y-108585000D03*
D11*
X127468000Y-117856000D03*
X122468000Y-117856000D03*
D14*
X144932400Y-90932000D03*
D11*
X147432400Y-90932000D03*
D21*
X121295000Y-102880000D03*
D22*
X121295000Y-105420000D03*
X121295000Y-107960000D03*
X121295000Y-110500000D03*
X128915000Y-110500000D03*
X128915000Y-107960000D03*
X128915000Y-105420000D03*
X128915000Y-102880000D03*
D11*
X113792000Y-87924000D03*
X113792000Y-92924000D03*
X141732000Y-111125000D03*
D13*
X141732000Y-121285000D03*
D20*
X110702800Y-138086000D03*
D23*
X106194559Y-149033936D03*
D18*
X117225302Y-145080059D03*
D24*
X106934000Y-129540000D03*
D25*
X119634000Y-129540000D03*
D26*
X101396800Y-107188000D03*
D27*
X101396800Y-109728000D03*
X101396800Y-112268000D03*
X101396800Y-114808000D03*
X101396800Y-117348000D03*
X101396800Y-119888000D03*
X101396800Y-122428000D03*
D11*
X146812000Y-75692000D03*
D13*
X146812000Y-65532000D03*
D11*
X130342000Y-129413000D03*
X135342000Y-129413000D03*
X111125000Y-111125000D03*
D13*
X111125000Y-121285000D03*
D28*
X146151600Y-131673600D03*
D11*
X134620000Y-107950000D03*
D13*
X134620000Y-97790000D03*
D29*
X145796000Y-83312000D03*
D17*
X143796000Y-83312000D03*
D11*
X114300000Y-111125000D03*
D13*
X114300000Y-121285000D03*
D11*
X117475000Y-98425000D03*
D13*
X117475000Y-108585000D03*
D30*
X121294440Y-65358000D03*
X125996000Y-65358000D03*
X130694440Y-65358000D03*
X121294440Y-70357480D03*
X125996000Y-70357480D03*
X130694440Y-70357480D03*
X121295200Y-75458000D03*
X125996760Y-75458000D03*
X130695200Y-75458000D03*
D14*
X137795000Y-106045000D03*
D13*
X137795000Y-98425000D03*
D11*
X122428000Y-121920000D03*
X127428000Y-121920000D03*
M02*
