G04 #@! TF.GenerationSoftware,KiCad,Pcbnew,(6.0.9)*
G04 #@! TF.CreationDate,2022-11-21T11:04:56+01:00*
G04 #@! TF.ProjectId,ray-rounded,7261792d-726f-4756-9e64-65642e6b6963,rev?*
G04 #@! TF.SameCoordinates,Original*
G04 #@! TF.FileFunction,Legend,Top*
G04 #@! TF.FilePolarity,Positive*
%FSLAX46Y46*%
G04 Gerber Fmt 4.6, Leading zero omitted, Abs format (unit mm)*
G04 Created by KiCad (PCBNEW (6.0.9)) date 2022-11-21 11:04:56*
%MOMM*%
%LPD*%
G01*
G04 APERTURE LIST*
G04 Aperture macros list*
%AMRoundRect*
0 Rectangle with rounded corners*
0 $1 Rounding radius*
0 $2 $3 $4 $5 $6 $7 $8 $9 X,Y pos of 4 corners*
0 Add a 4 corners polygon primitive as box body*
4,1,4,$2,$3,$4,$5,$6,$7,$8,$9,$2,$3,0*
0 Add four circle primitives for the rounded corners*
1,1,$1+$1,$2,$3*
1,1,$1+$1,$4,$5*
1,1,$1+$1,$6,$7*
1,1,$1+$1,$8,$9*
0 Add four rect primitives between the rounded corners*
20,1,$1+$1,$2,$3,$4,$5,0*
20,1,$1+$1,$4,$5,$6,$7,0*
20,1,$1+$1,$6,$7,$8,$9,0*
20,1,$1+$1,$8,$9,$2,$3,0*%
%AMHorizOval*
0 Thick line with rounded ends*
0 $1 width*
0 $2 $3 position (X,Y) of the first rounded end (center of the circle)*
0 $4 $5 position (X,Y) of the second rounded end (center of the circle)*
0 Add line between two ends*
20,1,$1,$2,$3,$4,$5,0*
0 Add two circle primitives to create the rounded ends*
1,1,$1,$2,$3*
1,1,$1,$4,$5*%
G04 Aperture macros list end*
%ADD10C,0.150000*%
%ADD11C,0.127000*%
%ADD12C,0.120000*%
%ADD13C,1.600000*%
%ADD14C,1.440000*%
%ADD15O,1.600000X1.600000*%
%ADD16R,1.600000X1.600000*%
%ADD17R,1.500000X1.500000*%
%ADD18RoundRect,0.250000X-0.350000X-0.625000X0.350000X-0.625000X0.350000X0.625000X-0.350000X0.625000X0*%
%ADD19O,1.200000X1.750000*%
%ADD20O,2.203200X8.203200*%
%ADD21HorizOval,2.203200X1.414214X1.414214X-1.414214X-1.414214X0*%
%ADD22O,8.203200X2.203200*%
%ADD23R,2.400000X1.600000*%
%ADD24O,2.400000X1.600000*%
%ADD25HorizOval,2.203200X1.414214X-1.414214X-1.414214X1.414214X0*%
%ADD26R,2.400000X2.400000*%
%ADD27O,2.400000X2.400000*%
%ADD28R,1.700000X1.700000*%
%ADD29O,1.700000X1.700000*%
%ADD30R,1.900000X0.800000*%
%ADD31C,2.200000*%
%ADD32RoundRect,0.250000X0.350000X0.625000X-0.350000X0.625000X-0.350000X-0.625000X0.350000X-0.625000X0*%
%ADD33O,2.743200X4.003200*%
G04 APERTURE END LIST*
D10*
X125269333Y-98909142D02*
X125221714Y-98956761D01*
X125078857Y-99004380D01*
X124983619Y-99004380D01*
X124840761Y-98956761D01*
X124745523Y-98861523D01*
X124697904Y-98766285D01*
X124650285Y-98575809D01*
X124650285Y-98432952D01*
X124697904Y-98242476D01*
X124745523Y-98147238D01*
X124840761Y-98052000D01*
X124983619Y-98004380D01*
X125078857Y-98004380D01*
X125221714Y-98052000D01*
X125269333Y-98099619D01*
X126174095Y-98004380D02*
X125697904Y-98004380D01*
X125650285Y-98480571D01*
X125697904Y-98432952D01*
X125793142Y-98385333D01*
X126031238Y-98385333D01*
X126126476Y-98432952D01*
X126174095Y-98480571D01*
X126221714Y-98575809D01*
X126221714Y-98813904D01*
X126174095Y-98909142D01*
X126126476Y-98956761D01*
X126031238Y-99004380D01*
X125793142Y-99004380D01*
X125697904Y-98956761D01*
X125650285Y-98909142D01*
X124182380Y-84347771D02*
X124325238Y-84395390D01*
X124372857Y-84443009D01*
X124420476Y-84538247D01*
X124420476Y-84681104D01*
X124372857Y-84776342D01*
X124325238Y-84823961D01*
X124230000Y-84871580D01*
X123849047Y-84871580D01*
X123849047Y-83871580D01*
X124182380Y-83871580D01*
X124277619Y-83919200D01*
X124325238Y-83966819D01*
X124372857Y-84062057D01*
X124372857Y-84157295D01*
X124325238Y-84252533D01*
X124277619Y-84300152D01*
X124182380Y-84347771D01*
X123849047Y-84347771D01*
X124849047Y-84871580D02*
X124849047Y-83871580D01*
X125277619Y-84585866D02*
X125753809Y-84585866D01*
X125182380Y-84871580D02*
X125515714Y-83871580D01*
X125849047Y-84871580D01*
X126134761Y-84823961D02*
X126277619Y-84871580D01*
X126515714Y-84871580D01*
X126610952Y-84823961D01*
X126658571Y-84776342D01*
X126706190Y-84681104D01*
X126706190Y-84585866D01*
X126658571Y-84490628D01*
X126610952Y-84443009D01*
X126515714Y-84395390D01*
X126325238Y-84347771D01*
X126230000Y-84300152D01*
X126182380Y-84252533D01*
X126134761Y-84157295D01*
X126134761Y-84062057D01*
X126182380Y-83966819D01*
X126230000Y-83919200D01*
X126325238Y-83871580D01*
X126563333Y-83871580D01*
X126706190Y-83919200D01*
X127658571Y-84871580D02*
X127087142Y-84871580D01*
X127372857Y-84871580D02*
X127372857Y-83871580D01*
X127277619Y-84014438D01*
X127182380Y-84109676D01*
X127087142Y-84157295D01*
X137406142Y-124023380D02*
X137072809Y-123547190D01*
X136834714Y-124023380D02*
X136834714Y-123023380D01*
X137215666Y-123023380D01*
X137310904Y-123071000D01*
X137358523Y-123118619D01*
X137406142Y-123213857D01*
X137406142Y-123356714D01*
X137358523Y-123451952D01*
X137310904Y-123499571D01*
X137215666Y-123547190D01*
X136834714Y-123547190D01*
X138358523Y-124023380D02*
X137787095Y-124023380D01*
X138072809Y-124023380D02*
X138072809Y-123023380D01*
X137977571Y-123166238D01*
X137882333Y-123261476D01*
X137787095Y-123309095D01*
X138977571Y-123023380D02*
X139072809Y-123023380D01*
X139168047Y-123071000D01*
X139215666Y-123118619D01*
X139263285Y-123213857D01*
X139310904Y-123404333D01*
X139310904Y-123642428D01*
X139263285Y-123832904D01*
X139215666Y-123928142D01*
X139168047Y-123975761D01*
X139072809Y-124023380D01*
X138977571Y-124023380D01*
X138882333Y-123975761D01*
X138834714Y-123928142D01*
X138787095Y-123832904D01*
X138739476Y-123642428D01*
X138739476Y-123404333D01*
X138787095Y-123213857D01*
X138834714Y-123118619D01*
X138882333Y-123071000D01*
X138977571Y-123023380D01*
X103953333Y-87386742D02*
X103905714Y-87434361D01*
X103762857Y-87481980D01*
X103667619Y-87481980D01*
X103524761Y-87434361D01*
X103429523Y-87339123D01*
X103381904Y-87243885D01*
X103334285Y-87053409D01*
X103334285Y-86910552D01*
X103381904Y-86720076D01*
X103429523Y-86624838D01*
X103524761Y-86529600D01*
X103667619Y-86481980D01*
X103762857Y-86481980D01*
X103905714Y-86529600D01*
X103953333Y-86577219D01*
X104524761Y-86910552D02*
X104429523Y-86862933D01*
X104381904Y-86815314D01*
X104334285Y-86720076D01*
X104334285Y-86672457D01*
X104381904Y-86577219D01*
X104429523Y-86529600D01*
X104524761Y-86481980D01*
X104715238Y-86481980D01*
X104810476Y-86529600D01*
X104858095Y-86577219D01*
X104905714Y-86672457D01*
X104905714Y-86720076D01*
X104858095Y-86815314D01*
X104810476Y-86862933D01*
X104715238Y-86910552D01*
X104524761Y-86910552D01*
X104429523Y-86958171D01*
X104381904Y-87005790D01*
X104334285Y-87101028D01*
X104334285Y-87291504D01*
X104381904Y-87386742D01*
X104429523Y-87434361D01*
X104524761Y-87481980D01*
X104715238Y-87481980D01*
X104810476Y-87434361D01*
X104858095Y-87386742D01*
X104905714Y-87291504D01*
X104905714Y-87101028D01*
X104858095Y-87005790D01*
X104810476Y-86958171D01*
X104715238Y-86910552D01*
X117610095Y-87720380D02*
X118181523Y-87720380D01*
X117895809Y-88720380D02*
X117895809Y-87720380D01*
X118514857Y-88720380D02*
X118514857Y-87720380D01*
X118895809Y-87720380D01*
X118991047Y-87768000D01*
X119038666Y-87815619D01*
X119086285Y-87910857D01*
X119086285Y-88053714D01*
X119038666Y-88148952D01*
X118991047Y-88196571D01*
X118895809Y-88244190D01*
X118514857Y-88244190D01*
X120038666Y-88720380D02*
X119467238Y-88720380D01*
X119752952Y-88720380D02*
X119752952Y-87720380D01*
X119657714Y-87863238D01*
X119562476Y-87958476D01*
X119467238Y-88006095D01*
X117308333Y-124023380D02*
X116975000Y-123547190D01*
X116736904Y-124023380D02*
X116736904Y-123023380D01*
X117117857Y-123023380D01*
X117213095Y-123071000D01*
X117260714Y-123118619D01*
X117308333Y-123213857D01*
X117308333Y-123356714D01*
X117260714Y-123451952D01*
X117213095Y-123499571D01*
X117117857Y-123547190D01*
X116736904Y-123547190D01*
X118213095Y-123023380D02*
X117736904Y-123023380D01*
X117689285Y-123499571D01*
X117736904Y-123451952D01*
X117832142Y-123404333D01*
X118070238Y-123404333D01*
X118165476Y-123451952D01*
X118213095Y-123499571D01*
X118260714Y-123594809D01*
X118260714Y-123832904D01*
X118213095Y-123928142D01*
X118165476Y-123975761D01*
X118070238Y-124023380D01*
X117832142Y-124023380D01*
X117736904Y-123975761D01*
X117689285Y-123928142D01*
X109561333Y-99290142D02*
X109513714Y-99337761D01*
X109370857Y-99385380D01*
X109275619Y-99385380D01*
X109132761Y-99337761D01*
X109037523Y-99242523D01*
X108989904Y-99147285D01*
X108942285Y-98956809D01*
X108942285Y-98813952D01*
X108989904Y-98623476D01*
X109037523Y-98528238D01*
X109132761Y-98433000D01*
X109275619Y-98385380D01*
X109370857Y-98385380D01*
X109513714Y-98433000D01*
X109561333Y-98480619D01*
X109942285Y-98480619D02*
X109989904Y-98433000D01*
X110085142Y-98385380D01*
X110323238Y-98385380D01*
X110418476Y-98433000D01*
X110466095Y-98480619D01*
X110513714Y-98575857D01*
X110513714Y-98671095D01*
X110466095Y-98813952D01*
X109894666Y-99385380D01*
X110513714Y-99385380D01*
X142022533Y-99061542D02*
X141974914Y-99109161D01*
X141832057Y-99156780D01*
X141736819Y-99156780D01*
X141593961Y-99109161D01*
X141498723Y-99013923D01*
X141451104Y-98918685D01*
X141403485Y-98728209D01*
X141403485Y-98585352D01*
X141451104Y-98394876D01*
X141498723Y-98299638D01*
X141593961Y-98204400D01*
X141736819Y-98156780D01*
X141832057Y-98156780D01*
X141974914Y-98204400D01*
X142022533Y-98252019D01*
X142974914Y-99156780D02*
X142403485Y-99156780D01*
X142689200Y-99156780D02*
X142689200Y-98156780D01*
X142593961Y-98299638D01*
X142498723Y-98394876D01*
X142403485Y-98442495D01*
X123650476Y-126584380D02*
X123650476Y-125584380D01*
X124031428Y-125584380D01*
X124126666Y-125632000D01*
X124174285Y-125679619D01*
X124221904Y-125774857D01*
X124221904Y-125917714D01*
X124174285Y-126012952D01*
X124126666Y-126060571D01*
X124031428Y-126108190D01*
X123650476Y-126108190D01*
X124555238Y-125584380D02*
X124793333Y-126584380D01*
X124983809Y-125870095D01*
X125174285Y-126584380D01*
X125412380Y-125584380D01*
X126364761Y-126584380D02*
X126031428Y-126108190D01*
X125793333Y-126584380D02*
X125793333Y-125584380D01*
X126174285Y-125584380D01*
X126269523Y-125632000D01*
X126317142Y-125679619D01*
X126364761Y-125774857D01*
X126364761Y-125917714D01*
X126317142Y-126012952D01*
X126269523Y-126060571D01*
X126174285Y-126108190D01*
X125793333Y-126108190D01*
X127317142Y-126584380D02*
X126745714Y-126584380D01*
X127031428Y-126584380D02*
X127031428Y-125584380D01*
X126936190Y-125727238D01*
X126840952Y-125822476D01*
X126745714Y-125870095D01*
X134453333Y-124023380D02*
X134120000Y-123547190D01*
X133881904Y-124023380D02*
X133881904Y-123023380D01*
X134262857Y-123023380D01*
X134358095Y-123071000D01*
X134405714Y-123118619D01*
X134453333Y-123213857D01*
X134453333Y-123356714D01*
X134405714Y-123451952D01*
X134358095Y-123499571D01*
X134262857Y-123547190D01*
X133881904Y-123547190D01*
X134929523Y-124023380D02*
X135120000Y-124023380D01*
X135215238Y-123975761D01*
X135262857Y-123928142D01*
X135358095Y-123785285D01*
X135405714Y-123594809D01*
X135405714Y-123213857D01*
X135358095Y-123118619D01*
X135310476Y-123071000D01*
X135215238Y-123023380D01*
X135024761Y-123023380D01*
X134929523Y-123071000D01*
X134881904Y-123118619D01*
X134834285Y-123213857D01*
X134834285Y-123451952D01*
X134881904Y-123547190D01*
X134929523Y-123594809D01*
X135024761Y-123642428D01*
X135215238Y-123642428D01*
X135310476Y-123594809D01*
X135358095Y-123547190D01*
X135405714Y-123451952D01*
X139112666Y-134326380D02*
X139112666Y-135040666D01*
X139065047Y-135183523D01*
X138969809Y-135278761D01*
X138826952Y-135326380D01*
X138731714Y-135326380D01*
X139541238Y-134421619D02*
X139588857Y-134374000D01*
X139684095Y-134326380D01*
X139922190Y-134326380D01*
X140017428Y-134374000D01*
X140065047Y-134421619D01*
X140112666Y-134516857D01*
X140112666Y-134612095D01*
X140065047Y-134754952D01*
X139493619Y-135326380D01*
X140112666Y-135326380D01*
X114133333Y-96718380D02*
X113800000Y-96242190D01*
X113561904Y-96718380D02*
X113561904Y-95718380D01*
X113942857Y-95718380D01*
X114038095Y-95766000D01*
X114085714Y-95813619D01*
X114133333Y-95908857D01*
X114133333Y-96051714D01*
X114085714Y-96146952D01*
X114038095Y-96194571D01*
X113942857Y-96242190D01*
X113561904Y-96242190D01*
X114514285Y-95813619D02*
X114561904Y-95766000D01*
X114657142Y-95718380D01*
X114895238Y-95718380D01*
X114990476Y-95766000D01*
X115038095Y-95813619D01*
X115085714Y-95908857D01*
X115085714Y-96004095D01*
X115038095Y-96146952D01*
X114466666Y-96718380D01*
X115085714Y-96718380D01*
X130024142Y-117895666D02*
X130071761Y-117943285D01*
X130119380Y-118086142D01*
X130119380Y-118181380D01*
X130071761Y-118324238D01*
X129976523Y-118419476D01*
X129881285Y-118467095D01*
X129690809Y-118514714D01*
X129547952Y-118514714D01*
X129357476Y-118467095D01*
X129262238Y-118419476D01*
X129167000Y-118324238D01*
X129119380Y-118181380D01*
X129119380Y-118086142D01*
X129167000Y-117943285D01*
X129214619Y-117895666D01*
X129452714Y-117038523D02*
X130119380Y-117038523D01*
X129071761Y-117276619D02*
X129786047Y-117514714D01*
X129786047Y-116895666D01*
X146015733Y-87539142D02*
X145968114Y-87586761D01*
X145825257Y-87634380D01*
X145730019Y-87634380D01*
X145587161Y-87586761D01*
X145491923Y-87491523D01*
X145444304Y-87396285D01*
X145396685Y-87205809D01*
X145396685Y-87062952D01*
X145444304Y-86872476D01*
X145491923Y-86777238D01*
X145587161Y-86682000D01*
X145730019Y-86634380D01*
X145825257Y-86634380D01*
X145968114Y-86682000D01*
X146015733Y-86729619D01*
X146349066Y-86634380D02*
X146968114Y-86634380D01*
X146634780Y-87015333D01*
X146777638Y-87015333D01*
X146872876Y-87062952D01*
X146920495Y-87110571D01*
X146968114Y-87205809D01*
X146968114Y-87443904D01*
X146920495Y-87539142D01*
X146872876Y-87586761D01*
X146777638Y-87634380D01*
X146491923Y-87634380D01*
X146396685Y-87586761D01*
X146349066Y-87539142D01*
X124333095Y-106132380D02*
X124333095Y-106941904D01*
X124380714Y-107037142D01*
X124428333Y-107084761D01*
X124523571Y-107132380D01*
X124714047Y-107132380D01*
X124809285Y-107084761D01*
X124856904Y-107037142D01*
X124904523Y-106941904D01*
X124904523Y-106132380D01*
X125904523Y-107132380D02*
X125333095Y-107132380D01*
X125618809Y-107132380D02*
X125618809Y-106132380D01*
X125523571Y-106275238D01*
X125428333Y-106370476D01*
X125333095Y-106418095D01*
X116649142Y-90590666D02*
X116696761Y-90638285D01*
X116744380Y-90781142D01*
X116744380Y-90876380D01*
X116696761Y-91019238D01*
X116601523Y-91114476D01*
X116506285Y-91162095D01*
X116315809Y-91209714D01*
X116172952Y-91209714D01*
X115982476Y-91162095D01*
X115887238Y-91114476D01*
X115792000Y-91019238D01*
X115744380Y-90876380D01*
X115744380Y-90781142D01*
X115792000Y-90638285D01*
X115839619Y-90590666D01*
X115744380Y-90257333D02*
X115744380Y-89590666D01*
X116744380Y-90019238D01*
X141565333Y-124023380D02*
X141232000Y-123547190D01*
X140993904Y-124023380D02*
X140993904Y-123023380D01*
X141374857Y-123023380D01*
X141470095Y-123071000D01*
X141517714Y-123118619D01*
X141565333Y-123213857D01*
X141565333Y-123356714D01*
X141517714Y-123451952D01*
X141470095Y-123499571D01*
X141374857Y-123547190D01*
X140993904Y-123547190D01*
X141898666Y-123023380D02*
X142517714Y-123023380D01*
X142184380Y-123404333D01*
X142327238Y-123404333D01*
X142422476Y-123451952D01*
X142470095Y-123499571D01*
X142517714Y-123594809D01*
X142517714Y-123832904D01*
X142470095Y-123928142D01*
X142422476Y-123975761D01*
X142327238Y-124023380D01*
X142041523Y-124023380D01*
X141946285Y-123975761D01*
X141898666Y-123928142D01*
X110410666Y-134326380D02*
X110410666Y-135040666D01*
X110363047Y-135183523D01*
X110267809Y-135278761D01*
X110124952Y-135326380D01*
X110029714Y-135326380D01*
X110791619Y-134326380D02*
X111410666Y-134326380D01*
X111077333Y-134707333D01*
X111220190Y-134707333D01*
X111315428Y-134754952D01*
X111363047Y-134802571D01*
X111410666Y-134897809D01*
X111410666Y-135135904D01*
X111363047Y-135231142D01*
X111315428Y-135278761D01*
X111220190Y-135326380D01*
X110934476Y-135326380D01*
X110839238Y-135278761D01*
X110791619Y-135231142D01*
X112545904Y-127072380D02*
X112545904Y-126072380D01*
X112784000Y-126072380D01*
X112926857Y-126120000D01*
X113022095Y-126215238D01*
X113069714Y-126310476D01*
X113117333Y-126500952D01*
X113117333Y-126643809D01*
X113069714Y-126834285D01*
X113022095Y-126929523D01*
X112926857Y-127024761D01*
X112784000Y-127072380D01*
X112545904Y-127072380D01*
X113498285Y-126167619D02*
X113545904Y-126120000D01*
X113641142Y-126072380D01*
X113879238Y-126072380D01*
X113974476Y-126120000D01*
X114022095Y-126167619D01*
X114069714Y-126262857D01*
X114069714Y-126358095D01*
X114022095Y-126500952D01*
X113450666Y-127072380D01*
X114069714Y-127072380D01*
X106672095Y-127792380D02*
X106672095Y-126792380D01*
X107243523Y-127792380D02*
X106814952Y-127220952D01*
X107243523Y-126792380D02*
X106672095Y-127363809D01*
X101063466Y-103870380D02*
X101063466Y-104584666D01*
X101015847Y-104727523D01*
X100920609Y-104822761D01*
X100777752Y-104870380D01*
X100682514Y-104870380D01*
X102063466Y-104870380D02*
X101492038Y-104870380D01*
X101777752Y-104870380D02*
X101777752Y-103870380D01*
X101682514Y-104013238D01*
X101587276Y-104108476D01*
X101492038Y-104156095D01*
X146645333Y-63444380D02*
X146312000Y-62968190D01*
X146073904Y-63444380D02*
X146073904Y-62444380D01*
X146454857Y-62444380D01*
X146550095Y-62492000D01*
X146597714Y-62539619D01*
X146645333Y-62634857D01*
X146645333Y-62777714D01*
X146597714Y-62872952D01*
X146550095Y-62920571D01*
X146454857Y-62968190D01*
X146073904Y-62968190D01*
X147502476Y-62444380D02*
X147312000Y-62444380D01*
X147216761Y-62492000D01*
X147169142Y-62539619D01*
X147073904Y-62682476D01*
X147026285Y-62872952D01*
X147026285Y-63253904D01*
X147073904Y-63349142D01*
X147121523Y-63396761D01*
X147216761Y-63444380D01*
X147407238Y-63444380D01*
X147502476Y-63396761D01*
X147550095Y-63349142D01*
X147597714Y-63253904D01*
X147597714Y-63015809D01*
X147550095Y-62920571D01*
X147502476Y-62872952D01*
X147407238Y-62825333D01*
X147216761Y-62825333D01*
X147121523Y-62872952D01*
X147073904Y-62920571D01*
X147026285Y-63015809D01*
X132508666Y-125841571D02*
X132175333Y-125841571D01*
X132175333Y-126365380D02*
X132175333Y-125365380D01*
X132651523Y-125365380D01*
X133556285Y-126365380D02*
X132984857Y-126365380D01*
X133270571Y-126365380D02*
X133270571Y-125365380D01*
X133175333Y-125508238D01*
X133080095Y-125603476D01*
X132984857Y-125651095D01*
X106584761Y-114252619D02*
X106489523Y-114205000D01*
X106394285Y-114109761D01*
X106251428Y-113966904D01*
X106156190Y-113919285D01*
X106060952Y-113919285D01*
X106108571Y-114157380D02*
X106013333Y-114109761D01*
X105918095Y-114014523D01*
X105870476Y-113824047D01*
X105870476Y-113490714D01*
X105918095Y-113300238D01*
X106013333Y-113205000D01*
X106108571Y-113157380D01*
X106299047Y-113157380D01*
X106394285Y-113205000D01*
X106489523Y-113300238D01*
X106537142Y-113490714D01*
X106537142Y-113824047D01*
X106489523Y-114014523D01*
X106394285Y-114109761D01*
X106299047Y-114157380D01*
X106108571Y-114157380D01*
X107489523Y-114157380D02*
X106918095Y-114157380D01*
X107203809Y-114157380D02*
X107203809Y-113157380D01*
X107108571Y-113300238D01*
X107013333Y-113395476D01*
X106918095Y-113443095D01*
X110958333Y-124023380D02*
X110625000Y-123547190D01*
X110386904Y-124023380D02*
X110386904Y-123023380D01*
X110767857Y-123023380D01*
X110863095Y-123071000D01*
X110910714Y-123118619D01*
X110958333Y-123213857D01*
X110958333Y-123356714D01*
X110910714Y-123451952D01*
X110863095Y-123499571D01*
X110767857Y-123547190D01*
X110386904Y-123547190D01*
X111291666Y-123023380D02*
X111958333Y-123023380D01*
X111529761Y-124023380D01*
X145389695Y-128925980D02*
X145389695Y-127925980D01*
X145389695Y-128402171D02*
X145961123Y-128402171D01*
X145961123Y-128925980D02*
X145961123Y-127925980D01*
X146961123Y-128925980D02*
X146389695Y-128925980D01*
X146675409Y-128925980D02*
X146675409Y-127925980D01*
X146580171Y-128068838D01*
X146484933Y-128164076D01*
X146389695Y-128211695D01*
X134453333Y-95956380D02*
X134120000Y-95480190D01*
X133881904Y-95956380D02*
X133881904Y-94956380D01*
X134262857Y-94956380D01*
X134358095Y-95004000D01*
X134405714Y-95051619D01*
X134453333Y-95146857D01*
X134453333Y-95289714D01*
X134405714Y-95384952D01*
X134358095Y-95432571D01*
X134262857Y-95480190D01*
X133881904Y-95480190D01*
X135405714Y-95956380D02*
X134834285Y-95956380D01*
X135120000Y-95956380D02*
X135120000Y-94956380D01*
X135024761Y-95099238D01*
X134929523Y-95194476D01*
X134834285Y-95242095D01*
X142848380Y-79134571D02*
X143181714Y-79134571D01*
X143324571Y-79658380D02*
X142848380Y-79658380D01*
X142848380Y-78658380D01*
X143324571Y-78658380D01*
X143943619Y-79182190D02*
X143943619Y-79658380D01*
X143610285Y-78658380D02*
X143943619Y-79182190D01*
X144276952Y-78658380D01*
X144610285Y-79134571D02*
X144943619Y-79134571D01*
X145086476Y-79658380D02*
X144610285Y-79658380D01*
X144610285Y-78658380D01*
X145086476Y-78658380D01*
X145467428Y-79610761D02*
X145610285Y-79658380D01*
X145848380Y-79658380D01*
X145943619Y-79610761D01*
X145991238Y-79563142D01*
X146038857Y-79467904D01*
X146038857Y-79372666D01*
X145991238Y-79277428D01*
X145943619Y-79229809D01*
X145848380Y-79182190D01*
X145657904Y-79134571D01*
X145562666Y-79086952D01*
X145515047Y-79039333D01*
X145467428Y-78944095D01*
X145467428Y-78848857D01*
X145515047Y-78753619D01*
X145562666Y-78706000D01*
X145657904Y-78658380D01*
X145896000Y-78658380D01*
X146038857Y-78706000D01*
X146991238Y-79658380D02*
X146419809Y-79658380D01*
X146705523Y-79658380D02*
X146705523Y-78658380D01*
X146610285Y-78801238D01*
X146515047Y-78896476D01*
X146419809Y-78944095D01*
X114133333Y-124023380D02*
X113800000Y-123547190D01*
X113561904Y-124023380D02*
X113561904Y-123023380D01*
X113942857Y-123023380D01*
X114038095Y-123071000D01*
X114085714Y-123118619D01*
X114133333Y-123213857D01*
X114133333Y-123356714D01*
X114085714Y-123451952D01*
X114038095Y-123499571D01*
X113942857Y-123547190D01*
X113561904Y-123547190D01*
X114990476Y-123356714D02*
X114990476Y-124023380D01*
X114752380Y-122975761D02*
X114514285Y-123690047D01*
X115133333Y-123690047D01*
X117232133Y-96718380D02*
X116898800Y-96242190D01*
X116660704Y-96718380D02*
X116660704Y-95718380D01*
X117041657Y-95718380D01*
X117136895Y-95766000D01*
X117184514Y-95813619D01*
X117232133Y-95908857D01*
X117232133Y-96051714D01*
X117184514Y-96146952D01*
X117136895Y-96194571D01*
X117041657Y-96242190D01*
X116660704Y-96242190D01*
X117803561Y-96146952D02*
X117708323Y-96099333D01*
X117660704Y-96051714D01*
X117613085Y-95956476D01*
X117613085Y-95908857D01*
X117660704Y-95813619D01*
X117708323Y-95766000D01*
X117803561Y-95718380D01*
X117994038Y-95718380D01*
X118089276Y-95766000D01*
X118136895Y-95813619D01*
X118184514Y-95908857D01*
X118184514Y-95956476D01*
X118136895Y-96051714D01*
X118089276Y-96099333D01*
X117994038Y-96146952D01*
X117803561Y-96146952D01*
X117708323Y-96194571D01*
X117660704Y-96242190D01*
X117613085Y-96337428D01*
X117613085Y-96527904D01*
X117660704Y-96623142D01*
X117708323Y-96670761D01*
X117803561Y-96718380D01*
X117994038Y-96718380D01*
X118089276Y-96670761D01*
X118136895Y-96623142D01*
X118184514Y-96527904D01*
X118184514Y-96337428D01*
X118136895Y-96242190D01*
X118089276Y-96194571D01*
X117994038Y-96146952D01*
D11*
X124982400Y-62704742D02*
X125069485Y-62733771D01*
X125214628Y-62733771D01*
X125272685Y-62704742D01*
X125301714Y-62675714D01*
X125330742Y-62617657D01*
X125330742Y-62559600D01*
X125301714Y-62501542D01*
X125272685Y-62472514D01*
X125214628Y-62443485D01*
X125098514Y-62414457D01*
X125040457Y-62385428D01*
X125011428Y-62356400D01*
X124982400Y-62298342D01*
X124982400Y-62240285D01*
X125011428Y-62182228D01*
X125040457Y-62153200D01*
X125098514Y-62124171D01*
X125243657Y-62124171D01*
X125330742Y-62153200D01*
X125533942Y-62124171D02*
X125679085Y-62733771D01*
X125795200Y-62298342D01*
X125911314Y-62733771D01*
X126056457Y-62124171D01*
X126608000Y-62733771D02*
X126259657Y-62733771D01*
X126433828Y-62733771D02*
X126433828Y-62124171D01*
X126375771Y-62211257D01*
X126317714Y-62269314D01*
X126259657Y-62298342D01*
D10*
X137285504Y-95956380D02*
X137285504Y-94956380D01*
X137523600Y-94956380D01*
X137666457Y-95004000D01*
X137761695Y-95099238D01*
X137809314Y-95194476D01*
X137856933Y-95384952D01*
X137856933Y-95527809D01*
X137809314Y-95718285D01*
X137761695Y-95813523D01*
X137666457Y-95908761D01*
X137523600Y-95956380D01*
X137285504Y-95956380D01*
X138809314Y-95956380D02*
X138237885Y-95956380D01*
X138523600Y-95956380D02*
X138523600Y-94956380D01*
X138428361Y-95099238D01*
X138333123Y-95194476D01*
X138237885Y-95242095D01*
X138254010Y-108171070D02*
X137254010Y-108171070D01*
X138254010Y-107599642D02*
X137682582Y-108028213D01*
X137254010Y-107599642D02*
X137825439Y-108171070D01*
X129984142Y-121959666D02*
X130031761Y-122007285D01*
X130079380Y-122150142D01*
X130079380Y-122245380D01*
X130031761Y-122388238D01*
X129936523Y-122483476D01*
X129841285Y-122531095D01*
X129650809Y-122578714D01*
X129507952Y-122578714D01*
X129317476Y-122531095D01*
X129222238Y-122483476D01*
X129127000Y-122388238D01*
X129079380Y-122245380D01*
X129079380Y-122150142D01*
X129127000Y-122007285D01*
X129174619Y-121959666D01*
X129079380Y-121102523D02*
X129079380Y-121293000D01*
X129127000Y-121388238D01*
X129174619Y-121435857D01*
X129317476Y-121531095D01*
X129507952Y-121578714D01*
X129888904Y-121578714D01*
X129984142Y-121531095D01*
X130031761Y-121483476D01*
X130079380Y-121388238D01*
X130079380Y-121197761D01*
X130031761Y-121102523D01*
X129984142Y-121054904D01*
X129888904Y-121007285D01*
X129650809Y-121007285D01*
X129555571Y-121054904D01*
X129507952Y-121102523D01*
X129460333Y-121197761D01*
X129460333Y-121388238D01*
X129507952Y-121483476D01*
X129555571Y-121531095D01*
X129650809Y-121578714D01*
D12*
X121816000Y-92626000D02*
X129056000Y-92626000D01*
X129056000Y-92626000D02*
X129056000Y-97366000D01*
X121816000Y-92626000D02*
X121816000Y-97366000D01*
X121816000Y-97366000D02*
X129056000Y-97366000D01*
X130615000Y-85549200D02*
X130615000Y-91889200D01*
X120845000Y-85549200D02*
X130615000Y-85549200D01*
X120845000Y-85549200D02*
X120845000Y-91889200D01*
X120845000Y-91889200D02*
X130615000Y-91889200D01*
X138176000Y-112165000D02*
X138176000Y-112935000D01*
X136806000Y-119475000D02*
X139546000Y-119475000D01*
X139546000Y-119475000D02*
X139546000Y-112935000D01*
X136806000Y-112935000D02*
X136806000Y-119475000D01*
X139546000Y-112935000D02*
X136806000Y-112935000D01*
X138176000Y-120245000D02*
X138176000Y-119475000D01*
X105681000Y-88714600D02*
X105681000Y-89739600D01*
X106601000Y-89974600D02*
X106601000Y-91584600D01*
X104320000Y-88206600D02*
X104320000Y-93352600D01*
X105561000Y-91819600D02*
X105561000Y-92928600D01*
X104961000Y-88337600D02*
X104961000Y-89739600D01*
X106561000Y-89864600D02*
X106561000Y-91694600D01*
X104560000Y-91819600D02*
X104560000Y-93322600D01*
X105961000Y-88953600D02*
X105961000Y-89739600D01*
X104360000Y-88210600D02*
X104360000Y-89739600D01*
X104400000Y-88214600D02*
X104400000Y-89739600D01*
X106361000Y-89460600D02*
X106361000Y-89739600D01*
X104680000Y-91819600D02*
X104680000Y-93299600D01*
X104841000Y-91819600D02*
X104841000Y-93259600D01*
X105201000Y-91819600D02*
X105201000Y-93127600D01*
X104520000Y-88229600D02*
X104520000Y-89739600D01*
X106241000Y-91819600D02*
X106241000Y-92279600D01*
X106161000Y-89174600D02*
X106161000Y-89739600D01*
X105761000Y-91819600D02*
X105761000Y-92783600D01*
X105241000Y-88450600D02*
X105241000Y-89739600D01*
X104520000Y-91819600D02*
X104520000Y-93329600D01*
X104881000Y-91819600D02*
X104881000Y-93247600D01*
X105121000Y-91819600D02*
X105121000Y-93161600D01*
X105481000Y-88579600D02*
X105481000Y-89739600D01*
X106041000Y-91819600D02*
X106041000Y-92522600D01*
X104480000Y-88223600D02*
X104480000Y-89739600D01*
X105601000Y-88657600D02*
X105601000Y-89739600D01*
X105001000Y-88351600D02*
X105001000Y-89739600D01*
X105281000Y-88469600D02*
X105281000Y-89739600D01*
X105441000Y-88555600D02*
X105441000Y-89739600D01*
X105361000Y-91819600D02*
X105361000Y-93047600D01*
X106281000Y-91819600D02*
X106281000Y-92222600D01*
X104440000Y-91819600D02*
X104440000Y-93340600D01*
X106121000Y-91819600D02*
X106121000Y-92432600D01*
X104921000Y-88324600D02*
X104921000Y-89739600D01*
X106321000Y-89396600D02*
X106321000Y-89739600D01*
X105321000Y-91819600D02*
X105321000Y-93069600D01*
X105281000Y-91819600D02*
X105281000Y-93089600D01*
X105201000Y-88431600D02*
X105201000Y-89739600D01*
X101565225Y-89054600D02*
X101565225Y-89554600D01*
X106441000Y-89601600D02*
X106441000Y-91957600D01*
X105881000Y-91819600D02*
X105881000Y-92680600D01*
X104280000Y-88203600D02*
X104280000Y-93355600D01*
X104881000Y-88311600D02*
X104881000Y-89739600D01*
X105641000Y-91819600D02*
X105641000Y-92874600D01*
X105441000Y-91819600D02*
X105441000Y-93003600D01*
X106641000Y-90102600D02*
X106641000Y-91456600D01*
X105561000Y-88630600D02*
X105561000Y-89739600D01*
X106001000Y-88994600D02*
X106001000Y-89739600D01*
X105881000Y-88878600D02*
X105881000Y-89739600D01*
X104360000Y-91819600D02*
X104360000Y-93348600D01*
X106721000Y-90495600D02*
X106721000Y-91063600D01*
X105001000Y-91819600D02*
X105001000Y-93207600D01*
X105401000Y-88532600D02*
X105401000Y-89739600D01*
X105961000Y-91819600D02*
X105961000Y-92605600D01*
X104720000Y-91819600D02*
X104720000Y-93290600D01*
X105801000Y-91819600D02*
X105801000Y-92750600D01*
X105241000Y-91819600D02*
X105241000Y-93108600D01*
X104240000Y-88201600D02*
X104240000Y-93357600D01*
X105401000Y-91819600D02*
X105401000Y-93026600D01*
X106241000Y-89279600D02*
X106241000Y-89739600D01*
X105601000Y-91819600D02*
X105601000Y-92901600D01*
X104560000Y-88236600D02*
X104560000Y-89739600D01*
X104200000Y-88200600D02*
X104200000Y-93358600D01*
X104120000Y-88199600D02*
X104120000Y-93359600D01*
X105121000Y-88397600D02*
X105121000Y-89739600D01*
X104800000Y-88288600D02*
X104800000Y-89739600D01*
X106361000Y-91819600D02*
X106361000Y-92098600D01*
X105481000Y-91819600D02*
X105481000Y-92979600D01*
X106321000Y-91819600D02*
X106321000Y-92162600D01*
X104440000Y-88218600D02*
X104440000Y-89739600D01*
X104600000Y-91819600D02*
X104600000Y-93315600D01*
X106401000Y-91819600D02*
X106401000Y-92030600D01*
X104480000Y-91819600D02*
X104480000Y-93335600D01*
X105841000Y-91819600D02*
X105841000Y-92716600D01*
X105921000Y-88915600D02*
X105921000Y-89739600D01*
X104640000Y-91819600D02*
X104640000Y-93307600D01*
X104160000Y-88199600D02*
X104160000Y-93359600D01*
X104760000Y-91819600D02*
X104760000Y-93280600D01*
X106161000Y-91819600D02*
X106161000Y-92384600D01*
X106401000Y-89528600D02*
X106401000Y-89739600D01*
X105761000Y-88775600D02*
X105761000Y-89739600D01*
X106201000Y-89225600D02*
X106201000Y-89739600D01*
X105161000Y-88414600D02*
X105161000Y-89739600D01*
X104720000Y-88268600D02*
X104720000Y-89739600D01*
X105641000Y-88684600D02*
X105641000Y-89739600D01*
X106001000Y-91819600D02*
X106001000Y-92564600D01*
X104680000Y-88259600D02*
X104680000Y-89739600D01*
X105081000Y-91819600D02*
X105081000Y-93177600D01*
X105921000Y-91819600D02*
X105921000Y-92643600D01*
X101315225Y-89304600D02*
X101815225Y-89304600D01*
X106081000Y-91819600D02*
X106081000Y-92478600D01*
X105721000Y-88744600D02*
X105721000Y-89739600D01*
X105841000Y-88842600D02*
X105841000Y-89739600D01*
X106481000Y-89681600D02*
X106481000Y-91877600D01*
X105801000Y-88808600D02*
X105801000Y-89739600D01*
X105721000Y-91819600D02*
X105721000Y-92814600D01*
X105321000Y-88489600D02*
X105321000Y-89739600D01*
X106121000Y-89126600D02*
X106121000Y-89739600D01*
X104921000Y-91819600D02*
X104921000Y-93234600D01*
X105161000Y-91819600D02*
X105161000Y-93144600D01*
X104760000Y-88278600D02*
X104760000Y-89739600D01*
X105041000Y-88365600D02*
X105041000Y-89739600D01*
X106081000Y-89080600D02*
X106081000Y-89739600D01*
X105361000Y-88511600D02*
X105361000Y-89739600D01*
X104800000Y-91819600D02*
X104800000Y-93270600D01*
X104640000Y-88251600D02*
X104640000Y-89739600D01*
X106201000Y-91819600D02*
X106201000Y-92333600D01*
X104600000Y-88243600D02*
X104600000Y-89739600D01*
X106681000Y-90261600D02*
X106681000Y-91297600D01*
X106041000Y-89036600D02*
X106041000Y-89739600D01*
X105521000Y-88604600D02*
X105521000Y-89739600D01*
X104961000Y-91819600D02*
X104961000Y-93221600D01*
X106521000Y-89768600D02*
X106521000Y-91790600D01*
X104400000Y-91819600D02*
X104400000Y-93344600D01*
X105081000Y-88381600D02*
X105081000Y-89739600D01*
X104841000Y-88299600D02*
X104841000Y-89739600D01*
X105041000Y-91819600D02*
X105041000Y-93193600D01*
X105681000Y-91819600D02*
X105681000Y-92844600D01*
X106281000Y-89336600D02*
X106281000Y-89739600D01*
X105521000Y-91819600D02*
X105521000Y-92954600D01*
X106740000Y-90779600D02*
G75*
G03*
X106740000Y-90779600I-2620000J0D01*
G01*
X119822000Y-90866000D02*
X117922000Y-90866000D01*
X117922000Y-90866000D02*
X117922000Y-88966000D01*
X119822000Y-88966000D02*
X119822000Y-90866000D01*
X117922000Y-88966000D02*
X119822000Y-88966000D01*
X116105000Y-119475000D02*
X118845000Y-119475000D01*
X118845000Y-112935000D02*
X116105000Y-112935000D01*
X116105000Y-112935000D02*
X116105000Y-119475000D01*
X118845000Y-119475000D02*
X118845000Y-112935000D01*
X117475000Y-112165000D02*
X117475000Y-112935000D01*
X117475000Y-120245000D02*
X117475000Y-119475000D01*
X112098000Y-99972000D02*
X112098000Y-107212000D01*
X107358000Y-99972000D02*
X107358000Y-107212000D01*
X112098000Y-99972000D02*
X107358000Y-99972000D01*
X112098000Y-107212000D02*
X107358000Y-107212000D01*
X144610000Y-107292000D02*
X139870000Y-107292000D01*
X144610000Y-100052000D02*
X139870000Y-100052000D01*
X144610000Y-100052000D02*
X144610000Y-107292000D01*
X139870000Y-100052000D02*
X139870000Y-107292000D01*
X128520000Y-129832000D02*
X127910000Y-129832000D01*
X128520000Y-131942000D02*
X128520000Y-127222000D01*
X125460000Y-131332000D02*
X125460000Y-130832000D01*
X123010000Y-127832000D02*
X123010000Y-131332000D01*
X125960000Y-127832000D02*
X125960000Y-127222000D01*
X125360000Y-131332000D02*
X125360000Y-130832000D01*
X124160000Y-127122000D02*
X123860000Y-127122000D01*
X122100000Y-126922000D02*
X122100000Y-128172000D01*
X124160000Y-127222000D02*
X124160000Y-127022000D01*
X122400000Y-127222000D02*
X122400000Y-131942000D01*
X124160000Y-127022000D02*
X123860000Y-127022000D01*
X125360000Y-130832000D02*
X125560000Y-130832000D01*
X127910000Y-131332000D02*
X127910000Y-127832000D01*
X127910000Y-127832000D02*
X125960000Y-127832000D01*
X124960000Y-127222000D02*
X124960000Y-127832000D01*
X122400000Y-129832000D02*
X123010000Y-129832000D01*
X122400000Y-128532000D02*
X123010000Y-128532000D01*
X123350000Y-126922000D02*
X122100000Y-126922000D01*
X124960000Y-127832000D02*
X123010000Y-127832000D01*
X128520000Y-128532000D02*
X127910000Y-128532000D01*
X125560000Y-130832000D02*
X125560000Y-131332000D01*
X122400000Y-131942000D02*
X128520000Y-131942000D01*
X128520000Y-127222000D02*
X122400000Y-127222000D01*
X123010000Y-131332000D02*
X127910000Y-131332000D01*
X123860000Y-127022000D02*
X123860000Y-127222000D01*
X134620000Y-112165000D02*
X134620000Y-112935000D01*
X133250000Y-112935000D02*
X133250000Y-119475000D01*
X135990000Y-119475000D02*
X135990000Y-112935000D01*
X133250000Y-119475000D02*
X135990000Y-119475000D01*
X134620000Y-120245000D02*
X134620000Y-119475000D01*
X135990000Y-112935000D02*
X133250000Y-112935000D01*
X114300000Y-99465000D02*
X114300000Y-100235000D01*
X112930000Y-100235000D02*
X112930000Y-106775000D01*
X114300000Y-107545000D02*
X114300000Y-106775000D01*
X112930000Y-106775000D02*
X115670000Y-106775000D01*
X115670000Y-100235000D02*
X112930000Y-100235000D01*
X115670000Y-106775000D02*
X115670000Y-100235000D01*
X128588000Y-120226000D02*
X128588000Y-115486000D01*
X121348000Y-120226000D02*
X121348000Y-115486000D01*
X128588000Y-115486000D02*
X121348000Y-115486000D01*
X128588000Y-120226000D02*
X121348000Y-120226000D01*
X146582400Y-88382000D02*
X146582400Y-89892000D01*
X143627625Y-89207000D02*
X143627625Y-89707000D01*
X146422400Y-91972000D02*
X146422400Y-93501000D01*
X147103400Y-91972000D02*
X147103400Y-93346000D01*
X148743400Y-90414000D02*
X148743400Y-91450000D01*
X146462400Y-91972000D02*
X146462400Y-93497000D01*
X148463400Y-89681000D02*
X148463400Y-89892000D01*
X148663400Y-90127000D02*
X148663400Y-91737000D01*
X147703400Y-88837000D02*
X147703400Y-89892000D01*
X148343400Y-89489000D02*
X148343400Y-89892000D01*
X148463400Y-91972000D02*
X148463400Y-92183000D01*
X148623400Y-90017000D02*
X148623400Y-91847000D01*
X147063400Y-88504000D02*
X147063400Y-89892000D01*
X146462400Y-88367000D02*
X146462400Y-89892000D01*
X147983400Y-91972000D02*
X147983400Y-92796000D01*
X147343400Y-88622000D02*
X147343400Y-89892000D01*
X146822400Y-91972000D02*
X146822400Y-93433000D01*
X146943400Y-91972000D02*
X146943400Y-93400000D01*
X146662400Y-91972000D02*
X146662400Y-93468000D01*
X148063400Y-91972000D02*
X148063400Y-92717000D01*
X146782400Y-88421000D02*
X146782400Y-89892000D01*
X146622400Y-91972000D02*
X146622400Y-93475000D01*
X148023400Y-91972000D02*
X148023400Y-92758000D01*
X146222400Y-88352000D02*
X146222400Y-93512000D01*
X146903400Y-88452000D02*
X146903400Y-89892000D01*
X147943400Y-91972000D02*
X147943400Y-92833000D01*
X148783400Y-90648000D02*
X148783400Y-91216000D01*
X147543400Y-88732000D02*
X147543400Y-89892000D01*
X146542400Y-88376000D02*
X146542400Y-89892000D01*
X147343400Y-91972000D02*
X147343400Y-93242000D01*
X147863400Y-91972000D02*
X147863400Y-92903000D01*
X147103400Y-88518000D02*
X147103400Y-89892000D01*
X147263400Y-91972000D02*
X147263400Y-93280000D01*
X147783400Y-88897000D02*
X147783400Y-89892000D01*
X148343400Y-91972000D02*
X148343400Y-92375000D01*
X146742400Y-91972000D02*
X146742400Y-93452000D01*
X147263400Y-88584000D02*
X147263400Y-89892000D01*
X146943400Y-88464000D02*
X146943400Y-89892000D01*
X147383400Y-91972000D02*
X147383400Y-93222000D01*
X147823400Y-91972000D02*
X147823400Y-92936000D01*
X148103400Y-89189000D02*
X148103400Y-89892000D01*
X146862400Y-91972000D02*
X146862400Y-93423000D01*
X146422400Y-88363000D02*
X146422400Y-89892000D01*
X148143400Y-89233000D02*
X148143400Y-89892000D01*
X147703400Y-91972000D02*
X147703400Y-93027000D01*
X146742400Y-88412000D02*
X146742400Y-89892000D01*
X147503400Y-91972000D02*
X147503400Y-93156000D01*
X148223400Y-91972000D02*
X148223400Y-92537000D01*
X146702400Y-88404000D02*
X146702400Y-89892000D01*
X147463400Y-88685000D02*
X147463400Y-89892000D01*
X146782400Y-91972000D02*
X146782400Y-93443000D01*
X147423400Y-88664000D02*
X147423400Y-89892000D01*
X147223400Y-88567000D02*
X147223400Y-89892000D01*
X147903400Y-91972000D02*
X147903400Y-92869000D01*
X146542400Y-91972000D02*
X146542400Y-93488000D01*
X148263400Y-91972000D02*
X148263400Y-92486000D01*
X146622400Y-88389000D02*
X146622400Y-89892000D01*
X147583400Y-91972000D02*
X147583400Y-93107000D01*
X147183400Y-88550000D02*
X147183400Y-89892000D01*
X148263400Y-89378000D02*
X148263400Y-89892000D01*
X148423400Y-91972000D02*
X148423400Y-92251000D01*
X146262400Y-88353000D02*
X146262400Y-93511000D01*
X148303400Y-91972000D02*
X148303400Y-92432000D01*
X147663400Y-91972000D02*
X147663400Y-93054000D01*
X147663400Y-88810000D02*
X147663400Y-89892000D01*
X147943400Y-89031000D02*
X147943400Y-89892000D01*
X147783400Y-91972000D02*
X147783400Y-92967000D01*
X146983400Y-88477000D02*
X146983400Y-89892000D01*
X148423400Y-89613000D02*
X148423400Y-89892000D01*
X146382400Y-88359000D02*
X146382400Y-93505000D01*
X148063400Y-89147000D02*
X148063400Y-89892000D01*
X146582400Y-91972000D02*
X146582400Y-93482000D01*
X148583400Y-89921000D02*
X148583400Y-91943000D01*
X147383400Y-88642000D02*
X147383400Y-89892000D01*
X147303400Y-91972000D02*
X147303400Y-93261000D01*
X146342400Y-88356000D02*
X146342400Y-93508000D01*
X147303400Y-88603000D02*
X147303400Y-89892000D01*
X147063400Y-91972000D02*
X147063400Y-93360000D01*
X146502400Y-91972000D02*
X146502400Y-93493000D01*
X147023400Y-91972000D02*
X147023400Y-93374000D01*
X148143400Y-91972000D02*
X148143400Y-92631000D01*
X148183400Y-89279000D02*
X148183400Y-89892000D01*
X148103400Y-91972000D02*
X148103400Y-92675000D01*
X147223400Y-91972000D02*
X147223400Y-93297000D01*
X147503400Y-88708000D02*
X147503400Y-89892000D01*
X148303400Y-89432000D02*
X148303400Y-89892000D01*
X146302400Y-88354000D02*
X146302400Y-93510000D01*
X147183400Y-91972000D02*
X147183400Y-93314000D01*
X146903400Y-91972000D02*
X146903400Y-93412000D01*
X147543400Y-91972000D02*
X147543400Y-93132000D01*
X147743400Y-91972000D02*
X147743400Y-92997000D01*
X148183400Y-91972000D02*
X148183400Y-92585000D01*
X148543400Y-89834000D02*
X148543400Y-92030000D01*
X146182400Y-88352000D02*
X146182400Y-93512000D01*
X147023400Y-88490000D02*
X147023400Y-89892000D01*
X147983400Y-89068000D02*
X147983400Y-89892000D01*
X148503400Y-89754000D02*
X148503400Y-92110000D01*
X143377625Y-89457000D02*
X143877625Y-89457000D01*
X148023400Y-89106000D02*
X148023400Y-89892000D01*
X147463400Y-91972000D02*
X147463400Y-93179000D01*
X147143400Y-88534000D02*
X147143400Y-89892000D01*
X146502400Y-88371000D02*
X146502400Y-89892000D01*
X147623400Y-91972000D02*
X147623400Y-93081000D01*
X147823400Y-88928000D02*
X147823400Y-89892000D01*
X146862400Y-88441000D02*
X146862400Y-89892000D01*
X147623400Y-88783000D02*
X147623400Y-89892000D01*
X147423400Y-91972000D02*
X147423400Y-93200000D01*
X147903400Y-88995000D02*
X147903400Y-89892000D01*
X147863400Y-88961000D02*
X147863400Y-89892000D01*
X148223400Y-89327000D02*
X148223400Y-89892000D01*
X146662400Y-88396000D02*
X146662400Y-89892000D01*
X147583400Y-88757000D02*
X147583400Y-89892000D01*
X147743400Y-88867000D02*
X147743400Y-89892000D01*
X148383400Y-89549000D02*
X148383400Y-89892000D01*
X147143400Y-91972000D02*
X147143400Y-93330000D01*
X146822400Y-88431000D02*
X146822400Y-89892000D01*
X146702400Y-91972000D02*
X146702400Y-93460000D01*
X148383400Y-91972000D02*
X148383400Y-92315000D01*
X148703400Y-90255000D02*
X148703400Y-91609000D01*
X146983400Y-91972000D02*
X146983400Y-93387000D01*
X148802400Y-90932000D02*
G75*
G03*
X148802400Y-90932000I-2620000J0D01*
G01*
X130355000Y-101490000D02*
X119855000Y-101490000D01*
X122855000Y-101550000D02*
X122855000Y-111830000D01*
X122855000Y-111830000D02*
X127355000Y-111830000D01*
X119855000Y-111890000D02*
X130355000Y-111890000D01*
X124105000Y-101550000D02*
X122855000Y-101550000D01*
X127355000Y-101550000D02*
X126105000Y-101550000D01*
X127355000Y-111830000D02*
X127355000Y-101550000D01*
X130355000Y-111890000D02*
X130355000Y-101490000D01*
X119855000Y-101490000D02*
X119855000Y-111890000D01*
X124105000Y-101550000D02*
G75*
G03*
X126105000Y-101550000I1000000J0D01*
G01*
X115162000Y-87804000D02*
X114847000Y-87804000D01*
X115162000Y-87804000D02*
X115162000Y-93044000D01*
X112737000Y-93044000D02*
X112422000Y-93044000D01*
X112422000Y-87804000D02*
X112422000Y-93044000D01*
X112737000Y-87804000D02*
X112422000Y-87804000D01*
X115162000Y-93044000D02*
X114847000Y-93044000D01*
X140362000Y-119475000D02*
X143102000Y-119475000D01*
X141732000Y-120245000D02*
X141732000Y-119475000D01*
X141732000Y-112165000D02*
X141732000Y-112935000D01*
X140362000Y-112935000D02*
X140362000Y-119475000D01*
X143102000Y-112935000D02*
X140362000Y-112935000D01*
X143102000Y-119475000D02*
X143102000Y-112935000D01*
X108374000Y-129540000D02*
X109364000Y-129540000D01*
X110744000Y-127620000D02*
X110744000Y-131460000D01*
X117204000Y-131460000D02*
X117204000Y-127620000D01*
X109364000Y-131460000D02*
X117204000Y-131460000D01*
X110504000Y-127620000D02*
X110504000Y-131460000D01*
X110624000Y-127620000D02*
X110624000Y-131460000D01*
X118194000Y-129540000D02*
X117204000Y-129540000D01*
X109364000Y-127620000D02*
X109364000Y-131460000D01*
X117204000Y-127620000D02*
X109364000Y-127620000D01*
X102726800Y-108458000D02*
X102726800Y-123758000D01*
X101396800Y-105858000D02*
X102726800Y-105858000D01*
X100066800Y-108458000D02*
X100066800Y-123758000D01*
X102726800Y-105858000D02*
X102726800Y-107188000D01*
X100066800Y-108458000D02*
X102726800Y-108458000D01*
X100066800Y-123758000D02*
X102726800Y-123758000D01*
X146812000Y-74652000D02*
X146812000Y-73882000D01*
X145442000Y-67342000D02*
X145442000Y-73882000D01*
X148182000Y-67342000D02*
X145442000Y-67342000D01*
X145442000Y-73882000D02*
X148182000Y-73882000D01*
X146812000Y-66572000D02*
X146812000Y-67342000D01*
X148182000Y-73882000D02*
X148182000Y-67342000D01*
X129222000Y-127043000D02*
X136462000Y-127043000D01*
X129222000Y-127043000D02*
X129222000Y-131783000D01*
X136462000Y-127043000D02*
X136462000Y-131783000D01*
X129222000Y-131783000D02*
X136462000Y-131783000D01*
X107440000Y-114625000D02*
X104280000Y-114625000D01*
X107440000Y-117785000D02*
X107440000Y-116855000D01*
X107440000Y-117785000D02*
X105980000Y-117785000D01*
X107440000Y-114625000D02*
X107440000Y-115555000D01*
X111125000Y-112165000D02*
X111125000Y-112935000D01*
X112495000Y-112935000D02*
X109755000Y-112935000D01*
X111125000Y-120245000D02*
X111125000Y-119475000D01*
X112495000Y-119475000D02*
X112495000Y-112935000D01*
X109755000Y-112935000D02*
X109755000Y-119475000D01*
X109755000Y-119475000D02*
X112495000Y-119475000D01*
X134620000Y-106910000D02*
X134620000Y-106140000D01*
X135990000Y-99600000D02*
X133250000Y-99600000D01*
X133250000Y-106140000D02*
X135990000Y-106140000D01*
X133250000Y-99600000D02*
X133250000Y-106140000D01*
X134620000Y-98830000D02*
X134620000Y-99600000D01*
X135990000Y-106140000D02*
X135990000Y-99600000D01*
X146396000Y-85322000D02*
X146396000Y-85122000D01*
X141736000Y-85122000D02*
X147856000Y-85122000D01*
X146906000Y-85422000D02*
X148156000Y-85422000D01*
X145296000Y-84512000D02*
X147246000Y-84512000D01*
X144896000Y-81012000D02*
X144896000Y-81512000D01*
X142346000Y-81012000D02*
X142346000Y-84512000D01*
X146096000Y-85222000D02*
X146396000Y-85222000D01*
X144696000Y-81512000D02*
X144696000Y-81012000D01*
X146096000Y-85122000D02*
X146096000Y-85322000D01*
X146096000Y-85322000D02*
X146396000Y-85322000D01*
X147856000Y-80402000D02*
X141736000Y-80402000D01*
X141736000Y-82512000D02*
X142346000Y-82512000D01*
X145296000Y-85122000D02*
X145296000Y-84512000D01*
X147856000Y-85122000D02*
X147856000Y-80402000D01*
X147246000Y-81012000D02*
X142346000Y-81012000D01*
X147856000Y-83812000D02*
X147246000Y-83812000D01*
X144296000Y-84512000D02*
X144296000Y-85122000D01*
X148156000Y-85422000D02*
X148156000Y-84172000D01*
X141736000Y-80402000D02*
X141736000Y-85122000D01*
X144896000Y-81512000D02*
X144696000Y-81512000D01*
X147246000Y-84512000D02*
X147246000Y-81012000D01*
X144796000Y-81012000D02*
X144796000Y-81512000D01*
X141736000Y-83812000D02*
X142346000Y-83812000D01*
X147856000Y-82512000D02*
X147246000Y-82512000D01*
X142346000Y-84512000D02*
X144296000Y-84512000D01*
X115670000Y-112935000D02*
X112930000Y-112935000D01*
X114300000Y-120245000D02*
X114300000Y-119475000D01*
X115670000Y-119475000D02*
X115670000Y-112935000D01*
X114300000Y-112165000D02*
X114300000Y-112935000D01*
X112930000Y-112935000D02*
X112930000Y-119475000D01*
X112930000Y-119475000D02*
X115670000Y-119475000D01*
X117475000Y-107545000D02*
X117475000Y-106775000D01*
X117475000Y-99465000D02*
X117475000Y-100235000D01*
X118845000Y-106775000D02*
X118845000Y-100235000D01*
X116105000Y-106775000D02*
X118845000Y-106775000D01*
X116105000Y-100235000D02*
X116105000Y-106775000D01*
X118845000Y-100235000D02*
X116105000Y-100235000D01*
X117495200Y-61358000D02*
X134495200Y-61358000D01*
X134495200Y-61358000D02*
X134495200Y-79358000D01*
X134495200Y-79358000D02*
X117495200Y-79358000D01*
X117495200Y-79358000D02*
X117495200Y-61358000D01*
X138915000Y-104355000D02*
X138915000Y-100115000D01*
X137795000Y-99465000D02*
X137795000Y-100115000D01*
X136675000Y-103755000D02*
X138915000Y-103755000D01*
X136675000Y-103515000D02*
X138915000Y-103515000D01*
X138915000Y-100115000D02*
X136675000Y-100115000D01*
X136675000Y-104355000D02*
X138915000Y-104355000D01*
X137795000Y-105005000D02*
X137795000Y-104355000D01*
X136675000Y-100115000D02*
X136675000Y-104355000D01*
X136675000Y-103635000D02*
X138915000Y-103635000D01*
X128548000Y-120800000D02*
X128548000Y-123040000D01*
X121308000Y-120800000D02*
X128548000Y-120800000D01*
X121308000Y-120800000D02*
X121308000Y-123040000D01*
X121308000Y-123040000D02*
X128548000Y-123040000D01*
%LPC*%
D13*
X122936000Y-94996000D03*
X127936000Y-94996000D03*
D14*
X128270000Y-87579200D03*
X125730000Y-87579200D03*
X123190000Y-87579200D03*
D13*
X138176000Y-111125000D03*
D15*
X138176000Y-121285000D03*
D16*
X102870000Y-90779600D03*
D13*
X105370000Y-90779600D03*
D17*
X118872000Y-89916000D03*
D13*
X117475000Y-121285000D03*
D15*
X117475000Y-111125000D03*
D13*
X109728000Y-101092000D03*
X109728000Y-106092000D03*
X142240000Y-101172000D03*
X142240000Y-106172000D03*
D18*
X124460000Y-129032000D03*
D19*
X126460000Y-129032000D03*
D13*
X134620000Y-121285000D03*
D15*
X134620000Y-111125000D03*
D20*
X133142600Y-144567200D03*
D21*
X144090536Y-149075441D03*
D22*
X140136659Y-138044698D03*
D13*
X114300000Y-98425000D03*
D15*
X114300000Y-108585000D03*
D13*
X127468000Y-117856000D03*
X122468000Y-117856000D03*
D16*
X144932400Y-90932000D03*
D13*
X147432400Y-90932000D03*
D23*
X121295000Y-102880000D03*
D24*
X121295000Y-105420000D03*
X121295000Y-107960000D03*
X121295000Y-110500000D03*
X128915000Y-110500000D03*
X128915000Y-107960000D03*
X128915000Y-105420000D03*
X128915000Y-102880000D03*
D13*
X113792000Y-87924000D03*
X113792000Y-92924000D03*
X141732000Y-111125000D03*
D15*
X141732000Y-121285000D03*
D22*
X110702800Y-138086000D03*
D25*
X106194559Y-149033936D03*
D20*
X117225302Y-145080059D03*
D26*
X106934000Y-129540000D03*
D27*
X119634000Y-129540000D03*
D28*
X101396800Y-107188000D03*
D29*
X101396800Y-109728000D03*
X101396800Y-112268000D03*
X101396800Y-114808000D03*
X101396800Y-117348000D03*
X101396800Y-119888000D03*
X101396800Y-122428000D03*
D13*
X146812000Y-75692000D03*
D15*
X146812000Y-65532000D03*
D13*
X130342000Y-129413000D03*
X135342000Y-129413000D03*
D30*
X105180000Y-115255000D03*
X105180000Y-117155000D03*
X108180000Y-116205000D03*
D13*
X111125000Y-111125000D03*
D15*
X111125000Y-121285000D03*
D31*
X146151600Y-131673600D03*
D13*
X134620000Y-107950000D03*
D15*
X134620000Y-97790000D03*
D32*
X145796000Y-83312000D03*
D19*
X143796000Y-83312000D03*
D13*
X114300000Y-111125000D03*
D15*
X114300000Y-121285000D03*
D13*
X117475000Y-98425000D03*
D15*
X117475000Y-108585000D03*
D33*
X121294440Y-65358000D03*
X125996000Y-65358000D03*
X130694440Y-65358000D03*
X121294440Y-70357480D03*
X125996000Y-70357480D03*
X130694440Y-70357480D03*
X121295200Y-75458000D03*
X125996760Y-75458000D03*
X130695200Y-75458000D03*
D16*
X137795000Y-106045000D03*
D15*
X137795000Y-98425000D03*
D13*
X122428000Y-121920000D03*
X127428000Y-121920000D03*
M02*
