%TF.GenerationSoftware,KiCad,Pcbnew,(6.0.9)*%
%TF.CreationDate,2022-12-03T16:10:34+01:00*%
%TF.ProjectId,ray-rounded,7261792d-726f-4756-9e64-65642e6b6963,rev?*%
%TF.SameCoordinates,Original*%
%TF.FileFunction,Drillmap*%
%TF.FilePolarity,Positive*%
%FSLAX45Y45*%
G04 Gerber Fmt 4.5, Leading zero omitted, Abs format (unit mm)*
G04 Created by KiCad (PCBNEW (6.0.9)) date 2022-12-03 16:10:34*
%MOMM*%
%LPD*%
G01*
G04 APERTURE LIST*
%ADD10C,0.200000*%
%ADD11C,0.100000*%
%ADD12C,0.220000*%
G04 APERTURE END LIST*
D10*
X9755180Y-15282640D02*
X14355180Y-15282640D01*
X9643050Y-6739774D02*
G75*
G03*
X9555180Y-6951904I212110J-212126D01*
G01*
X10379444Y-6127642D02*
G75*
G03*
X10167312Y-6215508I6J-300018D01*
G01*
X9555180Y-15082640D02*
G75*
G03*
X9755180Y-15282640I200000J0D01*
G01*
X9555180Y-6951904D02*
X9555180Y-15082640D01*
X10167312Y-6215508D02*
X9643048Y-6739772D01*
X14555178Y-6951904D02*
G75*
G03*
X14467312Y-6739772I-300018J-6D01*
G01*
X14467312Y-6739772D02*
X13943048Y-6215508D01*
X13943046Y-6215510D02*
G75*
G03*
X13730916Y-6127640I-212126J-212110D01*
G01*
D11*
X14555180Y-6951904D02*
X14555180Y-15082640D01*
D10*
X13730916Y-6127640D02*
X10379444Y-6127640D01*
X14355180Y-15282640D02*
G75*
G03*
X14555180Y-15082640I0J200000D01*
G01*
D12*
X9845840Y-8060640D02*
X10065840Y-8280640D01*
X10065840Y-8060640D02*
X9845840Y-8280640D01*
D10*
X9802799Y-15603116D02*
X9802799Y-15403116D01*
X9850418Y-15403116D01*
X9878990Y-15412640D01*
X9898037Y-15431688D01*
X9907561Y-15450735D01*
X9917085Y-15488830D01*
X9917085Y-15517402D01*
X9907561Y-15555497D01*
X9898037Y-15574545D01*
X9878990Y-15593592D01*
X9850418Y-15603116D01*
X9802799Y-15603116D01*
X10002799Y-15603116D02*
X10002799Y-15469783D01*
X10002799Y-15507878D02*
X10012323Y-15488830D01*
X10021847Y-15479307D01*
X10040894Y-15469783D01*
X10059942Y-15469783D01*
X10126609Y-15603116D02*
X10126609Y-15469783D01*
X10126609Y-15403116D02*
X10117085Y-15412640D01*
X10126609Y-15422164D01*
X10136132Y-15412640D01*
X10126609Y-15403116D01*
X10126609Y-15422164D01*
X10250418Y-15603116D02*
X10231370Y-15593592D01*
X10221847Y-15574545D01*
X10221847Y-15403116D01*
X10355180Y-15603116D02*
X10336132Y-15593592D01*
X10326609Y-15574545D01*
X10326609Y-15403116D01*
X10583751Y-15603116D02*
X10583751Y-15403116D01*
X10650418Y-15545973D01*
X10717085Y-15403116D01*
X10717085Y-15603116D01*
X10898037Y-15603116D02*
X10898037Y-15498354D01*
X10888513Y-15479307D01*
X10869466Y-15469783D01*
X10831370Y-15469783D01*
X10812323Y-15479307D01*
X10898037Y-15593592D02*
X10878990Y-15603116D01*
X10831370Y-15603116D01*
X10812323Y-15593592D01*
X10802799Y-15574545D01*
X10802799Y-15555497D01*
X10812323Y-15536449D01*
X10831370Y-15526926D01*
X10878990Y-15526926D01*
X10898037Y-15517402D01*
X10993275Y-15469783D02*
X10993275Y-15669783D01*
X10993275Y-15479307D02*
X11012323Y-15469783D01*
X11050418Y-15469783D01*
X11069466Y-15479307D01*
X11078990Y-15488830D01*
X11088513Y-15507878D01*
X11088513Y-15565021D01*
X11078990Y-15584068D01*
X11069466Y-15593592D01*
X11050418Y-15603116D01*
X11012323Y-15603116D01*
X10993275Y-15593592D01*
X11174228Y-15584068D02*
X11183751Y-15593592D01*
X11174228Y-15603116D01*
X11164704Y-15593592D01*
X11174228Y-15584068D01*
X11174228Y-15603116D01*
X11174228Y-15479307D02*
X11183751Y-15488830D01*
X11174228Y-15498354D01*
X11164704Y-15488830D01*
X11174228Y-15479307D01*
X11174228Y-15498354D01*
X9345180Y-15832640D02*
X9545180Y-16032640D01*
X9545180Y-15832640D02*
X9345180Y-16032640D01*
X9793275Y-15842164D02*
X9802799Y-15832640D01*
X9821847Y-15823116D01*
X9869466Y-15823116D01*
X9888513Y-15832640D01*
X9898037Y-15842164D01*
X9907561Y-15861211D01*
X9907561Y-15880259D01*
X9898037Y-15908830D01*
X9783751Y-16023116D01*
X9907561Y-16023116D01*
X9993275Y-16004068D02*
X10002799Y-16013592D01*
X9993275Y-16023116D01*
X9983751Y-16013592D01*
X9993275Y-16004068D01*
X9993275Y-16023116D01*
X10078990Y-15842164D02*
X10088513Y-15832640D01*
X10107561Y-15823116D01*
X10155180Y-15823116D01*
X10174228Y-15832640D01*
X10183751Y-15842164D01*
X10193275Y-15861211D01*
X10193275Y-15880259D01*
X10183751Y-15908830D01*
X10069466Y-16023116D01*
X10193275Y-16023116D01*
X10317085Y-15823116D02*
X10336132Y-15823116D01*
X10355180Y-15832640D01*
X10364704Y-15842164D01*
X10374228Y-15861211D01*
X10383751Y-15899307D01*
X10383751Y-15946926D01*
X10374228Y-15985021D01*
X10364704Y-16004068D01*
X10355180Y-16013592D01*
X10336132Y-16023116D01*
X10317085Y-16023116D01*
X10298037Y-16013592D01*
X10288513Y-16004068D01*
X10278990Y-15985021D01*
X10269466Y-15946926D01*
X10269466Y-15899307D01*
X10278990Y-15861211D01*
X10288513Y-15842164D01*
X10298037Y-15832640D01*
X10317085Y-15823116D01*
X10507561Y-15823116D02*
X10526609Y-15823116D01*
X10545656Y-15832640D01*
X10555180Y-15842164D01*
X10564704Y-15861211D01*
X10574228Y-15899307D01*
X10574228Y-15946926D01*
X10564704Y-15985021D01*
X10555180Y-16004068D01*
X10545656Y-16013592D01*
X10526609Y-16023116D01*
X10507561Y-16023116D01*
X10488513Y-16013592D01*
X10478990Y-16004068D01*
X10469466Y-15985021D01*
X10459942Y-15946926D01*
X10459942Y-15899307D01*
X10469466Y-15861211D01*
X10478990Y-15842164D01*
X10488513Y-15832640D01*
X10507561Y-15823116D01*
X10659942Y-16023116D02*
X10659942Y-15889783D01*
X10659942Y-15908830D02*
X10669466Y-15899307D01*
X10688513Y-15889783D01*
X10717085Y-15889783D01*
X10736132Y-15899307D01*
X10745656Y-15918354D01*
X10745656Y-16023116D01*
X10745656Y-15918354D02*
X10755180Y-15899307D01*
X10774228Y-15889783D01*
X10802799Y-15889783D01*
X10821847Y-15899307D01*
X10831370Y-15918354D01*
X10831370Y-16023116D01*
X10926609Y-16023116D02*
X10926609Y-15889783D01*
X10926609Y-15908830D02*
X10936132Y-15899307D01*
X10955180Y-15889783D01*
X10983751Y-15889783D01*
X11002799Y-15899307D01*
X11012323Y-15918354D01*
X11012323Y-16023116D01*
X11012323Y-15918354D02*
X11021847Y-15899307D01*
X11040894Y-15889783D01*
X11069466Y-15889783D01*
X11088513Y-15899307D01*
X11098037Y-15918354D01*
X11098037Y-16023116D01*
X11488513Y-15813592D02*
X11317085Y-16070735D01*
X11745656Y-15823116D02*
X11764704Y-15823116D01*
X11783751Y-15832640D01*
X11793275Y-15842164D01*
X11802799Y-15861211D01*
X11812323Y-15899307D01*
X11812323Y-15946926D01*
X11802799Y-15985021D01*
X11793275Y-16004068D01*
X11783751Y-16013592D01*
X11764704Y-16023116D01*
X11745656Y-16023116D01*
X11726608Y-16013592D01*
X11717085Y-16004068D01*
X11707561Y-15985021D01*
X11698037Y-15946926D01*
X11698037Y-15899307D01*
X11707561Y-15861211D01*
X11717085Y-15842164D01*
X11726608Y-15832640D01*
X11745656Y-15823116D01*
X11898037Y-16004068D02*
X11907561Y-16013592D01*
X11898037Y-16023116D01*
X11888513Y-16013592D01*
X11898037Y-16004068D01*
X11898037Y-16023116D01*
X12031370Y-15823116D02*
X12050418Y-15823116D01*
X12069466Y-15832640D01*
X12078989Y-15842164D01*
X12088513Y-15861211D01*
X12098037Y-15899307D01*
X12098037Y-15946926D01*
X12088513Y-15985021D01*
X12078989Y-16004068D01*
X12069466Y-16013592D01*
X12050418Y-16023116D01*
X12031370Y-16023116D01*
X12012323Y-16013592D01*
X12002799Y-16004068D01*
X11993275Y-15985021D01*
X11983751Y-15946926D01*
X11983751Y-15899307D01*
X11993275Y-15861211D01*
X12002799Y-15842164D01*
X12012323Y-15832640D01*
X12031370Y-15823116D01*
X12212323Y-15908830D02*
X12193275Y-15899307D01*
X12183751Y-15889783D01*
X12174228Y-15870735D01*
X12174228Y-15861211D01*
X12183751Y-15842164D01*
X12193275Y-15832640D01*
X12212323Y-15823116D01*
X12250418Y-15823116D01*
X12269466Y-15832640D01*
X12278989Y-15842164D01*
X12288513Y-15861211D01*
X12288513Y-15870735D01*
X12278989Y-15889783D01*
X12269466Y-15899307D01*
X12250418Y-15908830D01*
X12212323Y-15908830D01*
X12193275Y-15918354D01*
X12183751Y-15927878D01*
X12174228Y-15946926D01*
X12174228Y-15985021D01*
X12183751Y-16004068D01*
X12193275Y-16013592D01*
X12212323Y-16023116D01*
X12250418Y-16023116D01*
X12269466Y-16013592D01*
X12278989Y-16004068D01*
X12288513Y-15985021D01*
X12288513Y-15946926D01*
X12278989Y-15927878D01*
X12269466Y-15918354D01*
X12250418Y-15908830D01*
X12459942Y-15823116D02*
X12421847Y-15823116D01*
X12402799Y-15832640D01*
X12393275Y-15842164D01*
X12374228Y-15870735D01*
X12364704Y-15908830D01*
X12364704Y-15985021D01*
X12374228Y-16004068D01*
X12383751Y-16013592D01*
X12402799Y-16023116D01*
X12440894Y-16023116D01*
X12459942Y-16013592D01*
X12469466Y-16004068D01*
X12478989Y-15985021D01*
X12478989Y-15937402D01*
X12469466Y-15918354D01*
X12459942Y-15908830D01*
X12440894Y-15899307D01*
X12402799Y-15899307D01*
X12383751Y-15908830D01*
X12374228Y-15918354D01*
X12364704Y-15937402D01*
X12650418Y-15823116D02*
X12612323Y-15823116D01*
X12593275Y-15832640D01*
X12583751Y-15842164D01*
X12564704Y-15870735D01*
X12555180Y-15908830D01*
X12555180Y-15985021D01*
X12564704Y-16004068D01*
X12574228Y-16013592D01*
X12593275Y-16023116D01*
X12631370Y-16023116D01*
X12650418Y-16013592D01*
X12659942Y-16004068D01*
X12669466Y-15985021D01*
X12669466Y-15937402D01*
X12659942Y-15918354D01*
X12650418Y-15908830D01*
X12631370Y-15899307D01*
X12593275Y-15899307D01*
X12574228Y-15908830D01*
X12564704Y-15918354D01*
X12555180Y-15937402D01*
X12745656Y-15823116D02*
X12745656Y-15861211D01*
X12821847Y-15823116D02*
X12821847Y-15861211D01*
X13117085Y-16099307D02*
X13107561Y-16089783D01*
X13088513Y-16061211D01*
X13078989Y-16042164D01*
X13069466Y-16013592D01*
X13059942Y-15965973D01*
X13059942Y-15927878D01*
X13069466Y-15880259D01*
X13078989Y-15851688D01*
X13088513Y-15832640D01*
X13107561Y-15804068D01*
X13117085Y-15794545D01*
X13298037Y-16023116D02*
X13183751Y-16023116D01*
X13240894Y-16023116D02*
X13240894Y-15823116D01*
X13221847Y-15851688D01*
X13202799Y-15870735D01*
X13183751Y-15880259D01*
X13536132Y-16023116D02*
X13536132Y-15823116D01*
X13621847Y-16023116D02*
X13621847Y-15918354D01*
X13612323Y-15899307D01*
X13593275Y-15889783D01*
X13564704Y-15889783D01*
X13545656Y-15899307D01*
X13536132Y-15908830D01*
X13745656Y-16023116D02*
X13726608Y-16013592D01*
X13717085Y-16004068D01*
X13707561Y-15985021D01*
X13707561Y-15927878D01*
X13717085Y-15908830D01*
X13726608Y-15899307D01*
X13745656Y-15889783D01*
X13774228Y-15889783D01*
X13793275Y-15899307D01*
X13802799Y-15908830D01*
X13812323Y-15927878D01*
X13812323Y-15985021D01*
X13802799Y-16004068D01*
X13793275Y-16013592D01*
X13774228Y-16023116D01*
X13745656Y-16023116D01*
X13926608Y-16023116D02*
X13907561Y-16013592D01*
X13898037Y-15994545D01*
X13898037Y-15823116D01*
X14078989Y-16013592D02*
X14059942Y-16023116D01*
X14021847Y-16023116D01*
X14002799Y-16013592D01*
X13993275Y-15994545D01*
X13993275Y-15918354D01*
X14002799Y-15899307D01*
X14021847Y-15889783D01*
X14059942Y-15889783D01*
X14078989Y-15899307D01*
X14088513Y-15918354D01*
X14088513Y-15937402D01*
X13993275Y-15956449D01*
X14155180Y-16099307D02*
X14164704Y-16089783D01*
X14183751Y-16061211D01*
X14193275Y-16042164D01*
X14202799Y-16013592D01*
X14212323Y-15965973D01*
X14212323Y-15927878D01*
X14202799Y-15880259D01*
X14193275Y-15851688D01*
X14183751Y-15832640D01*
X14164704Y-15804068D01*
X14155180Y-15794545D01*
X14517085Y-16099307D02*
X14507561Y-16089783D01*
X14488513Y-16061211D01*
X14478989Y-16042164D01*
X14469466Y-16013592D01*
X14459942Y-15965973D01*
X14459942Y-15927878D01*
X14469466Y-15880259D01*
X14478989Y-15851688D01*
X14488513Y-15832640D01*
X14507561Y-15804068D01*
X14517085Y-15794545D01*
X14593275Y-15889783D02*
X14593275Y-16023116D01*
X14593275Y-15908830D02*
X14602799Y-15899307D01*
X14621847Y-15889783D01*
X14650418Y-15889783D01*
X14669466Y-15899307D01*
X14678989Y-15918354D01*
X14678989Y-16023116D01*
X14802799Y-16023116D02*
X14783751Y-16013592D01*
X14774228Y-16004068D01*
X14764704Y-15985021D01*
X14764704Y-15927878D01*
X14774228Y-15908830D01*
X14783751Y-15899307D01*
X14802799Y-15889783D01*
X14831370Y-15889783D01*
X14850418Y-15899307D01*
X14859942Y-15908830D01*
X14869466Y-15927878D01*
X14869466Y-15985021D01*
X14859942Y-16004068D01*
X14850418Y-16013592D01*
X14831370Y-16023116D01*
X14802799Y-16023116D01*
X14926608Y-15889783D02*
X15002799Y-15889783D01*
X14955180Y-15823116D02*
X14955180Y-15994545D01*
X14964704Y-16013592D01*
X14983751Y-16023116D01*
X15002799Y-16023116D01*
X15221847Y-15889783D02*
X15221847Y-16089783D01*
X15221847Y-15899307D02*
X15240894Y-15889783D01*
X15278989Y-15889783D01*
X15298037Y-15899307D01*
X15307561Y-15908830D01*
X15317085Y-15927878D01*
X15317085Y-15985021D01*
X15307561Y-16004068D01*
X15298037Y-16013592D01*
X15278989Y-16023116D01*
X15240894Y-16023116D01*
X15221847Y-16013592D01*
X15431370Y-16023116D02*
X15412323Y-16013592D01*
X15402799Y-15994545D01*
X15402799Y-15823116D01*
X15593275Y-16023116D02*
X15593275Y-15918354D01*
X15583751Y-15899307D01*
X15564704Y-15889783D01*
X15526608Y-15889783D01*
X15507561Y-15899307D01*
X15593275Y-16013592D02*
X15574228Y-16023116D01*
X15526608Y-16023116D01*
X15507561Y-16013592D01*
X15498037Y-15994545D01*
X15498037Y-15975497D01*
X15507561Y-15956449D01*
X15526608Y-15946926D01*
X15574228Y-15946926D01*
X15593275Y-15937402D01*
X15659942Y-15889783D02*
X15736132Y-15889783D01*
X15688513Y-15823116D02*
X15688513Y-15994545D01*
X15698037Y-16013592D01*
X15717085Y-16023116D01*
X15736132Y-16023116D01*
X15878989Y-16013592D02*
X15859942Y-16023116D01*
X15821847Y-16023116D01*
X15802799Y-16013592D01*
X15793275Y-15994545D01*
X15793275Y-15918354D01*
X15802799Y-15899307D01*
X15821847Y-15889783D01*
X15859942Y-15889783D01*
X15878989Y-15899307D01*
X15888513Y-15918354D01*
X15888513Y-15937402D01*
X15793275Y-15956449D01*
X16059942Y-16023116D02*
X16059942Y-15823116D01*
X16059942Y-16013592D02*
X16040894Y-16023116D01*
X16002799Y-16023116D01*
X15983751Y-16013592D01*
X15974228Y-16004068D01*
X15964704Y-15985021D01*
X15964704Y-15927878D01*
X15974228Y-15908830D01*
X15983751Y-15899307D01*
X16002799Y-15889783D01*
X16040894Y-15889783D01*
X16059942Y-15899307D01*
X16136132Y-16099307D02*
X16145656Y-16089783D01*
X16164704Y-16061211D01*
X16174228Y-16042164D01*
X16183751Y-16013592D01*
X16193275Y-15965973D01*
X16193275Y-15927878D01*
X16183751Y-15880259D01*
X16174228Y-15851688D01*
X16164704Y-15832640D01*
X16145656Y-15804068D01*
X16136132Y-15794545D01*
M02*
