%TF.GenerationSoftware,KiCad,Pcbnew,(6.0.11)*%
%TF.CreationDate,2023-07-08T12:34:26+02:00*%
%TF.ProjectId,ray-rounded,7261792d-726f-4756-9e64-65642e6b6963,rev?*%
%TF.SameCoordinates,Original*%
%TF.FileFunction,Drillmap*%
%TF.FilePolarity,Positive*%
%FSLAX45Y45*%
G04 Gerber Fmt 4.5, Leading zero omitted, Abs format (unit mm)*
G04 Created by KiCad (PCBNEW (6.0.11)) date 2023-07-08 12:34:26*
%MOMM*%
%LPD*%
G01*
G04 APERTURE LIST*
%ADD10C,0.200000*%
%ADD11C,0.100000*%
%ADD12C,0.040000*%
%ADD13C,0.070000*%
%ADD14C,0.075000*%
%ADD15C,0.080000*%
%ADD16C,0.120000*%
%ADD17C,0.127000*%
G04 APERTURE END LIST*
D10*
X9755180Y-15282640D02*
X14355180Y-15282640D01*
X9643050Y-6739774D02*
G75*
G03*
X9555180Y-6951904I212110J-212126D01*
G01*
X10379444Y-6127642D02*
G75*
G03*
X10167312Y-6215508I6J-300018D01*
G01*
X9555180Y-15082640D02*
G75*
G03*
X9755180Y-15282640I200000J0D01*
G01*
X9555180Y-6951904D02*
X9555180Y-15082640D01*
X10167312Y-6215508D02*
X9643048Y-6739772D01*
X14555178Y-6951904D02*
G75*
G03*
X14467312Y-6739772I-300018J-6D01*
G01*
X14467312Y-6739772D02*
X13943048Y-6215508D01*
X13943046Y-6215510D02*
G75*
G03*
X13730916Y-6127640I-212126J-212110D01*
G01*
D11*
X14555180Y-6951904D02*
X14555180Y-15082640D01*
D10*
X13730916Y-6127640D02*
X10379444Y-6127640D01*
X14355180Y-15282640D02*
G75*
G03*
X14555180Y-15082640I0J200000D01*
G01*
D12*
X12045000Y-10521000D02*
X12085000Y-10561000D01*
X12085000Y-10521000D02*
X12045000Y-10561000D01*
X13517240Y-9689880D02*
X13557240Y-9729880D01*
X13557240Y-9689880D02*
X13517240Y-9729880D01*
X13629000Y-12892400D02*
X13669000Y-12932400D01*
X13669000Y-12892400D02*
X13629000Y-12932400D01*
X13827120Y-10390920D02*
X13867120Y-10430920D01*
X13867120Y-10390920D02*
X13827120Y-10430920D01*
X14076040Y-10949720D02*
X14116040Y-10989720D01*
X14116040Y-10949720D02*
X14076040Y-10989720D01*
D13*
X12811200Y-12496800D02*
G75*
G03*
X12811200Y-12496800I-35000J0D01*
G01*
D14*
X10566400Y-12383100D02*
X10566400Y-12458100D01*
X10528900Y-12420600D02*
X10603900Y-12420600D01*
X10766400Y-12383100D02*
X10766400Y-12458100D01*
X10728900Y-12420600D02*
X10803900Y-12420600D01*
X11925000Y-8397300D02*
X11925000Y-8472300D01*
X11887500Y-8434800D02*
X11962500Y-8434800D01*
X12125000Y-8397300D02*
X12125000Y-8472300D01*
X12087500Y-8434800D02*
X12162500Y-8434800D01*
D15*
X9856045Y-12273084D02*
X9856045Y-12216515D01*
X9799476Y-12216515D01*
X9799476Y-12273084D01*
X9856045Y-12273084D01*
X10106045Y-12273084D02*
X10106045Y-12216515D01*
X10049476Y-12216515D01*
X10049476Y-12273084D01*
X10106045Y-12273084D01*
X10192778Y-6459135D02*
X10192778Y-6402566D01*
X10136209Y-6402566D01*
X10136209Y-6459135D01*
X10192778Y-6459135D01*
D10*
X10284701Y-6254073D02*
X9987716Y-6551058D01*
X10341270Y-6310642D02*
X10044285Y-6607627D01*
X9987716Y-6551058D02*
G75*
G03*
X10044285Y-6607627I28284J-28284D01*
G01*
X10341270Y-6310642D02*
G75*
G03*
X10284701Y-6254073I-28284J28284D01*
G01*
D15*
X10375285Y-10749085D02*
X10375285Y-10692516D01*
X10318716Y-10692516D01*
X10318716Y-10749085D01*
X10375285Y-10749085D01*
X10375285Y-11249084D02*
X10375285Y-11192515D01*
X10318716Y-11192515D01*
X10318716Y-11249084D01*
X10375285Y-11249084D01*
X10426085Y-9237785D02*
X10426085Y-9181216D01*
X10369516Y-9181216D01*
X10369516Y-9237785D01*
X10426085Y-9237785D01*
X10426085Y-10253785D02*
X10426085Y-10197216D01*
X10369516Y-10197216D01*
X10369516Y-10253785D01*
X10426085Y-10253785D01*
X10588165Y-7562209D02*
X10588165Y-7505640D01*
X10531596Y-7505640D01*
X10531596Y-7562209D01*
X10588165Y-7562209D01*
D10*
X10249881Y-7573924D02*
X10869881Y-7573924D01*
X10249881Y-7493924D02*
X10869881Y-7493924D01*
X10869881Y-7573924D02*
G75*
G03*
X10869881Y-7493924I0J40000D01*
G01*
X10249881Y-7493924D02*
G75*
G03*
X10249881Y-7573924I0J-40000D01*
G01*
D15*
X10620085Y-13795084D02*
X10620085Y-13738515D01*
X10563516Y-13738515D01*
X10563516Y-13795084D01*
X10620085Y-13795084D01*
X10620085Y-14811084D02*
X10620085Y-14754515D01*
X10563516Y-14754515D01*
X10563516Y-14811084D01*
X10620085Y-14811084D01*
X10781685Y-9237785D02*
X10781685Y-9181216D01*
X10725116Y-9181216D01*
X10725116Y-9237785D01*
X10781685Y-9237785D01*
X10781685Y-10253785D02*
X10781685Y-10197216D01*
X10725116Y-10197216D01*
X10725116Y-10253785D01*
X10781685Y-10253785D01*
X10819785Y-10761785D02*
X10819785Y-10705216D01*
X10763216Y-10705216D01*
X10763216Y-10761785D01*
X10819785Y-10761785D01*
X10819785Y-11523784D02*
X10819785Y-11467215D01*
X10763216Y-11467215D01*
X10763216Y-11523784D01*
X10819785Y-11523784D01*
X11065085Y-8424985D02*
X11065085Y-8368415D01*
X11008516Y-8368415D01*
X11008516Y-8424985D01*
X11065085Y-8424985D01*
X11137285Y-9237785D02*
X11137285Y-9181216D01*
X11080716Y-9181216D01*
X11080716Y-9237785D01*
X11137285Y-9237785D01*
X11137285Y-10253785D02*
X11137285Y-10197216D01*
X11080716Y-10197216D01*
X11080716Y-10253785D01*
X11137285Y-10253785D01*
X11137285Y-10571285D02*
X11137285Y-10514716D01*
X11080716Y-10514716D01*
X11080716Y-10571285D01*
X11137285Y-10571285D01*
X11137285Y-11587284D02*
X11137285Y-11530715D01*
X11080716Y-11530715D01*
X11080716Y-11587284D01*
X11137285Y-11587284D01*
X11287571Y-6909959D02*
X11287571Y-6853390D01*
X11231002Y-6853390D01*
X11231002Y-6909959D01*
X11287571Y-6909959D01*
D10*
X11219287Y-6571674D02*
X11219287Y-7191674D01*
X11299287Y-6571674D02*
X11299287Y-7191674D01*
X11219287Y-7191674D02*
G75*
G03*
X11299287Y-7191674I40000J0D01*
G01*
X11299287Y-6571674D02*
G75*
G03*
X11219287Y-6571674I-40000J0D01*
G01*
D15*
X11565084Y-8424985D02*
X11565084Y-8368415D01*
X11508515Y-8368415D01*
X11508515Y-8424985D01*
X11565084Y-8424985D01*
X11707784Y-10316285D02*
X11707784Y-10259716D01*
X11651215Y-10259716D01*
X11651215Y-10316285D01*
X11707784Y-10316285D01*
X11707784Y-10570285D02*
X11707784Y-10513716D01*
X11651215Y-10513716D01*
X11651215Y-10570285D01*
X11707784Y-10570285D01*
X11707784Y-10824285D02*
X11707784Y-10767716D01*
X11651215Y-10767716D01*
X11651215Y-10824285D01*
X11707784Y-10824285D01*
X11707784Y-11078285D02*
X11707784Y-11021716D01*
X11651215Y-11021716D01*
X11651215Y-11078285D01*
X11707784Y-11078285D01*
X11772284Y-12608364D02*
X11772284Y-12551795D01*
X11715715Y-12551795D01*
X11715715Y-12608364D01*
X11772284Y-12608364D01*
X11805684Y-11839284D02*
X11805684Y-11782715D01*
X11749115Y-11782715D01*
X11749115Y-11839284D01*
X11805684Y-11839284D01*
X11852484Y-9580685D02*
X11852484Y-9524116D01*
X11795915Y-9524116D01*
X11795915Y-9580685D01*
X11852484Y-9580685D01*
X11856484Y-9174285D02*
X11856484Y-9117716D01*
X11799915Y-9117716D01*
X11799915Y-9174285D01*
X11856484Y-9174285D01*
X12026284Y-12608364D02*
X12026284Y-12551795D01*
X11969715Y-12551795D01*
X11969715Y-12608364D01*
X12026284Y-12608364D01*
X12280284Y-12608364D02*
X12280284Y-12551795D01*
X12223715Y-12551795D01*
X12223715Y-12608364D01*
X12280284Y-12608364D01*
X12305684Y-11839284D02*
X12305684Y-11782715D01*
X12249115Y-11782715D01*
X12249115Y-11839284D01*
X12305684Y-11839284D01*
X12352484Y-9580685D02*
X12352484Y-9524116D01*
X12295915Y-9524116D01*
X12295915Y-9580685D01*
X12352484Y-9580685D01*
X12356484Y-9174285D02*
X12356484Y-9117716D01*
X12299915Y-9117716D01*
X12299915Y-9174285D01*
X12356484Y-9174285D01*
X12469784Y-10316285D02*
X12469784Y-10259716D01*
X12413215Y-10259716D01*
X12413215Y-10316285D01*
X12469784Y-10316285D01*
X12469784Y-10570285D02*
X12469784Y-10513716D01*
X12413215Y-10513716D01*
X12413215Y-10570285D01*
X12469784Y-10570285D01*
X12469784Y-10824285D02*
X12469784Y-10767716D01*
X12413215Y-10767716D01*
X12413215Y-10824285D01*
X12469784Y-10824285D01*
X12469784Y-11078285D02*
X12469784Y-11021716D01*
X12413215Y-11021716D01*
X12413215Y-11078285D01*
X12469784Y-11078285D01*
X12851784Y-9237785D02*
X12851784Y-9181216D01*
X12795215Y-9181216D01*
X12795215Y-9237785D01*
X12851784Y-9237785D01*
X12851784Y-10253785D02*
X12851784Y-10197216D01*
X12795215Y-10197216D01*
X12795215Y-10253785D01*
X12851784Y-10253785D01*
X12851784Y-10507785D02*
X12851784Y-10451216D01*
X12795215Y-10451216D01*
X12795215Y-10507785D01*
X12851784Y-10507785D01*
X12851784Y-11523784D02*
X12851784Y-11467215D01*
X12795215Y-11467215D01*
X12795215Y-11523784D01*
X12851784Y-11523784D01*
X12873372Y-6859287D02*
X12873372Y-6802718D01*
X12816803Y-6802718D01*
X12816803Y-6859287D01*
X12873372Y-6859287D01*
D10*
X12805087Y-6521003D02*
X12805087Y-7141003D01*
X12885087Y-6521003D02*
X12885087Y-7141003D01*
X12805087Y-7141003D02*
G75*
G03*
X12885087Y-7141003I40000J0D01*
G01*
X12885087Y-6521003D02*
G75*
G03*
X12805087Y-6521003I-40000J0D01*
G01*
D15*
X13160084Y-12228284D02*
X13160084Y-12171715D01*
X13103515Y-12171715D01*
X13103515Y-12228284D01*
X13160084Y-12228284D01*
X13160084Y-12728284D02*
X13160084Y-12671715D01*
X13103515Y-12671715D01*
X13103515Y-12728284D01*
X13160084Y-12728284D01*
X13169284Y-9237785D02*
X13169284Y-9181216D01*
X13112715Y-9181216D01*
X13112715Y-9237785D01*
X13169284Y-9237785D01*
X13169284Y-10253785D02*
X13169284Y-10197216D01*
X13112715Y-10197216D01*
X13112715Y-10253785D01*
X13169284Y-10253785D01*
X13169284Y-10507785D02*
X13169284Y-10451216D01*
X13112715Y-10451216D01*
X13112715Y-10507785D01*
X13169284Y-10507785D01*
X13169284Y-11523784D02*
X13169284Y-11467215D01*
X13112715Y-11467215D01*
X13112715Y-11523784D01*
X13169284Y-11523784D01*
X13486784Y-9237785D02*
X13486784Y-9181216D01*
X13430215Y-9181216D01*
X13430215Y-9237785D01*
X13486784Y-9237785D01*
X13486784Y-10253785D02*
X13486784Y-10197216D01*
X13430215Y-10197216D01*
X13430215Y-10253785D01*
X13486784Y-10253785D01*
X13525622Y-7558693D02*
X13525622Y-7502124D01*
X13469053Y-7502124D01*
X13469053Y-7558693D01*
X13525622Y-7558693D01*
D10*
X13807337Y-7490409D02*
X13187337Y-7490409D01*
X13807337Y-7570409D02*
X13187337Y-7570409D01*
X13187337Y-7490409D02*
G75*
G03*
X13187337Y-7570409I0J-40000D01*
G01*
X13807337Y-7570409D02*
G75*
G03*
X13807337Y-7490409I0J40000D01*
G01*
D15*
X13626484Y-10757085D02*
X13626484Y-10700516D01*
X13569915Y-10700516D01*
X13569915Y-10757085D01*
X13626484Y-10757085D01*
X13626484Y-11257084D02*
X13626484Y-11200515D01*
X13569915Y-11200515D01*
X13569915Y-11257084D01*
X13626484Y-11257084D01*
X13976446Y-6463900D02*
X13976446Y-6407331D01*
X13919877Y-6407331D01*
X13919877Y-6463900D01*
X13976446Y-6463900D01*
D10*
X14124938Y-6555823D02*
X13827953Y-6258839D01*
X14068370Y-6612392D02*
X13771385Y-6315407D01*
X13827953Y-6258839D02*
G75*
G03*
X13771385Y-6315407I-28284J-28284D01*
G01*
X14068370Y-6612392D02*
G75*
G03*
X14124938Y-6555823I28284J28284D01*
G01*
D15*
X14062284Y-12288324D02*
X14062284Y-12231755D01*
X14005715Y-12231755D01*
X14005715Y-12288324D01*
X14062284Y-12288324D01*
X14312284Y-12288324D02*
X14312284Y-12231755D01*
X14255715Y-12231755D01*
X14255715Y-12288324D01*
X14312284Y-12288324D01*
D11*
X14431320Y-9145200D02*
X14481320Y-9095200D01*
X14431320Y-9045200D01*
X14381320Y-9095200D01*
X14431320Y-9145200D01*
X14431320Y-9399200D02*
X14481320Y-9349200D01*
X14431320Y-9299200D01*
X14381320Y-9349200D01*
X14431320Y-9399200D01*
X14431320Y-9653200D02*
X14481320Y-9603200D01*
X14431320Y-9553200D01*
X14381320Y-9603200D01*
X14431320Y-9653200D01*
X14431320Y-9907200D02*
X14481320Y-9857200D01*
X14431320Y-9807200D01*
X14381320Y-9857200D01*
X14431320Y-9907200D01*
X14431320Y-10161200D02*
X14481320Y-10111200D01*
X14431320Y-10061200D01*
X14381320Y-10111200D01*
X14431320Y-10161200D01*
X14431320Y-10415200D02*
X14481320Y-10365200D01*
X14431320Y-10315200D01*
X14381320Y-10365200D01*
X14431320Y-10415200D01*
X14431320Y-10669200D02*
X14481320Y-10619200D01*
X14431320Y-10569200D01*
X14381320Y-10619200D01*
X14431320Y-10669200D01*
D16*
X12547600Y-8324000D02*
X12667600Y-8444000D01*
X12667600Y-8324000D02*
X12547600Y-8444000D01*
X12667600Y-8384000D02*
G75*
G03*
X12667600Y-8384000I-60000J0D01*
G01*
X13817600Y-8324000D02*
X13937600Y-8444000D01*
X13937600Y-8324000D02*
X13817600Y-8444000D01*
X13937600Y-8384000D02*
G75*
G03*
X13937600Y-8384000I-60000J0D01*
G01*
D17*
X11437980Y-13728700D02*
X11564980Y-13855700D01*
X11564980Y-13728700D02*
X11437980Y-13855700D01*
X11501480Y-13728700D02*
X11501480Y-13855700D01*
X11437980Y-13792200D02*
X11564980Y-13792200D01*
D10*
X11564980Y-13855700D02*
X11564980Y-13728700D01*
X11437980Y-13855700D02*
X11437980Y-13728700D01*
X11564980Y-13728700D02*
G75*
G03*
X11437980Y-13728700I-63500J0D01*
G01*
X11437980Y-13855700D02*
G75*
G03*
X11564980Y-13855700I63500J0D01*
G01*
D17*
X11438056Y-14238752D02*
X11565056Y-14365752D01*
X11565056Y-14238752D02*
X11438056Y-14365752D01*
X11501556Y-14238752D02*
X11501556Y-14365752D01*
X11438056Y-14302252D02*
X11565056Y-14302252D01*
D10*
X11565056Y-14365752D02*
X11565056Y-14238752D01*
X11438056Y-14365752D02*
X11438056Y-14238752D01*
X11565056Y-14238752D02*
G75*
G03*
X11438056Y-14238752I-63500J0D01*
G01*
X11438056Y-14365752D02*
G75*
G03*
X11565056Y-14365752I63500J0D01*
G01*
D17*
X11438056Y-14738700D02*
X11565056Y-14865700D01*
X11565056Y-14738700D02*
X11438056Y-14865700D01*
X11501556Y-14738700D02*
X11501556Y-14865700D01*
X11438056Y-14802200D02*
X11565056Y-14802200D01*
D10*
X11565056Y-14865700D02*
X11565056Y-14738700D01*
X11438056Y-14865700D02*
X11438056Y-14738700D01*
X11565056Y-14738700D02*
G75*
G03*
X11438056Y-14738700I-63500J0D01*
G01*
X11438056Y-14865700D02*
G75*
G03*
X11565056Y-14865700I63500J0D01*
G01*
D17*
X11907824Y-13728700D02*
X12034824Y-13855700D01*
X12034824Y-13728700D02*
X11907824Y-13855700D01*
X11971324Y-13728700D02*
X11971324Y-13855700D01*
X11907824Y-13792200D02*
X12034824Y-13792200D01*
D10*
X12034824Y-13855700D02*
X12034824Y-13728700D01*
X11907824Y-13855700D02*
X11907824Y-13728700D01*
X12034824Y-13728700D02*
G75*
G03*
X11907824Y-13728700I-63500J0D01*
G01*
X11907824Y-13855700D02*
G75*
G03*
X12034824Y-13855700I63500J0D01*
G01*
D17*
X11907900Y-14238752D02*
X12034900Y-14365752D01*
X12034900Y-14238752D02*
X11907900Y-14365752D01*
X11971400Y-14238752D02*
X11971400Y-14365752D01*
X11907900Y-14302252D02*
X12034900Y-14302252D01*
D10*
X12034900Y-14365752D02*
X12034900Y-14238752D01*
X11907900Y-14365752D02*
X11907900Y-14238752D01*
X12034900Y-14238752D02*
G75*
G03*
X11907900Y-14238752I-63500J0D01*
G01*
X11907900Y-14365752D02*
G75*
G03*
X12034900Y-14365752I63500J0D01*
G01*
D17*
X11907900Y-14738700D02*
X12034900Y-14865700D01*
X12034900Y-14738700D02*
X11907900Y-14865700D01*
X11971400Y-14738700D02*
X11971400Y-14865700D01*
X11907900Y-14802200D02*
X12034900Y-14802200D01*
D10*
X12034900Y-14865700D02*
X12034900Y-14738700D01*
X11907900Y-14865700D02*
X11907900Y-14738700D01*
X12034900Y-14738700D02*
G75*
G03*
X11907900Y-14738700I-63500J0D01*
G01*
X11907900Y-14865700D02*
G75*
G03*
X12034900Y-14865700I63500J0D01*
G01*
D17*
X12377980Y-13728700D02*
X12504980Y-13855700D01*
X12504980Y-13728700D02*
X12377980Y-13855700D01*
X12441480Y-13728700D02*
X12441480Y-13855700D01*
X12377980Y-13792200D02*
X12504980Y-13792200D01*
D10*
X12504980Y-13855700D02*
X12504980Y-13728700D01*
X12377980Y-13855700D02*
X12377980Y-13728700D01*
X12504980Y-13728700D02*
G75*
G03*
X12377980Y-13728700I-63500J0D01*
G01*
X12377980Y-13855700D02*
G75*
G03*
X12504980Y-13855700I63500J0D01*
G01*
D17*
X12378056Y-14238752D02*
X12505056Y-14365752D01*
X12505056Y-14238752D02*
X12378056Y-14365752D01*
X12441556Y-14238752D02*
X12441556Y-14365752D01*
X12378056Y-14302252D02*
X12505056Y-14302252D01*
D10*
X12505056Y-14365752D02*
X12505056Y-14238752D01*
X12378056Y-14365752D02*
X12378056Y-14238752D01*
X12505056Y-14238752D02*
G75*
G03*
X12378056Y-14238752I-63500J0D01*
G01*
X12378056Y-14365752D02*
G75*
G03*
X12505056Y-14365752I63500J0D01*
G01*
D17*
X12378056Y-14738700D02*
X12505056Y-14865700D01*
X12505056Y-14738700D02*
X12378056Y-14865700D01*
X12441556Y-14738700D02*
X12441556Y-14865700D01*
X12378056Y-14802200D02*
X12505056Y-14802200D01*
D10*
X12505056Y-14865700D02*
X12505056Y-14738700D01*
X12378056Y-14865700D02*
X12378056Y-14738700D01*
X12505056Y-14738700D02*
G75*
G03*
X12378056Y-14738700I-63500J0D01*
G01*
X12378056Y-14865700D02*
G75*
G03*
X12505056Y-14865700I63500J0D01*
G01*
X9802799Y-15603116D02*
X9802799Y-15403116D01*
X9850418Y-15403116D01*
X9878990Y-15412640D01*
X9898037Y-15431688D01*
X9907561Y-15450735D01*
X9917085Y-15488830D01*
X9917085Y-15517402D01*
X9907561Y-15555497D01*
X9898037Y-15574545D01*
X9878990Y-15593592D01*
X9850418Y-15603116D01*
X9802799Y-15603116D01*
X10002799Y-15603116D02*
X10002799Y-15469783D01*
X10002799Y-15507878D02*
X10012323Y-15488830D01*
X10021847Y-15479307D01*
X10040894Y-15469783D01*
X10059942Y-15469783D01*
X10126609Y-15603116D02*
X10126609Y-15469783D01*
X10126609Y-15403116D02*
X10117085Y-15412640D01*
X10126609Y-15422164D01*
X10136132Y-15412640D01*
X10126609Y-15403116D01*
X10126609Y-15422164D01*
X10250418Y-15603116D02*
X10231370Y-15593592D01*
X10221847Y-15574545D01*
X10221847Y-15403116D01*
X10355180Y-15603116D02*
X10336132Y-15593592D01*
X10326609Y-15574545D01*
X10326609Y-15403116D01*
X10583751Y-15603116D02*
X10583751Y-15403116D01*
X10650418Y-15545973D01*
X10717085Y-15403116D01*
X10717085Y-15603116D01*
X10898037Y-15603116D02*
X10898037Y-15498354D01*
X10888513Y-15479307D01*
X10869466Y-15469783D01*
X10831370Y-15469783D01*
X10812323Y-15479307D01*
X10898037Y-15593592D02*
X10878990Y-15603116D01*
X10831370Y-15603116D01*
X10812323Y-15593592D01*
X10802799Y-15574545D01*
X10802799Y-15555497D01*
X10812323Y-15536449D01*
X10831370Y-15526926D01*
X10878990Y-15526926D01*
X10898037Y-15517402D01*
X10993275Y-15469783D02*
X10993275Y-15669783D01*
X10993275Y-15479307D02*
X11012323Y-15469783D01*
X11050418Y-15469783D01*
X11069466Y-15479307D01*
X11078990Y-15488830D01*
X11088513Y-15507878D01*
X11088513Y-15565021D01*
X11078990Y-15584068D01*
X11069466Y-15593592D01*
X11050418Y-15603116D01*
X11012323Y-15603116D01*
X10993275Y-15593592D01*
X11174228Y-15584068D02*
X11183751Y-15593592D01*
X11174228Y-15603116D01*
X11164704Y-15593592D01*
X11174228Y-15584068D01*
X11174228Y-15603116D01*
X11174228Y-15479307D02*
X11183751Y-15488830D01*
X11174228Y-15498354D01*
X11164704Y-15488830D01*
X11174228Y-15479307D01*
X11174228Y-15498354D01*
D12*
X9505180Y-15912640D02*
X9545180Y-15952640D01*
X9545180Y-15912640D02*
X9505180Y-15952640D01*
D10*
X9840894Y-15823116D02*
X9859942Y-15823116D01*
X9878990Y-15832640D01*
X9888513Y-15842164D01*
X9898037Y-15861211D01*
X9907561Y-15899307D01*
X9907561Y-15946926D01*
X9898037Y-15985021D01*
X9888513Y-16004068D01*
X9878990Y-16013592D01*
X9859942Y-16023116D01*
X9840894Y-16023116D01*
X9821847Y-16013592D01*
X9812323Y-16004068D01*
X9802799Y-15985021D01*
X9793275Y-15946926D01*
X9793275Y-15899307D01*
X9802799Y-15861211D01*
X9812323Y-15842164D01*
X9821847Y-15832640D01*
X9840894Y-15823116D01*
X9993275Y-16004068D02*
X10002799Y-16013592D01*
X9993275Y-16023116D01*
X9983751Y-16013592D01*
X9993275Y-16004068D01*
X9993275Y-16023116D01*
X10174228Y-15889783D02*
X10174228Y-16023116D01*
X10126609Y-15813592D02*
X10078990Y-15956449D01*
X10202799Y-15956449D01*
X10317085Y-15823116D02*
X10336132Y-15823116D01*
X10355180Y-15832640D01*
X10364704Y-15842164D01*
X10374228Y-15861211D01*
X10383751Y-15899307D01*
X10383751Y-15946926D01*
X10374228Y-15985021D01*
X10364704Y-16004068D01*
X10355180Y-16013592D01*
X10336132Y-16023116D01*
X10317085Y-16023116D01*
X10298037Y-16013592D01*
X10288513Y-16004068D01*
X10278990Y-15985021D01*
X10269466Y-15946926D01*
X10269466Y-15899307D01*
X10278990Y-15861211D01*
X10288513Y-15842164D01*
X10298037Y-15832640D01*
X10317085Y-15823116D01*
X10507561Y-15823116D02*
X10526609Y-15823116D01*
X10545656Y-15832640D01*
X10555180Y-15842164D01*
X10564704Y-15861211D01*
X10574228Y-15899307D01*
X10574228Y-15946926D01*
X10564704Y-15985021D01*
X10555180Y-16004068D01*
X10545656Y-16013592D01*
X10526609Y-16023116D01*
X10507561Y-16023116D01*
X10488513Y-16013592D01*
X10478990Y-16004068D01*
X10469466Y-15985021D01*
X10459942Y-15946926D01*
X10459942Y-15899307D01*
X10469466Y-15861211D01*
X10478990Y-15842164D01*
X10488513Y-15832640D01*
X10507561Y-15823116D01*
X10659942Y-16023116D02*
X10659942Y-15889783D01*
X10659942Y-15908830D02*
X10669466Y-15899307D01*
X10688513Y-15889783D01*
X10717085Y-15889783D01*
X10736132Y-15899307D01*
X10745656Y-15918354D01*
X10745656Y-16023116D01*
X10745656Y-15918354D02*
X10755180Y-15899307D01*
X10774228Y-15889783D01*
X10802799Y-15889783D01*
X10821847Y-15899307D01*
X10831370Y-15918354D01*
X10831370Y-16023116D01*
X10926609Y-16023116D02*
X10926609Y-15889783D01*
X10926609Y-15908830D02*
X10936132Y-15899307D01*
X10955180Y-15889783D01*
X10983751Y-15889783D01*
X11002799Y-15899307D01*
X11012323Y-15918354D01*
X11012323Y-16023116D01*
X11012323Y-15918354D02*
X11021847Y-15899307D01*
X11040894Y-15889783D01*
X11069466Y-15889783D01*
X11088513Y-15899307D01*
X11098037Y-15918354D01*
X11098037Y-16023116D01*
X11488513Y-15813592D02*
X11317085Y-16070735D01*
X11745656Y-15823116D02*
X11764704Y-15823116D01*
X11783751Y-15832640D01*
X11793275Y-15842164D01*
X11802799Y-15861211D01*
X11812323Y-15899307D01*
X11812323Y-15946926D01*
X11802799Y-15985021D01*
X11793275Y-16004068D01*
X11783751Y-16013592D01*
X11764704Y-16023116D01*
X11745656Y-16023116D01*
X11726608Y-16013592D01*
X11717085Y-16004068D01*
X11707561Y-15985021D01*
X11698037Y-15946926D01*
X11698037Y-15899307D01*
X11707561Y-15861211D01*
X11717085Y-15842164D01*
X11726608Y-15832640D01*
X11745656Y-15823116D01*
X11898037Y-16004068D02*
X11907561Y-16013592D01*
X11898037Y-16023116D01*
X11888513Y-16013592D01*
X11898037Y-16004068D01*
X11898037Y-16023116D01*
X12031370Y-15823116D02*
X12050418Y-15823116D01*
X12069466Y-15832640D01*
X12078989Y-15842164D01*
X12088513Y-15861211D01*
X12098037Y-15899307D01*
X12098037Y-15946926D01*
X12088513Y-15985021D01*
X12078989Y-16004068D01*
X12069466Y-16013592D01*
X12050418Y-16023116D01*
X12031370Y-16023116D01*
X12012323Y-16013592D01*
X12002799Y-16004068D01*
X11993275Y-15985021D01*
X11983751Y-15946926D01*
X11983751Y-15899307D01*
X11993275Y-15861211D01*
X12002799Y-15842164D01*
X12012323Y-15832640D01*
X12031370Y-15823116D01*
X12288513Y-16023116D02*
X12174228Y-16023116D01*
X12231370Y-16023116D02*
X12231370Y-15823116D01*
X12212323Y-15851688D01*
X12193275Y-15870735D01*
X12174228Y-15880259D01*
X12469466Y-15823116D02*
X12374228Y-15823116D01*
X12364704Y-15918354D01*
X12374228Y-15908830D01*
X12393275Y-15899307D01*
X12440894Y-15899307D01*
X12459942Y-15908830D01*
X12469466Y-15918354D01*
X12478989Y-15937402D01*
X12478989Y-15985021D01*
X12469466Y-16004068D01*
X12459942Y-16013592D01*
X12440894Y-16023116D01*
X12393275Y-16023116D01*
X12374228Y-16013592D01*
X12364704Y-16004068D01*
X12545656Y-15823116D02*
X12678989Y-15823116D01*
X12593275Y-16023116D01*
X12745656Y-15823116D02*
X12745656Y-15861211D01*
X12821847Y-15823116D02*
X12821847Y-15861211D01*
X13117085Y-16099307D02*
X13107561Y-16089783D01*
X13088513Y-16061211D01*
X13078989Y-16042164D01*
X13069466Y-16013592D01*
X13059942Y-15965973D01*
X13059942Y-15927878D01*
X13069466Y-15880259D01*
X13078989Y-15851688D01*
X13088513Y-15832640D01*
X13107561Y-15804068D01*
X13117085Y-15794545D01*
X13288513Y-15823116D02*
X13193275Y-15823116D01*
X13183751Y-15918354D01*
X13193275Y-15908830D01*
X13212323Y-15899307D01*
X13259942Y-15899307D01*
X13278989Y-15908830D01*
X13288513Y-15918354D01*
X13298037Y-15937402D01*
X13298037Y-15985021D01*
X13288513Y-16004068D01*
X13278989Y-16013592D01*
X13259942Y-16023116D01*
X13212323Y-16023116D01*
X13193275Y-16013592D01*
X13183751Y-16004068D01*
X13536132Y-16023116D02*
X13536132Y-15823116D01*
X13621847Y-16023116D02*
X13621847Y-15918354D01*
X13612323Y-15899307D01*
X13593275Y-15889783D01*
X13564704Y-15889783D01*
X13545656Y-15899307D01*
X13536132Y-15908830D01*
X13745656Y-16023116D02*
X13726608Y-16013592D01*
X13717085Y-16004068D01*
X13707561Y-15985021D01*
X13707561Y-15927878D01*
X13717085Y-15908830D01*
X13726608Y-15899307D01*
X13745656Y-15889783D01*
X13774228Y-15889783D01*
X13793275Y-15899307D01*
X13802799Y-15908830D01*
X13812323Y-15927878D01*
X13812323Y-15985021D01*
X13802799Y-16004068D01*
X13793275Y-16013592D01*
X13774228Y-16023116D01*
X13745656Y-16023116D01*
X13926608Y-16023116D02*
X13907561Y-16013592D01*
X13898037Y-15994545D01*
X13898037Y-15823116D01*
X14078989Y-16013592D02*
X14059942Y-16023116D01*
X14021847Y-16023116D01*
X14002799Y-16013592D01*
X13993275Y-15994545D01*
X13993275Y-15918354D01*
X14002799Y-15899307D01*
X14021847Y-15889783D01*
X14059942Y-15889783D01*
X14078989Y-15899307D01*
X14088513Y-15918354D01*
X14088513Y-15937402D01*
X13993275Y-15956449D01*
X14164704Y-16013592D02*
X14183751Y-16023116D01*
X14221847Y-16023116D01*
X14240894Y-16013592D01*
X14250418Y-15994545D01*
X14250418Y-15985021D01*
X14240894Y-15965973D01*
X14221847Y-15956449D01*
X14193275Y-15956449D01*
X14174228Y-15946926D01*
X14164704Y-15927878D01*
X14164704Y-15918354D01*
X14174228Y-15899307D01*
X14193275Y-15889783D01*
X14221847Y-15889783D01*
X14240894Y-15899307D01*
X14317085Y-16099307D02*
X14326608Y-16089783D01*
X14345656Y-16061211D01*
X14355180Y-16042164D01*
X14364704Y-16013592D01*
X14374228Y-15965973D01*
X14374228Y-15927878D01*
X14364704Y-15880259D01*
X14355180Y-15851688D01*
X14345656Y-15832640D01*
X14326608Y-15804068D01*
X14317085Y-15794545D01*
D13*
X9545180Y-16196640D02*
G75*
G03*
X9545180Y-16196640I-35000J0D01*
G01*
D10*
X9840894Y-16087116D02*
X9859942Y-16087116D01*
X9878990Y-16096640D01*
X9888513Y-16106164D01*
X9898037Y-16125211D01*
X9907561Y-16163307D01*
X9907561Y-16210926D01*
X9898037Y-16249021D01*
X9888513Y-16268068D01*
X9878990Y-16277592D01*
X9859942Y-16287116D01*
X9840894Y-16287116D01*
X9821847Y-16277592D01*
X9812323Y-16268068D01*
X9802799Y-16249021D01*
X9793275Y-16210926D01*
X9793275Y-16163307D01*
X9802799Y-16125211D01*
X9812323Y-16106164D01*
X9821847Y-16096640D01*
X9840894Y-16087116D01*
X9993275Y-16268068D02*
X10002799Y-16277592D01*
X9993275Y-16287116D01*
X9983751Y-16277592D01*
X9993275Y-16268068D01*
X9993275Y-16287116D01*
X10069466Y-16087116D02*
X10202799Y-16087116D01*
X10117085Y-16287116D01*
X10317085Y-16087116D02*
X10336132Y-16087116D01*
X10355180Y-16096640D01*
X10364704Y-16106164D01*
X10374228Y-16125211D01*
X10383751Y-16163307D01*
X10383751Y-16210926D01*
X10374228Y-16249021D01*
X10364704Y-16268068D01*
X10355180Y-16277592D01*
X10336132Y-16287116D01*
X10317085Y-16287116D01*
X10298037Y-16277592D01*
X10288513Y-16268068D01*
X10278990Y-16249021D01*
X10269466Y-16210926D01*
X10269466Y-16163307D01*
X10278990Y-16125211D01*
X10288513Y-16106164D01*
X10298037Y-16096640D01*
X10317085Y-16087116D01*
X10507561Y-16087116D02*
X10526609Y-16087116D01*
X10545656Y-16096640D01*
X10555180Y-16106164D01*
X10564704Y-16125211D01*
X10574228Y-16163307D01*
X10574228Y-16210926D01*
X10564704Y-16249021D01*
X10555180Y-16268068D01*
X10545656Y-16277592D01*
X10526609Y-16287116D01*
X10507561Y-16287116D01*
X10488513Y-16277592D01*
X10478990Y-16268068D01*
X10469466Y-16249021D01*
X10459942Y-16210926D01*
X10459942Y-16163307D01*
X10469466Y-16125211D01*
X10478990Y-16106164D01*
X10488513Y-16096640D01*
X10507561Y-16087116D01*
X10659942Y-16287116D02*
X10659942Y-16153783D01*
X10659942Y-16172830D02*
X10669466Y-16163307D01*
X10688513Y-16153783D01*
X10717085Y-16153783D01*
X10736132Y-16163307D01*
X10745656Y-16182354D01*
X10745656Y-16287116D01*
X10745656Y-16182354D02*
X10755180Y-16163307D01*
X10774228Y-16153783D01*
X10802799Y-16153783D01*
X10821847Y-16163307D01*
X10831370Y-16182354D01*
X10831370Y-16287116D01*
X10926609Y-16287116D02*
X10926609Y-16153783D01*
X10926609Y-16172830D02*
X10936132Y-16163307D01*
X10955180Y-16153783D01*
X10983751Y-16153783D01*
X11002799Y-16163307D01*
X11012323Y-16182354D01*
X11012323Y-16287116D01*
X11012323Y-16182354D02*
X11021847Y-16163307D01*
X11040894Y-16153783D01*
X11069466Y-16153783D01*
X11088513Y-16163307D01*
X11098037Y-16182354D01*
X11098037Y-16287116D01*
X11488513Y-16077592D02*
X11317085Y-16334735D01*
X11745656Y-16087116D02*
X11764704Y-16087116D01*
X11783751Y-16096640D01*
X11793275Y-16106164D01*
X11802799Y-16125211D01*
X11812323Y-16163307D01*
X11812323Y-16210926D01*
X11802799Y-16249021D01*
X11793275Y-16268068D01*
X11783751Y-16277592D01*
X11764704Y-16287116D01*
X11745656Y-16287116D01*
X11726608Y-16277592D01*
X11717085Y-16268068D01*
X11707561Y-16249021D01*
X11698037Y-16210926D01*
X11698037Y-16163307D01*
X11707561Y-16125211D01*
X11717085Y-16106164D01*
X11726608Y-16096640D01*
X11745656Y-16087116D01*
X11898037Y-16268068D02*
X11907561Y-16277592D01*
X11898037Y-16287116D01*
X11888513Y-16277592D01*
X11898037Y-16268068D01*
X11898037Y-16287116D01*
X12031370Y-16087116D02*
X12050418Y-16087116D01*
X12069466Y-16096640D01*
X12078989Y-16106164D01*
X12088513Y-16125211D01*
X12098037Y-16163307D01*
X12098037Y-16210926D01*
X12088513Y-16249021D01*
X12078989Y-16268068D01*
X12069466Y-16277592D01*
X12050418Y-16287116D01*
X12031370Y-16287116D01*
X12012323Y-16277592D01*
X12002799Y-16268068D01*
X11993275Y-16249021D01*
X11983751Y-16210926D01*
X11983751Y-16163307D01*
X11993275Y-16125211D01*
X12002799Y-16106164D01*
X12012323Y-16096640D01*
X12031370Y-16087116D01*
X12174228Y-16106164D02*
X12183751Y-16096640D01*
X12202799Y-16087116D01*
X12250418Y-16087116D01*
X12269466Y-16096640D01*
X12278989Y-16106164D01*
X12288513Y-16125211D01*
X12288513Y-16144259D01*
X12278989Y-16172830D01*
X12164704Y-16287116D01*
X12288513Y-16287116D01*
X12355180Y-16087116D02*
X12488513Y-16087116D01*
X12402799Y-16287116D01*
X12650418Y-16087116D02*
X12612323Y-16087116D01*
X12593275Y-16096640D01*
X12583751Y-16106164D01*
X12564704Y-16134735D01*
X12555180Y-16172830D01*
X12555180Y-16249021D01*
X12564704Y-16268068D01*
X12574228Y-16277592D01*
X12593275Y-16287116D01*
X12631370Y-16287116D01*
X12650418Y-16277592D01*
X12659942Y-16268068D01*
X12669466Y-16249021D01*
X12669466Y-16201402D01*
X12659942Y-16182354D01*
X12650418Y-16172830D01*
X12631370Y-16163307D01*
X12593275Y-16163307D01*
X12574228Y-16172830D01*
X12564704Y-16182354D01*
X12555180Y-16201402D01*
X12745656Y-16087116D02*
X12745656Y-16125211D01*
X12821847Y-16087116D02*
X12821847Y-16125211D01*
X13117085Y-16363307D02*
X13107561Y-16353783D01*
X13088513Y-16325211D01*
X13078989Y-16306164D01*
X13069466Y-16277592D01*
X13059942Y-16229973D01*
X13059942Y-16191878D01*
X13069466Y-16144259D01*
X13078989Y-16115688D01*
X13088513Y-16096640D01*
X13107561Y-16068068D01*
X13117085Y-16058545D01*
X13298037Y-16287116D02*
X13183751Y-16287116D01*
X13240894Y-16287116D02*
X13240894Y-16087116D01*
X13221847Y-16115688D01*
X13202799Y-16134735D01*
X13183751Y-16144259D01*
X13536132Y-16287116D02*
X13536132Y-16087116D01*
X13621847Y-16287116D02*
X13621847Y-16182354D01*
X13612323Y-16163307D01*
X13593275Y-16153783D01*
X13564704Y-16153783D01*
X13545656Y-16163307D01*
X13536132Y-16172830D01*
X13745656Y-16287116D02*
X13726608Y-16277592D01*
X13717085Y-16268068D01*
X13707561Y-16249021D01*
X13707561Y-16191878D01*
X13717085Y-16172830D01*
X13726608Y-16163307D01*
X13745656Y-16153783D01*
X13774228Y-16153783D01*
X13793275Y-16163307D01*
X13802799Y-16172830D01*
X13812323Y-16191878D01*
X13812323Y-16249021D01*
X13802799Y-16268068D01*
X13793275Y-16277592D01*
X13774228Y-16287116D01*
X13745656Y-16287116D01*
X13926608Y-16287116D02*
X13907561Y-16277592D01*
X13898037Y-16258545D01*
X13898037Y-16087116D01*
X14078989Y-16277592D02*
X14059942Y-16287116D01*
X14021847Y-16287116D01*
X14002799Y-16277592D01*
X13993275Y-16258545D01*
X13993275Y-16182354D01*
X14002799Y-16163307D01*
X14021847Y-16153783D01*
X14059942Y-16153783D01*
X14078989Y-16163307D01*
X14088513Y-16182354D01*
X14088513Y-16201402D01*
X13993275Y-16220449D01*
X14155180Y-16363307D02*
X14164704Y-16353783D01*
X14183751Y-16325211D01*
X14193275Y-16306164D01*
X14202799Y-16277592D01*
X14212323Y-16229973D01*
X14212323Y-16191878D01*
X14202799Y-16144259D01*
X14193275Y-16115688D01*
X14183751Y-16096640D01*
X14164704Y-16068068D01*
X14155180Y-16058545D01*
D14*
X9507680Y-16423140D02*
X9507680Y-16498140D01*
X9470180Y-16460640D02*
X9545180Y-16460640D01*
D10*
X9840894Y-16351116D02*
X9859942Y-16351116D01*
X9878990Y-16360640D01*
X9888513Y-16370164D01*
X9898037Y-16389211D01*
X9907561Y-16427307D01*
X9907561Y-16474926D01*
X9898037Y-16513021D01*
X9888513Y-16532068D01*
X9878990Y-16541592D01*
X9859942Y-16551116D01*
X9840894Y-16551116D01*
X9821847Y-16541592D01*
X9812323Y-16532068D01*
X9802799Y-16513021D01*
X9793275Y-16474926D01*
X9793275Y-16427307D01*
X9802799Y-16389211D01*
X9812323Y-16370164D01*
X9821847Y-16360640D01*
X9840894Y-16351116D01*
X9993275Y-16532068D02*
X10002799Y-16541592D01*
X9993275Y-16551116D01*
X9983751Y-16541592D01*
X9993275Y-16532068D01*
X9993275Y-16551116D01*
X10069466Y-16351116D02*
X10202799Y-16351116D01*
X10117085Y-16551116D01*
X10374228Y-16351116D02*
X10278990Y-16351116D01*
X10269466Y-16446354D01*
X10278990Y-16436830D01*
X10298037Y-16427307D01*
X10345656Y-16427307D01*
X10364704Y-16436830D01*
X10374228Y-16446354D01*
X10383751Y-16465402D01*
X10383751Y-16513021D01*
X10374228Y-16532068D01*
X10364704Y-16541592D01*
X10345656Y-16551116D01*
X10298037Y-16551116D01*
X10278990Y-16541592D01*
X10269466Y-16532068D01*
X10507561Y-16351116D02*
X10526609Y-16351116D01*
X10545656Y-16360640D01*
X10555180Y-16370164D01*
X10564704Y-16389211D01*
X10574228Y-16427307D01*
X10574228Y-16474926D01*
X10564704Y-16513021D01*
X10555180Y-16532068D01*
X10545656Y-16541592D01*
X10526609Y-16551116D01*
X10507561Y-16551116D01*
X10488513Y-16541592D01*
X10478990Y-16532068D01*
X10469466Y-16513021D01*
X10459942Y-16474926D01*
X10459942Y-16427307D01*
X10469466Y-16389211D01*
X10478990Y-16370164D01*
X10488513Y-16360640D01*
X10507561Y-16351116D01*
X10659942Y-16551116D02*
X10659942Y-16417783D01*
X10659942Y-16436830D02*
X10669466Y-16427307D01*
X10688513Y-16417783D01*
X10717085Y-16417783D01*
X10736132Y-16427307D01*
X10745656Y-16446354D01*
X10745656Y-16551116D01*
X10745656Y-16446354D02*
X10755180Y-16427307D01*
X10774228Y-16417783D01*
X10802799Y-16417783D01*
X10821847Y-16427307D01*
X10831370Y-16446354D01*
X10831370Y-16551116D01*
X10926609Y-16551116D02*
X10926609Y-16417783D01*
X10926609Y-16436830D02*
X10936132Y-16427307D01*
X10955180Y-16417783D01*
X10983751Y-16417783D01*
X11002799Y-16427307D01*
X11012323Y-16446354D01*
X11012323Y-16551116D01*
X11012323Y-16446354D02*
X11021847Y-16427307D01*
X11040894Y-16417783D01*
X11069466Y-16417783D01*
X11088513Y-16427307D01*
X11098037Y-16446354D01*
X11098037Y-16551116D01*
X11488513Y-16341592D02*
X11317085Y-16598735D01*
X11745656Y-16351116D02*
X11764704Y-16351116D01*
X11783751Y-16360640D01*
X11793275Y-16370164D01*
X11802799Y-16389211D01*
X11812323Y-16427307D01*
X11812323Y-16474926D01*
X11802799Y-16513021D01*
X11793275Y-16532068D01*
X11783751Y-16541592D01*
X11764704Y-16551116D01*
X11745656Y-16551116D01*
X11726608Y-16541592D01*
X11717085Y-16532068D01*
X11707561Y-16513021D01*
X11698037Y-16474926D01*
X11698037Y-16427307D01*
X11707561Y-16389211D01*
X11717085Y-16370164D01*
X11726608Y-16360640D01*
X11745656Y-16351116D01*
X11898037Y-16532068D02*
X11907561Y-16541592D01*
X11898037Y-16551116D01*
X11888513Y-16541592D01*
X11898037Y-16532068D01*
X11898037Y-16551116D01*
X12031370Y-16351116D02*
X12050418Y-16351116D01*
X12069466Y-16360640D01*
X12078989Y-16370164D01*
X12088513Y-16389211D01*
X12098037Y-16427307D01*
X12098037Y-16474926D01*
X12088513Y-16513021D01*
X12078989Y-16532068D01*
X12069466Y-16541592D01*
X12050418Y-16551116D01*
X12031370Y-16551116D01*
X12012323Y-16541592D01*
X12002799Y-16532068D01*
X11993275Y-16513021D01*
X11983751Y-16474926D01*
X11983751Y-16427307D01*
X11993275Y-16389211D01*
X12002799Y-16370164D01*
X12012323Y-16360640D01*
X12031370Y-16351116D01*
X12174228Y-16370164D02*
X12183751Y-16360640D01*
X12202799Y-16351116D01*
X12250418Y-16351116D01*
X12269466Y-16360640D01*
X12278989Y-16370164D01*
X12288513Y-16389211D01*
X12288513Y-16408259D01*
X12278989Y-16436830D01*
X12164704Y-16551116D01*
X12288513Y-16551116D01*
X12383751Y-16551116D02*
X12421847Y-16551116D01*
X12440894Y-16541592D01*
X12450418Y-16532068D01*
X12469466Y-16503497D01*
X12478989Y-16465402D01*
X12478989Y-16389211D01*
X12469466Y-16370164D01*
X12459942Y-16360640D01*
X12440894Y-16351116D01*
X12402799Y-16351116D01*
X12383751Y-16360640D01*
X12374228Y-16370164D01*
X12364704Y-16389211D01*
X12364704Y-16436830D01*
X12374228Y-16455878D01*
X12383751Y-16465402D01*
X12402799Y-16474926D01*
X12440894Y-16474926D01*
X12459942Y-16465402D01*
X12469466Y-16455878D01*
X12478989Y-16436830D01*
X12659942Y-16351116D02*
X12564704Y-16351116D01*
X12555180Y-16446354D01*
X12564704Y-16436830D01*
X12583751Y-16427307D01*
X12631370Y-16427307D01*
X12650418Y-16436830D01*
X12659942Y-16446354D01*
X12669466Y-16465402D01*
X12669466Y-16513021D01*
X12659942Y-16532068D01*
X12650418Y-16541592D01*
X12631370Y-16551116D01*
X12583751Y-16551116D01*
X12564704Y-16541592D01*
X12555180Y-16532068D01*
X12745656Y-16351116D02*
X12745656Y-16389211D01*
X12821847Y-16351116D02*
X12821847Y-16389211D01*
X13117085Y-16627307D02*
X13107561Y-16617783D01*
X13088513Y-16589211D01*
X13078989Y-16570164D01*
X13069466Y-16541592D01*
X13059942Y-16493973D01*
X13059942Y-16455878D01*
X13069466Y-16408259D01*
X13078989Y-16379688D01*
X13088513Y-16360640D01*
X13107561Y-16332068D01*
X13117085Y-16322545D01*
X13278989Y-16417783D02*
X13278989Y-16551116D01*
X13231370Y-16341592D02*
X13183751Y-16484449D01*
X13307561Y-16484449D01*
X13536132Y-16551116D02*
X13536132Y-16351116D01*
X13621847Y-16551116D02*
X13621847Y-16446354D01*
X13612323Y-16427307D01*
X13593275Y-16417783D01*
X13564704Y-16417783D01*
X13545656Y-16427307D01*
X13536132Y-16436830D01*
X13745656Y-16551116D02*
X13726608Y-16541592D01*
X13717085Y-16532068D01*
X13707561Y-16513021D01*
X13707561Y-16455878D01*
X13717085Y-16436830D01*
X13726608Y-16427307D01*
X13745656Y-16417783D01*
X13774228Y-16417783D01*
X13793275Y-16427307D01*
X13802799Y-16436830D01*
X13812323Y-16455878D01*
X13812323Y-16513021D01*
X13802799Y-16532068D01*
X13793275Y-16541592D01*
X13774228Y-16551116D01*
X13745656Y-16551116D01*
X13926608Y-16551116D02*
X13907561Y-16541592D01*
X13898037Y-16522545D01*
X13898037Y-16351116D01*
X14078989Y-16541592D02*
X14059942Y-16551116D01*
X14021847Y-16551116D01*
X14002799Y-16541592D01*
X13993275Y-16522545D01*
X13993275Y-16446354D01*
X14002799Y-16427307D01*
X14021847Y-16417783D01*
X14059942Y-16417783D01*
X14078989Y-16427307D01*
X14088513Y-16446354D01*
X14088513Y-16465402D01*
X13993275Y-16484449D01*
X14164704Y-16541592D02*
X14183751Y-16551116D01*
X14221847Y-16551116D01*
X14240894Y-16541592D01*
X14250418Y-16522545D01*
X14250418Y-16513021D01*
X14240894Y-16493973D01*
X14221847Y-16484449D01*
X14193275Y-16484449D01*
X14174228Y-16474926D01*
X14164704Y-16455878D01*
X14164704Y-16446354D01*
X14174228Y-16427307D01*
X14193275Y-16417783D01*
X14221847Y-16417783D01*
X14240894Y-16427307D01*
X14317085Y-16627307D02*
X14326608Y-16617783D01*
X14345656Y-16589211D01*
X14355180Y-16570164D01*
X14364704Y-16541592D01*
X14374228Y-16493973D01*
X14374228Y-16455878D01*
X14364704Y-16408259D01*
X14355180Y-16379688D01*
X14345656Y-16360640D01*
X14326608Y-16332068D01*
X14317085Y-16322545D01*
D15*
X9533465Y-16752924D02*
X9533465Y-16696355D01*
X9476896Y-16696355D01*
X9476896Y-16752924D01*
X9533465Y-16752924D01*
D10*
X9840894Y-16615116D02*
X9859942Y-16615116D01*
X9878990Y-16624640D01*
X9888513Y-16634164D01*
X9898037Y-16653211D01*
X9907561Y-16691307D01*
X9907561Y-16738926D01*
X9898037Y-16777021D01*
X9888513Y-16796069D01*
X9878990Y-16805592D01*
X9859942Y-16815116D01*
X9840894Y-16815116D01*
X9821847Y-16805592D01*
X9812323Y-16796069D01*
X9802799Y-16777021D01*
X9793275Y-16738926D01*
X9793275Y-16691307D01*
X9802799Y-16653211D01*
X9812323Y-16634164D01*
X9821847Y-16624640D01*
X9840894Y-16615116D01*
X9993275Y-16796069D02*
X10002799Y-16805592D01*
X9993275Y-16815116D01*
X9983751Y-16805592D01*
X9993275Y-16796069D01*
X9993275Y-16815116D01*
X10117085Y-16700830D02*
X10098037Y-16691307D01*
X10088513Y-16681783D01*
X10078990Y-16662735D01*
X10078990Y-16653211D01*
X10088513Y-16634164D01*
X10098037Y-16624640D01*
X10117085Y-16615116D01*
X10155180Y-16615116D01*
X10174228Y-16624640D01*
X10183751Y-16634164D01*
X10193275Y-16653211D01*
X10193275Y-16662735D01*
X10183751Y-16681783D01*
X10174228Y-16691307D01*
X10155180Y-16700830D01*
X10117085Y-16700830D01*
X10098037Y-16710354D01*
X10088513Y-16719878D01*
X10078990Y-16738926D01*
X10078990Y-16777021D01*
X10088513Y-16796069D01*
X10098037Y-16805592D01*
X10117085Y-16815116D01*
X10155180Y-16815116D01*
X10174228Y-16805592D01*
X10183751Y-16796069D01*
X10193275Y-16777021D01*
X10193275Y-16738926D01*
X10183751Y-16719878D01*
X10174228Y-16710354D01*
X10155180Y-16700830D01*
X10317085Y-16615116D02*
X10336132Y-16615116D01*
X10355180Y-16624640D01*
X10364704Y-16634164D01*
X10374228Y-16653211D01*
X10383751Y-16691307D01*
X10383751Y-16738926D01*
X10374228Y-16777021D01*
X10364704Y-16796069D01*
X10355180Y-16805592D01*
X10336132Y-16815116D01*
X10317085Y-16815116D01*
X10298037Y-16805592D01*
X10288513Y-16796069D01*
X10278990Y-16777021D01*
X10269466Y-16738926D01*
X10269466Y-16691307D01*
X10278990Y-16653211D01*
X10288513Y-16634164D01*
X10298037Y-16624640D01*
X10317085Y-16615116D01*
X10507561Y-16615116D02*
X10526609Y-16615116D01*
X10545656Y-16624640D01*
X10555180Y-16634164D01*
X10564704Y-16653211D01*
X10574228Y-16691307D01*
X10574228Y-16738926D01*
X10564704Y-16777021D01*
X10555180Y-16796069D01*
X10545656Y-16805592D01*
X10526609Y-16815116D01*
X10507561Y-16815116D01*
X10488513Y-16805592D01*
X10478990Y-16796069D01*
X10469466Y-16777021D01*
X10459942Y-16738926D01*
X10459942Y-16691307D01*
X10469466Y-16653211D01*
X10478990Y-16634164D01*
X10488513Y-16624640D01*
X10507561Y-16615116D01*
X10659942Y-16815116D02*
X10659942Y-16681783D01*
X10659942Y-16700830D02*
X10669466Y-16691307D01*
X10688513Y-16681783D01*
X10717085Y-16681783D01*
X10736132Y-16691307D01*
X10745656Y-16710354D01*
X10745656Y-16815116D01*
X10745656Y-16710354D02*
X10755180Y-16691307D01*
X10774228Y-16681783D01*
X10802799Y-16681783D01*
X10821847Y-16691307D01*
X10831370Y-16710354D01*
X10831370Y-16815116D01*
X10926609Y-16815116D02*
X10926609Y-16681783D01*
X10926609Y-16700830D02*
X10936132Y-16691307D01*
X10955180Y-16681783D01*
X10983751Y-16681783D01*
X11002799Y-16691307D01*
X11012323Y-16710354D01*
X11012323Y-16815116D01*
X11012323Y-16710354D02*
X11021847Y-16691307D01*
X11040894Y-16681783D01*
X11069466Y-16681783D01*
X11088513Y-16691307D01*
X11098037Y-16710354D01*
X11098037Y-16815116D01*
X11488513Y-16605592D02*
X11317085Y-16862735D01*
X11745656Y-16615116D02*
X11764704Y-16615116D01*
X11783751Y-16624640D01*
X11793275Y-16634164D01*
X11802799Y-16653211D01*
X11812323Y-16691307D01*
X11812323Y-16738926D01*
X11802799Y-16777021D01*
X11793275Y-16796069D01*
X11783751Y-16805592D01*
X11764704Y-16815116D01*
X11745656Y-16815116D01*
X11726608Y-16805592D01*
X11717085Y-16796069D01*
X11707561Y-16777021D01*
X11698037Y-16738926D01*
X11698037Y-16691307D01*
X11707561Y-16653211D01*
X11717085Y-16634164D01*
X11726608Y-16624640D01*
X11745656Y-16615116D01*
X11898037Y-16796069D02*
X11907561Y-16805592D01*
X11898037Y-16815116D01*
X11888513Y-16805592D01*
X11898037Y-16796069D01*
X11898037Y-16815116D01*
X12031370Y-16615116D02*
X12050418Y-16615116D01*
X12069466Y-16624640D01*
X12078989Y-16634164D01*
X12088513Y-16653211D01*
X12098037Y-16691307D01*
X12098037Y-16738926D01*
X12088513Y-16777021D01*
X12078989Y-16796069D01*
X12069466Y-16805592D01*
X12050418Y-16815116D01*
X12031370Y-16815116D01*
X12012323Y-16805592D01*
X12002799Y-16796069D01*
X11993275Y-16777021D01*
X11983751Y-16738926D01*
X11983751Y-16691307D01*
X11993275Y-16653211D01*
X12002799Y-16634164D01*
X12012323Y-16624640D01*
X12031370Y-16615116D01*
X12164704Y-16615116D02*
X12288513Y-16615116D01*
X12221847Y-16691307D01*
X12250418Y-16691307D01*
X12269466Y-16700830D01*
X12278989Y-16710354D01*
X12288513Y-16729402D01*
X12288513Y-16777021D01*
X12278989Y-16796069D01*
X12269466Y-16805592D01*
X12250418Y-16815116D01*
X12193275Y-16815116D01*
X12174228Y-16805592D01*
X12164704Y-16796069D01*
X12478989Y-16815116D02*
X12364704Y-16815116D01*
X12421847Y-16815116D02*
X12421847Y-16615116D01*
X12402799Y-16643688D01*
X12383751Y-16662735D01*
X12364704Y-16672259D01*
X12659942Y-16615116D02*
X12564704Y-16615116D01*
X12555180Y-16710354D01*
X12564704Y-16700830D01*
X12583751Y-16691307D01*
X12631370Y-16691307D01*
X12650418Y-16700830D01*
X12659942Y-16710354D01*
X12669466Y-16729402D01*
X12669466Y-16777021D01*
X12659942Y-16796069D01*
X12650418Y-16805592D01*
X12631370Y-16815116D01*
X12583751Y-16815116D01*
X12564704Y-16805592D01*
X12555180Y-16796069D01*
X12745656Y-16615116D02*
X12745656Y-16653211D01*
X12821847Y-16615116D02*
X12821847Y-16653211D01*
X13117085Y-16891307D02*
X13107561Y-16881783D01*
X13088513Y-16853211D01*
X13078989Y-16834164D01*
X13069466Y-16805592D01*
X13059942Y-16757973D01*
X13059942Y-16719878D01*
X13069466Y-16672259D01*
X13078989Y-16643688D01*
X13088513Y-16624640D01*
X13107561Y-16596068D01*
X13117085Y-16586545D01*
X13288513Y-16615116D02*
X13193275Y-16615116D01*
X13183751Y-16710354D01*
X13193275Y-16700830D01*
X13212323Y-16691307D01*
X13259942Y-16691307D01*
X13278989Y-16700830D01*
X13288513Y-16710354D01*
X13298037Y-16729402D01*
X13298037Y-16777021D01*
X13288513Y-16796069D01*
X13278989Y-16805592D01*
X13259942Y-16815116D01*
X13212323Y-16815116D01*
X13193275Y-16805592D01*
X13183751Y-16796069D01*
X13488513Y-16815116D02*
X13374228Y-16815116D01*
X13431370Y-16815116D02*
X13431370Y-16615116D01*
X13412323Y-16643688D01*
X13393275Y-16662735D01*
X13374228Y-16672259D01*
X13726608Y-16815116D02*
X13726608Y-16615116D01*
X13812323Y-16815116D02*
X13812323Y-16710354D01*
X13802799Y-16691307D01*
X13783751Y-16681783D01*
X13755180Y-16681783D01*
X13736132Y-16691307D01*
X13726608Y-16700830D01*
X13936132Y-16815116D02*
X13917085Y-16805592D01*
X13907561Y-16796069D01*
X13898037Y-16777021D01*
X13898037Y-16719878D01*
X13907561Y-16700830D01*
X13917085Y-16691307D01*
X13936132Y-16681783D01*
X13964704Y-16681783D01*
X13983751Y-16691307D01*
X13993275Y-16700830D01*
X14002799Y-16719878D01*
X14002799Y-16777021D01*
X13993275Y-16796069D01*
X13983751Y-16805592D01*
X13964704Y-16815116D01*
X13936132Y-16815116D01*
X14117085Y-16815116D02*
X14098037Y-16805592D01*
X14088513Y-16786545D01*
X14088513Y-16615116D01*
X14269466Y-16805592D02*
X14250418Y-16815116D01*
X14212323Y-16815116D01*
X14193275Y-16805592D01*
X14183751Y-16786545D01*
X14183751Y-16710354D01*
X14193275Y-16691307D01*
X14212323Y-16681783D01*
X14250418Y-16681783D01*
X14269466Y-16691307D01*
X14278989Y-16710354D01*
X14278989Y-16729402D01*
X14183751Y-16748449D01*
X14355180Y-16805592D02*
X14374228Y-16815116D01*
X14412323Y-16815116D01*
X14431370Y-16805592D01*
X14440894Y-16786545D01*
X14440894Y-16777021D01*
X14431370Y-16757973D01*
X14412323Y-16748449D01*
X14383751Y-16748449D01*
X14364704Y-16738926D01*
X14355180Y-16719878D01*
X14355180Y-16710354D01*
X14364704Y-16691307D01*
X14383751Y-16681783D01*
X14412323Y-16681783D01*
X14431370Y-16691307D01*
X14678989Y-16738926D02*
X14831370Y-16738926D01*
X14755180Y-16815116D02*
X14755180Y-16662735D01*
X15164704Y-16615116D02*
X15126608Y-16615116D01*
X15107561Y-16624640D01*
X15098037Y-16634164D01*
X15078989Y-16662735D01*
X15069466Y-16700830D01*
X15069466Y-16777021D01*
X15078989Y-16796069D01*
X15088513Y-16805592D01*
X15107561Y-16815116D01*
X15145656Y-16815116D01*
X15164704Y-16805592D01*
X15174228Y-16796069D01*
X15183751Y-16777021D01*
X15183751Y-16729402D01*
X15174228Y-16710354D01*
X15164704Y-16700830D01*
X15145656Y-16691307D01*
X15107561Y-16691307D01*
X15088513Y-16700830D01*
X15078989Y-16710354D01*
X15069466Y-16729402D01*
X15412323Y-16805592D02*
X15431370Y-16815116D01*
X15469466Y-16815116D01*
X15488513Y-16805592D01*
X15498037Y-16786545D01*
X15498037Y-16777021D01*
X15488513Y-16757973D01*
X15469466Y-16748449D01*
X15440894Y-16748449D01*
X15421847Y-16738926D01*
X15412323Y-16719878D01*
X15412323Y-16710354D01*
X15421847Y-16691307D01*
X15440894Y-16681783D01*
X15469466Y-16681783D01*
X15488513Y-16691307D01*
X15612323Y-16815116D02*
X15593275Y-16805592D01*
X15583751Y-16786545D01*
X15583751Y-16615116D01*
X15717085Y-16815116D02*
X15698037Y-16805592D01*
X15688513Y-16796069D01*
X15678989Y-16777021D01*
X15678989Y-16719878D01*
X15688513Y-16700830D01*
X15698037Y-16691307D01*
X15717085Y-16681783D01*
X15745656Y-16681783D01*
X15764704Y-16691307D01*
X15774228Y-16700830D01*
X15783751Y-16719878D01*
X15783751Y-16777021D01*
X15774228Y-16796069D01*
X15764704Y-16805592D01*
X15745656Y-16815116D01*
X15717085Y-16815116D01*
X15840894Y-16681783D02*
X15917085Y-16681783D01*
X15869466Y-16615116D02*
X15869466Y-16786545D01*
X15878989Y-16805592D01*
X15898037Y-16815116D01*
X15917085Y-16815116D01*
X15974228Y-16805592D02*
X15993275Y-16815116D01*
X16031370Y-16815116D01*
X16050418Y-16805592D01*
X16059942Y-16786545D01*
X16059942Y-16777021D01*
X16050418Y-16757973D01*
X16031370Y-16748449D01*
X16002799Y-16748449D01*
X15983751Y-16738926D01*
X15974228Y-16719878D01*
X15974228Y-16710354D01*
X15983751Y-16691307D01*
X16002799Y-16681783D01*
X16031370Y-16681783D01*
X16050418Y-16691307D01*
X16126608Y-16891307D02*
X16136132Y-16881783D01*
X16155180Y-16853211D01*
X16164704Y-16834164D01*
X16174228Y-16805592D01*
X16183751Y-16757973D01*
X16183751Y-16719878D01*
X16174228Y-16672259D01*
X16164704Y-16643688D01*
X16155180Y-16624640D01*
X16136132Y-16596068D01*
X16126608Y-16586545D01*
D11*
X9495180Y-17038640D02*
X9545180Y-16988640D01*
X9495180Y-16938640D01*
X9445180Y-16988640D01*
X9495180Y-17038640D01*
D10*
X9907561Y-17079116D02*
X9793275Y-17079116D01*
X9850418Y-17079116D02*
X9850418Y-16879116D01*
X9831370Y-16907688D01*
X9812323Y-16926735D01*
X9793275Y-16936259D01*
X9993275Y-17060069D02*
X10002799Y-17069592D01*
X9993275Y-17079116D01*
X9983751Y-17069592D01*
X9993275Y-17060069D01*
X9993275Y-17079116D01*
X10126609Y-16879116D02*
X10145656Y-16879116D01*
X10164704Y-16888640D01*
X10174228Y-16898164D01*
X10183751Y-16917211D01*
X10193275Y-16955307D01*
X10193275Y-17002926D01*
X10183751Y-17041021D01*
X10174228Y-17060069D01*
X10164704Y-17069592D01*
X10145656Y-17079116D01*
X10126609Y-17079116D01*
X10107561Y-17069592D01*
X10098037Y-17060069D01*
X10088513Y-17041021D01*
X10078990Y-17002926D01*
X10078990Y-16955307D01*
X10088513Y-16917211D01*
X10098037Y-16898164D01*
X10107561Y-16888640D01*
X10126609Y-16879116D01*
X10317085Y-16879116D02*
X10336132Y-16879116D01*
X10355180Y-16888640D01*
X10364704Y-16898164D01*
X10374228Y-16917211D01*
X10383751Y-16955307D01*
X10383751Y-17002926D01*
X10374228Y-17041021D01*
X10364704Y-17060069D01*
X10355180Y-17069592D01*
X10336132Y-17079116D01*
X10317085Y-17079116D01*
X10298037Y-17069592D01*
X10288513Y-17060069D01*
X10278990Y-17041021D01*
X10269466Y-17002926D01*
X10269466Y-16955307D01*
X10278990Y-16917211D01*
X10288513Y-16898164D01*
X10298037Y-16888640D01*
X10317085Y-16879116D01*
X10507561Y-16879116D02*
X10526609Y-16879116D01*
X10545656Y-16888640D01*
X10555180Y-16898164D01*
X10564704Y-16917211D01*
X10574228Y-16955307D01*
X10574228Y-17002926D01*
X10564704Y-17041021D01*
X10555180Y-17060069D01*
X10545656Y-17069592D01*
X10526609Y-17079116D01*
X10507561Y-17079116D01*
X10488513Y-17069592D01*
X10478990Y-17060069D01*
X10469466Y-17041021D01*
X10459942Y-17002926D01*
X10459942Y-16955307D01*
X10469466Y-16917211D01*
X10478990Y-16898164D01*
X10488513Y-16888640D01*
X10507561Y-16879116D01*
X10659942Y-17079116D02*
X10659942Y-16945783D01*
X10659942Y-16964830D02*
X10669466Y-16955307D01*
X10688513Y-16945783D01*
X10717085Y-16945783D01*
X10736132Y-16955307D01*
X10745656Y-16974354D01*
X10745656Y-17079116D01*
X10745656Y-16974354D02*
X10755180Y-16955307D01*
X10774228Y-16945783D01*
X10802799Y-16945783D01*
X10821847Y-16955307D01*
X10831370Y-16974354D01*
X10831370Y-17079116D01*
X10926609Y-17079116D02*
X10926609Y-16945783D01*
X10926609Y-16964830D02*
X10936132Y-16955307D01*
X10955180Y-16945783D01*
X10983751Y-16945783D01*
X11002799Y-16955307D01*
X11012323Y-16974354D01*
X11012323Y-17079116D01*
X11012323Y-16974354D02*
X11021847Y-16955307D01*
X11040894Y-16945783D01*
X11069466Y-16945783D01*
X11088513Y-16955307D01*
X11098037Y-16974354D01*
X11098037Y-17079116D01*
X11488513Y-16869592D02*
X11317085Y-17126735D01*
X11745656Y-16879116D02*
X11764704Y-16879116D01*
X11783751Y-16888640D01*
X11793275Y-16898164D01*
X11802799Y-16917211D01*
X11812323Y-16955307D01*
X11812323Y-17002926D01*
X11802799Y-17041021D01*
X11793275Y-17060069D01*
X11783751Y-17069592D01*
X11764704Y-17079116D01*
X11745656Y-17079116D01*
X11726608Y-17069592D01*
X11717085Y-17060069D01*
X11707561Y-17041021D01*
X11698037Y-17002926D01*
X11698037Y-16955307D01*
X11707561Y-16917211D01*
X11717085Y-16898164D01*
X11726608Y-16888640D01*
X11745656Y-16879116D01*
X11898037Y-17060069D02*
X11907561Y-17069592D01*
X11898037Y-17079116D01*
X11888513Y-17069592D01*
X11898037Y-17060069D01*
X11898037Y-17079116D01*
X12031370Y-16879116D02*
X12050418Y-16879116D01*
X12069466Y-16888640D01*
X12078989Y-16898164D01*
X12088513Y-16917211D01*
X12098037Y-16955307D01*
X12098037Y-17002926D01*
X12088513Y-17041021D01*
X12078989Y-17060069D01*
X12069466Y-17069592D01*
X12050418Y-17079116D01*
X12031370Y-17079116D01*
X12012323Y-17069592D01*
X12002799Y-17060069D01*
X11993275Y-17041021D01*
X11983751Y-17002926D01*
X11983751Y-16955307D01*
X11993275Y-16917211D01*
X12002799Y-16898164D01*
X12012323Y-16888640D01*
X12031370Y-16879116D01*
X12164704Y-16879116D02*
X12288513Y-16879116D01*
X12221847Y-16955307D01*
X12250418Y-16955307D01*
X12269466Y-16964830D01*
X12278989Y-16974354D01*
X12288513Y-16993402D01*
X12288513Y-17041021D01*
X12278989Y-17060069D01*
X12269466Y-17069592D01*
X12250418Y-17079116D01*
X12193275Y-17079116D01*
X12174228Y-17069592D01*
X12164704Y-17060069D01*
X12383751Y-17079116D02*
X12421847Y-17079116D01*
X12440894Y-17069592D01*
X12450418Y-17060069D01*
X12469466Y-17031497D01*
X12478989Y-16993402D01*
X12478989Y-16917211D01*
X12469466Y-16898164D01*
X12459942Y-16888640D01*
X12440894Y-16879116D01*
X12402799Y-16879116D01*
X12383751Y-16888640D01*
X12374228Y-16898164D01*
X12364704Y-16917211D01*
X12364704Y-16964830D01*
X12374228Y-16983878D01*
X12383751Y-16993402D01*
X12402799Y-17002926D01*
X12440894Y-17002926D01*
X12459942Y-16993402D01*
X12469466Y-16983878D01*
X12478989Y-16964830D01*
X12650418Y-16945783D02*
X12650418Y-17079116D01*
X12602799Y-16869592D02*
X12555180Y-17012450D01*
X12678989Y-17012450D01*
X12745656Y-16879116D02*
X12745656Y-16917211D01*
X12821847Y-16879116D02*
X12821847Y-16917211D01*
X13117085Y-17155307D02*
X13107561Y-17145783D01*
X13088513Y-17117211D01*
X13078989Y-17098164D01*
X13069466Y-17069592D01*
X13059942Y-17021973D01*
X13059942Y-16983878D01*
X13069466Y-16936259D01*
X13078989Y-16907688D01*
X13088513Y-16888640D01*
X13107561Y-16860069D01*
X13117085Y-16850545D01*
X13174228Y-16879116D02*
X13307561Y-16879116D01*
X13221847Y-17079116D01*
X13536132Y-17079116D02*
X13536132Y-16879116D01*
X13621847Y-17079116D02*
X13621847Y-16974354D01*
X13612323Y-16955307D01*
X13593275Y-16945783D01*
X13564704Y-16945783D01*
X13545656Y-16955307D01*
X13536132Y-16964830D01*
X13745656Y-17079116D02*
X13726608Y-17069592D01*
X13717085Y-17060069D01*
X13707561Y-17041021D01*
X13707561Y-16983878D01*
X13717085Y-16964830D01*
X13726608Y-16955307D01*
X13745656Y-16945783D01*
X13774228Y-16945783D01*
X13793275Y-16955307D01*
X13802799Y-16964830D01*
X13812323Y-16983878D01*
X13812323Y-17041021D01*
X13802799Y-17060069D01*
X13793275Y-17069592D01*
X13774228Y-17079116D01*
X13745656Y-17079116D01*
X13926608Y-17079116D02*
X13907561Y-17069592D01*
X13898037Y-17050545D01*
X13898037Y-16879116D01*
X14078989Y-17069592D02*
X14059942Y-17079116D01*
X14021847Y-17079116D01*
X14002799Y-17069592D01*
X13993275Y-17050545D01*
X13993275Y-16974354D01*
X14002799Y-16955307D01*
X14021847Y-16945783D01*
X14059942Y-16945783D01*
X14078989Y-16955307D01*
X14088513Y-16974354D01*
X14088513Y-16993402D01*
X13993275Y-17012450D01*
X14164704Y-17069592D02*
X14183751Y-17079116D01*
X14221847Y-17079116D01*
X14240894Y-17069592D01*
X14250418Y-17050545D01*
X14250418Y-17041021D01*
X14240894Y-17021973D01*
X14221847Y-17012450D01*
X14193275Y-17012450D01*
X14174228Y-17002926D01*
X14164704Y-16983878D01*
X14164704Y-16974354D01*
X14174228Y-16955307D01*
X14193275Y-16945783D01*
X14221847Y-16945783D01*
X14240894Y-16955307D01*
X14317085Y-17155307D02*
X14326608Y-17145783D01*
X14345656Y-17117211D01*
X14355180Y-17098164D01*
X14364704Y-17069592D01*
X14374228Y-17021973D01*
X14374228Y-16983878D01*
X14364704Y-16936259D01*
X14355180Y-16907688D01*
X14345656Y-16888640D01*
X14326608Y-16860069D01*
X14317085Y-16850545D01*
D16*
X9425180Y-17192640D02*
X9545180Y-17312640D01*
X9545180Y-17192640D02*
X9425180Y-17312640D01*
X9545180Y-17252640D02*
G75*
G03*
X9545180Y-17252640I-60000J0D01*
G01*
D10*
X9907561Y-17343116D02*
X9793275Y-17343116D01*
X9850418Y-17343116D02*
X9850418Y-17143116D01*
X9831370Y-17171688D01*
X9812323Y-17190735D01*
X9793275Y-17200259D01*
X9993275Y-17324069D02*
X10002799Y-17333592D01*
X9993275Y-17343116D01*
X9983751Y-17333592D01*
X9993275Y-17324069D01*
X9993275Y-17343116D01*
X10078990Y-17162164D02*
X10088513Y-17152640D01*
X10107561Y-17143116D01*
X10155180Y-17143116D01*
X10174228Y-17152640D01*
X10183751Y-17162164D01*
X10193275Y-17181211D01*
X10193275Y-17200259D01*
X10183751Y-17228830D01*
X10069466Y-17343116D01*
X10193275Y-17343116D01*
X10317085Y-17143116D02*
X10336132Y-17143116D01*
X10355180Y-17152640D01*
X10364704Y-17162164D01*
X10374228Y-17181211D01*
X10383751Y-17219307D01*
X10383751Y-17266926D01*
X10374228Y-17305021D01*
X10364704Y-17324069D01*
X10355180Y-17333592D01*
X10336132Y-17343116D01*
X10317085Y-17343116D01*
X10298037Y-17333592D01*
X10288513Y-17324069D01*
X10278990Y-17305021D01*
X10269466Y-17266926D01*
X10269466Y-17219307D01*
X10278990Y-17181211D01*
X10288513Y-17162164D01*
X10298037Y-17152640D01*
X10317085Y-17143116D01*
X10507561Y-17143116D02*
X10526609Y-17143116D01*
X10545656Y-17152640D01*
X10555180Y-17162164D01*
X10564704Y-17181211D01*
X10574228Y-17219307D01*
X10574228Y-17266926D01*
X10564704Y-17305021D01*
X10555180Y-17324069D01*
X10545656Y-17333592D01*
X10526609Y-17343116D01*
X10507561Y-17343116D01*
X10488513Y-17333592D01*
X10478990Y-17324069D01*
X10469466Y-17305021D01*
X10459942Y-17266926D01*
X10459942Y-17219307D01*
X10469466Y-17181211D01*
X10478990Y-17162164D01*
X10488513Y-17152640D01*
X10507561Y-17143116D01*
X10659942Y-17343116D02*
X10659942Y-17209783D01*
X10659942Y-17228830D02*
X10669466Y-17219307D01*
X10688513Y-17209783D01*
X10717085Y-17209783D01*
X10736132Y-17219307D01*
X10745656Y-17238354D01*
X10745656Y-17343116D01*
X10745656Y-17238354D02*
X10755180Y-17219307D01*
X10774228Y-17209783D01*
X10802799Y-17209783D01*
X10821847Y-17219307D01*
X10831370Y-17238354D01*
X10831370Y-17343116D01*
X10926609Y-17343116D02*
X10926609Y-17209783D01*
X10926609Y-17228830D02*
X10936132Y-17219307D01*
X10955180Y-17209783D01*
X10983751Y-17209783D01*
X11002799Y-17219307D01*
X11012323Y-17238354D01*
X11012323Y-17343116D01*
X11012323Y-17238354D02*
X11021847Y-17219307D01*
X11040894Y-17209783D01*
X11069466Y-17209783D01*
X11088513Y-17219307D01*
X11098037Y-17238354D01*
X11098037Y-17343116D01*
X11488513Y-17133592D02*
X11317085Y-17390735D01*
X11745656Y-17143116D02*
X11764704Y-17143116D01*
X11783751Y-17152640D01*
X11793275Y-17162164D01*
X11802799Y-17181211D01*
X11812323Y-17219307D01*
X11812323Y-17266926D01*
X11802799Y-17305021D01*
X11793275Y-17324069D01*
X11783751Y-17333592D01*
X11764704Y-17343116D01*
X11745656Y-17343116D01*
X11726608Y-17333592D01*
X11717085Y-17324069D01*
X11707561Y-17305021D01*
X11698037Y-17266926D01*
X11698037Y-17219307D01*
X11707561Y-17181211D01*
X11717085Y-17162164D01*
X11726608Y-17152640D01*
X11745656Y-17143116D01*
X11898037Y-17324069D02*
X11907561Y-17333592D01*
X11898037Y-17343116D01*
X11888513Y-17333592D01*
X11898037Y-17324069D01*
X11898037Y-17343116D01*
X12031370Y-17143116D02*
X12050418Y-17143116D01*
X12069466Y-17152640D01*
X12078989Y-17162164D01*
X12088513Y-17181211D01*
X12098037Y-17219307D01*
X12098037Y-17266926D01*
X12088513Y-17305021D01*
X12078989Y-17324069D01*
X12069466Y-17333592D01*
X12050418Y-17343116D01*
X12031370Y-17343116D01*
X12012323Y-17333592D01*
X12002799Y-17324069D01*
X11993275Y-17305021D01*
X11983751Y-17266926D01*
X11983751Y-17219307D01*
X11993275Y-17181211D01*
X12002799Y-17162164D01*
X12012323Y-17152640D01*
X12031370Y-17143116D01*
X12269466Y-17209783D02*
X12269466Y-17343116D01*
X12221847Y-17133592D02*
X12174228Y-17276450D01*
X12298037Y-17276450D01*
X12355180Y-17143116D02*
X12488513Y-17143116D01*
X12402799Y-17343116D01*
X12555180Y-17162164D02*
X12564704Y-17152640D01*
X12583751Y-17143116D01*
X12631370Y-17143116D01*
X12650418Y-17152640D01*
X12659942Y-17162164D01*
X12669466Y-17181211D01*
X12669466Y-17200259D01*
X12659942Y-17228830D01*
X12545656Y-17343116D01*
X12669466Y-17343116D01*
X12745656Y-17143116D02*
X12745656Y-17181211D01*
X12821847Y-17143116D02*
X12821847Y-17181211D01*
X13117085Y-17419307D02*
X13107561Y-17409783D01*
X13088513Y-17381211D01*
X13078989Y-17362164D01*
X13069466Y-17333592D01*
X13059942Y-17285973D01*
X13059942Y-17247878D01*
X13069466Y-17200259D01*
X13078989Y-17171688D01*
X13088513Y-17152640D01*
X13107561Y-17124069D01*
X13117085Y-17114545D01*
X13183751Y-17162164D02*
X13193275Y-17152640D01*
X13212323Y-17143116D01*
X13259942Y-17143116D01*
X13278989Y-17152640D01*
X13288513Y-17162164D01*
X13298037Y-17181211D01*
X13298037Y-17200259D01*
X13288513Y-17228830D01*
X13174228Y-17343116D01*
X13298037Y-17343116D01*
X13536132Y-17343116D02*
X13536132Y-17143116D01*
X13621847Y-17343116D02*
X13621847Y-17238354D01*
X13612323Y-17219307D01*
X13593275Y-17209783D01*
X13564704Y-17209783D01*
X13545656Y-17219307D01*
X13536132Y-17228830D01*
X13745656Y-17343116D02*
X13726608Y-17333592D01*
X13717085Y-17324069D01*
X13707561Y-17305021D01*
X13707561Y-17247878D01*
X13717085Y-17228830D01*
X13726608Y-17219307D01*
X13745656Y-17209783D01*
X13774228Y-17209783D01*
X13793275Y-17219307D01*
X13802799Y-17228830D01*
X13812323Y-17247878D01*
X13812323Y-17305021D01*
X13802799Y-17324069D01*
X13793275Y-17333592D01*
X13774228Y-17343116D01*
X13745656Y-17343116D01*
X13926608Y-17343116D02*
X13907561Y-17333592D01*
X13898037Y-17314545D01*
X13898037Y-17143116D01*
X14078989Y-17333592D02*
X14059942Y-17343116D01*
X14021847Y-17343116D01*
X14002799Y-17333592D01*
X13993275Y-17314545D01*
X13993275Y-17238354D01*
X14002799Y-17219307D01*
X14021847Y-17209783D01*
X14059942Y-17209783D01*
X14078989Y-17219307D01*
X14088513Y-17238354D01*
X14088513Y-17257402D01*
X13993275Y-17276450D01*
X14164704Y-17333592D02*
X14183751Y-17343116D01*
X14221847Y-17343116D01*
X14240894Y-17333592D01*
X14250418Y-17314545D01*
X14250418Y-17305021D01*
X14240894Y-17285973D01*
X14221847Y-17276450D01*
X14193275Y-17276450D01*
X14174228Y-17266926D01*
X14164704Y-17247878D01*
X14164704Y-17238354D01*
X14174228Y-17219307D01*
X14193275Y-17209783D01*
X14221847Y-17209783D01*
X14240894Y-17219307D01*
X14317085Y-17419307D02*
X14326608Y-17409783D01*
X14345656Y-17381211D01*
X14355180Y-17362164D01*
X14364704Y-17333592D01*
X14374228Y-17285973D01*
X14374228Y-17247878D01*
X14364704Y-17200259D01*
X14355180Y-17171688D01*
X14345656Y-17152640D01*
X14326608Y-17124069D01*
X14317085Y-17114545D01*
D17*
X9418180Y-17453140D02*
X9545180Y-17580140D01*
X9545180Y-17453140D02*
X9418180Y-17580140D01*
X9481680Y-17453140D02*
X9481680Y-17580140D01*
X9418180Y-17516640D02*
X9545180Y-17516640D01*
D10*
X9907561Y-17607116D02*
X9793275Y-17607116D01*
X9850418Y-17607116D02*
X9850418Y-17407116D01*
X9831370Y-17435688D01*
X9812323Y-17454735D01*
X9793275Y-17464259D01*
X9993275Y-17588069D02*
X10002799Y-17597592D01*
X9993275Y-17607116D01*
X9983751Y-17597592D01*
X9993275Y-17588069D01*
X9993275Y-17607116D01*
X10078990Y-17426164D02*
X10088513Y-17416640D01*
X10107561Y-17407116D01*
X10155180Y-17407116D01*
X10174228Y-17416640D01*
X10183751Y-17426164D01*
X10193275Y-17445211D01*
X10193275Y-17464259D01*
X10183751Y-17492830D01*
X10069466Y-17607116D01*
X10193275Y-17607116D01*
X10259942Y-17407116D02*
X10393275Y-17407116D01*
X10307561Y-17607116D01*
X10507561Y-17407116D02*
X10526609Y-17407116D01*
X10545656Y-17416640D01*
X10555180Y-17426164D01*
X10564704Y-17445211D01*
X10574228Y-17483307D01*
X10574228Y-17530926D01*
X10564704Y-17569021D01*
X10555180Y-17588069D01*
X10545656Y-17597592D01*
X10526609Y-17607116D01*
X10507561Y-17607116D01*
X10488513Y-17597592D01*
X10478990Y-17588069D01*
X10469466Y-17569021D01*
X10459942Y-17530926D01*
X10459942Y-17483307D01*
X10469466Y-17445211D01*
X10478990Y-17426164D01*
X10488513Y-17416640D01*
X10507561Y-17407116D01*
X10659942Y-17607116D02*
X10659942Y-17473783D01*
X10659942Y-17492830D02*
X10669466Y-17483307D01*
X10688513Y-17473783D01*
X10717085Y-17473783D01*
X10736132Y-17483307D01*
X10745656Y-17502354D01*
X10745656Y-17607116D01*
X10745656Y-17502354D02*
X10755180Y-17483307D01*
X10774228Y-17473783D01*
X10802799Y-17473783D01*
X10821847Y-17483307D01*
X10831370Y-17502354D01*
X10831370Y-17607116D01*
X10926609Y-17607116D02*
X10926609Y-17473783D01*
X10926609Y-17492830D02*
X10936132Y-17483307D01*
X10955180Y-17473783D01*
X10983751Y-17473783D01*
X11002799Y-17483307D01*
X11012323Y-17502354D01*
X11012323Y-17607116D01*
X11012323Y-17502354D02*
X11021847Y-17483307D01*
X11040894Y-17473783D01*
X11069466Y-17473783D01*
X11088513Y-17483307D01*
X11098037Y-17502354D01*
X11098037Y-17607116D01*
X11488513Y-17397592D02*
X11317085Y-17654735D01*
X11745656Y-17407116D02*
X11764704Y-17407116D01*
X11783751Y-17416640D01*
X11793275Y-17426164D01*
X11802799Y-17445211D01*
X11812323Y-17483307D01*
X11812323Y-17530926D01*
X11802799Y-17569021D01*
X11793275Y-17588069D01*
X11783751Y-17597592D01*
X11764704Y-17607116D01*
X11745656Y-17607116D01*
X11726608Y-17597592D01*
X11717085Y-17588069D01*
X11707561Y-17569021D01*
X11698037Y-17530926D01*
X11698037Y-17483307D01*
X11707561Y-17445211D01*
X11717085Y-17426164D01*
X11726608Y-17416640D01*
X11745656Y-17407116D01*
X11898037Y-17588069D02*
X11907561Y-17597592D01*
X11898037Y-17607116D01*
X11888513Y-17597592D01*
X11898037Y-17588069D01*
X11898037Y-17607116D01*
X12031370Y-17407116D02*
X12050418Y-17407116D01*
X12069466Y-17416640D01*
X12078989Y-17426164D01*
X12088513Y-17445211D01*
X12098037Y-17483307D01*
X12098037Y-17530926D01*
X12088513Y-17569021D01*
X12078989Y-17588069D01*
X12069466Y-17597592D01*
X12050418Y-17607116D01*
X12031370Y-17607116D01*
X12012323Y-17597592D01*
X12002799Y-17588069D01*
X11993275Y-17569021D01*
X11983751Y-17530926D01*
X11983751Y-17483307D01*
X11993275Y-17445211D01*
X12002799Y-17426164D01*
X12012323Y-17416640D01*
X12031370Y-17407116D01*
X12278989Y-17407116D02*
X12183751Y-17407116D01*
X12174228Y-17502354D01*
X12183751Y-17492830D01*
X12202799Y-17483307D01*
X12250418Y-17483307D01*
X12269466Y-17492830D01*
X12278989Y-17502354D01*
X12288513Y-17521402D01*
X12288513Y-17569021D01*
X12278989Y-17588069D01*
X12269466Y-17597592D01*
X12250418Y-17607116D01*
X12202799Y-17607116D01*
X12183751Y-17597592D01*
X12174228Y-17588069D01*
X12412323Y-17407116D02*
X12431370Y-17407116D01*
X12450418Y-17416640D01*
X12459942Y-17426164D01*
X12469466Y-17445211D01*
X12478989Y-17483307D01*
X12478989Y-17530926D01*
X12469466Y-17569021D01*
X12459942Y-17588069D01*
X12450418Y-17597592D01*
X12431370Y-17607116D01*
X12412323Y-17607116D01*
X12393275Y-17597592D01*
X12383751Y-17588069D01*
X12374228Y-17569021D01*
X12364704Y-17530926D01*
X12364704Y-17483307D01*
X12374228Y-17445211D01*
X12383751Y-17426164D01*
X12393275Y-17416640D01*
X12412323Y-17407116D01*
X12602799Y-17407116D02*
X12621847Y-17407116D01*
X12640894Y-17416640D01*
X12650418Y-17426164D01*
X12659942Y-17445211D01*
X12669466Y-17483307D01*
X12669466Y-17530926D01*
X12659942Y-17569021D01*
X12650418Y-17588069D01*
X12640894Y-17597592D01*
X12621847Y-17607116D01*
X12602799Y-17607116D01*
X12583751Y-17597592D01*
X12574228Y-17588069D01*
X12564704Y-17569021D01*
X12555180Y-17530926D01*
X12555180Y-17483307D01*
X12564704Y-17445211D01*
X12574228Y-17426164D01*
X12583751Y-17416640D01*
X12602799Y-17407116D01*
X12745656Y-17407116D02*
X12745656Y-17445211D01*
X12821847Y-17407116D02*
X12821847Y-17445211D01*
X13117085Y-17683307D02*
X13107561Y-17673783D01*
X13088513Y-17645211D01*
X13078989Y-17626164D01*
X13069466Y-17597592D01*
X13059942Y-17549973D01*
X13059942Y-17511878D01*
X13069466Y-17464259D01*
X13078989Y-17435688D01*
X13088513Y-17416640D01*
X13107561Y-17388069D01*
X13117085Y-17378545D01*
X13231370Y-17407116D02*
X13250418Y-17407116D01*
X13269466Y-17416640D01*
X13278989Y-17426164D01*
X13288513Y-17445211D01*
X13298037Y-17483307D01*
X13298037Y-17530926D01*
X13288513Y-17569021D01*
X13278989Y-17588069D01*
X13269466Y-17597592D01*
X13250418Y-17607116D01*
X13231370Y-17607116D01*
X13212323Y-17597592D01*
X13202799Y-17588069D01*
X13193275Y-17569021D01*
X13183751Y-17530926D01*
X13183751Y-17483307D01*
X13193275Y-17445211D01*
X13202799Y-17426164D01*
X13212323Y-17416640D01*
X13231370Y-17407116D01*
X13536132Y-17607116D02*
X13536132Y-17407116D01*
X13621847Y-17607116D02*
X13621847Y-17502354D01*
X13612323Y-17483307D01*
X13593275Y-17473783D01*
X13564704Y-17473783D01*
X13545656Y-17483307D01*
X13536132Y-17492830D01*
X13745656Y-17607116D02*
X13726608Y-17597592D01*
X13717085Y-17588069D01*
X13707561Y-17569021D01*
X13707561Y-17511878D01*
X13717085Y-17492830D01*
X13726608Y-17483307D01*
X13745656Y-17473783D01*
X13774228Y-17473783D01*
X13793275Y-17483307D01*
X13802799Y-17492830D01*
X13812323Y-17511878D01*
X13812323Y-17569021D01*
X13802799Y-17588069D01*
X13793275Y-17597592D01*
X13774228Y-17607116D01*
X13745656Y-17607116D01*
X13926608Y-17607116D02*
X13907561Y-17597592D01*
X13898037Y-17578545D01*
X13898037Y-17407116D01*
X14078989Y-17597592D02*
X14059942Y-17607116D01*
X14021847Y-17607116D01*
X14002799Y-17597592D01*
X13993275Y-17578545D01*
X13993275Y-17502354D01*
X14002799Y-17483307D01*
X14021847Y-17473783D01*
X14059942Y-17473783D01*
X14078989Y-17483307D01*
X14088513Y-17502354D01*
X14088513Y-17521402D01*
X13993275Y-17540450D01*
X14164704Y-17597592D02*
X14183751Y-17607116D01*
X14221847Y-17607116D01*
X14240894Y-17597592D01*
X14250418Y-17578545D01*
X14250418Y-17569021D01*
X14240894Y-17549973D01*
X14221847Y-17540450D01*
X14193275Y-17540450D01*
X14174228Y-17530926D01*
X14164704Y-17511878D01*
X14164704Y-17502354D01*
X14174228Y-17483307D01*
X14193275Y-17473783D01*
X14221847Y-17473783D01*
X14240894Y-17483307D01*
X14488513Y-17530926D02*
X14640894Y-17530926D01*
X14564704Y-17607116D02*
X14564704Y-17454735D01*
X14898037Y-17607116D02*
X14936132Y-17607116D01*
X14955180Y-17597592D01*
X14964704Y-17588069D01*
X14983751Y-17559497D01*
X14993275Y-17521402D01*
X14993275Y-17445211D01*
X14983751Y-17426164D01*
X14974228Y-17416640D01*
X14955180Y-17407116D01*
X14917085Y-17407116D01*
X14898037Y-17416640D01*
X14888513Y-17426164D01*
X14878989Y-17445211D01*
X14878989Y-17492830D01*
X14888513Y-17511878D01*
X14898037Y-17521402D01*
X14917085Y-17530926D01*
X14955180Y-17530926D01*
X14974228Y-17521402D01*
X14983751Y-17511878D01*
X14993275Y-17492830D01*
X15221847Y-17597592D02*
X15240894Y-17607116D01*
X15278989Y-17607116D01*
X15298037Y-17597592D01*
X15307561Y-17578545D01*
X15307561Y-17569021D01*
X15298037Y-17549973D01*
X15278989Y-17540450D01*
X15250418Y-17540450D01*
X15231370Y-17530926D01*
X15221847Y-17511878D01*
X15221847Y-17502354D01*
X15231370Y-17483307D01*
X15250418Y-17473783D01*
X15278989Y-17473783D01*
X15298037Y-17483307D01*
X15421847Y-17607116D02*
X15402799Y-17597592D01*
X15393275Y-17578545D01*
X15393275Y-17407116D01*
X15526608Y-17607116D02*
X15507561Y-17597592D01*
X15498037Y-17588069D01*
X15488513Y-17569021D01*
X15488513Y-17511878D01*
X15498037Y-17492830D01*
X15507561Y-17483307D01*
X15526608Y-17473783D01*
X15555180Y-17473783D01*
X15574228Y-17483307D01*
X15583751Y-17492830D01*
X15593275Y-17511878D01*
X15593275Y-17569021D01*
X15583751Y-17588069D01*
X15574228Y-17597592D01*
X15555180Y-17607116D01*
X15526608Y-17607116D01*
X15650418Y-17473783D02*
X15726608Y-17473783D01*
X15678989Y-17407116D02*
X15678989Y-17578545D01*
X15688513Y-17597592D01*
X15707561Y-17607116D01*
X15726608Y-17607116D01*
X15783751Y-17597592D02*
X15802799Y-17607116D01*
X15840894Y-17607116D01*
X15859942Y-17597592D01*
X15869466Y-17578545D01*
X15869466Y-17569021D01*
X15859942Y-17549973D01*
X15840894Y-17540450D01*
X15812323Y-17540450D01*
X15793275Y-17530926D01*
X15783751Y-17511878D01*
X15783751Y-17502354D01*
X15793275Y-17483307D01*
X15812323Y-17473783D01*
X15840894Y-17473783D01*
X15859942Y-17483307D01*
X15936132Y-17683307D02*
X15945656Y-17673783D01*
X15964704Y-17645211D01*
X15974228Y-17626164D01*
X15983751Y-17597592D01*
X15993275Y-17549973D01*
X15993275Y-17511878D01*
X15983751Y-17464259D01*
X15974228Y-17435688D01*
X15964704Y-17416640D01*
X15945656Y-17388069D01*
X15936132Y-17378545D01*
M02*
