M48
; DRILL file {KiCad (6.0.9)} date Mon Nov 21 11:05:07 2022
; FORMAT={-:-/ absolute / metric / decimal}
; #@! TF.CreationDate,2022-11-21T11:05:07+01:00
; #@! TF.GenerationSoftware,Kicad,Pcbnew,(6.0.9)
; #@! TF.FileFunction,Plated,1,2,PTH
FMAT,2
METRIC
; #@! TA.AperFunction,Plated,PTH,ViaDrill
T1C0.400
; #@! TA.AperFunction,Plated,PTH,ComponentDrill
T2C0.700
; #@! TA.AperFunction,Plated,PTH,ComponentDrill
T3C0.750
; #@! TA.AperFunction,Plated,PTH,ComponentDrill
T4C0.800
; #@! TA.AperFunction,Plated,PTH,ComponentDrill
T5C1.000
; #@! TA.AperFunction,Plated,PTH,ComponentDrill
T6C1.200
; #@! TA.AperFunction,Plated,PTH,ComponentDrill
T7C1.270
%
G90
G05
T1
X104.75Y-103.683
X107.239Y-109.271
X109.22Y-88.9
X110.338Y-116.281
X139.7Y-115.316
T2
X118.872Y-89.916
T3
X124.46Y-129.032
X126.46Y-129.032
X143.796Y-83.312
X145.796Y-83.312
T4
X102.87Y-90.78
X105.37Y-90.78
X109.728Y-101.092
X109.728Y-106.092
X111.125Y-111.125
X111.125Y-121.285
X113.792Y-87.924
X113.792Y-92.924
X114.3Y-98.425
X114.3Y-108.585
X114.3Y-111.125
X114.3Y-121.285
X117.475Y-98.425
X117.475Y-108.585
X117.475Y-111.125
X117.475Y-121.285
X121.295Y-102.88
X121.295Y-105.42
X121.295Y-107.96
X121.295Y-110.5
X122.428Y-121.92
X122.468Y-117.856
X122.936Y-94.996
X123.19Y-87.579
X125.73Y-87.579
X127.428Y-121.92
X127.468Y-117.856
X127.936Y-94.996
X128.27Y-87.579
X128.915Y-102.88
X128.915Y-105.42
X128.915Y-107.96
X128.915Y-110.5
X130.342Y-129.413
X134.62Y-97.79
X134.62Y-107.95
X134.62Y-111.125
X134.62Y-121.285
X135.342Y-129.413
X137.795Y-98.425
X137.795Y-106.045
X138.176Y-111.125
X138.176Y-121.285
X141.732Y-111.125
X141.732Y-121.285
X142.24Y-101.172
X142.24Y-106.172
X144.932Y-90.932
X146.812Y-65.532
X146.812Y-75.692
X147.432Y-90.932
T5
X101.397Y-107.188
X101.397Y-109.728
X101.397Y-112.268
X101.397Y-114.808
X101.397Y-117.348
X101.397Y-119.888
X101.397Y-122.428
T6
X106.934Y-129.54
X119.634Y-129.54
T4
X104.71Y-147.549G85X107.679Y-150.519
G05
X107.603Y-138.086G85X113.803Y-138.086
G05
X117.225Y-148.18G85X117.225Y-141.98
G05
X133.143Y-147.667G85X133.143Y-141.467
G05
X143.237Y-138.045G85X137.037Y-138.045
G05
X142.606Y-150.56G85X145.575Y-147.591
G05
T7
X121.294Y-64.723G85X121.294Y-65.993
G05
X121.294Y-69.722G85X121.294Y-70.992
G05
X121.295Y-74.823G85X121.295Y-76.093
G05
X125.996Y-64.723G85X125.996Y-65.993
G05
X125.996Y-69.722G85X125.996Y-70.992
G05
X125.997Y-74.823G85X125.997Y-76.093
G05
X130.694Y-64.723G85X130.694Y-65.993
G05
X130.694Y-69.722G85X130.694Y-70.992
G05
X130.695Y-74.823G85X130.695Y-76.093
G05
T0
M30
