<?xml version="1.0" standalone="no"?>
 <!DOCTYPE svg PUBLIC "-//W3C//DTD SVG 1.1//EN" 
 "http://www.w3.org/Graphics/SVG/1.1/DTD/svg11.dtd"> 
<svg
  xmlns:svg="http://www.w3.org/2000/svg"
  xmlns="http://www.w3.org/2000/svg"
  xmlns:xlink="http://www.w3.org/1999/xlink"
  version="1.1"
  width="29.700220cm" height="21.000720cm" viewBox="0 0 297002200 210007200">
<title>SVG Picture created as IO Board-F_Silkscreen.svg date 2022/11/17 11:57:19 </title>
  <desc>Picture generated by PCBNEW </desc>
<g style="fill:#000000; fill-opacity:1.000000;stroke:#000000; stroke-opacity:1.000000;
stroke-linecap:round; stroke-linejoin:round;"
 transform="translate(0 0) scale(1 1)">
</g>
<g style="fill:#000000; fill-opacity:0.0; 
stroke:#000000; stroke-width:0.000000; stroke-opacity:1; 
stroke-linecap:round; stroke-linejoin:round;">
</g>
<g style="fill:#000000; fill-opacity:0.0; 
stroke:#000000; stroke-width:300000.000000; stroke-opacity:1; 
stroke-linecap:round; stroke-linejoin:round;">
<text x="139242800.000000" y="112154400.000000"
textLength="18902857.000000" font-size="2000000.000000" lengthAdjust="spacingAndGlyphs"
text-anchor="middle" opacity="0">Dohle Ray v3.0a</text>
<g class="stroked-text"><desc>Dohle Ray v3.0a</desc>
<path d="M130278514 112082971
L130278514 110582971
L130635657 110582971
L130849942 110654400
L130992800 110797257
L131064228 110940114
L131135657 111225828
L131135657 111440114
L131064228 111725828
L130992800 111868685
L130849942 112011542
L130635657 112082971
L130278514 112082971
" />
<path d="M131992800 112082971
L131849942 112011542
L131778514 111940114
L131707085 111797257
L131707085 111368685
L131778514 111225828
L131849942 111154400
L131992800 111082971
L132207085 111082971
L132349942 111154400
L132421371 111225828
L132492800 111368685
L132492800 111797257
L132421371 111940114
L132349942 112011542
L132207085 112082971
L131992800 112082971
" />
<path d="M133135657 112082971
L133135657 110582971
" />
<path d="M133778514 112082971
L133778514 111297257
L133707085 111154400
L133564228 111082971
L133349942 111082971
L133207085 111154400
L133135657 111225828
" />
<path d="M134707085 112082971
L134564228 112011542
L134492800 111868685
L134492800 110582971
" />
<path d="M135849942 112011542
L135707085 112082971
L135421371 112082971
L135278514 112011542
L135207085 111868685
L135207085 111297257
L135278514 111154400
L135421371 111082971
L135707085 111082971
L135849942 111154400
L135921371 111297257
L135921371 111440114
L135207085 111582971
" />
<path d="M138564228 112082971
L138064228 111368685
" />
<path d="M137707085 112082971
L137707085 110582971
L138278514 110582971
L138421371 110654400
L138492800 110725828
L138564228 110868685
L138564228 111082971
L138492800 111225828
L138421371 111297257
L138278514 111368685
L137707085 111368685
" />
<path d="M139849942 112082971
L139849942 111297257
L139778514 111154400
L139635657 111082971
L139349942 111082971
L139207085 111154400
" />
<path d="M139849942 112011542
L139707085 112082971
L139349942 112082971
L139207085 112011542
L139135657 111868685
L139135657 111725828
L139207085 111582971
L139349942 111511542
L139707085 111511542
L139849942 111440114
" />
<path d="M140421371 111082971
L140778514 112082971
" />
<path d="M141135657 111082971
L140778514 112082971
L140635657 112440114
L140564228 112511542
L140421371 112582971
" />
<path d="M142707085 111082971
L143064228 112082971
L143421371 111082971
" />
<path d="M143849942 110582971
L144778514 110582971
L144278514 111154400
L144492800 111154400
L144635657 111225828
L144707085 111297257
L144778514 111440114
L144778514 111797257
L144707085 111940114
L144635657 112011542
L144492800 112082971
L144064228 112082971
L143921371 112011542
L143849942 111940114
" />
<path d="M145421371 111940114
L145492800 112011542
L145421371 112082971
L145349942 112011542
L145421371 111940114
L145421371 112082971
" />
<path d="M146421371 110582971
L146564228 110582971
L146707085 110654400
L146778514 110725828
L146849942 110868685
L146921371 111154400
L146921371 111511542
L146849942 111797257
L146778514 111940114
L146707085 112011542
L146564228 112082971
L146421371 112082971
L146278514 112011542
L146207085 111940114
L146135657 111797257
L146064228 111511542
L146064228 111154400
L146135657 110868685
L146207085 110725828
L146278514 110654400
L146421371 110582971
" />
<path d="M148207085 112082971
L148207085 111297257
L148135657 111154400
L147992800 111082971
L147707085 111082971
L147564228 111154400
" />
<path d="M148207085 112011542
L148064228 112082971
L147707085 112082971
L147564228 112011542
L147492800 111868685
L147492800 111725828
L147564228 111582971
L147707085 111511542
L148064228 111511542
L148207085 111440114
" />
</g></g>
<g style="fill:#000000; fill-opacity:0.0; 
stroke:#000000; stroke-width:150000.000000; stroke-opacity:1; 
stroke-linecap:round; stroke-linejoin:round;">
<text x="153890636.000000" y="136987716.000000"
textLength="3199524.000000" font-size="1333333.000000" lengthAdjust="spacingAndGlyphs"
text-anchor="middle" opacity="0">RV1</text>
<g class="stroked-text"><desc>RV1</desc>
<path d="M153295397 136940096
L152962064 136463906
" />
<path d="M152723969 136940096
L152723969 135940096
L153104921 135940096
L153200159 135987716
L153247778 136035335
L153295397 136130573
L153295397 136273430
L153247778 136368668
L153200159 136416287
L153104921 136463906
L152723969 136463906
" />
<path d="M153581112 135940096
L153914445 136940096
L154247778 135940096
" />
<path d="M155104921 136940096
L154533493 136940096
" />
<path d="M154819207 136940096
L154819207 135940096
L154723969 136082954
L154628731 136178192
L154533493 136225811
" />
</g><text x="124194806.000000" y="137016347.000000"
textLength="3004524.000000" font-size="1333333.000000" lengthAdjust="spacingAndGlyphs"
text-anchor="middle" opacity="0">RV2</text>
<g class="stroked-text"><desc>RV2</desc>
<path d="M123599567 136968727
L123266234 136492537
" />
<path d="M123028139 136968727
L123028139 135968727
L123409091 135968727
L123504329 136016347
L123551948 136063966
L123599567 136159204
L123599567 136302061
L123551948 136397299
L123504329 136444918
L123409091 136492537
L123028139 136492537
" />
<path d="M123885282 135968727
L124218615 136968727
L124551948 135968727
" />
<path d="M124837663 136063966
L124885282 136016347
L124980520 135968727
L125218615 135968727
L125313853 136016347
L125361472 136063966
L125409091 136159204
L125409091 136254442
L125361472 136397299
L124790044 136968727
L125409091 136968727
" />
</g><g transform="rotate(-90.000000 144322800.000000 103632000.000000)">
<text x="144322800.000000" y="104132000.000000"
textLength="3242619.000000" font-size="1333333.000000" lengthAdjust="spacingAndGlyphs"
text-anchor="middle" opacity="0">SW1</text>
</g>
<g class="stroked-text"><desc>SW1</desc>
<path d="M144727561 104965333
L144775180 104822476
L144775180 104584380
L144727561 104489142
L144679942 104441523
L144584704 104393904
L144489466 104393904
L144394228 104441523
L144346609 104489142
L144298990 104584380
L144251371 104774857
L144203752 104870095
L144156133 104917714
L144060895 104965333
L143965657 104965333
L143870419 104917714
L143822800 104870095
L143775180 104774857
L143775180 104536761
L143822800 104393904
" />
<path d="M143775180 104060571
L144775180 103822476
L144060895 103632000
L144775180 103441523
L143775180 103203428
" />
<path d="M144775180 102298666
L144775180 102870095
" />
<path d="M144775180 102584380
L143775180 102584380
L143918038 102679619
L144013276 102774857
L144060895 102870095
" />
</g></g>
<g style="fill:#000000; fill-opacity:0.0; 
stroke:#000000; stroke-width:200000.000000; stroke-opacity:1; 
stroke-linecap:round; stroke-linejoin:round;">
<path d="M160650154 114682457
L161289157 114289806
" />
<path d="M159847118 129489848
L159847118 130139848
" />
<path d="M159947118 130239848
L160147118 130239848
" />
<path d="M158247118 129489848
L159847118 129489848
" />
<path d="M153247118 129489848
L154847118 129489848
" />
<path d="M146805080 114289806
L147444083 114682457
" />
<path d="M154847118 129489848
L154847118 130139848
" />
<path d="M146005588 121493716
L146715135 121250728
" />
<path d="M154847118 129489848
L154847118 130139848
" />
<path d="M161647118 128739848
L161647118 123409848
" />
<path d="M149847118 129489848
L149847118 130139848
" />
<path d="M147307118 134239848
L147868678 134242577
" />
<path d="M158247118 130929848
L158247118 129989848
" />
<path d="M148247118 130139848
L148247118 129489848
" />
<path d="M150787118 134239848
L150787118 134159300
" />
<path d="M159547118 131229848
L158547118 131229848
" />
<path d="M149547118 131229848
L148547118 131229848
" />
<path d="M161647118 123409848
L160650154 122797240
" />
<path d="M159947118 130239848
L160147118 130239848
" />
<path d="M160787118 134239848
L160787118 130096462
" />
<path d="M153247118 129489848
L154847118 129489848
" />
<path d="M150787118 134159300
L150787118 130239848
" />
<path d="M160787118 134239848
L160214272 134242577
" />
<path d="M153247118 130929848
L153247118 129989848
" />
<path d="M147307118 134239848
L147307118 130096462
" />
<path d="M158247118 130139848
L158247118 129489848
" />
<path d="M147444083 122797240
L146447118 123409848
" />
<path d="M155787118 134239848
L155787118 130239848
" />
<path d="M148247118 129989848
L148247118 129489848
" />
<path d="M148247118 129489848
L149847118 129489848
" />
<path d="M146447118 123409848
L146447118 128739848
" />
<path d="M160650154 114682457
L161289157 114289806
" />
<path d="M159847118 129989848
L159847118 130929848
" />
<path d="M154847118 129989848
L154847118 130929848
" />
<path d="M154547118 131229848
L153547118 131229848
" />
<path d="M152307118 134239848
L152307118 130239848
" />
<path d="M146715135 116228968
L146005588 115985980
" />
<path d="M158247118 129489848
L159847118 129489848
" />
<path d="M146447118 123409848
L146447118 128739848
" />
<path d="M154847118 129489848
L154847118 129989848
" />
<path d="M155787118 134239848
L155243308 134242577
" />
<path d="M150787118 134239848
L150221563 134242577
" />
<path d="M149947118 130239848
L153147118 130239848
" />
<path d="M152307118 134239848
L152867854 134242577
" />
<path d="M153247118 130139848
L153247118 129489848
" />
<path d="M154947118 130239848
L158147118 130239848
" />
<path d="M148247118 129489848
L149847118 129489848
" />
<path d="M148247118 130929848
L148247118 129989848
" />
<path d="M158247118 130139848
L158247118 129489848
" />
<path d="M146005588 121493716
L146715135 121250728
" />
<path d="M147947118 130239848
L148147118 130239848
" />
<path d="M148247118 130139848
L148247118 129489848
" />
<path d="M157307118 134239848
L157307118 130239848
" />
<path d="M159847118 129489848
L159847118 129989848
" />
<path d="M161379102 121250728
L162088649 121493716
" />
<path d="M148247118 129489848
L149847118 129489848
" />
<path d="M158247118 129989848
L158247118 129489848
" />
<path d="M161379102 121250728
L162088649 121493716
" />
<path d="M146805080 114289806
L147444083 114682457
" />
<path d="M158247118 129489848
L159847118 129489848
" />
<path d="M149847118 129489848
L149847118 129989848
" />
<path d="M154947118 130239848
L158147118 130239848
" />
<path d="M149847118 129489848
L149847118 130139848
" />
<path d="M161647118 123409848
L160650154 122797240
" />
<path d="M153247118 129489848
L154847118 129489848
" />
<path d="M157307118 134239848
L157867029 134242577
" />
<path d="M149947118 130239848
L153147118 130239848
" />
<path d="M162088649 115985980
L161379102 116228968
" />
<path d="M147444083 122797240
L146447118 123409848
" />
<path d="M146715135 116228968
L146005588 115985980
" />
<path d="M153247118 129989848
L153247118 129489848
" />
<path d="M161647118 128739848
L161647118 123409848
" />
<path d="M153247118 130139848
L153247118 129489848
" />
<path d="M149847118 129989848
L149847118 130929848
" />
<path d="M147947118 130239848
L148147118 130239848
" />
<path d="M159847118 129489848
L159847118 130139848
" />
<path d="M162088649 115985980
L161379102 116228968
" />
<path d="M149547118.000000 131229848.000000 A300000.000000 300000.000000 0.0 0 0 149847118.000000 130929848.000000" />
<path d="M149847118.000020 130139848.000000 A100002.000000 100002.000000 0.0 0 0 149947118.000000 130239847.999980" />
<path d="M154847118.000020 130139848.000000 A100002.000000 100002.000000 0.0 0 0 154947118.000000 130239847.999980" />
<path d="M160650153.667341 122797239.795590 A7749951.000000 7749951.000000 0.0 0 0 161379101.601086 121250727.863390" />
<path d="M146005588.006728 115985980.002304 A8499993.000000 8499993.000000 0.0 0 0 146005588.006728 121493715.997696" />
<path d="M153147118.000000 130239847.999995 A99999.000000 99999.000000 0.0 0 0 153247117.999995 130139848.000000" />
<path d="M147444082.823204 114682456.891363 A7749978.000000 7749978.000000 0.0 0 0 146715134.732143 116228967.908271" />
<path d="M154847118.000020 130139848.000000 A100002.000000 100002.000000 0.0 0 0 154947118.000000 130239847.999980" />
<path d="M162088649.016747 121493716.005735 A8500011.000000 8500011.000000 0.0 0 0 162088649.016747 115985979.994265" />
<path d="M158147118.000000 130239847.999995 A99999.000000 99999.000000 0.0 0 0 158247117.999995 130139848.000000" />
<path d="M146447118.000000 128739848.000000 A1500001.000000 1500001.000000 0.0 0 0 147947118.000000 130239848.000000" />
<path d="M161289156.459769 114289806.331958 A8499999.000000 8499999.000000 0.0 0 0 146805079.814319 114289805.885904" />
<path d="M161379102.267857 116228967.908271 A7749978.000000 7749978.000000 0.0 0 0 160650154.176796 114682456.891363" />
<path d="M146005588.006728 115985980.002304 A8499993.000000 8499993.000000 0.0 0 0 146005588.006728 121493715.997696" />
<path d="M158247118.000000 130929848.000000 A300000.000000 300000.000000 0.0 0 0 158547118.000000 131229848.000000" />
<path d="M159847118.000020 130139848.000000 A100002.000000 100002.000000 0.0 0 0 159947118.000000 130239847.999980" />
<path d="M148147118.000000 130239847.999995 A99999.000000 99999.000000 0.0 0 0 148247117.999995 130139848.000000" />
<path d="M146715135.398914 121250727.863390 A7749951.000000 7749951.000000 0.0 0 0 147444083.332659 122797239.795590" />
<path d="M148247118.000000 130929848.000000 A300000.000000 300000.000000 0.0 0 0 148547118.000000 131229848.000000" />
<path d="M149847118.000020 130139848.000000 A100002.000000 100002.000000 0.0 0 0 149947118.000000 130239847.999980" />
<path d="M153247118.000000 130929848.000000 A300000.000000 300000.000000 0.0 0 0 153547118.000000 131229848.000000" />
<path d="M159547118.000000 131229848.000000 A300000.000000 300000.000000 0.0 0 0 159847118.000000 130929848.000000" />
<path d="M147444082.823204 114682456.891363 A7749978.000000 7749978.000000 0.0 0 0 146715134.732143 116228967.908271" />
<path d="M160650153.667341 122797239.795590 A7749951.000000 7749951.000000 0.0 0 0 161379101.601086 121250727.863390" />
<path d="M159847118.000020 130139848.000000 A100002.000000 100002.000000 0.0 0 0 159947118.000000 130239847.999980" />
<path d="M162088649.016747 121493716.005735 A8500011.000000 8500011.000000 0.0 0 0 162088649.016747 115985979.994265" />
<path d="M160147118.000000 130239848.000000 A1500001.000000 1500001.000000 0.0 0 0 161647118.000000 128739848.000000" />
<path d="M146715135.398914 121250727.863390 A7749951.000000 7749951.000000 0.0 0 0 147444083.332659 122797239.795590" />
<path d="M153147118.000000 130239847.999995 A99999.000000 99999.000000 0.0 0 0 153247117.999995 130139848.000000" />
<path d="M158147118.000000 130239847.999995 A99999.000000 99999.000000 0.0 0 0 158247117.999995 130139848.000000" />
<path d="M154547118.000000 131229848.000000 A300000.000000 300000.000000 0.0 0 0 154847118.000000 130929848.000000" />
<path d="M160147118.000000 130239848.000000 A1500001.000000 1500001.000000 0.0 0 0 161647118.000000 128739848.000000" />
<path d="M161289156.459769 114289806.331958 A8499999.000000 8499999.000000 0.0 0 0 146805079.814319 114289805.885904" />
<path d="M146447118.000000 128739848.000000 A1500001.000000 1500001.000000 0.0 0 0 147947118.000000 130239848.000000" />
<path d="M148147118.000000 130239847.999995 A99999.000000 99999.000000 0.0 0 0 148247117.999995 130139848.000000" />
<circle cx="154047118.000000" cy="118739848.000000" r="3500000.000000" /> 
<circle cx="154047118.000000" cy="118739848.000000" r="8500000.000000" /> 
<path d="M117611288 134268479
L117611288 130125093
" />
<path d="M128551288 129518479
L130151288 129518479
" />
<path d="M118551288 130958479
L118551288 130018479
" />
<path d="M128551288 130018479
L128551288 129518479
" />
<path d="M121091288 134268479
L120525733 134271208
" />
<path d="M131683272 121279359
L132392819 121522347
" />
<path d="M120251288 130268479
L123451288 130268479
" />
<path d="M117019305 116257599
L116309758 116014611
" />
<path d="M131091288 134268479
L131091288 130125093
" />
<path d="M130251288 130268479
L130451288 130268479
" />
<path d="M130151288 129518479
L130151288 130168479
" />
<path d="M125251288 130268479
L128451288 130268479
" />
<path d="M131951288 128768479
L131951288 123438479
" />
<path d="M118251288 130268479
L118451288 130268479
" />
<path d="M118551288 129518479
L120151288 129518479
" />
<path d="M122611288 134268479
L123172024 134271208
" />
<path d="M118551288 130018479
L118551288 129518479
" />
<path d="M129851288 131258479
L128851288 131258479
" />
<path d="M130954324 114711088
L131593327 114318437
" />
<path d="M120151288 129518479
L120151288 130168479
" />
<path d="M131951288 128768479
L131951288 123438479
" />
<path d="M132392819 116014611
L131683272 116257599
" />
<path d="M123551288 130958479
L123551288 130018479
" />
<path d="M120251288 130268479
L123451288 130268479
" />
<path d="M130151288 129518479
L130151288 130168479
" />
<path d="M126091288 134268479
L125547478 134271208
" />
<path d="M128551288 129518479
L130151288 129518479
" />
<path d="M128551288 129518479
L130151288 129518479
" />
<path d="M117611288 134268479
L118172848 134271208
" />
<path d="M118551288 129518479
L120151288 129518479
" />
<path d="M116309758 121522347
L117019305 121279359
" />
<path d="M119851288 131258479
L118851288 131258479
" />
<path d="M125151288 129518479
L125151288 130018479
" />
<path d="M131951288 123438479
L130954324 122825871
" />
<path d="M123551288 130018479
L123551288 129518479
" />
<path d="M128551288 130958479
L128551288 130018479
" />
<path d="M125151288 129518479
L125151288 130168479
" />
<path d="M130954324 114711088
L131593327 114318437
" />
<path d="M130151288 129518479
L130151288 130018479
" />
<path d="M123551288 130168479
L123551288 129518479
" />
<path d="M130151288 130018479
L130151288 130958479
" />
<path d="M120151288 129518479
L120151288 130168479
" />
<path d="M116751288 123438479
L116751288 128768479
" />
<path d="M120151288 130018479
L120151288 130958479
" />
<path d="M126091288 134268479
L126091288 130268479
" />
<path d="M116751288 123438479
L116751288 128768479
" />
<path d="M118251288 130268479
L118451288 130268479
" />
<path d="M117109250 114318437
L117748253 114711088
" />
<path d="M123551288 129518479
L125151288 129518479
" />
<path d="M121091288 134187931
L121091288 130268479
" />
<path d="M123551288 129518479
L125151288 129518479
" />
<path d="M122611288 134268479
L122611288 130268479
" />
<path d="M123551288 130168479
L123551288 129518479
" />
<path d="M125151288 129518479
L125151288 130168479
" />
<path d="M125151288 130018479
L125151288 130958479
" />
<path d="M118551288 129518479
L120151288 129518479
" />
<path d="M128551288 130168479
L128551288 129518479
" />
<path d="M117748253 122825871
L116751288 123438479
" />
<path d="M118551288 130168479
L118551288 129518479
" />
<path d="M127611288 134268479
L128171199 134271208
" />
<path d="M130251288 130268479
L130451288 130268479
" />
<path d="M127611288 134268479
L127611288 130268479
" />
<path d="M116309758 121522347
L117019305 121279359
" />
<path d="M117748253 122825871
L116751288 123438479
" />
<path d="M124851288 131258479
L123851288 131258479
" />
<path d="M117019305 116257599
L116309758 116014611
" />
<path d="M123551288 129518479
L125151288 129518479
" />
<path d="M131683272 121279359
L132392819 121522347
" />
<path d="M117109250 114318437
L117748253 114711088
" />
<path d="M125251288 130268479
L128451288 130268479
" />
<path d="M120151288 129518479
L120151288 130018479
" />
<path d="M128551288 130168479
L128551288 129518479
" />
<path d="M132392819 116014611
L131683272 116257599
" />
<path d="M118551288 130168479
L118551288 129518479
" />
<path d="M121091288 134268479
L121091288 134187931
" />
<path d="M131091288 134268479
L130518442 134271208
" />
<path d="M131951288 123438479
L130954324 122825871
" />
<path d="M120151288.000020 130168479.000000 A100002.000000 100002.000000 0.0 0 0 120251288.000000 130268478.999980" />
<path d="M130451288.000000 130268479.000000 A1500001.000000 1500001.000000 0.0 0 0 131951288.000000 128768479.000000" />
<path d="M131683272.267857 116257598.908271 A7749978.000000 7749978.000000 0.0 0 0 130954324.176796 114711087.891363" />
<path d="M129851288.000000 131258479.000000 A300000.000000 300000.000000 0.0 0 0 130151288.000000 130958479.000000" />
<path d="M125151288.000020 130168479.000000 A100002.000000 100002.000000 0.0 0 0 125251288.000000 130268478.999980" />
<path d="M118451288.000000 130268478.999995 A99999.000000 99999.000000 0.0 0 0 118551287.999995 130168479.000000" />
<path d="M116751288.000000 128768479.000000 A1500001.000000 1500001.000000 0.0 0 0 118251288.000000 130268479.000000" />
<path d="M117748252.823204 114711087.891363 A7749978.000000 7749978.000000 0.0 0 0 117019304.732143 116257598.908271" />
<path d="M118451288.000000 130268478.999995 A99999.000000 99999.000000 0.0 0 0 118551287.999995 130168479.000000" />
<path d="M132392819.016747 121522347.005735 A8500011.000000 8500011.000000 0.0 0 0 132392819.016747 116014610.994265" />
<path d="M117748252.823204 114711087.891363 A7749978.000000 7749978.000000 0.0 0 0 117019304.732143 116257598.908271" />
<path d="M117019305.398914 121279358.863390 A7749951.000000 7749951.000000 0.0 0 0 117748253.332659 122825870.795590" />
<path d="M119851288.000000 131258479.000000 A300000.000000 300000.000000 0.0 0 0 120151288.000000 130958479.000000" />
<path d="M128551288.000000 130958479.000000 A300000.000000 300000.000000 0.0 0 0 128851288.000000 131258479.000000" />
<path d="M130151288.000020 130168479.000000 A100002.000000 100002.000000 0.0 0 0 130251288.000000 130268478.999980" />
<path d="M130151288.000020 130168479.000000 A100002.000000 100002.000000 0.0 0 0 130251288.000000 130268478.999980" />
<path d="M132392819.016747 121522347.005735 A8500011.000000 8500011.000000 0.0 0 0 132392819.016747 116014610.994265" />
<path d="M123551288.000000 130958479.000000 A300000.000000 300000.000000 0.0 0 0 123851288.000000 131258479.000000" />
<path d="M116751288.000000 128768479.000000 A1500001.000000 1500001.000000 0.0 0 0 118251288.000000 130268479.000000" />
<path d="M120151288.000020 130168479.000000 A100002.000000 100002.000000 0.0 0 0 120251288.000000 130268478.999980" />
<path d="M116309758.006728 116014611.002304 A8499993.000000 8499993.000000 0.0 0 0 116309758.006728 121522346.997696" />
<path d="M130451288.000000 130268479.000000 A1500001.000000 1500001.000000 0.0 0 0 131951288.000000 128768479.000000" />
<path d="M116309758.006728 116014611.002304 A8499993.000000 8499993.000000 0.0 0 0 116309758.006728 121522346.997696" />
<path d="M128451288.000000 130268478.999995 A99999.000000 99999.000000 0.0 0 0 128551287.999995 130168479.000000" />
<path d="M128451288.000000 130268478.999995 A99999.000000 99999.000000 0.0 0 0 128551287.999995 130168479.000000" />
<path d="M130954323.667341 122825870.795590 A7749951.000000 7749951.000000 0.0 0 0 131683271.601086 121279358.863390" />
<path d="M131593326.459769 114318437.331958 A8499999.000000 8499999.000000 0.0 0 0 117109249.814319 114318436.885904" />
<path d="M117019305.398914 121279358.863390 A7749951.000000 7749951.000000 0.0 0 0 117748253.332659 122825870.795590" />
<path d="M125151288.000020 130168479.000000 A100002.000000 100002.000000 0.0 0 0 125251288.000000 130268478.999980" />
<path d="M124851288.000000 131258479.000000 A300000.000000 300000.000000 0.0 0 0 125151288.000000 130958479.000000" />
<path d="M123451288.000000 130268478.999995 A99999.000000 99999.000000 0.0 0 0 123551287.999995 130168479.000000" />
<path d="M123451288.000000 130268478.999995 A99999.000000 99999.000000 0.0 0 0 123551287.999995 130168479.000000" />
<path d="M130954323.667341 122825870.795590 A7749951.000000 7749951.000000 0.0 0 0 131683271.601086 121279358.863390" />
<path d="M118551288.000000 130958479.000000 A300000.000000 300000.000000 0.0 0 0 118851288.000000 131258479.000000" />
<path d="M131593326.459769 114318437.331958 A8499999.000000 8499999.000000 0.0 0 0 117109249.814319 114318436.885904" />
<circle cx="124351288.000000" cy="118768479.000000" r="8500000.000000" /> 
<circle cx="124351288.000000" cy="118768479.000000" r="3500000.000000" /> 
</g>
<g style="fill:#000000; fill-opacity:0.0; 
stroke:#000000; stroke-width:120000.000000; stroke-opacity:1; 
stroke-linecap:round; stroke-linejoin:round;">
<path d="M135209679 97155040
L143209679 97155040
" />
<path d="M143209679 97155040
L143209679 110155040
" />
<path d="M143209679 110155040
L135209679 110155040
" />
<path d="M135209679 110155040
L135209679 97155040
" />
<circle cx="139209679.000000" cy="103655040.000000" r="3000000.000000" /> 
<g >
</g>
<g >
</g>
<g >
</g>
<g >
</g>
<g >
</g>
<g >
</g>
<g >
</g>
<g >
</g>
</g> 
</svg>
