  0
SECTION
  2
HEADER
  9
$ANGBASE
  50
0.0
  9
$ANGDIR
  70
1
  9
$MEASUREMENT
  70
1
  0
ENDSEC
  0
SECTION
  2
TABLES
  0
TABLE
  2
LTYPE
  70
4
  0
LTYPE
  5
40F
  2
CONTINUOUS
  70
0
  3
Solid line
  72
65
  73
0
  40
0.0
  0
LTYPE
  5
410
  2
DASHDOT
 70
0
  3
Dash Dot ____ _ ____ _
 72
65
 73
4
 40
2.0
 49
1.25
 49
-0.25
 49
0.25
 49
-0.25
  0
LTYPE
  5
411
  2
DASHED
 70
0
  3
Dashed __ __ __ __ __
 72
65
 73
2
 40
0.75
 49
0.5
 49
-0.25
  0
LTYPE
  5
43B
  2
DOTTED
 70
0
  3
Dotted .  .  .  .
 72
65
 73
2
 40
0.2
 49
0.0
 49
-0.2
  0
ENDTAB
  0
TABLE
  2
STYLE
  70
4
  0
STYLE
  2
KICAD
  70
0
  40
0
  41
1
  42
1
  50
0
  71
0
  3
isocp.shx
  0
STYLE
  2
KICADB
  70
0
  40
0
  41
1
  42
1
  50
0
  71
0
  3
isocp.shx
  0
STYLE
  2
KICADI
  70
0
  40
0
  41
1
  42
1
  50
15
  71
0
  3
isocp.shx
  0
STYLE
  2
KICADBI
  70
0
  40
0
  41
1
  42
1
  50
15
  71
0
  3
isocp.shx
  0
ENDTAB
  0
TABLE
  2
LAYER
  70
1
  0
LAYER
  2
BLACK
  70
0
  62
7
  6
CONTINUOUS
  0
ENDTAB
  0
ENDSEC
  0
SECTION
  2
ENTITIES
0
LINE
8
BLACK
6
CONTINUOUS
10
163.408
20
-127.159
11
163.426
21
-127.208
0
LINE
8
BLACK
6
CONTINUOUS
10
163.426
20
-127.208
11
163.426
21
-127.91
0
LINE
8
BLACK
6
CONTINUOUS
10
163.426
20
-127.91
11
163.464
21
-128.024
0
LINE
8
BLACK
6
CONTINUOUS
10
163.464
20
-128.024
11
163.534
21
-128.094
0
LINE
8
BLACK
6
CONTINUOUS
10
163.534
20
-128.094
11
163.648
21
-128.133
0
LINE
8
BLACK
6
CONTINUOUS
10
163.648
20
-128.133
11
163.731
21
-128.133
0
LINE
8
BLACK
6
CONTINUOUS
10
163.731
20
-128.133
11
163.757
21
-128.137
0
LINE
8
BLACK
6
CONTINUOUS
10
163.757
20
-128.137
11
163.796
21
-128.17
0
LINE
8
BLACK
6
CONTINUOUS
10
163.796
20
-128.17
11
163.805
21
-128.221
0
LINE
8
BLACK
6
CONTINUOUS
10
163.805
20
-128.221
11
163.78
21
-128.265
0
LINE
8
BLACK
6
CONTINUOUS
10
163.78
20
-128.265
11
163.731
21
-128.283
0
LINE
8
BLACK
6
CONTINUOUS
10
163.731
20
-128.283
11
163.636
21
-128.283
0
LINE
8
BLACK
6
CONTINUOUS
10
163.636
20
-128.283
11
163.614
21
-128.279
0
LINE
8
BLACK
6
CONTINUOUS
10
163.614
20
-128.279
11
163.613
21
-128.279
0
LINE
8
BLACK
6
CONTINUOUS
10
163.613
20
-128.279
11
163.47
21
-128.231
0
LINE
8
BLACK
6
CONTINUOUS
10
163.47
20
-128.231
11
163.447
21
-128.219
0
LINE
8
BLACK
6
CONTINUOUS
10
163.447
20
-128.219
11
163.444
21
-128.215
0
LINE
8
BLACK
6
CONTINUOUS
10
163.444
20
-128.215
11
163.44
21
-128.213
0
LINE
8
BLACK
6
CONTINUOUS
10
163.44
20
-128.213
11
163.345
21
-128.118
0
LINE
8
BLACK
6
CONTINUOUS
10
163.345
20
-128.118
11
163.33
21
-128.096
0
LINE
8
BLACK
6
CONTINUOUS
10
163.33
20
-128.096
11
163.33
21
-128.092
0
LINE
8
BLACK
6
CONTINUOUS
10
163.33
20
-128.092
11
163.327
21
-128.088
0
LINE
8
BLACK
6
CONTINUOUS
10
163.327
20
-128.088
11
163.279
21
-127.946
0
LINE
8
BLACK
6
CONTINUOUS
10
163.279
20
-127.946
11
163.276
21
-127.923
0
LINE
8
BLACK
6
CONTINUOUS
10
163.276
20
-127.923
11
163.276
21
-127.922
0
LINE
8
BLACK
6
CONTINUOUS
10
163.276
20
-127.922
11
163.276
21
-127.208
0
LINE
8
BLACK
6
CONTINUOUS
10
163.276
20
-127.208
11
163.28
21
-127.182
0
LINE
8
BLACK
6
CONTINUOUS
10
163.28
20
-127.182
11
163.313
21
-127.143
0
LINE
8
BLACK
6
CONTINUOUS
10
163.313
20
-127.143
11
163.364
21
-127.134
0
LINE
8
BLACK
6
CONTINUOUS
10
163.364
20
-127.134
11
163.408
21
-127.159
0
LINE
8
BLACK
6
CONTINUOUS
10
162.653
20
-127.136
11
162.657
21
-127.136
0
LINE
8
BLACK
6
CONTINUOUS
10
162.657
20
-127.136
11
162.675
21
-127.148
0
LINE
8
BLACK
6
CONTINUOUS
10
162.675
20
-127.148
11
162.694
21
-127.159
0
LINE
8
BLACK
6
CONTINUOUS
10
162.694
20
-127.159
11
162.695
21
-127.163
0
LINE
8
BLACK
6
CONTINUOUS
10
162.695
20
-127.163
11
162.699
21
-127.166
0
LINE
8
BLACK
6
CONTINUOUS
10
162.699
20
-127.166
11
162.79
21
-127.303
0
LINE
8
BLACK
6
CONTINUOUS
10
162.79
20
-127.303
11
162.871
21
-127.384
0
LINE
8
BLACK
6
CONTINUOUS
10
162.871
20
-127.384
11
162.956
21
-127.426
0
LINE
8
BLACK
6
CONTINUOUS
10
162.956
20
-127.426
11
162.976
21
-127.442
0
LINE
8
BLACK
6
CONTINUOUS
10
162.976
20
-127.442
11
162.997
21
-127.489
0
LINE
8
BLACK
6
CONTINUOUS
10
162.997
20
-127.489
11
162.982
21
-127.538
0
LINE
8
BLACK
6
CONTINUOUS
10
162.982
20
-127.538
11
162.939
21
-127.566
0
LINE
8
BLACK
6
CONTINUOUS
10
162.939
20
-127.566
11
162.888
21
-127.56
0
LINE
8
BLACK
6
CONTINUOUS
10
162.888
20
-127.56
11
162.793
21
-127.513
0
LINE
8
BLACK
6
CONTINUOUS
10
162.793
20
-127.513
11
162.775
21
-127.499
0
LINE
8
BLACK
6
CONTINUOUS
10
162.775
20
-127.499
11
162.774
21
-127.499
0
LINE
8
BLACK
6
CONTINUOUS
10
162.774
20
-127.499
11
162.711
21
-127.436
0
LINE
8
BLACK
6
CONTINUOUS
10
162.711
20
-127.436
11
162.711
21
-128.133
0
LINE
8
BLACK
6
CONTINUOUS
10
162.711
20
-128.133
11
162.922
21
-128.133
0
LINE
8
BLACK
6
CONTINUOUS
10
162.922
20
-128.133
11
162.948
21
-128.137
0
LINE
8
BLACK
6
CONTINUOUS
10
162.948
20
-128.137
11
162.987
21
-128.17
0
LINE
8
BLACK
6
CONTINUOUS
10
162.987
20
-128.17
11
162.996
21
-128.221
0
LINE
8
BLACK
6
CONTINUOUS
10
162.996
20
-128.221
11
162.97
21
-128.265
0
LINE
8
BLACK
6
CONTINUOUS
10
162.97
20
-128.265
11
162.922
21
-128.283
0
LINE
8
BLACK
6
CONTINUOUS
10
162.922
20
-128.283
11
162.351
21
-128.283
0
LINE
8
BLACK
6
CONTINUOUS
10
162.351
20
-128.283
11
162.325
21
-128.278
0
LINE
8
BLACK
6
CONTINUOUS
10
162.325
20
-128.278
11
162.286
21
-128.245
0
LINE
8
BLACK
6
CONTINUOUS
10
162.286
20
-128.245
11
162.277
21
-128.195
0
LINE
8
BLACK
6
CONTINUOUS
10
162.277
20
-128.195
11
162.302
21
-128.15
0
LINE
8
BLACK
6
CONTINUOUS
10
162.302
20
-128.15
11
162.351
21
-128.133
0
LINE
8
BLACK
6
CONTINUOUS
10
162.351
20
-128.133
11
162.561
21
-128.133
0
LINE
8
BLACK
6
CONTINUOUS
10
162.561
20
-128.133
11
162.561
21
-127.208
0
LINE
8
BLACK
6
CONTINUOUS
10
162.561
20
-127.208
11
162.566
21
-127.182
0
LINE
8
BLACK
6
CONTINUOUS
10
162.566
20
-127.182
11
162.569
21
-127.179
0
LINE
8
BLACK
6
CONTINUOUS
10
162.569
20
-127.179
11
162.569
21
-127.174
0
LINE
8
BLACK
6
CONTINUOUS
10
162.569
20
-127.174
11
162.585
21
-127.159
0
LINE
8
BLACK
6
CONTINUOUS
10
162.585
20
-127.159
11
162.599
21
-127.143
0
LINE
8
BLACK
6
CONTINUOUS
10
162.599
20
-127.143
11
162.603
21
-127.142
0
LINE
8
BLACK
6
CONTINUOUS
10
162.603
20
-127.142
11
162.606
21
-127.139
0
LINE
8
BLACK
6
CONTINUOUS
10
162.606
20
-127.139
11
162.628
21
-127.137
0
LINE
8
BLACK
6
CONTINUOUS
10
162.628
20
-127.137
11
162.649
21
-127.134
0
LINE
8
BLACK
6
CONTINUOUS
10
162.649
20
-127.134
11
162.653
21
-127.136
0
LINE
8
BLACK
6
CONTINUOUS
10
161.73
20
-125.383
11
161.747
21
-125.425
0
LINE
8
BLACK
6
CONTINUOUS
10
161.747
20
-125.425
11
161.747
21
-126.695
0
LINE
8
BLACK
6
CONTINUOUS
10
161.747
20
-126.695
11
163.017
21
-126.695
0
LINE
8
BLACK
6
CONTINUOUS
10
163.017
20
-126.695
11
163.06
21
-126.713
0
LINE
8
BLACK
6
CONTINUOUS
10
163.06
20
-126.713
11
163.077
21
-126.755
0
LINE
8
BLACK
6
CONTINUOUS
10
163.077
20
-126.755
11
163.06
21
-126.798
0
LINE
8
BLACK
6
CONTINUOUS
10
163.06
20
-126.798
11
163.017
21
-126.815
0
LINE
8
BLACK
6
CONTINUOUS
10
163.017
20
-126.815
11
161.687
21
-126.815
0
LINE
8
BLACK
6
CONTINUOUS
10
161.687
20
-126.815
11
161.645
21
-126.798
0
LINE
8
BLACK
6
CONTINUOUS
10
161.645
20
-126.798
11
161.627
21
-126.755
0
LINE
8
BLACK
6
CONTINUOUS
10
161.627
20
-126.755
11
161.627
21
-125.425
0
LINE
8
BLACK
6
CONTINUOUS
10
161.627
20
-125.425
11
161.645
21
-125.383
0
LINE
8
BLACK
6
CONTINUOUS
10
161.645
20
-125.383
11
161.687
21
-125.365
0
LINE
8
BLACK
6
CONTINUOUS
10
161.687
20
-125.365
11
161.73
21
-125.383
0
LINE
8
BLACK
6
CONTINUOUS
10
161.645
20
-124.198
11
161.627
21
-124.155
0
LINE
8
BLACK
6
CONTINUOUS
10
161.627
20
-124.155
11
161.627
21
-108.855
0
LINE
8
BLACK
6
CONTINUOUS
10
161.627
20
-108.855
11
161.645
21
-108.813
0
LINE
8
BLACK
6
CONTINUOUS
10
161.645
20
-108.813
11
161.687
21
-108.795
0
LINE
8
BLACK
6
CONTINUOUS
10
161.687
20
-108.795
11
164.347
21
-108.795
0
LINE
8
BLACK
6
CONTINUOUS
10
164.347
20
-108.795
11
164.39
21
-108.813
0
LINE
8
BLACK
6
CONTINUOUS
10
164.39
20
-108.813
11
164.407
21
-108.855
0
LINE
8
BLACK
6
CONTINUOUS
10
164.407
20
-108.855
11
164.407
21
-124.155
0
LINE
8
BLACK
6
CONTINUOUS
10
164.407
20
-124.155
11
164.39
21
-124.198
0
LINE
8
BLACK
6
CONTINUOUS
10
164.39
20
-124.198
11
164.347
21
-124.215
0
LINE
8
BLACK
6
CONTINUOUS
10
164.347
20
-124.215
11
161.687
21
-124.215
0
LINE
8
BLACK
6
CONTINUOUS
10
161.687
20
-124.215
11
161.645
21
-124.198
0
LINE
8
BLACK
6
CONTINUOUS
10
161.747
20
-108.915
11
161.747
21
-124.095
0
LINE
8
BLACK
6
CONTINUOUS
10
161.747
20
-124.095
11
164.287
21
-124.095
0
LINE
8
BLACK
6
CONTINUOUS
10
164.287
20
-124.095
11
164.287
21
-108.915
0
LINE
8
BLACK
6
CONTINUOUS
10
164.287
20
-108.915
11
161.747
21
-108.915
  0
ENDSEC
  0
EOF
